<svg id="b91ef90e-ae13-42c8-af47-d88a8fee7c52" data-name="Layer 1" xmlns="http://www.w3.org/2000/svg" viewBox="0 0 44.32 44.32"><defs><style>.a7e57a54-4efe-4b34-814a-3a0e80af24a6,.b20fbf41-f806-446e-a5ec-b3488adb128c{fill:#ede8db;}.a93665e4-b937-4481-bee3-01ece890e693{fill:#aeaaa1;}.a77f9e84-9d96-44fa-a941-baeb98caa40f{fill:#3c5743;}.a0fa9e9e-52c0-4dbb-a77e-5008458d568e,.b171b4ad-ff6f-48c3-9d50-c7ab2b3ee49d{fill:none;}.a0fa9e9e-52c0-4dbb-a77e-5008458d568e,.b171b4ad-ff6f-48c3-9d50-c7ab2b3ee49d,.b20fbf41-f806-446e-a5ec-b3488adb128c{stroke:#ea5736;stroke-miterlimit:10;}.a0fa9e9e-52c0-4dbb-a77e-5008458d568e{stroke-width:5.4px;}.b171b4ad-ff6f-48c3-9d50-c7ab2b3ee49d{stroke-linecap:round;stroke-width:2.31px;}.e73210d1-9490-40d5-a0db-592f17c76cb6{fill:#a2a081;}.a705baad-b915-42ce-8bd4-123716b284ec{fill:#77a9a2;fill-rule:evenodd;}.b20fbf41-f806-446e-a5ec-b3488adb128c{stroke-width:6px;}.f45f67ae-eb6c-403d-999f-8d54c4bbb975{fill:#ea5736;}</style></defs><rect class="a7e57a54-4efe-4b34-814a-3a0e80af24a6" x="-407.82" y="-966.32" width="465.11" height="2577.36"/><path class="a93665e4-b937-4481-bee3-01ece890e693" d="M24.17,696.91l32.63,4.48,1.07-296.87C11.93,318.26,21,336.77-25,246.74-52,193.82-79.6,140.41-93.47,82.63a370.21,370.21,0,0,1,1.1-176.5H-210.58a370.21,370.21,0,0,0-1.11,176.5c13.87,57.78,41.42,111.19,68.45,164.11,46,90,91.2,180.54,130.78,273.57C15,584.9,40.11,656.34,21.27,724c-1,3.53-4.2,7.92-7.28,5.93"/><path class="a77f9e84-9d96-44fa-a941-baeb98caa40f" d="M57.87,404.52C21.66,346.19-14.49,281.25-44,219.28s-52.31-127.81-60-196c-2.36-20.89-3.28-42.19.8-62.81l160-.34Z"/><line class="a0fa9e9e-52c0-4dbb-a77e-5008458d568e" x1="18.63" y1="77.18" x2="18.63" y2="37.19"/><path class="b171b4ad-ff6f-48c3-9d50-c7ab2b3ee49d" d="M8.34,39.76S9.27,50.1,18.63,53.87"/><path class="b171b4ad-ff6f-48c3-9d50-c7ab2b3ee49d" d="M28.75,35.77S27.53,48,18.63,48"/><circle class="e73210d1-9490-40d5-a0db-592f17c76cb6" cx="30.41" cy="34.19" r="8.04"/><circle class="e73210d1-9490-40d5-a0db-592f17c76cb6" cx="36.04" cy="12.37" r="8.04"/><circle class="e73210d1-9490-40d5-a0db-592f17c76cb6" cx="2.72" cy="13.17" r="9.61"/><circle class="e73210d1-9490-40d5-a0db-592f17c76cb6" cx="17.85" cy="36.56" r="6.27"/><circle class="e73210d1-9490-40d5-a0db-592f17c76cb6" cx="38.45" cy="25.44" r="10.35"/><circle class="e73210d1-9490-40d5-a0db-592f17c76cb6" cx="-2.42" cy="25.44" r="9.26"/><circle class="e73210d1-9490-40d5-a0db-592f17c76cb6" cx="14.5" cy="7.64" r="13.79"/><circle class="e73210d1-9490-40d5-a0db-592f17c76cb6" cx="24.8" cy="9.6" r="11.02"/><circle class="e73210d1-9490-40d5-a0db-592f17c76cb6" cx="16.73" cy="23.39" r="13.79"/><circle class="e73210d1-9490-40d5-a0db-592f17c76cb6" cx="6.7" cy="34.19" r="8.03"/><path class="a705baad-b915-42ce-8bd4-123716b284ec" d="M16.12,67.08a28.26,28.26,0,0,0,.15-2.92A30.82,30.82,0,0,0-14.56,33.34a30.74,30.74,0,0,0-21.56,8.8,17,17,0,0,0-9.26-2.75,17,17,0,0,0-17,17A17,17,0,0,0-61.74,61,25.1,25.1,0,0,0-79.41,85a25,25,0,0,0,2.14,10.14H29.52a20.53,20.53,0,0,0-13.4-28Z"/><path class="b20fbf41-f806-446e-a5ec-b3488adb128c" d="M57.48,657.21h-377a31.1,31.1,0,0,1-31.09-31.1V17.59A31.09,31.09,0,0,1-319.55-13.5h377"/><circle class="f45f67ae-eb6c-403d-999f-8d54c4bbb975" cx="22.16" cy="22.16" r="22.16"/><path class="a7e57a54-4efe-4b34-814a-3a0e80af24a6" d="M28.75,14.77l-5.13,7,5.13,7a1.47,1.47,0,0,1-.33,2.05,1.5,1.5,0,0,1-.86.3,1.55,1.55,0,0,1-1.22-.62l-4.53-6.24-4.56,6.24a1.54,1.54,0,0,1-1.19.62,1.43,1.43,0,0,1-.87-.3,1.48,1.48,0,0,1-.35-2.05l5.13-7-5.13-7a1.48,1.48,0,0,1,.35-2,1.4,1.4,0,0,1,2.06.32l4.56,6.21L26.34,13a1.43,1.43,0,0,1,2.08-.32A1.46,1.46,0,0,1,28.75,14.77Z"/></svg>