<svg id="f661795d-8d1e-4dfe-a39a-329d28518052" data-name="Layer 1" xmlns="http://www.w3.org/2000/svg" viewBox="0 0 173.31 202.05">
  <defs>
    <style>
      .f790d98b-0943-4464-b1ed-d012d6ed584d {
        fill: #ede8db;
      }

      .a4b10f82-e8a7-46c0-9483-d88affcaacb0, .ae7c947e-f5d7-4be0-aa59-c256a12946cc, .bb5c3f2a-a720-4e83-a359-ded23832e984, .fcea7448-993b-46f3-957d-d94942714bea {
        fill: none;
      }

      .ae7c947e-f5d7-4be0-aa59-c256a12946cc {
        stroke: #ea5736;
        stroke-miterlimit: 10;
        stroke-width: 3.16px;
      }

      .a4b10f82-e8a7-46c0-9483-d88affcaacb0, .a9098d6a-da2d-4426-aea0-2a769b88b41b, .ae7c947e-f5d7-4be0-aa59-c256a12946cc, .b7bbfc87-95b2-423a-bff4-f1fb0855a074, .bb5c3f2a-a720-4e83-a359-ded23832e984, .fcea7448-993b-46f3-957d-d94942714bea {
        stroke-linecap: round;
      }

      .a9098d6a-da2d-4426-aea0-2a769b88b41b {
        fill: #3d5845;
      }

      .a9098d6a-da2d-4426-aea0-2a769b88b41b, .bb5c3f2a-a720-4e83-a359-ded23832e984, .fcea7448-993b-46f3-957d-d94942714bea {
        stroke: #d5a655;
      }

      .a4b10f82-e8a7-46c0-9483-d88affcaacb0, .a9098d6a-da2d-4426-aea0-2a769b88b41b, .b7bbfc87-95b2-423a-bff4-f1fb0855a074, .bb5c3f2a-a720-4e83-a359-ded23832e984, .fcea7448-993b-46f3-957d-d94942714bea {
        stroke-linejoin: round;
      }

      .a9098d6a-da2d-4426-aea0-2a769b88b41b, .fcea7448-993b-46f3-957d-d94942714bea {
        stroke-width: 11.05px;
      }

      .bb5c3f2a-a720-4e83-a359-ded23832e984 {
        stroke-width: 19.74px;
      }

      .a4927f93-df15-446f-a141-4ca9a955ba4a {
        fill: #79a8a2;
      }

      .a4927f93-df15-446f-a141-4ca9a955ba4a, .a80e75aa-95b3-44d6-932a-df49ee1888cc, .add154f5-0c20-45cc-ad68-1d6eb9629a55 {
        fill-rule: evenodd;
      }

      .b8f4aeb2-6d29-4b20-82d1-dd3cb2227ba8 {
        fill: #d4a354;
      }

      .b836282b-406d-4b6b-a56b-978d8e463f58 {
        fill: #858173;
      }

      .b594a973-595d-48ec-80d0-610bb73371a7 {
        fill: #2d2e2c;
      }

      .ab02cdc5-645a-4713-bbdc-a1320224fb79 {
        fill: #ada9a0;
      }

      .ba53c183-b88a-4101-924d-09c872c3118d {
        fill: #ea5736;
      }

      .a80e75aa-95b3-44d6-932a-df49ee1888cc, .f413e79d-94e1-42cf-b43e-d1d0cee185f4 {
        fill: #ebe8da;
      }

      .a5c76b7a-a3c2-4acb-9cc7-23099450ad23, .add154f5-0c20-45cc-ad68-1d6eb9629a55 {
        fill: #3f5843;
      }

      .b6be4d0d-fb28-4ef6-9bf9-fe6004e1de7f {
        fill: #d4a455;
      }

      .b7bbfc87-95b2-423a-bff4-f1fb0855a074 {
        fill: #062838;
        stroke: #062838;
        stroke-width: 0.16px;
      }

      .b611f9e9-d82c-4e8a-9b8e-2781bffb54d7 {
        fill: #dfb4ac;
      }

      .a4b10f82-e8a7-46c0-9483-d88affcaacb0 {
        stroke: #524e4e;
        stroke-width: 0.52px;
      }

      .bdb10901-0af9-4573-a3bb-00be8fdc62d3 {
        fill: #78a9a2;
      }
    </style>
  </defs>
  <title>page-bg-04-05</title>
  <rect class="f790d98b-0943-4464-b1ed-d012d6ed584d" x="-622.96" y="-352.71" width="841.89" height="601.07"/>
  <g>
    <line class="ae7c947e-f5d7-4be0-aa59-c256a12946cc" x1="26.81" y1="200.47" x2="26.81" y2="160.61"/>
    <g>
      <polyline class="a9098d6a-da2d-4426-aea0-2a769b88b41b" points="35.62 119.3 26.81 110.49 18 119.3"/>
      <polyline class="a9098d6a-da2d-4426-aea0-2a769b88b41b" points="38.74 134.73 26.81 122.8 14.88 134.73"/>
      <polyline class="a9098d6a-da2d-4426-aea0-2a769b88b41b" points="41.86 150.17 26.81 135.12 11.77 150.17"/>
      <polyline class="a9098d6a-da2d-4426-aea0-2a769b88b41b" points="44.98 165.6 26.81 147.43 8.65 165.6"/>
      <polyline class="fcea7448-993b-46f3-957d-d94942714bea" points="48.1 181.03 26.81 159.74 5.53 181.03"/>
    </g>
    <line class="bb5c3f2a-a720-4e83-a359-ded23832e984" x1="26.81" y1="165.76" x2="26.81" y2="181.03"/>
  </g>
  <g>
    <path class="a4927f93-df15-446f-a141-4ca9a955ba4a" d="M155,62.91a2.2,2.2,0,0,1,1.65-2.51l2-.41.48,2.3Z"/>
    <g>
      <path class="b8f4aeb2-6d29-4b20-82d1-dd3cb2227ba8" d="M163.12,93.24a1.1,1.1,0,0,1-.77-1.34s1.07-4.07,2-8.25a1.1,1.1,0,0,1,2.15.48c-.95,4.22-2,8.29-2,8.33a1.1,1.1,0,0,1-1.35.78Z"/>
      <path class="b8f4aeb2-6d29-4b20-82d1-dd3cb2227ba8" d="M165.85,84.94a1.1,1.1,0,0,1-1.41-.55c-1.33-2.86-2.42-5-3.23-6.37a1.1,1.1,0,1,1,1.89-1.13c.86,1.44,2,3.65,3.33,6.57a1.1,1.1,0,0,1-.53,1.46Z"/>
      <path class="b836282b-406d-4b6b-a56b-978d8e463f58" d="M167.15,92.07H162l0,2h6.6v-.5A1.45,1.45,0,0,0,167.15,92.07Z"/>
      <path class="b8f4aeb2-6d29-4b20-82d1-dd3cb2227ba8" d="M149.18,88.68a1.11,1.11,0,0,1,.54-1.46s3.82-1.77,7.63-3.72a1.09,1.09,0,0,1,1.48.48,1.1,1.1,0,0,1-.48,1.48c-3.85,2-7.66,3.74-7.7,3.76a1.09,1.09,0,0,1-1.46-.53Z"/>
      <path class="b8f4aeb2-6d29-4b20-82d1-dd3cb2227ba8" d="M157.93,85.4a1.09,1.09,0,0,1-1.09-1.05c-.15-3.14-.34-5.54-.57-7.12a1.1,1.1,0,1,1,2.18-.32c.24,1.65.44,4.12.58,7.34A1.09,1.09,0,0,1,158,85.4Z"/>
      <path class="b836282b-406d-4b6b-a56b-978d8e463f58" d="M153,91l-1.2-1.77L151,88l-.86-1.26-1.63,1.06.07.1,1.19,1.76,2.45,3.6.41-.28A1.46,1.46,0,0,0,153,91Z"/>
      <g>
        <path class="b594a973-595d-48ec-80d0-610bb73371a7" d="M155.25,46.8A36.77,36.77,0,0,0,154.32,61h6.54V45.76Z"/>
        <path class="b594a973-595d-48ec-80d0-610bb73371a7" d="M161,61.08h-6.77V61a37,37,0,0,1,.94-14.21l0-.07L161,45.62Zm-6.56-.24h6.31V45.91l-5.38,1A36.87,36.87,0,0,0,154.42,60.84Z"/>
      </g>
      <g>
        <path class="b594a973-595d-48ec-80d0-610bb73371a7" d="M165.75,46.5A45.19,45.19,0,0,1,166.26,61h-6.54V45.76Z"/>
        <path class="b594a973-595d-48ec-80d0-610bb73371a7" d="M166.36,61.08h-6.77V45.62l5.82,1.07,0,.07A37.11,37.11,0,0,1,166.38,61Zm-6.52-.24h6.31a36.87,36.87,0,0,0-.93-13.93l-5.38-1Z"/>
      </g>
      <g>
        <line class="ab02cdc5-645a-4713-bbdc-a1320224fb79" x1="164.98" y1="48.54" x2="163.72" y2="48.54"/>
        <path class="b594a973-595d-48ec-80d0-610bb73371a7" d="M165,48.85h-1.26a.32.32,0,1,1,0-.63H165a.32.32,0,1,1,0,.63Z"/>
      </g>
      <g>
        <line class="ab02cdc5-645a-4713-bbdc-a1320224fb79" x1="159.61" y1="48.54" x2="158.35" y2="48.54"/>
        <path class="b594a973-595d-48ec-80d0-610bb73371a7" d="M159.61,48.85h-1.26a.32.32,0,1,1,0-.63h1.26a.32.32,0,0,1,0,.63Z"/>
      </g>
      <g>
        <path class="b594a973-595d-48ec-80d0-610bb73371a7" d="M160.69,42.67l-.08,4H156L155,51.38v-3A5.7,5.7,0,0,1,160.69,42.67Z"/>
        <path class="b594a973-595d-48ec-80d0-610bb73371a7" d="M155.15,51.4l-.24,0v-3a5.83,5.83,0,0,1,5.78-5.82h.13l-.09,4.29h-4.67Zm5.42-8.61a5.6,5.6,0,0,0-5.42,5.58v1.78l.71-3.55h4.63Z"/>
      </g>
      <g>
        <path class="b594a973-595d-48ec-80d0-610bb73371a7" d="M160.77,42.67l.08,4h5l.26,10,.36-1.38V48.37A5.7,5.7,0,0,0,160.77,42.67Z"/>
        <path class="b594a973-595d-48ec-80d0-610bb73371a7" d="M166,57.53l-.28-10.69h-5l-.09-4.29h.13a5.83,5.83,0,0,1,5.78,5.82v6.94ZM161,46.6h5l.24,9.21.14-.53V48.37a5.6,5.6,0,0,0-5.42-5.58Z"/>
      </g>
      <g>
        <path class="b594a973-595d-48ec-80d0-610bb73371a7" d="M157,46.82a112.88,112.88,0,0,0,.4,13.47c.15.24-1.15.21-1.15.21l-1.64-8.87,1.22-5.38Z"/>
        <path class="b594a973-595d-48ec-80d0-610bb73371a7" d="M156.4,60.63h-.31l-1.66-9v0l1.25-5.54,1.39.68v.08a110.9,110.9,0,0,0,.39,13.42.18.18,0,0,1,0,.16C157.36,60.58,156.86,60.63,156.4,60.63Zm-.1-.25a3.23,3.23,0,0,0,.93-.08,112.13,112.13,0,0,1-.4-13.4l-1-.48-1.18,5.22Z"/>
      </g>
      <g>
        <line class="b8f4aeb2-6d29-4b20-82d1-dd3cb2227ba8" x1="160.77" y1="56.87" x2="160.77" y2="61.73"/>
        <path class="b8f4aeb2-6d29-4b20-82d1-dd3cb2227ba8" d="M160.77,63.18a1.45,1.45,0,0,1-1.46-1.45V56.87a1.46,1.46,0,0,1,2.91,0v4.86A1.45,1.45,0,0,1,160.77,63.18Z"/>
      </g>
      <path class="ba53c183-b88a-4101-924d-09c872c3118d" d="M159.06,60.11h3.17a3.58,3.58,0,0,1,3.58,3.58v8.09a3,3,0,0,1-3,3h-4.42a3,3,0,0,1-3-3V63.69a3.58,3.58,0,0,1,3.58-3.58Z" transform="translate(321.28 134.84) rotate(180)"/>
      <g>
        <path class="a80e75aa-95b3-44d6-932a-df49ee1888cc" d="M162.28,60.11h-1.67s-.28,1.35.83,1.35S162.28,60.11,162.28,60.11Z"/>
        <path class="a80e75aa-95b3-44d6-932a-df49ee1888cc" d="M161,60.11h-1.67s-.28,1.35.83,1.35S161,60.11,161,60.11Z"/>
        <rect class="f413e79d-94e1-42cf-b43e-d1d0cee185f4" x="160.58" y="60.78" width="0.55" height="13.92"/>
      </g>
      <g>
        <polygon class="add154f5-0c20-45cc-ad68-1d6eb9629a55" points="155.17 71.71 155.47 70.67 160.63 70.3 165.81 70.67 166.11 71.71 169.15 82.14 161.03 82.14 160.25 82.14 152.13 82.14 155.17 71.71"/>
        <path class="a5c76b7a-a3c2-4acb-9cc7-23099450ad23" d="M169.31,82.26H152l3.41-11.7,5.24-.38h0l5.26.38Zm-17-.23H169l-3.28-11.25-5.09-.37-5.07.37Z"/>
      </g>
      <path class="ba53c183-b88a-4101-924d-09c872c3118d" d="M141.56,62.65a1.12,1.12,0,0,0,.53,1.39,24.62,24.62,0,0,0,8.11,2.26,1.11,1.11,0,0,0,.21-2.2,22.71,22.71,0,0,1-7.32-2,1.09,1.09,0,0,0-1.48.48Z"/>
      <rect class="b8f4aeb2-6d29-4b20-82d1-dd3cb2227ba8" x="140.66" y="61.28" width="2.48" height="2.48" rx="1.07" transform="translate(149.03 -92.38) rotate(68.86)"/>
      <path class="ba53c183-b88a-4101-924d-09c872c3118d" d="M149.25,65.12a.89.89,0,0,0,0,.32,1.09,1.09,0,0,0,1.31.83l.44-.09c2.26-.49,4.59-1,6.45-3.37a1.1,1.1,0,1,0-1.72-1.36c-1.38,1.75-3.07,2.11-5.2,2.58l-.45.09A1.13,1.13,0,0,0,149.25,65.12Z"/>
      <path class="ba53c183-b88a-4101-924d-09c872c3118d" d="M172.1,74.4l-.1,0a1.09,1.09,0,0,1-1.3-.85h0a22.73,22.73,0,0,0-3-7,1.11,1.11,0,0,1,.32-1.53,1.1,1.1,0,0,1,1.52.32,24.32,24.32,0,0,1,3.31,7.74A1.1,1.1,0,0,1,172.1,74.4Z"/>
      <rect class="b8f4aeb2-6d29-4b20-82d1-dd3cb2227ba8" x="170.74" y="72.84" width="2.48" height="2.48" rx="0.92" transform="translate(-14.11 53.19) rotate(-16.9)"/>
      <path class="ba53c183-b88a-4101-924d-09c872c3118d" d="M168.9,67a1.1,1.1,0,0,1-1.23-.45l-.26-.38c-1.2-1.82-2.15-3.26-4.28-3.91a1.1,1.1,0,1,1,.65-2.11c2.88.89,4.2,2.88,5.47,4.8l.25.38a1.11,1.11,0,0,1-.6,1.67Z"/>
      <g>
        <rect class="b8f4aeb2-6d29-4b20-82d1-dd3cb2227ba8" x="155.1" y="43.11" width="11.33" height="14.85" rx="5.55" transform="translate(321.53 101.08) rotate(180)"/>
        <path class="b8f4aeb2-6d29-4b20-82d1-dd3cb2227ba8" d="M160.77,58.08A5.78,5.78,0,0,1,155,52.31V48.77a5.77,5.77,0,0,1,11.53,0v3.54A5.78,5.78,0,0,1,160.77,58.08Zm0-14.95a5.65,5.65,0,0,0-5.65,5.64v3.54a5.65,5.65,0,1,0,11.29,0V48.77A5.65,5.65,0,0,0,160.77,43.13Z"/>
      </g>
      <g>
        <circle class="b594a973-595d-48ec-80d0-610bb73371a7" cx="164.57" cy="50.29" r="0.33"/>
        <circle class="b594a973-595d-48ec-80d0-610bb73371a7" cx="164.58" cy="50.3" r="0.33"/>
        <g>
          <rect class="f413e79d-94e1-42cf-b43e-d1d0cee185f4" x="163.5" y="49.88" width="1.52" height="0.82" rx="0.4" transform="translate(328.52 100.58) rotate(-180)"/>
          <circle class="b594a973-595d-48ec-80d0-610bb73371a7" cx="164.59" cy="50.29" r="0.33"/>
        </g>
        <g>
          <rect class="f413e79d-94e1-42cf-b43e-d1d0cee185f4" x="158.04" y="49.88" width="1.52" height="0.82" rx="0.36" transform="translate(317.6 100.58) rotate(-180)"/>
          <circle class="b594a973-595d-48ec-80d0-610bb73371a7" cx="159.12" cy="50.29" r="0.33"/>
        </g>
        <g>
          <line class="ab02cdc5-645a-4713-bbdc-a1320224fb79" x1="164.98" y1="48.54" x2="163.72" y2="48.54"/>
          <path class="b594a973-595d-48ec-80d0-610bb73371a7" d="M165,48.85h-1.26a.32.32,0,1,1,0-.63H165a.32.32,0,1,1,0,.63Z"/>
        </g>
        <g>
          <line class="ab02cdc5-645a-4713-bbdc-a1320224fb79" x1="159.61" y1="48.54" x2="158.35" y2="48.54"/>
          <path class="b594a973-595d-48ec-80d0-610bb73371a7" d="M159.61,48.85h-1.26a.32.32,0,1,1,0-.63h1.26a.32.32,0,0,1,0,.63Z"/>
        </g>
        <path class="b594a973-595d-48ec-80d0-610bb73371a7" d="M161.66,52.39h-.47a.25.25,0,0,1,0-.49h.47a.07.07,0,0,0,.08-.07v-.45a.24.24,0,0,1,.24-.24.24.24,0,0,1,.24.24v.45A.54.54,0,0,1,161.66,52.39Z"/>
        <path class="b594a973-595d-48ec-80d0-610bb73371a7" d="M161.7,55.29a3.7,3.7,0,0,1-2.42-.9.24.24,0,0,1,0-.34.24.24,0,0,1,.33,0,3.23,3.23,0,0,0,2.11.79,3.19,3.19,0,0,0,2.11-.79.26.26,0,0,1,.34,0,.25.25,0,0,1,0,.34A3.7,3.7,0,0,1,161.7,55.29Z"/>
      </g>
      <path class="b594a973-595d-48ec-80d0-610bb73371a7" d="M155.16,46.69l0,.07A37,37,0,0,0,154.2,61v.11l3.37-1.39V45.62Z"/>
      <g>
        <line class="ab02cdc5-645a-4713-bbdc-a1320224fb79" x1="164.98" y1="48.54" x2="163.72" y2="48.54"/>
        <path class="b594a973-595d-48ec-80d0-610bb73371a7" d="M165,48.85h-1.26a.32.32,0,1,1,0-.63H165a.32.32,0,1,1,0,.63Z"/>
      </g>
      <g>
        <line class="ab02cdc5-645a-4713-bbdc-a1320224fb79" x1="159.61" y1="48.54" x2="158.35" y2="48.54"/>
        <path class="b594a973-595d-48ec-80d0-610bb73371a7" d="M159.61,48.85h-1.26a.32.32,0,1,1,0-.63h1.26a.32.32,0,0,1,0,.63Z"/>
      </g>
      <g>
        <path class="b594a973-595d-48ec-80d0-610bb73371a7" d="M160.69,42.67l-.08,4H156L155,51.38v-3A5.7,5.7,0,0,1,160.69,42.67Z"/>
        <path class="b594a973-595d-48ec-80d0-610bb73371a7" d="M155.15,51.4l-.24,0v-3a5.83,5.83,0,0,1,5.78-5.82h.13l-.09,4.29h-4.67Zm5.42-8.61a5.6,5.6,0,0,0-5.42,5.58v1.78l.71-3.55h4.63Z"/>
      </g>
      <g>
        <path class="b594a973-595d-48ec-80d0-610bb73371a7" d="M160.77,42.67l.08,4h5l.26,10,.36-1.38V48.37A5.7,5.7,0,0,0,160.77,42.67Z"/>
        <path class="b594a973-595d-48ec-80d0-610bb73371a7" d="M166,57.53l-.28-10.69h-5l-.09-4.29h.13a5.83,5.83,0,0,1,5.78,5.82v6.94ZM161,46.6h5l.24,9.21.14-.53V48.37a5.6,5.6,0,0,0-5.42-5.58Z"/>
      </g>
      <g>
        <path class="b594a973-595d-48ec-80d0-610bb73371a7" d="M157,46.82a112.88,112.88,0,0,0,.4,13.47c.15.24-1.15.21-1.15.21l-1.64-8.87,1.22-5.38Z"/>
        <path class="b594a973-595d-48ec-80d0-610bb73371a7" d="M156.45,61h-.31l-1.71-9.23v0l1.29-5.69,1.42.7v.08a117.87,117.87,0,0,0,.4,13.79.2.2,0,0,1,0,.17C157.44,61,156.93,61,156.45,61Zm-.15-.65a3.23,3.23,0,0,0,.93-.08,112.13,112.13,0,0,1-.4-13.4l-1-.48-1.18,5.22Z"/>
      </g>
    </g>
    <polygon class="b6be4d0d-fb28-4ef6-9bf9-fe6004e1de7f" points="57.39 11.18 48.55 19.21 48.87 0.56 57.39 11.18"/>
    <polygon class="b7bbfc87-95b2-423a-bff4-f1fb0855a074" points="63.65 5.92 67.46 29.4 57.39 11.18 63.65 5.92"/>
    <polygon class="ba53c183-b88a-4101-924d-09c872c3118d" points="48.87 0.56 63.65 5.92 57.39 11.18 48.87 0.56"/>
    <polygon class="b611f9e9-d82c-4e8a-9b8e-2781bffb54d7" points="57.39 11.18 48.55 19.21 67.46 29.4 57.39 11.18"/>
    <path class="a4b10f82-e8a7-46c0-9483-d88affcaacb0" d="M141.66,62s-4.56,1.18-21.35-9.28c-4.19-2.62-11.07-6.44-16.35-7.16-5.46-.75-12.14-2.74-20.15-8.94-3.91-3-11.36-5.59-16.35-7.16"/>
    <path class="a4b10f82-e8a7-46c0-9483-d88affcaacb0" d="M67.68,47.3c1.15-4.82.41-12.66-.22-17.86"/>
    <g>
      <circle class="ba53c183-b88a-4101-924d-09c872c3118d" cx="67.6" cy="47.28" r="1.13"/>
      <polygon class="ba53c183-b88a-4101-924d-09c872c3118d" points="65.34 47.28 65.34 45.97 66.47 46.62 67.61 47.28 66.47 47.93 65.34 48.59 65.34 47.28"/>
      <polygon class="ba53c183-b88a-4101-924d-09c872c3118d" points="69.86 47.28 69.86 48.59 68.73 47.93 67.6 47.28 68.73 46.62 69.86 45.97 69.86 47.28"/>
    </g>
    <g>
      <circle class="b7bbfc87-95b2-423a-bff4-f1fb0855a074" cx="68.11" cy="40.56" r="1.13"/>
      <polygon class="b7bbfc87-95b2-423a-bff4-f1fb0855a074" points="65.87 40.81 65.72 39.51 66.92 40.03 68.12 40.56 67.07 41.33 66.01 42.11 65.87 40.81"/>
      <polygon class="b7bbfc87-95b2-423a-bff4-f1fb0855a074" points="70.36 40.31 70.5 41.61 69.31 41.08 68.11 40.56 69.16 39.78 70.22 39.01 70.36 40.31"/>
    </g>
    <g>
      <circle class="bdb10901-0af9-4573-a3bb-00be8fdc62d3" cx="67.75" cy="34.47" r="1.13"/>
      <polygon class="bdb10901-0af9-4573-a3bb-00be8fdc62d3" points="65.54 34.94 65.27 33.66 66.51 34.07 67.76 34.47 66.79 35.35 65.82 36.22 65.54 34.94"/>
      <polygon class="bdb10901-0af9-4573-a3bb-00be8fdc62d3" points="69.96 34 70.24 35.28 68.99 34.88 67.75 34.47 68.72 33.6 69.69 32.72 69.96 34"/>
    </g>
  </g>
</svg>
