<svg id="ee16d53f-f0f1-4b2e-b3bd-d7f657cec96d" data-name="Layer 1" xmlns="http://www.w3.org/2000/svg" xmlns:xlink="http://www.w3.org/1999/xlink" viewBox="0 0 105.19 195.62">
  <defs>
    <style>
      .a2557e22-c1fb-4822-a222-878b588e11a2, .a8d45fe2-291c-4ac0-9de7-ada69b0c772a, .e6105480-6e3e-4736-bec0-cdffa43e5cb9 {
        fill: none;
      }

      .a70653f4-fb19-415f-bfc0-cf0a01a54d77 {
        fill: #ede8db;
      }

      .fb11e8d1-e6d5-4df8-b6d6-6facd3df0e52 {
        fill: #89563c;
      }

      .a2557e22-c1fb-4822-a222-878b588e11a2, .a8d45fe2-291c-4ac0-9de7-ada69b0c772a {
        stroke: #ea5736;
        stroke-miterlimit: 10;
      }

      .a2557e22-c1fb-4822-a222-878b588e11a2 {
        stroke-width: 6.91px;
      }

      .a8d45fe2-291c-4ac0-9de7-ada69b0c772a {
        stroke-linecap: round;
        stroke-width: 2.96px;
      }

      .a83dc1f0-2e5b-41a7-974d-2d594ad27341 {
        fill: #77a9a2;
      }

      .f7fb2804-7d1c-4807-9bbe-fa18545a988d {
        fill: #002838;
      }

      .b0e3932d-f907-4bdf-aaa4-2b9cf442095f {
        fill: #867f72;
      }

      .b354a7d0-69ef-409d-b589-ca4b32a5cfb2 {
        fill: #2e2d2c;
      }

      .a1205f0c-666c-4e2d-b2f5-f7ed2b0435cb {
        fill: #ea5736;
      }

      .f1d79c8c-d2c0-4e18-9909-0be208f4cd95 {
        fill: #d5a555;
      }

      .a3af5688-6b5b-4371-b0e4-be719bb0bd77 {
        clip-path: url(#fca95fb9-0191-4f4d-9fd4-349c3484255b);
      }

      .a6efdff9-28c2-4620-a9f3-ca3e0e8581c0 {
        fill: #30383b;
      }

      .f80e3f77-75f7-46f7-9002-10e428a5ac9c {
        fill: #3c5743;
      }
    </style>
    <clipPath id="fca95fb9-0191-4f4d-9fd4-349c3484255b">
      <rect class="e6105480-6e3e-4736-bec0-cdffa43e5cb9" x="73.78" y="132.94" width="2.17" height="1.17" rx="0.58"/>
    </clipPath>
  </defs>
  <title>page-bg-01</title>
  <rect class="a70653f4-fb19-415f-bfc0-cf0a01a54d77" x="-80.62" y="-172.37" width="841.89" height="601.07"/>
  <g>
    <ellipse class="fb11e8d1-e6d5-4df8-b6d6-6facd3df0e52" cx="42.71" cy="109.91" rx="11.95" ry="4.35"/>
    <g>
      <line class="a2557e22-c1fb-4822-a222-878b588e11a2" x1="42.92" y1="109.91" x2="42.92" y2="58.77"/>
      <path class="a8d45fe2-291c-4ac0-9de7-ada69b0c772a" d="M29.77,62.06s1.18,13.23,13.15,18"/>
      <path class="a83dc1f0-2e5b-41a7-974d-2d594ad27341" d="M55.87,57S54.3,72.55,42.92,72.55"/>
      <circle class="a83dc1f0-2e5b-41a7-974d-2d594ad27341" cx="57.98" cy="54.95" r="10.28"/>
      <circle class="a83dc1f0-2e5b-41a7-974d-2d594ad27341" cx="65.19" cy="27.04" r="10.28"/>
      <circle class="a83dc1f0-2e5b-41a7-974d-2d594ad27341" cx="22.58" cy="28.06" r="12.29"/>
      <circle class="a83dc1f0-2e5b-41a7-974d-2d594ad27341" cx="41.93" cy="57.97" r="8.02"/>
      <circle class="a83dc1f0-2e5b-41a7-974d-2d594ad27341" cx="68.27" cy="43.75" r="13.23"/>
      <circle class="a83dc1f0-2e5b-41a7-974d-2d594ad27341" cx="16.01" cy="43.75" r="11.84"/>
      <circle class="a83dc1f0-2e5b-41a7-974d-2d594ad27341" cx="37.65" cy="20.99" r="17.64"/>
      <circle class="a83dc1f0-2e5b-41a7-974d-2d594ad27341" cx="50.82" cy="23.5" r="14.09"/>
      <circle class="a83dc1f0-2e5b-41a7-974d-2d594ad27341" cx="40.49" cy="41.14" r="17.64"/>
      <circle class="a83dc1f0-2e5b-41a7-974d-2d594ad27341" cx="27.67" cy="54.95" r="10.26"/>
    </g>
  </g>
  <g>
    <path class="f7fb2804-7d1c-4807-9bbe-fa18545a988d" d="M73.06,192.73a2.6,2.6,0,0,1-2.6-2.6,116.76,116.76,0,0,1,2.94-24.95,2.6,2.6,0,1,1,5,1.24,113.4,113.4,0,0,0-2.79,23.71A2.6,2.6,0,0,1,73.06,192.73Z"/>
    <path class="f7fb2804-7d1c-4807-9bbe-fa18545a988d" d="M85,192.73a2.6,2.6,0,0,1-2.6-2.6,113.08,113.08,0,0,0-2.79-23.71,2.6,2.6,0,0,1,5-1.24,117.1,117.1,0,0,1,2.93,24.95A2.6,2.6,0,0,1,85,192.73Z"/>
    <path class="b0e3932d-f907-4bdf-aaa4-2b9cf442095f" d="M73.37,189.94H68a2.19,2.19,0,0,0-2.2,2.19v.75h9.8v-.75A2.19,2.19,0,0,0,73.37,189.94Z"/>
    <polygon class="b0e3932d-f907-4bdf-aaa4-2b9cf442095f" points="75.69 189.94 75.75 192.88 72.35 192.88 71.21 189.94 75.69 189.94"/>
    <path class="b0e3932d-f907-4bdf-aaa4-2b9cf442095f" d="M84.75,189.94h5.42a2.19,2.19,0,0,1,2.19,2.19v.75h-9.8v-.75A2.19,2.19,0,0,1,84.75,189.94Z"/>
    <polygon class="b0e3932d-f907-4bdf-aaa4-2b9cf442095f" points="82.44 189.94 82.38 192.88 85.77 192.88 86.92 189.94 82.44 189.94"/>
    <path class="b354a7d0-69ef-409d-b589-ca4b32a5cfb2" d="M94.81,147.1a.18.18,0,0,1-.18-.17V124.31a.18.18,0,0,1,.18-.17.18.18,0,0,1,.17.17v22.62A.18.18,0,0,1,94.81,147.1Z"/>
    <path class="a1205f0c-666c-4e2d-b2f5-f7ed2b0435cb" d="M103.06,112.77a8.24,8.24,0,0,0-4.3-7.25,8.3,8.3,0,0,0-7.9,0,8.24,8.24,0,0,0-4.3,7.25c0,3.72,2.44,6.69,3.2,7.62,1.87,2.3,3.24,4,5,4s3.06-1.65,4.91-3.85C100.53,119.6,103.06,116.63,103.06,112.77Z"/>
    <g>
      <polygon class="a70653f4-fb19-415f-bfc0-cf0a01a54d77" points="95.16 124.31 94.81 124.31 94.46 124.31 93.92 126 94.81 126 95.7 126 95.16 124.31"/>
      <path class="a70653f4-fb19-415f-bfc0-cf0a01a54d77" d="M95.7,126.35H93.92a.35.35,0,0,1-.28-.15.31.31,0,0,1,0-.31l.54-1.68a.35.35,0,0,1,.33-.24h.7a.35.35,0,0,1,.33.24l.54,1.68a.31.31,0,0,1,0,.31A.35.35,0,0,1,95.7,126.35Zm-1.31-.7h.84l-.32-1h-.2Z"/>
    </g>
    <g>
      <circle class="f1d79c8c-d2c0-4e18-9909-0be208f4cd95" cx="70.71" cy="135.08" r="1.68"/>
      <path class="f1d79c8c-d2c0-4e18-9909-0be208f4cd95" d="M70.71,136.93a1.85,1.85,0,1,1,1.85-1.85A1.85,1.85,0,0,1,70.71,136.93Zm0-3.36a1.51,1.51,0,1,0,1.51,1.51A1.51,1.51,0,0,0,70.71,133.57Z"/>
    </g>
    <g>
      <circle class="f1d79c8c-d2c0-4e18-9909-0be208f4cd95" cx="87.23" cy="135.08" r="1.68"/>
      <path class="f1d79c8c-d2c0-4e18-9909-0be208f4cd95" d="M87.23,136.93a1.85,1.85,0,1,1,1.85-1.85A1.85,1.85,0,0,1,87.23,136.93Zm0-3.36a1.51,1.51,0,1,0,0,3,1.51,1.51,0,0,0,0-3Z"/>
    </g>
    <g>
      <rect class="f1d79c8c-d2c0-4e18-9909-0be208f4cd95" x="70.83" y="122.64" width="16.28" height="22.05" rx="8.14"/>
      <path class="f1d79c8c-d2c0-4e18-9909-0be208f4cd95" d="M79,144.86a8.32,8.32,0,0,1-8.31-8.31v-5.77a8.31,8.31,0,0,1,16.62,0v5.77A8.31,8.31,0,0,1,79,144.86Zm0-22a8,8,0,0,0-8,8v5.77a8,8,0,1,0,15.93,0v-5.77A8,8,0,0,0,79,122.82Z"/>
    </g>
    <rect class="a70653f4-fb19-415f-bfc0-cf0a01a54d77" x="73.78" y="132.94" width="2.17" height="1.17" rx="0.58"/>
    <rect class="a70653f4-fb19-415f-bfc0-cf0a01a54d77" x="82" y="132.94" width="2.17" height="1.17" rx="0.58"/>
    <circle class="b354a7d0-69ef-409d-b589-ca4b32a5cfb2" cx="83.09" cy="133.52" r="0.46"/>
    <path class="b354a7d0-69ef-409d-b589-ca4b32a5cfb2" d="M75.58,131.54h-1.8a.52.52,0,0,1-.52-.52.52.52,0,0,1,.52-.52h1.8a.52.52,0,0,1,.52.52A.52.52,0,0,1,75.58,131.54Z"/>
    <path class="b354a7d0-69ef-409d-b589-ca4b32a5cfb2" d="M84.11,131.54h-1.8a.52.52,0,0,1-.52-.52.52.52,0,0,1,.52-.52h1.8a.52.52,0,0,1,.52.52A.52.52,0,0,1,84.11,131.54Z"/>
    <g class="a3af5688-6b5b-4371-b0e4-be719bb0bd77">
      <circle class="b354a7d0-69ef-409d-b589-ca4b32a5cfb2" cx="74.86" cy="133.52" r="0.46"/>
    </g>
    <path class="a6efdff9-28c2-4620-a9f3-ca3e0e8581c0" d="M79,140.69a4.8,4.8,0,0,1-3.4-1.31.35.35,0,1,1,.46-.52,4.37,4.37,0,0,0,5.89,0,.34.34,0,1,1,.45.52A4.8,4.8,0,0,1,79,140.69Z"/>
    <path class="a6efdff9-28c2-4620-a9f3-ca3e0e8581c0" d="M79.7,136.52H79a.78.78,0,0,1-.8-.8v-.64a.35.35,0,0,1,.34-.35.35.35,0,0,1,.35.35v.64c0,.1.06.1.11.1h.66a.35.35,0,0,1,0,.7Z"/>
    <g>
      <path class="a1205f0c-666c-4e2d-b2f5-f7ed2b0435cb" d="M79,122.64l.12,5.79h6.64l1.33,6.65v-4.3A8.14,8.14,0,0,0,79,122.64Z"/>
      <path class="a1205f0c-666c-4e2d-b2f5-f7ed2b0435cb" d="M86.94,135.11l-1.3-6.51H79l-.12-6.13H79a8.33,8.33,0,0,1,8.26,8.31v4.3Zm-7.63-6.86h6.62l1,5.07v-2.54a8,8,0,0,0-7.74-8Z"/>
    </g>
    <g>
      <path class="a1205f0c-666c-4e2d-b2f5-f7ed2b0435cb" d="M78.92,122.64l-.12,5.79H72.16l-1.33,6.65v-4.3A8.14,8.14,0,0,1,78.92,122.64Z"/>
      <path class="a1205f0c-666c-4e2d-b2f5-f7ed2b0435cb" d="M71,135.11l-.34,0v-4.3a8.34,8.34,0,0,1,8.26-8.31h.18L79,128.6H72.3Zm7.75-12.29a8,8,0,0,0-7.74,8v2.54l1-5.07h6.61Z"/>
    </g>
    <path class="f1d79c8c-d2c0-4e18-9909-0be208f4cd95" d="M79.26,151.92a2.08,2.08,0,0,1-2.08-2.08v-6.92a2.08,2.08,0,0,1,4.16,0v6.92A2.08,2.08,0,0,1,79.26,151.92Z"/>
    <rect class="f80e3f77-75f7-46f7-9002-10e428a5ac9c" x="71.25" y="147.53" width="15.7" height="19.76" rx="7.85"/>
    <rect class="f7fb2804-7d1c-4807-9bbe-fa18545a988d" x="71.25" y="160.61" width="15.7" height="7.34"/>
    <rect class="f7fb2804-7d1c-4807-9bbe-fa18545a988d" x="71.25" y="165.12" width="15.7" height="5.64" rx="2.82"/>
    <path class="f80e3f77-75f7-46f7-9002-10e428a5ac9c" d="M92.5,155.36c-4.85,0-9.12-4.18-9.31-4.38l2.19-2.21s4,3.93,7.76,3.44c1.69-.23,3.1-1.33,4.3-3.37,1.39-2.36,1.78-4.48,1.16-6.29-1-3-4.55-4.44-4.58-4.45l1.13-2.9c.2.07,4.87,1.93,6.39,6.31.94,2.72.47,5.72-1.42,8.91-1.7,2.89-3.92,4.53-6.59,4.88A9,9,0,0,1,92.5,155.36Z"/>
    <rect class="f1d79c8c-d2c0-4e18-9909-0be208f4cd95" x="93.04" y="135.01" width="3.55" height="3.55" rx="1.77" transform="translate(82.54 -29.19) rotate(30.5)"/>
    <path class="f80e3f77-75f7-46f7-9002-10e428a5ac9c" d="M66.92,170.1l-3.12-.16c.92-18.32,9.76-21.85,10.14-22L75,150.87l-.54-1.46.56,1.45a9.94,9.94,0,0,0-3.71,3.44C69.56,156.83,67.34,161.63,66.92,170.1Z"/>
    <rect class="f1d79c8c-d2c0-4e18-9909-0be208f4cd95" x="63.59" y="169.26" width="3.55" height="3.55" rx="1.77"/>
  </g>
</svg>
