<svg id="ff39c2b7-57fc-4c05-b464-ee1dd00d5fe0" data-name="Layer 1" xmlns="http://www.w3.org/2000/svg" viewBox="0 0 173.31 202.05">
  <defs>
    <style>
      .bf997215-5c4c-4b1a-bb48-32361a93e6a3 {
        fill: #ede8db;
      }

      .bd532c2a-d557-4abb-88cb-ef61ec47577a {
        fill: #ea5836;
        stroke: #ea5836;
        stroke-width: 1.5px;
      }

      .aae2b02a-2743-4dda-8f7c-07a850223c7b, .ab888fda-30fa-42b7-9df8-dd98ee0e5142, .ad9aea41-1b76-4e7a-93a3-2cdfeab66cc3, .b0084c37-d209-461b-9fa0-3e0aa45454eb, .b831a103-e186-410b-b68c-58b2aed67ae8, .b8e45bd7-1955-42df-a909-a7a732a40966, .bd532c2a-d557-4abb-88cb-ef61ec47577a, .ffe795f1-92a3-4842-b2e8-c7c5845168e9 {
        stroke-linecap: round;
      }

      .ab888fda-30fa-42b7-9df8-dd98ee0e5142, .b0084c37-d209-461b-9fa0-3e0aa45454eb, .b831a103-e186-410b-b68c-58b2aed67ae8, .b8e45bd7-1955-42df-a909-a7a732a40966, .bd532c2a-d557-4abb-88cb-ef61ec47577a, .ffe795f1-92a3-4842-b2e8-c7c5845168e9 {
        stroke-linejoin: round;
      }

      .aae2b02a-2743-4dda-8f7c-07a850223c7b, .ad9aea41-1b76-4e7a-93a3-2cdfeab66cc3, .b0084c37-d209-461b-9fa0-3e0aa45454eb, .b831a103-e186-410b-b68c-58b2aed67ae8, .ffe795f1-92a3-4842-b2e8-c7c5845168e9 {
        fill: none;
      }

      .aae2b02a-2743-4dda-8f7c-07a850223c7b {
        stroke: #2d2e2c;
        stroke-width: 0.36px;
      }

      .aae2b02a-2743-4dda-8f7c-07a850223c7b, .ad9aea41-1b76-4e7a-93a3-2cdfeab66cc3 {
        stroke-miterlimit: 10;
      }

      .ad9aea41-1b76-4e7a-93a3-2cdfeab66cc3 {
        stroke: #ea5736;
        stroke-width: 3.16px;
      }

      .ab888fda-30fa-42b7-9df8-dd98ee0e5142 {
        fill: #3d5845;
      }

      .ab888fda-30fa-42b7-9df8-dd98ee0e5142, .b0084c37-d209-461b-9fa0-3e0aa45454eb, .ffe795f1-92a3-4842-b2e8-c7c5845168e9 {
        stroke: #d5a655;
      }

      .ab888fda-30fa-42b7-9df8-dd98ee0e5142, .b0084c37-d209-461b-9fa0-3e0aa45454eb {
        stroke-width: 11.05px;
      }

      .ffe795f1-92a3-4842-b2e8-c7c5845168e9 {
        stroke-width: 19.74px;
      }

      .ff484312-0ec0-49d3-bdcc-f1e56b569d87 {
        fill: #79a8a2;
      }

      .a9cf6432-f4bb-43aa-a0da-c7c7697e4520, .ba0e00fc-2e16-49b0-876a-f5581e43df08, .ff484312-0ec0-49d3-bdcc-f1e56b569d87 {
        fill-rule: evenodd;
      }

      .a0118ef6-3936-49d4-a246-f779dfc94e0e {
        fill: #d4a354;
      }

      .b4334efc-6251-46f3-86c7-e4aff6c840e4 {
        fill: #858173;
      }

      .afdfe6f9-67c5-4890-884c-9612b6235bf7 {
        fill: #2d2e2c;
      }

      .a2278aa6-f1dc-47d3-a475-a27f5aafcbe1 {
        fill: #ada9a0;
      }

      .bb5dfbc8-4ea6-4703-8a5b-da76a2e40bf3 {
        fill: #ea5736;
      }

      .ba0e00fc-2e16-49b0-876a-f5581e43df08, .f14b9644-8026-40b3-888b-9e4baa3f6b29 {
        fill: #ebe8da;
      }

      .a9cf6432-f4bb-43aa-a0da-c7c7697e4520, .f76648d1-a4b9-480c-9575-af54d161de3d {
        fill: #3f5843;
      }

      .ba672464-0ff3-4570-ab5e-f99c551eeb2b {
        fill: #d4a455;
      }

      .b8e45bd7-1955-42df-a909-a7a732a40966 {
        fill: #062838;
        stroke: #062838;
        stroke-width: 0.16px;
      }

      .b34d71f9-2af4-494b-b5d3-80d44fc6017f {
        fill: #dfb4ac;
      }

      .b831a103-e186-410b-b68c-58b2aed67ae8 {
        stroke: #524e4e;
        stroke-width: 0.52px;
      }

      .b78c9949-f22c-469e-b077-58115b753b4a {
        fill: #78a9a2;
      }
    </style>
  </defs>
  <title>page-bg-04</title>
  <rect class="bf997215-5c4c-4b1a-bb48-32361a93e6a3" x="-622.96" y="-352.71" width="841.89" height="601.07"/>
  <g>
    <path class="bd532c2a-d557-4abb-88cb-ef61ec47577a" d="M13.45,2C14.79.62,15.61-3.95,10.86-9.33c-3.31-3.31-6.59-2.28-8.78-.09s-3.22,5.48.08,8.78C6.55,3.29,12.11,3.29,13.45,2Z"/>
    <g>
      <path class="bd532c2a-d557-4abb-88cb-ef61ec47577a" d="M99.1,86.82c1.33-1.34,2.16-5.9-2.6-11.29-3.3-3.3-6.58-2.28-8.78-.08s-3.22,5.48.09,8.78C92.2,88.16,97.76,88.16,99.1,86.82Z"/>
      <line class="aae2b02a-2743-4dda-8f7c-07a850223c7b" x1="95.23" y1="82.95" x2="85" y2="72.73"/>
    </g>
  </g>
  <g>
    <line class="ad9aea41-1b76-4e7a-93a3-2cdfeab66cc3" x1="26.81" y1="200.47" x2="26.81" y2="160.61"/>
    <g>
      <polyline class="ab888fda-30fa-42b7-9df8-dd98ee0e5142" points="35.62 119.3 26.81 110.49 18 119.3"/>
      <polyline class="ab888fda-30fa-42b7-9df8-dd98ee0e5142" points="38.74 134.73 26.81 122.8 14.88 134.73"/>
      <polyline class="ab888fda-30fa-42b7-9df8-dd98ee0e5142" points="41.86 150.17 26.81 135.12 11.77 150.17"/>
      <polyline class="ab888fda-30fa-42b7-9df8-dd98ee0e5142" points="44.98 165.6 26.81 147.43 8.65 165.6"/>
      <polyline class="b0084c37-d209-461b-9fa0-3e0aa45454eb" points="48.1 181.03 26.81 159.74 5.53 181.03"/>
    </g>
    <line class="ffe795f1-92a3-4842-b2e8-c7c5845168e9" x1="26.81" y1="165.76" x2="26.81" y2="181.03"/>
  </g>
  <g>
    <path class="ff484312-0ec0-49d3-bdcc-f1e56b569d87" d="M155,62.91a2.2,2.2,0,0,1,1.65-2.51l2-.41.48,2.3Z"/>
    <g>
      <path class="a0118ef6-3936-49d4-a246-f779dfc94e0e" d="M163.12,93.24a1.1,1.1,0,0,1-.77-1.34s1.07-4.07,2-8.25a1.1,1.1,0,0,1,2.15.48c-.95,4.22-2,8.29-2,8.33a1.1,1.1,0,0,1-1.35.78Z"/>
      <path class="a0118ef6-3936-49d4-a246-f779dfc94e0e" d="M165.85,84.94a1.1,1.1,0,0,1-1.41-.55c-1.33-2.86-2.42-5-3.23-6.37a1.1,1.1,0,1,1,1.89-1.13c.86,1.44,2,3.65,3.33,6.57a1.1,1.1,0,0,1-.53,1.46Z"/>
      <path class="b4334efc-6251-46f3-86c7-e4aff6c840e4" d="M167.15,92.07H162l0,2h6.6v-.5A1.45,1.45,0,0,0,167.15,92.07Z"/>
      <path class="a0118ef6-3936-49d4-a246-f779dfc94e0e" d="M149.18,88.68a1.11,1.11,0,0,1,.54-1.46s3.82-1.77,7.63-3.72a1.09,1.09,0,0,1,1.48.48,1.1,1.1,0,0,1-.48,1.48c-3.85,2-7.66,3.74-7.7,3.76a1.09,1.09,0,0,1-1.46-.53Z"/>
      <path class="a0118ef6-3936-49d4-a246-f779dfc94e0e" d="M157.93,85.4a1.09,1.09,0,0,1-1.09-1.05c-.15-3.14-.34-5.54-.57-7.12a1.1,1.1,0,1,1,2.18-.32c.24,1.65.44,4.12.58,7.34A1.09,1.09,0,0,1,158,85.4Z"/>
      <path class="b4334efc-6251-46f3-86c7-e4aff6c840e4" d="M153,91l-1.2-1.77L151,88l-.86-1.26-1.63,1.06.07.1,1.19,1.76,2.45,3.6.41-.28A1.46,1.46,0,0,0,153,91Z"/>
      <g>
        <path class="afdfe6f9-67c5-4890-884c-9612b6235bf7" d="M155.25,46.8A36.77,36.77,0,0,0,154.32,61h6.54V45.76Z"/>
        <path class="afdfe6f9-67c5-4890-884c-9612b6235bf7" d="M161,61.08h-6.77V61a37,37,0,0,1,.94-14.21l0-.07L161,45.62Zm-6.56-.24h6.31V45.91l-5.38,1A36.87,36.87,0,0,0,154.42,60.84Z"/>
      </g>
      <g>
        <path class="afdfe6f9-67c5-4890-884c-9612b6235bf7" d="M165.75,46.5A45.19,45.19,0,0,1,166.26,61h-6.54V45.76Z"/>
        <path class="afdfe6f9-67c5-4890-884c-9612b6235bf7" d="M166.36,61.08h-6.77V45.62l5.82,1.07,0,.07A37.11,37.11,0,0,1,166.38,61Zm-6.52-.24h6.31a36.87,36.87,0,0,0-.93-13.93l-5.38-1Z"/>
      </g>
      <g>
        <line class="a2278aa6-f1dc-47d3-a475-a27f5aafcbe1" x1="164.98" y1="48.54" x2="163.72" y2="48.54"/>
        <path class="afdfe6f9-67c5-4890-884c-9612b6235bf7" d="M165,48.85h-1.26a.32.32,0,1,1,0-.63H165a.32.32,0,1,1,0,.63Z"/>
      </g>
      <g>
        <line class="a2278aa6-f1dc-47d3-a475-a27f5aafcbe1" x1="159.61" y1="48.54" x2="158.35" y2="48.54"/>
        <path class="afdfe6f9-67c5-4890-884c-9612b6235bf7" d="M159.61,48.85h-1.26a.32.32,0,1,1,0-.63h1.26a.32.32,0,0,1,0,.63Z"/>
      </g>
      <g>
        <path class="afdfe6f9-67c5-4890-884c-9612b6235bf7" d="M160.69,42.67l-.08,4H156L155,51.38v-3A5.7,5.7,0,0,1,160.69,42.67Z"/>
        <path class="afdfe6f9-67c5-4890-884c-9612b6235bf7" d="M155.15,51.4l-.24,0v-3a5.83,5.83,0,0,1,5.78-5.82h.13l-.09,4.29h-4.67Zm5.42-8.61a5.6,5.6,0,0,0-5.42,5.58v1.78l.71-3.55h4.63Z"/>
      </g>
      <g>
        <path class="afdfe6f9-67c5-4890-884c-9612b6235bf7" d="M160.77,42.67l.08,4h5l.26,10,.36-1.38V48.37A5.7,5.7,0,0,0,160.77,42.67Z"/>
        <path class="afdfe6f9-67c5-4890-884c-9612b6235bf7" d="M166,57.53l-.28-10.69h-5l-.09-4.29h.13a5.83,5.83,0,0,1,5.78,5.82v6.94ZM161,46.6h5l.24,9.21.14-.53V48.37a5.6,5.6,0,0,0-5.42-5.58Z"/>
      </g>
      <g>
        <path class="afdfe6f9-67c5-4890-884c-9612b6235bf7" d="M157,46.82a112.88,112.88,0,0,0,.4,13.47c.15.24-1.15.21-1.15.21l-1.64-8.87,1.22-5.38Z"/>
        <path class="afdfe6f9-67c5-4890-884c-9612b6235bf7" d="M156.4,60.63h-.31l-1.66-9v0l1.25-5.54,1.39.68v.08a110.9,110.9,0,0,0,.39,13.42.18.18,0,0,1,0,.16C157.36,60.58,156.86,60.63,156.4,60.63Zm-.1-.25a3.23,3.23,0,0,0,.93-.08,112.13,112.13,0,0,1-.4-13.4l-1-.48-1.18,5.22Z"/>
      </g>
      <g>
        <line class="a0118ef6-3936-49d4-a246-f779dfc94e0e" x1="160.77" y1="56.87" x2="160.77" y2="61.73"/>
        <path class="a0118ef6-3936-49d4-a246-f779dfc94e0e" d="M160.77,63.18a1.45,1.45,0,0,1-1.46-1.45V56.87a1.46,1.46,0,0,1,2.91,0v4.86A1.45,1.45,0,0,1,160.77,63.18Z"/>
      </g>
      <path class="bb5dfbc8-4ea6-4703-8a5b-da76a2e40bf3" d="M159.06,60.11h3.17a3.58,3.58,0,0,1,3.58,3.58v8.09a3,3,0,0,1-3,3h-4.42a3,3,0,0,1-3-3V63.69a3.58,3.58,0,0,1,3.58-3.58Z" transform="translate(321.28 134.84) rotate(180)"/>
      <g>
        <path class="ba0e00fc-2e16-49b0-876a-f5581e43df08" d="M162.28,60.11h-1.67s-.28,1.35.83,1.35S162.28,60.11,162.28,60.11Z"/>
        <path class="ba0e00fc-2e16-49b0-876a-f5581e43df08" d="M161,60.11h-1.67s-.28,1.35.83,1.35S161,60.11,161,60.11Z"/>
        <rect class="f14b9644-8026-40b3-888b-9e4baa3f6b29" x="160.58" y="60.78" width="0.55" height="13.92"/>
      </g>
      <g>
        <polygon class="a9cf6432-f4bb-43aa-a0da-c7c7697e4520" points="155.17 71.71 155.47 70.67 160.63 70.3 165.81 70.67 166.11 71.71 169.15 82.14 161.03 82.14 160.25 82.14 152.13 82.14 155.17 71.71"/>
        <path class="f76648d1-a4b9-480c-9575-af54d161de3d" d="M169.31,82.26H152l3.41-11.7,5.24-.38h0l5.26.38Zm-17-.23H169l-3.28-11.25-5.09-.37-5.07.37Z"/>
      </g>
      <path class="bb5dfbc8-4ea6-4703-8a5b-da76a2e40bf3" d="M141.56,62.65a1.12,1.12,0,0,0,.53,1.39,24.62,24.62,0,0,0,8.11,2.26,1.11,1.11,0,0,0,.21-2.2,22.71,22.71,0,0,1-7.32-2,1.09,1.09,0,0,0-1.48.48Z"/>
      <rect class="a0118ef6-3936-49d4-a246-f779dfc94e0e" x="140.66" y="61.28" width="2.48" height="2.48" rx="1.07" transform="translate(149.03 -92.38) rotate(68.86)"/>
      <path class="bb5dfbc8-4ea6-4703-8a5b-da76a2e40bf3" d="M149.25,65.12a.89.89,0,0,0,0,.32,1.09,1.09,0,0,0,1.31.83l.44-.09c2.26-.49,4.59-1,6.45-3.37a1.1,1.1,0,1,0-1.72-1.36c-1.38,1.75-3.07,2.11-5.2,2.58l-.45.09A1.13,1.13,0,0,0,149.25,65.12Z"/>
      <path class="bb5dfbc8-4ea6-4703-8a5b-da76a2e40bf3" d="M172.1,74.4l-.1,0a1.09,1.09,0,0,1-1.3-.85h0a22.73,22.73,0,0,0-3-7,1.11,1.11,0,0,1,.32-1.53,1.1,1.1,0,0,1,1.52.32,24.32,24.32,0,0,1,3.31,7.74A1.1,1.1,0,0,1,172.1,74.4Z"/>
      <rect class="a0118ef6-3936-49d4-a246-f779dfc94e0e" x="170.74" y="72.84" width="2.48" height="2.48" rx="0.92" transform="translate(-14.11 53.19) rotate(-16.9)"/>
      <path class="bb5dfbc8-4ea6-4703-8a5b-da76a2e40bf3" d="M168.9,67a1.1,1.1,0,0,1-1.23-.45l-.26-.38c-1.2-1.82-2.15-3.26-4.28-3.91a1.1,1.1,0,1,1,.65-2.11c2.88.89,4.2,2.88,5.47,4.8l.25.38a1.11,1.11,0,0,1-.6,1.67Z"/>
      <g>
        <rect class="a0118ef6-3936-49d4-a246-f779dfc94e0e" x="155.1" y="43.11" width="11.33" height="14.85" rx="5.55" transform="translate(321.53 101.08) rotate(180)"/>
        <path class="a0118ef6-3936-49d4-a246-f779dfc94e0e" d="M160.77,58.08A5.78,5.78,0,0,1,155,52.31V48.77a5.77,5.77,0,0,1,11.53,0v3.54A5.78,5.78,0,0,1,160.77,58.08Zm0-14.95a5.65,5.65,0,0,0-5.65,5.64v3.54a5.65,5.65,0,1,0,11.29,0V48.77A5.65,5.65,0,0,0,160.77,43.13Z"/>
      </g>
      <g>
        <circle class="afdfe6f9-67c5-4890-884c-9612b6235bf7" cx="164.57" cy="50.29" r="0.33"/>
        <circle class="afdfe6f9-67c5-4890-884c-9612b6235bf7" cx="164.58" cy="50.3" r="0.33"/>
        <g>
          <rect class="f14b9644-8026-40b3-888b-9e4baa3f6b29" x="163.5" y="49.88" width="1.52" height="0.82" rx="0.4" transform="translate(328.52 100.58) rotate(-180)"/>
          <circle class="afdfe6f9-67c5-4890-884c-9612b6235bf7" cx="164.59" cy="50.29" r="0.33"/>
        </g>
        <g>
          <rect class="f14b9644-8026-40b3-888b-9e4baa3f6b29" x="158.04" y="49.88" width="1.52" height="0.82" rx="0.36" transform="translate(317.6 100.58) rotate(-180)"/>
          <circle class="afdfe6f9-67c5-4890-884c-9612b6235bf7" cx="159.12" cy="50.29" r="0.33"/>
        </g>
        <g>
          <line class="a2278aa6-f1dc-47d3-a475-a27f5aafcbe1" x1="164.98" y1="48.54" x2="163.72" y2="48.54"/>
          <path class="afdfe6f9-67c5-4890-884c-9612b6235bf7" d="M165,48.85h-1.26a.32.32,0,1,1,0-.63H165a.32.32,0,1,1,0,.63Z"/>
        </g>
        <g>
          <line class="a2278aa6-f1dc-47d3-a475-a27f5aafcbe1" x1="159.61" y1="48.54" x2="158.35" y2="48.54"/>
          <path class="afdfe6f9-67c5-4890-884c-9612b6235bf7" d="M159.61,48.85h-1.26a.32.32,0,1,1,0-.63h1.26a.32.32,0,0,1,0,.63Z"/>
        </g>
        <path class="afdfe6f9-67c5-4890-884c-9612b6235bf7" d="M161.66,52.39h-.47a.25.25,0,0,1,0-.49h.47a.07.07,0,0,0,.08-.07v-.45a.24.24,0,0,1,.24-.24.24.24,0,0,1,.24.24v.45A.54.54,0,0,1,161.66,52.39Z"/>
        <path class="afdfe6f9-67c5-4890-884c-9612b6235bf7" d="M161.7,55.29a3.7,3.7,0,0,1-2.42-.9.24.24,0,0,1,0-.34.24.24,0,0,1,.33,0,3.23,3.23,0,0,0,2.11.79,3.19,3.19,0,0,0,2.11-.79.26.26,0,0,1,.34,0,.25.25,0,0,1,0,.34A3.7,3.7,0,0,1,161.7,55.29Z"/>
      </g>
      <path class="afdfe6f9-67c5-4890-884c-9612b6235bf7" d="M155.16,46.69l0,.07A37,37,0,0,0,154.2,61v.11l3.37-1.39V45.62Z"/>
      <g>
        <line class="a2278aa6-f1dc-47d3-a475-a27f5aafcbe1" x1="164.98" y1="48.54" x2="163.72" y2="48.54"/>
        <path class="afdfe6f9-67c5-4890-884c-9612b6235bf7" d="M165,48.85h-1.26a.32.32,0,1,1,0-.63H165a.32.32,0,1,1,0,.63Z"/>
      </g>
      <g>
        <line class="a2278aa6-f1dc-47d3-a475-a27f5aafcbe1" x1="159.61" y1="48.54" x2="158.35" y2="48.54"/>
        <path class="afdfe6f9-67c5-4890-884c-9612b6235bf7" d="M159.61,48.85h-1.26a.32.32,0,1,1,0-.63h1.26a.32.32,0,0,1,0,.63Z"/>
      </g>
      <g>
        <path class="afdfe6f9-67c5-4890-884c-9612b6235bf7" d="M160.69,42.67l-.08,4H156L155,51.38v-3A5.7,5.7,0,0,1,160.69,42.67Z"/>
        <path class="afdfe6f9-67c5-4890-884c-9612b6235bf7" d="M155.15,51.4l-.24,0v-3a5.83,5.83,0,0,1,5.78-5.82h.13l-.09,4.29h-4.67Zm5.42-8.61a5.6,5.6,0,0,0-5.42,5.58v1.78l.71-3.55h4.63Z"/>
      </g>
      <g>
        <path class="afdfe6f9-67c5-4890-884c-9612b6235bf7" d="M160.77,42.67l.08,4h5l.26,10,.36-1.38V48.37A5.7,5.7,0,0,0,160.77,42.67Z"/>
        <path class="afdfe6f9-67c5-4890-884c-9612b6235bf7" d="M166,57.53l-.28-10.69h-5l-.09-4.29h.13a5.83,5.83,0,0,1,5.78,5.82v6.94ZM161,46.6h5l.24,9.21.14-.53V48.37a5.6,5.6,0,0,0-5.42-5.58Z"/>
      </g>
      <g>
        <path class="afdfe6f9-67c5-4890-884c-9612b6235bf7" d="M157,46.82a112.88,112.88,0,0,0,.4,13.47c.15.24-1.15.21-1.15.21l-1.64-8.87,1.22-5.38Z"/>
        <path class="afdfe6f9-67c5-4890-884c-9612b6235bf7" d="M156.45,61h-.31l-1.71-9.23v0l1.29-5.69,1.42.7v.08a117.87,117.87,0,0,0,.4,13.79.2.2,0,0,1,0,.17C157.44,61,156.93,61,156.45,61Zm-.15-.65a3.23,3.23,0,0,0,.93-.08,112.13,112.13,0,0,1-.4-13.4l-1-.48-1.18,5.22Z"/>
      </g>
    </g>
    <polygon class="ba672464-0ff3-4570-ab5e-f99c551eeb2b" points="57.39 11.18 48.55 19.21 48.87 0.56 57.39 11.18"/>
    <polygon class="b8e45bd7-1955-42df-a909-a7a732a40966" points="63.65 5.92 67.46 29.4 57.39 11.18 63.65 5.92"/>
    <polygon class="bb5dfbc8-4ea6-4703-8a5b-da76a2e40bf3" points="48.87 0.56 63.65 5.92 57.39 11.18 48.87 0.56"/>
    <polygon class="b34d71f9-2af4-494b-b5d3-80d44fc6017f" points="57.39 11.18 48.55 19.21 67.46 29.4 57.39 11.18"/>
    <path class="b831a103-e186-410b-b68c-58b2aed67ae8" d="M141.66,62s-4.56,1.18-21.35-9.28c-4.19-2.62-11.07-6.44-16.35-7.16-5.46-.75-12.14-2.74-20.15-8.94-3.91-3-11.36-5.59-16.35-7.16"/>
    <path class="b831a103-e186-410b-b68c-58b2aed67ae8" d="M67.68,47.3c1.15-4.82.41-12.66-.22-17.86"/>
    <g>
      <circle class="bb5dfbc8-4ea6-4703-8a5b-da76a2e40bf3" cx="67.6" cy="47.28" r="1.13"/>
      <polygon class="bb5dfbc8-4ea6-4703-8a5b-da76a2e40bf3" points="65.34 47.28 65.34 45.97 66.47 46.62 67.61 47.28 66.47 47.93 65.34 48.59 65.34 47.28"/>
      <polygon class="bb5dfbc8-4ea6-4703-8a5b-da76a2e40bf3" points="69.86 47.28 69.86 48.59 68.73 47.93 67.6 47.28 68.73 46.62 69.86 45.97 69.86 47.28"/>
    </g>
    <g>
      <circle class="b8e45bd7-1955-42df-a909-a7a732a40966" cx="68.11" cy="40.56" r="1.13"/>
      <polygon class="b8e45bd7-1955-42df-a909-a7a732a40966" points="65.87 40.81 65.72 39.51 66.92 40.03 68.12 40.56 67.07 41.33 66.01 42.11 65.87 40.81"/>
      <polygon class="b8e45bd7-1955-42df-a909-a7a732a40966" points="70.36 40.31 70.5 41.61 69.31 41.08 68.11 40.56 69.16 39.78 70.22 39.01 70.36 40.31"/>
    </g>
    <g>
      <circle class="b78c9949-f22c-469e-b077-58115b753b4a" cx="67.75" cy="34.47" r="1.13"/>
      <polygon class="b78c9949-f22c-469e-b077-58115b753b4a" points="65.54 34.94 65.27 33.66 66.51 34.07 67.76 34.47 66.79 35.35 65.82 36.22 65.54 34.94"/>
      <polygon class="b78c9949-f22c-469e-b077-58115b753b4a" points="69.96 34 70.24 35.28 68.99 34.88 67.75 34.47 68.72 33.6 69.69 32.72 69.96 34"/>
    </g>
  </g>
</svg>
