<svg class="story-screen__graphic"  id="e235a1d6-38b8-4867-bbc7-50c2728a9dcb" data-name="Layer 1" xmlns="http://www.w3.org/2000/svg" xmlns:xlink="http://www.w3.org/1999/xlink" viewBox="0 0 458.72 726.46">
  <defs>
    <style>
      .a130f79f-645c-409a-8e97-e05c4c24630f, .a3797029-f229-407c-9f9a-9be6a08a012f, .a5474d88-17d1-45f6-8b71-f20bf29ea654, .aa955e1b-6c35-4cd7-9e1c-7da9912359d1, .ae20b659-d166-44bc-b409-bdc0099b5874, .b019645c-c61e-4d53-a956-5684bc51e2ca, .b221e4d9-a054-4d06-a918-4e5219717c6f, .b58a1712-46ac-4e1c-a597-43e17b72fb45, .bc705ac1-e10e-45ce-8b2b-153aedb91beb, .fd4eab27-d68e-447e-af68-f52d34876919 {
        fill: none;
      }

      .a3abdb0a-f0a4-496e-bf42-52b8a644d9f5, .f069a1f0-79ce-41af-bbfc-39b03a6f2986 {
        fill: #ede8db;
      }

      .fd17de22-4687-4088-bb58-c0f1458b2f6c {
        fill: #aeaaa1;
      }

      .a57c8a72-aa41-48d7-90c0-d3b1eda17d08, .a5f87178-1cb4-41f2-acfb-cae7ce66077f, .b6a87733-6bde-4045-8266-497c1d848f79 {
        fill: #fff;
      }

      .a57c8a72-aa41-48d7-90c0-d3b1eda17d08 {
        stroke: #efefef;
        stroke-width: 2.46px;
      }

      .a130f79f-645c-409a-8e97-e05c4c24630f, .a5474d88-17d1-45f6-8b71-f20bf29ea654, .a57c8a72-aa41-48d7-90c0-d3b1eda17d08, .aa955e1b-6c35-4cd7-9e1c-7da9912359d1, .ae20b659-d166-44bc-b409-bdc0099b5874, .b019645c-c61e-4d53-a956-5684bc51e2ca, .b221e4d9-a054-4d06-a918-4e5219717c6f, .b58a1712-46ac-4e1c-a597-43e17b72fb45, .b6a87733-6bde-4045-8266-497c1d848f79, .f069a1f0-79ce-41af-bbfc-39b03a6f2986, .f5d2ef56-4c18-4961-bf59-31fc2f48552f {
        stroke-miterlimit: 10;
      }

      .b6a87733-6bde-4045-8266-497c1d848f79 {
        stroke: #d8d8d8;
        stroke-width: 13px;
      }

      .ee579adc-1763-41df-a1cd-b3431486eba4 {
        fill: #89563c;
      }

      .bb08acdc-f766-4324-b26f-6d1e030e28e3 {
        fill: #d5a555;
      }

      .a1b6770d-5fe1-48a7-b33e-b1e7e6ff086a {
        fill: #002838;
      }

      .ed8d0036-78f7-48e4-82df-3e71ff56bdc4 {
        fill: #77a9a2;
      }

      .bc705ac1-e10e-45ce-8b2b-153aedb91beb {
        stroke: #ede8db;
        stroke-width: 16.99px;
      }

      .a130f79f-645c-409a-8e97-e05c4c24630f, .a3797029-f229-407c-9f9a-9be6a08a012f, .ae20b659-d166-44bc-b409-bdc0099b5874, .b221e4d9-a054-4d06-a918-4e5219717c6f, .bc705ac1-e10e-45ce-8b2b-153aedb91beb, .ff50cf86-02b8-4f2e-ac5e-e9a469228362 {
        stroke-linecap: round;
      }

      .a3797029-f229-407c-9f9a-9be6a08a012f, .bc705ac1-e10e-45ce-8b2b-153aedb91beb, .ff50cf86-02b8-4f2e-ac5e-e9a469228362 {
        stroke-linejoin: round;
      }

      .aa955e1b-6c35-4cd7-9e1c-7da9912359d1, .b019645c-c61e-4d53-a956-5684bc51e2ca, .b58a1712-46ac-4e1c-a597-43e17b72fb45, .f5d2ef56-4c18-4961-bf59-31fc2f48552f {
        stroke: #062837;
      }

      .aa955e1b-6c35-4cd7-9e1c-7da9912359d1 {
        stroke-width: 17.31px;
      }

      .b95f75be-1691-472c-abd2-d2899aa7d2b0 {
        fill: #2e2d2c;
      }

      .f62bfa58-ea65-46f4-9ea0-7c2df4fe59fe, .ff50cf86-02b8-4f2e-ac5e-e9a469228362 {
        fill: #afaca3;
      }

      .ff50cf86-02b8-4f2e-ac5e-e9a469228362 {
        stroke: #d5a555;
        stroke-width: 5.64px;
      }

      .f9e4043b-9002-43e2-b2db-2a5c21c04e3f {
        clip-path: url(#bff0d803-cbf2-49dd-866b-106c9416f5ee);
      }

      .a130f79f-645c-409a-8e97-e05c4c24630f, .a5474d88-17d1-45f6-8b71-f20bf29ea654, .ae20b659-d166-44bc-b409-bdc0099b5874, .b221e4d9-a054-4d06-a918-4e5219717c6f {
        stroke: #ea5736;
      }

      .b221e4d9-a054-4d06-a918-4e5219717c6f {
        stroke-width: 4px;
      }

      .a3797029-f229-407c-9f9a-9be6a08a012f {
        stroke: #30383b;
        stroke-width: 3.76px;
      }

      .f069a1f0-79ce-41af-bbfc-39b03a6f2986 {
        stroke: #bababa;
        stroke-width: 2px;
      }

      .a17303c5-40f4-49f9-b304-dfe1768febb5, .af571ac8-b1e6-423e-8b5e-60e86a6fdd84, .f5d2ef56-4c18-4961-bf59-31fc2f48552f {
        fill: #062837;
      }

      .ad729056-ca65-4a84-8b09-087167155d59, .ae20b659-d166-44bc-b409-bdc0099b5874, .af571ac8-b1e6-423e-8b5e-60e86a6fdd84 {
        fill-rule: evenodd;
      }

      .ad729056-ca65-4a84-8b09-087167155d59, .ba07c2ae-e2cc-4ff9-b428-37834955d9fd {
        fill: #ea5736;
      }

      .b019645c-c61e-4d53-a956-5684bc51e2ca {
        stroke-width: 5px;
      }

      .b58a1712-46ac-4e1c-a597-43e17b72fb45, .f5d2ef56-4c18-4961-bf59-31fc2f48552f {
        stroke-width: 3px;
      }

      .bfbf8a7f-80da-4fc0-bc09-948aca539964 {
        fill: #867f72;
      }

      .f7f82d89-9696-4f91-b6cd-e4bf653ca2cd {
        fill: #ece8dc;
      }

      .bd9644c2-8be7-4f2d-a548-912c5db52015 {
        opacity: 0.75;
      }

      .a98089cc-036b-4f06-9a86-e907d2c9b25d {
        fill: #1d1d1b;
      }

      .ae20b659-d166-44bc-b409-bdc0099b5874 {
        stroke-width: 0.89px;
      }

      .a1705302-0670-4074-bf72-b98bd8e3e264 {
        opacity: 0.47;
      }

      .a5474d88-17d1-45f6-8b71-f20bf29ea654 {
        stroke-width: 18.95px;
      }

      .a130f79f-645c-409a-8e97-e05c4c24630f {
        stroke-width: 8.12px;
      }

      .ac991550-224b-4de1-a7d7-cef49233223b {
        fill: #a2a081;
      }

      .a824c0c0-4143-486c-96f4-ac8d6e940499 {
        opacity: 0.91;
      }
    </style>
    <clipPath id="bff0d803-cbf2-49dd-866b-106c9416f5ee">
      <rect class="fd4eab27-d68e-447e-af68-f52d34876919" x="91.66" y="406.77" width="11.77" height="6.34" rx="1.69"/>
    </clipPath>
  </defs>

  <rect class="a3abdb0a-f0a4-496e-bf42-52b8a644d9f5" x="-3" y="-928.78" width="465.11" height="2577.43"/>
  <path class="fd17de22-4687-4088-bb58-c0f1458b2f6c" d="M421.2,729.09c7.23-129.38-1.72-259.11-13.49-388.16-4.15-45.49-8.65-91-15.47-136.15C376.88,103.11,349.73.41,366.15-101.09l97,.68-.88,827.86Z"/>
  <rect class="fd17de22-4687-4088-bb58-c0f1458b2f6c" x="-1.46" y="669.46" width="404.31" height="57.98"/>
  <rect class="a57c8a72-aa41-48d7-90c0-d3b1eda17d08" x="-3" y="-1.69" width="465.61" height="728.15"/>
  <rect class="b6a87733-6bde-4045-8266-497c1d848f79" x="11.89" y="296.76" width="434.93" height="323.18"/>
  <rect class="ee579adc-1763-41df-a1cd-b3431486eba4" x="19.24" y="612.87" width="11.97" height="114.14"/>
  <g>
    <rect class="fd17de22-4687-4088-bb58-c0f1458b2f6c" x="128.48" y="355.91" width="58.1" height="73.35" transform="translate(-15.26 6.48) rotate(-2.25)"/>
    <rect class="bb08acdc-f766-4324-b26f-6d1e030e28e3" x="124.33" y="355.91" width="58.1" height="73.35"/>
    <path class="a1b6770d-5fe1-48a7-b33e-b1e7e6ff086a" d="M174.3,376.57c-6.86-1.13-13.87.68-20.82.41-5.86-.23-11.65-2-17.54-1.64-1.54.09-6.51.13-4.64,2.89.92,1.37,3.46.39,4.79.38C149.05,378.48,161.52,379.89,174.3,376.57Z"/>
    <path class="a1b6770d-5fe1-48a7-b33e-b1e7e6ff086a" d="M174.3,383.48c-6.86-1.12-13.87.69-20.82.42-5.86-.23-11.65-2-17.54-1.64-1.54.09-6.51.13-4.64,2.89.92,1.36,3.46.39,4.79.38C149.05,385.39,161.52,386.8,174.3,383.48Z"/>
    <path class="a1b6770d-5fe1-48a7-b33e-b1e7e6ff086a" d="M174.3,390.4c-6.86-1.13-13.87.69-20.82.41-5.86-.22-11.65-2-17.54-1.64-1.54.1-6.51.13-4.64,2.89.92,1.37,3.46.4,4.79.38C149.05,392.31,161.52,393.72,174.3,390.4Z"/>
    <path class="a1b6770d-5fe1-48a7-b33e-b1e7e6ff086a" d="M174.3,398.7c-6.86-1.13-13.87.68-20.82.41-5.86-.22-11.65-2-17.54-1.64-1.54.09-6.51.13-4.64,2.89.92,1.37,3.46.39,4.79.38C149.05,400.61,161.52,402,174.3,398.7Z"/>
    <path class="a1b6770d-5fe1-48a7-b33e-b1e7e6ff086a" d="M174.3,406.31c-6.86-1.13-13.87.68-20.82.41-5.86-.23-11.65-2-17.54-1.64-1.54.09-6.51.13-4.64,2.89.92,1.37,3.46.39,4.79.38C149.05,408.21,161.52,409.63,174.3,406.31Z"/>
    <g>
      <path class="a1b6770d-5fe1-48a7-b33e-b1e7e6ff086a" d="M135.64,367.58a4.33,4.33,0,0,1,4.32-4.24,4.38,4.38,0,0,1,2.72.92.7.7,0,0,1,.12.94.68.68,0,0,1-.94.13,3,3,0,0,0-1.9-.65,3.13,3.13,0,0,0-2.12.85,2.9,2.9,0,0,0-.85,2.05,2.86,2.86,0,0,0,.85,2.05,3.17,3.17,0,0,0,2.12.84,3,3,0,0,0,1.9-.64.67.67,0,0,1,.82,1.07,4.43,4.43,0,0,1-2.72.91A4.31,4.31,0,0,1,135.64,367.58Z"/>
      <path class="a1b6770d-5fe1-48a7-b33e-b1e7e6ff086a" d="M149.1,369.87h-2.86l-.58,1.53a.65.65,0,0,1-.61.41.78.78,0,0,1-.22,0,.67.67,0,0,1-.39-.85L147,364a.65.65,0,0,1,.62-.41.64.64,0,0,1,.62.41l2.61,6.93a.68.68,0,0,1-.39.85.75.75,0,0,1-.23,0,.63.63,0,0,1-.6-.41Zm-.49-1.29-1-2.53-.95,2.53Z"/>
      <path class="a1b6770d-5fe1-48a7-b33e-b1e7e6ff086a" d="M152.57,364.23a.64.64,0,0,1,.65-.65.66.66,0,0,1,.66.65v6.94a.66.66,0,0,1-.66.64.64.64,0,0,1-.65-.64Z"/>
      <path class="a1b6770d-5fe1-48a7-b33e-b1e7e6ff086a" d="M161.53,370.84a.66.66,0,0,1-.42.82,1,1,0,0,1-.26,0h0a.92.92,0,0,1-.46-.13,1.16,1.16,0,0,1-.37-.42,3.06,3.06,0,0,1-.25-1.41,1,1,0,0,0-.14-.5,1,1,0,0,0-.35-.34,2.46,2.46,0,0,0-.66-.29h-1.39v2.56a.66.66,0,0,1-.66.64.65.65,0,0,1-.65-.64v-6.94a.64.64,0,0,1,.65-.65h2.11a2.52,2.52,0,0,1,1.6,4.46,1.87,1.87,0,0,1,.41.43,2.27,2.27,0,0,1,.39,1.27,2.87,2.87,0,0,0,0,.7A.67.67,0,0,1,161.53,370.84Zm-1.65-4.73a1.22,1.22,0,0,0-1.21-1.23h-1.45v2.43h1.45A1.21,1.21,0,0,0,159.88,366.11Z"/>
      <path class="a1b6770d-5fe1-48a7-b33e-b1e7e6ff086a" d="M164.72,371.17a.64.64,0,0,1-.64.64.64.64,0,0,1-.64-.64v-6.84h0a.63.63,0,0,1,.26-.54.65.65,0,0,1,.89.14l3.8,5.26v-4.85a.64.64,0,0,1,.64-.63.64.64,0,0,1,.64.63v6.84a.64.64,0,0,1-.64.64.65.65,0,0,1-.49-.23l-.06-.07-3.76-5.23Z"/>
    </g>
  </g>
  <rect class="ee579adc-1763-41df-a1cd-b3431486eba4" x="404.24" y="612.87" width="11.97" height="114.14"/>
  <g>
    <rect class="ed8d0036-78f7-48e4-82df-3e71ff56bdc4" x="11.89" y="12.45" width="434.93" height="255.96"/>
    <rect class="bc705ac1-e10e-45ce-8b2b-153aedb91beb" x="11.89" y="12.45" width="434.93" height="255.96"/>
  </g>
  <path class="ee579adc-1763-41df-a1cd-b3431486eba4" d="M167.22,663.34H78c-10.73,0-19.53-10.27-19.92-23.23l-2.9-96.83c-.41-13.64,8.63-25,19.92-25h94.52c11.24,0,20.26,11.24,19.92,24.82L187.15,640C186.82,653,178,663.34,167.22,663.34Z"/>
  <g>
    <g>
      <g>
        <path class="aa955e1b-6c35-4cd7-9e1c-7da9912359d1" d="M112.16,486.85c-8.23,0-14.1-.33-19.33,1.91S83,495.81,77.36,506.19C71.49,517,65.15,542.27,60.12,568.65s71.38,23,81.77,29.29"/>
        <path class="aa955e1b-6c35-4cd7-9e1c-7da9912359d1" d="M130.62,486.85c8.23,0,14.1-.33,19.33,1.91s9.81,7.05,15.46,17.43c5.88,10.79,12.21,36.08,17.25,62.46s-71.39,23-81.78,29.29"/>
        <rect class="bb08acdc-f766-4324-b26f-6d1e030e28e3" x="75.71" y="350.93" width="88.29" height="119.6" rx="44.15"/>
        <rect class="a3abdb0a-f0a4-496e-bf42-52b8a644d9f5" x="91.66" y="406.77" width="11.77" height="6.34" rx="1.69"/>
        <rect class="bb08acdc-f766-4324-b26f-6d1e030e28e3" x="112.16" y="461.86" width="19.35" height="19.35"/>
        <rect class="a3abdb0a-f0a4-496e-bf42-52b8a644d9f5" x="136.27" y="406.77" width="11.77" height="6.34" rx="1.69"/>
        <circle class="b95f75be-1691-472c-abd2-d2899aa7d2b0" cx="142.16" cy="409.94" r="2.52"/>
        <line class="ff50cf86-02b8-4f2e-ac5e-e9a469228362" x1="91.66" y1="396.36" x2="101.44" y2="396.36"/>
        <line class="ff50cf86-02b8-4f2e-ac5e-e9a469228362" x1="137.93" y1="396.36" x2="147.72" y2="396.36"/>
        <g class="f9e4043b-9002-43e2-b2db-2a5c21c04e3f">
          <circle class="b95f75be-1691-472c-abd2-d2899aa7d2b0" cx="97.54" cy="409.94" r="2.47"/>
        </g>
        <path class="b221e4d9-a054-4d06-a918-4e5219717c6f" d="M102.64,440.31c7.48,6.52,14.09,6.63,17.21,6.63s9.73-.11,17.21-6.63"/>
        <path class="a3797029-f229-407c-9f9a-9be6a08a012f" d="M123.8,424.3h-3.59a2.4,2.4,0,0,1-2.47-2.44v-3.49"/>
        <path class="f069a1f0-79ce-41af-bbfc-39b03a6f2986" d="M120.13,350.93l.64,31.38h36l7.2,36.06v-23.3A44.14,44.14,0,0,0,120.13,350.93Z"/>
        <path class="f069a1f0-79ce-41af-bbfc-39b03a6f2986" d="M119.58,350.93l-.65,31.38h-36l-7.2,36.06v-23.3A44.14,44.14,0,0,1,119.58,350.93Z"/>
        <rect class="a17303c5-40f4-49f9-b304-dfe1768febb5" x="78.27" y="481.21" width="85.16" height="107.21" rx="33.88"/>
        <polygon class="af571ac8-b1e6-423e-8b5e-60e86a6fdd84" points="81.88 617.72 159.81 617.72 163.43 552.15 78.27 552.15 81.88 617.72"/>
      </g>
      <path class="bb08acdc-f766-4324-b26f-6d1e030e28e3" d="M136.27,480.47c0,3.54-6.44,6.4-14.38,6.4s-14.38-2.86-14.38-6.4"/>
    </g>
    <g>
      <g>
        <path class="ad729056-ca65-4a84-8b09-087167155d59" d="M113.5,533.28c0-.38,0-.7,0-1,0-1.21-.44-1.65-1.61-1.8a15.62,15.62,0,0,0-5.61.59c-.66.16-.72.15-.85-.49-.31-1.52-.62-1.39,1.09-1.8a16.43,16.43,0,0,1,7.08-.34,3,3,0,0,1,2.67,2.19,6.06,6.06,0,0,1,.16,1.28c0,2.55,0,6.39,0,7s0,1.37-.06,1.66c-.11.74-.49.94-1.15,1.25a9.38,9.38,0,0,1-3,.6,18,18,0,0,1-4.47-.17c-2.59-.45-3.5-2.22-3.27-4.71.2-2.17,1.26-3.06,3.71-3.39.89-.12,1.77-.28,2.66-.43Zm0,2c-1.62.29-3.2.54-4.76.87a1.76,1.76,0,0,0-1,.69,2.31,2.31,0,0,0,1.41,3.46,8.62,8.62,0,0,0,4.33-.26Z"/>
        <path class="ad729056-ca65-4a84-8b09-087167155d59" d="M139.49,530.86v10.62c0,.63-.08.7-.73.71s-.95,0-1.52,0-.71-.07-.71-.72c0-3,0-6.07,0-9.1,0-.58,0-1.16,0-1.74a1.36,1.36,0,0,1,1-1.43,21.17,21.17,0,0,1,2.92-.74,17.51,17.51,0,0,1,4.8-.17c2,.26,3.1,1.34,3.13,3.33.06,3.34,0,6.68,0,10,0,.39-.16.56-.55.55-.58,0-1.16,0-1.74,0s-.68-.21-.68-.71c0-2.89,0-5.78,0-8.67,0-.25,0-.51,0-.76a1.6,1.6,0,0,0-1.7-1.7A14.52,14.52,0,0,0,139.49,530.86Z"/>
        <path class="ad729056-ca65-4a84-8b09-087167155d59" d="M99.61,542.3a12.82,12.82,0,0,1-4.1,0l-.17,0a4.52,4.52,0,0,1-3.72-3.74,14.44,14.44,0,0,1,0-6.07,4.64,4.64,0,0,1,4.15-4.07,12.53,12.53,0,0,1,5.77.4c.67.21.74.34.57,1-.32,1.39-.09,1.17-1.47.92a16.86,16.86,0,0,0-3.32-.28,2.72,2.72,0,0,0-2.74,2.38,12.87,12.87,0,0,0-.09,4.63c.34,2.09,1.25,2.88,3.42,2.89a18.36,18.36,0,0,0,3.2-.43c.69-.12.73-.14.89.51.33,1.34.31,1.42-1,1.69C100.48,542.16,100.05,542.23,99.61,542.3Z"/>
        <path class="ad729056-ca65-4a84-8b09-087167155d59" d="M128.46,531v3.32c0,2.36,0,4.73,0,7.09,0,.69-.06.75-.73.76s-1.08,0-1.62,0-.62-.17-.61-.6c0-.89,0-1.77,0-2.65v-7.86c0-1.38.24-1.7,1.58-2.13a24.85,24.85,0,0,1,6.83-.76c.47,0,.66,0,.68.68s0,.86,0,1.18c0,.6-.11.83-.92.77A35.4,35.4,0,0,0,128.46,531Z"/>
        <path class="ad729056-ca65-4a84-8b09-087167155d59" d="M122.43,525.92c0,.44-.2.62-.55.63-.6,0-1.19,0-1.79,0a.56.56,0,0,1-.6-.61c0-.92,0-.93,0-1.85a.49.49,0,0,1,.53-.54h1.89c.35,0,.51.1.51.57Z"/>
      </g>
      <path class="ad729056-ca65-4a84-8b09-087167155d59" d="M121.76,528.67h-1.59a.68.68,0,0,0-.68.68v10.58l1.47-1.38,1.47,1.38V529.35A.68.68,0,0,0,121.76,528.67Z"/>
    </g>
    <rect class="bb08acdc-f766-4324-b26f-6d1e030e28e3" x="101.71" y="578.68" width="17.46" height="17.46" rx="3.48" transform="translate(220.87 1174.81) rotate(-180)"/>
    <rect class="bb08acdc-f766-4324-b26f-6d1e030e28e3" x="125.71" y="578.68" width="17.46" height="17.46" rx="3.48" transform="translate(268.87 1174.81) rotate(-180)"/>
    <rect class="ee579adc-1763-41df-a1cd-b3431486eba4" x="13.64" y="596.7" width="408.07" height="16.77"/>
    <polygon class="ba07c2ae-e2cc-4ff9-b428-37834955d9fd" points="177.05 690.3 66.5 690.3 77.59 613.47 165.96 613.47 177.05 690.3"/>
    <path class="b019645c-c61e-4d53-a956-5684bc51e2ca" d="M70.24,403.62c0-24.68,22.21-52.69,49.61-52.69s49.61,28,49.61,52.69"/>
    <path class="a17303c5-40f4-49f9-b304-dfe1768febb5" d="M165,429.22h0c9.8,0,17.81-5.24,17.81-11.64V412.8c0-6.4-8-11.64-17.81-11.64h0"/>
    <path class="a17303c5-40f4-49f9-b304-dfe1768febb5" d="M74.78,429.22h0C65,429.22,57,424,57,417.58V412.8c0-6.4,8-11.64,17.81-11.64h0"/>
    <g>
      <path class="b58a1712-46ac-4e1c-a597-43e17b72fb45" d="M100.21,443.34c-14,0-25.43-9.67-25.43-21.6"/>
      <rect class="f5d2ef56-4c18-4961-bf59-31fc2f48552f" x="100.21" y="439.22" width="13.58" height="8.27" rx="4.14"/>
    </g>
    
    <g class="text-cta text-cta--11" tabindex="0">
      <g>
    <rect class="f62bfa58-ea65-46f4-9ea0-7c2df4fe59fe" x="219.1" y="485.63" width="166" height="104.69" rx="6"/>
    <rect class="bfbf8a7f-80da-4fc0-bc09-948aca539964" x="208.65" y="584.96" width="186.9" height="12" rx="6"/>
    <rect class="b95f75be-1691-472c-abd2-d2899aa7d2b0" x="230.44" y="495.62" width="143.32" height="84.7"/>
    <circle class="b95f75be-1691-472c-abd2-d2899aa7d2b0" cx="302.1" cy="490.65" r="2.4"/>
    </g>
      <g>
        <path class="f7f82d89-9696-4f91-b6cd-e4bf653ca2cd" d="M278.71,564.31l-3.23,4.48a.33.33,0,0,1-.28.16h0a.33.33,0,0,1-.3-.16l-3.23-4.47v8.28a.36.36,0,0,1-.71,0v-9.33a.33.33,0,0,1,.15-.27s0,0,0,0a.36.36,0,0,1,.49.09l3.58,5,3.57-5a.36.36,0,0,1,.49-.09.5.5,0,0,1,.1.11.47.47,0,0,1,.06.19v9.33a.35.35,0,0,1-.34.35.34.34,0,0,1-.35-.35Z"/>
        <path class="f7f82d89-9696-4f91-b6cd-e4bf653ca2cd" d="M285.85,568.11l-3.38-4.62a.38.38,0,0,1,.07-.49.33.33,0,0,1,.49.06l3.15,4.33,3.17-4.33a.33.33,0,0,1,.49-.06.34.34,0,0,1,.07.49l-3.37,4.59v4.52a.34.34,0,0,1-.34.35.35.35,0,0,1-.35-.35Z"/>
        <path class="ba07c2ae-e2cc-4ff9-b428-37834955d9fd" d="M291.34,567.76a5.27,5.27,0,0,1,5.28-5.18A5.43,5.43,0,0,1,300,563.7a.87.87,0,0,1,.14,1.16.84.84,0,0,1-1.15.15,3.62,3.62,0,0,0-2.32-.79,3.84,3.84,0,0,0-2.59,1,3.54,3.54,0,0,0-1,2.5,3.5,3.5,0,0,0,1,2.51,3.84,3.84,0,0,0,2.59,1,3.66,3.66,0,0,0,2.32-.79.83.83,0,0,1,1,1.31,5.43,5.43,0,0,1-3.33,1.12A5.26,5.26,0,0,1,291.34,567.76Z"/>
        <path class="ba07c2ae-e2cc-4ff9-b428-37834955d9fd" d="M307.81,570.57h-3.5l-.7,1.87a.82.82,0,0,1-.75.51,1.26,1.26,0,0,1-.28,0,.82.82,0,0,1-.47-1l3.18-8.48a.83.83,0,0,1,1.53,0l3.18,8.48a.82.82,0,0,1-.48,1,1,1,0,0,1-.27,0,.76.76,0,0,1-.73-.51Zm-.59-1.58-1.17-3.1-1.16,3.1Z"/>
        <path class="ba07c2ae-e2cc-4ff9-b428-37834955d9fd" d="M312.07,563.66a.78.78,0,0,1,.79-.79.8.8,0,0,1,.81.79v8.5a.8.8,0,0,1-.81.79.79.79,0,0,1-.79-.79Z"/>
        <path class="ba07c2ae-e2cc-4ff9-b428-37834955d9fd" d="M323,571.75a.8.8,0,0,1-.5,1,1.13,1.13,0,0,1-.32,0h0a1.06,1.06,0,0,1-.57-.15,1.62,1.62,0,0,1-.46-.51,3.89,3.89,0,0,1-.3-1.73,1.13,1.13,0,0,0-.17-.61,1.33,1.33,0,0,0-.43-.42,3,3,0,0,0-.81-.35h-1.7v3.13a.8.8,0,0,1-.81.79.79.79,0,0,1-.79-.79v-8.5a.78.78,0,0,1,.79-.79h2.58a3.08,3.08,0,0,1,2,5.46,2,2,0,0,1,.5.53,2.72,2.72,0,0,1,.48,1.55,3.19,3.19,0,0,0,.06.85A.81.81,0,0,1,323,571.75ZM321,566a1.48,1.48,0,0,0-1.48-1.49h-1.77v3h1.77A1.47,1.47,0,0,0,321,566Z"/>
        <path class="ba07c2ae-e2cc-4ff9-b428-37834955d9fd" d="M327,572.16a.8.8,0,0,1-.78.79.79.79,0,0,1-.79-.79v-8.37h0a.78.78,0,0,1,.31-.67.8.8,0,0,1,1.1.18l4.65,6.43v-5.93a.78.78,0,0,1,.78-.78.8.8,0,0,1,.79.78v8.37a.8.8,0,0,1-.79.79.79.79,0,0,1-.59-.29l-.08-.09-4.6-6.39Z"/>
      </g>
      <path class="ba07c2ae-e2cc-4ff9-b428-37834955d9fd" d="M308.17,554l21.51,1.9a3.07,3.07,0,0,0,3.33-3V508.7a3.06,3.06,0,0,0-3.33-3.05l-21.51,1.9a3.06,3.06,0,0,0-2.8,3v40.33A3.07,3.07,0,0,0,308.17,554Z"/>
      <path class="f7f82d89-9696-4f91-b6cd-e4bf653ca2cd" d="M296,553.85H274.39a3.47,3.47,0,0,1-3.46-3.46V511.12a3.47,3.47,0,0,1,3.46-3.46H296a3.47,3.47,0,0,1,3.46,3.46v39.27A3.47,3.47,0,0,1,296,553.85Zm-21.65-45.46a2.72,2.72,0,0,0-2.72,2.73v39.27a2.73,2.73,0,0,0,2.72,2.73H296a2.73,2.73,0,0,0,2.72-2.73V511.12a2.72,2.72,0,0,0-2.72-2.73Z"/>
    </g>
  </g>
  <g class="bd9644c2-8be7-4f2d-a548-912c5db52015">
    <path class="a5f87178-1cb4-41f2-acfb-cae7ce66077f" d="M171.88,147.47a34.28,34.28,0,0,1,2.89-5.74c1-1.91,1.71-4.12,1.12-6.18a8.42,8.42,0,0,0-3.29-4.15c-4.25-3.19-10.67-4.49-14.69-1-3.77,3.24-3.82,9-2.81,13.89s2.77,9.85,1.57,14.66-5.06,8.36-7.88,12.4A31.52,31.52,0,0,0,144,182.09a55.21,55.21,0,0,0-1.09,13.41c.08,6.87.67,14.23,5,19.59,5.11,6.35,14.11,8.12,22.25,7.69a32.89,32.89,0,0,0,14.31-3.62c4.34-2.4,7.95-6.43,9-11.27a22.34,22.34,0,0,0,.11-7.78c-1.31-10-5.73-19.31-11.51-27.52-3.13-4.46-6.72-8.69-8.85-13.71s-2.57-11.17.51-15.67"/>
    <path class="ad729056-ca65-4a84-8b09-087167155d59" d="M174,138.9c6.16-.44,13.41-.51,17.29,3.67l-18.09-.26.08-3.12"/>
    <circle class="a98089cc-036b-4f06-9a86-e907d2c9b25d" cx="170.06" cy="136.09" r="1.7"/>
    <path class="ae20b659-d166-44bc-b409-bdc0099b5874" d="M161.93,220.23a242.32,242.32,0,0,0,.9,33.43"/>
    <path class="ae20b659-d166-44bc-b409-bdc0099b5874" d="M174.57,220.23a242.32,242.32,0,0,1-.9,33.43"/>
    <path class="ad729056-ca65-4a84-8b09-087167155d59" d="M158.36,259a3.27,3.27,0,0,1,2.41-.34,3.32,3.32,0,0,1,2,1.43,2.37,2.37,0,0,1,1-1.43,2,2,0,0,1,.77-.15,11.06,11.06,0,0,1,2,.09c-.32,0-.89-.83-1.1-1.07a12.42,12.42,0,0,1-1-1.29c-.59-.9-1-1.9-1.6-2.82a26.78,26.78,0,0,0-2.16,2.67Z"/>
    <path class="ad729056-ca65-4a84-8b09-087167155d59" d="M169.32,258.68a3.28,3.28,0,0,1,4.39,1.1,2.4,2.4,0,0,1,1-1.44,2.23,2.23,0,0,1,.77-.14,9.48,9.48,0,0,1,2,.09c-.32,0-.89-.83-1.1-1.07a12.42,12.42,0,0,1-1-1.29c-.6-.9-1-1.91-1.6-2.82a27.85,27.85,0,0,0-2.16,2.66Z"/>
  </g>
  <g class="a1705302-0670-4074-bf72-b98bd8e3e264">
    <line class="a5474d88-17d1-45f6-8b71-f20bf29ea654" x1="311.82" y1="259.83" x2="311.82" y2="185.52"/>
    <path class="a130f79f-645c-409a-8e97-e05c4c24630f" d="M275.72,194.54s3.25,36.29,36.1,49.52"/>
    <path class="a130f79f-645c-409a-8e97-e05c4c24630f" d="M347.33,180.56s-4.3,42.75-35.51,42.75"/>
    <circle class="ac991550-224b-4de1-a7d7-cef49233223b" cx="353.14" cy="175.02" r="28.22"/>
    <circle class="ac991550-224b-4de1-a7d7-cef49233223b" cx="372.92" cy="98.45" r="28.22"/>
    <circle class="ac991550-224b-4de1-a7d7-cef49233223b" cx="256" cy="101.24" r="33.72"/>
    <circle class="ac991550-224b-4de1-a7d7-cef49233223b" cx="309.08" cy="183.31" r="21.99"/>
    <circle class="ac991550-224b-4de1-a7d7-cef49233223b" cx="381.36" cy="144.29" r="36.31"/>
    <circle class="ac991550-224b-4de1-a7d7-cef49233223b" cx="237.98" cy="144.29" r="32.48"/>
    <circle class="ac991550-224b-4de1-a7d7-cef49233223b" cx="297.35" cy="81.84" r="48.39"/>
    <circle class="ac991550-224b-4de1-a7d7-cef49233223b" cx="333.48" cy="88.74" r="38.66"/>
    <circle class="ac991550-224b-4de1-a7d7-cef49233223b" cx="305.15" cy="137.13" r="48.39"/>
    <circle class="ac991550-224b-4de1-a7d7-cef49233223b" cx="269.96" cy="175.02" r="28.16"/>
  </g>
  <g class="a824c0c0-4143-486c-96f4-ac8d6e940499">
    <path class="f7f82d89-9696-4f91-b6cd-e4bf653ca2cd" d="M164.53,66.51s13.74,6.12,13.74,21.86a2.34,2.34,0,0,1-.66,1.64,2.29,2.29,0,0,1-1.64.69H107.81a2.29,2.29,0,0,1-1.64-.69,2.26,2.26,0,0,1-.66-1.64,18,18,0,0,1,17.94-17.7,17.72,17.72,0,0,1,10.73,3.57,24.31,24.31,0,0,1,39.53,0"/>
  </g>
  <g>
    <rect class="fd17de22-4687-4088-bb58-c0f1458b2f6c" x="305.81" y="323.29" width="58.1" height="73.35" transform="translate(-13.85 13.4) rotate(-2.25)"/>
    <rect class="bb08acdc-f766-4324-b26f-6d1e030e28e3" x="301.66" y="323.29" width="58.1" height="73.35"/>
    <path class="a1b6770d-5fe1-48a7-b33e-b1e7e6ff086a" d="M351.63,343.94c-6.86-1.12-13.86.69-20.81.42-5.87-.23-11.65-2-17.54-1.64-1.54.09-6.52.13-4.65,2.89.92,1.36,3.47.39,4.79.38C326.39,345.85,338.86,347.27,351.63,343.94Z"/>
    <path class="a1b6770d-5fe1-48a7-b33e-b1e7e6ff086a" d="M351.63,350.86c-6.86-1.13-13.86.69-20.81.41-5.87-.22-11.65-2-17.54-1.64-1.54.1-6.52.13-4.65,2.89.92,1.37,3.47.4,4.79.38C326.39,352.77,338.86,354.18,351.63,350.86Z"/>
    <path class="a1b6770d-5fe1-48a7-b33e-b1e7e6ff086a" d="M351.63,357.78c-6.86-1.13-13.86.68-20.81.41-5.87-.23-11.65-2-17.54-1.64-1.54.09-6.52.13-4.65,2.89.92,1.36,3.47.39,4.79.38C326.39,359.68,338.86,361.1,351.63,357.78Z"/>
    <path class="a1b6770d-5fe1-48a7-b33e-b1e7e6ff086a" d="M351.63,366.07c-6.86-1.12-13.86.69-20.81.42-5.87-.23-11.65-2-17.54-1.64-1.54.09-6.52.13-4.65,2.89.92,1.36,3.47.39,4.79.38C326.39,368,338.86,369.4,351.63,366.07Z"/>
    <path class="a1b6770d-5fe1-48a7-b33e-b1e7e6ff086a" d="M351.63,373.68c-6.86-1.13-13.86.69-20.81.42-5.87-.23-11.65-2-17.54-1.64-1.54.09-6.52.13-4.65,2.89.92,1.36,3.47.39,4.79.37C326.39,375.59,338.86,377,351.63,373.68Z"/>
    <g>
      <path class="a1b6770d-5fe1-48a7-b33e-b1e7e6ff086a" d="M313,335a4.32,4.32,0,0,1,4.32-4.23,4.37,4.37,0,0,1,2.71.92.67.67,0,0,1-.82,1.07,2.89,2.89,0,0,0-1.89-.65,3.09,3.09,0,0,0-2.12.85,2.86,2.86,0,0,0,0,4.09,3.09,3.09,0,0,0,2.12.85,2.91,2.91,0,0,0,1.89-.65.71.71,0,0,1,.94.13.69.69,0,0,1-.12.94,4.37,4.37,0,0,1-2.71.92A4.3,4.3,0,0,1,313,335Z"/>
      <path class="a1b6770d-5fe1-48a7-b33e-b1e7e6ff086a" d="M326.43,337.25h-2.86l-.57,1.53a.67.67,0,0,1-.62.41.54.54,0,0,1-.22,0,.67.67,0,0,1-.39-.84l2.6-6.93A.65.65,0,0,1,325,331a.63.63,0,0,1,.62.41l2.6,6.93a.66.66,0,0,1-.39.84.51.51,0,0,1-.22,0,.63.63,0,0,1-.6-.41ZM326,336l-.95-2.53L324,336Z"/>
      <path class="a1b6770d-5fe1-48a7-b33e-b1e7e6ff086a" d="M329.91,331.6a.64.64,0,0,1,.65-.65.66.66,0,0,1,.65.65v6.94a.65.65,0,0,1-.65.65.64.64,0,0,1-.65-.65Z"/>
      <path class="a1b6770d-5fe1-48a7-b33e-b1e7e6ff086a" d="M338.86,338.21a.66.66,0,0,1-.41.83,1.23,1.23,0,0,1-.26,0h0a.81.81,0,0,1-.46-.13,1.16,1.16,0,0,1-.38-.41,3.22,3.22,0,0,1-.24-1.41,1,1,0,0,0-.15-.51,1.14,1.14,0,0,0-.35-.34,2.24,2.24,0,0,0-.66-.28h-1.39v2.55a.65.65,0,0,1-1.3,0V331.6a.64.64,0,0,1,.65-.65H336a2.52,2.52,0,0,1,2.52,2.53,2.47,2.47,0,0,1-.92,1.93,1.73,1.73,0,0,1,.41.44,2.2,2.2,0,0,1,.39,1.27,2.62,2.62,0,0,0,.05.69A.63.63,0,0,1,338.86,338.21Zm-1.65-4.73a1.21,1.21,0,0,0-1.21-1.22h-1.45v2.42H336A1.21,1.21,0,0,0,337.21,333.48Z"/>
      <path class="a1b6770d-5fe1-48a7-b33e-b1e7e6ff086a" d="M342.05,338.54a.64.64,0,1,1-1.28,0v-6.83h0a.64.64,0,0,1,1.16-.4l3.8,5.25v-4.84a.64.64,0,0,1,.63-.64.66.66,0,0,1,.65.64v6.83a.66.66,0,0,1-.65.65.61.61,0,0,1-.48-.24.13.13,0,0,1-.06-.07l-3.77-5.22Z"/>
    </g>
  </g>
  <g>
    <rect class="fd17de22-4687-4088-bb58-c0f1458b2f6c" x="226.07" y="362.48" width="58.1" height="73.35" transform="translate(-15.45 10.31) rotate(-2.25)"/>
    <rect class="bb08acdc-f766-4324-b26f-6d1e030e28e3" x="221.92" y="362.48" width="58.1" height="73.35"/>
    <path class="a1b6770d-5fe1-48a7-b33e-b1e7e6ff086a" d="M271.9,383.13c-6.87-1.12-13.87.69-20.82.42-5.87-.23-11.65-2-17.54-1.64-1.54.09-6.51.13-4.65,2.89.93,1.36,3.47.39,4.79.38C246.65,385,259.12,386.45,271.9,383.13Z"/>
    <path class="a1b6770d-5fe1-48a7-b33e-b1e7e6ff086a" d="M271.9,390.05c-6.87-1.13-13.87.68-20.82.41-5.87-.22-11.65-2-17.54-1.64-1.54.09-6.51.13-4.65,2.89.93,1.37,3.47.39,4.79.38C246.65,392,259.12,393.37,271.9,390.05Z"/>
    <path class="a1b6770d-5fe1-48a7-b33e-b1e7e6ff086a" d="M271.9,397c-6.87-1.12-13.87.69-20.82.42-5.87-.23-11.65-2-17.54-1.64-1.54.09-6.51.13-4.65,2.89.93,1.36,3.47.39,4.79.38C246.65,398.87,259.12,400.29,271.9,397Z"/>
    <path class="a1b6770d-5fe1-48a7-b33e-b1e7e6ff086a" d="M271.9,405.26c-6.87-1.12-13.87.69-20.82.42-5.87-.23-11.65-2-17.54-1.64-1.54.09-6.51.13-4.65,2.89.93,1.36,3.47.39,4.79.38C246.65,407.17,259.12,408.58,271.9,405.26Z"/>
    <path class="a1b6770d-5fe1-48a7-b33e-b1e7e6ff086a" d="M271.9,412.87c-6.87-1.13-13.87.69-20.82.42-5.87-.23-11.65-2-17.54-1.64-1.54.09-6.51.12-4.65,2.88.93,1.37,3.47.4,4.79.38C246.65,414.78,259.12,416.19,271.9,412.87Z"/>
    <g>
      <path class="a1b6770d-5fe1-48a7-b33e-b1e7e6ff086a" d="M233.24,374.14a4.31,4.31,0,0,1,4.32-4.23,4.42,4.42,0,0,1,2.72.92.69.69,0,0,1,.11.94.69.69,0,0,1-.94.13,2.89,2.89,0,0,0-1.89-.65,3.11,3.11,0,0,0-2.12.85,2.86,2.86,0,0,0,0,4.09,3.11,3.11,0,0,0,2.12.85,3,3,0,0,0,1.89-.65.71.71,0,0,1,.94.13.69.69,0,0,1-.11.94,4.42,4.42,0,0,1-2.72.92A4.3,4.3,0,0,1,233.24,374.14Z"/>
      <path class="a1b6770d-5fe1-48a7-b33e-b1e7e6ff086a" d="M246.69,376.44h-2.86l-.57,1.53a.66.66,0,0,1-.61.41.56.56,0,0,1-.23,0,.67.67,0,0,1-.39-.84l2.6-6.93a.65.65,0,0,1,.63-.41.62.62,0,0,1,.62.41l2.6,6.93a.65.65,0,0,1-.39.84.51.51,0,0,1-.22,0,.63.63,0,0,1-.6-.41Zm-.48-1.3-1-2.53-.95,2.53Z"/>
      <path class="a1b6770d-5fe1-48a7-b33e-b1e7e6ff086a" d="M250.17,370.79a.64.64,0,0,1,.65-.65.66.66,0,0,1,.66.65v6.94a.66.66,0,0,1-.66.65.64.64,0,0,1-.65-.65Z"/>
      <path class="a1b6770d-5fe1-48a7-b33e-b1e7e6ff086a" d="M259.12,377.4a.66.66,0,0,1-.41.83,1.23,1.23,0,0,1-.26,0h0a.83.83,0,0,1-.46-.13,1.25,1.25,0,0,1-.38-.41,3.22,3.22,0,0,1-.24-1.41,1,1,0,0,0-.14-.51,1.18,1.18,0,0,0-.36-.34,2.14,2.14,0,0,0-.66-.28h-1.38v2.55a.66.66,0,0,1-.66.65.64.64,0,0,1-.65-.65v-6.94a.64.64,0,0,1,.65-.65h2.1a2.52,2.52,0,0,1,2.52,2.53,2.47,2.47,0,0,1-.92,1.93,1.57,1.57,0,0,1,.41.44,2.18,2.18,0,0,1,.39,1.27,3.23,3.23,0,0,0,0,.69A.63.63,0,0,1,259.12,377.4Zm-1.65-4.73a1.21,1.21,0,0,0-1.21-1.22h-1.44v2.42h1.44A1.21,1.21,0,0,0,257.47,372.67Z"/>
      <path class="a1b6770d-5fe1-48a7-b33e-b1e7e6ff086a" d="M262.32,377.73a.65.65,0,1,1-1.29,0v-6.85a.66.66,0,0,1,.26-.54.65.65,0,0,1,.9.15l3.8,5.25V370.9a.64.64,0,0,1,.63-.64.65.65,0,0,1,.65.64v6.83a.65.65,0,0,1-.65.65.61.61,0,0,1-.48-.24s-.05,0-.06-.07l-3.76-5.22Z"/>
    </g>
  </g>
  <polygon class="bb08acdc-f766-4324-b26f-6d1e030e28e3" points="149.16 727.45 127.95 727.45 125.95 690.3 151.16 690.3 149.16 727.45"/>
  <polygon class="bb08acdc-f766-4324-b26f-6d1e030e28e3" points="117.16 727.45 95.95 727.45 93.95 690.3 119.16 690.3 117.16 727.45"/>
</svg>
