<svg id="eeac0cb7-1220-49fd-b5f8-704647506ec7" data-name="Layer 1" xmlns="http://www.w3.org/2000/svg" xmlns:xlink="http://www.w3.org/1999/xlink" viewBox="0 0 463.49 730.2">
  <defs>
    <style>
      .a1326ef2-9949-4b8e-9bb5-896f7fb83bdf, .a17588cb-5621-4567-9ad4-08b56fa94652, .a40b042c-1762-4c9f-a4ff-c4ff27f5c693, .a693eacc-f7d9-4a1e-9eee-a3c5331c6f13, .aa1034d1-cf47-4ba8-b53f-d5c86cc22d62, .aa7d02e3-25fb-44d8-975d-2421bfda56e4, .ab10cd58-e4c7-4439-a90a-747682c8e262, .aef473fd-953b-427c-8a15-97088bb1ca7c, .afc3018d-ed36-4205-8115-9f3b8a05b9f8, .b0a24684-db7a-48cb-83d1-5216fe32d91a, .b1742927-3c44-486d-9c33-34c286ba77dd, .b1d08722-80ed-4f82-a022-d85ac1957e21, .b405716d-bfcd-49d6-8851-44693e3d2aff, .b448bb7b-42c6-4f57-9bda-fcb2841d9cb2, .b46c52ec-8106-4e6d-9fd7-3cf731129b8b, .b58c0227-55c4-410b-8385-973952a12e67, .b5adfcf0-bbf8-4939-b056-6cd22d8fcc86, .b5f0e7e3-0e2c-43d3-9b37-2c8af20e0e49, .ba53abc5-7778-48fa-b255-bb6e85506a79, .bc360e97-5d56-47de-8a71-aefc7a7b8591, .bcccc1f8-e2e1-44d6-a47f-758160772444, .bcfb6b66-0693-4d98-881e-173f420da5b5, .bd40acaf-4d92-4169-be5f-013d286561c8, .bed19944-cf3c-42f8-bb58-16ff1469ccad, .e190c225-b3f6-4567-86d8-dec057c14f60, .eae2ea31-9c95-4b72-8baa-16f827294be6, .ed206609-b6d9-44fb-b787-d73229c45b09, .eee4c45b-13be-45d4-b25c-0152d18af8d4, .f22e551f-e9bd-4dde-83e2-3bb2da2ead18, .f44f7ac9-8397-4a26-b9bc-45d4d82e22be, .f57ba272-1e93-4f05-8e08-a9ff028aa0b9, .f6d8f94f-d23d-4fa1-b996-bf3b4d12d3ee, .ff84dbf4-e561-4c7f-a190-2f08e1fd71b3 {
        fill: none;
      }

      .b58e2ecb-0315-4410-91e1-f6f3149f436d, .e94f8d4b-16c9-4816-add3-76cb17fba58f, .f52b788d-444f-4734-996f-c9db82a97ec2 {
        fill: #ede8db;
      }

      .a3bd9215-350b-4c78-a4e1-ad1e059cd62e, .a427ba15-443d-44f6-9534-3b3bf36443be, .a9c821bc-7da6-4bbd-9f31-c2430f0e960e, .bec76731-3c7e-4d63-a5dc-b9cab387a95f, .bfc288dc-3458-4532-8e18-3651990bc748, .f87e09f0-19fb-44fb-83b2-a724e7b9e5a3 {
        fill: #3c5743;
      }

      .ee267ec0-9dee-4b40-8435-6a871571e7d7 {
        opacity: 0.99;
      }

      .a3183810-867e-422e-b316-41a3911a925a, .b36d9d25-79d6-4740-9519-56750af79d3f, .b8909556-3e8c-465a-b1b6-ef57d4fec832, .bb05e9aa-8201-4860-8527-8757fc501e2d, .bef8d55c-4195-47f4-a165-03f0a844b484, .ebb0b1d1-24a2-4397-8152-6752bad81271, .ebe763d6-832f-418d-9e3b-8407cb3990de, .f007c873-1f6b-476a-b32f-f7d53ebef61c, .faef6bd6-0c5a-4917-8c61-a33414427744 {
        fill: #ea5736;
      }

      .b675643d-c824-4b1e-a269-30856c6191e4 {
        fill: #8a533b;
      }

      .a7a5b874-510f-44c5-b9d9-0b4131383373 {
        fill: #3d5843;
      }

      .acf2d8e0-beb2-4596-955b-fa636d2fb364, .f66de8ae-9d2e-46c5-8e0e-06b47ce20fe1 {
        fill: #79a9a2;
      }

      .baf40b68-5a2c-41d0-bb62-522dffe05c76 {
        fill: #8fc1b9;
      }

      .bf1302b0-770d-4c83-9906-8a4bbfc9d4b8 {
        fill: #4f4e4d;
        stroke: #4f4e4d;
        stroke-width: 1.45px;
      }

      .a1326ef2-9949-4b8e-9bb5-896f7fb83bdf, .a17588cb-5621-4567-9ad4-08b56fa94652, .a3bd9215-350b-4c78-a4e1-ad1e059cd62e, .a40b042c-1762-4c9f-a4ff-c4ff27f5c693, .a427ba15-443d-44f6-9534-3b3bf36443be, .a693eacc-f7d9-4a1e-9eee-a3c5331c6f13, .a835bf29-dc8c-4e0f-92e8-14f1cc7605a9, .a9c821bc-7da6-4bbd-9f31-c2430f0e960e, .aa1034d1-cf47-4ba8-b53f-d5c86cc22d62, .aa7d02e3-25fb-44d8-975d-2421bfda56e4, .aa7dc5ae-09b2-4388-8c46-9c6a6e0829cf, .ab10cd58-e4c7-4439-a90a-747682c8e262, .ad8980a6-ebf9-44b7-998c-95d6050d6d84, .adc5d208-8731-4025-b3f1-08866134b0e3, .afc3018d-ed36-4205-8115-9f3b8a05b9f8, .b0a24684-db7a-48cb-83d1-5216fe32d91a, .b1742927-3c44-486d-9c33-34c286ba77dd, .b1d08722-80ed-4f82-a022-d85ac1957e21, .b405716d-bfcd-49d6-8851-44693e3d2aff, .b448bb7b-42c6-4f57-9bda-fcb2841d9cb2, .b46c52ec-8106-4e6d-9fd7-3cf731129b8b, .b58c0227-55c4-410b-8385-973952a12e67, .b58e2ecb-0315-4410-91e1-f6f3149f436d, .b5adfcf0-bbf8-4939-b056-6cd22d8fcc86, .b8909556-3e8c-465a-b1b6-ef57d4fec832, .bb05e9aa-8201-4860-8527-8757fc501e2d, .bcccc1f8-e2e1-44d6-a47f-758160772444, .bcfb6b66-0693-4d98-881e-173f420da5b5, .bd40acaf-4d92-4169-be5f-013d286561c8, .bed19944-cf3c-42f8-bb58-16ff1469ccad, .bef8d55c-4195-47f4-a165-03f0a844b484, .bf119bec-4d75-4df3-97ff-27bb071d3759, .bf1302b0-770d-4c83-9906-8a4bbfc9d4b8, .bfc288dc-3458-4532-8e18-3651990bc748, .e190c225-b3f6-4567-86d8-dec057c14f60, .eae2ea31-9c95-4b72-8baa-16f827294be6, .ebb0b1d1-24a2-4397-8152-6752bad81271, .ebe763d6-832f-418d-9e3b-8407cb3990de, .ed206609-b6d9-44fb-b787-d73229c45b09, .eee4c45b-13be-45d4-b25c-0152d18af8d4, .f007c873-1f6b-476a-b32f-f7d53ebef61c, .f22e551f-e9bd-4dde-83e2-3bb2da2ead18, .f44f7ac9-8397-4a26-b9bc-45d4d82e22be, .f52b788d-444f-4734-996f-c9db82a97ec2, .f57ba272-1e93-4f05-8e08-a9ff028aa0b9, .f6d8f94f-d23d-4fa1-b996-bf3b4d12d3ee, .faef6bd6-0c5a-4917-8c61-a33414427744, .ff84dbf4-e561-4c7f-a190-2f08e1fd71b3 {
        stroke-linecap: round;
      }

      .a1326ef2-9949-4b8e-9bb5-896f7fb83bdf, .a17588cb-5621-4567-9ad4-08b56fa94652, .a3bd9215-350b-4c78-a4e1-ad1e059cd62e, .a427ba15-443d-44f6-9534-3b3bf36443be, .a693eacc-f7d9-4a1e-9eee-a3c5331c6f13, .a835bf29-dc8c-4e0f-92e8-14f1cc7605a9, .a9c821bc-7da6-4bbd-9f31-c2430f0e960e, .aa1034d1-cf47-4ba8-b53f-d5c86cc22d62, .aa7d02e3-25fb-44d8-975d-2421bfda56e4, .aa7dc5ae-09b2-4388-8c46-9c6a6e0829cf, .ab10cd58-e4c7-4439-a90a-747682c8e262, .ad8980a6-ebf9-44b7-998c-95d6050d6d84, .adc5d208-8731-4025-b3f1-08866134b0e3, .afc3018d-ed36-4205-8115-9f3b8a05b9f8, .b0a24684-db7a-48cb-83d1-5216fe32d91a, .b1742927-3c44-486d-9c33-34c286ba77dd, .b1d08722-80ed-4f82-a022-d85ac1957e21, .b405716d-bfcd-49d6-8851-44693e3d2aff, .b448bb7b-42c6-4f57-9bda-fcb2841d9cb2, .b58c0227-55c4-410b-8385-973952a12e67, .b58e2ecb-0315-4410-91e1-f6f3149f436d, .b5adfcf0-bbf8-4939-b056-6cd22d8fcc86, .b8909556-3e8c-465a-b1b6-ef57d4fec832, .bb05e9aa-8201-4860-8527-8757fc501e2d, .bcfb6b66-0693-4d98-881e-173f420da5b5, .bd40acaf-4d92-4169-be5f-013d286561c8, .bef8d55c-4195-47f4-a165-03f0a844b484, .bf119bec-4d75-4df3-97ff-27bb071d3759, .bf1302b0-770d-4c83-9906-8a4bbfc9d4b8, .bfc288dc-3458-4532-8e18-3651990bc748, .e190c225-b3f6-4567-86d8-dec057c14f60, .eae2ea31-9c95-4b72-8baa-16f827294be6, .ebb0b1d1-24a2-4397-8152-6752bad81271, .ebe763d6-832f-418d-9e3b-8407cb3990de, .ed206609-b6d9-44fb-b787-d73229c45b09, .eee4c45b-13be-45d4-b25c-0152d18af8d4, .f007c873-1f6b-476a-b32f-f7d53ebef61c, .f22e551f-e9bd-4dde-83e2-3bb2da2ead18, .f44f7ac9-8397-4a26-b9bc-45d4d82e22be, .f52b788d-444f-4734-996f-c9db82a97ec2, .f57ba272-1e93-4f05-8e08-a9ff028aa0b9, .f6d8f94f-d23d-4fa1-b996-bf3b4d12d3ee, .faef6bd6-0c5a-4917-8c61-a33414427744, .ff84dbf4-e561-4c7f-a190-2f08e1fd71b3 {
        stroke-linejoin: round;
      }

      .a91afca3-33fc-44a3-ab5c-f463e2093ef7 {
        fill: #89563c;
      }

      .adcc1d07-a52a-485b-a211-e656caedf5ff, .bf119bec-4d75-4df3-97ff-27bb071d3759 {
        fill: #002838;
      }

      .a40b042c-1762-4c9f-a4ff-c4ff27f5c693, .aef473fd-953b-427c-8a15-97088bb1ca7c, .b46c52ec-8106-4e6d-9fd7-3cf731129b8b, .b8909556-3e8c-465a-b1b6-ef57d4fec832, .ba53abc5-7778-48fa-b255-bb6e85506a79, .bb05e9aa-8201-4860-8527-8757fc501e2d, .bc360e97-5d56-47de-8a71-aefc7a7b8591, .bcccc1f8-e2e1-44d6-a47f-758160772444, .bed19944-cf3c-42f8-bb58-16ff1469ccad, .bef8d55c-4195-47f4-a165-03f0a844b484, .e190c225-b3f6-4567-86d8-dec057c14f60, .ebb0b1d1-24a2-4397-8152-6752bad81271, .ebe763d6-832f-418d-9e3b-8407cb3990de, .f007c873-1f6b-476a-b32f-f7d53ebef61c, .faef6bd6-0c5a-4917-8c61-a33414427744, .ff84dbf4-e561-4c7f-a190-2f08e1fd71b3 {
        stroke: #ea5736;
      }

      .ff84dbf4-e561-4c7f-a190-2f08e1fd71b3 {
        stroke-width: 11.24px;
      }

      .ac6b4845-9f0d-4185-b215-833702f3751f, .b6e18533-8d27-4efd-ae4c-e59cf6cbe00d {
        fill: #77a9a2;
      }

      .a17588cb-5621-4567-9ad4-08b56fa94652, .a693eacc-f7d9-4a1e-9eee-a3c5331c6f13, .aa1034d1-cf47-4ba8-b53f-d5c86cc22d62, .bcfb6b66-0693-4d98-881e-173f420da5b5, .f44f7ac9-8397-4a26-b9bc-45d4d82e22be, .f57ba272-1e93-4f05-8e08-a9ff028aa0b9, .f6d8f94f-d23d-4fa1-b996-bf3b4d12d3ee {
        stroke: #77a9a2;
      }

      .a17588cb-5621-4567-9ad4-08b56fa94652, .a693eacc-f7d9-4a1e-9eee-a3c5331c6f13, .aa1034d1-cf47-4ba8-b53f-d5c86cc22d62, .afc3018d-ed36-4205-8115-9f3b8a05b9f8, .bcfb6b66-0693-4d98-881e-173f420da5b5, .ed206609-b6d9-44fb-b787-d73229c45b09, .f44f7ac9-8397-4a26-b9bc-45d4d82e22be, .f57ba272-1e93-4f05-8e08-a9ff028aa0b9 {
        stroke-width: 1.87px;
      }

      .bcfb6b66-0693-4d98-881e-173f420da5b5 {
        stroke-dasharray: 0.96 5.73;
      }

      .a693eacc-f7d9-4a1e-9eee-a3c5331c6f13 {
        stroke-dasharray: 0.89 5.34;
      }

      .a17588cb-5621-4567-9ad4-08b56fa94652 {
        stroke-dasharray: 0.97 5.85;
      }

      .f57ba272-1e93-4f05-8e08-a9ff028aa0b9 {
        stroke-dasharray: 0.88 5.3;
      }

      .aa1034d1-cf47-4ba8-b53f-d5c86cc22d62 {
        stroke-dasharray: 0.86 5.14;
      }

      .e190c225-b3f6-4567-86d8-dec057c14f60 {
        stroke-width: 5.62px;
      }

      .afc3018d-ed36-4205-8115-9f3b8a05b9f8 {
        stroke: #30383b;
      }

      .a1326ef2-9949-4b8e-9bb5-896f7fb83bdf, .a3183810-867e-422e-b316-41a3911a925a, .aa7d02e3-25fb-44d8-975d-2421bfda56e4, .aa7dc5ae-09b2-4388-8c46-9c6a6e0829cf, .ac6b4845-9f0d-4185-b215-833702f3751f, .acf2d8e0-beb2-4596-955b-fa636d2fb364, .b0a24684-db7a-48cb-83d1-5216fe32d91a, .b46c52ec-8106-4e6d-9fd7-3cf731129b8b, .b5adfcf0-bbf8-4939-b056-6cd22d8fcc86, .bd40acaf-4d92-4169-be5f-013d286561c8, .eae2ea31-9c95-4b72-8baa-16f827294be6, .f6d8f94f-d23d-4fa1-b996-bf3b4d12d3ee, .f87e09f0-19fb-44fb-83b2-a724e7b9e5a3 {
        fill-rule: evenodd;
      }

      .f6d8f94f-d23d-4fa1-b996-bf3b4d12d3ee {
        stroke-width: 7.5px;
      }

      .aa7dc5ae-09b2-4388-8c46-9c6a6e0829cf, .ad8980a6-ebf9-44b7-998c-95d6050d6d84, .f517b69e-e33a-4c59-959c-320c9aa50ab8 {
        fill: #d5a555;
      }

      .aa7dc5ae-09b2-4388-8c46-9c6a6e0829cf, .ab10cd58-e4c7-4439-a90a-747682c8e262, .ad8980a6-ebf9-44b7-998c-95d6050d6d84, .f22e551f-e9bd-4dde-83e2-3bb2da2ead18 {
        stroke: #d5a555;
      }

      .aa7dc5ae-09b2-4388-8c46-9c6a6e0829cf, .ab10cd58-e4c7-4439-a90a-747682c8e262, .ad8980a6-ebf9-44b7-998c-95d6050d6d84 {
        stroke-width: 2.81px;
      }

      .f22e551f-e9bd-4dde-83e2-3bb2da2ead18 {
        stroke-width: 6.56px;
      }

      .a01c4a17-6077-4cc9-bda6-5dff598f2207 {
        fill: #867f72;
      }

      .a91be336-2ec7-454e-8f6c-36fffa57ad2d {
        clip-path: url(#fa7c3a92-958c-4ad0-903c-140583baa8fc);
      }

      .b8b1a173-010f-4948-98a8-93362ed88995 {
        fill: #2e2d2c;
      }

      .b58e2ecb-0315-4410-91e1-f6f3149f436d, .ed206609-b6d9-44fb-b787-d73229c45b09, .f52b788d-444f-4734-996f-c9db82a97ec2 {
        stroke: #ede8db;
      }

      .a3bd9215-350b-4c78-a4e1-ad1e059cd62e, .a427ba15-443d-44f6-9534-3b3bf36443be, .a9c821bc-7da6-4bbd-9f31-c2430f0e960e, .b1742927-3c44-486d-9c33-34c286ba77dd, .b1d08722-80ed-4f82-a022-d85ac1957e21, .b405716d-bfcd-49d6-8851-44693e3d2aff, .b448bb7b-42c6-4f57-9bda-fcb2841d9cb2, .b58c0227-55c4-410b-8385-973952a12e67, .bfc288dc-3458-4532-8e18-3651990bc748, .eee4c45b-13be-45d4-b25c-0152d18af8d4 {
        stroke: #a2a081;
      }

      .a9c821bc-7da6-4bbd-9f31-c2430f0e960e {
        stroke-width: 1.6px;
      }

      .bfc288dc-3458-4532-8e18-3651990bc748 {
        stroke-width: 1.43px;
      }

      .a427ba15-443d-44f6-9534-3b3bf36443be {
        stroke-width: 1.25px;
      }

      .a3bd9215-350b-4c78-a4e1-ad1e059cd62e {
        stroke-width: 1.06px;
      }

      .a1326ef2-9949-4b8e-9bb5-896f7fb83bdf, .aa7d02e3-25fb-44d8-975d-2421bfda56e4, .b0a24684-db7a-48cb-83d1-5216fe32d91a, .b5adfcf0-bbf8-4939-b056-6cd22d8fcc86, .bd40acaf-4d92-4169-be5f-013d286561c8, .eae2ea31-9c95-4b72-8baa-16f827294be6 {
        stroke: #3c5743;
      }

      .bd40acaf-4d92-4169-be5f-013d286561c8 {
        stroke-width: 2.34px;
      }

      .b0a24684-db7a-48cb-83d1-5216fe32d91a {
        stroke-width: 2.59px;
      }

      .aa7d02e3-25fb-44d8-975d-2421bfda56e4 {
        stroke-width: 2.8px;
      }

      .b5adfcf0-bbf8-4939-b056-6cd22d8fcc86 {
        stroke-width: 2.94px;
      }

      .eae2ea31-9c95-4b72-8baa-16f827294be6 {
        stroke-width: 3.02px;
      }

      .a1326ef2-9949-4b8e-9bb5-896f7fb83bdf {
        stroke-width: 3.2px;
      }

      .b58c0227-55c4-410b-8385-973952a12e67 {
        stroke-width: 2.7px;
      }

      .b8909556-3e8c-465a-b1b6-ef57d4fec832 {
        stroke-width: 1.35px;
      }

      .b1d08722-80ed-4f82-a022-d85ac1957e21 {
        stroke-width: 2.79px;
      }

      .ebe763d6-832f-418d-9e3b-8407cb3990de {
        stroke-width: 1.4px;
      }

      .b448bb7b-42c6-4f57-9bda-fcb2841d9cb2 {
        stroke-width: 2.89px;
      }

      .bb05e9aa-8201-4860-8527-8757fc501e2d {
        stroke-width: 1.44px;
      }

      .eee4c45b-13be-45d4-b25c-0152d18af8d4 {
        stroke-width: 2.96px;
      }

      .faef6bd6-0c5a-4917-8c61-a33414427744 {
        stroke-width: 1.48px;
      }

      .b1742927-3c44-486d-9c33-34c286ba77dd {
        stroke-width: 3.07px;
      }

      .bef8d55c-4195-47f4-a165-03f0a844b484 {
        stroke-width: 1.53px;
      }

      .b405716d-bfcd-49d6-8851-44693e3d2aff {
        stroke-width: 3.1px;
      }

      .ebb0b1d1-24a2-4397-8152-6752bad81271 {
        stroke-width: 1.55px;
      }

      .e63976be-871c-4c1a-b7d3-a4f558074762 {
        fill: #aeaaa1;
      }

      .a835bf29-dc8c-4e0f-92e8-14f1cc7605a9, .adc5d208-8731-4025-b3f1-08866134b0e3 {
        fill: #062837;
        stroke: #062837;
      }

      .adc5d208-8731-4025-b3f1-08866134b0e3 {
        stroke-width: 1.79px;
      }

      .bf119bec-4d75-4df3-97ff-27bb071d3759 {
        stroke: #002838;
        stroke-width: 0.89px;
      }

      .a40b042c-1762-4c9f-a4ff-c4ff27f5c693, .aef473fd-953b-427c-8a15-97088bb1ca7c, .b46c52ec-8106-4e6d-9fd7-3cf731129b8b, .ba53abc5-7778-48fa-b255-bb6e85506a79, .bc360e97-5d56-47de-8a71-aefc7a7b8591, .bcccc1f8-e2e1-44d6-a47f-758160772444, .bed19944-cf3c-42f8-bb58-16ff1469ccad {
        stroke-miterlimit: 10;
      }

      .aef473fd-953b-427c-8a15-97088bb1ca7c {
        stroke-width: 5.85px;
      }

      .bcccc1f8-e2e1-44d6-a47f-758160772444 {
        stroke-width: 2.51px;
      }

      .ba53abc5-7778-48fa-b255-bb6e85506a79 {
        stroke-width: 12.29px;
      }

      .bed19944-cf3c-42f8-bb58-16ff1469ccad {
        stroke-width: 5.27px;
      }

      .a6bebe24-c73e-4a85-8a35-29c398252165 {
        fill: #a2a081;
      }

      .bc360e97-5d56-47de-8a71-aefc7a7b8591 {
        stroke-width: 3.77px;
      }

      .a40b042c-1762-4c9f-a4ff-c4ff27f5c693 {
        stroke-width: 1.62px;
      }

      .f007c873-1f6b-476a-b32f-f7d53ebef61c {
        stroke-width: 5.53px;
      }

      .a835bf29-dc8c-4e0f-92e8-14f1cc7605a9 {
        stroke-width: 5.04px;
      }

      .f52b788d-444f-4734-996f-c9db82a97ec2 {
        stroke-width: 1.85px;
      }

      .b58e2ecb-0315-4410-91e1-f6f3149f436d {
        stroke-width: 2.24px;
      }

      .a0e6e530-3729-4baf-865e-b7133f3a06a7 {
        fill: #fff;
      }

      .a2ff0235-ddd7-4574-b174-76038347e495 {
        fill: #1d1d1b;
      }

      .b46c52ec-8106-4e6d-9fd7-3cf731129b8b {
        stroke-width: 0.49px;
      }
    </style>
    <clipPath id="fa7c3a92-958c-4ad0-903c-140583baa8fc">
      <rect class="b5f0e7e3-0e2c-43d3-9b37-2c8af20e0e49" x="374.13" y="497.29" width="5.87" height="3.16" rx="1.51" transform="translate(-129.8 132.62) rotate(-17.07)"/>
    </clipPath>
  </defs>
  <title>screen-12</title>
  <rect class="e94f8d4b-16c9-4816-add3-76cb17fba58f" x="-1.69" y="-1800.53" width="465.11" height="2577.43"/>
  <path class="b5f0e7e3-0e2c-43d3-9b37-2c8af20e0e49" d="M121.7,517.85l.72,34.6"/>
  <g>
    <rect class="bec76731-3c7e-4d63-a5dc-b9cab387a95f" y="478.05" width="463.49" height="252.15"/>
    <rect class="e94f8d4b-16c9-4816-add3-76cb17fba58f" y="6.08" width="462.98" height="500.23"/>
    <g class="ee267ec0-9dee-4b40-8435-6a871571e7d7">
      <g>
        <rect class="b36d9d25-79d6-4740-9519-56750af79d3f" x="51.96" y="378.91" width="11.73" height="127.27"/>
        <rect class="b36d9d25-79d6-4740-9519-56750af79d3f" x="29.96" y="378.91" width="11.73" height="127.27"/>
        <rect class="b36d9d25-79d6-4740-9519-56750af79d3f" x="7.96" y="378.91" width="11.73" height="127.27"/>
        <rect class="b36d9d25-79d6-4740-9519-56750af79d3f" x="73.44" y="378.91" width="11.73" height="127.27"/>
        <rect class="b36d9d25-79d6-4740-9519-56750af79d3f" x="95.12" y="378.91" width="11.73" height="127.27"/>
        <rect class="b36d9d25-79d6-4740-9519-56750af79d3f" x="116.21" y="378.91" width="11.73" height="127.27"/>
        <rect class="b36d9d25-79d6-4740-9519-56750af79d3f" x="139.3" y="378.91" width="11.73" height="127.27"/>
        <rect class="b36d9d25-79d6-4740-9519-56750af79d3f" x="160.78" y="378.91" width="11.73" height="127.27"/>
        <rect class="b36d9d25-79d6-4740-9519-56750af79d3f" x="182.46" y="378.91" width="11.73" height="127.27"/>
        <rect class="b36d9d25-79d6-4740-9519-56750af79d3f" x="203.55" y="378.91" width="11.73" height="127.27"/>
        <rect class="b36d9d25-79d6-4740-9519-56750af79d3f" x="226.14" y="378.91" width="11.73" height="127.27"/>
        <rect class="b36d9d25-79d6-4740-9519-56750af79d3f" x="247.62" y="378.91" width="11.73" height="127.27"/>
        <rect class="b36d9d25-79d6-4740-9519-56750af79d3f" x="269.29" y="378.91" width="11.73" height="127.27"/>
        <rect class="b36d9d25-79d6-4740-9519-56750af79d3f" x="290.39" y="378.91" width="11.73" height="127.27"/>
        <rect class="b36d9d25-79d6-4740-9519-56750af79d3f" x="313.17" y="378.91" width="11.73" height="127.27"/>
        <rect class="b36d9d25-79d6-4740-9519-56750af79d3f" x="334.65" y="378.91" width="11.73" height="127.27"/>
        <rect class="b36d9d25-79d6-4740-9519-56750af79d3f" x="356.33" y="378.91" width="11.73" height="127.27"/>
        <rect class="b36d9d25-79d6-4740-9519-56750af79d3f" x="377.42" y="378.91" width="11.73" height="127.27"/>
        <rect class="b36d9d25-79d6-4740-9519-56750af79d3f" x="400.01" y="378.91" width="11.73" height="127.27"/>
        <rect class="b36d9d25-79d6-4740-9519-56750af79d3f" x="421.49" y="378.91" width="11.73" height="127.27"/>
        <rect class="b36d9d25-79d6-4740-9519-56750af79d3f" x="443.16" y="378.91" width="11.73" height="127.27"/>
      </g>
      <rect class="b36d9d25-79d6-4740-9519-56750af79d3f" x="-1.69" y="386.75" width="456.58" height="10.62"/>
    </g>
    <g>
      <path class="b675643d-c824-4b1e-a269-30856c6191e4" d="M374.29,595.76V378a6.68,6.68,0,0,0-6.11-6.75,6.51,6.51,0,0,0-6.91,6.5V596"/>
      <path class="b675643d-c824-4b1e-a269-30856c6191e4" d="M367.78,446.1a6.52,6.52,0,0,0,0-13c-21.83,0-25.59-31.11-25.62-31.42a6.51,6.51,0,1,0-12.94,1.45C330.89,418,341.1,446.1,367.78,446.1Z"/>
      <path class="b675643d-c824-4b1e-a269-30856c6191e4" d="M361.53,491.17A6.51,6.51,0,0,1,366,483.1c13.05-3.8,22.38-12.77,27.74-26.68a66.3,66.3,0,0,0,4.31-21,6.52,6.52,0,0,1,13,0c0,16.65-8.67,50.66-41.44,60.2a6.42,6.42,0,0,1-1.82.27A6.52,6.52,0,0,1,361.53,491.17ZM398,435.4h0Z"/>
      <circle class="a7a5b874-510f-44c5-b9d9-0b4131383373" cx="403.11" cy="387.92" r="40.97"/>
      <circle class="a7a5b874-510f-44c5-b9d9-0b4131383373" cx="324.66" cy="354.12" r="40.97"/>
      <circle class="a7a5b874-510f-44c5-b9d9-0b4131383373" cx="386.15" cy="320.94" r="40.97"/>
      <circle class="a7a5b874-510f-44c5-b9d9-0b4131383373" cx="342.28" cy="303.93" r="26.67"/>
      <circle class="a7a5b874-510f-44c5-b9d9-0b4131383373" cx="368.94" cy="373.04" r="40.97"/>
      <circle class="a7a5b874-510f-44c5-b9d9-0b4131383373" cx="408.09" cy="432.3" r="26.67"/>
      <circle class="a7a5b874-510f-44c5-b9d9-0b4131383373" cx="327.97" cy="399.7" r="26.67"/>
    </g>
    <g>
      <g class="text-cta text-cta--12">
        <rect class="f66de8ae-9d2e-46c5-8e0e-06b47ce20fe1" x="78.43" y="338.25" width="174.17" height="218.14"/>
        <rect class="baf40b68-5a2c-41d0-bb62-522dffe05c76" x="110.59" y="362.4" width="16.88" height="183.14"/>
        <rect class="baf40b68-5a2c-41d0-bb62-522dffe05c76" x="141.5" y="362.4" width="16.88" height="183.14"/>
        <rect class="baf40b68-5a2c-41d0-bb62-522dffe05c76" x="172.69" y="362.4" width="16.88" height="183.14"/>
        <rect class="baf40b68-5a2c-41d0-bb62-522dffe05c76" x="203.04" y="362.4" width="16.88" height="183.14"/>
        <rect class="baf40b68-5a2c-41d0-bb62-522dffe05c76" x="78.43" y="349.07" width="174.17" height="12.26"/>
        <rect class="baf40b68-5a2c-41d0-bb62-522dffe05c76" x="78.43" y="374.54" width="30.94" height="12.26"/>
        <rect class="baf40b68-5a2c-41d0-bb62-522dffe05c76" x="78.43" y="399.24" width="30.94" height="12.26"/>
        <rect class="baf40b68-5a2c-41d0-bb62-522dffe05c76" x="78.43" y="424.56" width="30.94" height="12.26"/>
        <rect class="baf40b68-5a2c-41d0-bb62-522dffe05c76" x="78.43" y="449.27" width="30.94" height="12.26"/>
        <rect class="baf40b68-5a2c-41d0-bb62-522dffe05c76" x="78.43" y="473.9" width="30.94" height="12.26"/>
        <rect class="baf40b68-5a2c-41d0-bb62-522dffe05c76" x="78.43" y="498.61" width="30.94" height="12.26"/>
        <rect class="baf40b68-5a2c-41d0-bb62-522dffe05c76" x="78.43" y="523.92" width="30.94" height="12.26"/>
        <rect class="baf40b68-5a2c-41d0-bb62-522dffe05c76" x="221.22" y="374.54" width="30.94" height="12.26"/>
        <rect class="baf40b68-5a2c-41d0-bb62-522dffe05c76" x="221.22" y="399.24" width="30.94" height="12.26"/>
        <rect class="baf40b68-5a2c-41d0-bb62-522dffe05c76" x="221.22" y="424.56" width="30.94" height="12.26"/>
        <rect class="baf40b68-5a2c-41d0-bb62-522dffe05c76" x="221.22" y="449.27" width="30.94" height="12.26"/>
        <rect class="baf40b68-5a2c-41d0-bb62-522dffe05c76" x="221.22" y="473.9" width="30.94" height="12.26"/>
        <rect class="baf40b68-5a2c-41d0-bb62-522dffe05c76" x="221.22" y="498.61" width="30.94" height="12.26"/>
        <rect class="baf40b68-5a2c-41d0-bb62-522dffe05c76" x="221.22" y="523.92" width="30.94" height="12.26"/>
        <rect class="baf40b68-5a2c-41d0-bb62-522dffe05c76" x="78.43" y="547.02" width="174.17" height="12.26"/>
        <rect class="f66de8ae-9d2e-46c5-8e0e-06b47ce20fe1" x="252.38" y="337.63" width="3.78" height="221.77"/>
        <polygon class="baf40b68-5a2c-41d0-bb62-522dffe05c76" points="252.6 338.44 76.53 338.44 101.98 326.18 232.04 326.18 252.6 338.44"/>
        <polygon class="f66de8ae-9d2e-46c5-8e0e-06b47ce20fe1" points="229.06 326.24 104.47 326.24 134.39 314.03 199.78 313.98 229.06 326.24"/>
        <polygon class="baf40b68-5a2c-41d0-bb62-522dffe05c76" points="195.58 314.03 134.39 314.03 163.31 301.77 169.34 301.77 195.58 314.03"/>
        <g>
          <polygon class="f66de8ae-9d2e-46c5-8e0e-06b47ce20fe1" points="169.34 306.54 52.81 352.13 49.31 345.83 165.84 300.24 169.34 306.54"/>
          <polygon class="f66de8ae-9d2e-46c5-8e0e-06b47ce20fe1" points="162.23 306.54 278.76 352.13 282.26 345.83 165.73 300.24 162.23 306.54"/>
        </g>
      </g>
      <circle class="bf1302b0-770d-4c83-9906-8a4bbfc9d4b8" cx="212.25" cy="444.57" r="4.7"/>
      <rect class="bf1302b0-770d-4c83-9906-8a4bbfc9d4b8" x="100.47" y="403.28" width="18.23" height="4.5"/>
      <rect class="bf1302b0-770d-4c83-9906-8a4bbfc9d4b8" x="100.93" y="502.34" width="18.23" height="4.5"/>
    </g>
    <polygon class="a91afca3-33fc-44a3-ab5c-f463e2093ef7" points="375.71 717.98 17.36 717.98 44.24 570.45 350.76 569.65 375.71 717.98"/>
    <g>
      <path class="adcc1d07-a52a-485b-a211-e656caedf5ff" d="M380.16,708.11a5.62,5.62,0,0,1-5.62-5.4c-2.78-70.67,20.91-91.14,21.92-92a5.62,5.62,0,0,1,7.23,8.61c-.45.41-20.43,19.12-17.91,82.93a5.63,5.63,0,0,1-5.4,5.84Z"/>
      <path class="adcc1d07-a52a-485b-a211-e656caedf5ff" d="M418,704.14a4.23,4.23,0,0,1,3.26-2.92c-6.54-41.51.24-86,.3-86.41a5.62,5.62,0,1,0-11.1-1.73c-.3,1.89-7.19,47-.21,90.48a5.61,5.61,0,0,0,5.54,4.73,5.46,5.46,0,0,0,.9-.07,5.33,5.33,0,0,0,1.06-.28A5.26,5.26,0,0,1,418,704.14Z"/>
      <line class="ff84dbf4-e561-4c7f-a190-2f08e1fd71b3" x1="400.37" y1="520.95" x2="407.84" y2="538.42"/>
      <rect class="b6e18533-8d27-4efd-ae4c-e59cf6cbe00d" x="391.3" y="535.71" width="33.19" height="74.29" rx="13.43"/>
      <g>
        <path class="f44f7ac9-8397-4a26-b9bc-45d4d82e22be" d="M352.45,594.64H352"/>
        <path class="bcfb6b66-0693-4d98-881e-173f420da5b5" d="M346.3,595.31c-10.08,1.81-29.41,8.5-33.69,33.14"/>
        <path class="f44f7ac9-8397-4a26-b9bc-45d4d82e22be" d="M312.2,631.29l-.06.46"/>
      </g>
      <g>
        <path class="f44f7ac9-8397-4a26-b9bc-45d4d82e22be" d="M354.24,596.3l-.47,0"/>
        <path class="a693eacc-f7d9-4a1e-9eee-a3c5331c6f13" d="M348.5,597.13c-9.94,2.08-27,8.93-30.91,31.51"/>
        <path class="f44f7ac9-8397-4a26-b9bc-45d4d82e22be" d="M317.2,631.29c0,.15,0,.31-.05.46"/>
      </g>
      <g>
        <path class="f44f7ac9-8397-4a26-b9bc-45d4d82e22be" d="M359.46,598.1l-.46,0"/>
        <path class="a17588cb-5621-4567-9ad4-08b56fa94652" d="M353.2,598.84c-9.25,1.81-25.88,8-29.79,29.55"/>
        <path class="f44f7ac9-8397-4a26-b9bc-45d4d82e22be" d="M323,631.29l-.06.46"/>
      </g>
      <g>
        <path class="f44f7ac9-8397-4a26-b9bc-45d4d82e22be" d="M328.74,631.75c0-.15,0-.31.05-.46"/>
        <path class="f57ba272-1e93-4f05-8e08-a9ff028aa0b9" d="M329.72,626.06c3.53-14.78,13.46-21.61,21.85-24.76"/>
        <path class="f44f7ac9-8397-4a26-b9bc-45d4d82e22be" d="M354.08,600.45l.44-.14"/>
      </g>
      <g>
        <path class="f44f7ac9-8397-4a26-b9bc-45d4d82e22be" d="M353.59,603.29l-.42.2"/>
        <path class="aa1034d1-cf47-4ba8-b53f-d5c86cc22d62" d="M348.73,606.07c-6.25,4.26-12,11.24-14,22.68"/>
        <path class="f44f7ac9-8397-4a26-b9bc-45d4d82e22be" d="M334.35,631.29l-.06.46"/>
      </g>
      <rect class="adcc1d07-a52a-485b-a211-e656caedf5ff" x="391.3" y="598.96" width="33.19" height="15.52"/>
      <rect class="adcc1d07-a52a-485b-a211-e656caedf5ff" x="391.3" y="608.51" width="33.19" height="11.93" rx="5.71"/>
      <rect class="b36d9d25-79d6-4740-9519-56750af79d3f" x="367.81" y="468.85" width="44.04" height="59.65" rx="21.09" transform="translate(-129.18 136.36) rotate(-17.07)"/>
      <line class="e190c225-b3f6-4567-86d8-dec057c14f60" x1="366.13" y1="511.29" x2="376.1" y2="508.23"/>
      <path class="afc3018d-ed36-4205-8115-9f3b8a05b9f8" d="M374.11,519.5a16.13,16.13,0,0,0,7.94-6.23"/>
      <rect class="e94f8d4b-16c9-4816-add3-76cb17fba58f" x="374.13" y="497.29" width="5.87" height="3.16" rx="1.51" transform="translate(-129.8 132.62) rotate(-17.07)"/>
      <circle class="e94f8d4b-16c9-4816-add3-76cb17fba58f" cx="367.82" cy="481.25" r="7.42"/>
      <circle class="e94f8d4b-16c9-4816-add3-76cb17fba58f" cx="376.92" cy="471.8" r="7.42"/>
      <circle class="e94f8d4b-16c9-4816-add3-76cb17fba58f" cx="388.56" cy="468.23" r="7.42"/>
      <circle class="e94f8d4b-16c9-4816-add3-76cb17fba58f" cx="398.57" cy="471.28" r="7.42"/>
      <circle class="e94f8d4b-16c9-4816-add3-76cb17fba58f" cx="406.08" cy="479.27" r="7.42"/>
      <circle class="e94f8d4b-16c9-4816-add3-76cb17fba58f" cx="409.65" cy="488.77" r="7.42"/>
      <circle class="e94f8d4b-16c9-4816-add3-76cb17fba58f" cx="400.47" cy="491.46" r="7.42"/>
      <circle class="e94f8d4b-16c9-4816-add3-76cb17fba58f" cx="389.81" cy="489.32" r="7.42"/>
      <circle class="e94f8d4b-16c9-4816-add3-76cb17fba58f" cx="377.96" cy="484.63" r="7.42"/>
      <circle class="e94f8d4b-16c9-4816-add3-76cb17fba58f" cx="388.23" cy="476.99" r="7.42"/>
      <circle class="e94f8d4b-16c9-4816-add3-76cb17fba58f" cx="397.45" cy="481.37" r="7.42"/>
      <path class="ac6b4845-9f0d-4185-b215-833702f3751f" d="M400.47,536.18l10.66-4.8s12.32,1,13.36,16.91"/>
      <path class="f6d8f94f-d23d-4fa1-b996-bf3b4d12d3ee" d="M417.44,546.49s19.83,25.44,19.83,26.37c0,.54-.27.63-.56.66S403,564.06,403,564.06"/>
      <g>
        <rect class="ad8980a6-ebf9-44b7-998c-95d6050d6d84" x="377.57" y="569.67" width="24.82" height="31.83" transform="translate(-307.38 492.45) rotate(-48.73)"/>
        <circle class="ab10cd58-e4c7-4439-a90a-747682c8e262" cx="395.29" cy="568.47" r="9.83"/>
        <line class="f22e551f-e9bd-4dde-83e2-3bb2da2ead18" x1="355.37" y1="599.37" x2="385.7" y2="598.51"/>
        <polygon class="aa7dc5ae-09b2-4388-8c46-9c6a6e0829cf" points="351.47 599.61 352.01 607.87 357.74 599.21 351.47 599.61"/>
        <polygon class="aa7dc5ae-09b2-4388-8c46-9c6a6e0829cf" points="351.47 599.61 350.93 591.36 357.74 599.21 351.47 599.61"/>
      </g>
      <rect class="b36d9d25-79d6-4740-9519-56750af79d3f" x="398.24" y="559.73" width="9.6" height="9.6" rx="3.48"/>
      <path class="a01c4a17-6077-4cc9-bda6-5dff598f2207" d="M380,701.22H366.26a5.55,5.55,0,0,0-5.55,5.54v1.91H385.5v-1.91A5.55,5.55,0,0,0,380,701.22Z"/>
      <polygon class="a01c4a17-6077-4cc9-bda6-5dff598f2207" points="385.8 701.22 385.96 708.67 377.37 708.67 374.48 701.22 385.8 701.22"/>
      <path class="a01c4a17-6077-4cc9-bda6-5dff598f2207" d="M415.54,701.22H401.85a5.55,5.55,0,0,0-5.55,5.54v1.91h24.79v-1.91A5.55,5.55,0,0,0,415.54,701.22Z"/>
      <polygon class="a01c4a17-6077-4cc9-bda6-5dff598f2207" points="421.24 701.22 421.55 708.67 412.96 708.67 410.07 701.22 421.24 701.22"/>
      <g class="a91be336-2ec7-454e-8f6c-36fffa57ad2d">
        <circle class="b8b1a173-010f-4948-98a8-93362ed88995" cx="375.6" cy="499.7" r="1.58"/>
      </g>
      <line class="ed206609-b6d9-44fb-b787-d73229c45b09" x1="373.3" y1="495.63" x2="377.52" y2="494.18"/>
    </g>
    <g>
      <path class="acf2d8e0-beb2-4596-955b-fa636d2fb364" d="M353,693c4.92-5.3,4.66-9.94,4.66-9.94s-4.64-.24-9.92,4.7-3.61,8.88-3.61,8.88S348.08,698.31,353,693Z"/>
      <path class="acf2d8e0-beb2-4596-955b-fa636d2fb364" d="M333.32,693c-4.91-5.3-4.65-9.94-4.65-9.94s4.64-.24,9.91,4.7,3.62,8.88,3.62,8.88S338.24,698.31,333.32,693Z"/>
      <path class="acf2d8e0-beb2-4596-955b-fa636d2fb364" d="M352.79,673.18c4.91-5.29,4.65-9.93,4.65-9.93s-4.64-.24-9.91,4.69-3.62,8.89-3.62,8.89S347.87,678.48,352.79,673.18Z"/>
      <path class="acf2d8e0-beb2-4596-955b-fa636d2fb364" d="M333.12,673.18c-4.92-5.29-4.66-9.93-4.66-9.93s4.64-.24,9.92,4.69,3.61,8.89,3.61,8.89S338,678.48,333.12,673.18Z"/>
      <line class="a9c821bc-7da6-4bbd-9f31-c2430f0e960e" x1="342.95" y1="675.83" x2="342.95" y2="709.61"/>
    </g>
    <g>
      <path class="acf2d8e0-beb2-4596-955b-fa636d2fb364" d="M343.1,650c4.37-4.72,4.14-8.85,4.14-8.85s-4.13-.21-8.83,4.18-3.22,7.92-3.22,7.92S338.72,654.71,343.1,650Z"/>
      <path class="acf2d8e0-beb2-4596-955b-fa636d2fb364" d="M325.58,650c-4.37-4.72-4.14-8.85-4.14-8.85s4.13-.21,8.83,4.18,3.22,7.92,3.22,7.92S330,654.71,325.58,650Z"/>
      <path class="acf2d8e0-beb2-4596-955b-fa636d2fb364" d="M342.91,632.34c4.38-4.71,4.15-8.84,4.15-8.84s-4.13-.22-8.83,4.18-3.22,7.91-3.22,7.91S338.54,637.06,342.91,632.34Z"/>
      <path class="acf2d8e0-beb2-4596-955b-fa636d2fb364" d="M325.4,632.34c-4.37-4.71-4.14-8.84-4.14-8.84s4.13-.22,8.82,4.18,3.22,7.91,3.22,7.91S329.78,637.06,325.4,632.34Z"/>
      <line class="bfc288dc-3458-4532-8e18-3651990bc748" x1="334.16" y1="634.7" x2="334.16" y2="664.77"/>
    </g>
    <g>
      <path class="acf2d8e0-beb2-4596-955b-fa636d2fb364" d="M338.58,613.73c3.85-4.14,3.64-7.77,3.64-7.77s-3.62-.19-7.75,3.67-2.82,7-2.82,7S334.74,617.87,338.58,613.73Z"/>
      <path class="acf2d8e0-beb2-4596-955b-fa636d2fb364" d="M323.21,613.73c-3.85-4.14-3.64-7.77-3.64-7.77s3.62-.19,7.75,3.67,2.82,7,2.82,7S327.05,617.87,323.21,613.73Z"/>
      <path class="acf2d8e0-beb2-4596-955b-fa636d2fb364" d="M338.42,598.22c3.85-4.13,3.64-7.76,3.64-7.76s-3.62-.19-7.75,3.67-2.82,7-2.82,7S334.58,602.36,338.42,598.22Z"/>
      <path class="acf2d8e0-beb2-4596-955b-fa636d2fb364" d="M323.05,598.22c-3.85-4.13-3.64-7.76-3.64-7.76s3.62-.19,7.75,3.67,2.82,7,2.82,7S326.89,602.36,323.05,598.22Z"/>
      <line class="a427ba15-443d-44f6-9534-3b3bf36443be" x1="330.73" y1="600.29" x2="330.73" y2="626.7"/>
    </g>
    <g>
      <path class="acf2d8e0-beb2-4596-955b-fa636d2fb364" d="M333.59,580.78c3.26-3.51,3.09-6.59,3.09-6.59s-3.08-.16-6.58,3.11-2.39,5.89-2.39,5.89S330.33,584.29,333.59,580.78Z"/>
      <path class="acf2d8e0-beb2-4596-955b-fa636d2fb364" d="M320.55,580.78c-3.26-3.51-3.09-6.59-3.09-6.59s3.08-.16,6.58,3.11,2.39,5.89,2.39,5.89S323.81,584.29,320.55,580.78Z"/>
      <path class="acf2d8e0-beb2-4596-955b-fa636d2fb364" d="M333.45,567.63c3.26-3.51,3.09-6.59,3.09-6.59s-3.07-.16-6.57,3.12-2.4,5.89-2.4,5.89S330.19,571.14,333.45,567.63Z"/>
      <path class="acf2d8e0-beb2-4596-955b-fa636d2fb364" d="M320.42,567.63c-3.26-3.51-3.09-6.59-3.09-6.59s3.07-.16,6.57,3.12,2.4,5.89,2.4,5.89S323.67,571.14,320.42,567.63Z"/>
      <line class="a3bd9215-350b-4c78-a4e1-ad1e059cd62e" x1="326.93" y1="569.38" x2="326.93" y2="591.78"/>
    </g>
    <g>
      <path class="acf2d8e0-beb2-4596-955b-fa636d2fb364" d="M320.63,693.36c4.91-5.29,4.65-9.93,4.65-9.93s-4.64-.24-9.91,4.7-3.62,8.88-3.62,8.88S315.71,698.66,320.63,693.36Z"/>
      <path class="acf2d8e0-beb2-4596-955b-fa636d2fb364" d="M301,693.36c-4.92-5.29-4.66-9.93-4.66-9.93s4.64-.24,9.92,4.7,3.61,8.88,3.61,8.88S305.87,698.66,301,693.36Z"/>
      <path class="acf2d8e0-beb2-4596-955b-fa636d2fb364" d="M320.42,673.53c4.92-5.29,4.66-9.93,4.66-9.93s-4.64-.24-9.92,4.69-3.61,8.89-3.61,8.89S315.51,678.83,320.42,673.53Z"/>
      <path class="acf2d8e0-beb2-4596-955b-fa636d2fb364" d="M300.75,673.53c-4.91-5.29-4.65-9.93-4.65-9.93s4.64-.24,9.91,4.69,3.62,8.89,3.62,8.89S305.67,678.83,300.75,673.53Z"/>
      <line class="a9c821bc-7da6-4bbd-9f31-c2430f0e960e" x1="310.59" y1="676.18" x2="310.59" y2="709.96"/>
    </g>
    <g>
      <path class="acf2d8e0-beb2-4596-955b-fa636d2fb364" d="M314.73,650.35c4.38-4.72,4.15-8.85,4.15-8.85s-4.13-.21-8.83,4.18-3.22,7.92-3.22,7.92S310.36,655.06,314.73,650.35Z"/>
      <path class="acf2d8e0-beb2-4596-955b-fa636d2fb364" d="M297.22,650.35c-4.37-4.72-4.14-8.85-4.14-8.85s4.13-.21,8.82,4.18,3.22,7.92,3.22,7.92S301.6,655.06,297.22,650.35Z"/>
      <path class="acf2d8e0-beb2-4596-955b-fa636d2fb364" d="M314.55,632.69c4.38-4.71,4.15-8.84,4.15-8.84s-4.13-.22-8.83,4.18-3.22,7.91-3.22,7.91S310.17,637.41,314.55,632.69Z"/>
      <path class="acf2d8e0-beb2-4596-955b-fa636d2fb364" d="M297,632.69c-4.38-4.71-4.15-8.84-4.15-8.84s4.13-.22,8.83,4.18,3.22,7.91,3.22,7.91S301.42,637.41,297,632.69Z"/>
      <line class="bfc288dc-3458-4532-8e18-3651990bc748" x1="305.8" y1="635.05" x2="305.8" y2="665.12"/>
    </g>
    <g>
      <path class="acf2d8e0-beb2-4596-955b-fa636d2fb364" d="M311.82,614.08c3.85-4.14,3.64-7.77,3.64-7.77s-3.62-.19-7.75,3.67-2.83,6.95-2.83,6.95S308,618.22,311.82,614.08Z"/>
      <path class="acf2d8e0-beb2-4596-955b-fa636d2fb364" d="M296.45,614.08c-3.85-4.14-3.64-7.77-3.64-7.77s3.62-.19,7.75,3.67,2.82,6.95,2.82,6.95S300.29,618.22,296.45,614.08Z"/>
      <path class="acf2d8e0-beb2-4596-955b-fa636d2fb364" d="M311.66,598.57c3.84-4.13,3.64-7.76,3.64-7.76s-3.63-.19-7.75,3.67-2.83,6.95-2.83,6.95S307.82,602.71,311.66,598.57Z"/>
      <path class="acf2d8e0-beb2-4596-955b-fa636d2fb364" d="M296.29,598.57c-3.85-4.13-3.64-7.76-3.64-7.76s3.62-.19,7.75,3.67,2.82,6.95,2.82,6.95S300.13,602.71,296.29,598.57Z"/>
      <line class="a427ba15-443d-44f6-9534-3b3bf36443be" x1="303.97" y1="600.64" x2="303.97" y2="627.05"/>
    </g>
    <g>
      <path class="acf2d8e0-beb2-4596-955b-fa636d2fb364" d="M307.63,581.13c3.26-3.51,3.09-6.59,3.09-6.59s-3.08-.16-6.58,3.11-2.39,5.89-2.39,5.89S304.37,584.64,307.63,581.13Z"/>
      <path class="acf2d8e0-beb2-4596-955b-fa636d2fb364" d="M294.59,581.13c-3.26-3.51-3.09-6.59-3.09-6.59s3.08-.16,6.58,3.11,2.39,5.89,2.39,5.89S297.85,584.64,294.59,581.13Z"/>
      <path class="acf2d8e0-beb2-4596-955b-fa636d2fb364" d="M307.49,568c3.26-3.51,3.09-6.59,3.09-6.59s-3.08-.16-6.57,3.12-2.4,5.89-2.4,5.89S304.23,571.49,307.49,568Z"/>
      <path class="acf2d8e0-beb2-4596-955b-fa636d2fb364" d="M294.45,568c-3.25-3.51-3.08-6.59-3.08-6.59s3.07-.16,6.57,3.12,2.4,5.89,2.4,5.89S297.71,571.49,294.45,568Z"/>
      <line class="a3bd9215-350b-4c78-a4e1-ad1e059cd62e" x1="300.97" y1="569.73" x2="300.97" y2="592.13"/>
    </g>
    <g>
      <path class="acf2d8e0-beb2-4596-955b-fa636d2fb364" d="M287.81,694c4.91-5.29,4.65-9.93,4.65-9.93s-4.64-.24-9.91,4.69-3.62,8.89-3.62,8.89S282.89,699.32,287.81,694Z"/>
      <path class="acf2d8e0-beb2-4596-955b-fa636d2fb364" d="M268.14,694c-4.92-5.29-4.66-9.93-4.66-9.93s4.64-.24,9.92,4.69,3.61,8.89,3.61,8.89S273.05,699.32,268.14,694Z"/>
      <path class="acf2d8e0-beb2-4596-955b-fa636d2fb364" d="M287.6,674.19c4.92-5.29,4.66-9.93,4.66-9.93s-4.64-.24-9.92,4.69-3.61,8.89-3.61,8.89S282.69,679.49,287.6,674.19Z"/>
      <path class="acf2d8e0-beb2-4596-955b-fa636d2fb364" d="M267.93,674.19c-4.91-5.29-4.65-9.93-4.65-9.93s4.64-.24,9.91,4.69,3.62,8.89,3.62,8.89S272.85,679.49,267.93,674.19Z"/>
      <line class="a9c821bc-7da6-4bbd-9f31-c2430f0e960e" x1="277.77" y1="676.84" x2="277.77" y2="710.62"/>
    </g>
    <g>
      <path class="acf2d8e0-beb2-4596-955b-fa636d2fb364" d="M283.51,651c4.38-4.72,4.15-8.85,4.15-8.85s-4.13-.21-8.83,4.18-3.22,7.91-3.22,7.91S279.14,655.72,283.51,651Z"/>
      <path class="acf2d8e0-beb2-4596-955b-fa636d2fb364" d="M266,651c-4.37-4.72-4.14-8.85-4.14-8.85s4.13-.21,8.83,4.18,3.21,7.91,3.21,7.91S270.38,655.72,266,651Z"/>
      <path class="acf2d8e0-beb2-4596-955b-fa636d2fb364" d="M283.33,633.35c4.38-4.71,4.15-8.84,4.15-8.84s-4.13-.22-8.83,4.18-3.22,7.91-3.22,7.91S279,638.06,283.33,633.35Z"/>
      <path class="acf2d8e0-beb2-4596-955b-fa636d2fb364" d="M265.82,633.35c-4.38-4.71-4.14-8.84-4.14-8.84s4.13-.22,8.82,4.18,3.22,7.91,3.22,7.91S270.2,638.06,265.82,633.35Z"/>
      <line class="bfc288dc-3458-4532-8e18-3651990bc748" x1="274.58" y1="635.71" x2="274.58" y2="665.78"/>
    </g>
    <g>
      <path class="acf2d8e0-beb2-4596-955b-fa636d2fb364" d="M280.6,614.74c3.85-4.14,3.64-7.77,3.64-7.77s-3.62-.19-7.75,3.67-2.82,7-2.82,7S276.76,618.88,280.6,614.74Z"/>
      <path class="acf2d8e0-beb2-4596-955b-fa636d2fb364" d="M265.23,614.74c-3.85-4.14-3.64-7.77-3.64-7.77s3.62-.19,7.75,3.67,2.82,7,2.82,7S269.07,618.88,265.23,614.74Z"/>
      <path class="acf2d8e0-beb2-4596-955b-fa636d2fb364" d="M280.44,599.23c3.85-4.14,3.64-7.76,3.64-7.76s-3.62-.19-7.75,3.67-2.83,7-2.83,7S276.6,603.37,280.44,599.23Z"/>
      <path class="acf2d8e0-beb2-4596-955b-fa636d2fb364" d="M265.07,599.23c-3.85-4.14-3.64-7.76-3.64-7.76s3.62-.19,7.75,3.67,2.82,7,2.82,7S268.91,603.37,265.07,599.23Z"/>
      <line class="a427ba15-443d-44f6-9534-3b3bf36443be" x1="272.75" y1="601.3" x2="272.75" y2="627.71"/>
    </g>
    <g>
      <path class="bd40acaf-4d92-4169-be5f-013d286561c8" d="M155.75,550.48a95.56,95.56,0,0,1,4.89,29.68"/>
      <path class="bd40acaf-4d92-4169-be5f-013d286561c8" d="M146.25,556.77a41.87,41.87,0,0,1,14.39,24.7"/>
      <path class="bd40acaf-4d92-4169-be5f-013d286561c8" d="M165.17,550.48a95.56,95.56,0,0,0-4.89,29.68"/>
      <path class="bd40acaf-4d92-4169-be5f-013d286561c8" d="M174.68,556.77a41.91,41.91,0,0,0-14.4,24.7"/>
      <path class="a3183810-867e-422e-b316-41a3911a925a" d="M167.51,588.38v-2.67a6.73,6.73,0,0,0-6.72-6.72h-.3a6.73,6.73,0,0,0-6.72,6.72v2.67Z"/>
      <path class="bd40acaf-4d92-4169-be5f-013d286561c8" d="M190.15,550.48A95.56,95.56,0,0,1,195,580.16"/>
      <path class="bd40acaf-4d92-4169-be5f-013d286561c8" d="M180.65,556.77A41.87,41.87,0,0,1,195,581.47"/>
      <path class="bd40acaf-4d92-4169-be5f-013d286561c8" d="M199.58,550.48a95.56,95.56,0,0,0-4.89,29.68"/>
      <path class="bd40acaf-4d92-4169-be5f-013d286561c8" d="M209.08,556.77a41.87,41.87,0,0,0-14.39,24.7"/>
      <path class="a3183810-867e-422e-b316-41a3911a925a" d="M201.91,588.38v-2.67a6.73,6.73,0,0,0-6.72-6.72h-.3a6.74,6.74,0,0,0-6.72,6.72v2.67Z"/>
      <path class="bd40acaf-4d92-4169-be5f-013d286561c8" d="M224.37,550.48a95.56,95.56,0,0,1,4.89,29.68"/>
      <path class="bd40acaf-4d92-4169-be5f-013d286561c8" d="M214.87,556.77a41.87,41.87,0,0,1,14.39,24.7"/>
      <path class="bd40acaf-4d92-4169-be5f-013d286561c8" d="M233.8,550.48a95.56,95.56,0,0,0-4.89,29.68"/>
      <path class="bd40acaf-4d92-4169-be5f-013d286561c8" d="M243.3,556.77a41.87,41.87,0,0,0-14.39,24.7"/>
      <path class="a3183810-867e-422e-b316-41a3911a925a" d="M236.13,588.38v-2.67a6.73,6.73,0,0,0-6.72-6.72h-.3a6.74,6.74,0,0,0-6.72,6.72v2.67Z"/>
    </g>
    <g>
      <path class="b0a24684-db7a-48cb-83d1-5216fe32d91a" d="M152.78,563.18a106,106,0,0,1,5.42,32.9"/>
      <path class="b0a24684-db7a-48cb-83d1-5216fe32d91a" d="M142.24,570.15a46.43,46.43,0,0,1,16,27.39"/>
      <path class="b0a24684-db7a-48cb-83d1-5216fe32d91a" d="M163.23,563.18a105.82,105.82,0,0,0-5.43,32.9"/>
      <path class="b0a24684-db7a-48cb-83d1-5216fe32d91a" d="M173.76,570.15a46.43,46.43,0,0,0-16,27.39"/>
      <path class="a3183810-867e-422e-b316-41a3911a925a" d="M165.82,605.2v-3a7.49,7.49,0,0,0-7.46-7.46H158a7.49,7.49,0,0,0-7.46,7.46v3Z"/>
      <path class="b0a24684-db7a-48cb-83d1-5216fe32d91a" d="M190.92,563.18a106,106,0,0,1,5.42,32.9"/>
      <path class="b0a24684-db7a-48cb-83d1-5216fe32d91a" d="M180.38,570.15a46.43,46.43,0,0,1,16,27.39"/>
      <path class="b0a24684-db7a-48cb-83d1-5216fe32d91a" d="M201.36,563.18a106,106,0,0,0-5.42,32.9"/>
      <path class="b0a24684-db7a-48cb-83d1-5216fe32d91a" d="M211.9,570.15a46.43,46.43,0,0,0-16,27.39"/>
      <path class="a3183810-867e-422e-b316-41a3911a925a" d="M204,605.2v-3a7.48,7.48,0,0,0-7.45-7.46h-.33a7.48,7.48,0,0,0-7.45,7.46v3Z"/>
      <path class="b0a24684-db7a-48cb-83d1-5216fe32d91a" d="M228.85,563.18a106,106,0,0,1,5.42,32.9"/>
      <path class="b0a24684-db7a-48cb-83d1-5216fe32d91a" d="M218.31,570.15a46.43,46.43,0,0,1,16,27.39"/>
      <path class="b0a24684-db7a-48cb-83d1-5216fe32d91a" d="M239.3,563.18a105.82,105.82,0,0,0-5.43,32.9"/>
      <path class="b0a24684-db7a-48cb-83d1-5216fe32d91a" d="M249.83,570.15a46.43,46.43,0,0,0-16,27.39"/>
      <path class="a3183810-867e-422e-b316-41a3911a925a" d="M241.89,605.2v-3a7.49,7.49,0,0,0-7.46-7.46h-.32a7.49,7.49,0,0,0-7.46,7.46v3Z"/>
    </g>
    <g>
      <path class="aa7d02e3-25fb-44d8-975d-2421bfda56e4" d="M149.7,579.78a114.65,114.65,0,0,1,5.86,35.58"/>
      <path class="aa7d02e3-25fb-44d8-975d-2421bfda56e4" d="M138.31,587.32a50.19,50.19,0,0,1,17.25,29.61"/>
      <path class="aa7d02e3-25fb-44d8-975d-2421bfda56e4" d="M161,579.78a114.65,114.65,0,0,0-5.86,35.58"/>
      <path class="aa7d02e3-25fb-44d8-975d-2421bfda56e4" d="M172.38,587.32a50.19,50.19,0,0,0-17.25,29.61"/>
      <path class="a3183810-867e-422e-b316-41a3911a925a" d="M163.8,625.21V622a8.09,8.09,0,0,0-8.06-8.06h-.36a8.09,8.09,0,0,0-8.06,8.06v3.2Z"/>
      <path class="aa7d02e3-25fb-44d8-975d-2421bfda56e4" d="M190.93,579.78a114.65,114.65,0,0,1,5.86,35.58"/>
      <path class="aa7d02e3-25fb-44d8-975d-2421bfda56e4" d="M179.54,587.32a50.19,50.19,0,0,1,17.25,29.61"/>
      <path class="aa7d02e3-25fb-44d8-975d-2421bfda56e4" d="M202.23,579.78a114.65,114.65,0,0,0-5.86,35.58"/>
      <path class="aa7d02e3-25fb-44d8-975d-2421bfda56e4" d="M213.62,587.32a50.19,50.19,0,0,0-17.25,29.61"/>
      <path class="a3183810-867e-422e-b316-41a3911a925a" d="M205,625.21V622A8.09,8.09,0,0,0,197,614h-.35a8.08,8.08,0,0,0-8.06,8.06v3.2Z"/>
      <path class="aa7d02e3-25fb-44d8-975d-2421bfda56e4" d="M232,579.78a114.65,114.65,0,0,1,5.86,35.58"/>
      <path class="aa7d02e3-25fb-44d8-975d-2421bfda56e4" d="M220.56,587.32a50.19,50.19,0,0,1,17.25,29.61"/>
      <path class="aa7d02e3-25fb-44d8-975d-2421bfda56e4" d="M243.24,579.78a114.65,114.65,0,0,0-5.86,35.58"/>
      <path class="aa7d02e3-25fb-44d8-975d-2421bfda56e4" d="M254.64,587.32a50.17,50.17,0,0,0-17.26,29.61"/>
      <path class="a3183810-867e-422e-b316-41a3911a925a" d="M246.05,625.21V622A8.09,8.09,0,0,0,238,614h-.36a8.09,8.09,0,0,0-8.06,8.06v3.2Z"/>
    </g>
    <g>
      <path class="b5adfcf0-bbf8-4939-b056-6cd22d8fcc86" d="M144.69,598.43a120.08,120.08,0,0,1,6.14,37.27"/>
      <path class="b5adfcf0-bbf8-4939-b056-6cd22d8fcc86" d="M132.75,606.32a52.64,52.64,0,0,1,18.08,31"/>
      <path class="b5adfcf0-bbf8-4939-b056-6cd22d8fcc86" d="M156.52,598.43a120.08,120.08,0,0,0-6.14,37.27"/>
      <path class="b5adfcf0-bbf8-4939-b056-6cd22d8fcc86" d="M168.46,606.32a52.64,52.64,0,0,0-18.08,31"/>
      <path class="a3183810-867e-422e-b316-41a3911a925a" d="M159.46,646v-3.35a8.47,8.47,0,0,0-8.45-8.45h-.37a8.47,8.47,0,0,0-8.44,8.45V646Z"/>
      <path class="b5adfcf0-bbf8-4939-b056-6cd22d8fcc86" d="M187.89,598.43A120.08,120.08,0,0,1,194,635.7"/>
      <path class="b5adfcf0-bbf8-4939-b056-6cd22d8fcc86" d="M176,606.32a52.6,52.6,0,0,1,18.07,31"/>
      <path class="b5adfcf0-bbf8-4939-b056-6cd22d8fcc86" d="M199.73,598.43a119.91,119.91,0,0,0-6.15,37.27"/>
      <path class="b5adfcf0-bbf8-4939-b056-6cd22d8fcc86" d="M211.66,606.32a52.64,52.64,0,0,0-18.08,31"/>
      <path class="a3183810-867e-422e-b316-41a3911a925a" d="M202.66,646v-3.35a8.47,8.47,0,0,0-8.44-8.45h-.37a8.47,8.47,0,0,0-8.45,8.45V646Z"/>
      <path class="b5adfcf0-bbf8-4939-b056-6cd22d8fcc86" d="M230.87,598.43A120.08,120.08,0,0,1,237,635.7"/>
      <path class="b5adfcf0-bbf8-4939-b056-6cd22d8fcc86" d="M218.93,606.32a52.64,52.64,0,0,1,18.08,31"/>
      <path class="b5adfcf0-bbf8-4939-b056-6cd22d8fcc86" d="M242.7,598.43a120.08,120.08,0,0,0-6.14,37.27"/>
      <path class="b5adfcf0-bbf8-4939-b056-6cd22d8fcc86" d="M254.64,606.32a52.64,52.64,0,0,0-18.08,31"/>
      <path class="a3183810-867e-422e-b316-41a3911a925a" d="M245.64,646v-3.35a8.47,8.47,0,0,0-8.45-8.45h-.37a8.47,8.47,0,0,0-8.44,8.45V646Z"/>
    </g>
    <g>
      <path class="eae2ea31-9c95-4b72-8baa-16f827294be6" d="M144.08,624.35a123.35,123.35,0,0,1,6.31,38.29"/>
      <path class="eae2ea31-9c95-4b72-8baa-16f827294be6" d="M131.82,632.46a54.06,54.06,0,0,1,18.57,31.88"/>
      <path class="eae2ea31-9c95-4b72-8baa-16f827294be6" d="M156.24,624.35a123.35,123.35,0,0,0-6.31,38.29"/>
      <path class="eae2ea31-9c95-4b72-8baa-16f827294be6" d="M168.5,632.46a54.06,54.06,0,0,0-18.57,31.88"/>
      <path class="a3183810-867e-422e-b316-41a3911a925a" d="M159.25,673.25v-3.44a8.7,8.7,0,0,0-8.67-8.68h-.38a8.71,8.71,0,0,0-8.68,8.68v3.44Z"/>
      <path class="eae2ea31-9c95-4b72-8baa-16f827294be6" d="M189.27,624.35a123.35,123.35,0,0,1,6.31,38.29"/>
      <path class="eae2ea31-9c95-4b72-8baa-16f827294be6" d="M177,632.46a54,54,0,0,1,18.58,31.88"/>
      <path class="eae2ea31-9c95-4b72-8baa-16f827294be6" d="M201.42,624.35a123.53,123.53,0,0,0-6.3,38.29"/>
      <path class="eae2ea31-9c95-4b72-8baa-16f827294be6" d="M213.69,632.46a54.06,54.06,0,0,0-18.57,31.88"/>
      <path class="a3183810-867e-422e-b316-41a3911a925a" d="M204.44,673.25v-3.44a8.7,8.7,0,0,0-8.67-8.68h-.39a8.7,8.7,0,0,0-8.67,8.68v3.44Z"/>
      <path class="eae2ea31-9c95-4b72-8baa-16f827294be6" d="M234.22,624.35a123.35,123.35,0,0,1,6.31,38.29"/>
      <path class="eae2ea31-9c95-4b72-8baa-16f827294be6" d="M222,632.46a54.06,54.06,0,0,1,18.57,31.88"/>
      <path class="eae2ea31-9c95-4b72-8baa-16f827294be6" d="M246.38,624.35a123.35,123.35,0,0,0-6.31,38.29"/>
      <path class="eae2ea31-9c95-4b72-8baa-16f827294be6" d="M258.64,632.46a54.06,54.06,0,0,0-18.57,31.88"/>
      <path class="a3183810-867e-422e-b316-41a3911a925a" d="M249.39,673.25v-3.44a8.7,8.7,0,0,0-8.67-8.68h-.38a8.71,8.71,0,0,0-8.68,8.68v3.44Z"/>
    </g>
    <g>
      <path class="acf2d8e0-beb2-4596-955b-fa636d2fb364" d="M276.41,581.78c3.26-3.51,3.09-6.58,3.09-6.58s-3.08-.16-6.58,3.11-2.39,5.89-2.39,5.89S273.15,585.29,276.41,581.78Z"/>
      <path class="acf2d8e0-beb2-4596-955b-fa636d2fb364" d="M263.37,581.78c-3.26-3.51-3.08-6.58-3.08-6.58s3.07-.16,6.57,3.11,2.39,5.89,2.39,5.89S266.63,585.29,263.37,581.78Z"/>
      <path class="acf2d8e0-beb2-4596-955b-fa636d2fb364" d="M276.27,568.64c3.26-3.51,3.09-6.59,3.09-6.59s-3.07-.16-6.57,3.11-2.4,5.9-2.4,5.9S273,572.15,276.27,568.64Z"/>
      <path class="acf2d8e0-beb2-4596-955b-fa636d2fb364" d="M263.24,568.64c-3.26-3.51-3.09-6.59-3.09-6.59s3.07-.16,6.57,3.11,2.4,5.9,2.4,5.9S266.49,572.15,263.24,568.64Z"/>
      <line class="a3bd9215-350b-4c78-a4e1-ad1e059cd62e" x1="269.76" y1="570.39" x2="269.76" y2="592.78"/>
    </g>
    <path class="a1326ef2-9949-4b8e-9bb5-896f7fb83bdf" d="M139.11,652.14a130.74,130.74,0,0,1,6.7,40.63"/>
    <path class="a1326ef2-9949-4b8e-9bb5-896f7fb83bdf" d="M126.1,660.74a57.38,57.38,0,0,1,19.71,33.83"/>
    <path class="a1326ef2-9949-4b8e-9bb5-896f7fb83bdf" d="M152,652.14a130.92,130.92,0,0,0-6.69,40.63"/>
    <path class="a1326ef2-9949-4b8e-9bb5-896f7fb83bdf" d="M165,660.74a57.34,57.34,0,0,0-19.7,33.83"/>
    <path class="a1326ef2-9949-4b8e-9bb5-896f7fb83bdf" d="M187.86,652.14a130.74,130.74,0,0,1,6.7,40.63"/>
    <path class="a1326ef2-9949-4b8e-9bb5-896f7fb83bdf" d="M174.85,660.74a57.38,57.38,0,0,1,19.71,33.83"/>
    <path class="a1326ef2-9949-4b8e-9bb5-896f7fb83bdf" d="M200.76,652.14a130.92,130.92,0,0,0-6.69,40.63"/>
    <path class="a1326ef2-9949-4b8e-9bb5-896f7fb83bdf" d="M213.77,660.74a57.34,57.34,0,0,0-19.7,33.83"/>
    <path class="a1326ef2-9949-4b8e-9bb5-896f7fb83bdf" d="M236.36,652.14a130.74,130.74,0,0,1,6.7,40.63"/>
    <path class="a1326ef2-9949-4b8e-9bb5-896f7fb83bdf" d="M223.35,660.74a57.38,57.38,0,0,1,19.71,33.83"/>
    <path class="a1326ef2-9949-4b8e-9bb5-896f7fb83bdf" d="M249.26,652.14a130.92,130.92,0,0,0-6.69,40.63"/>
    <path class="a1326ef2-9949-4b8e-9bb5-896f7fb83bdf" d="M262.27,660.74a57.34,57.34,0,0,0-19.7,33.83"/>
    <g>
      <path class="a3183810-867e-422e-b316-41a3911a925a" d="M155.22,704v-3.66a9.24,9.24,0,0,0-9.21-9.2h-.41a9.23,9.23,0,0,0-9.2,9.2V704Z"/>
      <path class="a3183810-867e-422e-b316-41a3911a925a" d="M204,704v-3.66a9.23,9.23,0,0,0-9.2-9.2h-.41a9.23,9.23,0,0,0-9.2,9.2V704Z"/>
      <path class="a3183810-867e-422e-b316-41a3911a925a" d="M252.46,704v-3.66a9.23,9.23,0,0,0-9.2-9.2h-.41a9.23,9.23,0,0,0-9.2,9.2V704Z"/>
    </g>
    <g>
      <g>
        <path class="f87e09f0-19fb-44fb-83b2-a724e7b9e5a3" d="M70.87,600.15c2.47-7.23.22-11.59.22-11.59s-4.58,1.76-7.55,8.79.33,10.14.33,10.14S68.4,607.38,70.87,600.15Z"/>
        <path class="bec76731-3c7e-4d63-a5dc-b9cab387a95f" d="M66.12,608.44a6.25,6.25,0,0,1-2.21.58,1.58,1.58,0,0,1-1.09-.41c-.17-.16-4-3.93-.7-11.85,3.19-7.56,8.22-9.55,8.42-9.64a1.54,1.54,0,0,1,1.92.74c.1.2,2.51,5-.14,12.79h0C70.64,605.57,68,607.6,66.12,608.44Zm-1.6-2.65c1.13-.39,3.38-1.71,4.9-6.14h0a16.5,16.5,0,0,0,.8-8.81A16.43,16.43,0,0,0,65,598C63.14,602.25,63.93,604.74,64.52,605.79Z"/>
      </g>
      <line class="b58c0227-55c4-410b-8385-973952a12e67" x1="62.81" y1="558.13" x2="62.81" y2="609.53"/>
      <g>
        <path class="f87e09f0-19fb-44fb-83b2-a724e7b9e5a3" d="M62,599.75c-3.36-6.85-8-8.35-8-8.35s-2,4.49.88,11.56,7.4,6.93,7.4,6.93S65.35,606.61,62,599.75Z"/>
        <path class="bec76731-3c7e-4d63-a5dc-b9cab387a95f" d="M64.49,609a6.44,6.44,0,0,1-1.15,2,1.59,1.59,0,0,1-1.07.48c-.23,0-5.63.08-8.87-7.89-3.09-7.6-.94-12.56-.86-12.76a1.53,1.53,0,0,1,1.87-.84c.22.07,5.34,1.78,9,9.14h0C65.65,603.75,65.22,607.06,64.49,609Zm-3-.74c.52-1.07,1.19-3.6-.88-7.8h0a16.44,16.44,0,0,0-5.66-6.8,16.53,16.53,0,0,0,1.3,8.75C58,606.71,60.32,607.9,61.48,608.23Z"/>
      </g>
      <path class="b8909556-3e8c-465a-b1b6-ef57d4fec832" d="M65.38,558.47l-2.81-4.27-2.68,4.27-3-4.24a4.19,4.19,0,0,0,0,.5v7.18a5.91,5.91,0,0,0,11.81,0v-7.18a4.58,4.58,0,0,0,0-.53Z"/>
      <g>
        <path class="f87e09f0-19fb-44fb-83b2-a724e7b9e5a3" d="M97.88,600.15c2.46-7.23.22-11.59.22-11.59s-4.59,1.76-7.56,8.79.34,10.14.34,10.14S95.41,607.38,97.88,600.15Z"/>
        <path class="bec76731-3c7e-4d63-a5dc-b9cab387a95f" d="M93.13,608.44a6.29,6.29,0,0,1-2.21.58,1.54,1.54,0,0,1-1.09-.41c-.17-.16-4-3.93-.7-11.85,3.19-7.56,8.21-9.55,8.42-9.64a1.53,1.53,0,0,1,1.91.74c.11.2,2.52,5-.13,12.79h0C97.65,605.57,95,607.6,93.13,608.44Zm-1.6-2.65c1.12-.39,3.38-1.71,4.89-6.14h0a16.43,16.43,0,0,0,.81-8.81A16.43,16.43,0,0,0,92,598C90.14,602.25,90.94,604.74,91.53,605.79Z"/>
      </g>
      <line class="b58c0227-55c4-410b-8385-973952a12e67" x1="89.82" y1="558.13" x2="89.82" y2="609.53"/>
      <g>
        <path class="f87e09f0-19fb-44fb-83b2-a724e7b9e5a3" d="M89,599.75c-3.37-6.85-8-8.35-8-8.35s-2,4.49.88,11.56,7.4,6.93,7.4,6.93S92.35,606.61,89,599.75Z"/>
        <path class="bec76731-3c7e-4d63-a5dc-b9cab387a95f" d="M91.49,609a6.22,6.22,0,0,1-1.15,2,1.58,1.58,0,0,1-1.06.48c-.23,0-5.64.08-8.87-7.89-3.09-7.6-1-12.56-.86-12.76a1.52,1.52,0,0,1,1.87-.84c.21.07,5.34,1.78,9,9.14h0C92.66,603.75,92.23,607.06,91.49,609Zm-3-.74c.52-1.07,1.18-3.6-.88-7.8h0a16.52,16.52,0,0,0-5.66-6.8,16.53,16.53,0,0,0,1.3,8.75C85,606.71,87.33,607.9,88.49,608.23Z"/>
      </g>
      <path class="b8909556-3e8c-465a-b1b6-ef57d4fec832" d="M92.38,558.47l-2.81-4.27-2.67,4.27-3-4.24c0,.17,0,.33,0,.5v7.18a5.9,5.9,0,0,0,11.8,0v-7.18c0-.18,0-.36,0-.53Z"/>
      <g>
        <path class="f87e09f0-19fb-44fb-83b2-a724e7b9e5a3" d="M124.45,600.15c2.47-7.23.22-11.59.22-11.59s-4.58,1.76-7.55,8.79.33,10.14.33,10.14S122,607.38,124.45,600.15Z"/>
        <path class="bec76731-3c7e-4d63-a5dc-b9cab387a95f" d="M119.7,608.44a6.25,6.25,0,0,1-2.21.58,1.54,1.54,0,0,1-1.09-.41c-.17-.16-4.05-3.93-.7-11.85,3.19-7.56,8.21-9.55,8.42-9.64a1.53,1.53,0,0,1,1.91.74c.11.2,2.52,5-.13,12.79h0C124.22,605.57,121.58,607.6,119.7,608.44Zm-1.6-2.65c1.13-.39,3.38-1.71,4.9-6.14h0a16.5,16.5,0,0,0,.8-8.81,16.43,16.43,0,0,0-5.27,7.11C116.71,602.25,117.51,604.74,118.1,605.79Z"/>
      </g>
      <line class="b58c0227-55c4-410b-8385-973952a12e67" x1="116.39" y1="558.13" x2="116.39" y2="609.53"/>
      <g>
        <path class="f87e09f0-19fb-44fb-83b2-a724e7b9e5a3" d="M115.56,599.75c-3.36-6.85-8-8.35-8-8.35s-2,4.49.88,11.56,7.4,6.93,7.4,6.93S118.93,606.61,115.56,599.75Z"/>
        <path class="bec76731-3c7e-4d63-a5dc-b9cab387a95f" d="M118.07,609a6.13,6.13,0,0,1-1.16,2,1.56,1.56,0,0,1-1.06.48c-.23,0-5.63.08-8.87-7.89-3.09-7.6-.94-12.56-.86-12.76a1.53,1.53,0,0,1,1.87-.84c.22.07,5.34,1.78,9,9.14h0C119.23,603.75,118.8,607.06,118.07,609Zm-3-.74c.52-1.07,1.18-3.6-.88-7.8h0a16.44,16.44,0,0,0-5.66-6.8,16.53,16.53,0,0,0,1.3,8.75C111.58,606.71,113.9,607.9,115.06,608.23Z"/>
      </g>
      <path class="b8909556-3e8c-465a-b1b6-ef57d4fec832" d="M119,558.47l-2.82-4.27-2.67,4.27-3-4.24c0,.17,0,.33,0,.5v7.18a5.91,5.91,0,0,0,11.81,0v-7.18c0-.18,0-.36,0-.53Z"/>
    </g>
    <g>
      <g>
        <path class="f87e09f0-19fb-44fb-83b2-a724e7b9e5a3" d="M67.33,616.58c2.56-7.48.23-12,.23-12s-4.74,1.82-7.81,9.09.35,10.49.35,10.49S64.78,624.05,67.33,616.58Z"/>
        <path class="bec76731-3c7e-4d63-a5dc-b9cab387a95f" d="M62.42,625.15a6.41,6.41,0,0,1-2.28.6,1.56,1.56,0,0,1-1.13-.42c-.17-.17-4.19-4.06-.72-12.26,3.3-7.82,8.49-9.88,8.7-10a1.59,1.59,0,0,1,2,.76c.11.21,2.61,5.21-.13,13.23h0C67.1,622.19,64.36,624.29,62.42,625.15Zm-1.65-2.74c1.16-.4,3.5-1.77,5.06-6.35h0a17,17,0,0,0,.83-9.12,17.18,17.18,0,0,0-5.45,7.36C59.34,618.75,60.16,621.32,60.77,622.41Z"/>
      </g>
      <line class="b1d08722-80ed-4f82-a022-d85ac1957e21" x1="59" y1="573.12" x2="59" y2="626.28"/>
      <g>
        <path class="f87e09f0-19fb-44fb-83b2-a724e7b9e5a3" d="M58.14,616.17c-3.48-7.09-8.31-8.64-8.31-8.64s-2.07,4.64.9,12,7.66,7.17,7.66,7.17S61.62,623.26,58.14,616.17Z"/>
        <path class="bec76731-3c7e-4d63-a5dc-b9cab387a95f" d="M60.73,625.7a6.23,6.23,0,0,1-1.19,2,1.58,1.58,0,0,1-1.1.49c-.23,0-5.83.09-9.18-8.16-3.19-7.86-1-13-.89-13.2a1.6,1.6,0,0,1,1.94-.87c.22.08,5.52,1.85,9.26,9.46h0C61.94,620.3,61.49,623.72,60.73,625.7Zm-3.11-.76c.54-1.12,1.23-3.73-.9-8.07h0a17.16,17.16,0,0,0-5.86-7,17.1,17.1,0,0,0,1.35,9.06C54,623.36,56.43,624.59,57.62,624.94Z"/>
      </g>
      <path class="ebe763d6-832f-418d-9e3b-8407cb3990de" d="M61.65,573.47,58.74,569,56,573.47l-3.06-4.39c0,.17,0,.34,0,.51V577a6.11,6.11,0,1,0,12.21,0v-7.43a4.89,4.89,0,0,0,0-.54Z"/>
      <g>
        <path class="f87e09f0-19fb-44fb-83b2-a724e7b9e5a3" d="M95.27,616.58c2.55-7.48.23-12,.23-12s-4.74,1.82-7.82,9.09.35,10.49.35,10.49S92.71,624.05,95.27,616.58Z"/>
        <path class="bec76731-3c7e-4d63-a5dc-b9cab387a95f" d="M90.36,625.15a6.49,6.49,0,0,1-2.29.6,1.58,1.58,0,0,1-1.13-.42c-.17-.17-4.18-4.06-.72-12.26,3.3-7.82,8.5-9.88,8.71-10a1.59,1.59,0,0,1,2,.76c.11.21,2.6,5.21-.14,13.23h0C95,622.19,92.3,624.29,90.36,625.15Zm-1.66-2.74c1.17-.4,3.5-1.77,5.07-6.35h0a17.1,17.1,0,0,0,.83-9.12,17,17,0,0,0-5.45,7.36C87.27,618.75,88.09,621.32,88.7,622.41Z"/>
      </g>
      <line class="b1d08722-80ed-4f82-a022-d85ac1957e21" x1="86.94" y1="573.12" x2="86.94" y2="626.28"/>
      <g>
        <path class="f87e09f0-19fb-44fb-83b2-a724e7b9e5a3" d="M86.08,616.17c-3.48-7.09-8.32-8.64-8.32-8.64s-2.06,4.64.91,12,7.66,7.17,7.66,7.17S89.56,623.26,86.08,616.17Z"/>
        <path class="bec76731-3c7e-4d63-a5dc-b9cab387a95f" d="M88.67,625.7a6.66,6.66,0,0,1-1.19,2,1.6,1.6,0,0,1-1.1.49c-.24,0-5.83.09-9.18-8.16-3.2-7.86-1-13-.89-13.2a1.59,1.59,0,0,1,1.93-.87c.23.08,5.53,1.85,9.26,9.46h0C89.87,620.3,89.43,623.72,88.67,625.7Zm-3.11-.76c.54-1.12,1.22-3.73-.91-8.07h0a17.08,17.08,0,0,0-5.86-7,17.1,17.1,0,0,0,1.35,9.06C82,623.36,84.36,624.59,85.56,624.94Z"/>
      </g>
      <path class="ebe763d6-832f-418d-9e3b-8407cb3990de" d="M89.59,573.47,86.68,569l-2.77,4.43-3-4.39a4.36,4.36,0,0,0,0,.51V577A6.11,6.11,0,1,0,93,577v-7.43a4.89,4.89,0,0,0,0-.54Z"/>
      <g>
        <path class="f87e09f0-19fb-44fb-83b2-a724e7b9e5a3" d="M122.75,616.58c2.56-7.48.23-12,.23-12s-4.74,1.82-7.81,9.09.35,10.49.35,10.49S120.2,624.05,122.75,616.58Z"/>
        <path class="bec76731-3c7e-4d63-a5dc-b9cab387a95f" d="M117.84,625.15a6.41,6.41,0,0,1-2.28.6,1.56,1.56,0,0,1-1.13-.42c-.17-.17-4.19-4.06-.72-12.26,3.3-7.82,8.49-9.88,8.7-10a1.59,1.59,0,0,1,2,.76c.11.21,2.61,5.21-.13,13.23h0C122.52,622.19,119.78,624.29,117.84,625.15Zm-1.65-2.74c1.16-.4,3.5-1.77,5.06-6.35h0a17,17,0,0,0,.83-9.12,17.18,17.18,0,0,0-5.45,7.36C114.76,618.75,115.58,621.32,116.19,622.41Z"/>
      </g>
      <line class="b1d08722-80ed-4f82-a022-d85ac1957e21" x1="114.42" y1="573.12" x2="114.42" y2="626.28"/>
      <g>
        <path class="f87e09f0-19fb-44fb-83b2-a724e7b9e5a3" d="M113.56,616.17c-3.48-7.09-8.31-8.64-8.31-8.64s-2.07,4.64.9,12,7.66,7.17,7.66,7.17S117,623.26,113.56,616.17Z"/>
        <path class="bec76731-3c7e-4d63-a5dc-b9cab387a95f" d="M116.15,625.7a6.23,6.23,0,0,1-1.19,2,1.58,1.58,0,0,1-1.1.49c-.23,0-5.83.09-9.18-8.16-3.19-7.86-1-13-.89-13.2a1.6,1.6,0,0,1,1.94-.87c.22.08,5.52,1.85,9.26,9.46h0C117.36,620.3,116.91,623.72,116.15,625.7Zm-3.11-.76c.54-1.12,1.23-3.73-.9-8.07h0a17.16,17.16,0,0,0-5.86-7,17.1,17.1,0,0,0,1.35,9.06C109.44,623.36,111.85,624.59,113,624.94Z"/>
      </g>
      <path class="ebe763d6-832f-418d-9e3b-8407cb3990de" d="M117.07,573.47,114.16,569l-2.76,4.43-3.06-4.39c0,.17,0,.34,0,.51V577a6.11,6.11,0,1,0,12.21,0v-7.43a4.89,4.89,0,0,0,0-.54Z"/>
    </g>
    <g>
      <g>
        <path class="f87e09f0-19fb-44fb-83b2-a724e7b9e5a3" d="M64.53,633c2.64-7.73.24-12.4.24-12.4s-4.9,1.88-8.08,9.41.36,10.84.36,10.84S61.89,640.72,64.53,633Z"/>
        <path class="bec76731-3c7e-4d63-a5dc-b9cab387a95f" d="M59.45,641.86a6.66,6.66,0,0,1-2.36.62,1.67,1.67,0,0,1-1.17-.44c-.18-.17-4.33-4.2-.74-12.68,3.41-8.08,8.78-10.21,9-10.31a1.65,1.65,0,0,1,2,.78c.11.22,2.69,5.39-.14,13.69h0C64.29,638.79,61.46,641,59.45,641.86ZM57.74,639c1.21-.42,3.62-1.83,5.24-6.56h0a17.75,17.75,0,0,0,.86-9.44,17.69,17.69,0,0,0-5.64,7.62C56.26,635.24,57.11,637.9,57.74,639Z"/>
      </g>
      <line class="b448bb7b-42c6-4f57-9bda-fcb2841d9cb2" x1="55.91" y1="588.04" x2="55.91" y2="643.03"/>
      <g>
        <path class="f87e09f0-19fb-44fb-83b2-a724e7b9e5a3" d="M55,632.57c-3.6-7.34-8.6-8.94-8.6-8.94s-2.13,4.8.94,12.37,7.92,7.41,7.92,7.41S58.62,639.9,55,632.57Z"/>
        <path class="bec76731-3c7e-4d63-a5dc-b9cab387a95f" d="M57.7,642.43a6.34,6.34,0,0,1-1.23,2.11,1.59,1.59,0,0,1-1.14.51c-.24,0-6,.1-9.49-8.44-3.3-8.12-1-13.43-.92-13.65a1.66,1.66,0,0,1,2-.9c.24.08,5.72,1.91,9.58,9.78h0C59,636.84,58.49,640.38,57.7,642.43Zm-3.21-.79c.56-1.15,1.26-3.86-.94-8.35h0A17.65,17.65,0,0,0,47.49,626a17.73,17.73,0,0,0,1.39,9.37C50.76,640,53.25,641.28,54.49,641.64Z"/>
      </g>
      <path class="bb05e9aa-8201-4860-8527-8757fc501e2d" d="M58.66,588.4l-3-4.58-2.86,4.58-3.17-4.54c0,.18,0,.35,0,.53v7.68a6.32,6.32,0,1,0,12.63,0v-7.68a5.44,5.44,0,0,0,0-.57Z"/>
      <g>
        <path class="f87e09f0-19fb-44fb-83b2-a724e7b9e5a3" d="M93.43,633c2.64-7.73.23-12.4.23-12.4s-4.9,1.88-8.08,9.41.36,10.84.36,10.84S90.79,640.72,93.43,633Z"/>
        <path class="bec76731-3c7e-4d63-a5dc-b9cab387a95f" d="M88.35,641.86a6.64,6.64,0,0,1-2.37.62,1.65,1.65,0,0,1-1.16-.44c-.18-.17-4.33-4.2-.75-12.68,3.41-8.08,8.79-10.21,9-10.31a1.64,1.64,0,0,1,2.05.78c.12.22,2.7,5.39-.14,13.69h0C93.18,638.79,90.35,641,88.35,641.86ZM86.64,639c1.2-.42,3.61-1.83,5.23-6.56h0a17.64,17.64,0,0,0,.86-9.44,17.69,17.69,0,0,0-5.63,7.62C85.15,635.24,86,637.9,86.64,639Z"/>
      </g>
      <line class="b448bb7b-42c6-4f57-9bda-fcb2841d9cb2" x1="84.81" y1="588.04" x2="84.81" y2="643.03"/>
      <g>
        <path class="f87e09f0-19fb-44fb-83b2-a724e7b9e5a3" d="M83.92,632.57c-3.6-7.34-8.6-8.94-8.6-8.94s-2.14,4.8.94,12.37,7.92,7.41,7.92,7.41S87.52,639.9,83.92,632.57Z"/>
        <path class="bec76731-3c7e-4d63-a5dc-b9cab387a95f" d="M86.6,642.43a6.54,6.54,0,0,1-1.23,2.11,1.61,1.61,0,0,1-1.14.51c-.25,0-6,.1-9.49-8.44-3.31-8.12-1-13.43-.93-13.65a1.67,1.67,0,0,1,2-.9c.23.08,5.71,1.91,9.57,9.78h0C87.85,636.84,87.39,640.38,86.6,642.43Zm-3.22-.79c.56-1.15,1.27-3.86-.94-8.35h0A17.65,17.65,0,0,0,76.38,626a17.66,17.66,0,0,0,1.4,9.37C79.66,640,82.14,641.28,83.38,641.64Z"/>
      </g>
      <path class="bb05e9aa-8201-4860-8527-8757fc501e2d" d="M87.55,588.4l-3-4.58-2.86,4.58-3.16-4.54a4.71,4.71,0,0,0,0,.53v7.68a6.32,6.32,0,1,0,12.63,0v-7.68c0-.19,0-.38,0-.57Z"/>
      <g>
        <path class="f87e09f0-19fb-44fb-83b2-a724e7b9e5a3" d="M121.86,633c2.64-7.73.23-12.4.23-12.4s-4.9,1.88-8.08,9.41.36,10.84.36,10.84S119.22,640.72,121.86,633Z"/>
        <path class="bec76731-3c7e-4d63-a5dc-b9cab387a95f" d="M116.78,641.86a6.64,6.64,0,0,1-2.37.62,1.65,1.65,0,0,1-1.16-.44c-.18-.17-4.33-4.2-.75-12.68,3.41-8.08,8.79-10.21,9-10.31a1.64,1.64,0,0,1,2,.78c.12.22,2.7,5.39-.14,13.69h0C121.61,638.79,118.78,641,116.78,641.86ZM115.07,639c1.2-.42,3.62-1.83,5.23-6.56h0a17.54,17.54,0,0,0,.86-9.44,17.69,17.69,0,0,0-5.63,7.62C113.58,635.24,114.44,637.9,115.07,639Z"/>
      </g>
      <line class="b448bb7b-42c6-4f57-9bda-fcb2841d9cb2" x1="113.24" y1="588.04" x2="113.24" y2="643.03"/>
      <g>
        <path class="f87e09f0-19fb-44fb-83b2-a724e7b9e5a3" d="M112.35,632.57c-3.6-7.34-8.6-8.94-8.6-8.94s-2.14,4.8.94,12.37,7.92,7.41,7.92,7.41S116,639.9,112.35,632.57Z"/>
        <path class="bec76731-3c7e-4d63-a5dc-b9cab387a95f" d="M115,642.43a6.54,6.54,0,0,1-1.23,2.11,1.61,1.61,0,0,1-1.14.51c-.25,0-6,.1-9.49-8.44-3.31-8.12-1-13.43-.92-13.65a1.65,1.65,0,0,1,2-.9c.23.08,5.71,1.91,9.57,9.78h0C116.28,636.84,115.82,640.38,115,642.43Zm-3.22-.79c.56-1.15,1.27-3.86-.93-8.35h0a17.72,17.72,0,0,0-6.07-7.28,17.66,17.66,0,0,0,1.4,9.37C108.09,640,110.57,641.28,111.81,641.64Z"/>
      </g>
      <path class="bb05e9aa-8201-4860-8527-8757fc501e2d" d="M116,588.4l-3-4.58-2.86,4.58L107,583.86c0,.18,0,.35,0,.53v7.68a6.32,6.32,0,1,0,12.63,0v-7.68c0-.19,0-.38,0-.57Z"/>
    </g>
    <g>
      <g>
        <path class="f87e09f0-19fb-44fb-83b2-a724e7b9e5a3" d="M62.17,650.29c2.71-7.93.24-12.72.24-12.72s-5,1.93-8.29,9.65.37,11.13.37,11.13S59.46,658.22,62.17,650.29Z"/>
        <path class="bec76731-3c7e-4d63-a5dc-b9cab387a95f" d="M57,659.39a6.78,6.78,0,0,1-2.43.64,1.69,1.69,0,0,1-1.2-.45c-.18-.18-4.44-4.31-.76-13,3.5-8.29,9-10.47,9.23-10.57a1.7,1.7,0,0,1,2.11.8c.11.23,2.76,5.53-.15,14.05h0C61.91,656.24,59,658.47,57,659.39Zm-1.76-2.91c1.24-.43,3.71-1.88,5.37-6.73h0a18.21,18.21,0,0,0,.89-9.68,18.08,18.08,0,0,0-5.79,7.81C53.68,652.6,54.55,655.33,55.2,656.48Z"/>
      </g>
      <line class="eee4c45b-13be-45d4-b25c-0152d18af8d4" x1="53.32" y1="604.17" x2="53.32" y2="660.59"/>
      <g>
        <path class="f87e09f0-19fb-44fb-83b2-a724e7b9e5a3" d="M52.41,649.86c-3.69-7.53-8.82-9.17-8.82-9.17s-2.19,4.92,1,12.69S52.68,661,52.68,661,56.1,657.38,52.41,649.86Z"/>
        <path class="bec76731-3c7e-4d63-a5dc-b9cab387a95f" d="M55.16,660a7,7,0,0,1-1.26,2.17,1.69,1.69,0,0,1-1.17.52c-.25,0-6.19.09-9.74-8.66-3.39-8.34-1-13.78-.94-14a1.69,1.69,0,0,1,2.05-.92c.24.08,5.86,2,9.83,10h0C56.44,654.24,56,657.87,55.16,660Zm-3.3-.82c.57-1.18,1.3-3.95-1-8.56h0a18.18,18.18,0,0,0-6.22-7.47,18.12,18.12,0,0,0,1.43,9.61C48,657.49,50.59,658.8,51.86,659.16Z"/>
      </g>
      <path class="faef6bd6-0c5a-4917-8c61-a33414427744" d="M56.14,604.54l-3.09-4.69-2.93,4.69-3.25-4.65c0,.17,0,.35,0,.54v7.88a6.48,6.48,0,0,0,13,0v-7.88a5.49,5.49,0,0,0,0-.58Z"/>
      <g>
        <path class="f87e09f0-19fb-44fb-83b2-a724e7b9e5a3" d="M91.81,650.29c2.71-7.93.25-12.72.25-12.72s-5,1.93-8.3,9.65.37,11.13.37,11.13S89.1,658.22,91.81,650.29Z"/>
        <path class="bec76731-3c7e-4d63-a5dc-b9cab387a95f" d="M86.6,659.39a6.73,6.73,0,0,1-2.43.64,1.69,1.69,0,0,1-1.19-.45c-.19-.18-4.44-4.31-.77-13,3.5-8.29,9-10.47,9.24-10.57a1.69,1.69,0,0,1,2.1.8c.12.23,2.77,5.53-.14,14.05h0C91.56,656.24,88.66,658.47,86.6,659.39Zm-1.76-2.91c1.24-.43,3.72-1.88,5.38-6.73h0a18.07,18.07,0,0,0,.88-9.68,18.08,18.08,0,0,0-5.78,7.81C83.32,652.6,84.2,655.33,84.84,656.48Z"/>
      </g>
      <line class="eee4c45b-13be-45d4-b25c-0152d18af8d4" x1="82.97" y1="604.17" x2="82.97" y2="660.59"/>
      <g>
        <path class="f87e09f0-19fb-44fb-83b2-a724e7b9e5a3" d="M82.06,649.86c-3.7-7.53-8.83-9.17-8.83-9.17s-2.19,4.92,1,12.69S82.32,661,82.32,661,85.75,657.38,82.06,649.86Z"/>
        <path class="bec76731-3c7e-4d63-a5dc-b9cab387a95f" d="M84.81,660a6.86,6.86,0,0,1-1.27,2.17,1.65,1.65,0,0,1-1.16.52c-.26,0-6.19.09-9.75-8.66-3.38-8.34-1-13.78-.94-14a1.7,1.7,0,0,1,2.06-.92c.23.08,5.86,2,9.82,10h0C86.09,654.24,85.61,657.87,84.81,660Zm-3.3-.82c.57-1.18,1.3-3.95-1-8.56h0a18.1,18.1,0,0,0-6.21-7.47,18,18,0,0,0,1.43,9.61C77.69,657.49,80.24,658.8,81.51,659.16Z"/>
      </g>
      <path class="faef6bd6-0c5a-4917-8c61-a33414427744" d="M85.78,604.54l-3.08-4.69-2.94,4.69-3.24-4.65a4.63,4.63,0,0,0,0,.54v7.88a6.48,6.48,0,0,0,13,0v-7.88a5.49,5.49,0,0,0,0-.58Z"/>
      <g>
        <path class="f87e09f0-19fb-44fb-83b2-a724e7b9e5a3" d="M121,650.29c2.71-7.93.25-12.72.25-12.72s-5,1.93-8.3,9.65.37,11.13.37,11.13S118.27,658.22,121,650.29Z"/>
        <path class="bec76731-3c7e-4d63-a5dc-b9cab387a95f" d="M115.77,659.39a6.73,6.73,0,0,1-2.43.64,1.69,1.69,0,0,1-1.19-.45c-.19-.18-4.44-4.31-.77-13,3.5-8.29,9-10.47,9.24-10.57a1.69,1.69,0,0,1,2.1.8c.12.23,2.77,5.53-.14,14.05h0C120.73,656.24,117.83,658.47,115.77,659.39ZM114,656.48c1.24-.43,3.72-1.88,5.38-6.73h0a18.07,18.07,0,0,0,.88-9.68,18,18,0,0,0-5.78,7.81C112.49,652.6,113.37,655.33,114,656.48Z"/>
      </g>
      <line class="eee4c45b-13be-45d4-b25c-0152d18af8d4" x1="112.14" y1="604.17" x2="112.14" y2="660.59"/>
      <g>
        <path class="f87e09f0-19fb-44fb-83b2-a724e7b9e5a3" d="M111.23,649.86c-3.7-7.53-8.83-9.17-8.83-9.17s-2.19,4.92,1,12.69,8.12,7.61,8.12,7.61S114.92,657.38,111.23,649.86Z"/>
        <path class="bec76731-3c7e-4d63-a5dc-b9cab387a95f" d="M114,660a6.86,6.86,0,0,1-1.27,2.17,1.65,1.65,0,0,1-1.16.52c-.26,0-6.19.09-9.75-8.66-3.39-8.34-1-13.78-.94-14a1.69,1.69,0,0,1,2-.92c.24.08,5.87,2,9.83,10h0C115.26,654.24,114.78,657.87,114,660Zm-3.3-.82c.57-1.18,1.3-3.95-1-8.56h0a18.1,18.1,0,0,0-6.21-7.47,18,18,0,0,0,1.43,9.61C106.85,657.49,109.4,658.8,110.68,659.16Z"/>
      </g>
      <path class="faef6bd6-0c5a-4917-8c61-a33414427744" d="M115,604.54l-3.08-4.69-2.94,4.69-3.24-4.65a4.63,4.63,0,0,0,0,.54v7.88a6.48,6.48,0,0,0,13,0v-7.88a5.49,5.49,0,0,0,0-.58Z"/>
    </g>
    <g>
      <g>
        <path class="f87e09f0-19fb-44fb-83b2-a724e7b9e5a3" d="M60,669.88c2.81-8.2.26-13.16.26-13.16s-5.21,2-8.58,10,.38,11.51.38,11.51S57.24,678.09,60,669.88Z"/>
        <path class="bec76731-3c7e-4d63-a5dc-b9cab387a95f" d="M54.65,679.29a7.12,7.12,0,0,1-2.51.67,1.74,1.74,0,0,1-1.23-.47c-.19-.18-4.6-4.46-.8-13.46,3.62-8.58,9.33-10.84,9.56-10.94a1.73,1.73,0,0,1,2.17.83c.12.23,2.86,5.72-.15,14.53h0C59.78,676,56.78,678.35,54.65,679.29Zm-1.81-3c1.28-.45,3.84-1.95,5.55-7h0a18.68,18.68,0,0,0,.92-10,18.64,18.64,0,0,0-6,8.08C51.26,672.27,52.17,675.09,52.84,676.29Z"/>
      </g>
      <line class="b1742927-3c44-486d-9c33-34c286ba77dd" x1="50.9" y1="622.17" x2="50.9" y2="680.53"/>
      <g>
        <path class="f87e09f0-19fb-44fb-83b2-a724e7b9e5a3" d="M50,669.43c-3.82-7.78-9.13-9.48-9.13-9.48s-2.26,5.09,1,13.12,8.41,7.87,8.41,7.87S53.77,677.22,50,669.43Z"/>
        <path class="bec76731-3c7e-4d63-a5dc-b9cab387a95f" d="M52.8,679.9a7.08,7.08,0,0,1-1.31,2.24,1.75,1.75,0,0,1-1.21.55c-.26,0-6.4.09-10.07-9-3.51-8.63-1.07-14.26-1-14.49a1.75,1.75,0,0,1,2.13-1c.24.08,6.06,2,10.16,10.38h0C54.12,674,53.63,677.72,52.8,679.9Zm-3.41-.84c.59-1.22,1.34-4.09-1-8.86h0A18.73,18.73,0,0,0,42,662.48a18.66,18.66,0,0,0,1.48,9.94C45.43,677.33,48.07,678.68,49.39,679.06Z"/>
      </g>
      <path class="bef8d55c-4195-47f4-a165-03f0a844b484" d="M53.81,622.56l-3.2-4.86-3,4.86-3.36-4.82c0,.19,0,.38,0,.56v8.16a6.71,6.71,0,0,0,13.41,0V618.3a5.68,5.68,0,0,0,0-.59Z"/>
      <g>
        <path class="f87e09f0-19fb-44fb-83b2-a724e7b9e5a3" d="M90.71,669.88c2.8-8.2.25-13.16.25-13.16s-5.2,2-8.58,10,.38,11.51.38,11.51S87.91,678.09,90.71,669.88Z"/>
        <path class="bec76731-3c7e-4d63-a5dc-b9cab387a95f" d="M85.32,679.29a7.12,7.12,0,0,1-2.51.67,1.76,1.76,0,0,1-1.24-.47c-.19-.18-4.59-4.46-.79-13.46,3.62-8.58,9.32-10.84,9.55-10.94a1.75,1.75,0,0,1,2.18.83c.12.23,2.86,5.72-.15,14.53h0C90.45,676,87.45,678.35,85.32,679.29Zm-1.82-3c1.28-.45,3.84-1.95,5.56-7h0a18.75,18.75,0,0,0,.91-10,18.72,18.72,0,0,0-6,8.08C81.93,672.27,82.83,675.09,83.5,676.29Z"/>
      </g>
      <line class="b1742927-3c44-486d-9c33-34c286ba77dd" x1="81.56" y1="622.17" x2="81.56" y2="680.53"/>
      <g>
        <path class="f87e09f0-19fb-44fb-83b2-a724e7b9e5a3" d="M80.62,669.43c-3.82-7.78-9.13-9.48-9.13-9.48s-2.27,5.09,1,13.12,8.4,7.87,8.4,7.87S84.44,677.22,80.62,669.43Z"/>
        <path class="bec76731-3c7e-4d63-a5dc-b9cab387a95f" d="M83.46,679.9a6.68,6.68,0,0,1-1.31,2.24,1.73,1.73,0,0,1-1.2.55c-.26,0-6.4.09-10.08-9-3.5-8.63-1.07-14.26-1-14.49a1.76,1.76,0,0,1,2.13-1c.25.08,6.06,2,10.16,10.38h0C84.79,674,84.3,677.72,83.46,679.9Zm-3.41-.84c.59-1.22,1.34-4.09-1-8.86h0a18.65,18.65,0,0,0-6.43-7.72,18.76,18.76,0,0,0,1.48,9.94C76.1,677.33,78.73,678.68,80.05,679.06Z"/>
      </g>
      <path class="bef8d55c-4195-47f4-a165-03f0a844b484" d="M84.47,622.56l-3.19-4.86-3,4.86-3.35-4.82a5.4,5.4,0,0,0,0,.56v8.16a6.7,6.7,0,0,0,13.4,0V618.3a5.68,5.68,0,0,0,0-.59Z"/>
      <g>
        <path class="f87e09f0-19fb-44fb-83b2-a724e7b9e5a3" d="M120.88,669.88c2.8-8.2.25-13.16.25-13.16s-5.2,2-8.57,10,.37,11.51.37,11.51S118.08,678.09,120.88,669.88Z"/>
        <path class="bec76731-3c7e-4d63-a5dc-b9cab387a95f" d="M115.49,679.29A7.12,7.12,0,0,1,113,680a1.78,1.78,0,0,1-1.24-.47c-.19-.18-4.59-4.46-.79-13.46,3.62-8.58,9.32-10.84,9.56-10.94a1.73,1.73,0,0,1,2.17.83c.12.23,2.86,5.72-.15,14.53h0C120.62,676,117.62,678.35,115.49,679.29Zm-1.82-3c1.28-.45,3.84-1.95,5.56-7h0a18.88,18.88,0,0,0,.92-10,18.72,18.72,0,0,0-6,8.08C112.1,672.27,113,675.09,113.67,676.29Z"/>
      </g>
      <line class="b1742927-3c44-486d-9c33-34c286ba77dd" x1="111.73" y1="622.17" x2="111.73" y2="680.53"/>
      <g>
        <path class="f87e09f0-19fb-44fb-83b2-a724e7b9e5a3" d="M110.79,669.43c-3.82-7.78-9.13-9.48-9.13-9.48s-2.26,5.09,1,13.12,8.4,7.87,8.4,7.87S114.61,677.22,110.79,669.43Z"/>
        <path class="bec76731-3c7e-4d63-a5dc-b9cab387a95f" d="M113.63,679.9a7,7,0,0,1-1.3,2.24,1.75,1.75,0,0,1-1.21.55c-.26,0-6.4.09-10.08-9-3.5-8.63-1.07-14.26-1-14.49a1.74,1.74,0,0,1,2.12-1c.25.08,6.07,2,10.17,10.38h0C115,674,114.47,677.72,113.63,679.9Zm-3.41-.84c.59-1.22,1.34-4.09-1-8.86h0a18.66,18.66,0,0,0-6.44-7.72,18.86,18.86,0,0,0,1.48,9.94C106.27,677.33,108.91,678.68,110.22,679.06Z"/>
      </g>
      <path class="bef8d55c-4195-47f4-a165-03f0a844b484" d="M114.65,622.56l-3.2-4.86-3,4.86-3.36-4.82a5.4,5.4,0,0,0,0,.56v8.16a6.71,6.71,0,0,0,13.41,0V618.3c0-.2,0-.4,0-.59Z"/>
    </g>
    <g>
      <g>
        <path class="f87e09f0-19fb-44fb-83b2-a724e7b9e5a3" d="M57,689.77c2.83-8.28.25-13.29.25-13.29s-5.25,2-8.66,10.09.39,11.62.39,11.62S54.18,698.06,57,689.77Z"/>
        <path class="bec76731-3c7e-4d63-a5dc-b9cab387a95f" d="M51.57,699.28A7.3,7.3,0,0,1,49,700a1.77,1.77,0,0,1-1.25-.48c-.19-.18-4.64-4.5-.8-13.59,3.66-8.66,9.42-10.94,9.65-11a1.77,1.77,0,0,1,2.2.83c.12.24,2.88,5.78-.15,14.67h0C56.75,696,53.72,698.32,51.57,699.28Zm-1.84-3c1.29-.45,3.88-2,5.61-7h0a19,19,0,0,0,.93-10.11,18.89,18.89,0,0,0-6,8.16C48.14,692.18,49.06,695,49.73,696.24Z"/>
      </g>
      <line class="b405716d-bfcd-49d6-8851-44693e3d2aff" x1="47.77" y1="641.59" x2="47.77" y2="700.53"/>
      <g>
        <path class="f87e09f0-19fb-44fb-83b2-a724e7b9e5a3" d="M46.82,689.32c-3.86-7.86-9.22-9.58-9.22-9.58s-2.29,5.14,1,13.26,8.49,7.94,8.49,7.94S50.68,697.18,46.82,689.32Z"/>
        <path class="bec76731-3c7e-4d63-a5dc-b9cab387a95f" d="M49.69,699.89a7.37,7.37,0,0,1-1.32,2.27,1.76,1.76,0,0,1-1.22.54c-.26,0-6.46.1-10.17-9C33.44,685,35.9,679.26,36,679a1.77,1.77,0,0,1,2.15-1c.25.08,6.12,2.05,10.26,10.48h0C51,693.9,50.53,697.69,49.69,699.89ZM46.25,699c.59-1.23,1.35-4.13-1-8.95h0a18.91,18.91,0,0,0-6.5-7.8,19,19,0,0,0,1.5,10C42.25,697.29,44.92,698.66,46.25,699Z"/>
      </g>
      <path class="ebb0b1d1-24a2-4397-8152-6752bad81271" d="M50.71,642l-3.22-4.9L44.42,642,41,637.12c0,.19,0,.37,0,.57v8.23a6.77,6.77,0,1,0,13.54,0v-8.23a6.08,6.08,0,0,0,0-.61Z"/>
      <g>
        <path class="f87e09f0-19fb-44fb-83b2-a724e7b9e5a3" d="M88,689.77c2.83-8.28.25-13.29.25-13.29s-5.25,2-8.66,10.09.38,11.62.38,11.62S85.15,698.06,88,689.77Z"/>
        <path class="bec76731-3c7e-4d63-a5dc-b9cab387a95f" d="M82.53,699.28A7.23,7.23,0,0,1,80,700a1.75,1.75,0,0,1-1.25-.48c-.19-.18-4.64-4.5-.8-13.59,3.66-8.66,9.42-10.94,9.65-11a1.77,1.77,0,0,1,2.2.83c.12.24,2.88,5.78-.16,14.67h0C87.71,696,84.68,698.32,82.53,699.28Zm-1.83-3c1.29-.45,3.88-2,5.61-7h0a19,19,0,0,0,.93-10.11,19,19,0,0,0-6,8.16C79.11,692.18,80,695,80.7,696.24Z"/>
      </g>
      <line class="b405716d-bfcd-49d6-8851-44693e3d2aff" x1="78.74" y1="641.59" x2="78.74" y2="700.53"/>
      <g>
        <path class="f87e09f0-19fb-44fb-83b2-a724e7b9e5a3" d="M77.79,689.32c-3.86-7.86-9.22-9.58-9.22-9.58s-2.29,5.14,1,13.26,8.48,7.94,8.48,7.94S81.65,697.18,77.79,689.32Z"/>
        <path class="bec76731-3c7e-4d63-a5dc-b9cab387a95f" d="M80.66,699.89a7.37,7.37,0,0,1-1.32,2.27,1.76,1.76,0,0,1-1.22.54c-.26,0-6.46.1-10.18-9C64.4,685,66.86,679.26,67,679a1.76,1.76,0,0,1,2.14-1c.25.08,6.13,2.05,10.27,10.48h0C82,693.9,81.5,697.69,80.66,699.89ZM77.21,699c.6-1.23,1.36-4.13-1-8.95h0a19,19,0,0,0-6.5-7.8,18.86,18.86,0,0,0,1.5,10C73.22,697.29,75.88,698.66,77.21,699Z"/>
      </g>
      <path class="ebb0b1d1-24a2-4397-8152-6752bad81271" d="M81.68,642l-3.22-4.9L75.39,642,72,637.12a5.3,5.3,0,0,0,0,.57v8.23a6.77,6.77,0,1,0,13.54,0v-8.23a6.08,6.08,0,0,0,0-.61Z"/>
      <g>
        <path class="f87e09f0-19fb-44fb-83b2-a724e7b9e5a3" d="M118.45,689.77c2.83-8.28.25-13.29.25-13.29s-5.25,2-8.66,10.09.38,11.62.38,11.62S115.62,698.06,118.45,689.77Z"/>
        <path class="bec76731-3c7e-4d63-a5dc-b9cab387a95f" d="M113,699.28a7.23,7.23,0,0,1-2.53.67,1.77,1.77,0,0,1-1.25-.48c-.19-.18-4.64-4.5-.8-13.59,3.66-8.66,9.42-10.94,9.65-11a1.77,1.77,0,0,1,2.2.83c.12.24,2.88,5.78-.16,14.67h0C118.18,696,115.15,698.32,113,699.28Zm-1.83-3c1.29-.45,3.88-2,5.61-7h0a19,19,0,0,0,.93-10.11,19,19,0,0,0-6,8.16C109.58,692.18,110.5,695,111.17,696.24Z"/>
      </g>
      <line class="b405716d-bfcd-49d6-8851-44693e3d2aff" x1="109.21" y1="641.59" x2="109.21" y2="700.53"/>
      <g>
        <path class="f87e09f0-19fb-44fb-83b2-a724e7b9e5a3" d="M108.26,689.32c-3.86-7.86-9.22-9.58-9.22-9.58s-2.29,5.14,1,13.26,8.48,7.94,8.48,7.94S112.12,697.18,108.26,689.32Z"/>
        <path class="bec76731-3c7e-4d63-a5dc-b9cab387a95f" d="M111.13,699.89a7.37,7.37,0,0,1-1.32,2.27,1.76,1.76,0,0,1-1.22.54c-.26,0-6.46.1-10.17-9-3.55-8.71-1.09-14.4-1-14.63a1.76,1.76,0,0,1,2.14-1c.25.08,6.13,2.05,10.27,10.48h0C112.47,693.9,112,697.69,111.13,699.89Zm-3.45-.85c.6-1.23,1.36-4.13-1-8.95h0a19,19,0,0,0-6.5-7.8,18.86,18.86,0,0,0,1.5,10C103.69,697.29,106.35,698.66,107.68,699Z"/>
      </g>
      <path class="ebb0b1d1-24a2-4397-8152-6752bad81271" d="M112.15,642l-3.22-4.9-3.07,4.9-3.39-4.86c0,.19,0,.37,0,.57v8.23a6.77,6.77,0,1,0,13.54,0v-8.23a6.08,6.08,0,0,0,0-.61Z"/>
    </g>
  </g>
  <path class="e63976be-871c-4c1a-b7d3-a4f558074762" d="M463,297.6c-8.09-13.83-23.3-23.49-37.59-30.73-48.46-24.53-98.64-46.48-151.52-58.88C215.08,194.2,153.66,192.37,96,174.43c-13.67-4.26-27.46-9.65-37.78-19.57s-16.45-25.37-11.83-38.92c5.21-15.31,21.53-23.39,36.34-29.89,18.75-8.23,38.75-13.26,58.42-19,30.15-8.73,61.11-12.55,91.09-21.86C261,36.3,302.17,19.22,325.83.08L367.3-.06C329.81,41.48,284.83,69.6,230.42,86.09c-14.47,4.39-28.94,10.66-41.49,19.44-3.67,2.57-7.34,5.75-8.4,10.1-2.47,10.18,9.94,17.17,20.07,19.81,54.58,14.26,112.19,14,166.63,28.81,32.4,8.8,65.64,24,96.19,37.93Z"/>
  <rect class="e63976be-871c-4c1a-b7d3-a4f558074762" x="219.22" y="74.72" width="243.77" height="11.96"/>
  <g>
    <polygon class="adc5d208-8731-4025-b3f1-08866134b0e3" points="435.59 5.11 379.25 5.11 322.9 5.11 314.42 21.14 379.25 21.14 444.08 21.14 435.59 5.11"/>
    <rect class="f517b69e-e33a-4c59-959c-320c9aa50ab8" x="387.93" y="52.73" width="30.96" height="17.82" rx="0.42"/>
    <rect class="f517b69e-e33a-4c59-959c-320c9aa50ab8" x="314.64" y="21.98" width="128.14" height="46" rx="1.37"/>
    <rect class="e94f8d4b-16c9-4816-add3-76cb17fba58f" x="346.41" y="28.68" width="16.91" height="9.14" rx="0.43"/>
    <rect class="e94f8d4b-16c9-4816-add3-76cb17fba58f" x="322.18" y="28.68" width="16.91" height="9.14" rx="0.43"/>
    <rect class="e94f8d4b-16c9-4816-add3-76cb17fba58f" x="346.41" y="49.29" width="16.91" height="9.14" rx="0.43"/>
    <rect class="e94f8d4b-16c9-4816-add3-76cb17fba58f" x="322.18" y="49.29" width="16.91" height="9.14" rx="0.43"/>
    <rect class="e94f8d4b-16c9-4816-add3-76cb17fba58f" x="370.65" y="28.68" width="16.91" height="9.14" rx="0.43"/>
    <rect class="e94f8d4b-16c9-4816-add3-76cb17fba58f" x="428.46" y="49.29" width="7.71" height="9.14" rx="0.29"/>
    <rect class="e94f8d4b-16c9-4816-add3-76cb17fba58f" x="370.65" y="49.29" width="7.71" height="9.14" rx="0.29"/>
    <rect class="e94f8d4b-16c9-4816-add3-76cb17fba58f" x="399.86" y="28.68" width="7.71" height="9.14" rx="0.29"/>
    <rect class="e94f8d4b-16c9-4816-add3-76cb17fba58f" x="395.12" y="28.68" width="16.43" height="9.14" rx="0.43"/>
    <rect class="e94f8d4b-16c9-4816-add3-76cb17fba58f" x="419.36" y="28.68" width="16.43" height="9.14" rx="0.43"/>
    <rect class="e94f8d4b-16c9-4816-add3-76cb17fba58f" x="397.38" y="56.23" width="11.95" height="14.33" rx="0.23"/>
    <rect class="e94f8d4b-16c9-4816-add3-76cb17fba58f" x="411.48" y="56.23" width="6.41" height="11.96" rx="0.16"/>
    <rect class="e94f8d4b-16c9-4816-add3-76cb17fba58f" x="388.79" y="56.23" width="6.41" height="11.96" rx="0.16"/>
    <polygon class="bf119bec-4d75-4df3-97ff-27bb071d3759" points="387.77 52.73 418.84 52.73 410.55 44.98 397.2 44.98 387.77 52.73"/>
    <path class="f87e09f0-19fb-44fb-83b2-a724e7b9e5a3" d="M429.73,70.55H411.48a4.55,4.55,0,0,1,2.4-3.3,2.79,2.79,0,0,1-.54-1,3,3,0,0,1,4.49-3.38,4.57,4.57,0,0,1,8,1.45,4.5,4.5,0,0,1-.25,3.37A4.59,4.59,0,0,1,429.73,70.55Z"/>
    <path class="f87e09f0-19fb-44fb-83b2-a724e7b9e5a3" d="M377,70.55H395.2a4.6,4.6,0,0,0-2.4-3.3,3,3,0,0,0-3.95-4.37,4.58,4.58,0,0,0-7.72,4.82A4.58,4.58,0,0,0,377,70.55Z"/>
  </g>
  <path class="a7a5b874-510f-44c5-b9d9-0b4131383373" d="M457.41,171.61c-30.29-18.53-64.88-29.05-99.79-35.61S287.23,126.66,252,122.48c-2.86-.34-6.29-1.13-7.17-3.87s1.4-5.36,3.87-6.68,5.35-2,7.41-3.86H463v66.4Z"/>
  <g>
    <line class="aef473fd-953b-427c-8a15-97088bb1ca7c" x1="336.66" y1="114.89" x2="336.66" y2="71.6"/>
    <path class="bcccc1f8-e2e1-44d6-a47f-758160772444" d="M325.53,74.38s1,11.2,11.13,15.28"/>
    <path class="bcccc1f8-e2e1-44d6-a47f-758160772444" d="M347.62,70.07s-1.33,13.19-11,13.19"/>
    <circle class="bec76731-3c7e-4d63-a5dc-b9cab387a95f" cx="349.41" cy="68.36" r="8.71"/>
    <circle class="bec76731-3c7e-4d63-a5dc-b9cab387a95f" cx="355.51" cy="44.74" r="8.71"/>
    <circle class="bec76731-3c7e-4d63-a5dc-b9cab387a95f" cx="319.44" cy="45.6" r="10.41"/>
    <circle class="bec76731-3c7e-4d63-a5dc-b9cab387a95f" cx="335.82" cy="70.92" r="6.79"/>
    <circle class="bec76731-3c7e-4d63-a5dc-b9cab387a95f" cx="358.12" cy="58.88" r="11.2"/>
    <circle class="bec76731-3c7e-4d63-a5dc-b9cab387a95f" cx="313.88" cy="58.88" r="10.02"/>
    <circle class="bec76731-3c7e-4d63-a5dc-b9cab387a95f" cx="332.2" cy="39.61" r="14.93"/>
    <circle class="bec76731-3c7e-4d63-a5dc-b9cab387a95f" cx="343.34" cy="41.74" r="11.93"/>
    <circle class="bec76731-3c7e-4d63-a5dc-b9cab387a95f" cx="334.6" cy="56.67" r="14.93"/>
    <circle class="bec76731-3c7e-4d63-a5dc-b9cab387a95f" cx="323.75" cy="68.36" r="8.69"/>
  </g>
  <g>
    <line class="aef473fd-953b-427c-8a15-97088bb1ca7c" x1="409.66" y1="114.89" x2="409.66" y2="71.6"/>
    <path class="bcccc1f8-e2e1-44d6-a47f-758160772444" d="M398.53,74.38s1,11.2,11.13,15.28"/>
    <path class="bcccc1f8-e2e1-44d6-a47f-758160772444" d="M420.62,70.07s-1.33,13.19-11,13.19"/>
    <circle class="bec76731-3c7e-4d63-a5dc-b9cab387a95f" cx="422.41" cy="68.36" r="8.71"/>
    <circle class="bec76731-3c7e-4d63-a5dc-b9cab387a95f" cx="428.51" cy="44.74" r="8.71"/>
    <circle class="bec76731-3c7e-4d63-a5dc-b9cab387a95f" cx="392.44" cy="45.6" r="10.41"/>
    <circle class="bec76731-3c7e-4d63-a5dc-b9cab387a95f" cx="408.82" cy="70.92" r="6.79"/>
    <circle class="bec76731-3c7e-4d63-a5dc-b9cab387a95f" cx="431.12" cy="58.88" r="11.2"/>
    <circle class="bec76731-3c7e-4d63-a5dc-b9cab387a95f" cx="386.88" cy="58.88" r="10.02"/>
    <circle class="bec76731-3c7e-4d63-a5dc-b9cab387a95f" cx="405.2" cy="39.61" r="14.93"/>
    <circle class="bec76731-3c7e-4d63-a5dc-b9cab387a95f" cx="416.34" cy="41.74" r="11.93"/>
    <circle class="bec76731-3c7e-4d63-a5dc-b9cab387a95f" cx="407.6" cy="56.67" r="14.93"/>
    <circle class="bec76731-3c7e-4d63-a5dc-b9cab387a95f" cx="396.75" cy="68.36" r="8.69"/>
  </g>
  <g>
    <line class="ba53abc5-7778-48fa-b255-bb6e85506a79" x1="296.4" y1="295.06" x2="296.4" y2="204.06"/>
    <path class="bed19944-cf3c-42f8-bb58-16ff1469ccad" d="M273,209.91S275.1,233.44,296.4,242"/>
    <path class="bed19944-cf3c-42f8-bb58-16ff1469ccad" d="M319.43,200.84s-2.78,27.72-23,27.72"/>
    <circle class="a6bebe24-c73e-4a85-8a35-29c398252165" cx="323.2" cy="197.24" r="18.3"/>
    <circle class="a6bebe24-c73e-4a85-8a35-29c398252165" cx="336.03" cy="147.59" r="18.3"/>
    <circle class="a6bebe24-c73e-4a85-8a35-29c398252165" cx="260.2" cy="149.4" r="21.87"/>
    <circle class="a6bebe24-c73e-4a85-8a35-29c398252165" cx="294.63" cy="202.62" r="14.26"/>
    <circle class="a6bebe24-c73e-4a85-8a35-29c398252165" cx="341.51" cy="177.32" r="23.55"/>
    <circle class="a6bebe24-c73e-4a85-8a35-29c398252165" cx="248.51" cy="177.32" r="21.07"/>
    <circle class="a6bebe24-c73e-4a85-8a35-29c398252165" cx="287.02" cy="136.81" r="31.38"/>
    <circle class="a6bebe24-c73e-4a85-8a35-29c398252165" cx="310.45" cy="141.29" r="25.08"/>
    <circle class="a6bebe24-c73e-4a85-8a35-29c398252165" cx="292.08" cy="172.67" r="31.38"/>
    <circle class="a6bebe24-c73e-4a85-8a35-29c398252165" cx="269.25" cy="197.24" r="18.26"/>
  </g>
  <g>
    <line class="bc360e97-5d56-47de-8a71-aefc7a7b8591" x1="285.27" y1="70.73" x2="285.27" y2="42.79"/>
    <path class="a40b042c-1762-4c9f-a4ff-c4ff27f5c693" d="M278.08,44.59s.64,7.23,7.19,9.86"/>
    <path class="a40b042c-1762-4c9f-a4ff-c4ff27f5c693" d="M292.34,41.81s-.86,8.51-7.07,8.51"/>
    <circle class="bec76731-3c7e-4d63-a5dc-b9cab387a95f" cx="293.5" cy="40.7" r="5.62"/>
    <circle class="bec76731-3c7e-4d63-a5dc-b9cab387a95f" cx="297.43" cy="25.45" r="5.62"/>
    <circle class="bec76731-3c7e-4d63-a5dc-b9cab387a95f" cx="274.15" cy="26.01" r="6.72"/>
    <circle class="bec76731-3c7e-4d63-a5dc-b9cab387a95f" cx="284.72" cy="42.35" r="4.38"/>
    <circle class="bec76731-3c7e-4d63-a5dc-b9cab387a95f" cx="299.11" cy="34.58" r="7.23"/>
    <circle class="bec76731-3c7e-4d63-a5dc-b9cab387a95f" cx="270.56" cy="34.58" r="6.47"/>
    <circle class="bec76731-3c7e-4d63-a5dc-b9cab387a95f" cx="282.38" cy="22.15" r="9.64"/>
    <circle class="bec76731-3c7e-4d63-a5dc-b9cab387a95f" cx="289.58" cy="23.52" r="7.7"/>
    <circle class="bec76731-3c7e-4d63-a5dc-b9cab387a95f" cx="283.94" cy="33.16" r="9.64"/>
    <circle class="bec76731-3c7e-4d63-a5dc-b9cab387a95f" cx="276.93" cy="40.7" r="5.61"/>
  </g>
  <g>
    <rect class="f007c873-1f6b-476a-b32f-f7d53ebef61c" x="22.99" y="137.55" width="216.71" height="152.28"/>
    <polygon class="a835bf29-dc8c-4e0f-92e8-14f1cc7605a9" points="230.19 67.46 214.16 67.46 214.16 31.84 185.67 31.84 185.67 67.46 131.35 67.46 32.5 67.46 6.67 133.36 131.35 133.36 256.02 133.36 230.19 67.46"/>
    <rect class="f52b788d-444f-4734-996f-c9db82a97ec2" x="46.95" y="150.88" width="26.53" height="42.76"/>
    <rect class="f52b788d-444f-4734-996f-c9db82a97ec2" x="118.08" y="150.88" width="26.53" height="42.76"/>
    <rect class="f52b788d-444f-4734-996f-c9db82a97ec2" x="186.25" y="150.88" width="26.53" height="42.76"/>
    <rect class="f52b788d-444f-4734-996f-c9db82a97ec2" x="46.95" y="226.82" width="26.53" height="42.76"/>
    <rect class="f52b788d-444f-4734-996f-c9db82a97ec2" x="186.25" y="226.82" width="26.53" height="42.76"/>
    <rect class="b58e2ecb-0315-4410-91e1-f6f3149f436d" x="118.08" y="226.82" width="26.53" height="63.01"/>
  </g>
  <g>
    <path class="a0e6e530-3729-4baf-865e-b7133f3a06a7" d="M90.19,271.45a19.23,19.23,0,0,1,1.58-3.14,4.67,4.67,0,0,0,.61-3.38,4.55,4.55,0,0,0-1.8-2.27c-2.32-1.75-5.83-2.45-8-.56S80.46,267,81,269.7s1.52,5.38.86,8-2.77,4.57-4.31,6.78a17.21,17.21,0,0,0-2.64,5.89,30.56,30.56,0,0,0-.6,7.34c.05,3.75.37,7.78,2.72,10.71,2.8,3.48,7.72,4.44,12.17,4.21a18.08,18.08,0,0,0,7.83-2A9.81,9.81,0,0,0,102,304.5a11.9,11.9,0,0,0,.06-4.25,34.24,34.24,0,0,0-6.29-15.06c-1.72-2.44-3.68-4.75-4.84-7.5s-1.41-6.11.28-8.57"/>
    <path class="a3183810-867e-422e-b316-41a3911a925a" d="M91.33,266.76c3.36-.24,7.33-.28,9.45,2l-9.89-.14,0-1.71"/>
    <circle class="a2ff0235-ddd7-4574-b174-76038347e495" cx="89.2" cy="265.22" r="0.93"/>
    <path class="b46c52ec-8106-4e6d-9fd7-3cf731129b8b" d="M84.75,311.26a132.86,132.86,0,0,0,.49,18.28"/>
    <path class="b46c52ec-8106-4e6d-9fd7-3cf731129b8b" d="M91.66,311.26a131.3,131.3,0,0,1-.49,18.28"/>
    <path class="a3183810-867e-422e-b316-41a3911a925a" d="M82.79,332.46a1.84,1.84,0,0,1,1.32-.18,1.78,1.78,0,0,1,1.08.78,1.33,1.33,0,0,1,.57-.79,1.49,1.49,0,0,1,.42-.08,6.58,6.58,0,0,1,1.09.05c-.17,0-.49-.45-.6-.58a6.24,6.24,0,0,1-.53-.71c-.33-.49-.56-1-.87-1.54a15.44,15.44,0,0,0-1.19,1.46Z"/>
    <path class="a3183810-867e-422e-b316-41a3911a925a" d="M88.79,332.29a1.79,1.79,0,0,1,2.4.6,1.33,1.33,0,0,1,.57-.79,1.2,1.2,0,0,1,.42-.08,5.65,5.65,0,0,1,1.09.05c-.17,0-.49-.45-.6-.58a6.24,6.24,0,0,1-.53-.71c-.33-.49-.56-1-.87-1.54a15.44,15.44,0,0,0-1.19,1.46Z"/>
  </g>
  <path class="ac6b4845-9f0d-4185-b215-833702f3751f" d="M277.85,277.39c.06-.61.09-1.22.09-1.84A19.35,19.35,0,0,0,245,261.73,10.65,10.65,0,0,0,229,273.56a15.77,15.77,0,0,0-11.1,15.06A15.57,15.57,0,0,0,219.2,295h67.06a12.89,12.89,0,0,0-8.41-17.6Z"/>
</svg>
