<svg class="story-screen__graphic" id="b12af748-6f25-4fb3-a75a-9438145095a8" data-name="Layer 1" xmlns="http://www.w3.org/2000/svg" xmlns:xlink="http://www.w3.org/1999/xlink" viewBox="0 0 466.69 728.31">
  <defs>
    <style>
      .a482f1ec-60b1-4f06-967d-0c5bed674070, .a9988abb-ec5b-4e2c-b01b-238602653808, .ac83c96a-d59b-4df2-b871-d561f3287464, .acea07a4-554e-4b48-bd6e-ef52b60bb7c0, .ae19ba9a-a4f5-47a0-a421-284b3a29d090, .b0c98054-f5c7-4f77-8f3b-d34ba4b7535f, .b3edd537-9909-420e-9208-546f33a0deb9, .b4c9865a-0fab-46f8-9d8a-f61d27a5c3bb, .b4cdae0e-453e-4dea-975f-2ec8795af446, .b787994f-69b8-499a-b01e-8ca2ff8f88f1, .bd0c1ec5-f978-4cb2-a398-6823aff31a4c, .e5d9cbfc-30a9-4a03-8d7c-16268e05ae1f, .e68e93c3-286c-43ee-9fea-50ecebe2bb1d, .e75daf9b-4d31-4b2e-b3a9-ba993d01f815, .eb549d63-4738-40a4-bf2c-bf6d382ea6d2, .f137a0ff-747c-4431-8eb1-a2be4b754335 {
        fill: none;
      }

      .b2ba9089-a710-43ec-a391-bfd0cc039716, .fb86315e-c1db-4dce-92e1-127ccd6fb71c {
        fill: #ede8db;
      }

      .adf53928-82f6-493f-a407-bbc5de6f3eee, .edd027d8-e7cc-4e9c-b2fe-0abf7a1f6c34 {
        fill: #3c5743;
      }

      .bedef7cd-25df-4d92-910d-f7f56423d56d {
        fill: #aeaaa1;
      }

      .af8b4c2a-b383-43a1-8520-c343cc41b749, .bd2d3481-0c8e-48c2-92b1-664e27900b60, .fc0f61cd-50fe-4a2e-b28d-03f888b52914 {
        fill: #d5a555;
      }

      .afd44be8-410b-4616-bca6-176e6d64b81a {
        fill: #062837;
      }

      .a24ba922-8175-48f9-a45f-187104acdf78, .ab28c2fd-74dd-4560-853e-175cfed09829, .ac0aa3f3-9088-4af5-8657-683e885ce4b9 {
        fill: #77a9a2;
      }

      .b5d718d8-5d0f-42fe-a98e-f2e183f0ee19 {
        fill: #5e5341;
        opacity: 0.27;
      }

      .b0c98054-f5c7-4f77-8f3b-d34ba4b7535f, .b4c9865a-0fab-46f8-9d8a-f61d27a5c3bb, .e5d9cbfc-30a9-4a03-8d7c-16268e05ae1f, .e75daf9b-4d31-4b2e-b3a9-ba993d01f815, .eb549d63-4738-40a4-bf2c-bf6d382ea6d2, .fb86315e-c1db-4dce-92e1-127ccd6fb71c {
        stroke: #ede8db;
      }

      .a482f1ec-60b1-4f06-967d-0c5bed674070, .ac0aa3f3-9088-4af5-8657-683e885ce4b9, .ac83c96a-d59b-4df2-b871-d561f3287464, .acea07a4-554e-4b48-bd6e-ef52b60bb7c0, .ae19ba9a-a4f5-47a0-a421-284b3a29d090, .af8b4c2a-b383-43a1-8520-c343cc41b749, .b0c98054-f5c7-4f77-8f3b-d34ba4b7535f, .b3edd537-9909-420e-9208-546f33a0deb9, .b4c9865a-0fab-46f8-9d8a-f61d27a5c3bb, .b4cdae0e-453e-4dea-975f-2ec8795af446, .b81c8ee6-66bc-4fff-8677-1ec915aac6a6, .bd0c1ec5-f978-4cb2-a398-6823aff31a4c, .bd2d3481-0c8e-48c2-92b1-664e27900b60, .e5d9cbfc-30a9-4a03-8d7c-16268e05ae1f, .e68e93c3-286c-43ee-9fea-50ecebe2bb1d, .e75daf9b-4d31-4b2e-b3a9-ba993d01f815, .e7c6b872-ed1c-429a-8c5b-603609f4f824, .eb549d63-4738-40a4-bf2c-bf6d382ea6d2, .f137a0ff-747c-4431-8eb1-a2be4b754335, .fb86315e-c1db-4dce-92e1-127ccd6fb71c, .fba18e4f-5ac9-4a43-8b0d-f4ddd49fd411 {
        stroke-linecap: round;
      }

      .a9988abb-ec5b-4e2c-b01b-238602653808, .ac0aa3f3-9088-4af5-8657-683e885ce4b9, .ac83c96a-d59b-4df2-b871-d561f3287464, .acea07a4-554e-4b48-bd6e-ef52b60bb7c0, .ae19ba9a-a4f5-47a0-a421-284b3a29d090, .af8b4c2a-b383-43a1-8520-c343cc41b749, .b3edd537-9909-420e-9208-546f33a0deb9, .b81c8ee6-66bc-4fff-8677-1ec915aac6a6, .bd0c1ec5-f978-4cb2-a398-6823aff31a4c, .bd2d3481-0c8e-48c2-92b1-664e27900b60, .e5d9cbfc-30a9-4a03-8d7c-16268e05ae1f, .e68e93c3-286c-43ee-9fea-50ecebe2bb1d, .e7c6b872-ed1c-429a-8c5b-603609f4f824, .eb549d63-4738-40a4-bf2c-bf6d382ea6d2, .f137a0ff-747c-4431-8eb1-a2be4b754335, .fb86315e-c1db-4dce-92e1-127ccd6fb71c, .fba18e4f-5ac9-4a43-8b0d-f4ddd49fd411 {
        stroke-linejoin: round;
      }

      .e5d9cbfc-30a9-4a03-8d7c-16268e05ae1f {
        stroke-width: 5.17px;
      }

      .a482f1ec-60b1-4f06-967d-0c5bed674070, .b0c98054-f5c7-4f77-8f3b-d34ba4b7535f, .b4c9865a-0fab-46f8-9d8a-f61d27a5c3bb, .b4cdae0e-453e-4dea-975f-2ec8795af446, .e75daf9b-4d31-4b2e-b3a9-ba993d01f815 {
        stroke-miterlimit: 10;
      }

      .b0c98054-f5c7-4f77-8f3b-d34ba4b7535f {
        stroke-width: 3.88px;
      }

      .a5404c8d-7445-4594-bb04-c2e66ae0a28e, .be8ca8bd-02a8-409b-8140-69cbc4e1c379, .e7c6b872-ed1c-429a-8c5b-603609f4f824, .ee5bf740-7192-41aa-86af-5e6fd00f59e7, .fba18e4f-5ac9-4a43-8b0d-f4ddd49fd411 {
        fill: #ea5736;
      }

      .bee66859-38ff-4db0-b4c8-e6209915c57d {
        fill: #6b3c2b;
      }

      .e75daf9b-4d31-4b2e-b3a9-ba993d01f815 {
        stroke-width: 8.23px;
      }

      .b4c9865a-0fab-46f8-9d8a-f61d27a5c3bb {
        stroke-width: 10.8px;
      }

      .a09549a0-0279-40ed-9627-c3925354c7f7 {
        fill: #ccc7bc;
      }

      .e29274b9-98bd-491a-847f-4346cebee2d3 {
        fill: #062838;
      }

      .ffa121ab-9e33-426d-9e5e-ae20a81205b6 {
        fill: #fff;
      }

      .f137a0ff-747c-4431-8eb1-a2be4b754335 {
        stroke: #ccc7bc;
        stroke-width: 0.5px;
      }

      .a24ba922-8175-48f9-a45f-187104acdf78, .a482f1ec-60b1-4f06-967d-0c5bed674070, .ab4d9b13-084a-4b5d-8e9a-3374f9e77898, .adf53928-82f6-493f-a407-bbc5de6f3eee, .b4cdae0e-453e-4dea-975f-2ec8795af446, .be8ca8bd-02a8-409b-8140-69cbc4e1c379 {
        fill-rule: evenodd;
      }

      .ef6e47f4-967b-4aeb-abbc-2bb04f4b50aa {
        fill: #1d1d1b;
      }

      .a482f1ec-60b1-4f06-967d-0c5bed674070, .ac83c96a-d59b-4df2-b871-d561f3287464, .acea07a4-554e-4b48-bd6e-ef52b60bb7c0, .b4cdae0e-453e-4dea-975f-2ec8795af446, .e68e93c3-286c-43ee-9fea-50ecebe2bb1d, .e7c6b872-ed1c-429a-8c5b-603609f4f824, .fba18e4f-5ac9-4a43-8b0d-f4ddd49fd411 {
        stroke: #ea5736;
      }

      .b4cdae0e-453e-4dea-975f-2ec8795af446 {
        stroke-width: 0.45px;
      }

      .ab4d9b13-084a-4b5d-8e9a-3374f9e77898, .e13b9701-1562-4739-9953-fad8b1794ab3 {
        fill: #002838;
      }

      .bd0c1ec5-f978-4cb2-a398-6823aff31a4c {
        stroke: #4d4d4c;
        stroke-width: 1.15px;
      }

      .e68e93c3-286c-43ee-9fea-50ecebe2bb1d {
        stroke-width: 4.03px;
      }

      .af8b4c2a-b383-43a1-8520-c343cc41b749, .bd2d3481-0c8e-48c2-92b1-664e27900b60 {
        stroke: #d5a555;
      }

      .bd2d3481-0c8e-48c2-92b1-664e27900b60 {
        stroke-width: 2.96px;
      }

      .af8b4c2a-b383-43a1-8520-c343cc41b749, .b81c8ee6-66bc-4fff-8677-1ec915aac6a6, .e7c6b872-ed1c-429a-8c5b-603609f4f824 {
        stroke-width: 1.48px;
      }

      .b81c8ee6-66bc-4fff-8677-1ec915aac6a6 {
        fill: #867f72;
        stroke: #867f72;
      }

      .ac0aa3f3-9088-4af5-8657-683e885ce4b9, .ae19ba9a-a4f5-47a0-a421-284b3a29d090, .fb86315e-c1db-4dce-92e1-127ccd6fb71c, .fba18e4f-5ac9-4a43-8b0d-f4ddd49fd411 {
        stroke-width: 0.99px;
      }

      .ac0aa3f3-9088-4af5-8657-683e885ce4b9, .ae19ba9a-a4f5-47a0-a421-284b3a29d090 {
        stroke: #77a9a2;
      }

      .a482f1ec-60b1-4f06-967d-0c5bed674070 {
        stroke-width: 0.41px;
      }

      .f78db2bb-f746-488e-9625-6c3cdb553605 {
        opacity: 0.8;
      }

      .abbbfe73-1bfb-4ece-807a-0fc864f06439 {
        fill: #feefe9;
      }

      .e0be19d0-04f9-416a-a423-3588641be1e9 {
        fill: #fde7dc;
      }

      .a89b709f-cffe-4090-92a5-39a6f4f44081 {
        fill: #fde5d9;
      }

      .e54a480f-aad7-4f70-bede-15ef9f5b10bd {
        fill: #fef1ea;
      }

      .aaaf820d-d5f3-4acb-bcc7-130000054387 {
        fill: #fcdacb;
      }

      .ab9bdd73-af9e-4c74-b5d8-f897b9c8fc49 {
        fill: #fbd7c7;
      }

      .bc8f7811-3816-438a-8955-a50ca23e8717 {
        fill: #4e4d4c;
      }

      .a5404c8d-7445-4594-bb04-c2e66ae0a28e {
        opacity: 0.51;
      }

      .acea07a4-554e-4b48-bd6e-ef52b60bb7c0 {
        stroke-width: 9.85px;
      }

      .ac83c96a-d59b-4df2-b871-d561f3287464 {
        stroke-width: 4.92px;
      }

      .b3edd537-9909-420e-9208-546f33a0deb9 {
        stroke: #30383b;
      }

      .b3edd537-9909-420e-9208-546f33a0deb9, .eb549d63-4738-40a4-bf2c-bf6d382ea6d2 {
        stroke-width: 1.64px;
      }

      .a2247adb-c4f4-42f8-bc4a-9b83f91959db {
        clip-path: url(#ff67950e-0404-431e-b22e-f60967efe66e);
      }

      .b56a5433-9053-47ec-8ede-b70dd86dfeae {
        fill: #2e2d2c;
      }

      .a9988abb-ec5b-4e2c-b01b-238602653808 {
        stroke: #062837;
        stroke-width: 10.11px;
      }
    </style>
    <clipPath id="ff67950e-0404-431e-b22e-f60967efe66e">
      <rect class="b787994f-69b8-499a-b01e-8ca2ff8f88f1" x="213.7" y="356.59" width="5.14" height="2.77" rx="0.78" transform="translate(-13.86 8.75) rotate(-2.25)"/>
    </clipPath>
  </defs>
  <rect class="b2ba9089-a710-43ec-a391-bfd0cc039716" y="-1801.53" width="465.11" height="2577.43"/>
  <rect class="edd027d8-e7cc-4e9c-b2fe-0abf7a1f6c34" x="91" y="40.51" width="359.84" height="303.05"/>
  <polygon class="edd027d8-e7cc-4e9c-b2fe-0abf7a1f6c34" points="407.73 242.32 465.96 127.86 466.75 729.36 211.38 729.36 407.73 242.32"/>
  <path class="bedef7cd-25df-4d92-910d-f7f56423d56d" d="M313.21,742.38C422,511.58,500,254.06,517.54-2.11L435.63-.88C414.58,255,272.75,511.58,158.25,741Z"/>
  <rect class="fc0f61cd-50fe-4a2e-b28d-03f888b52914" y="120.34" width="196.54" height="454.03"/>
  <polygon class="afd44be8-410b-4616-bca6-176e6d64b81a" points="0 120.2 207.31 120.57 0.73 -61.02 0 120.2"/>
  <g>
    <rect class="ab28c2fd-74dd-4560-853e-175cfed09829" x="59.28" y="265.17" width="99.36" height="103.59"/>
    <g>
      <circle class="b787994f-69b8-499a-b01e-8ca2ff8f88f1" cx="132.04" cy="291.54" r="1.33"/>
      <path class="b787994f-69b8-499a-b01e-8ca2ff8f88f1" d="M110,317a.92.92,0,1,0,.92.92A.92.92,0,0,0,110,317Z"/>
      <path class="b787994f-69b8-499a-b01e-8ca2ff8f88f1" d="M77.68,274.41a.92.92,0,1,0,0,1.83.92.92,0,0,0,0-1.83Z"/>
      <path class="b787994f-69b8-499a-b01e-8ca2ff8f88f1" d="M85.65,337.49a.92.92,0,1,0,.91.92A.92.92,0,0,0,85.65,337.49Z"/>
      <circle class="b787994f-69b8-499a-b01e-8ca2ff8f88f1" cx="140.6" cy="349.49" r="0.91"/>
      <path class="b5d718d8-5d0f-42fe-a98e-f2e183f0ee19" d="M60,266.1V369.7h99.36V266.1Zm17.73,10.14a.92.92,0,1,1,.91-.91A.91.91,0,0,1,77.68,276.24Zm8,63.08a.92.92,0,1,1,.91-.91A.92.92,0,0,1,85.65,339.32Zm1-41.47-.91-.91,4.33-4.33.91.91Zm9.6,54.9-1.12-.63,2.8-4.95,1.12.63ZM110,318.87a.92.92,0,1,1,.92-.91A.91.91,0,0,1,110,318.87Zm22.07-26a1.34,1.34,0,1,1,1.33-1.34A1.33,1.33,0,0,1,132,292.88Zm8.56,57.53a.92.92,0,1,1,.91-.92A.92.92,0,0,1,140.6,350.41Zm10-50.05-2.15-7.3,1.24-.37,2.15,7.3Z"/>
    </g>
    <rect class="e5d9cbfc-30a9-4a03-8d7c-16268e05ae1f" x="59.28" y="265.17" width="99.36" height="103.59"/>
    <line class="b0c98054-f5c7-4f77-8f3b-d34ba4b7535f" x1="59.28" y1="316.96" x2="158.64" y2="316.96"/>
    <line class="b0c98054-f5c7-4f77-8f3b-d34ba4b7535f" x1="108.96" y1="265.17" x2="108.96" y2="368.76"/>
  </g>
  <rect class="ee5bf740-7192-41aa-86af-5e6fd00f59e7" y="340.52" width="27.12" height="233.85"/>
  <g>
    <rect class="ab28c2fd-74dd-4560-853e-175cfed09829" x="58.95" y="141.54" width="99.36" height="103.59"/>
    <g>
      <circle class="b787994f-69b8-499a-b01e-8ca2ff8f88f1" cx="131.7" cy="167.92" r="1.33"/>
      <path class="b787994f-69b8-499a-b01e-8ca2ff8f88f1" d="M109.64,193.41a.92.92,0,1,0,.91.92A.92.92,0,0,0,109.64,193.41Z"/>
      <path class="b787994f-69b8-499a-b01e-8ca2ff8f88f1" d="M77.35,150.79a.92.92,0,1,0,.91.91A.92.92,0,0,0,77.35,150.79Z"/>
      <path class="b787994f-69b8-499a-b01e-8ca2ff8f88f1" d="M85.31,213.86a.92.92,0,1,0,.92.92A.92.92,0,0,0,85.31,213.86Z"/>
      <circle class="b787994f-69b8-499a-b01e-8ca2ff8f88f1" cx="140.26" cy="225.87" r="0.91"/>
      <path class="b5d718d8-5d0f-42fe-a98e-f2e183f0ee19" d="M59.62,142.47v103.6H159V142.47Zm17.73,10.15a.92.92,0,1,1,.91-.92A.92.92,0,0,1,77.35,152.62Zm8,63.07a.92.92,0,1,1,.92-.91A.91.91,0,0,1,85.31,215.69Zm1-41.47-.91-.91L89.74,169l.92.91Zm9.61,54.91-1.13-.64,2.8-5,1.13.63Zm13.71-33.89a.92.92,0,1,1,.91-.91A.92.92,0,0,1,109.64,195.24Zm22.06-26a1.34,1.34,0,1,1,1.33-1.33A1.34,1.34,0,0,1,131.7,169.25Zm8.56,57.53a.92.92,0,1,1,.92-.91A.91.91,0,0,1,140.26,226.78Zm10-50.05-2.15-7.3,1.23-.37,2.16,7.31Z"/>
    </g>
    <rect class="e5d9cbfc-30a9-4a03-8d7c-16268e05ae1f" x="58.95" y="141.54" width="99.36" height="103.59"/>
    <line class="b0c98054-f5c7-4f77-8f3b-d34ba4b7535f" x1="58.95" y1="193.33" x2="158.31" y2="193.33"/>
    <line class="b0c98054-f5c7-4f77-8f3b-d34ba4b7535f" x1="108.63" y1="141.54" x2="108.63" y2="245.13"/>
  </g>
  <g>
    <rect class="bee66859-38ff-4db0-b4c8-e6209915c57d" x="403.15" y="597.56" width="13.08" height="5.86" rx="2.93"/>
    <rect class="bee66859-38ff-4db0-b4c8-e6209915c57d" x="406.76" y="593.56" width="5.86" height="5.86" rx="2.93"/>
    <rect class="b2ba9089-a710-43ec-a391-bfd0cc039716" x="346.5" y="591.85" width="12.34" height="8.57" rx="4.28"/>
    <rect class="b2ba9089-a710-43ec-a391-bfd0cc039716" x="386.34" y="594.53" width="13.63" height="9.47" rx="4.28"/>
    <g>
      <g class="text-cta text-cta--5" tabindex="0">
        <path class="b787994f-69b8-499a-b01e-8ca2ff8f88f1" d="M361.68,588.76l7.59,2.94"/>
        <path class="b2ba9089-a710-43ec-a391-bfd0cc039716" d="M403,590.12a42.16,42.16,0,0,0-3.73-32.77,45.16,45.16,0,0,0-59.91-17.89,42.14,42.14,0,0,0-21.09,25.36l42.36,12.65Z"/>
        <path class="b2ba9089-a710-43ec-a391-bfd0cc039716" d="M403,590.08c1.36-4.58-9.38-11.83-24-16.2s-39.5-6.35-37.81-2.26c1.27,3.07,18.24,14.49,32.86,18.85S401.67,594.66,403,590.08Z"/>
        <ellipse class="b2ba9089-a710-43ec-a391-bfd0cc039716" cx="331.79" cy="556.68" rx="19.04" ry="15.89" transform="matrix(0.29, -0.96, 0.96, 0.29, -296.56, 715.3)"/>
        <line class="e75daf9b-4d31-4b2e-b3a9-ba993d01f815" x1="354.66" y1="569.03" x2="354.66" y2="595.96"/>
        <line class="b4c9865a-0fab-46f8-9d8a-f61d27a5c3bb" x1="394.5" y1="572.81" x2="394.5" y2="598.63"/>
        <ellipse class="a09549a0-0279-40ed-9627-c3925354c7f7" cx="319.74" cy="547.43" rx="11.81" ry="5.13" transform="translate(-302.75 427.35) rotate(-48.79)"/>
        <ellipse class="a09549a0-0279-40ed-9627-c3925354c7f7" cx="343.01" cy="549.13" rx="5.13" ry="11.81" transform="translate(-197.92 193.33) rotate(-24.67)"/>
        <ellipse class="e29274b9-98bd-491a-847f-4346cebee2d3" cx="329.42" cy="573.17" rx="6.75" ry="4.15"/>
        <rect class="ffa121ab-9e33-426d-9e5e-ae20a81205b6" x="318.02" y="554.94" width="9.3" height="3.42" rx="1.71"/>
        <rect class="ffa121ab-9e33-426d-9e5e-ae20a81205b6" x="330.37" y="554.94" width="9.3" height="3.42" rx="1.71"/>
        <circle class="e29274b9-98bd-491a-847f-4346cebee2d3" cx="322.67" cy="556.66" r="1.42"/>
        <circle class="e29274b9-98bd-491a-847f-4346cebee2d3" cx="335.02" cy="556.66" r="1.42"/>
        <path class="e75daf9b-4d31-4b2e-b3a9-ba993d01f815" d="M401.32,581.09a37.4,37.4,0,0,0,18.94-4.75A59.69,59.69,0,0,0,435.6,564"/>
      </g>
      <path class="f137a0ff-747c-4431-8eb1-a2be4b754335" d="M315.43,569.15a13.84,13.84,0,0,1,10.79-.22"/>
      <path class="f137a0ff-747c-4431-8eb1-a2be4b754335" d="M344.46,569.63a13.84,13.84,0,0,0-10.79-.22"/>
      <path class="f137a0ff-747c-4431-8eb1-a2be4b754335" d="M324.38,569.8a13.94,13.94,0,0,0-10.49,2.57"/>
      <path class="f137a0ff-747c-4431-8eb1-a2be4b754335" d="M335.42,570.27a13.84,13.84,0,0,1,10.49,2.57"/>
      <path class="f137a0ff-747c-4431-8eb1-a2be4b754335" d="M323.32,570.64a13.85,13.85,0,0,0-9.86,4.41"/>
      <path class="f137a0ff-747c-4431-8eb1-a2be4b754335" d="M336.16,571.47a13.82,13.82,0,0,1,10,4.12"/>
    </g>
  </g>
  <g>
    <path class="ffa121ab-9e33-426d-9e5e-ae20a81205b6" d="M140.14,63.7a17.26,17.26,0,0,1,1.45-2.88,4.32,4.32,0,0,0,.56-3.1,4.21,4.21,0,0,0-1.65-2.08c-2.13-1.6-5.35-2.25-7.38-.52s-1.91,4.54-1.41,7,1.39,4.94.79,7.35-2.54,4.2-3.95,6.23a15.87,15.87,0,0,0-2.43,5.4,27.66,27.66,0,0,0-.54,6.74c0,3.44.33,7.14,2.49,9.83,2.57,3.19,7.08,4.07,11.17,3.86a16.46,16.46,0,0,0,7.18-1.82A9,9,0,0,0,151,94a11.1,11.1,0,0,0,.06-3.9,31.59,31.59,0,0,0-5.78-13.82c-1.57-2.23-3.37-4.36-4.44-6.88s-1.29-5.6.26-7.86"/>
    <path class="be8ca8bd-02a8-409b-8140-69cbc4e1c379" d="M141.18,59.4c3.09-.22,6.73-.25,8.68,1.84l-9.09-.12,0-1.57"/>
    <circle class="ef6e47f4-967b-4aeb-abbc-2bb04f4b50aa" cx="139.22" cy="57.99" r="0.85"/>
    <path class="b4cdae0e-453e-4dea-975f-2ec8795af446" d="M135.14,100.23A122.13,122.13,0,0,0,135.6,117"/>
    <path class="b4cdae0e-453e-4dea-975f-2ec8795af446" d="M141.49,100.23A122.13,122.13,0,0,1,141,117"/>
    <path class="be8ca8bd-02a8-409b-8140-69cbc4e1c379" d="M133.35,119.69a1.63,1.63,0,0,1,2.2.55,1.15,1.15,0,0,1,.52-.72,1,1,0,0,1,.39-.08,5.59,5.59,0,0,1,1,0c-.16,0-.45-.42-.55-.54a6,6,0,0,1-.49-.64c-.3-.46-.52-1-.8-1.42a11.8,11.8,0,0,0-1.09,1.34Z"/>
    <path class="be8ca8bd-02a8-409b-8140-69cbc4e1c379" d="M138.85,119.53a1.66,1.66,0,0,1,1.21-.17,1.7,1.7,0,0,1,1,.72,1.18,1.18,0,0,1,.52-.72.83.83,0,0,1,.38-.07,4.76,4.76,0,0,1,1,0c-.16,0-.45-.42-.55-.53a7.24,7.24,0,0,1-.48-.65c-.3-.46-.52-1-.81-1.42a12.91,12.91,0,0,0-1.08,1.34Z"/>
  </g>
  <path class="b787994f-69b8-499a-b01e-8ca2ff8f88f1" d="M123.39,516.85l.71,34.6"/>
  <path class="adf53928-82f6-493f-a407-bbc5de6f3eee" d="M113.86,561.09c0-.46.07-.92.07-1.38A14.61,14.61,0,0,0,89.1,549.27,8.06,8.06,0,0,0,76.65,556,7.8,7.8,0,0,0,77,558.2a11.91,11.91,0,0,0-7.36,16.17h50.61a9.74,9.74,0,0,0-6.35-13.28Z"/>
  <path class="a24ba922-8175-48f9-a45f-187104acdf78" d="M74.54,563.52c0-.45.07-.91.07-1.38a14.6,14.6,0,0,0-24.83-10.43,8,8,0,0,0-12.45,6.75,8.2,8.2,0,0,0,.31,2.18,11.91,11.91,0,0,0-7.36,16.17H80.89a9.75,9.75,0,0,0-6.35-13.29Z"/>
  <path class="a24ba922-8175-48f9-a45f-187104acdf78" d="M160.23,561.09a12.75,12.75,0,0,0,.07-1.38,14.61,14.61,0,0,0-24.83-10.44A8.06,8.06,0,0,0,123,556a8.18,8.18,0,0,0,.31,2.17A11.91,11.91,0,0,0,116,574.37h50.61a9.74,9.74,0,0,0-6.35-13.28Z"/>
  <path class="adf53928-82f6-493f-a407-bbc5de6f3eee" d="M193.09,563.52c0-.45.07-.91.07-1.38a14.6,14.6,0,0,0-24.83-10.43,8,8,0,0,0-12.45,6.75,7.81,7.81,0,0,0,.31,2.18,11.88,11.88,0,0,0-7.36,16.17h50.61a9.75,9.75,0,0,0-6.35-13.29Z"/>
  <rect class="e13b9701-1562-4739-9953-fad8b1794ab3" x="252.83" y="95.77" width="17.16" height="5.77" rx="2.88"/>
  <g>
    <line class="bd0c1ec5-f978-4cb2-a398-6823aff31a4c" x1="316.68" y1="18.49" x2="316.68" y2="84.95"/>
    <line class="bd0c1ec5-f978-4cb2-a398-6823aff31a4c" x1="330.98" y1="18.49" x2="330.98" y2="84.95"/>
    <line class="bd0c1ec5-f978-4cb2-a398-6823aff31a4c" x1="357.84" y1="18.49" x2="357.84" y2="84.95"/>
    <line class="bd0c1ec5-f978-4cb2-a398-6823aff31a4c" x1="372.14" y1="18.49" x2="372.14" y2="84.95"/>
    <polyline class="e68e93c3-286c-43ee-9fea-50ecebe2bb1d" points="276.76 102.06 294.61 18.49 349.41 18.49"/>
    <polyline class="e68e93c3-286c-43ee-9fea-50ecebe2bb1d" points="413.89 102.06 396.04 18.49 341.24 18.49"/>
    <line class="e68e93c3-286c-43ee-9fea-50ecebe2bb1d" x1="313.7" y1="102.06" x2="295.85" y2="18.49"/>
    <line class="e68e93c3-286c-43ee-9fea-50ecebe2bb1d" x1="377.32" y1="102.06" x2="395.17" y2="18.49"/>
    <rect class="e13b9701-1562-4739-9953-fad8b1794ab3" x="315.84" y="81.64" width="15.98" height="5.37" rx="2.69"/>
    <rect class="e13b9701-1562-4739-9953-fad8b1794ab3" x="357.13" y="81.64" width="15.98" height="5.37" rx="2.69"/>
  </g>
  <g>
    <line class="bd2d3481-0c8e-48c2-92b1-664e27900b60" x1="254.88" y1="188.69" x2="254.88" y2="215.3"/>
    <line class="bd2d3481-0c8e-48c2-92b1-664e27900b60" x1="232.07" y1="188.69" x2="232.07" y2="215.3"/>
    <line class="bd2d3481-0c8e-48c2-92b1-664e27900b60" x1="229.13" y1="177.21" x2="230.88" y2="187.54"/>
    <rect class="af8b4c2a-b383-43a1-8520-c343cc41b749" x="229.46" y="187.54" width="28.19" height="3.02" transform="translate(487.11 378.11) rotate(-180)"/>
    <rect class="af8b4c2a-b383-43a1-8520-c343cc41b749" x="218.01" y="166.3" width="18.92" height="3.02" transform="translate(101.13 420.68) rotate(-99.87)"/>
  </g>
  <g>
    <line class="bd2d3481-0c8e-48c2-92b1-664e27900b60" x1="296.7" y1="188.69" x2="296.7" y2="215.3"/>
    <line class="bd2d3481-0c8e-48c2-92b1-664e27900b60" x1="319.51" y1="188.69" x2="319.51" y2="215.3"/>
    <line class="bd2d3481-0c8e-48c2-92b1-664e27900b60" x1="322.45" y1="177.21" x2="320.69" y2="187.54"/>
    <rect class="af8b4c2a-b383-43a1-8520-c343cc41b749" x="293.92" y="187.54" width="28.19" height="3.02"/>
    <rect class="af8b4c2a-b383-43a1-8520-c343cc41b749" x="314.64" y="166.3" width="18.92" height="3.02" transform="translate(103.22 458.36) rotate(-80.13)"/>
  </g>
  <rect class="b81c8ee6-66bc-4fff-8677-1ec915aac6a6" x="244.28" y="172.64" width="4.1" height="43.52"/>
  <rect class="b81c8ee6-66bc-4fff-8677-1ec915aac6a6" x="302.82" y="172.64" width="4.1" height="43.52"/>
  <line class="bd2d3481-0c8e-48c2-92b1-664e27900b60" x1="274.97" y1="103.37" x2="274.97" y2="216.16"/>
  <g>
    <path class="e7c6b872-ed1c-429a-8c5b-603609f4f824" d="M227.72,126h94.5c-5-18.85-24.27-32.88-47.25-32.88S232.76,107.14,227.72,126Z"/>
    <path class="b2ba9089-a710-43ec-a391-bfd0cc039716" d="M275,92.44s-9.27,20.22-9.27,34.21H275Z"/>
    <path class="b2ba9089-a710-43ec-a391-bfd0cc039716" d="M275,92.44s9.27,20.22,9.27,34.21H275Z"/>
    <path class="b2ba9089-a710-43ec-a391-bfd0cc039716" d="M275,92.44s-23,15-23,34.21H238.57S241.77,103.33,275,92.44Z"/>
    <path class="b2ba9089-a710-43ec-a391-bfd0cc039716" d="M275,92.44s23,15,23,34.21h13.37S308.18,103.33,275,92.44Z"/>
  </g>
  <rect class="af8b4c2a-b383-43a1-8520-c343cc41b749" x="240.44" y="169.61" width="69.07" height="6.05"/>
  <rect class="fb86315e-c1db-4dce-92e1-127ccd6fb71c" x="297.35" y="157.98" width="5.9" height="10.66"/>
  <rect class="fba18e4f-5ac9-4a43-8b0d-f4ddd49fd411" x="298.14" y="159.84" width="4.32" height="7.66"/>
  <rect class="fb86315e-c1db-4dce-92e1-127ccd6fb71c" x="246.8" y="157.98" width="5.9" height="10.66"/>
  <rect class="fba18e4f-5ac9-4a43-8b0d-f4ddd49fd411" x="247.59" y="161.73" width="4.32" height="5.77"/>
  <rect class="ac0aa3f3-9088-4af5-8657-683e885ce4b9" x="283.74" y="151.47" width="8.68" height="17.17"/>
  <polyline class="ae19ba9a-a4f5-47a0-a421-284b3a29d090" points="284.24 152.76 280.17 152.76 280.17 159.14 283.85 162.81"/>
  <polyline class="ac0aa3f3-9088-4af5-8657-683e885ce4b9" points="291.8 151.47 295.26 151.47 292.2 154.53"/>
  <rect class="fba18e4f-5ac9-4a43-8b0d-f4ddd49fd411" x="284.64" y="161.45" width="6.88" height="6.05"/>
  <g>
    <path class="ffa121ab-9e33-426d-9e5e-ae20a81205b6" d="M179.8,68.51a17,17,0,0,0-1.32-2.63,3.23,3.23,0,0,1,1-4.73c1.95-1.46,4.88-2,6.73-.46s1.75,4.13,1.29,6.36-1.27,4.5-.72,6.71,2.31,3.82,3.61,5.68a14.54,14.54,0,0,1,2.21,4.93,25.23,25.23,0,0,1,.49,6.14c0,3.14-.3,6.52-2.27,9-2.34,2.91-6.46,3.71-10.19,3.52a15,15,0,0,1-6.56-1.66,8.21,8.21,0,0,1-4.14-5.16,10.38,10.38,0,0,1,0-3.56A28.79,28.79,0,0,1,175.14,80a34.83,34.83,0,0,0,4.05-6.28c1-2.3,1.18-5.12-.23-7.18"/>
    <path class="be8ca8bd-02a8-409b-8140-69cbc4e1c379" d="M178.85,64.59c-2.82-.2-6.14-.23-7.92,1.68l8.29-.12,0-1.43"/>
    <circle class="ef6e47f4-967b-4aeb-abbc-2bb04f4b50aa" cx="180.64" cy="63.3" r="0.78"/>
    <path class="a482f1ec-60b1-4f06-967d-0c5bed674070" d="M184.36,101.83a111.79,111.79,0,0,1-.42,15.31"/>
    <path class="a482f1ec-60b1-4f06-967d-0c5bed674070" d="M178.57,101.83a110.21,110.21,0,0,0,.41,15.31"/>
    <path class="be8ca8bd-02a8-409b-8140-69cbc4e1c379" d="M186,119.58a1.56,1.56,0,0,0-1.1-.15,1.49,1.49,0,0,0-.9.65,1.15,1.15,0,0,0-.48-.65,1,1,0,0,0-.35-.07,5.5,5.5,0,0,0-.91,0c.14,0,.4-.38.5-.49a4.31,4.31,0,0,0,.44-.59c.27-.41.47-.87.73-1.29a11.71,11.71,0,0,1,1,1.22Z"/>
    <path class="be8ca8bd-02a8-409b-8140-69cbc4e1c379" d="M181,119.44a1.51,1.51,0,0,0-1.1-.15,1.54,1.54,0,0,0-.91.65,1.06,1.06,0,0,0-.47-.65.89.89,0,0,0-.36-.07,4.63,4.63,0,0,0-.91,0c.15,0,.41-.38.5-.49a4.37,4.37,0,0,0,.45-.59c.27-.41.47-.87.73-1.29a11.71,11.71,0,0,1,1,1.22Z"/>
  </g>
  <g class="f78db2bb-f746-488e-9625-6c3cdb553605">
    <g class="f78db2bb-f746-488e-9625-6c3cdb553605">
      <path class="abbbfe73-1bfb-4ece-807a-0fc864f06439" d="M122.35,390.17a25.27,25.27,0,0,1,7.3,6.76,27.6,27.6,0,0,1,4.22,8.91,47.69,47.69,0,0,1,.89,18,35.92,35.92,0,0,1-.75,3.83c.32-.6.55-1.22.82-1.83a32.31,32.31,0,0,0,.41-23.06,28.25,28.25,0,0,0-6.75-10.31A30.81,30.81,0,0,0,118.4,386a31.72,31.72,0,0,0-7-1.68,46.88,46.88,0,0,0-7.09-.33c-4.7.1-9.33.72-14.08,1.07A1.1,1.1,0,0,0,89,386.2a19.82,19.82,0,0,1,2.6,1.16,94.51,94.51,0,0,1,11.61-1.14,34.76,34.76,0,0,1,11.91,1.65C117.69,388.75,120.91,389.19,122.35,390.17Z"/>
      <path class="e0be19d0-04f9-416a-a423-3588641be1e9" d="M91.32,387.3l.15.08,1.16-.16Z"/>
      <path class="a89b709f-cffe-4090-92a5-39a6f4f44081" d="M110.44,386.5a24.21,24.21,0,0,1,7.65,2.21,14.84,14.84,0,0,1,4.26,1.46,25.27,25.27,0,0,1,7.3,6.76,27.6,27.6,0,0,1,4.22,8.91,47.69,47.69,0,0,1,.89,18,34.52,34.52,0,0,1-.74,3.78c.33-.64.59-1.3.88-2a32.28,32.28,0,0,0,2-15.82c-.08-.29-.15-.59-.24-.86-1-2.93-1.33-5.81-2.66-8.6a33.36,33.36,0,0,0-7.7-9.4,28.8,28.8,0,0,0-10.5-5.65,20.22,20.22,0,0,0-4.54-.72c-1.57-.12-3.18-.17-4.84-.35l-3.31-.27c-4.37.18-8.68.74-13.1,1.07a1.11,1.11,0,0,0-1.17,1.13c.52.18,1,.38,1.44.58,3.57-.2,7.16-.54,10.86-.5a41.62,41.62,0,0,1,9.75.47A4.3,4.3,0,0,0,110.44,386.5Z"/>
      <path class="e0be19d0-04f9-416a-a423-3588641be1e9" d="M110.55,387.59c.44.1,1.11-.28.36-.82a41.62,41.62,0,0,0-9.75-.47A33.75,33.75,0,0,1,110.55,387.59Z"/>
      <path class="e54a480f-aad7-4f70-bede-15ef9f5b10bd" d="M109.62,389.85a43.74,43.74,0,0,1,8.11,2.61,16.55,16.55,0,0,1,6.16,4.52,13.66,13.66,0,0,1,3,6.27,16.55,16.55,0,0,1,1,2,26.23,26.23,0,0,1,2,13.79,24.83,24.83,0,0,1-1.79,6.79,23.74,23.74,0,0,1-3.74,6,74.6,74.6,0,0,1-5.25,5.5,51.39,51.39,0,0,1-5.69,4.82,19.69,19.69,0,0,1-3,1.82c-.52.24-1,.54-1.55.74l-1.61.6a23.28,23.28,0,0,1-6.72,1.1,38.36,38.36,0,0,1-6.78-.53A37.25,37.25,0,0,1,87.12,444a34.28,34.28,0,0,1-6.32-3.23c-1-.61-2-1.41-3-2.14S75.89,437,75,436.05a21.21,21.21,0,0,1-4.27-7.18,21.51,21.51,0,0,1-1.23-7.78,38.13,38.13,0,0,1,1.91-9.89,99.55,99.55,0,0,1,3.63-9.77c1.41-3.11,3.12-6,5.85-8.11a21.64,21.64,0,0,1,10.3-3.78c4.22-.54,4.69-3.25,3.63-3.24a53.67,53.67,0,0,0-10.28,1.59,22.51,22.51,0,0,0-5,2.1,19.07,19.07,0,0,0-4.3,3.41A34.3,34.3,0,0,0,69.53,402a62.65,62.65,0,0,0-3.75,9.31,28.85,28.85,0,0,0-1.29,10.31,26.48,26.48,0,0,0,2.88,10.09,34.52,34.52,0,0,0,6.06,8.4,37.06,37.06,0,0,0,23.29,11.32,14.37,14.37,0,0,0,2,.1c.67,0,1.33,0,2,0a32.17,32.17,0,0,0,3.93-.46,29.72,29.72,0,0,0,3.83-.94c.62-.2,1.23-.47,1.84-.7l.92-.35.88-.44c4.77-2.28,8.56-5.76,12.18-9a65.62,65.62,0,0,0,5.34-5.34,30,30,0,0,0,4.42-6.6,35.92,35.92,0,0,0,.75-3.83,47.69,47.69,0,0,0-.89-18,27.6,27.6,0,0,0-4.22-8.91,25.27,25.27,0,0,0-7.3-6.76c-1.44-1-4.66-1.42-7.19-2.3a34.76,34.76,0,0,0-11.91-1.65,94.51,94.51,0,0,0-11.61,1.14,49.28,49.28,0,0,0,4.57,2.41C100.76,389.07,105.4,388.74,109.62,389.85Z"/>
      <path class="aaaf820d-d5f3-4acb-bcc7-130000054387" d="M109.62,389.85c-4.22-1.11-8.86-.78-13.41-.08a11.79,11.79,0,0,0,2.61.73c5.53.56,11.05,1.08,16,3a23,23,0,0,1,12,9.74,13.66,13.66,0,0,0-3-6.27,16.55,16.55,0,0,0-6.16-4.52A43.74,43.74,0,0,0,109.62,389.85Z"/>
      <path class="a89b709f-cffe-4090-92a5-39a6f4f44081" d="M109.62,389.85c-4-1.06-8.44-.81-12.79-.17,1.49.07,3,.1,4.46.14a41,41,0,0,1,10.93,1.48,22.14,22.14,0,0,1,9.08,5.17,25.94,25.94,0,0,0-9.93-4.88,40,40,0,0,0-11.6-1c5.37.53,10.7,1.08,15.5,3.05a22.87,22.87,0,0,1,11.6,9.56,13.85,13.85,0,0,0-3-6.25,16.55,16.55,0,0,0-6.16-4.52A43.74,43.74,0,0,0,109.62,389.85Z"/>
      <path class="ab9bdd73-af9e-4c74-b5d8-f897b9c8fc49" d="M120.81,393.91a28,28,0,0,0-12.44-5.06,49.07,49.07,0,0,0-14,.14,14.07,14.07,0,0,0,1.29.64l1.17.05c4.35-.64,8.77-.89,12.79.17a43.74,43.74,0,0,1,8.11,2.61,16.55,16.55,0,0,1,6.16,4.52,13.85,13.85,0,0,1,3,6.25,16.76,16.76,0,0,1,.92,1.85,26,26,0,0,1,2.07,14.08,23.3,23.3,0,0,1-5.81,13,48.29,48.29,0,0,1-4.45,5.3,42.35,42.35,0,0,1-5.21,4.76,27.38,27.38,0,0,1-2.87,1.9,23.3,23.3,0,0,1-3.06,1.38,20.41,20.41,0,0,1-6.47,1.3,9.77,9.77,0,0,0,1.52-.22c.5-.1,1-.17,1.51-.3a21,21,0,0,0,2.9-1c.47-.21,1-.38,1.41-.61l1.34-.75a18.93,18.93,0,0,0,2.6-1.73,19.39,19.39,0,0,1-3,1.75c-.51.24-1,.54-1.52.73l-1.57.58a23,23,0,0,1-6.57,1.09,35.21,35.21,0,0,1-11.41-1.62,4.14,4.14,0,0,1-1.82.14,9.48,9.48,0,0,1-1.23-.22,14.6,14.6,0,0,1-1.43-.57c-3.24-1.53-6-3.76-8.93-6-.34-.39.08-.64-.56-1.41a14.4,14.4,0,0,0,5.69,4.2,33.87,33.87,0,0,1-3-2.13c-.48-.39-.94-.82-1.42-1.24s-1-.84-1.41-1.3a21.33,21.33,0,0,1-5.38-11.53c-.14-.42-.24-.85-.34-1.29a30,30,0,0,1-.78-6.76,22.43,22.43,0,0,0-.3,2.89,12.45,12.45,0,0,1,.38-5c0,.7-.08,1.4-.08,2.09a33.42,33.42,0,0,1,1.93-6.71,20.75,20.75,0,0,0-1.45,8.32,33.72,33.72,0,0,1,5.08-14.9c0,.13-.07.27-.1.41,1.43-3.56,3.05-7,5.82-9.58s6.81-4,11.13-4.59,4.7-3.25,3.63-3.25a70,70,0,0,0-7.16.89,25.94,25.94,0,0,0-7.15,2.34,19.59,19.59,0,0,0-5.93,4.76,33.5,33.5,0,0,0-4,6c-1.11,2.09-2.06,4.18-3,6.33a45.46,45.46,0,0,0-2.22,6.74,28.15,28.15,0,0,0-.8,7.25,25.22,25.22,0,0,0,1.32,7.26,26.57,26.57,0,0,1-.22-6.66,10.73,10.73,0,0,1,.42-2.67,23.92,23.92,0,0,0-.42,2.67,27,27,0,0,0,1.39,8.07,3.68,3.68,0,0,0,1.45,2.44,21.31,21.31,0,0,0,3.07,5.16c1.24,1.65,2.68,3.11,3.86,4.59a4.25,4.25,0,0,1,.55.95c.46.39.91.8,1.38,1.17l1.46,1.08c1,.75,2,1.32,3,2a35.53,35.53,0,0,0,19.13,4.87,30.55,30.55,0,0,0,17.88-7.15,33.07,33.07,0,0,1-3.9,2.29,29,29,0,0,1-4,1.53c-1.84.35-4.43,1.42-7.58,1.95a29.37,29.37,0,0,1-10,.08,5.45,5.45,0,0,1-2-.65c-.59-.29-1.18-.57-1.92-.88,2.9.23,6,.8,9.24.93a23.56,23.56,0,0,0,9.64-1.34l1.49-.62.78-.32.76-.39,1.56-.79c.52-.29,1-.6,1.55-.93a47.88,47.88,0,0,0,6-4.63,67.7,67.7,0,0,0,5.54-5.43,22.43,22.43,0,0,0,4-6.14c1.45-3.49,2.88-6.71,3.89-9.75a12,12,0,0,1-.63,4.36,27.81,27.81,0,0,1-3,6.67,37.31,37.31,0,0,1-4.53,5.67c-1.66,1.73-3.35,3.39-5.09,5A55.18,55.18,0,0,1,115,445.7a39.92,39.92,0,0,0,6-4.49c1.85-1.65,3.62-3.31,5.35-5.11a37.94,37.94,0,0,0,4.74-5.93,33.3,33.3,0,0,0,3.33-7.09,25.45,25.45,0,0,1-3.84,8.33c-1.71,2.47-3.64,4.61-5.3,6.86.41-.24.83-.51,1.24-.79a46.57,46.57,0,0,0,4.11-4.48,29.06,29.06,0,0,0,3.36-5.35,34.52,34.52,0,0,0,.74-3.78,47.69,47.69,0,0,0-.89-18,27.6,27.6,0,0,0-4.22-8.91,25.27,25.27,0,0,0-7.3-6.76,14.84,14.84,0,0,0-4.26-1.46,30.07,30.07,0,0,1,9.75,7.49c-1-1.37-2-2.63-2.9-3.88a18.12,18.12,0,0,1,3.78,4.14c1,1.49,1.87,3.06,2.82,4.78a38.47,38.47,0,0,0-3.7-5,29.26,29.26,0,0,1,3.71,6.7c-1.29-2.14-2.36-4.25-3.81-6.2a14.32,14.32,0,0,0-5.54-4.78,19.73,19.73,0,0,1,2.47,2,30.67,30.67,0,0,0-2.53-2l.06,0a23,23,0,0,0-8.67-3.34,23.65,23.65,0,0,1,7,3.49,35.39,35.39,0,0,1,5.68,5.14c.6.62,1.15,1.3,1.69,2-.56-.68-1.11-1.34-1.69-2a31.58,31.58,0,0,0-15.4-8.84c-5.9-1.48-12.13-1.52-18.22-1.15l-1.16.16,1.07.58a63.64,63.64,0,0,1,15.06.37A29.11,29.11,0,0,1,120.81,393.91Z"/>
    </g>
  </g>
  <g class="f78db2bb-f746-488e-9625-6c3cdb553605">
    <g class="f78db2bb-f746-488e-9625-6c3cdb553605">
      <path class="abbbfe73-1bfb-4ece-807a-0fc864f06439" d="M91.09,399.36c-1.06,0-2,.09-3.25,0s-2.15-.16-3.15-.24l-1.47-.08-1,0a4.26,4.26,0,0,0-1.56.26,1.39,1.39,0,0,0-1,1.27,2.91,2.91,0,0,0,.66,1.57,6.13,6.13,0,0,0,.57.69c.29.32.68.69,1,1,.74.68,1.52,1.33,2.33,1.94,1.63,1.25,3.29,2.3,5.06,3.42a42.7,42.7,0,0,0,5,2.81c1.09.54,2.2,1.06,3.33,1.57l-1.48-1.13c-1.67-1.3-3.35-2.63-5-4l-.62-.51-.71-.57-1.34-1c-.86-.67-1.7-1.33-2.52-2s-1.59-1.34-2.31-2c-.36-.34-.71-.67-1-1l-.11-.11h0v-.05a.07.07,0,0,1,.12-.05,0,0,0,0,1,0,0H83c1.23,0,2.59.12,4.19.21.77.05,1.86.06,2.51,0l2.22-.07,4.4-.17c4.54-.27,9.1-1,13.78-1.52s9.47-1,14.48-1.14a1.13,1.13,0,0,0,1.28-1.1,20.15,20.15,0,0,1-2.71-1.32L111,397.28q-3.06.3-6.16.54c-2.06.16-4.14.32-6.24.33C95.79,398.14,92.76,399.37,91.09,399.36Z"/>
      <path class="e0be19d0-04f9-416a-a423-3588641be1e9" d="M123.49,396.16l-.16-.09-1.23.11Z"/>
      <path class="a89b709f-cffe-4090-92a5-39a6f4f44081" d="M103.57,398.11a62.67,62.67,0,0,1-8.07.4,29.5,29.5,0,0,1-4.41.85c-1.06,0-2,.09-3.25,0s-2.15-.16-3.15-.24l-1.47-.08-1,0a4.26,4.26,0,0,0-1.56.26,1.39,1.39,0,0,0-1,1.27,2.91,2.91,0,0,0,.66,1.57,6.13,6.13,0,0,0,.57.69c.29.32.68.69,1,1,.74.68,1.52,1.33,2.33,1.94,1.63,1.25,3.29,2.3,5.06,3.42a42.7,42.7,0,0,0,5,2.81c1.08.54,2.18,1.05,3.29,1.55L96,412.35c-2-1.5-3.8-3-5.78-4.62l-3-2.36c-1-.76-1.9-1.53-2.78-2.3l-.64-.4a7.4,7.4,0,0,1-1.48-1.1l-.07-.07,0,0,0-.06a.27.27,0,0,1,0-.12c0-.16.18-.24.24-.27a.14.14,0,0,1,0-.14c0-.05.08-.07.14-.09l.09,0h.9c.73,0,1.48.07,2.3.14s1.65.14,2.68.17h2.57l2.51,0c1.69,0,3.42-.11,5.22-.22,2.82-.12,5.77-1.16,9.12-1.21,1.14-.07,2.24-.09,3.31-.08,4.38-.51,8.85-.92,13.53-1,1.11,0,1.22-.74,1.27-1.1-.53-.21-1-.44-1.49-.68-3.78,0-7.56.23-11.42.35-3.34.33-6.7.64-10.09.88A3.1,3.1,0,0,0,103.57,398.11Z"/>
      <path class="e0be19d0-04f9-416a-a423-3588641be1e9" d="M103.21,397.05c-.48,0-1,.55-.17.9,3.39-.24,6.75-.55,10.09-.88C109.89,397.17,106.6,397.21,103.21,397.05Z"/>
      <path class="e54a480f-aad7-4f70-bede-15ef9f5b10bd" d="M103.66,394.55c-3.3,0-6.52.15-9.6.33-1.54.08-3,.15-4.5.17a14.47,14.47,0,0,1-2-.1c-.68-.08-1.37-.19-2.06-.32l-1.85-.3-1-.13a5,5,0,0,0-.63-.05l-.69,0a11.11,11.11,0,0,0-5.32,1,8.48,8.48,0,0,0-1.73,1.27,6,6,0,0,0-1,4.16c.28,2.22,1.83,4.37,3.66,6.15a37.4,37.4,0,0,0,3.58,3c1.2.89,2.4,1.72,3.58,2.51l1.72,1.15,1.7,1.2c4.7,3.28,9.53,6.26,14.31,9.18L109,428.1l3.56,2.2.46.3.23.15.42.29a15.47,15.47,0,0,1,1.29,1l.1.1h-.84c-.36,0-.68,0-1-.05a3.09,3.09,0,0,0-.63,0l-.33,0-2,.18-7.93.72c-2.64.23-5.3.47-8,.64-1.35.09-2.71.16-4.08.23l-1,0-.58.06c-.38,0-.79.07-1.22.09a16.45,16.45,0,0,1-2.68-.19c-.38-.06-.72-.13-1-.2l-.21-.06-.1,0,.16-.11.65-.43a38.11,38.11,0,0,1,4.1-2.32,4.76,4.76,0,0,0,.49-.32l.62-.45,1.23-.89c.82-.61,1.62-1.21,2.4-1.83,1.57-1.23,3.08-2.49,4.55-3.77,3-2.56,5.73-5.22,8.47-7.94,5.48-5.44,10.81-11.14,17-16.85,3.31-3.08,2-5.64,1.09-5-10.45,9.42-21,18.11-31.54,26.75l-8.11,6.65-5.94,4.9-5.71,4.85c-.49.28.12.22.38.26l1,.08,1.91.16,3.8.29c2.52.18,5.08.35,7.65.45l1.77.06,1.31,0,2.64,0c1.75,0,3.52,0,5.28-.08,2.75-.08,5.47-.18,8.16-.33l4-.23,2-.14c.91-.06,1.82-.13,2.72-.21,3.64-.29,7.11-.68,10.66-1.05l2.69-.3,1.36-.15.34,0,.17,0h.07l-.06-.05-.54-.34-4.3-2.76-2.15-1.4-2.27-1.44q-2.33-1.47-4.64-2.95l-2-1.29-1.61-1.06-3.19-2.12c-4.25-2.85-8.43-5.72-12.42-8.74-1.13-.51-2.24-1-3.33-1.57a42.7,42.7,0,0,1-5-2.81c-1.77-1.12-3.43-2.17-5.06-3.42-.81-.61-1.59-1.26-2.33-1.94-.36-.33-.75-.7-1-1a6.13,6.13,0,0,1-.57-.69,2.91,2.91,0,0,1-.66-1.57,1.39,1.39,0,0,1,1-1.27,4.26,4.26,0,0,1,1.56-.26l1,0,1.47.08c1,.08,2,.18,3.15.24s2.19,0,3.25,0c1.67,0,4.7-1.22,7.48-1.21,2.1,0,4.18-.17,6.24-.33s4.12-.34,6.16-.54l12.18-1.2a40.54,40.54,0,0,0-4.78-2.65A99.68,99.68,0,0,1,103.66,394.55Z"/>
      <path class="aaaf820d-d5f3-4acb-bcc7-130000054387" d="M103.66,394.55a99.68,99.68,0,0,0,14.71-1.12,11.79,11.79,0,0,0-2.83-.76c-2.94-.25-5.94-.34-9-.32s-6.16.18-9.29.24l-9.17.38c-1.39,0-3.08-.13-4.85-.1l-.7,0c-.31,0-.71.05-1.06.07a9.2,9.2,0,0,0-1.07.13,8.85,8.85,0,0,0-1.05.19c-.33.09-.67.17-1,.27l-.93.37a13.47,13.47,0,0,0-1.65,1,8,8,0,0,0-1.45,1.52,8.48,8.48,0,0,1,1.73-1.27,11.11,11.11,0,0,1,5.32-1l.69,0a5,5,0,0,1,.63.05l1,.13,1.85.3c.69.13,1.38.24,2.06.32a14.47,14.47,0,0,0,2,.1c1.46,0,3-.09,4.5-.17C97.14,394.7,100.36,394.58,103.66,394.55Z"/>
      <path class="a89b709f-cffe-4090-92a5-39a6f4f44081" d="M103.66,394.55a95.72,95.72,0,0,0,14-1c-1.61-.09-3.22-.12-4.85-.08l-12.45.39q-3.11,0-6.2-.07l-3.09-.11-1.54-.08-.75-.05-.61-.08.65,0h.83l1.65,0,3.31,0,6.61-.11q6.61-.3,13.24-.71c-2.87-.2-5.8-.26-8.78-.21-1.48,0-3,.07-4.49.13l-4.54.13-4.55.19-2.28.11-1.1.05c-.26,0-.59,0-.93,0-1.4,0-3-.14-4.76-.09l-.74,0-1,.08a8.8,8.8,0,0,0-1,.14,5.47,5.47,0,0,0-1,.19c-.32.1-.65.16-1,.28l-.9.35a16,16,0,0,0-1.6.94,9.15,9.15,0,0,0-1.43,1.49,9.71,9.71,0,0,1,1.71-1.24,11.11,11.11,0,0,1,5.32-1l.69,0a5,5,0,0,1,.63.05l1,.13,1.85.3c.69.13,1.38.24,2.06.32a14.47,14.47,0,0,0,2,.1c1.46,0,3-.09,4.5-.17C97.14,394.7,100.36,394.58,103.66,394.55Z"/>
      <path class="ab9bdd73-af9e-4c74-b5d8-f897b9c8fc49" d="M90.25,395.26l7.47.13c1.25,0,2.5,0,3.75,0l3.75-.12c5-.19,10-.5,15.09-1-.44-.24-.89-.48-1.36-.69l-1.26-.07a95.72,95.72,0,0,1-14,1c-3.3,0-6.52.15-9.6.33-1.54.08-3,.15-4.5.17a14.47,14.47,0,0,1-2-.1c-.68-.08-1.37-.19-2.06-.32l-1.85-.3-1-.13a5,5,0,0,0-.63-.05l-.69,0a11.11,11.11,0,0,0-5.32,1,9.71,9.71,0,0,0-1.71,1.24,6.78,6.78,0,0,0-.87,1.87,6.62,6.62,0,0,0-.17,2c.17,2.27,1.72,4.48,3.57,6.31l.51.48.45.42.91.77c.61.5,1.22,1,1.83,1.43,1.22.91,2.45,1.75,3.66,2.56s2.24,1.52,3.49,2.4c4.8,3.35,9.73,6.38,14.61,9.36q3.36,1.67,6.72,3.54c1.12.63,2.24,1.27,3.36,1.93l1.17.69.69.41a26.47,26.47,0,0,1,2.3,1.6,4.77,4.77,0,0,1,.39.33s.11.06,0,.06h-.7c-.6,0-1.17,0-1.68,0l1-.1.49-.07-.48-.28c-.65-.36-1.32-.72-1.92-1,.52.37,1,.71,1.25,1l.1.09a1.12,1.12,0,0,1-.27,0h-.55c-.35,0-.67,0-1-.05a4.79,4.79,0,0,0-.56,0l-.24,0-.13,0h0l-.22,0-.42,0-6.72.63a9,9,0,0,1-4.86,1.48c-2,.16-3.91.19-5.86.25l-3,.11-1.49.1-.73.06-.56.09c-.41,0-.17-.55-.81-.61a10.3,10.3,0,0,0,1.35,0l1,0,1-.07a23.29,23.29,0,0,0,3.58-.58c-1.36.1-2.73.17-4.12.24l-1,0h-.4l-.28,0c-.38,0-.79.08-1.22.1a15.42,15.42,0,0,1-3.82-.42l-.16,0-.08,0s.06-.05.09-.07l.51-.34,1-.62c.65-.4,1.24-.74,1.76-1l.41-.41c.17-.17.34-.35.52-.56l.27-.32.7-.7c.94-.94,1.86-1.91,2.78-2.89l-2.59,2.05A31.37,31.37,0,0,1,93.12,425l-1.59,1.72,6.11-4.85a79.88,79.88,0,0,0-7.06,6.51c4.7-4,8.89-7.73,13.84-11.2l-.29.37c6.15-6,12-12.32,18.81-18.68,3.31-3.07,2-5.64,1.1-4.95-7.31,6.58-14.64,12.8-22,18.9l-11,9.09-5.53,4.53-4,3.26c-1.38,1.14-2.79,2.3-4.1,3.42,3.09-2.11,5.92-3.92,8.24-5.39a19,19,0,0,1,2.41-1.43l-2.41,1.43c-1.32.94-2.72,2-4.18,3.17s-2.94,2.3-4.69,3.56a11.09,11.09,0,0,0-1.66,1.25,3.31,3.31,0,0,0-.57.64.31.31,0,0,0-.06.21s.06,0,.13,0l.19,0,.4-.06a68.88,68.88,0,0,0,7.51.81l4.13.29,2,.16c.58.06,1,.12,1.5.19a3.78,3.78,0,0,1,1.05.38c2.44,0,4.89,0,7.34-.06,3.43-.1,6.82-.26,10.18-.45l5.49-.37c2.27-.2,4.53-.38,6.72-.62l6.64-.71,1.7-.18.85-.09.42-.05c.13,0,0-.05,0-.08l-.17-.11-2.69-1.72-5.45-3.5-5.8-3.68a74.2,74.2,0,0,1,8,6.31,13.15,13.15,0,0,0,2.46,1.91c.08,0,0,0-.08,0h-.15l-.3,0L126,435l-1.21.15-2.49.33-5.44.74-3,.36-2.76.28c-1.7.22-2.73-.26-4.4-.25a31.51,31.51,0,0,1,4.66-.91l1.23-.15,1.18-.11c.78-.07,1.57-.13,2.38-.18,1.63-.11,3.38-.2,5.15-.34.89-.06,1.78-.14,2.62-.24l1.24-.15.29,0-.28-.16-.57-.33c-2-1.14-3.81-2.32-5.87-3.67L112.08,426a138.38,138.38,0,0,0-13.66-8.09,30.29,30.29,0,0,1-8.66-6.76,22.14,22.14,0,0,1,3.82,2.37c4,2.88,8.24,5.58,12.47,8.24l6.4,4,7.11,4.27c-1.16-.82-2.41-1.67-3.72-2.54l-3.36-2.23L106,421a128.13,128.13,0,0,1-12.53-8.9c5,3.39,9.65,7.19,15,9.52-.34-.36-.7-.72-1.07-1.08-3.32-2.26-6.6-4.55-9.75-6.94-1.11-.5-2.21-1-3.29-1.55a42.7,42.7,0,0,1-5-2.81c-1.77-1.12-3.43-2.17-5.06-3.42-.81-.61-1.59-1.26-2.33-1.94-.36-.33-.75-.7-1-1a6.13,6.13,0,0,1-.57-.69,2.91,2.91,0,0,1-.66-1.57,1.39,1.39,0,0,1,1-1.27,4.26,4.26,0,0,1,1.56-.26l1,0,1.47.08c1,.08,2,.18,3.15.24s2.19,0,3.25,0a29.5,29.5,0,0,0,4.41-.85c-2.08,0-4.16,0-6.23-.06-2.24,0-4.25-.41-6.24-.4a25.75,25.75,0,0,1,4.64,1.06c-1.75-.07-3.18-.32-4.58-.47l-.84-.09a5.27,5.27,0,0,0-.71-.05,3.91,3.91,0,0,0-1.49.26,1.92,1.92,0,0,0-.9.74,1.92,1.92,0,0,1,.78-.84,3.7,3.7,0,0,1,1.43-.5,6.9,6.9,0,0,1,.78-.09c.25,0,.5,0,.89,0l-.5-.06-.4,0a8,8,0,0,0-.85,0,5.28,5.28,0,0,0-1.76.34,2.18,2.18,0,0,0-1.55,2A1.92,1.92,0,0,1,79.22,398a5.75,5.75,0,0,1,2.44-.43c.42,0,.74,0,1.22.06s.93.08,1.4.13c.94.09,1.89.2,2.89.24a13.32,13.32,0,0,0,1.54,0c.52-.05,1-.13,1.52-.23a18.39,18.39,0,0,1-3.31-.14,29.56,29.56,0,0,0,3.38.13h-.07a93.25,93.25,0,0,0,9.69-.84c-2.88.06-5.62-.08-8.35-.21-1.36-.09-2.72-.09-4-.25a39.77,39.77,0,0,0-4.18-.33,14.67,14.67,0,0,0-3,.29,13,13,0,0,1,3-.29c12.89.36,25.85.18,38.76.05l1.23-.11-1.11-.65C111.53,395.66,100.68,395.88,90.25,395.26Z"/>
    </g>
  </g>
  <g>
    <rect class="bc8f7811-3816-438a-8955-a50ca23e8717" x="163.22" y="415.52" width="14.32" height="27.16" transform="matrix(0.99, 0.11, -0.11, 0.99, 47.41, -15.91)"/>
    <polygon class="ee5bf740-7192-41aa-86af-5e6fd00f59e7" points="174.64 415.9 169.31 415.32 170.47 411.55 174.32 411.97 174.64 415.9"/>
    <polygon class="a5404c8d-7445-4594-bb04-c2e66ae0a28e" points="168.96 414.72 130.71 406.7 132.29 400.73 169.6 412.31 168.96 414.72"/>
    <g>
      <line class="acea07a4-554e-4b48-bd6e-ef52b60bb7c0" x1="231.07" y1="381.9" x2="233.47" y2="398.36"/>
      <rect class="ee5bf740-7192-41aa-86af-5e6fd00f59e7" x="207.84" y="334.54" width="38.57" height="52.25" rx="19.29" transform="translate(-13.96 9.18) rotate(-2.25)"/>
      <line class="ac83c96a-d59b-4df2-b871-d561f3287464" x1="204.24" y1="366.05" x2="213.36" y2="365.69"/>
      <path class="b3edd537-9909-420e-9208-546f33a0deb9" d="M209.15,374.79a14.16,14.16,0,0,0,8.13-3.51"/>
      <rect class="b2ba9089-a710-43ec-a391-bfd0cc039716" x="213.7" y="356.59" width="5.14" height="2.77" rx="0.78" transform="translate(-13.86 8.75) rotate(-2.25)"/>
      <circle class="fc0f61cd-50fe-4a2e-b28d-03f888b52914" cx="212.39" cy="340.98" r="6.5"/>
      <circle class="fc0f61cd-50fe-4a2e-b28d-03f888b52914" cx="222.22" cy="335.02" r="6.5"/>
      <circle class="fc0f61cd-50fe-4a2e-b28d-03f888b52914" cx="232.88" cy="334.6" r="6.5"/>
      <circle class="fc0f61cd-50fe-4a2e-b28d-03f888b52914" cx="240.67" cy="339.43" r="6.5"/>
      <circle class="b2ba9089-a710-43ec-a391-bfd0cc039716" cx="245.24" cy="347.88" r="6.5"/>
      <circle class="fc0f61cd-50fe-4a2e-b28d-03f888b52914" cx="246.13" cy="356.72" r="6.5"/>
      <circle class="fc0f61cd-50fe-4a2e-b28d-03f888b52914" cx="237.76" cy="356.95" r="6.5"/>
      <circle class="fc0f61cd-50fe-4a2e-b28d-03f888b52914" cx="229.21" cy="352.75" r="6.5"/>
      <circle class="fc0f61cd-50fe-4a2e-b28d-03f888b52914" cx="220.22" cy="346.12" r="6.5"/>
      <circle class="fc0f61cd-50fe-4a2e-b28d-03f888b52914" cx="230.64" cy="341.95" r="6.5"/>
      <circle class="fc0f61cd-50fe-4a2e-b28d-03f888b52914" cx="239.46" cy="347.73" r="6.5"/>
      <g class="a2247adb-c4f4-42f8-bc4a-9b83f91959db">
        <circle class="b56a5433-9053-47ec-8ede-b70dd86dfeae" cx="214.85" cy="358.35" r="1.38"/>
      </g>
      <line class="eb549d63-4738-40a4-bf2c-bf6d382ea6d2" x1="213.82" y1="354.38" x2="217.71" y2="354.11"/>
      <circle class="fc0f61cd-50fe-4a2e-b28d-03f888b52914" cx="235.71" cy="362.43" r="6.5"/>
      <circle class="fc0f61cd-50fe-4a2e-b28d-03f888b52914" cx="242.2" cy="368.51" r="6.5"/>
      <circle class="fc0f61cd-50fe-4a2e-b28d-03f888b52914" cx="250.16" cy="368.51" r="6.5"/>
      <circle class="fc0f61cd-50fe-4a2e-b28d-03f888b52914" cx="253.03" cy="351.4" r="6.5"/>
      <circle class="fc0f61cd-50fe-4a2e-b28d-03f888b52914" cx="250.03" cy="341.52" r="6.5"/>
      <circle class="fc0f61cd-50fe-4a2e-b28d-03f888b52914" cx="245.13" cy="334.31" r="6.5"/>
      <circle class="fc0f61cd-50fe-4a2e-b28d-03f888b52914" cx="253.03" cy="360.67" r="6.5"/>
      <circle class="fc0f61cd-50fe-4a2e-b28d-03f888b52914" cx="243.95" cy="374.66" r="6.5"/>
      <circle class="fc0f61cd-50fe-4a2e-b28d-03f888b52914" cx="247.16" cy="377.75" r="6.5"/>
      <g>
        <path class="ee5bf740-7192-41aa-86af-5e6fd00f59e7" d="M232.46,561.59a4.13,4.13,0,0,1,3.21-2.87c-6.42-40.74,1.82-84.36,1.88-84.8.47-3-3.18-5.83-6.19-6.3a5.52,5.52,0,0,0-6.3,4.6c-.29,1.86-7.05,46.13-.2,88.8a5.51,5.51,0,0,0,5.44,4.64,5.3,5.3,0,0,0,.88-.07,5.88,5.88,0,0,0,1-.27A5.16,5.16,0,0,1,232.46,561.59Z"/>
        <path class="ee5bf740-7192-41aa-86af-5e6fd00f59e7" d="M246.26,561.59a4.15,4.15,0,0,1,3.21-2.87c-6.42-40.74,2.35-84.36,2.42-84.8.47-3-3.71-5.83-6.72-6.3a5.53,5.53,0,0,0-6.31,4.6c-.29,1.86-7.05,46.13-.2,88.8a5.52,5.52,0,0,0,5.44,4.64,5.22,5.22,0,0,0,.88-.07,5.88,5.88,0,0,0,1-.27A5.16,5.16,0,0,1,246.26,561.59Z"/>
        <rect class="e13b9701-1562-4739-9953-fad8b1794ab3" x="220.09" y="396.3" width="32.58" height="72.91" rx="16.29"/>
        <rect class="e13b9701-1562-4739-9953-fad8b1794ab3" x="220.09" y="451.57" width="32.58" height="22.02"/>
        <path class="ab4d9b13-084a-4b5d-8e9a-3374f9e77898" d="M228.9,398l10.46-4.71s12.09,1,13.11,16.6"/>
        <path class="e13b9701-1562-4739-9953-fad8b1794ab3" d="M243.88,558.72H230.45a5.45,5.45,0,0,0-5.45,5.44V566h24.32v-1.87A5.44,5.44,0,0,0,243.88,558.72Z"/>
        <polygon class="e13b9701-1562-4739-9953-fad8b1794ab3" points="249.47 558.72 249.78 566.03 241.35 566.03 238.51 558.72 249.47 558.72"/>
        <path class="e13b9701-1562-4739-9953-fad8b1794ab3" d="M232.73,558.72H219.3a5.44,5.44,0,0,0-5.44,5.44V566h24.32v-1.87A5.45,5.45,0,0,0,232.73,558.72Z"/>
        <polygon class="e13b9701-1562-4739-9953-fad8b1794ab3" points="238.32 558.72 238.63 566.03 230.2 566.03 227.37 558.72 238.32 558.72"/>
      </g>
      <rect class="ee5bf740-7192-41aa-86af-5e6fd00f59e7" x="174.25" y="428.04" width="9.42" height="9.42" rx="2.65"/>
      <path class="a9988abb-ec5b-4e2c-b01b-238602653808" d="M236,403.18a118,118,0,0,1-53.78,29.46"/>
      <circle class="fc0f61cd-50fe-4a2e-b28d-03f888b52914" cx="237.46" cy="330.58" r="6.5"/>
      <circle class="fc0f61cd-50fe-4a2e-b28d-03f888b52914" cx="245.13" cy="346.45" r="6.5"/>
      <circle class="fc0f61cd-50fe-4a2e-b28d-03f888b52914" cx="228.13" cy="330.63" r="6.5"/>
      <circle class="fc0f61cd-50fe-4a2e-b28d-03f888b52914" cx="218.28" cy="334.45" r="6.5"/>
    </g>
  </g>
</svg>
