<svg class="story-screen__graphic" id="b8e8c590-9e59-4e83-879c-fc34124edc77" data-name="Layer 1" xmlns="http://www.w3.org/2000/svg" xmlns:xlink="http://www.w3.org/1999/xlink" viewBox="0 0 466.23 727.59">
  <defs>
    <style>
      .ac0f4259-1e1e-4ad9-8e31-a9596c163c45, .af060d5f-c3f2-440c-9b1b-faea4880d57e, .af6a8245-3d6c-445c-9df6-e8bb7c9bbfb3, .b63f1afd-b8bd-44a0-9463-2b2c1816e40f, .b6c9e23e-a643-4672-be06-66ecbd4ab49a, .ba92a12f-1621-498e-b291-a59bd3d12c46, .beacb342-1a1b-40fe-b333-a1a769558bf2, .ebdee7dc-a0ed-4213-ae5e-41a4e78ee6e7, .f2681848-ad4a-43ac-bba6-e912440deb85, .ffd979e7-395a-432d-b5eb-3b7624b753ee {
        fill: none;
      }

      .b8cac854-837c-4a93-b9c8-11b4b62c6921, .b907b801-5333-4505-bd16-d69166da463f, .ee0d2d32-78a3-49f4-a6c0-e9d21517300d {
        fill: #ede8db;
      }

      .b69df01d-41e6-4424-93ea-9ba331c68894 {
        fill: #aeaaa1;
      }

      .b2e109b3-3856-487a-a19e-653dfb45969b {
        fill: #062837;
        stroke-width: 2.55px;
      }

      .b2e109b3-3856-487a-a19e-653dfb45969b, .ffd979e7-395a-432d-b5eb-3b7624b753ee {
        stroke: #062837;
      }

      .a4e78740-dff0-4128-9da6-3abf0bc8f318, .a811a6b0-d6df-48fb-bae0-dc343b610303, .abd314ae-a7da-4171-9177-9f7e2ac46a20, .ac0f4259-1e1e-4ad9-8e31-a9596c163c45, .ad171bb6-3808-4f8c-9901-e7ddcd29941c, .aec2868d-c34d-4bbe-85b0-182282b5cfae, .af060d5f-c3f2-440c-9b1b-faea4880d57e, .af6a8245-3d6c-445c-9df6-e8bb7c9bbfb3, .b2e109b3-3856-487a-a19e-653dfb45969b, .b63f1afd-b8bd-44a0-9463-2b2c1816e40f, .b907b801-5333-4505-bd16-d69166da463f, .ba2119d4-c00d-4531-b57b-988facfda920, .bc555e4a-323a-43fe-afbe-5303cf950920, .be90c12a-820d-464e-bdc2-d3535fcfac1e, .beacb342-1a1b-40fe-b333-a1a769558bf2, .ee0d2d32-78a3-49f4-a6c0-e9d21517300d, .f2681848-ad4a-43ac-bba6-e912440deb85, .fa8d1783-11a6-4466-8904-c07c9e148331, .faf9a58b-75e6-4c70-b60f-8c9db5ee4c82, .fdcc22ac-f609-4180-adce-04cb7855859a, .ffd979e7-395a-432d-b5eb-3b7624b753ee {
        stroke-linecap: round;
        stroke-linejoin: round;
      }

      .b703227a-bddb-4fdd-b686-5287442b50ad {
        fill: #d5a555;
      }

      .ad171bb6-3808-4f8c-9901-e7ddcd29941c, .bc555e4a-323a-43fe-afbe-5303cf950920, .be92b53e-0b21-4701-a941-4919d211cd06 {
        fill: #002838;
      }

      .ad171bb6-3808-4f8c-9901-e7ddcd29941c, .bc555e4a-323a-43fe-afbe-5303cf950920 {
        stroke: #002838;
      }

      .ad171bb6-3808-4f8c-9901-e7ddcd29941c {
        stroke-width: 1.27px;
      }

      .b4a97c4c-08d0-48f2-adc5-20ba9f0d37da {
        fill: #3c5743;
      }

      .a4d4d910-cccf-4ea6-aeb1-dc4b989fc958, .b4a97c4c-08d0-48f2-adc5-20ba9f0d37da, .b52a59cd-59f1-4688-8cc8-13f98f325481, .b6c9e23e-a643-4672-be06-66ecbd4ab49a, .b91835f2-5602-4440-bf99-35383ff19bd5, .f5b154cf-d4b7-4822-af88-3bcf4791bea9 {
        fill-rule: evenodd;
      }

      .a91d92f8-396d-44c0-b36b-eb281e65ba30 {
        fill: #d4a354;
      }

      .ae238192-1af7-4226-8aec-0383f21216a8 {
        fill: #858173;
      }

      .e817587b-2f13-494b-be16-50426395f902 {
        fill: #ada9a0;
      }

      .e664f06f-2c36-477c-99ee-e3ab24dad194 {
        fill: #2d2e2c;
      }

      .a4d4d910-cccf-4ea6-aeb1-dc4b989fc958, .ee4a76ce-0664-40f2-9a2c-7e2846af95e4 {
        fill: #ea5736;
      }

      .a2ae1b27-a675-4ac4-a22d-ffeafba2c883, .b91835f2-5602-4440-bf99-35383ff19bd5 {
        fill: #ebe8da;
      }

      .b52a59cd-59f1-4688-8cc8-13f98f325481, .fb03abc8-0cc7-4c3e-9317-fc188ea7fca7 {
        fill: #3f5843;
      }

      .f8ce1fea-e7fc-4ba7-96f1-6a21071ae114 {
        fill: #89563c;
      }

      .a39c0dfe-22ff-4f78-a1b7-48bf046b73b9, .a919addc-fa1a-4748-ba32-59bd1ebc8c52, .aec2868d-c34d-4bbe-85b0-182282b5cfae, .be90c12a-820d-464e-bdc2-d3535fcfac1e, .ed17c672-9fdf-4e6c-b0a0-3f9af91c8c46, .faf9a58b-75e6-4c70-b60f-8c9db5ee4c82 {
        fill: #d4a455;
      }

      .b14c15b3-3c03-46c5-b898-4f646ccf0ebc, .f5b154cf-d4b7-4822-af88-3bcf4791bea9, .fdcc22ac-f609-4180-adce-04cb7855859a {
        fill: #062838;
      }

      .fdcc22ac-f609-4180-adce-04cb7855859a {
        stroke: #062838;
        stroke-width: 0.16px;
      }

      .a438ba47-9b61-4535-a500-1193bf00ac58 {
        fill: #dfb4ac;
      }

      .b63f1afd-b8bd-44a0-9463-2b2c1816e40f {
        stroke: #524e4e;
        stroke-width: 0.5px;
      }

      .b47b531b-3d49-46a5-9ada-2b7109fd8a5c {
        fill: #78a9a2;
      }

      .bc555e4a-323a-43fe-afbe-5303cf950920 {
        stroke-width: 2.63px;
      }

      .a3329ac2-5bbf-48ea-a428-8af8b1dd85a4 {
        fill: #afaca3;
      }

      .a39c0dfe-22ff-4f78-a1b7-48bf046b73b9, .a919addc-fa1a-4748-ba32-59bd1ebc8c52, .aec2868d-c34d-4bbe-85b0-182282b5cfae, .be90c12a-820d-464e-bdc2-d3535fcfac1e, .faf9a58b-75e6-4c70-b60f-8c9db5ee4c82 {
        stroke: #d4a455;
      }

      .be90c12a-820d-464e-bdc2-d3535fcfac1e {
        stroke-width: 0.47px;
      }

      .e2a93366-827e-4330-866f-809a0cc5dd57 {
        fill: #2e2d2c;
      }

      .ffd979e7-395a-432d-b5eb-3b7624b753ee {
        stroke-width: 5.11px;
      }

      .b074a7e2-7b52-4606-a905-6ee41038b107 {
        clip-path: url(#aa92699e-56d3-4ae9-ac07-a504165193b5);
      }

      .ac0f4259-1e1e-4ad9-8e31-a9596c163c45 {
        stroke: #30383b;
        stroke-width: 3.41px;
      }

      .af6a8245-3d6c-445c-9df6-e8bb7c9bbfb3 {
        stroke: #d5a555;
        stroke-width: 20.45px;
      }

      .b6c9e23e-a643-4672-be06-66ecbd4ab49a, .ebdee7dc-a0ed-4213-ae5e-41a4e78ee6e7 {
        stroke: #d5a655;
      }

      .a39c0dfe-22ff-4f78-a1b7-48bf046b73b9, .a919addc-fa1a-4748-ba32-59bd1ebc8c52, .aa6aa4f7-122d-457f-b294-098afbf85f62, .b6c9e23e-a643-4672-be06-66ecbd4ab49a, .bc09cf04-6bea-4c03-a681-7c6efa3c82d8, .ebdee7dc-a0ed-4213-ae5e-41a4e78ee6e7, .ef061620-7927-482c-889a-856bce0806f6 {
        stroke-miterlimit: 10;
      }

      .ebdee7dc-a0ed-4213-ae5e-41a4e78ee6e7 {
        stroke-width: 15.34px;
      }

      .e36ad2da-5886-4064-b326-78917be3cf23 {
        fill: #867f72;
      }

      .b6c9e23e-a643-4672-be06-66ecbd4ab49a {
        stroke-width: 14.95px;
      }

      .aa6aa4f7-122d-457f-b294-098afbf85f62, .bc09cf04-6bea-4c03-a681-7c6efa3c82d8, .bdcc963c-b12a-42c1-bd47-0163f9d615d1 {
        fill: #ea5836;
      }

      .aa6aa4f7-122d-457f-b294-098afbf85f62, .bc09cf04-6bea-4c03-a681-7c6efa3c82d8 {
        stroke: #ea5736;
      }

      .bc09cf04-6bea-4c03-a681-7c6efa3c82d8 {
        stroke-width: 0.85px;
      }

      .a26cabd4-6eeb-46ed-b6e9-f755e404342f, .abd314ae-a7da-4171-9177-9f7e2ac46a20, .fa8d1783-11a6-4466-8904-c07c9e148331 {
        fill: #868072;
      }

      .a568e75b-f6c0-4482-b14e-302706256d34 {
        fill: #aeaaa2;
      }

      .bcdc2605-d569-491c-9b48-a5e7ed86d918 {
        fill: #79a9a2;
      }

      .bdaaaa9b-3459-4867-bd12-07c8bea90a0b {
        fill: #3d5843;
      }

      .abd314ae-a7da-4171-9177-9f7e2ac46a20, .fa8d1783-11a6-4466-8904-c07c9e148331 {
        stroke: #868072;
      }

      .abd314ae-a7da-4171-9177-9f7e2ac46a20 {
        stroke-width: 0.32px;
      }

      .aec2868d-c34d-4bbe-85b0-182282b5cfae {
        stroke-width: 43.88px;
      }

      .a919addc-fa1a-4748-ba32-59bd1ebc8c52 {
        stroke-width: 0.95px;
      }

      .a696e5a1-c211-4c5b-bbcc-84b37098a3d7 {
        fill: #ece8dc;
      }

      .a4e78740-dff0-4128-9da6-3abf0bc8f318, .e8b76eb2-4aca-4ec7-8b7f-fb362563deff, .ef061620-7927-482c-889a-856bce0806f6 {
        fill: #8a533b;
      }

      .a4e78740-dff0-4128-9da6-3abf0bc8f318, .ef061620-7927-482c-889a-856bce0806f6 {
        stroke: #8a533b;
      }

      .a4e78740-dff0-4128-9da6-3abf0bc8f318 {
        stroke-width: 8.23px;
      }

      .f70d2759-8cd0-41e1-9a14-3439570f3e69 {
        clip-path: url(#e6c9fc3c-1e0c-42d3-b540-ef5c8af4991e);
      }

      .af060d5f-c3f2-440c-9b1b-faea4880d57e {
        stroke: #31373a;
        stroke-width: 4.27px;
      }

      .a39c0dfe-22ff-4f78-a1b7-48bf046b73b9 {
        stroke-width: 2.21px;
      }

      .ef061620-7927-482c-889a-856bce0806f6 {
        stroke-width: 4.88px;
      }

      .aa6aa4f7-122d-457f-b294-098afbf85f62 {
        stroke-width: 1.52px;
      }

      .faf9a58b-75e6-4c70-b60f-8c9db5ee4c82 {
        stroke-width: 0.85px;
      }

      .fa8d1783-11a6-4466-8904-c07c9e148331 {
        stroke-width: 0.57px;
      }

      .a811a6b0-d6df-48fb-bae0-dc343b610303, .ba2119d4-c00d-4531-b57b-988facfda920, .f162ac74-5b05-4227-a540-f521b6477e06 {
        fill: #77a9a2;
      }

      .bc8de288-8103-4990-80e1-c0966ec2858c {
        fill: #fff;
      }

      .a811a6b0-d6df-48fb-bae0-dc343b610303, .ba2119d4-c00d-4531-b57b-988facfda920, .beacb342-1a1b-40fe-b333-a1a769558bf2 {
        stroke: #77a9a2;
      }

      .a811a6b0-d6df-48fb-bae0-dc343b610303, .f2681848-ad4a-43ac-bba6-e912440deb85 {
        stroke-width: 2.49px;
      }

      .b907b801-5333-4505-bd16-d69166da463f, .ee0d2d32-78a3-49f4-a6c0-e9d21517300d, .f2681848-ad4a-43ac-bba6-e912440deb85 {
        stroke: #ede8db;
      }

      .ee0d2d32-78a3-49f4-a6c0-e9d21517300d {
        stroke-width: 1.91px;
      }

      .beacb342-1a1b-40fe-b333-a1a769558bf2 {
        stroke-width: 5px;
      }

      .b907b801-5333-4505-bd16-d69166da463f, .ba2119d4-c00d-4531-b57b-988facfda920 {
        stroke-width: 2px;
      }
    </style>
    <clipPath id="aa92699e-56d3-4ae9-ac07-a504165193b5">
      <rect class="ba92a12f-1621-498e-b291-a59bd3d12c46" x="322.08" y="354.32" width="10.68" height="5.75" rx="1.41"/>
    </clipPath>
    <clipPath id="e6c9fc3c-1e0c-42d3-b540-ef5c8af4991e">
      <rect class="ba92a12f-1621-498e-b291-a59bd3d12c46" x="120.41" y="291" width="13.37" height="7.2" rx="1.48"/>
    </clipPath>
  </defs>
  <rect class="b8cac854-837c-4a93-b9c8-11b4b62c6921" x="0.36" y="-927.09" width="465.11" height="2577.43"/>
  <path class="b69df01d-41e6-4424-93ea-9ba331c68894" d="M424.56,730.78c7.22-129.38-1.73-259.11-13.49-388.16-4.15-45.49-8.65-91-15.48-136.15C380.24,104.8,353.09,2.1,369.5-99.4l96.95.68-.88,827.86Z"/>
  <rect class="b69df01d-41e6-4424-93ea-9ba331c68894" x="1.9" y="671.15" width="404.31" height="57.98"/>
  <rect class="b8cac854-837c-4a93-b9c8-11b4b62c6921" x="0.36" width="465.61" height="728.15"/>
  <path class="b69df01d-41e6-4424-93ea-9ba331c68894" d="M0,727.79C102.22,767.17,261.5,704,340.28,620c64-68.28,99-166,113.07-264.66s15.43-256.6,13.1-355.7H414.92C420,99.4,425.07,202.38,411,301S362,497.39,297.93,565.67C229.62,638.52,92.41,688.3.65,653Z"/>
  <rect class="b69df01d-41e6-4424-93ea-9ba331c68894" y="221.38" width="437.04" height="54.74"/>
  <g>
    <polygon class="b2e109b3-3856-487a-a19e-653dfb45969b" points="192.87 122.38 112.58 122.38 32.3 122.38 20.21 145.22 112.58 145.22 204.96 145.22 192.87 122.38"/>
    <rect class="b703227a-bddb-4fdd-b686-5287442b50ad" x="124.95" y="190.24" width="44.12" height="25.4" rx="0.42"/>
    <rect class="b703227a-bddb-4fdd-b686-5287442b50ad" x="20.52" y="146.42" width="182.58" height="65.55" rx="1.37"/>
    <rect class="b8cac854-837c-4a93-b9c8-11b4b62c6921" x="65.8" y="155.97" width="24.09" height="13.03" rx="0.43"/>
    <rect class="b8cac854-837c-4a93-b9c8-11b4b62c6921" x="31.26" y="155.97" width="24.09" height="13.03" rx="0.43"/>
    <rect class="b8cac854-837c-4a93-b9c8-11b4b62c6921" x="65.8" y="185.34" width="24.09" height="13.03" rx="0.43"/>
    <rect class="b8cac854-837c-4a93-b9c8-11b4b62c6921" x="31.26" y="185.34" width="24.09" height="13.03" rx="0.43"/>
    <rect class="b8cac854-837c-4a93-b9c8-11b4b62c6921" x="100.33" y="155.97" width="24.09" height="13.03" rx="0.43"/>
    <rect class="b8cac854-837c-4a93-b9c8-11b4b62c6921" x="182.7" y="185.34" width="10.99" height="13.03" rx="0.29"/>
    <rect class="b8cac854-837c-4a93-b9c8-11b4b62c6921" x="100.33" y="185.34" width="10.99" height="13.03" rx="0.29"/>
    <rect class="b8cac854-837c-4a93-b9c8-11b4b62c6921" x="141.96" y="155.97" width="10.99" height="13.03" rx="0.29"/>
    <rect class="b8cac854-837c-4a93-b9c8-11b4b62c6921" x="135.2" y="155.97" width="23.41" height="13.03" rx="0.43"/>
    <rect class="b8cac854-837c-4a93-b9c8-11b4b62c6921" x="169.74" y="155.97" width="23.41" height="13.03" rx="0.43"/>
    <rect class="b8cac854-837c-4a93-b9c8-11b4b62c6921" x="138.41" y="195.22" width="17.02" height="20.41" rx="0.23"/>
    <rect class="b8cac854-837c-4a93-b9c8-11b4b62c6921" x="158.51" y="195.22" width="9.14" height="17.04" rx="0.16"/>
    <rect class="b8cac854-837c-4a93-b9c8-11b4b62c6921" x="126.17" y="195.22" width="9.14" height="17.04" rx="0.16"/>
    <polygon class="ad171bb6-3808-4f8c-9901-e7ddcd29941c" points="124.73 190.24 169 190.24 157.19 179.19 138.16 179.19 124.73 190.24"/>
    <path class="b4a97c4c-08d0-48f2-adc5-20ba9f0d37da" d="M184.51,215.64h-26a6.53,6.53,0,0,1,3.41-4.71,4.24,4.24,0,0,1,5.63-6.22,6.52,6.52,0,0,1,11.35,2.06,6.45,6.45,0,0,1-.35,4.8A6.51,6.51,0,0,1,184.51,215.64Z"/>
    <path class="b4a97c4c-08d0-48f2-adc5-20ba9f0d37da" d="M109.31,215.64h26a6.54,6.54,0,0,0-3.42-4.71,4.11,4.11,0,0,0,.77-1.41,4.24,4.24,0,0,0-6.39-4.81,6.52,6.52,0,0,0-11,6.86A6.51,6.51,0,0,0,109.31,215.64Z"/>
  </g>
  <g>
    <polygon class="b2e109b3-3856-487a-a19e-653dfb45969b" points="388.07 123.15 307.79 123.15 227.51 123.15 215.42 145.99 307.79 145.99 400.17 145.99 388.07 123.15"/>
    <rect class="b703227a-bddb-4fdd-b686-5287442b50ad" x="320.16" y="191" width="44.12" height="25.4" rx="0.42"/>
    <rect class="b703227a-bddb-4fdd-b686-5287442b50ad" x="215.73" y="147.18" width="182.58" height="65.55" rx="1.37"/>
    <rect class="b8cac854-837c-4a93-b9c8-11b4b62c6921" x="261.01" y="156.73" width="24.09" height="13.03" rx="0.43"/>
    <rect class="b8cac854-837c-4a93-b9c8-11b4b62c6921" x="226.47" y="156.73" width="24.09" height="13.03" rx="0.43"/>
    <rect class="b8cac854-837c-4a93-b9c8-11b4b62c6921" x="261.01" y="186.11" width="24.09" height="13.03" rx="0.43"/>
    <rect class="b8cac854-837c-4a93-b9c8-11b4b62c6921" x="226.47" y="186.11" width="24.09" height="13.03" rx="0.43"/>
    <rect class="b8cac854-837c-4a93-b9c8-11b4b62c6921" x="295.54" y="156.73" width="24.09" height="13.03" rx="0.43"/>
    <rect class="b8cac854-837c-4a93-b9c8-11b4b62c6921" x="377.91" y="186.11" width="10.99" height="13.03" rx="0.29"/>
    <rect class="b8cac854-837c-4a93-b9c8-11b4b62c6921" x="295.54" y="186.11" width="10.99" height="13.03" rx="0.29"/>
    <rect class="b8cac854-837c-4a93-b9c8-11b4b62c6921" x="337.17" y="156.73" width="10.99" height="13.03" rx="0.29"/>
    <rect class="b8cac854-837c-4a93-b9c8-11b4b62c6921" x="330.41" y="156.73" width="23.41" height="13.03" rx="0.43"/>
    <rect class="b8cac854-837c-4a93-b9c8-11b4b62c6921" x="364.95" y="156.73" width="23.41" height="13.03" rx="0.43"/>
    <rect class="b8cac854-837c-4a93-b9c8-11b4b62c6921" x="333.62" y="195.99" width="17.02" height="20.41" rx="0.23"/>
    <rect class="b8cac854-837c-4a93-b9c8-11b4b62c6921" x="353.72" y="195.99" width="9.14" height="17.04" rx="0.16"/>
    <rect class="b8cac854-837c-4a93-b9c8-11b4b62c6921" x="321.38" y="195.99" width="9.14" height="17.04" rx="0.16"/>
    <polygon class="ad171bb6-3808-4f8c-9901-e7ddcd29941c" points="319.94 191 364.2 191 352.4 179.96 333.37 179.96 319.94 191"/>
    <path class="b4a97c4c-08d0-48f2-adc5-20ba9f0d37da" d="M379.72,216.4h-26a6.49,6.49,0,0,1,3.41-4.7,4.18,4.18,0,0,1-.76-1.41,4.24,4.24,0,0,1,6.39-4.82,6.52,6.52,0,0,1,11,6.86A6.55,6.55,0,0,1,379.72,216.4Z"/>
    <path class="b4a97c4c-08d0-48f2-adc5-20ba9f0d37da" d="M304.52,216.4h26a6.53,6.53,0,0,0-3.42-4.7,4.2,4.2,0,0,0,.77-1.41,4.25,4.25,0,0,0-6.4-4.82,6.45,6.45,0,0,0-3.17-2.2,6.51,6.51,0,0,0-7.82,9.06A6.53,6.53,0,0,0,304.52,216.4Z"/>
  </g>
  <g>
    <g>
      <path class="a91d92f8-396d-44c0-b36b-eb281e65ba30" d="M149,220.71a1.07,1.07,0,0,1-.76-1.31s1.05-4,2-8a1.07,1.07,0,0,1,2.09.47c-.92,4.11-2,8.06-2,8.1a1.07,1.07,0,0,1-1.31.76Z"/>
      <path class="a91d92f8-396d-44c0-b36b-eb281e65ba30" d="M151.64,212.64a1.08,1.08,0,0,1-1.38-.54c-1.29-2.77-2.34-4.86-3.14-6.19a1.08,1.08,0,0,1,.38-1.47,1.06,1.06,0,0,1,1.46.37c.84,1.4,1.93,3.55,3.25,6.39a1.08,1.08,0,0,1-.52,1.42Z"/>
      <path class="ae238192-1af7-4226-8aec-0383f21216a8" d="M152.9,219.58h-5l0,1.89h6.42V221A1.41,1.41,0,0,0,152.9,219.58Z"/>
      <path class="a91d92f8-396d-44c0-b36b-eb281e65ba30" d="M135.43,216.27a1.07,1.07,0,0,1,.52-1.41s3.71-1.73,7.42-3.62a1.06,1.06,0,0,1,1.44.46,1.07,1.07,0,0,1-.46,1.44c-3.75,1.92-7.46,3.64-7.49,3.66a1.07,1.07,0,0,1-1.43-.52Z"/>
      <path class="a91d92f8-396d-44c0-b36b-eb281e65ba30" d="M143.94,213.09a1.07,1.07,0,0,1-1.07-1c-.14-3.06-.32-5.39-.55-6.92a1.08,1.08,0,0,1,.91-1.22,1.06,1.06,0,0,1,1.21.9c.24,1.61.43,4,.57,7.14a1.07,1.07,0,0,1-1,1.12Z"/>
      <path class="ae238192-1af7-4226-8aec-0383f21216a8" d="M139.11,218.52l-1.18-1.73-.78-1.15-.84-1.23-1.59,1,.07.1,1.16,1.71,2.38,3.5.4-.27A1.41,1.41,0,0,0,139.11,218.52Z"/>
      <g>
        <line class="e817587b-2f13-494b-be16-50426395f902" x1="150.79" y1="177.24" x2="149.56" y2="177.24"/>
        <path class="e664f06f-2c36-477c-99ee-e3ab24dad194" d="M150.79,177.55h-1.23a.31.31,0,0,1,0-.62h1.23a.31.31,0,0,1,0,.62Z"/>
      </g>
      <g>
        <line class="e817587b-2f13-494b-be16-50426395f902" x1="145.57" y1="177.24" x2="144.34" y2="177.24"/>
        <path class="e664f06f-2c36-477c-99ee-e3ab24dad194" d="M145.57,177.55h-1.23a.31.31,0,0,1,0-.62h1.23a.31.31,0,0,1,0,.62Z"/>
      </g>
      <g>
        <path class="e664f06f-2c36-477c-99ee-e3ab24dad194" d="M146.62,171.53l-.08,3.94H142l-.91,4.53v-2.92A5.55,5.55,0,0,1,146.62,171.53Z"/>
        <path class="e664f06f-2c36-477c-99ee-e3ab24dad194" d="M141.23,180l-.24,0v-2.92a5.67,5.67,0,0,1,5.63-5.66h.12l-.08,4.18h-4.55Zm5.27-8.38a5.44,5.44,0,0,0-5.27,5.43v1.73l.69-3.45h4.51Z"/>
      </g>
      <g>
        <line class="a91d92f8-396d-44c0-b36b-eb281e65ba30" x1="146.69" y1="185.35" x2="146.69" y2="190.07"/>
        <path class="a91d92f8-396d-44c0-b36b-eb281e65ba30" d="M146.69,191.48a1.41,1.41,0,0,1-1.41-1.41v-4.72a1.42,1.42,0,1,1,2.83,0v4.72A1.42,1.42,0,0,1,146.69,191.48Z"/>
      </g>
      <path class="ee4a76ce-0664-40f2-9a2c-7e2846af95e4" d="M146.57,188.49h0a5,5,0,0,1,5,5v4.64a4.56,4.56,0,0,1-4.56,4.56h-.92a4.56,4.56,0,0,1-4.56-4.56v-4.64A5,5,0,0,1,146.57,188.49Z" transform="translate(293.15 391.2) rotate(-180)"/>
      <g>
        <path class="b91835f2-5602-4440-bf99-35383ff19bd5" d="M148.17,188.49h-1.63s-.27,1.32.81,1.32S148.17,188.49,148.17,188.49Z"/>
        <path class="b91835f2-5602-4440-bf99-35383ff19bd5" d="M146.87,188.49h-1.63s-.27,1.32.82,1.32S146.87,188.49,146.87,188.49Z"/>
        <rect class="a2ae1b27-a675-4ac4-a22d-ffeafba2c883" x="146.51" y="189.15" width="0.54" height="13.53"/>
      </g>
      <g>
        <polygon class="b52a59cd-59f1-4688-8cc8-13f98f325481" points="141.25 199.77 141.55 198.76 146.56 198.4 151.6 198.76 151.89 199.77 154.85 209.92 146.95 209.92 146.19 209.92 138.29 209.92 141.25 199.77"/>
        <path class="fb03abc8-0cc7-4c3e-9317-fc188ea7fca7" d="M155,210H138.14l3.32-11.37,5.1-.37h0l5.11.37Zm-16.56-.22H154.7l-3.19-10.94-4.95-.36-4.93.36Z"/>
      </g>
      <path class="ee4a76ce-0664-40f2-9a2c-7e2846af95e4" d="M128,191a1.06,1.06,0,0,0,.51,1.34,23.67,23.67,0,0,0,7.89,2.2,1.08,1.08,0,0,0,1.17-1,1.07,1.07,0,0,0-1-1.16,22.31,22.31,0,0,1-7.12-2,1.07,1.07,0,0,0-1.44.47Z"/>
      <rect class="a91d92f8-396d-44c0-b36b-eb281e65ba30" x="127.14" y="189.63" width="2.41" height="2.41" rx="1.07" transform="matrix(0.36, 0.93, -0.93, 0.36, 260.05, 2.29)"/>
      <path class="ee4a76ce-0664-40f2-9a2c-7e2846af95e4" d="M135.5,193.36a1.07,1.07,0,0,0,1.3,1.13l.43-.1c2.19-.47,4.46-1,6.27-3.27a1.07,1.07,0,0,0-.17-1.5,1.08,1.08,0,0,0-1.51.17c-1.34,1.7-3,2.06-5,2.51l-.44.1A1.05,1.05,0,0,0,135.5,193.36Z"/>
      <path class="ee4a76ce-0664-40f2-9a2c-7e2846af95e4" d="M157.71,202.39l-.1,0a1.07,1.07,0,0,1-1.26-.83h0a22.35,22.35,0,0,0-2.91-6.79,1.07,1.07,0,0,1,1.79-1.18,24.39,24.39,0,0,1,3.22,7.54A1.08,1.08,0,0,1,157.71,202.39Z"/>
      <rect class="a91d92f8-396d-44c0-b36b-eb281e65ba30" x="156.4" y="200.87" width="2.41" height="2.41" rx="0.92" transform="translate(-51.93 54.53) rotate(-16.9)"/>
      <path class="ee4a76ce-0664-40f2-9a2c-7e2846af95e4" d="M154.61,195.17a1.09,1.09,0,0,1-1.21-.43l-.24-.37c-1.17-1.77-2.1-3.17-4.17-3.81a1.07,1.07,0,1,1,.63-2c2.81.86,4.09,2.79,5.32,4.66l.25.37a1.09,1.09,0,0,1-.3,1.49A1.17,1.17,0,0,1,154.61,195.17Z"/>
      <g>
        <rect class="a91d92f8-396d-44c0-b36b-eb281e65ba30" x="141.11" y="171.97" width="11.02" height="14.44" rx="5.51" transform="translate(293.25 358.38) rotate(-180)"/>
        <path class="a91d92f8-396d-44c0-b36b-eb281e65ba30" d="M146.69,186.52a5.61,5.61,0,0,1-5.6-5.61v-3.45a5.61,5.61,0,0,1,11.21,0v3.45A5.93,5.93,0,0,1,146.69,186.52Zm0-14.54a5.49,5.49,0,0,0-5.48,5.48v3.45a5.49,5.49,0,1,0,11,0v-3.45A5.49,5.49,0,0,0,146.69,172Z"/>
      </g>
      <g>
        <circle class="e664f06f-2c36-477c-99ee-e3ab24dad194" cx="150.4" cy="178.95" r="0.32"/>
        <circle class="e664f06f-2c36-477c-99ee-e3ab24dad194" cx="150.4" cy="178.95" r="0.32"/>
        <g>
          <rect class="a2ae1b27-a675-4ac4-a22d-ffeafba2c883" x="149.35" y="178.55" width="1.48" height="0.8" rx="0.4" transform="translate(300.19 357.89) rotate(180)"/>
          <circle class="e664f06f-2c36-477c-99ee-e3ab24dad194" cx="150.41" cy="178.95" r="0.32"/>
        </g>
        <g>
          <rect class="a2ae1b27-a675-4ac4-a22d-ffeafba2c883" x="144.04" y="178.55" width="1.48" height="0.8" rx="0.4" transform="translate(289.56 357.89) rotate(180)"/>
          <circle class="e664f06f-2c36-477c-99ee-e3ab24dad194" cx="145.1" cy="178.95" r="0.32"/>
        </g>
        <g>
          <line class="e817587b-2f13-494b-be16-50426395f902" x1="150.79" y1="177.24" x2="149.56" y2="177.24"/>
          <path class="e664f06f-2c36-477c-99ee-e3ab24dad194" d="M150.79,177.55h-1.23a.31.31,0,0,1,0-.62h1.23a.31.31,0,0,1,0,.62Z"/>
        </g>
        <g>
          <line class="e817587b-2f13-494b-be16-50426395f902" x1="145.57" y1="177.24" x2="144.34" y2="177.24"/>
          <path class="e664f06f-2c36-477c-99ee-e3ab24dad194" d="M145.57,177.55h-1.23a.31.31,0,0,1,0-.62h1.23a.31.31,0,0,1,0,.62Z"/>
        </g>
        <path class="e664f06f-2c36-477c-99ee-e3ab24dad194" d="M147.56,181h-.45a.24.24,0,0,1,0-.48h.45s.08,0,.08-.07V180a.23.23,0,0,1,.23-.23.23.23,0,0,1,.24.23v.44A.54.54,0,0,1,147.56,181Z"/>
        <path class="e664f06f-2c36-477c-99ee-e3ab24dad194" d="M147.6,183.8a3.61,3.61,0,0,1-2.35-.87.23.23,0,0,1,0-.33.23.23,0,0,1,.32,0,3.13,3.13,0,0,0,4.11,0,.22.22,0,0,1,.32,0,.23.23,0,0,1,0,.32A3.64,3.64,0,0,1,147.6,183.8Z"/>
      </g>
      <g>
        <line class="e817587b-2f13-494b-be16-50426395f902" x1="150.79" y1="177.24" x2="149.56" y2="177.24"/>
        <path class="f8ce1fea-e7fc-4ba7-96f1-6a21071ae114" d="M150.79,177.55h-1.23a.31.31,0,0,1,0-.62h1.23a.31.31,0,0,1,0,.62Z"/>
      </g>
      <g>
        <line class="e817587b-2f13-494b-be16-50426395f902" x1="145.57" y1="177.24" x2="144.34" y2="177.24"/>
        <path class="f8ce1fea-e7fc-4ba7-96f1-6a21071ae114" d="M145.57,177.55h-1.23a.31.31,0,0,1,0-.62h1.23a.31.31,0,0,1,0,.62Z"/>
      </g>
      <path class="f8ce1fea-e7fc-4ba7-96f1-6a21071ae114" d="M147.05,174.38a3,3,0,0,1-2,1.79c-.73.18-1.61.11-2.14.66a2,2,0,0,0-.46,1,15,15,0,0,0,.16,6.15c.06.28.45,1.34.21,1.36-1-1.27-2.72-3.41-2.94-5a6.67,6.67,0,0,1,.06-2.44,9.89,9.89,0,0,1,2.51-5,7.6,7.6,0,0,1,5.29-1.77,5.79,5.79,0,0,1,4.7,2.53,8.39,8.39,0,0,1,1.1,3.1,21.89,21.89,0,0,1,.34,5.3,7.64,7.64,0,0,1-.6,2.8c-.42.87-1.87,1.92-2.54,1.82,1.11-2.46,1.16-5.33.92-8.31-.09-1.07.32-2.28-.32-3.17-.51-.71-1.58-.69-2.45-.67a5.48,5.48,0,0,0-2,.69,9.27,9.27,0,0,0,0-3.28A3,3,0,0,1,147.05,174.38Z"/>
    </g>
    <polygon class="ed17c672-9fdf-4e6c-b0a0-3f9af91c8c46" points="46.17 140.91 37.57 148.72 37.88 130.59 46.17 140.91"/>
    <polygon class="fdcc22ac-f609-4180-adce-04cb7855859a" points="52.25 135.79 55.96 158.63 46.17 140.91 52.25 135.79"/>
    <polygon class="ee4a76ce-0664-40f2-9a2c-7e2846af95e4" points="37.88 130.59 52.25 135.79 46.17 140.91 37.88 130.59"/>
    <polygon class="a438ba47-9b61-4535-a500-1193bf00ac58" points="46.17 140.91 37.57 148.72 55.96 158.63 46.17 140.91"/>
    <path class="b63f1afd-b8bd-44a0-9463-2b2c1816e40f" d="M128.12,190.31s-4.44,1.15-20.76-9c-4.08-2.55-10.77-6.27-15.91-7-5.31-.73-11.8-2.66-19.59-8.68-3.8-2.95-11-5.44-15.9-7"/>
    <path class="b63f1afd-b8bd-44a0-9463-2b2c1816e40f" d="M56.18,176c1.11-4.68.39-12.31-.22-17.36"/>
    <g>
      <circle class="ee4a76ce-0664-40f2-9a2c-7e2846af95e4" cx="56.1" cy="176.01" r="1.1"/>
      <polygon class="ee4a76ce-0664-40f2-9a2c-7e2846af95e4" points="53.9 176.01 53.9 174.74 55 175.38 56.1 176.01 55 176.65 53.9 177.29 53.9 176.01"/>
      <polygon class="ee4a76ce-0664-40f2-9a2c-7e2846af95e4" points="58.3 176.01 58.3 177.29 57.19 176.65 56.09 176.01 57.19 175.38 58.3 174.74 58.3 176.01"/>
    </g>
    <g>
      <circle class="fdcc22ac-f609-4180-adce-04cb7855859a" cx="56.6" cy="169.48" r="1.1"/>
      <polygon class="fdcc22ac-f609-4180-adce-04cb7855859a" points="54.41 169.72 54.27 168.46 55.44 168.97 56.6 169.48 55.58 170.23 54.55 170.99 54.41 169.72"/>
      <polygon class="fdcc22ac-f609-4180-adce-04cb7855859a" points="58.78 169.24 58.92 170.5 57.76 169.99 56.59 169.48 57.62 168.73 58.64 167.97 58.78 169.24"/>
    </g>
    <g>
      <circle class="b47b531b-3d49-46a5-9ada-2b7109fd8a5c" cx="56.24" cy="163.56" r="1.1"/>
      <polygon class="b47b531b-3d49-46a5-9ada-2b7109fd8a5c" points="54.1 164.02 53.83 162.78 55.04 163.17 56.25 163.56 55.3 164.41 54.36 165.26 54.1 164.02"/>
      <polygon class="b47b531b-3d49-46a5-9ada-2b7109fd8a5c" points="58.39 163.1 58.66 164.35 57.45 163.95 56.24 163.56 57.18 162.71 58.13 161.86 58.39 163.1"/>
    </g>
  </g>
  <g>
    <circle class="bc555e4a-323a-43fe-afbe-5303cf950920" cx="295.9" cy="243.93" r="11.59"/>
    <circle class="b8cac854-837c-4a93-b9c8-11b4b62c6921" cx="295.9" cy="243.93" r="8.01"/>
    <g>
      <circle class="bc555e4a-323a-43fe-afbe-5303cf950920" cx="211.02" cy="243.93" r="11.59"/>
      <rect class="be92b53e-0b21-4701-a941-4919d211cd06" x="217.12" y="180.82" width="108.98" height="63.12" rx="19.93" transform="translate(543.22 424.75) rotate(-180)"/>
      <circle class="a3329ac2-5bbf-48ea-a428-8af8b1dd85a4" cx="211.02" cy="243.93" r="8.01"/>
      <path class="be92b53e-0b21-4701-a941-4919d211cd06" d="M247.9,243.93H192.4s-7.72-1.49-8.89-8.26c-.67-3.86-.58-11.29-.37-17,0-7.13,7.39-11.72,7.39-11.72l27-21.91s4.6-4.25,15-4.25"/>
      <path class="b8cac854-837c-4a93-b9c8-11b4b62c6921" d="M218.62,188.74l.38,15.42a.51.51,0,0,1-.5.52l-20.12.49a.51.51,0,0,1-.34-.91l19.75-15.91A.51.51,0,0,1,218.62,188.74Z"/>
      <circle class="b8cac854-837c-4a93-b9c8-11b4b62c6921" cx="211.02" cy="243.93" r="8.01"/>
    </g>
  </g>
  <g>
    <path class="be92b53e-0b21-4701-a941-4919d211cd06" d="M299.81,405.27c-3.81-.67-4.1-17.12-.66-36.75s9.33-35,13.14-34.34"/>
    <path class="be92b53e-0b21-4701-a941-4919d211cd06" d="M395.22,405.27c3.81-.67,4.11-17.12.66-36.75s-9.32-35-13.13-34.34"/>
    <g>
      <rect class="be90c12a-820d-464e-bdc2-d3535fcfac1e" x="296.71" y="653.48" width="13.97" height="6.08"/>
      <g>
        <rect class="b703227a-bddb-4fdd-b686-5287442b50ad" x="307.61" y="303.65" width="80.1" height="108.5" rx="40.05"/>
        <rect class="b8cac854-837c-4a93-b9c8-11b4b62c6921" x="322.08" y="354.32" width="10.68" height="5.75" rx="1.41"/>
        <rect class="b8cac854-837c-4a93-b9c8-11b4b62c6921" x="362.56" y="354.32" width="10.68" height="5.75" rx="1.41"/>
        <circle class="e2a93366-827e-4330-866f-809a0cc5dd57" cx="367.9" cy="357.19" r="2.28"/>
        <line class="ffd979e7-395a-432d-b5eb-3b7624b753ee" x1="322.08" y1="344.87" x2="330.96" y2="344.87"/>
        <line class="ffd979e7-395a-432d-b5eb-3b7624b753ee" x1="364.06" y1="344.87" x2="372.94" y2="344.87"/>
        <g class="b074a7e2-7b52-4606-a905-6ee41038b107">
          <circle class="e2a93366-827e-4330-866f-809a0cc5dd57" cx="327.42" cy="357.19" r="2.24"/>
        </g>
        <path class="ac0f4259-1e1e-4ad9-8e31-a9596c163c45" d="M351.25,370.22H348a2.17,2.17,0,0,1-2.24-2.21v-3.17"/>
        <path class="be92b53e-0b21-4701-a941-4919d211cd06" d="M346.71,300.43l.6,28.46H381l6.73,32.71V340.47C387.71,318.43,369.38,300.56,346.71,300.43Z"/>
        <path class="be92b53e-0b21-4701-a941-4919d211cd06" d="M349.08,300.43l-.61,28.46H314.42l-6.81,32.72V340.47C307.61,318.43,326.15,300.56,349.08,300.43Z"/>
        <line class="af6a8245-3d6c-445c-9df6-e8bb7c9bbfb3" x1="349.08" y1="403.41" x2="349.08" y2="437.5"/>
        <rect class="b14c15b3-3c03-46c5-b898-4f646ccf0ebc" x="307.27" y="431.68" width="77.26" height="97.26" rx="13.43"/>
        <rect class="be92b53e-0b21-4701-a941-4919d211cd06" x="307.27" y="496.03" width="77.26" height="36.11"/>
        <rect class="be92b53e-0b21-4701-a941-4919d211cd06" x="307.27" y="518.26" width="77.26" height="27.78" rx="6.14"/>
        <path class="ebdee7dc-a0ed-4213-ae5e-41a4e78ee6e7" d="M367.85,538.63S381.93,596,381.93,658.35"/>
        <path class="e36ad2da-5886-4064-b326-78917be3cf23" d="M380.53,657.4h26.66A10.79,10.79,0,0,1,418,668.19v3.71H369.74v-3.71A10.8,10.8,0,0,1,380.53,657.4Z"/>
        <polygon class="e36ad2da-5886-4064-b326-78917be3cf23" points="369.15 657.4 368.84 671.9 385.56 671.9 391.18 657.4 369.15 657.4"/>
        <path class="b6c9e23e-a643-4672-be06-66ecbd4ab49a" d="M317.41,446.39S284.36,438.48,280,303.2"/>
        <path class="f5b154cf-d4b7-4822-af88-3bcf4791bea9" d="M293.5,439.9a72.24,72.24,0,0,0,11.59-23.45,80,80,0,0,0,22.58,26.62,2,2,0,0,1,.87,1.05,2.15,2.15,0,0,1-.1,1.09c-1.15,4.28-3.63,18.35-9.33,16.05-6.29-2.53-12.37-7.48-17.38-12.2A75.52,75.52,0,0,1,293.5,439.9Z"/>
        <path class="b6c9e23e-a643-4672-be06-66ecbd4ab49a" d="M380.55,441.5s33.05-7.92,37.36-143.2"/>
        <path class="f5b154cf-d4b7-4822-af88-3bcf4791bea9" d="M404.46,436.83a55,55,0,0,1-14.15-19.25c-6.81,8.65-16.29,16.17-27.55,21.85a2.08,2.08,0,0,0-1.08.86,1.28,1.28,0,0,0,.13.89c1.41,3.51,4.43,15.06,11.38,13.18,7.68-2.08,15.1-6.14,21.21-10A80.25,80.25,0,0,0,404.46,436.83Z"/>
        <rect class="be92b53e-0b21-4701-a941-4919d211cd06" x="357.63" y="525.34" width="37.94" height="131.81" transform="translate(844.93 1112.84) rotate(170.57)"/>
        <path class="e36ad2da-5886-4064-b326-78917be3cf23" d="M311.53,657.4H284.88a10.79,10.79,0,0,0-10.79,10.79v3.71h48.23v-3.71A10.79,10.79,0,0,0,311.53,657.4Z"/>
        <rect class="be92b53e-0b21-4701-a941-4919d211cd06" x="296.5" y="525.34" width="37.94" height="131.81" transform="translate(101.08 -43.68) rotate(9.43)"/>
        <rect class="b703227a-bddb-4fdd-b686-5287442b50ad" x="270.66" y="288.1" width="17.46" height="17.46" rx="3.48"/>
        <rect class="b703227a-bddb-4fdd-b686-5287442b50ad" x="408.52" y="284.98" width="17.46" height="17.46" rx="3.48" transform="translate(834.51 587.42) rotate(-180)"/>
        <path class="be92b53e-0b21-4701-a941-4919d211cd06" d="M364,389.51c0,4-7.42,7.18-16.58,7.18s-16.59-3.22-16.59-7.18"/>
        <g>
          <g>
            <path class="a4d4d910-cccf-4ea6-aeb1-dc4b989fc958" d="M340.36,457.73v-1c0-1.2-.44-1.64-1.61-1.79a15.19,15.19,0,0,0-5.61.59c-.66.16-.72.14-.85-.5-.31-1.52-.62-1.39,1.09-1.8a16.42,16.42,0,0,1,7.08-.33,3,3,0,0,1,2.67,2.18,6.24,6.24,0,0,1,.16,1.29c0,2.54,0,6.38,0,7s0,1.37-.06,1.66c-.11.75-.49.94-1.15,1.25a9.11,9.11,0,0,1-3,.6,18,18,0,0,1-4.47-.17c-2.59-.45-3.5-2.21-3.27-4.71.2-2.16,1.26-3.05,3.71-3.38.89-.12,1.77-.29,2.66-.44Zm0,2c-1.63.29-3.2.53-4.76.87a1.75,1.75,0,0,0-1,.68,2.31,2.31,0,0,0,1.41,3.46,8.73,8.73,0,0,0,4.33-.25Z"/>
            <path class="a4d4d910-cccf-4ea6-aeb1-dc4b989fc958" d="M366.35,455.31v10.63c0,.63-.08.7-.73.7s-.95,0-1.52,0-.71-.06-.72-.71v-9.11c0-.58,0-1.15,0-1.73a1.38,1.38,0,0,1,1-1.44,21.13,21.13,0,0,1,2.92-.73,16.76,16.76,0,0,1,4.8-.17,3.15,3.15,0,0,1,3.13,3.32c.05,3.34,0,6.69,0,10,0,.38-.16.56-.56.54-.57,0-1.15,0-1.73,0s-.69-.21-.68-.72c0-2.89,0-5.78,0-8.67,0-.25,0-.5,0-.76a1.58,1.58,0,0,0-1.7-1.69A14.18,14.18,0,0,0,366.35,455.31Z"/>
            <path class="a4d4d910-cccf-4ea6-aeb1-dc4b989fc958" d="M326.47,466.75a12.54,12.54,0,0,1-4.1-.05l-.17,0a4.5,4.5,0,0,1-3.72-3.74,14.4,14.4,0,0,1,0-6.06,4.63,4.63,0,0,1,4.15-4.08,12.53,12.53,0,0,1,5.77.41c.67.2.74.33.57,1-.32,1.39-.09,1.16-1.47.91a16.12,16.12,0,0,0-3.32-.27,2.69,2.69,0,0,0-2.74,2.37,12.87,12.87,0,0,0-.09,4.63c.34,2.09,1.25,2.88,3.42,2.89a18.34,18.34,0,0,0,3.2-.42c.69-.13.73-.15.89.51.33,1.33.31,1.41-1.05,1.69C327.34,466.61,326.91,466.69,326.47,466.75Z"/>
            <path class="a4d4d910-cccf-4ea6-aeb1-dc4b989fc958" d="M355.31,455.47v3.32c0,2.36,0,4.73,0,7.1,0,.69-.06.75-.73.75s-1.08,0-1.62,0-.62-.17-.62-.61c0-.88,0-1.77,0-2.65v-7.86c0-1.38.24-1.7,1.58-2.13a24.5,24.5,0,0,1,6.83-.75c.47,0,.66,0,.68.67s0,.86,0,1.18c0,.6-.11.83-.92.77A35.61,35.61,0,0,0,355.31,455.47Z"/>
            <path class="a4d4d910-cccf-4ea6-aeb1-dc4b989fc958" d="M349.29,450.38c0,.44-.2.61-.55.62-.6,0-1.19,0-1.79,0a.56.56,0,0,1-.6-.62v-1.84a.51.51,0,0,1,.54-.55c.63,0,1.26,0,1.89,0,.35,0,.5.09.5.56C349.28,448.83,349.29,449.93,349.29,450.38Z"/>
          </g>
          <path class="a4d4d910-cccf-4ea6-aeb1-dc4b989fc958" d="M348.62,453.13H347a.67.67,0,0,0-.68.67v10.59l1.47-1.39,1.47,1.39V453.8A.67.67,0,0,0,348.62,453.13Z"/>
        </g>
      </g>
      <g>
        <path class="bc09cf04-6bea-4c03-a681-7c6efa3c82d8" d="M305.43,520.65a140.34,140.34,0,0,0,40.78,7.65A140.34,140.34,0,0,0,387,520.65v0a13.56,13.56,0,0,0-1-5.45,137.48,137.48,0,0,1-39.76,7.46,137.54,137.54,0,0,1-39.77-7.46,13.56,13.56,0,0,0-1,5.45Z"/>
        <g>
          <rect class="a26cabd4-6eeb-46ed-b6e9-f755e404342f" x="318.38" y="512.22" width="2.44" height="25.02" rx="0.22" transform="matrix(0.98, 0.17, -0.17, 0.98, 95.47, -47.33)"/>
          <path class="a568e75b-f6c0-4482-b14e-302706256d34" d="M316.76,540.9a2.34,2.34,0,1,1,2.71-1.9A2.34,2.34,0,0,1,316.76,540.9Zm.6-3.41a1.12,1.12,0,0,0-.39,2.21,1.12,1.12,0,0,0,.39-2.21Z"/>
          <g>
            <path class="a568e75b-f6c0-4482-b14e-302706256d34" d="M322.25,508.91l.53,2.26a.58.58,0,0,1-.43.7l-1.05.25a.6.6,0,0,1-.7-.44l-.54-2.3a2.79,2.79,0,0,0,1.15,5,2.78,2.78,0,0,0,1-5.47Z"/>
            <path class="a568e75b-f6c0-4482-b14e-302706256d34" d="M321.18,514.55a3,3,0,0,1-2.4-3.43,2.9,2.9,0,0,1,1.18-1.88.16.16,0,0,1,.16,0,.16.16,0,0,1,.11.13l.54,2.3a.41.41,0,0,0,.49.31l1.05-.25a.4.4,0,0,0,.3-.49l-.53-2.26a.18.18,0,0,1,.05-.16.16.16,0,0,1,.16-.05,3,3,0,0,1-1.11,5.81ZM320,509.69a2.58,2.58,0,0,0-.84,1.49,2.61,2.61,0,1,0,3.37-2l.46,2a.75.75,0,0,1-.56.91l-1.05.25a.77.77,0,0,1-.91-.57Z"/>
          </g>
        </g>
        <g>
          <rect class="a26cabd4-6eeb-46ed-b6e9-f755e404342f" x="373.66" y="527.31" width="12.91" height="0.93" transform="translate(907.89 147.66) rotate(90)"/>
          <path class="a26cabd4-6eeb-46ed-b6e9-f755e404342f" d="M380.79,537.12V535l-.23-1.23a.13.13,0,0,0-.14-.11h-.62a.13.13,0,0,0-.13.11l-.23,1.23v2.1a.14.14,0,0,0,.14.14h1.08A.14.14,0,0,0,380.79,537.12Z"/>
          <path class="a568e75b-f6c0-4482-b14e-302706256d34" d="M379.43,535v2.08a.14.14,0,0,0,.14.14h1.08a.14.14,0,0,0,.14-.14V535h-1.35Z"/>
          <rect class="bcdc2605-d569-491c-9b48-a5e7ed86d918" x="372.3" y="513.53" width="15.66" height="3.5" rx="1.12" transform="translate(895.41 135.16) rotate(90)"/>
          <rect class="bdaaaa9b-3459-4867-bd12-07c8bea90a0b" x="374.7" y="515.04" width="13.03" height="0.46" rx="0.17" transform="translate(896.48 134.06) rotate(90)"/>
          <rect class="bdaaaa9b-3459-4867-bd12-07c8bea90a0b" x="373.6" y="515.04" width="13.03" height="0.46" rx="0.17" transform="translate(895.38 135.16) rotate(90)"/>
          <rect class="bdaaaa9b-3459-4867-bd12-07c8bea90a0b" x="372.5" y="515.04" width="13.03" height="0.46" rx="0.17" transform="translate(894.28 136.25) rotate(90)"/>
        </g>
        <g>
          <rect class="a26cabd4-6eeb-46ed-b6e9-f755e404342f" x="313.61" y="508.51" width="3.35" height="26.26" rx="0.3"/>
          <path class="a568e75b-f6c0-4482-b14e-302706256d34" d="M315.28,540.13a3.22,3.22,0,1,1,3.22-3.21A3.22,3.22,0,0,1,315.28,540.13Zm0-4.75a1.54,1.54,0,1,0,1.54,1.54A1.54,1.54,0,0,0,315.28,535.38Z"/>
          <g>
            <path class="a568e75b-f6c0-4482-b14e-302706256d34" d="M315.11,503.65l1.26,2.93a.81.81,0,0,1-.42,1.05l-1.36.58a.79.79,0,0,1-1-.42l-1.28-3a3.83,3.83,0,1,0,2.85-1.15Z"/>
            <path class="a568e75b-f6c0-4482-b14e-302706256d34" d="M315,511.54a4.07,4.07,0,0,1-2.91-6.91.22.22,0,0,1,.21-.06.22.22,0,0,1,.18.14l1.28,3a.56.56,0,0,0,.73.29l1.36-.58a.55.55,0,0,0,.3-.73l-1.26-2.94a.27.27,0,0,1,0-.23.24.24,0,0,1,.21-.1,4.07,4.07,0,0,1-.12,8.13Zm-2.81-6.3a3.54,3.54,0,0,0-.78,2.23,3.59,3.59,0,0,0,7.18,0,3.55,3.55,0,0,0-3.1-3.55l1.1,2.57a1,1,0,0,1-.55,1.36l-1.36.58a1,1,0,0,1-1.36-.54Z"/>
          </g>
        </g>
        <rect class="be90c12a-820d-464e-bdc2-d3535fcfac1e" x="365.32" y="519.3" width="2.61" height="28.31" rx="0.89"/>
        <path class="bc09cf04-6bea-4c03-a681-7c6efa3c82d8" d="M363.35,521c1.62,0,7,.06,7.48-.19s.35,3.35.35,3.35-2.48,1.87-10.32,1.28S363.35,521,363.35,521Z"/>
        <rect class="abd314ae-a7da-4171-9177-9f7e2ac46a20" x="359.73" y="517.05" width="3.03" height="4.48" rx="0.92"/>
        <path class="abd314ae-a7da-4171-9177-9f7e2ac46a20" d="M367.71,517.6a7.46,7.46,0,0,1,7,4.76h-.91c-3.39-3.85-4.27-1.82-6-1.82S362.35,517.6,367.71,517.6Z"/>
        <g>
          <rect class="a26cabd4-6eeb-46ed-b6e9-f755e404342f" x="370.27" y="510.6" width="12.91" height="0.93" transform="translate(-30.68 998.02) rotate(-103.69)"/>
          <path class="a26cabd4-6eeb-46ed-b6e9-f755e404342f" d="M373.85,502.14l.49,2v0l.51,1.14a.15.15,0,0,0,.16.08l.61-.15a.13.13,0,0,0,.1-.14l-.06-1.25v0l-.49-2a.14.14,0,0,0-.17-.1L374,502A.14.14,0,0,0,373.85,502.14Z"/>
          <path class="a568e75b-f6c0-4482-b14e-302706256d34" d="M375.66,503.83l-.49-2a.14.14,0,0,0-.17-.1L374,502a.14.14,0,0,0-.1.17l.49,2v0l1.32-.32Z"/>
          <rect class="bcdc2605-d569-491c-9b48-a5e7ed86d918" x="371.84" y="521.45" width="15.66" height="3.5" rx="1.12" transform="translate(-38.83 1015.89) rotate(-103.69)"/>
          <rect class="bdaaaa9b-3459-4867-bd12-07c8bea90a0b" x="372.1" y="523.24" width="13.03" height="0.46" rx="0.17" transform="translate(-40.39 1015.2) rotate(-103.69)"/>
          <rect class="bdaaaa9b-3459-4867-bd12-07c8bea90a0b" x="373.16" y="522.98" width="13.03" height="0.46" rx="0.17" transform="translate(-38.82 1015.92) rotate(-103.69)"/>
          <rect class="bdaaaa9b-3459-4867-bd12-07c8bea90a0b" x="374.23" y="522.72" width="13.03" height="0.46" rx="0.17" transform="translate(-37.25 1016.63) rotate(-103.69)"/>
        </g>
        <path class="bdcc963c-b12a-42c1-bd47-0163f9d615d1" d="M375.78,542.79h11.08c.32,0,.59-.5.59-1.1V518.75c0-.6-.58-3-.91-3l-11.16,3.3c-.33,0-.53-.15-.53.45l.33,22.16C375.18,542.29,375.45,542.79,375.78,542.79Z"/>
        <path class="bc09cf04-6bea-4c03-a681-7c6efa3c82d8" d="M327.94,544.57H307.57a1.09,1.09,0,0,1-1.09-1.1V520.54c0-.61,1.06-3,1.67-3l19.9,5.37c.61,0,1-.15,1,.45v20.08A1.1,1.1,0,0,1,327.94,544.57Z"/>
      </g>
      <g>
        <path class="ee4a76ce-0664-40f2-9a2c-7e2846af95e4" d="M314,480.76v-5.9a.54.54,0,0,1,.55-.55.55.55,0,0,1,.56.55v2.4h2.59v-2.4a.54.54,0,0,1,.55-.55.55.55,0,0,1,.56.55v5.9a.55.55,0,0,1-.56.55.54.54,0,0,1-.55-.55v-2.4h-2.59v2.4a.55.55,0,0,1-.56.55A.54.54,0,0,1,314,480.76Z"/>
        <path class="ee4a76ce-0664-40f2-9a2c-7e2846af95e4" d="M325.16,478.82v2a.53.53,0,0,1-.53.53.54.54,0,0,1-.52-.43,2.27,2.27,0,0,1-1.33.43,2.32,2.32,0,0,1-1.7-.73,2.56,2.56,0,0,1-.68-1.76,2.52,2.52,0,0,1,.68-1.76,2.3,2.3,0,0,1,1.7-.75,2.28,2.28,0,0,1,1.33.44.54.54,0,0,1,.52-.44.54.54,0,0,1,.53.54Zm-1.06,0a1.47,1.47,0,0,0-.39-1,1.24,1.24,0,0,0-.93-.41,1.21,1.21,0,0,0-.93.41,1.46,1.46,0,0,0-.38,1,1.5,1.5,0,0,0,.38,1,1.26,1.26,0,0,0,.93.39,1.29,1.29,0,0,0,.93-.39A1.51,1.51,0,0,0,324.1,478.82Z"/>
        <path class="ee4a76ce-0664-40f2-9a2c-7e2846af95e4" d="M331.19,478.39v2.39a.52.52,0,0,1-.52.53.54.54,0,0,1-.53-.53v-2.39a1,1,0,0,0-1-1,1,1,0,0,0-1,1v2.39a.2.2,0,0,1,0,.1.55.55,0,0,1-.53.43.53.53,0,0,1-.53-.53v-3.94a.53.53,0,0,1,.53-.53.54.54,0,0,1,.49.31,2,2,0,0,1,1.06-.31A2.09,2.09,0,0,1,331.19,478.39Z"/>
        <path class="ee4a76ce-0664-40f2-9a2c-7e2846af95e4" d="M337.48,480.77a.54.54,0,0,1-.54.54.54.54,0,0,1-.53-.43,2.44,2.44,0,0,1-1.36.43,2.5,2.5,0,0,1,0-5,2.37,2.37,0,0,1,1.34.42v-1.88a.55.55,0,0,1,1.09,0v4h0Zm-2.43-3.37a1.29,1.29,0,0,0-.94.41,1.45,1.45,0,0,0,0,2,1.29,1.29,0,0,0,.94.41,1.28,1.28,0,0,0,.94-.41,1.45,1.45,0,0,0,0-2A1.28,1.28,0,0,0,335.05,477.4Z"/>
        <path class="ee4a76ce-0664-40f2-9a2c-7e2846af95e4" d="M343.32,476.84v3.78a2.37,2.37,0,0,1-2.39,2.39,2.52,2.52,0,0,1-1-.25.52.52,0,0,1-.26-.71.55.55,0,0,1,.71-.22,1.34,1.34,0,0,0,.58.14,1.32,1.32,0,0,0,1.25-.91,1.94,1.94,0,0,1-.95.24,2.1,2.1,0,0,1-2.09-2.1v-2.36a.53.53,0,0,1,.52-.53.52.52,0,0,1,.53.53v2.36a1,1,0,0,0,2.07,0v-2.36a.51.51,0,0,1,.52-.53A.54.54,0,0,1,343.32,476.84Z"/>
        <path class="ee4a76ce-0664-40f2-9a2c-7e2846af95e4" d="M345.43,482.64v-3.81h0v-2a.53.53,0,0,1,.53-.53.55.55,0,0,1,.55.41,2.54,2.54,0,0,1,1.36-.41,2.48,2.48,0,0,1,2.42,2.51,2.45,2.45,0,0,1-2.42,2.48,2.31,2.31,0,0,1-1.34-.41v1.75a.56.56,0,0,1-.57.54A.54.54,0,0,1,345.43,482.64Zm1.1-3.82a1.33,1.33,0,0,0,.39,1,1.24,1.24,0,0,0,.95.42,1.28,1.28,0,0,0,.94-.42,1.46,1.46,0,0,0,.39-1,1.54,1.54,0,0,0-.39-1,1.31,1.31,0,0,0-.94-.41,1.26,1.26,0,0,0-.95.41A1.4,1.4,0,0,0,346.53,478.82Z"/>
        <path class="ee4a76ce-0664-40f2-9a2c-7e2846af95e4" d="M351.58,478.81a2.48,2.48,0,0,1,2.44-2.5,2.39,2.39,0,0,1,2.41,2.32v.05a.28.28,0,0,1,0,.09.48.48,0,0,1-.52.4h-3.18a1.31,1.31,0,0,0,.34.66,1.55,1.55,0,0,0,1,.45,1.63,1.63,0,0,0,1-.25.57.57,0,0,1,.75,0,.46.46,0,0,1,0,.65,2.53,2.53,0,0,1-1.79.66A2.48,2.48,0,0,1,351.58,478.81Zm1.09-.49h2.83a1.63,1.63,0,0,0-1.48-1.06A1.4,1.4,0,0,0,352.67,478.32Z"/>
        <path class="ee4a76ce-0664-40f2-9a2c-7e2846af95e4" d="M360.89,476.84a.53.53,0,0,1-.53.53,1,1,0,0,0-.6.19,1.51,1.51,0,0,0-.46.48,3.07,3.07,0,0,0-.41.84v1.9a.54.54,0,0,1-.55.53.53.53,0,0,1-.53-.53v-3.94a.52.52,0,0,1,.53-.52.54.54,0,0,1,.55.52v.07a1.31,1.31,0,0,1,.21-.2,2.19,2.19,0,0,1,1.26-.39A.52.52,0,0,1,360.89,476.84Z"/>
        <path class="ee4a76ce-0664-40f2-9a2c-7e2846af95e4" d="M362,479.88a.52.52,0,0,1,.75-.08,1.84,1.84,0,0,0,1.1.44,1.33,1.33,0,0,0,.68-.19.41.41,0,0,0,.18-.3.15.15,0,0,0,0-.1s-.05-.07-.13-.12a2.32,2.32,0,0,0-.8-.28h0a3.84,3.84,0,0,1-.87-.26,1.67,1.67,0,0,1-.69-.58,1.21,1.21,0,0,1-.17-.63,1.4,1.4,0,0,1,.59-1.1,2.15,2.15,0,0,1,1.23-.37,2.57,2.57,0,0,1,1.5.55.55.55,0,0,1,.16.74.53.53,0,0,1-.74.14,1.71,1.71,0,0,0-.92-.37,1,1,0,0,0-.6.18.3.3,0,0,0-.16.23.11.11,0,0,0,0,.08.27.27,0,0,0,.11.1,2,2,0,0,0,.73.24h0a3.6,3.6,0,0,1,.93.29,1.55,1.55,0,0,1,.71.59,1.3,1.3,0,0,1,.19.66,1.44,1.44,0,0,1-.63,1.16,2.28,2.28,0,0,1-1.3.4,2.9,2.9,0,0,1-1.78-.69A.53.53,0,0,1,362,479.88Z"/>
        <path class="ee4a76ce-0664-40f2-9a2c-7e2846af95e4" d="M367.58,480.58a2.5,2.5,0,0,1-.69-1.76,2.58,2.58,0,0,1,.69-1.75,2.34,2.34,0,0,1,1.72-.76,2.21,2.21,0,0,1,1.67.76,2.5,2.5,0,0,1,.7,1.75,2.42,2.42,0,0,1-.7,1.76,2.21,2.21,0,0,1-1.67.76A2.34,2.34,0,0,1,367.58,480.58Zm.4-1.76a1.62,1.62,0,0,0,.36,1.06,1.35,1.35,0,0,0,1,.37,1.31,1.31,0,0,0,.92-.37,1.54,1.54,0,0,0,.39-1.06,1.5,1.5,0,0,0-.39-1,1.41,1.41,0,0,0-.92-.38,1.45,1.45,0,0,0-1,.38A1.58,1.58,0,0,0,368,478.82Z"/>
        <path class="ee4a76ce-0664-40f2-9a2c-7e2846af95e4" d="M377.54,478.39v2.39a.52.52,0,0,1-.52.53.54.54,0,0,1-.53-.53v-2.39a1,1,0,0,0-1-1,1,1,0,0,0-1,1v2.39a.2.2,0,0,1,0,.1.55.55,0,0,1-.53.43.53.53,0,0,1-.53-.53v-3.94a.53.53,0,0,1,.53-.53.54.54,0,0,1,.49.31,2,2,0,0,1,1.06-.31A2.09,2.09,0,0,1,377.54,478.39Z"/>
        <path class="ee4a76ce-0664-40f2-9a2c-7e2846af95e4" d="M328,488.57a.52.52,0,0,1,.73-.07,3.26,3.26,0,0,0,1.91.77,2.15,2.15,0,0,0,1.25-.37.9.9,0,0,0,.43-.72.57.57,0,0,0-.09-.32.94.94,0,0,0-.3-.3,4,4,0,0,0-1.37-.47h0a5.41,5.41,0,0,1-1.29-.39,2.15,2.15,0,0,1-.93-.78,1.53,1.53,0,0,1-.23-.82,1.85,1.85,0,0,1,.8-1.46,3,3,0,0,1,1.73-.53,3.92,3.92,0,0,1,2.18.8.51.51,0,0,1,.14.71.51.51,0,0,1-.71.15,2.9,2.9,0,0,0-1.61-.64,1.91,1.91,0,0,0-1.12.34.8.8,0,0,0-.38.63.49.49,0,0,0,.07.28,1,1,0,0,0,.27.26,3.45,3.45,0,0,0,1.25.44h0a5.88,5.88,0,0,1,1.38.42,2.34,2.34,0,0,1,1,.83,1.62,1.62,0,0,1,.24.85,1.94,1.94,0,0,1-.86,1.55,3.13,3.13,0,0,1-1.85.57,4.31,4.31,0,0,1-2.56-1A.53.53,0,0,1,328,488.57Z"/>
        <path class="ee4a76ce-0664-40f2-9a2c-7e2846af95e4" d="M334.38,487.81a2.48,2.48,0,0,1,2.44-2.5,2.39,2.39,0,0,1,2.41,2.32v.05a.28.28,0,0,1,0,.09.48.48,0,0,1-.52.4h-3.18a1.31,1.31,0,0,0,.34.66,1.55,1.55,0,0,0,1,.45,1.63,1.63,0,0,0,1-.25.57.57,0,0,1,.75,0,.46.46,0,0,1,0,.65,2.53,2.53,0,0,1-1.79.66A2.48,2.48,0,0,1,334.38,487.81Zm1.09-.49h2.83a1.63,1.63,0,0,0-1.48-1.06A1.4,1.4,0,0,0,335.47,487.32Z"/>
        <path class="ee4a76ce-0664-40f2-9a2c-7e2846af95e4" d="M343.69,485.84a.53.53,0,0,1-.53.53,1,1,0,0,0-.6.19,1.51,1.51,0,0,0-.46.48,3.07,3.07,0,0,0-.41.84v1.9a.54.54,0,0,1-.55.53.53.53,0,0,1-.53-.53v-3.94a.52.52,0,0,1,.53-.52.54.54,0,0,1,.55.52v.07a1.31,1.31,0,0,1,.21-.2,2.19,2.19,0,0,1,1.26-.39A.52.52,0,0,1,343.69,485.84Z"/>
        <path class="ee4a76ce-0664-40f2-9a2c-7e2846af95e4" d="M349,486.11,347.31,490a.21.21,0,0,1,0,.07h0l-.06.07h0a.34.34,0,0,1-.06.06,0,0,0,0,0,0,0,.18.18,0,0,1-.07,0h0l-.08,0h-.23l-.08,0h0l-.09,0a0,0,0,0,0,0,0l-.06-.06h0l-.05-.07h0s0,0,0-.07l-1.62-3.88a.51.51,0,0,1,.29-.68.51.51,0,0,1,.67.29l1.15,2.72,1.16-2.72a.52.52,0,1,1,1,.39Z"/>
        <path class="ee4a76ce-0664-40f2-9a2c-7e2846af95e4" d="M351.91,484.06a.54.54,0,0,1-.54.55.55.55,0,0,1-.54-.55v-.21a.54.54,0,0,1,.54-.54.53.53,0,0,1,.54.54Zm0,1.81v3.9a.53.53,0,0,1-.54.54.54.54,0,0,1-.54-.54v-3.9a.53.53,0,0,1,.54-.55A.53.53,0,0,1,351.91,485.87Z"/>
        <path class="ee4a76ce-0664-40f2-9a2c-7e2846af95e4" d="M353.28,487.82a2.54,2.54,0,0,1,2.54-2.51,2.64,2.64,0,0,1,1.59.55.55.55,0,0,1,.11.74.53.53,0,0,1-.75.1,1.6,1.6,0,0,0-.95-.32,1.44,1.44,0,1,0,0,2.87,1.62,1.62,0,0,0,.95-.32.54.54,0,0,1,.75.11.55.55,0,0,1-.11.74,2.75,2.75,0,0,1-1.59.53A2.53,2.53,0,0,1,353.28,487.82Z"/>
        <path class="ee4a76ce-0664-40f2-9a2c-7e2846af95e4" d="M358.84,487.81a2.48,2.48,0,0,1,2.44-2.5,2.39,2.39,0,0,1,2.41,2.32v.05a.28.28,0,0,1,0,.09.48.48,0,0,1-.52.4H360a1.31,1.31,0,0,0,.34.66,1.55,1.55,0,0,0,1,.45,1.63,1.63,0,0,0,1-.25.57.57,0,0,1,.75,0,.46.46,0,0,1,0,.65,2.53,2.53,0,0,1-1.79.66A2.48,2.48,0,0,1,358.84,487.81Zm1.09-.49h2.83a1.63,1.63,0,0,0-1.48-1.06A1.4,1.4,0,0,0,359.93,487.32Z"/>
      </g>
    </g>
  </g>
  <path class="a4d4d910-cccf-4ea6-aeb1-dc4b989fc958" d="M68.07,174.14l13.67,24.51,27.82,5.28L90.2,224.36l3.51,27.78L68.07,240.25,42.42,252.14l3.52-27.78L26.57,203.93l27.82-5.28,13.68-24.51"/>
  <path class="a4d4d910-cccf-4ea6-aeb1-dc4b989fc958" d="M126.35,64.36l16.74,30,34,6.46-23.7,25,4.3,34-31.39-14.55L95,159.84l4.3-34-23.7-25,34.05-6.46,16.75-30"/>
  <path class="a4d4d910-cccf-4ea6-aeb1-dc4b989fc958" d="M229.44,8.51,250,45.42l41.88,7.95L262.77,84.13,268.06,126l-38.62-17.9L190.83,126l5.29-41.82L167,53.37l41.89-7.95L229.44,8.51"/>
  <path class="a4d4d910-cccf-4ea6-aeb1-dc4b989fc958" d="M392.17,172.7l13.67,24.52,27.82,5.28L414.3,222.93l3.51,27.77-25.64-11.89L366.52,250.7,370,222.93,350.67,202.5l27.82-5.28,13.68-24.52"/>
  <path class="a4d4d910-cccf-4ea6-aeb1-dc4b989fc958" d="M338.81,66.59l16.74,30,34.05,6.46-23.7,25,4.3,34-31.39-14.56-31.4,14.56,4.3-34-23.7-25,34.05-6.46,16.75-30"/>
  <g>
    <g>
      <g>
        <line class="aec2868d-c34d-4bbe-85b0-182282b5cfae" x1="152.44" y1="342.28" x2="152.44" y2="384.97"/>
        <path class="b14c15b3-3c03-46c5-b898-4f646ccf0ebc" d="M191.74,372.41H184a36.45,36.45,0,0,0-8.86-1.13H127.77a36.37,36.37,0,0,0-8.85,1.13h-5.21A38.5,38.5,0,0,0,75.33,410.8v76.64a38.49,38.49,0,0,0,38.38,38.39h78a38.5,38.5,0,0,0,38.39-38.39V410.8A38.51,38.51,0,0,0,191.74,372.41Z"/>
        <circle class="a919addc-fa1a-4748-ba32-59bd1ebc8c52" cx="152.45" cy="303.41" r="61.63"/>
        <rect class="a696e5a1-c211-4c5b-bbcc-84b37098a3d7" x="120.41" y="291" width="13.37" height="7.2" rx="1.48"/>
        <rect class="a696e5a1-c211-4c5b-bbcc-84b37098a3d7" x="171.1" y="291" width="13.37" height="7.2" rx="1.48"/>
        <circle class="e664f06f-2c36-477c-99ee-e3ab24dad194" cx="177.79" cy="294.61" r="2.86"/>
        <line class="a4e78740-dff0-4128-9da6-3abf0bc8f318" x1="120.41" y1="279.17" x2="138.76" y2="279.17"/>
        <g class="f70d2759-8cd0-41e1-9a14-3439570f3e69">
          <circle class="e664f06f-2c36-477c-99ee-e3ab24dad194" cx="127.1" cy="294.61" r="2.81"/>
        </g>
        <path class="af060d5f-c3f2-440c-9b1b-faea4880d57e" d="M156.94,310.92h-4.09a2.73,2.73,0,0,1-2.81-2.77v-4"/>
        <path class="b14c15b3-3c03-46c5-b898-4f646ccf0ebc" d="M128.47,654.64H77.27c0-80.32,17.62-153,18.37-156.06l49.73,12.2h0C145.07,512,128.47,581,128.47,654.64Z"/>
        <path class="b14c15b3-3c03-46c5-b898-4f646ccf0ebc" d="M228.19,654.64H177c0-73.92-16.72-143.17-16.89-143.86l49.72-12.2C210.57,501.64,228.19,574.32,228.19,654.64Z"/>
        <path class="a26cabd4-6eeb-46ed-b6e9-f755e404342f" d="M128.65,650.23H72.56a15.91,15.91,0,0,0-15.92,15.91v5.47H129.1Z"/>
        <circle class="a39c0dfe-22ff-4f78-a1b7-48bf046b73b9" cx="92.93" cy="310.29" r="10.68"/>
        <circle class="a39c0dfe-22ff-4f78-a1b7-48bf046b73b9" cx="211.51" cy="310.29" r="10.68"/>
        <line class="a4e78740-dff0-4128-9da6-3abf0bc8f318" x1="165.75" y1="279.17" x2="184.11" y2="279.17"/>
        <path class="a26cabd4-6eeb-46ed-b6e9-f755e404342f" d="M177,650.23h56.1A15.91,15.91,0,0,1,249,666.14v5.47H176.57Z"/>
        <path class="b14c15b3-3c03-46c5-b898-4f646ccf0ebc" d="M128.46,539.6a186.49,186.49,0,0,1-29.23-26.06C78.82,491.17,67.76,468.12,66.35,445s6.73-45,24.18-65l26.05,22.83c-10,11.55-14.52,23.13-13.78,35.51,1.85,31,35.57,60.74,48.4,69.61Z"/>
        <path class="b14c15b3-3c03-46c5-b898-4f646ccf0ebc" d="M156.11,535.35a187,187,0,0,0,33.15-20.85c23.83-18.67,38.57-39.58,43.8-62.13s.81-45.47-13.07-68.12l-29.48,18.2c8,13.05,10.48,25.21,7.7,37.29-7,30.22-45.15,54-59.28,60.63Z"/>
        <rect class="b14c15b3-3c03-46c5-b898-4f646ccf0ebc" x="79.49" y="495.7" width="146.48" height="56.71" rx="8.45"/>
        <path class="af060d5f-c3f2-440c-9b1b-faea4880d57e" d="M144.11,340.5a22.45,22.45,0,0,0,16.73,0"/>
        <path class="e8b76eb2-4aca-4ec7-8b7f-fb362563deff" d="M206.91,296.18l-.42.39c-55.17,50.42-106.88.54-107.4,0l-.43-.42-7.53.88a2.65,2.65,0,0,0-2.34,2.66c.44,26,9.81,43.15,17.72,51.1,10.92,11,26.47,16.55,46.22,16.57s35.29-5.59,46.21-16.56c7.92-8,17.31-24.76,17.72-50.78a2.66,2.66,0,0,0-2.22-2.65ZM162.49,345a27.89,27.89,0,0,1-9.81,1.78,25.84,25.84,0,0,1-10.43-2.07,4.88,4.88,0,0,1,4.19-8.81,17.53,17.53,0,0,0,12.89-.13,4.88,4.88,0,0,1,6.43,3.13A5.12,5.12,0,0,1,162.49,345Z"/>
        <path class="ef061620-7927-482c-889a-856bce0806f6" d="M152.74,268.38H101.12l-8.19,41V282.89a50.17,50.17,0,0,1,49.85-50.16h20.14a50.17,50.17,0,0,1,49.85,50.16v26.47l-8.19-41H152.74"/>
        <path class="aa6aa4f7-122d-457f-b294-098afbf85f62" d="M79.49,516.61c27.9,9.41,52.5,13.13,73.24,13.74,20.73-.61,45.33-4.33,73.24-13.74v.06a24.18,24.18,0,0,0-1.83-9.78c-27.21,9.17-51.19,12.8-71.41,13.4-20.23-.6-44.21-4.23-71.42-13.4a24.3,24.3,0,0,0-1.82,9.78Z"/>
        <g>
          <rect class="a26cabd4-6eeb-46ed-b6e9-f755e404342f" x="102.75" y="501.48" width="4.38" height="44.93" rx="0.22" transform="translate(92.11 -10.25) rotate(9.95)"/>
          <path class="a568e75b-f6c0-4482-b14e-302706256d34" d="M99.84,553a4.2,4.2,0,1,1,4.87-3.42A4.21,4.21,0,0,1,99.84,553Zm1.08-6.13a2,2,0,1,0,1.63,2.33A2,2,0,0,0,100.92,546.86Z"/>
          <g>
            <path class="a568e75b-f6c0-4482-b14e-302706256d34" d="M109.7,495.52l1,4.07a1,1,0,0,1-.78,1.25l-1.88.44a1,1,0,0,1-1.25-.78l-1-4.14a5,5,0,1,0,3.93-.84Z"/>
            <path class="a568e75b-f6c0-4482-b14e-302706256d34" d="M107.78,505.65a5.31,5.31,0,0,1-2.2-9.54.31.31,0,0,1,.49.18l1,4.14a.73.73,0,0,0,.88.55l1.88-.44a.73.73,0,0,0,.55-.88l-.95-4.07a.29.29,0,0,1,.08-.29.34.34,0,0,1,.28-.09,5.31,5.31,0,0,1-2,10.44Zm-2.2-8.73a4.69,4.69,0,1,0,4.54-1l.84,3.56a1.37,1.37,0,0,1-1,1.64l-1.88.44a1.37,1.37,0,0,1-1.64-1Z"/>
          </g>
        </g>
        <g>
          <rect class="a26cabd4-6eeb-46ed-b6e9-f755e404342f" x="202.03" y="528.57" width="23.19" height="1.66" transform="translate(743.03 315.77) rotate(90)"/>
          <path class="a26cabd4-6eeb-46ed-b6e9-f755e404342f" d="M214.85,546.2v-3.78l-.42-2.21a.24.24,0,0,0-.24-.2h-1.12a.24.24,0,0,0-.24.2l-.42,2.21v3.78a.25.25,0,0,0,.25.25h1.94A.25.25,0,0,0,214.85,546.2Z"/>
          <path class="a568e75b-f6c0-4482-b14e-302706256d34" d="M212.41,542.47v3.73a.25.25,0,0,0,.25.25h1.94a.25.25,0,0,0,.25-.25v-3.78h-2.44Z"/>
          <rect class="bcdc2605-d569-491c-9b48-a5e7ed86d918" x="199.59" y="503.83" width="28.12" height="6.29" rx="1.12" transform="translate(720.62 293.32) rotate(90)"/>
          <rect class="bdaaaa9b-3459-4867-bd12-07c8bea90a0b" x="203.9" y="506.53" width="23.41" height="0.83" rx="0.17" transform="translate(722.55 291.34) rotate(90)"/>
          <rect class="bdaaaa9b-3459-4867-bd12-07c8bea90a0b" x="201.92" y="506.53" width="23.41" height="0.83" rx="0.17" transform="translate(720.58 293.32) rotate(90)"/>
          <rect class="bdaaaa9b-3459-4867-bd12-07c8bea90a0b" x="199.95" y="506.53" width="23.41" height="0.83" rx="0.17" transform="translate(718.6 295.29) rotate(90)"/>
        </g>
        <g>
          <rect class="a26cabd4-6eeb-46ed-b6e9-f755e404342f" x="94.17" y="494.8" width="6.02" height="47.16" rx="0.3"/>
          <path class="a568e75b-f6c0-4482-b14e-302706256d34" d="M97.18,551.61a5.78,5.78,0,1,1,5.77-5.78A5.79,5.79,0,0,1,97.18,551.61Zm0-8.55a2.77,2.77,0,1,0,2.77,2.77A2.77,2.77,0,0,0,97.18,543.06Z"/>
          <g>
            <path class="a568e75b-f6c0-4482-b14e-302706256d34" d="M96.88,486.07l2.25,5.27a1.44,1.44,0,0,1-.76,1.89l-2.43,1a1.45,1.45,0,0,1-1.89-.75l-2.3-5.38a6.88,6.88,0,1,0,5.13-2.07Z"/>
            <path class="a568e75b-f6c0-4482-b14e-302706256d34" d="M96.68,500.24a7.31,7.31,0,0,1-5.24-12.4.43.43,0,0,1,.39-.12.45.45,0,0,1,.32.25l2.29,5.38a1,1,0,0,0,1.33.53l2.44-1a1,1,0,0,0,.53-1.33l-2.26-5.27a.43.43,0,0,1,.41-.6,7.3,7.3,0,0,1-.21,14.6Zm-5.06-11.3a6.44,6.44,0,1,0,5.93-2.39l2,4.63a1.88,1.88,0,0,1-1,2.45l-2.44,1a1.88,1.88,0,0,1-2.45-1Z"/>
          </g>
        </g>
        <path class="aa6aa4f7-122d-457f-b294-098afbf85f62" d="M118.05,559.35H81.46a2,2,0,0,1-2-2v-41.2c0-1.08,1.92-5.34,3-5.34l35.75,9.66c1.09,0,1.78-.28,1.78.81v36.07A2,2,0,0,1,118.05,559.35Z"/>
        <rect class="faf9a58b-75e6-4c70-b60f-8c9db5ee4c82" x="187.06" y="514.18" width="4.7" height="50.85" rx="0.89"/>
        <rect class="fa8d1783-11a6-4466-8904-c07c9e148331" x="178.9" y="511.14" width="14.93" height="5.29" rx="1.08"/>
        <path class="aa6aa4f7-122d-457f-b294-098afbf85f62" d="M183.53,517.2c2.89,0,12.51.11,13.42-.34s.63,6,.63,6-4.44,3.35-18.53,2.28S183.53,517.2,183.53,517.2Z"/>
        <rect class="fa8d1783-11a6-4466-8904-c07c9e148331" x="177.02" y="510.15" width="5.45" height="8.05" rx="0.92"/>
        <path class="fa8d1783-11a6-4466-8904-c07c9e148331" d="M191.35,511.14a13.41,13.41,0,0,1,12.58,8.54h-1.64c-6.09-6.92-7.67-3.26-10.71-3.26S181.72,511.14,191.35,511.14Z"/>
        <g>
          <rect class="a26cabd4-6eeb-46ed-b6e9-f755e404342f" x="195.94" y="498.56" width="23.19" height="1.66" transform="translate(-228.55 819.2) rotate(-103.69)"/>
          <path class="a26cabd4-6eeb-46ed-b6e9-f755e404342f" d="M202.38,483.36l.88,3.63,0,0,.92,2.05a.26.26,0,0,0,.29.13l1.08-.26a.24.24,0,0,0,.19-.25l-.12-2.25a.06.06,0,0,0,0,0l-.88-3.63a.24.24,0,0,0-.3-.18l-1.89.46A.25.25,0,0,0,202.38,483.36Z"/>
          <path class="a568e75b-f6c0-4482-b14e-302706256d34" d="M205.63,486.41l-.88-3.63a.24.24,0,0,0-.3-.18l-1.89.46a.25.25,0,0,0-.18.3l.88,3.63,0,0,2.36-.58A.06.06,0,0,0,205.63,486.41Z"/>
          <rect class="bcdc2605-d569-491c-9b48-a5e7ed86d918" x="198.76" y="518.05" width="28.12" height="6.29" rx="1.12" transform="translate(-243.2 851.3) rotate(-103.69)"/>
          <rect class="bdaaaa9b-3459-4867-bd12-07c8bea90a0b" x="199.23" y="521.26" width="23.41" height="0.83" rx="0.17" transform="translate(-246.01 850.06) rotate(-103.69)"/>
          <rect class="bdaaaa9b-3459-4867-bd12-07c8bea90a0b" x="201.15" y="520.79" width="23.41" height="0.83" rx="0.17" transform="translate(-243.18 851.35) rotate(-103.69)"/>
          <rect class="bdaaaa9b-3459-4867-bd12-07c8bea90a0b" x="203.06" y="520.33" width="23.41" height="0.83" rx="0.17" transform="translate(-240.36 852.64) rotate(-103.69)"/>
        </g>
        <path class="bdcc963c-b12a-42c1-bd47-0163f9d615d1" d="M205.84,556.37h19.9c.59,0,1.07-.88,1.07-2V513.21c0-1.09-1-5.34-1.63-5.34l-20.05,5.92c-.59,0-1-.28-1,.81l.6,39.8C204.77,555.49,205.25,556.37,205.84,556.37Z"/>
        <path class="a919addc-fa1a-4748-ba32-59bd1ebc8c52" d="M174.31,370.47c0,2.84-9.78,5.15-21.83,5.15s-21.83-2.31-21.83-5.15"/>
        <rect class="ed17c672-9fdf-4e6c-b0a0-3f9af91c8c46" x="124.67" y="481.42" width="26.75" height="26.75" rx="3.73"/>
        <rect class="ed17c672-9fdf-4e6c-b0a0-3f9af91c8c46" x="165.53" y="479.59" width="26.75" height="26.75" rx="3.73" transform="translate(357.81 985.94) rotate(180)"/>
      </g>
      <g>
        <g>
          <path class="a4d4d910-cccf-4ea6-aeb1-dc4b989fc958" d="M145.62,423.46V422.2c0-1.49-.54-2-2-2.22a19,19,0,0,0-7,.73c-.82.19-.89.17-1.06-.62-.38-1.88-.76-1.72,1.36-2.22a20.29,20.29,0,0,1,8.77-.42c1.56.31,2.88,1,3.31,2.7a6.61,6.61,0,0,1,.19,1.6c0,3.15,0,7.91,0,8.71a20.38,20.38,0,0,1-.08,2.05c-.13.92-.6,1.16-1.42,1.55a11.71,11.71,0,0,1-3.73.75,22.28,22.28,0,0,1-5.54-.22c-3.21-.55-4.34-2.74-4-5.83.24-2.69,1.56-3.79,4.59-4.2,1.1-.15,2.2-.35,3.3-.54Zm0,2.54c-2,.36-4,.67-5.9,1.08a2.09,2.09,0,0,0-1.21.85,2.85,2.85,0,0,0,1.75,4.28,10.62,10.62,0,0,0,5.36-.31Z"/>
          <path class="a4d4d910-cccf-4ea6-aeb1-dc4b989fc958" d="M177.83,420.46v13.17c0,.79-.09.87-.91.87-.62,0-1.18-.05-1.88,0s-.88-.07-.89-.88V422.34c0-.72,0-1.44,0-2.15a1.69,1.69,0,0,1,1.25-1.78,25.23,25.23,0,0,1,3.62-.91,20.8,20.8,0,0,1,5.95-.21c2.45.31,3.84,1.66,3.88,4.12.07,4.14,0,8.28,0,12.42,0,.48-.18.69-.68.68-.71,0-1.43,0-2.15,0s-.85-.26-.84-.88c0-3.58,0-7.17,0-10.75,0-.31,0-.63,0-.94a2,2,0,0,0-2.1-2.1A18.06,18.06,0,0,0,177.83,420.46Z"/>
          <path class="a4d4d910-cccf-4ea6-aeb1-dc4b989fc958" d="M128.41,434.64a15.74,15.74,0,0,1-5.08-.06l-.22,0a5.57,5.57,0,0,1-4.61-4.63,17.82,17.82,0,0,1,0-7.52,5.73,5.73,0,0,1,5.14-5.05,15.64,15.64,0,0,1,7.16.5c.83.26.91.41.71,1.27-.41,1.72-.12,1.44-1.83,1.13a20.35,20.35,0,0,0-4.12-.34,3.34,3.34,0,0,0-3.39,2.94,15.83,15.83,0,0,0-.11,5.74c.42,2.59,1.54,3.57,4.24,3.58a22.5,22.5,0,0,0,4-.52c.85-.16.9-.18,1.1.63.41,1.65.38,1.75-1.3,2.09C129.48,434.47,128.94,434.56,128.41,434.64Z"/>
          <path class="a4d4d910-cccf-4ea6-aeb1-dc4b989fc958" d="M164.15,420.66v12.91c0,.86-.07.93-.91.93-.67,0-1.34,0-2,0s-.77-.21-.76-.75c0-1.09,0-2.19,0-3.29,0-3.24,0-6.49,0-9.73,0-1.72.29-2.11,2-2.64a30.49,30.49,0,0,1,8.48-.94c.58,0,.81,0,.83.84s0,1.06,0,1.46c0,.75-.13,1-1.13,1A44.83,44.83,0,0,0,164.15,420.66Z"/>
          <path class="a4d4d910-cccf-4ea6-aeb1-dc4b989fc958" d="M156.68,414.35c0,.54-.24.76-.68.77-.74,0-1.47,0-2.21,0a.68.68,0,0,1-.74-.76c0-1.14,0-1.15,0-2.29a.6.6,0,0,1,.66-.67c.78,0,1.56,0,2.34,0,.44,0,.63.12.63.7Z"/>
        </g>
        <path class="a4d4d910-cccf-4ea6-aeb1-dc4b989fc958" d="M155.85,417.76h-2a.84.84,0,0,0-.84.83v13.12l1.82-1.71,1.83,1.71V418.59A.84.84,0,0,0,155.85,417.76Z"/>
      </g>
      <g>
        <path class="ee4a76ce-0664-40f2-9a2c-7e2846af95e4" d="M99.7,454.58V444.34a1,1,0,0,1,1.93,0v4.16h4.49v-4.16a.94.94,0,0,1,1-.95,1,1,0,0,1,1,.95v10.24a1,1,0,0,1-1,.95,1,1,0,0,1-1-.95v-4.17h-4.49v4.17a1,1,0,0,1-1.93,0Z"/>
        <path class="ee4a76ce-0664-40f2-9a2c-7e2846af95e4" d="M119.15,451.21v3.4a.92.92,0,0,1-.92.92,1,1,0,0,1-.9-.75,3.94,3.94,0,0,1-2.31.75,4,4,0,0,1-3-1.27,4.44,4.44,0,0,1-1.17-3.05,4.38,4.38,0,0,1,1.17-3,4,4,0,0,1,3-1.31,4,4,0,0,1,2.31.77,1,1,0,0,1,.9-.77.93.93,0,0,1,.92.94Zm-1.84,0a2.59,2.59,0,0,0-.67-1.79,2.15,2.15,0,0,0-1.62-.71,2.09,2.09,0,0,0-1.61.71,2.54,2.54,0,0,0-.66,1.79,2.59,2.59,0,0,0,.66,1.79,2.19,2.19,0,0,0,1.61.67,2.27,2.27,0,0,0,1.62-.67A2.65,2.65,0,0,0,117.31,451.21Z"/>
        <path class="ee4a76ce-0664-40f2-9a2c-7e2846af95e4" d="M129.62,450.46v4.15a.92.92,0,0,1-.91.92.94.94,0,0,1-.92-.92v-4.15a1.78,1.78,0,0,0-1.8-1.75,1.73,1.73,0,0,0-1.73,1.75v4.15a.3.3,0,0,1,0,.17,1,1,0,0,1-.92.75.92.92,0,0,1-.92-.92v-6.84a.92.92,0,0,1,.92-.92.94.94,0,0,1,.85.54,3.45,3.45,0,0,1,1.84-.54A3.64,3.64,0,0,1,129.62,450.46Z"/>
        <path class="ee4a76ce-0664-40f2-9a2c-7e2846af95e4" d="M140.53,454.59a.94.94,0,0,1-1.86.19,4.24,4.24,0,0,1-2.36.75,4.34,4.34,0,0,1,0-8.68,4.13,4.13,0,0,1,2.33.73v-3.26a.95.95,0,0,1,1.89,0v10.27Zm-4.22-5.84a2.27,2.27,0,0,0-1.63.71,2.53,2.53,0,0,0,0,3.47,2.27,2.27,0,0,0,1.63.71,2.24,2.24,0,0,0,1.64-.71,2.53,2.53,0,0,0,0-3.47A2.24,2.24,0,0,0,136.31,448.75Z"/>
        <path class="ee4a76ce-0664-40f2-9a2c-7e2846af95e4" d="M150.66,447.77v6.56a4.1,4.1,0,0,1-5.93,3.72.91.91,0,0,1-.45-1.24,1,1,0,0,1,1.23-.38,2.28,2.28,0,0,0,1,.25,2.31,2.31,0,0,0,2.17-1.58,3.48,3.48,0,0,1-1.65.41,3.65,3.65,0,0,1-3.63-3.64v-4.1a.93.93,0,0,1,.9-.92.89.89,0,0,1,.92.92v4.1a1.78,1.78,0,0,0,1.81,1.77,1.75,1.75,0,0,0,1.78-1.77v-4.1a.9.9,0,0,1,.91-.92A.93.93,0,0,1,150.66,447.77Z"/>
        <path class="ee4a76ce-0664-40f2-9a2c-7e2846af95e4" d="M154.32,457.85V447.77a.93.93,0,0,1,.92-.92,1,1,0,0,1,1,.72,4.36,4.36,0,0,1,2.36-.72,4.31,4.31,0,0,1,4.2,4.36,4.25,4.25,0,0,1-4.2,4.3,4,4,0,0,1-2.33-.71v3.05a1,1,0,0,1-1,.94A1,1,0,0,1,154.32,457.85Zm1.91-6.64a2.29,2.29,0,0,0,.68,1.73,2.14,2.14,0,0,0,1.65.73,2.2,2.2,0,0,0,1.63-.73,2.49,2.49,0,0,0,.68-1.73,2.66,2.66,0,0,0-.68-1.75,2.25,2.25,0,0,0-1.63-.71,2.19,2.19,0,0,0-1.65.71A2.43,2.43,0,0,0,156.23,451.21Z"/>
        <path class="ee4a76ce-0664-40f2-9a2c-7e2846af95e4" d="M165,451.19a4.29,4.29,0,0,1,4.23-4.34,4.15,4.15,0,0,1,4.18,4V451a.39.39,0,0,1,0,.15.83.83,0,0,1-.9.7H167a2.28,2.28,0,0,0,.59,1.14,2.67,2.67,0,0,0,1.67.78,2.83,2.83,0,0,0,1.8-.43,1,1,0,0,1,1.3-.05.78.78,0,0,1,0,1.12,4.37,4.37,0,0,1-7.33-3.19Zm1.89-.85h4.91a2.85,2.85,0,0,0-2.57-1.84A2.42,2.42,0,0,0,166.89,450.34Z"/>
        <path class="ee4a76ce-0664-40f2-9a2c-7e2846af95e4" d="M181.15,447.77a.92.92,0,0,1-.92.92,1.68,1.68,0,0,0-1,.33,2.68,2.68,0,0,0-.8.84,5.25,5.25,0,0,0-.71,1.45v3.3a.94.94,0,0,1-1,.92.92.92,0,0,1-.92-.92v-6.84a.91.91,0,0,1,.92-.9.93.93,0,0,1,1,.9v.13a2,2,0,0,1,.36-.35,3.82,3.82,0,0,1,2.19-.68A.9.9,0,0,1,181.15,447.77Z"/>
        <path class="ee4a76ce-0664-40f2-9a2c-7e2846af95e4" d="M183,453.05a.9.9,0,0,1,1.3-.14,3.17,3.17,0,0,0,1.91.76,2.28,2.28,0,0,0,1.18-.33.7.7,0,0,0,.31-.52.29.29,0,0,0-.05-.17.59.59,0,0,0-.23-.21A4,4,0,0,0,186,452h0a6.83,6.83,0,0,1-1.51-.46,2.82,2.82,0,0,1-1.2-1,2.12,2.12,0,0,1-.3-1.09,2.42,2.42,0,0,1,1-1.91,3.68,3.68,0,0,1,2.13-.65,4.44,4.44,0,0,1,2.6,1,1,1,0,0,1,.28,1.28.92.92,0,0,1-1.28.25,3,3,0,0,0-1.6-.65,1.74,1.74,0,0,0-1,.32.51.51,0,0,0-.28.4.15.15,0,0,0,0,.13s.07.11.19.18a3.58,3.58,0,0,0,1.27.41v0h0a6.56,6.56,0,0,1,1.61.5,2.73,2.73,0,0,1,1.24,1,2.28,2.28,0,0,1,.32,1.14,2.51,2.51,0,0,1-1.09,2,3.94,3.94,0,0,1-2.25.69,5,5,0,0,1-3.09-1.2A.92.92,0,0,1,183,453.05Z"/>
        <path class="ee4a76ce-0664-40f2-9a2c-7e2846af95e4" d="M192.76,454.26a4.31,4.31,0,0,1-1.2-3.05,4.48,4.48,0,0,1,1.2-3,4.06,4.06,0,0,1,3-1.32,3.85,3.85,0,0,1,2.9,1.32,4.36,4.36,0,0,1,1.21,3,4.19,4.19,0,0,1-1.21,3.05,3.82,3.82,0,0,1-2.9,1.32A4,4,0,0,1,192.76,454.26Zm.69-3.05a2.81,2.81,0,0,0,.63,1.84,2.31,2.31,0,0,0,1.66.64,2.27,2.27,0,0,0,1.6-.64,2.68,2.68,0,0,0,.67-1.84,2.6,2.6,0,0,0-.67-1.8,2.43,2.43,0,0,0-1.6-.66,2.46,2.46,0,0,0-1.66.66A2.72,2.72,0,0,0,193.45,451.21Z"/>
        <path class="ee4a76ce-0664-40f2-9a2c-7e2846af95e4" d="M210,450.46v4.15a.91.91,0,0,1-.9.92.94.94,0,0,1-.92-.92v-4.15a1.78,1.78,0,0,0-1.81-1.75,1.73,1.73,0,0,0-1.73,1.75v4.15a.3.3,0,0,1,0,.17.94.94,0,0,1-.92.75.92.92,0,0,1-.92-.92v-6.84a.92.92,0,0,1,.92-.92.93.93,0,0,1,.85.54,3.48,3.48,0,0,1,1.84-.54A3.63,3.63,0,0,1,210,450.46Z"/>
        <path class="ee4a76ce-0664-40f2-9a2c-7e2846af95e4" d="M124,468.62a.9.9,0,0,1,1.26-.12,5.69,5.69,0,0,0,3.32,1.34,3.74,3.74,0,0,0,2.16-.64,1.56,1.56,0,0,0,.75-1.25,1,1,0,0,0-.16-.56,1.59,1.59,0,0,0-.52-.52,6.89,6.89,0,0,0-2.37-.81h0a9.79,9.79,0,0,1-2.24-.68,3.73,3.73,0,0,1-1.61-1.35,2.7,2.7,0,0,1-.4-1.43,3.2,3.2,0,0,1,1.39-2.53,5.13,5.13,0,0,1,3-.92,6.78,6.78,0,0,1,3.78,1.39.9.9,0,0,1,.25,1.23.88.88,0,0,1-1.24.26,5,5,0,0,0-2.79-1.11,3.29,3.29,0,0,0-1.94.59,1.38,1.38,0,0,0-.66,1.09.83.83,0,0,0,.12.49,1.7,1.7,0,0,0,.47.45,5.94,5.94,0,0,0,2.17.76h0a10.57,10.57,0,0,1,2.4.73,4.09,4.09,0,0,1,1.73,1.44,2.84,2.84,0,0,1,.42,1.48,3.39,3.39,0,0,1-1.49,2.69,5.46,5.46,0,0,1-3.21,1,7.45,7.45,0,0,1-4.45-1.73A.92.92,0,0,1,124,468.62Z"/>
        <path class="ee4a76ce-0664-40f2-9a2c-7e2846af95e4" d="M135.15,467.31a4.3,4.3,0,0,1,4.24-4.34,4.15,4.15,0,0,1,4.18,4v.09a.47.47,0,0,1,0,.16.84.84,0,0,1-.9.69h-5.52a2.28,2.28,0,0,0,.59,1.14,2.65,2.65,0,0,0,1.67.78,2.77,2.77,0,0,0,1.8-.43,1,1,0,0,1,1.3-.05.79.79,0,0,1,0,1.13,4.37,4.37,0,0,1-3.1,1.14A4.31,4.31,0,0,1,135.15,467.31Zm1.89-.86H142a2.82,2.82,0,0,0-2.56-1.83A2.42,2.42,0,0,0,137,466.45Z"/>
        <path class="ee4a76ce-0664-40f2-9a2c-7e2846af95e4" d="M151.31,463.89a.93.93,0,0,1-.92.92,1.62,1.62,0,0,0-1,.33,2.44,2.44,0,0,0-.8.83,4.88,4.88,0,0,0-.71,1.46v3.29a1,1,0,0,1-1,.92.92.92,0,0,1-.92-.92v-6.83a.92.92,0,0,1,.92-.91.94.94,0,0,1,1,.91V464a2.38,2.38,0,0,1,.36-.35,3.87,3.87,0,0,1,2.19-.68A.9.9,0,0,1,151.31,463.89Z"/>
        <path class="ee4a76ce-0664-40f2-9a2c-7e2846af95e4" d="M160.43,464.35l-2.84,6.74a1,1,0,0,1-.07.12,0,0,0,0,1,0,0l-.1.12h0a.57.57,0,0,1-.11.11s0,0,0,0-.07.07-.12.08h0v0a.58.58,0,0,0-.14,0h0a.58.58,0,0,1-.18,0,.5.5,0,0,1-.15,0h0a.58.58,0,0,0-.14,0v0h0a1.18,1.18,0,0,1-.16-.08s0,0,0,0a.57.57,0,0,1-.11-.11h0a.34.34,0,0,0-.09-.12s0,0,0,0a.27.27,0,0,1-.07-.12l-2.81-6.74a.88.88,0,0,1,.51-1.17.89.89,0,0,1,1.16.5l2,4.72,2-4.72a.9.9,0,1,1,1.66.67Z"/>
        <path class="ee4a76ce-0664-40f2-9a2c-7e2846af95e4" d="M165.57,460.8a.94.94,0,1,1-1.87,0v-.37a.94.94,0,0,1,1.87,0Zm0,3.14v6.77a.94.94,0,0,1-1.87,0v-6.77a.94.94,0,1,1,1.87,0Z"/>
        <path class="ee4a76ce-0664-40f2-9a2c-7e2846af95e4" d="M168,467.32a4.4,4.4,0,0,1,4.4-4.35,4.6,4.6,0,0,1,2.76.95,1,1,0,0,1,.19,1.29.93.93,0,0,1-1.3.17,2.78,2.78,0,0,0-1.65-.56,2.49,2.49,0,1,0,0,5,2.79,2.79,0,0,0,1.65-.55.94.94,0,0,1,1.3.19,1,1,0,0,1-.19,1.28,4.78,4.78,0,0,1-2.76.92A4.39,4.39,0,0,1,168,467.32Z"/>
        <path class="ee4a76ce-0664-40f2-9a2c-7e2846af95e4" d="M177.59,467.31a4.3,4.3,0,0,1,4.24-4.34,4.15,4.15,0,0,1,4.18,4v.09a.47.47,0,0,1,0,.16.84.84,0,0,1-.9.69h-5.52a2.28,2.28,0,0,0,.59,1.14,2.67,2.67,0,0,0,1.67.78,2.77,2.77,0,0,0,1.8-.43,1,1,0,0,1,1.3-.05.79.79,0,0,1,0,1.13,4.37,4.37,0,0,1-3.1,1.14A4.31,4.31,0,0,1,177.59,467.31Zm1.89-.86h4.91a2.82,2.82,0,0,0-2.56-1.83A2.42,2.42,0,0,0,179.48,466.45Z"/>
      </g>
    </g>
    <g class="text-cta text-cta--14" tabindex="0">
      <path class="f162ac74-5b05-4227-a540-f521b6477e06" d="M172,486.14l-23.88-6.76a7.71,7.71,0,0,1-5.31-9.51l21.48-75.94C165.41,389.85,182,369.1,184,367.4l16.44,4.65c.17,3.32,3.67,28.75,2.51,32.83l-21.47,75.93A7.73,7.73,0,0,1,172,486.14Z"/>
      <path class="bc8de288-8103-4990-80e1-c0966ec2858c" d="M208.56,287.35c1.2-5.51,2.4-11,4.11-16.41,1,1.39.74,3.25.49,4.93l-3.09,20.76,9.78-27.86c.56-1.61,1.4-3.47,3.08-3.77s3.29,1.41,3.52,3.15a10.69,10.69,0,0,1-1.13,5.1,93.64,93.64,0,0,0-5.46,20.19,15.66,15.66,0,0,0,5.6-4.72c1.33-2,1.82-4.47,2.38-6.83a81.4,81.4,0,0,1,4.41-13.25c.81-1.89,1.79-3.86,3.56-4.9.65-.38,1.63-.54,2,.09a1.74,1.74,0,0,1,0,1.38,141.74,141.74,0,0,1-11.61,29.1c-1.72,3.21-3.56,6.36-5.32,9.55a205.44,205.44,0,0,0-13.3,29.49s-5.79-1.11-6.43-1.26c-2.55-.61-2.09-1.11-1.55-3.61q1.48-6.83,3-13.63Z"/>
      <rect class="f162ac74-5b05-4227-a540-f521b6477e06" x="147.36" y="423.91" width="40.22" height="65.06" rx="3.61" transform="translate(130.55 -28.35) rotate(15.79)"/>
      <rect class="a811a6b0-d6df-48fb-bae0-dc343b610303" x="184.22" y="331.62" width="14.98" height="78.23" transform="translate(108.14 -38.18) rotate(15.79)"/>
      <line class="f2681848-ad4a-43ac-bba6-e912440deb85" x1="190.12" y1="340.29" x2="209.02" y2="345.64"/>
      <rect class="ee0d2d32-78a3-49f4-a6c0-e9d21517300d" x="158" y="407.88" width="31.84" height="51.52" transform="translate(124.59 -30.97) rotate(15.79)"/>
      <rect class="be92b53e-0b21-4701-a941-4919d211cd06" x="155.04" y="417.92" width="40.22" height="22.77" transform="matrix(0.96, 0.27, -0.27, 0.96, 123.46, -31.46)"/>
      <g>
        <path class="b8cac854-837c-4a93-b9c8-11b4b62c6921" d="M158.19,426.09a2.22,2.22,0,0,1,3.9-.65.36.36,0,0,1-.07.48.34.34,0,0,1-.48-.07,1.55,1.55,0,0,0-2-.45,1.48,1.48,0,0,0-.7.88,1.49,1.49,0,0,0,.13,1.12,1.61,1.61,0,0,0,.92.71,1.48,1.48,0,0,0,1-.06.36.36,0,0,1,.44.2.35.35,0,0,1-.18.44,2.22,2.22,0,0,1-3-2.6Z"/>
        <path class="b8cac854-837c-4a93-b9c8-11b4b62c6921" d="M162.88,429.32a.32.32,0,0,1-.41.22.34.34,0,0,1-.24-.32.22.22,0,0,1,0-.08l1-3.4a.33.33,0,0,1,.41-.23.33.33,0,0,1,.23.41l-.28,1a1.47,1.47,0,0,1,.66,0,1.31,1.31,0,0,1,.9,1.61l-.37,1.31a.33.33,0,0,1-.63-.18l.37-1.31a.64.64,0,0,0-1.24-.34Z"/>
        <path class="b8cac854-837c-4a93-b9c8-11b4b62c6921" d="M168.75,429.77l-.32,1.13a.32.32,0,0,1-.62-.12,1.33,1.33,0,0,1-.84,0,1.44,1.44,0,0,1-.86-.7A1.54,1.54,0,0,1,166,429a1.48,1.48,0,0,1,.68-.91,1.39,1.39,0,0,1,1.1-.15,1.34,1.34,0,0,1,.69.47.32.32,0,0,1,.59.23Zm-.61-.17a.86.86,0,0,0-.06-.66.76.76,0,0,0-.47-.39.75.75,0,0,0-.6.09.87.87,0,0,0-.39.53.89.89,0,0,0,.06.65.72.72,0,0,0,.47.38.78.78,0,0,0,.6-.07A.93.93,0,0,0,168.14,429.6Z"/>
        <path class="b8cac854-837c-4a93-b9c8-11b4b62c6921" d="M172.35,430.52h0L172,431.9a.32.32,0,0,1-.39.21.33.33,0,0,1-.23-.39l.39-1.36v0a.6.6,0,0,0-.43-.74.62.62,0,0,0-.75.43l-.38,1.36a.08.08,0,0,1,0,0v0l0,0v0a.36.36,0,0,1-.34.11l-.05,0a.34.34,0,0,1-.17-.37l.39-1.37h0l.25-.9a.32.32,0,0,1,.4-.22.29.29,0,0,1,.22.25,1.26,1.26,0,0,1,1.46.65,1.26,1.26,0,0,1,1.87,1.41l-.38,1.36a.32.32,0,0,1-.4.22.32.32,0,0,1-.22-.39l.39-1.36a.62.62,0,0,0-1.18-.35Z"/>
        <path class="b8cac854-837c-4a93-b9c8-11b4b62c6921" d="M174.72,433.84l.62-2.2h0l.32-1.14a.32.32,0,0,1,.39-.21.31.31,0,0,1,.25.32,1.45,1.45,0,0,1,.85,0,1.49,1.49,0,0,1-.81,2.87,1.38,1.38,0,0,1-.7-.45l-.29,1a.35.35,0,0,1-.42.22A.33.33,0,0,1,174.72,433.84Zm1.25-2a.82.82,0,0,0,.06.64.76.76,0,0,0,.48.4.78.78,0,0,0,.61-.09.86.86,0,0,0,.39-.51,1,1,0,0,0-.06-.65.82.82,0,0,0-.47-.39.79.79,0,0,0-.62.08A.9.9,0,0,0,176,431.81Z"/>
        <path class="b8cac854-837c-4a93-b9c8-11b4b62c6921" d="M181.57,433.4l-.32,1.12a.32.32,0,0,1-.62-.11,1.33,1.33,0,0,1-.84,0,1.38,1.38,0,0,1-.85-.69,1.52,1.52,0,0,1-.11-1.13,1.5,1.5,0,0,1,.68-.9,1.36,1.36,0,0,1,1.1-.16,1.42,1.42,0,0,1,.69.47.32.32,0,0,1,.37-.16.31.31,0,0,1,.22.39Zm-.61-.18a.84.84,0,0,0-.06-.65.74.74,0,0,0-.46-.39.73.73,0,0,0-.61.09.8.8,0,0,0-.38.53.85.85,0,0,0,.05.65.75.75,0,0,0,.47.38.79.79,0,0,0,.6-.08A.9.9,0,0,0,181,433.22Z"/>
        <path class="b8cac854-837c-4a93-b9c8-11b4b62c6921" d="M185.46,434.51l-.3,1.07a1.43,1.43,0,0,1-1.77,1,1.4,1.4,0,0,1-.56-.31.32.32,0,1,1,.43-.48.78.78,0,0,0,.31.17.78.78,0,0,0,.92-.4,1.43,1.43,0,0,1-.82,0,1.34,1.34,0,0,1-.85-.71,1.5,1.5,0,0,1-.12-1.13,1.61,1.61,0,0,1,.7-.91,1.42,1.42,0,0,1,1.09-.15,1.49,1.49,0,0,1,.71.46.32.32,0,0,1,.37-.15.31.31,0,0,1,.22.39l-.32,1.14Zm-.61-.18a1,1,0,0,0,0-.65.76.76,0,0,0-.48-.4.72.72,0,0,0-.6.1.89.89,0,0,0-.4.52.91.91,0,0,0,.07.66.7.7,0,0,0,.46.38.76.76,0,0,0,.61-.08A.88.88,0,0,0,184.85,434.33Z"/>
        <path class="b8cac854-837c-4a93-b9c8-11b4b62c6921" d="M189.16,435.27l-.39,1.38a.31.31,0,1,1-.6-.17l.39-1.38a.62.62,0,0,0-.44-.75.6.6,0,0,0-.74.42l-.39,1.38s0,0,0,.05a.31.31,0,0,1-.37.16.31.31,0,0,1-.22-.39l.39-1.37.25-.9a.32.32,0,0,1,.39-.21.31.31,0,0,1,.23.25,1.23,1.23,0,0,1,.66,0A1.25,1.25,0,0,1,189.16,435.27Z"/>
        <path class="b8cac854-837c-4a93-b9c8-11b4b62c6921" d="M190,435.78a1.48,1.48,0,0,1,1.82-1,1.43,1.43,0,0,1,1,1.72v0s0,0,0,.05a.3.3,0,0,1-.37.15l-1.83-.52a.76.76,0,0,0,.09.44.89.89,0,0,0,.48.41,1,1,0,0,0,.64,0,.34.34,0,0,1,.44.1.28.28,0,0,1-.11.38,1.52,1.52,0,0,1-2.14-1.75Zm.71-.11,1.63.46a1,1,0,0,0-.68-.85A.85.85,0,0,0,190.72,435.67Z"/>
      </g>
      <path class="bc8de288-8103-4990-80e1-c0966ec2858c" d="M195.69,322.64a65.33,65.33,0,0,1-13.51-22c-1.92-5.07-3.29-10.55-3-15s2.48-7.64,5.72-6.65c3.79,1.15,7.73,7.51,9.51,13.54a47.81,47.81,0,0,1,2,17.34c-.4,4.34,1.63,10,1.72,14.94"/>
      <path class="bc8de288-8103-4990-80e1-c0966ec2858c" d="M212.41,264.68a27.73,27.73,0,0,1-5.12-12.79,16.52,16.52,0,0,1,.59-8.17c.94-2.32,2.94-3.78,4.9-3,2.3,1,3.8,4.65,3.94,8a21,21,0,0,1-1.64,9.29c-1,2.24-.64,5.42-1.42,8"/>
      <path class="bc8de288-8103-4990-80e1-c0966ec2858c" d="M241.91,268.1a16.08,16.08,0,0,0,9-3.22,9.6,9.6,0,0,0,3.53-4.45,3.71,3.71,0,0,0-1.39-4.52c-1.77-.95-4.38,0-6,1.55a12.67,12.67,0,0,0-3.47,5.66c-.49,1.74-2.21,3.1-3,4.88"/>
      <path class="bc8de288-8103-4990-80e1-c0966ec2858c" d="M233.27,289.41a32.9,32.9,0,0,0,8.3-7.49,19.51,19.51,0,0,0,3.38-5.71c.58-1.81.25-3.28-1.09-3.19-1.57.1-4,2.26-5.55,4.49a23.76,23.76,0,0,0-3.37,6.72c-.51,1.77-2.12,3.85-2.9,5.8"/>
      <path class="bc8de288-8103-4990-80e1-c0966ec2858c" d="M203.51,293.91a41.63,41.63,0,0,1-6.78-13.5,24.93,24.93,0,0,1-1.27-8.88c.25-2.58,1.53-4.29,3.25-3.54,2,.89,4,4.79,4.82,8.38a30.08,30.08,0,0,1,.68,10.16c-.32,2.49.65,5.91.58,8.75"/>
      <path class="bc8de288-8103-4990-80e1-c0966ec2858c" d="M212.89,320.61a49.35,49.35,0,0,0,15.71-6.83,29.4,29.4,0,0,0,7.66-6.68c1.71-2.38,1.91-4.71-.09-5.26-2.35-.64-6.91,1.32-10.26,3.82a35.7,35.7,0,0,0-8.13,8.19c-1.58,2.34-4.92,4.59-7,7.06"/>
    <rect class="ed17c672-9fdf-4e6c-b0a0-3f9af91c8c46" x="124.67" y="481.42" width="26.75" height="26.75" rx="3.73"/>
    <rect class="ed17c672-9fdf-4e6c-b0a0-3f9af91c8c46" x="165.53" y="479.59" width="26.75" height="26.75" rx="3.73" transform="translate(357.81 985.94) rotate(180)"/></g>
    
  </g>
  <g>
    <line class="beacb342-1a1b-40fe-b333-a1a769558bf2" x1="405.86" y1="284.73" x2="431.95" y2="289.09"/>
    <g>
      <path class="ba2119d4-c00d-4531-b57b-988facfda920" d="M412.06,222.3l-2.85,17a14.9,14.9,0,0,0,12.23,17.14l4,.68a14.91,14.91,0,0,0,17.14-12.23l2.85-17Z"/>
      <line class="beacb342-1a1b-40fe-b333-a1a769558bf2" x1="424.52" y1="250.43" x2="418.43" y2="286.83"/>
      <path class="b907b801-5333-4505-bd16-d69166da463f" d="M413.3,233.12l-1.09,6.5a12.27,12.27,0,0,0,10.06,14.1l3.31.55a12.26,12.26,0,0,0,14.1-10.06l1.09-6.49Z"/>
    </g>
  </g>
  <g>
    <line class="beacb342-1a1b-40fe-b333-a1a769558bf2" x1="267.78" y1="297.33" x2="294.23" y2="297.33"/>
    <g>
      <path class="ba2119d4-c00d-4531-b57b-988facfda920" d="M263.59,234.73V252a14.92,14.92,0,0,0,14.9,14.89h4.08A14.91,14.91,0,0,0,297.46,252V234.73Z"/>
      <line class="beacb342-1a1b-40fe-b333-a1a769558bf2" x1="280.53" y1="260.42" x2="280.53" y2="297.33"/>
      <path class="b907b801-5333-4505-bd16-d69166da463f" d="M266.6,245.2v6.59A12.26,12.26,0,0,0,278.85,264h3.36a12.25,12.25,0,0,0,12.24-12.24V245.2Z"/>
    </g>
  </g>
</svg>
