<svg id="b41bbb5b-1a1f-45c1-ac57-5060f57edd4c" data-name="Layer 1" xmlns="http://www.w3.org/2000/svg" xmlns:xlink="http://www.w3.org/1999/xlink" viewBox="0 0 466.06 681.58">
  <defs>
    <style>
      .a099860d-7def-4840-bb56-308be6711d7e, .a2304821-0c52-47c6-8611-0719de513799, .a97ff76f-7520-421a-8e28-8eb1b5c04aa3, .a9bca843-89f5-480b-a573-9c9723faa128, .acbf1b35-47d5-4f8c-aab2-ef963afb05c8, .adf33437-6d0e-4868-803c-d2b096a7915e, .b627300f-ff09-4532-a76e-f92dfbb84fc0, .b7f8ef06-342d-456d-9d43-afa245041c51, .bc2312bb-898d-4247-9db4-22a0c56d9979, .bf751a37-3adf-4fa2-827e-c58efc763244, .e0bf123b-e137-4d34-b7a9-8fa1f7ea49b2, .e67e2b26-a801-442b-861f-821bedef5088, .ec063867-daea-4d15-922b-7bd55135e18a, .f1ca38fd-66cb-48e5-a3aa-cbce3c1b8004, .f82ac9c2-5597-4779-a4e2-773738df7764, .fa993ac0-4a4a-47ac-b81e-9e03098bb55f {
        fill: none;
      }

      .a882db87-1b67-429c-8f17-d183808afd1c, .b09575db-f156-42a2-9706-25c6e3e3b29e, .b55927d9-44ca-4657-8921-432b3d7e93dc, .e66fbcc0-38fa-49d7-856e-92618718f5ee, .e8cc1a22-da22-4581-a1ab-70390bfa2638, .ed1626e2-cb67-4628-9b5d-1a7ba4ee41e5, .fe1827f3-a3a1-4a35-96ed-ce0626549e0f {
        fill: #ede8db;
      }

      .a97ff76f-7520-421a-8e28-8eb1b5c04aa3, .acbf1b35-47d5-4f8c-aab2-ef963afb05c8, .b55927d9-44ca-4657-8921-432b3d7e93dc, .e8cc1a22-da22-4581-a1ab-70390bfa2638, .ed1626e2-cb67-4628-9b5d-1a7ba4ee41e5, .fe1827f3-a3a1-4a35-96ed-ce0626549e0f {
        stroke: #ede8db;
      }

      .a099860d-7def-4840-bb56-308be6711d7e, .a42a42c8-aa38-4b26-afb2-b4e9b5de9cf9, .a4388384-ebd2-4d16-8eca-4462349e56ff, .a74dbacd-3d62-4109-8d0d-01002fc4cc7e, .a93d1c78-3810-4bdc-9a51-f2e6836448b4, .a97ff76f-7520-421a-8e28-8eb1b5c04aa3, .a9bca843-89f5-480b-a573-9c9723faa128, .acbf1b35-47d5-4f8c-aab2-ef963afb05c8, .adf33437-6d0e-4868-803c-d2b096a7915e, .ae478da2-7a9a-4d81-bbf5-efe2e2dfaf63, .b55927d9-44ca-4657-8921-432b3d7e93dc, .b627300f-ff09-4532-a76e-f92dfbb84fc0, .b7f8ef06-342d-456d-9d43-afa245041c51, .ba0a9765-5cd7-48a6-bb96-492417c47be0, .e490073d-b50c-41ea-a0c3-6fc2bb69b561, .e8cc1a22-da22-4581-a1ab-70390bfa2638, .ec063867-daea-4d15-922b-7bd55135e18a, .ed1626e2-cb67-4628-9b5d-1a7ba4ee41e5, .f2a14be3-1bfb-40f9-9cef-f758fee2130c, .f4c36866-045a-4154-99e1-a14c21c31fcb, .fa993ac0-4a4a-47ac-b81e-9e03098bb55f, .fe1827f3-a3a1-4a35-96ed-ce0626549e0f, .fe324b91-390b-48a6-9940-0d51fd086432 {
        stroke-linecap: round;
      }

      .a42a42c8-aa38-4b26-afb2-b4e9b5de9cf9, .a4388384-ebd2-4d16-8eca-4462349e56ff, .a74dbacd-3d62-4109-8d0d-01002fc4cc7e, .a93d1c78-3810-4bdc-9a51-f2e6836448b4, .a97ff76f-7520-421a-8e28-8eb1b5c04aa3, .a9bca843-89f5-480b-a573-9c9723faa128, .acbf1b35-47d5-4f8c-aab2-ef963afb05c8, .ae478da2-7a9a-4d81-bbf5-efe2e2dfaf63, .b55927d9-44ca-4657-8921-432b3d7e93dc, .b627300f-ff09-4532-a76e-f92dfbb84fc0, .b7f8ef06-342d-456d-9d43-afa245041c51, .ba0a9765-5cd7-48a6-bb96-492417c47be0, .e490073d-b50c-41ea-a0c3-6fc2bb69b561, .e8cc1a22-da22-4581-a1ab-70390bfa2638, .ed1626e2-cb67-4628-9b5d-1a7ba4ee41e5, .f2a14be3-1bfb-40f9-9cef-f758fee2130c, .f4c36866-045a-4154-99e1-a14c21c31fcb, .fe1827f3-a3a1-4a35-96ed-ce0626549e0f, .fe324b91-390b-48a6-9940-0d51fd086432 {
        stroke-linejoin: round;
      }

      .e8cc1a22-da22-4581-a1ab-70390bfa2638 {
        stroke-width: 1px;
      }

      .fe1827f3-a3a1-4a35-96ed-ce0626549e0f {
        stroke-width: 1.21px;
      }

      .e490073d-b50c-41ea-a0c3-6fc2bb69b561, .f77b2218-9cc3-4bf9-a865-1c9e1dd2c417, .ff9027f4-fb2b-44f1-8b72-7897c2d9b941 {
        fill: #3c5743;
      }

      .f9e0104f-05e0-47eb-9317-f6a7f26af757 {
        fill: #aeaaa1;
      }

      .ecfef10e-0c71-4f16-999d-b50000b4abc4 {
        fill: #d5a555;
      }

      .a3ca8ed2-77e7-48a8-ad7f-ac5d4e86da21, .a93d1c78-3810-4bdc-9a51-f2e6836448b4, .ba0a9765-5cd7-48a6-bb96-492417c47be0, .f2a14be3-1bfb-40f9-9cef-f758fee2130c {
        fill: #062837;
      }

      .a93d1c78-3810-4bdc-9a51-f2e6836448b4, .ba0a9765-5cd7-48a6-bb96-492417c47be0, .f1ca38fd-66cb-48e5-a3aa-cbce3c1b8004, .f2a14be3-1bfb-40f9-9cef-f758fee2130c {
        stroke: #062837;
      }

      .a93d1c78-3810-4bdc-9a51-f2e6836448b4 {
        stroke-width: 3.17px;
      }

      .f30d358d-04e8-4c27-bb17-beea31a822ed {
        fill: #77a9a2;
      }

      .a668f716-b3e0-4330-be5f-e269b07fd36f, .aad2e1d1-02f7-44e7-a030-8d82a4a29c0c {
        fill: #ea5736;
      }

      .e281993f-916b-49f1-8920-e5168b530498, .f4c36866-045a-4154-99e1-a14c21c31fcb {
        fill: #afaca3;
      }

      .a668f716-b3e0-4330-be5f-e269b07fd36f, .b09575db-f156-42a2-9706-25c6e3e3b29e, .f117ce6f-1d6d-42e4-a3bb-e141876a6a02, .f77b2218-9cc3-4bf9-a865-1c9e1dd2c417, .fa993ac0-4a4a-47ac-b81e-9e03098bb55f {
        fill-rule: evenodd;
      }

      .ba0a9765-5cd7-48a6-bb96-492417c47be0 {
        stroke-width: 2.55px;
      }

      .a42a42c8-aa38-4b26-afb2-b4e9b5de9cf9, .a4388384-ebd2-4d16-8eca-4462349e56ff, .a74dbacd-3d62-4109-8d0d-01002fc4cc7e, .b3929253-8b49-4e5b-8d91-0ec8ea7cec37 {
        fill: #002838;
      }

      .a42a42c8-aa38-4b26-afb2-b4e9b5de9cf9, .a4388384-ebd2-4d16-8eca-4462349e56ff, .a74dbacd-3d62-4109-8d0d-01002fc4cc7e, .ae478da2-7a9a-4d81-bbf5-efe2e2dfaf63 {
        stroke: #002838;
      }

      .a4388384-ebd2-4d16-8eca-4462349e56ff {
        stroke-width: 1.27px;
      }

      .f2a14be3-1bfb-40f9-9cef-f758fee2130c {
        stroke-width: 3.43px;
      }

      .fe331734-d203-4afd-929e-738db2f62cf0 {
        fill: #77aaa2;
      }

      .a42a42c8-aa38-4b26-afb2-b4e9b5de9cf9 {
        stroke-width: 1.7px;
      }

      .e490073d-b50c-41ea-a0c3-6fc2bb69b561 {
        stroke: #3c5743;
        stroke-width: 2.15px;
      }

      .faf142ad-d7a5-490e-9a29-ae593bc99599, .fe324b91-390b-48a6-9940-0d51fd086432 {
        fill: #062838;
      }

      .fe324b91-390b-48a6-9940-0d51fd086432 {
        stroke: #062838;
        stroke-width: 4.64px;
      }

      .b55927d9-44ca-4657-8921-432b3d7e93dc {
        stroke-width: 2.88px;
      }

      .ed1626e2-cb67-4628-9b5d-1a7ba4ee41e5 {
        stroke-width: 2.81px;
      }

      .e66fbcc0-38fa-49d7-856e-92618718f5ee {
        stroke: #bababa;
        stroke-width: 0.5px;
      }

      .a099860d-7def-4840-bb56-308be6711d7e, .a2304821-0c52-47c6-8611-0719de513799, .adf33437-6d0e-4868-803c-d2b096a7915e, .bc2312bb-898d-4247-9db4-22a0c56d9979, .bf751a37-3adf-4fa2-827e-c58efc763244, .e0bf123b-e137-4d34-b7a9-8fa1f7ea49b2, .e66fbcc0-38fa-49d7-856e-92618718f5ee, .e67e2b26-a801-442b-861f-821bedef5088, .ec063867-daea-4d15-922b-7bd55135e18a, .f1ca38fd-66cb-48e5-a3aa-cbce3c1b8004, .f6edd1cb-a3f1-4691-82a6-d8984930c2be, .fa993ac0-4a4a-47ac-b81e-9e03098bb55f {
        stroke-miterlimit: 10;
      }

      .b34799ef-de35-4cf7-bfc9-3948ab562994 {
        fill: #4d4d4c;
      }

      .edc453f9-b51d-490d-8df1-d38bf220b71a {
        fill: #ddd;
      }

      .a74dbacd-3d62-4109-8d0d-01002fc4cc7e {
        stroke-width: 2.08px;
      }

      .b5a6edbb-34df-4920-8ec8-da82e73da7ef {
        fill: #89563c;
      }

      .a099860d-7def-4840-bb56-308be6711d7e, .a2304821-0c52-47c6-8611-0719de513799, .adf33437-6d0e-4868-803c-d2b096a7915e, .bc2312bb-898d-4247-9db4-22a0c56d9979, .e0bf123b-e137-4d34-b7a9-8fa1f7ea49b2, .ec063867-daea-4d15-922b-7bd55135e18a, .fa993ac0-4a4a-47ac-b81e-9e03098bb55f {
        stroke: #ea5736;
      }

      .e0bf123b-e137-4d34-b7a9-8fa1f7ea49b2 {
        stroke-width: 5.38px;
      }

      .a099860d-7def-4840-bb56-308be6711d7e {
        stroke-width: 2.3px;
      }

      .be4d3b4f-79aa-4130-89d2-6c441c1f1a4c {
        fill: #a2a081;
      }

      .bc2312bb-898d-4247-9db4-22a0c56d9979 {
        stroke-width: 6.29px;
      }

      .adf33437-6d0e-4868-803c-d2b096a7915e {
        stroke-width: 2.69px;
      }

      .a2304821-0c52-47c6-8611-0719de513799 {
        stroke-width: 7.2px;
      }

      .ec063867-daea-4d15-922b-7bd55135e18a {
        stroke-width: 3.09px;
      }

      .ae478da2-7a9a-4d81-bbf5-efe2e2dfaf63, .af1af0a5-248f-4388-9569-1c8f7b8e73df, .f117ce6f-1d6d-42e4-a3bb-e141876a6a02 {
        fill: #fff;
      }

      .ae478da2-7a9a-4d81-bbf5-efe2e2dfaf63 {
        stroke-width: 4.91px;
      }

      .a9bca843-89f5-480b-a573-9c9723faa128, .b627300f-ff09-4532-a76e-f92dfbb84fc0 {
        stroke: #2e2d2c;
      }

      .a9bca843-89f5-480b-a573-9c9723faa128 {
        stroke-width: 0.88px;
      }

      .acbf1b35-47d5-4f8c-aab2-ef963afb05c8 {
        stroke-width: 0.35px;
      }

      .f59664d2-23b5-4e81-9984-c8815ee903d9 {
        fill: #1d1d1b;
      }

      .fa993ac0-4a4a-47ac-b81e-9e03098bb55f {
        stroke-width: 0.43px;
      }

      .bf751a37-3adf-4fa2-827e-c58efc763244, .e67e2b26-a801-442b-861f-821bedef5088 {
        stroke: #fff;
      }

      .e67e2b26-a801-442b-861f-821bedef5088 {
        stroke-width: 2.07px;
      }

      .bf751a37-3adf-4fa2-827e-c58efc763244 {
        stroke-width: 2.07px;
      }

      .f6edd1cb-a3f1-4691-82a6-d8984930c2be {
        fill: #d4a455;
        stroke: #d4a455;
        stroke-width: 0.09px;
      }

      .a00c9ee7-bdf5-444c-aab2-de4483ffe350 {
        fill: #d4a555;
      }

      .ac7d9051-c8d2-4172-8005-b11d253e3e78 {
        fill: #2e2d2c;
      }

      .f4c36866-045a-4154-99e1-a14c21c31fcb {
        stroke: #d5a555;
        stroke-width: 0.67px;
      }

      .f3a5127e-a0fc-432b-946a-06cbb5605982 {
        clip-path: url(#b56f2cd9-b084-45ca-bd6d-6ea6b8ddf421);
      }

      .b7f8ef06-342d-456d-9d43-afa245041c51 {
        stroke: #30383b;
        stroke-width: 0.45px;
      }

      .f1ca38fd-66cb-48e5-a3aa-cbce3c1b8004 {
        stroke-width: 0.11px;
      }

      .b627300f-ff09-4532-a76e-f92dfbb84fc0 {
        stroke-width: 0.95px;
      }

      .a97ff76f-7520-421a-8e28-8eb1b5c04aa3 {
        stroke-width: 0.38px;
      }
    </style>
    <clipPath id="b56f2cd9-b084-45ca-bd6d-6ea6b8ddf421">
      <rect class="f82ac9c2-5597-4779-a4e2-773738df7764" x="229.58" y="185.38" width="1.41" height="0.76" rx="0.38"/>
    </clipPath>
  </defs>
  <title>screen-7</title>
  <rect class="a882db87-1b67-429c-8f17-d183808afd1c" x="-0.11" y="-98.18" width="465.11" height="2577.43"/>
  <rect class="e8cc1a22-da22-4581-a1ab-70390bfa2638" x="175.29" y="189.29" width="14.28" height="23.02"/>
  <rect class="e8cc1a22-da22-4581-a1ab-70390bfa2638" x="213.58" y="189.29" width="14.28" height="23.02"/>
  <rect class="e8cc1a22-da22-4581-a1ab-70390bfa2638" x="175.29" y="230.18" width="14.28" height="23.02"/>
  <rect class="e8cc1a22-da22-4581-a1ab-70390bfa2638" x="250.29" y="230.18" width="14.28" height="23.02"/>
  <rect class="fe1827f3-a3a1-4a35-96ed-ce0626549e0f" x="213.58" y="230.18" width="14.28" height="33.92"/>
  <rect class="e8cc1a22-da22-4581-a1ab-70390bfa2638" x="37.31" y="189.29" width="14.28" height="23.02"/>
  <rect class="e8cc1a22-da22-4581-a1ab-70390bfa2638" x="75.6" y="189.29" width="14.28" height="23.02"/>
  <rect class="e8cc1a22-da22-4581-a1ab-70390bfa2638" x="112.31" y="189.29" width="14.28" height="23.02"/>
  <rect class="e8cc1a22-da22-4581-a1ab-70390bfa2638" x="37.31" y="230.18" width="14.28" height="23.02"/>
  <rect class="e8cc1a22-da22-4581-a1ab-70390bfa2638" x="112.31" y="230.18" width="14.28" height="23.02"/>
  <path class="ff9027f4-fb2b-44f1-8b72-7897c2d9b941" d="M417.65,689.93c-50.5-156.66-55.07-321-105.57-477.71-16.23-50.34-32.48-100.74-45.26-152.08-3.32-13.34-20.7-55.38-4.34-61.52,10.71-4,29.21-.22,40.8-.22L467.08,0l-1,683.54-324.83,4"/>
  <rect class="fe1827f3-a3a1-4a35-96ed-ce0626549e0f" x="75.6" y="230.18" width="14.28" height="33.92"/>
  <path class="f9e0104f-05e0-47eb-9317-f6a7f26af757" d="M239.39-107.53c-8.13,37.05-10.73,75.16-9.44,113,2,58.35,13,116.11,27.92,172.44C286,284.28,357.24,386.58,345.3,496c-6.28,57.56-33.18,124.26-30.61,186.69l103,7.29c-2.57-62.43,25.24-119,30.61-186.69,8.69-109.67-59.27-211.66-87.43-318C345.92,128.9,334.9,71.14,332.91,12.78c-1.29-37.86,1.31-76,9.44-113l-107.82.72"/>
  <rect class="f9e0104f-05e0-47eb-9317-f6a7f26af757" y="221.01" width="292.24" height="30.1"/>
  <rect class="f9e0104f-05e0-47eb-9317-f6a7f26af757" x="-0.11" y="384.39" width="375.41" height="34.02"/>
  <rect class="f9e0104f-05e0-47eb-9317-f6a7f26af757" y="112.85" width="293.45" height="15.55"/>
  <g>
    <g>
      <rect class="ecfef10e-0c71-4f16-999d-b50000b4abc4" x="78.98" y="62.49" width="121.23" height="42.36" rx="2.69" transform="translate(279.2 167.34) rotate(-180)"/>
      <polygon class="a93d1c78-3810-4bdc-9a51-f2e6836448b4" points="202.34 63.7 76.33 63.7 109.94 32.27 164.12 32.27 202.34 63.7"/>
      <rect class="f30d358d-04e8-4c27-bb17-beea31a822ed" x="176.47" y="69.98" width="12.01" height="19.86" rx="1.14" transform="translate(364.94 159.83) rotate(-180)"/>
      <rect class="f30d358d-04e8-4c27-bb17-beea31a822ed" x="162.15" y="69.98" width="12.01" height="19.86" rx="1.14" transform="translate(336.31 159.83) rotate(-180)"/>
      <rect class="f30d358d-04e8-4c27-bb17-beea31a822ed" x="105.04" y="69.98" width="12.01" height="19.86" rx="1.14" transform="translate(222.08 159.83) rotate(-180)"/>
      <rect class="aad2e1d1-02f7-44e7-a030-8d82a4a29c0c" x="130.16" y="69.98" width="17.48" height="34.87" rx="1.82" transform="translate(277.81 174.83) rotate(-180)"/>
      <rect class="e281993f-916b-49f1-8920-e5168b530498" x="125.18" y="100.87" width="27.34" height="3.98" rx="0.77" transform="translate(277.69 205.72) rotate(-180)"/>
      <rect class="f30d358d-04e8-4c27-bb17-beea31a822ed" x="90.72" y="69.98" width="12.01" height="19.86" rx="1.14" transform="translate(193.45 159.83) rotate(-180)"/>
    </g>
    <path class="f77b2218-9cc3-4bf9-a865-1c9e1dd2c417" d="M97.09,104.56H68.59a7.18,7.18,0,0,1,3.75-5.16,4.43,4.43,0,0,1-.84-1.54,4.65,4.65,0,0,1,7-5.28A7.25,7.25,0,0,1,82,90.17a7.15,7.15,0,0,1,8.58,9.93A7.17,7.17,0,0,1,97.09,104.56Z"/>
  </g>
  <g>
    <polygon class="ba0a9765-5cd7-48a6-bb96-492417c47be0" points="206.8 121.76 126.52 121.76 46.24 121.76 34.15 144.6 126.52 144.6 218.89 144.6 206.8 121.76"/>
    <rect class="ecfef10e-0c71-4f16-999d-b50000b4abc4" x="138.88" y="189.61" width="44.12" height="25.4" rx="0.42"/>
    <rect class="ecfef10e-0c71-4f16-999d-b50000b4abc4" x="34.46" y="145.8" width="182.58" height="65.55" rx="1.37"/>
    <rect class="a882db87-1b67-429c-8f17-d183808afd1c" x="79.73" y="155.35" width="24.09" height="13.03" rx="0.43"/>
    <rect class="a882db87-1b67-429c-8f17-d183808afd1c" x="45.2" y="155.35" width="24.09" height="13.03" rx="0.43"/>
    <rect class="a882db87-1b67-429c-8f17-d183808afd1c" x="79.73" y="184.72" width="24.09" height="13.03" rx="0.43"/>
    <rect class="a882db87-1b67-429c-8f17-d183808afd1c" x="45.2" y="184.72" width="24.09" height="13.03" rx="0.43"/>
    <rect class="a882db87-1b67-429c-8f17-d183808afd1c" x="114.27" y="155.35" width="24.09" height="13.03" rx="0.43"/>
    <rect class="a882db87-1b67-429c-8f17-d183808afd1c" x="196.63" y="184.72" width="10.99" height="13.03" rx="0.29"/>
    <rect class="a882db87-1b67-429c-8f17-d183808afd1c" x="114.27" y="184.72" width="10.99" height="13.03" rx="0.29"/>
    <rect class="a882db87-1b67-429c-8f17-d183808afd1c" x="155.89" y="155.35" width="10.99" height="13.03" rx="0.29"/>
    <rect class="a882db87-1b67-429c-8f17-d183808afd1c" x="149.14" y="155.35" width="23.41" height="13.03" rx="0.43"/>
    <rect class="a882db87-1b67-429c-8f17-d183808afd1c" x="183.67" y="155.35" width="23.41" height="13.03" rx="0.43"/>
    <rect class="a882db87-1b67-429c-8f17-d183808afd1c" x="152.35" y="194.6" width="17.02" height="20.41" rx="0.23"/>
    <rect class="a882db87-1b67-429c-8f17-d183808afd1c" x="172.44" y="194.6" width="9.14" height="17.04" rx="0.16"/>
    <rect class="a882db87-1b67-429c-8f17-d183808afd1c" x="140.11" y="194.6" width="9.14" height="17.04" rx="0.16"/>
    <polygon class="a4388384-ebd2-4d16-8eca-4462349e56ff" points="138.66 189.61 182.93 189.61 171.13 178.57 152.09 178.57 138.66 189.61"/>
    <path class="f77b2218-9cc3-4bf9-a865-1c9e1dd2c417" d="M198.44,215h-26a6.55,6.55,0,0,1,3.42-4.7,4.38,4.38,0,0,1-.77-1.41,4.26,4.26,0,0,1,2.78-5.33,4.21,4.21,0,0,1,3.62.52,6.39,6.39,0,0,1,3.17-2.2,6.51,6.51,0,0,1,7.82,9.06A6.51,6.51,0,0,1,198.44,215Z"/>
    <path class="f77b2218-9cc3-4bf9-a865-1c9e1dd2c417" d="M123.24,215h26a6.51,6.51,0,0,0-3.41-4.7,4.18,4.18,0,0,0,.76-1.41,4.24,4.24,0,0,0-6.39-4.81,6.43,6.43,0,0,0-3.17-2.2A6.52,6.52,0,0,0,129.2,211,6.52,6.52,0,0,0,123.24,215Z"/>
  </g>
  <g>
    <polygon class="f2a14be3-1bfb-40f9-9cef-f758fee2130c" points="251.21 251.12 143.38 251.12 35.54 251.12 19.3 281.79 143.38 281.79 267.46 281.79 251.21 251.12"/>
    <rect class="fe331734-d203-4afd-929e-738db2f62cf0" x="159.98" y="342.19" width="59.26" height="34.12" rx="0.41"/>
    <rect class="fe331734-d203-4afd-929e-738db2f62cf0" x="19.72" y="283.34" width="245.24" height="88.05" rx="1.34"/>
    <rect class="a882db87-1b67-429c-8f17-d183808afd1c" x="80.53" y="296.17" width="32.36" height="17.5" rx="0.43"/>
    <rect class="a882db87-1b67-429c-8f17-d183808afd1c" x="34.14" y="296.17" width="32.36" height="17.5" rx="0.43"/>
    <rect class="a882db87-1b67-429c-8f17-d183808afd1c" x="80.53" y="335.62" width="32.36" height="17.5" rx="0.43"/>
    <rect class="a882db87-1b67-429c-8f17-d183808afd1c" x="34.14" y="335.62" width="32.36" height="17.5" rx="0.43"/>
    <rect class="a882db87-1b67-429c-8f17-d183808afd1c" x="126.92" y="296.17" width="32.36" height="17.5" rx="0.43"/>
    <rect class="a882db87-1b67-429c-8f17-d183808afd1c" x="237.56" y="335.62" width="14.76" height="17.5" rx="0.29"/>
    <rect class="a882db87-1b67-429c-8f17-d183808afd1c" x="126.92" y="335.62" width="14.76" height="17.5" rx="0.29"/>
    <rect class="a882db87-1b67-429c-8f17-d183808afd1c" x="182.83" y="296.17" width="14.76" height="17.5" rx="0.29"/>
    <rect class="a882db87-1b67-429c-8f17-d183808afd1c" x="173.76" y="296.17" width="31.44" height="17.5" rx="0.42"/>
    <rect class="a882db87-1b67-429c-8f17-d183808afd1c" x="220.15" y="296.17" width="31.44" height="17.5" rx="0.42"/>
    <rect class="a882db87-1b67-429c-8f17-d183808afd1c" x="178.07" y="348.89" width="22.87" height="27.42" rx="0.23"/>
    <rect class="a882db87-1b67-429c-8f17-d183808afd1c" x="205.06" y="348.89" width="12.27" height="22.88" rx="0.15"/>
    <rect class="a882db87-1b67-429c-8f17-d183808afd1c" x="161.63" y="348.89" width="12.27" height="22.88" rx="0.15"/>
    <polygon class="a42a42c8-aa38-4b26-afb2-b4e9b5de9cf9" points="159.69 342.19 219.15 342.19 203.29 327.36 177.73 327.36 159.69 342.19"/>
    <path class="f77b2218-9cc3-4bf9-a865-1c9e1dd2c417" d="M240,376.31H205.06a8.79,8.79,0,0,1,4.59-6.32,5.7,5.7,0,0,1,7.56-8.36A8.75,8.75,0,0,1,232,370.85,8.77,8.77,0,0,1,240,376.31Z"/>
    <path class="f77b2218-9cc3-4bf9-a865-1c9e1dd2c417" d="M139,376.31H173.9a8.77,8.77,0,0,0-4.59-6.32,5.5,5.5,0,0,0,1-1.89,5.7,5.7,0,0,0-8.59-6.47,8.62,8.62,0,0,0-4.26-2.95A8.75,8.75,0,0,0,147,370.85,8.75,8.75,0,0,0,139,376.31Z"/>
  </g>
  <g>
    <rect class="e490073d-b50c-41ea-a0c3-6fc2bb69b561" x="14.69" y="509.98" width="291.18" height="101.74" rx="1.21"/>
    <polygon class="fe324b91-390b-48a6-9940-0d51fd086432" points="9.57 507.15 312.23 507.15 231.52 431.64 101.38 431.64 9.57 507.15"/>
    <g>
      <rect class="b55927d9-44ca-4657-8921-432b3d7e93dc" x="209.51" y="527.98" width="28.84" height="47.7" rx="0.51"/>
      <rect class="b55927d9-44ca-4657-8921-432b3d7e93dc" x="251.3" y="527.98" width="28.84" height="47.7" rx="0.51"/>
    </g>
    <g>
      <rect class="b55927d9-44ca-4657-8921-432b3d7e93dc" x="44.05" y="527.98" width="28.84" height="47.7" rx="0.51"/>
      <rect class="b55927d9-44ca-4657-8921-432b3d7e93dc" x="85.84" y="527.98" width="28.84" height="47.7" rx="0.51"/>
    </g>
    <rect class="ed1626e2-cb67-4628-9b5d-1a7ba4ee41e5" x="144.37" y="538.45" width="33.05" height="72.56"/>
    <rect class="fe324b91-390b-48a6-9940-0d51fd086432" x="199.56" y="406.8" width="33.05" height="69.3"/>
  </g>
  <rect class="f9e0104f-05e0-47eb-9317-f6a7f26af757" x="0.91" y="627.02" width="375.17" height="50.22"/>
  <g>
    <g>
      <path class="e66fbcc0-38fa-49d7-856e-92618718f5ee" d="M322,463.43h72.1a5.07,5.07,0,0,1,5.06,5.06v22.13a5.07,5.07,0,0,1-5.06,5.06H316.91V468.49A5.06,5.06,0,0,1,322,463.43Z"/>
      <path class="aad2e1d1-02f7-44e7-a030-8d82a4a29c0c" d="M316.91,431.19h77.15a5.06,5.06,0,0,1,5.06,5.05v38.92H316.91Z"/>
      <g>
        <path class="aad2e1d1-02f7-44e7-a030-8d82a4a29c0c" d="M332.66,485.09a2.67,2.67,0,0,1,.44-1.55,1.36,1.36,0,0,1,2.4,0,2.75,2.75,0,0,1,.44,1.55,2.8,2.8,0,0,1-.44,1.55,1.36,1.36,0,0,1-2.4,0A2.72,2.72,0,0,1,332.66,485.09Zm2.56,0a2.18,2.18,0,0,0-.31-1.16.74.74,0,0,0-.61-.39.76.76,0,0,0-.61.39,2.31,2.31,0,0,0,0,2.31.8.8,0,0,0,.61.4.78.78,0,0,0,.61-.4A2.17,2.17,0,0,0,335.22,485.09Z"/>
        <path class="aad2e1d1-02f7-44e7-a030-8d82a4a29c0c" d="M340.3,485.81a1.55,1.55,0,1,1-2.4-1.29,1,1,0,0,1-.22-.64,1.07,1.07,0,1,1,1.93.64A1.58,1.58,0,0,1,340.3,485.81Zm-.71,0a.84.84,0,0,0-.83-.84.84.84,0,1,0,0,1.68A.84.84,0,0,0,339.59,485.81Zm-1.2-1.93a.37.37,0,0,0,.37.37.37.37,0,1,0-.37-.37Z"/>
        <path class="aad2e1d1-02f7-44e7-a030-8d82a4a29c0c" d="M341.36,485.09a2.67,2.67,0,0,1,.44-1.55,1.36,1.36,0,0,1,2.4,0,2.75,2.75,0,0,1,.44,1.55,2.8,2.8,0,0,1-.44,1.55,1.36,1.36,0,0,1-2.4,0A2.72,2.72,0,0,1,341.36,485.09Zm2.56,0a2.18,2.18,0,0,0-.31-1.16.67.67,0,0,0-1.22,0,2.31,2.31,0,0,0,0,2.31.67.67,0,0,0,1.22,0A2.17,2.17,0,0,0,343.92,485.09Z"/>
        <path class="aad2e1d1-02f7-44e7-a030-8d82a4a29c0c" d="M346,485.09a2.83,2.83,0,0,1,.44-1.55,1.47,1.47,0,0,1,1.21-.72,1.45,1.45,0,0,1,1.2.72,2.75,2.75,0,0,1,.44,1.55,2.8,2.8,0,0,1-.44,1.55,1.48,1.48,0,0,1-1.2.72,1.49,1.49,0,0,1-1.21-.72A2.88,2.88,0,0,1,346,485.09Zm2.57,0a2.1,2.1,0,0,0-.32-1.16.73.73,0,0,0-.6-.39.78.78,0,0,0-.62.39,2.31,2.31,0,0,0,0,2.31.83.83,0,0,0,.62.4.77.77,0,0,0,.6-.4A2.09,2.09,0,0,0,348.53,485.09Z"/>
        <path class="aad2e1d1-02f7-44e7-a030-8d82a4a29c0c" d="M352.53,484.39a1.57,1.57,0,0,1,1.57-1.57,1.55,1.55,0,0,1,1.56,1.41h0c0,.12,0,.24,0,.37a3.87,3.87,0,0,1-.22,1.33,2.28,2.28,0,0,1-.84,1.11,1.82,1.82,0,0,1-1,.3.36.36,0,0,1-.38-.34.37.37,0,0,1,.35-.38,1.25,1.25,0,0,0,.61-.18,1.38,1.38,0,0,0,.41-.45,1.3,1.3,0,0,0,.08-.17,1.57,1.57,0,0,1-2.19-1.44Zm.72,0a.85.85,0,1,0,1.7,0,.85.85,0,1,0-1.7,0Z"/>
        <path class="aad2e1d1-02f7-44e7-a030-8d82a4a29c0c" d="M356.69,484.39a1.57,1.57,0,0,1,1.58-1.57,1.56,1.56,0,0,1,1.56,1.41h0c0,.12,0,.24,0,.37a3.66,3.66,0,0,1-.23,1.33,2.26,2.26,0,0,1-.83,1.11,1.89,1.89,0,0,1-1,.3.35.35,0,0,1-.37-.34.37.37,0,0,1,.35-.38,1.25,1.25,0,0,0,.61-.18,1.38,1.38,0,0,0,.41-.45,1.3,1.3,0,0,0,.08-.17,1.6,1.6,0,0,1-.62.13A1.57,1.57,0,0,1,356.69,484.39Zm.72,0a.86.86,0,0,0,.86.85.86.86,0,0,0,.85-.85.86.86,0,0,0-1.71,0Z"/>
        <path class="aad2e1d1-02f7-44e7-a030-8d82a4a29c0c" d="M360.85,485.09a2.83,2.83,0,0,1,.44-1.55,1.47,1.47,0,0,1,1.21-.72,1.45,1.45,0,0,1,1.2.72,2.74,2.74,0,0,1,.43,1.55,2.79,2.79,0,0,1-.43,1.55,1.48,1.48,0,0,1-1.2.72,1.49,1.49,0,0,1-1.21-.72A2.88,2.88,0,0,1,360.85,485.09Zm2.57,0a2.1,2.1,0,0,0-.32-1.16.73.73,0,0,0-.6-.39.78.78,0,0,0-.62.39,2.31,2.31,0,0,0,0,2.31.83.83,0,0,0,.62.4.77.77,0,0,0,.6-.4A2.09,2.09,0,0,0,363.42,485.09Z"/>
        <path class="aad2e1d1-02f7-44e7-a030-8d82a4a29c0c" d="M369.87,484.6a1.62,1.62,0,0,1,.47,1.14,1.66,1.66,0,0,1-.47,1.14,1.62,1.62,0,0,1-2.28,0,.37.37,0,0,1,.52-.52.86.86,0,0,0,.62.25.89.89,0,0,0,.62-.25.91.91,0,0,0,.26-.62.89.89,0,0,0-.88-.88.3.3,0,0,1-.26-.12h0a.37.37,0,0,1,0-.52l.66-.68h-1.05a.37.37,0,1,1,0-.73H370a.36.36,0,0,1,.37.36.48.48,0,0,1,0,.18l-.07.09-.82.84A1.65,1.65,0,0,1,369.87,484.6Z"/>
        <path class="aad2e1d1-02f7-44e7-a030-8d82a4a29c0c" d="M374.84,486.15a.37.37,0,0,1-.37.36h-.06V487a.36.36,0,0,1-.36.36.35.35,0,0,1-.35-.36v-.49h-2.05a.33.33,0,0,1-.22-.08.35.35,0,0,1-.06-.5l2.4-3,0,0,0,0,0,0,0,0h0s0,0,0,0l0,0h.17l0,0h0s0,0,0,0l0,0h0s0,0,0,0l0,0,0,0s0,0,0,0l0,0a.08.08,0,0,0,0,0v.06s0,0,0,0h0v2.62h.06A.37.37,0,0,1,374.84,486.15Zm-1.14-2-1.29,1.6h1.29Z"/>
        <path class="aad2e1d1-02f7-44e7-a030-8d82a4a29c0c" d="M375.68,485.09a2.67,2.67,0,0,1,.44-1.55,1.36,1.36,0,0,1,2.4,0,2.75,2.75,0,0,1,.44,1.55,2.8,2.8,0,0,1-.44,1.55,1.36,1.36,0,0,1-2.4,0A2.72,2.72,0,0,1,375.68,485.09Zm2.56,0a2.18,2.18,0,0,0-.31-1.16.74.74,0,0,0-.61-.39.76.76,0,0,0-.61.39,2.31,2.31,0,0,0,0,2.31.8.8,0,0,0,.61.4.78.78,0,0,0,.61-.4A2.17,2.17,0,0,0,378.24,485.09Z"/>
        <path class="aad2e1d1-02f7-44e7-a030-8d82a4a29c0c" d="M382.68,484.61a1.56,1.56,0,0,1,.47,1.14,1.62,1.62,0,0,1-1.61,1.61h0a1.58,1.58,0,0,1-1.13-.48.35.35,0,0,1,0-.51.36.36,0,0,1,.52,0,.86.86,0,0,0,.62.25.88.88,0,0,0,.62-.25.89.89,0,0,0,.26-.62.89.89,0,0,0-.88-.88.85.85,0,0,0-.62.26.37.37,0,0,1-.52,0l-.07-.09s0,0,0,0a0,0,0,0,0,0,0v-.05h0a.2.2,0,0,1,0-.11l.19-1.68a.39.39,0,0,1,.17-.26h0a.31.31,0,0,1,.17,0h1.91a.36.36,0,0,1,.37.37.37.37,0,0,1-.37.36h-1.59l-.08.64a1.59,1.59,0,0,1,1.57.42Z"/>
      </g>
      <g>
        <path class="a882db87-1b67-429c-8f17-d183808afd1c" d="M363.48,464.53H362v5.07a.51.51,0,0,1-.52.52.52.52,0,0,1-.52-.52v-5.07h-1.5a.53.53,0,0,1-.52-.53.51.51,0,0,1,.52-.52h4.05a.51.51,0,0,1,.52.52A.53.53,0,0,1,363.48,464.53Z"/>
        <path class="a882db87-1b67-429c-8f17-d183808afd1c" d="M370.29,464.3a3.52,3.52,0,0,1,.95,2.4,3.48,3.48,0,0,1-.95,2.4,3.13,3.13,0,0,1-2.27,1,3.21,3.21,0,0,1-2.33-1,3.43,3.43,0,0,1-.94-2.4,3.47,3.47,0,0,1,.94-2.4,3.2,3.2,0,0,1,2.33-1A3.12,3.12,0,0,1,370.29,464.3Zm-.13,2.4a2.46,2.46,0,0,0-.64-1.66,2,2,0,0,0-1.5-.67,2.06,2.06,0,0,0-1.54.67,2.42,2.42,0,0,0-.65,1.66,2.34,2.34,0,0,0,.65,1.65,2,2,0,0,0,3,0A2.38,2.38,0,0,0,370.16,466.7Z"/>
        <path class="a882db87-1b67-429c-8f17-d183808afd1c" d="M376,469.6V464a.52.52,0,0,1,.53-.52.52.52,0,0,1,.53.52v5.07h2.57a.53.53,0,0,1,0,1.05h-3.1A.53.53,0,0,1,376,469.6Z"/>
        <path class="a882db87-1b67-429c-8f17-d183808afd1c" d="M381.3,469.6V464a.5.5,0,0,1,.52-.52h3.1a.52.52,0,0,1,.52.52.53.53,0,0,1-.52.53h-2.57v1.74h2.21a.53.53,0,0,1,0,1.05h-2.21v1.75h2.57a.53.53,0,0,1,0,1.05h-3.1A.52.52,0,0,1,381.3,469.6Z"/>
        <path class="a882db87-1b67-429c-8f17-d183808afd1c" d="M391,464.53h-1.51v5.07a.51.51,0,0,1-.52.52.52.52,0,0,1-.52-.52v-5.07h-1.5a.52.52,0,0,1-.52-.53.5.5,0,0,1,.52-.52H391a.51.51,0,0,1,.52.52A.53.53,0,0,1,391,464.53Z"/>
      </g>
      <rect class="b34799ef-de35-4cf7-bfc9-3948ab562994" x="311.79" y="431.19" width="6.37" height="195.83"/>
    </g>
    <g>
      <g>
        <path class="b09575db-f156-42a2-9706-25c6e3e3b29e" d="M353.09,445v-1.09c0-1.29-.47-1.76-1.73-1.92a16.66,16.66,0,0,0-6,.63c-.7.17-.76.16-.9-.53-.34-1.62-.66-1.48,1.17-1.92a17.54,17.54,0,0,1,7.56-.36,3.22,3.22,0,0,1,2.86,2.34,5.71,5.71,0,0,1,.17,1.37c0,2.72,0,6.83,0,7.52a15.82,15.82,0,0,1-.07,1.77c-.11.8-.52,1-1.22,1.33a9.74,9.74,0,0,1-3.22.65,19.55,19.55,0,0,1-4.78-.18c-2.77-.48-3.74-2.37-3.5-5,.21-2.32,1.35-3.27,4-3.62,1-.13,1.9-.31,2.85-.46Zm0,2.19c-1.74.31-3.43.58-5.1.93a1.84,1.84,0,0,0-1,.73,2.46,2.46,0,0,0,1.51,3.7,9.12,9.12,0,0,0,4.63-.27Z"/>
        <path class="b09575db-f156-42a2-9706-25c6e3e3b29e" d="M380.89,442.36v11.37c0,.67-.08.75-.78.75-.54,0-1,0-1.63,0s-.76-.07-.76-.76c0-3.25,0-6.49,0-9.74,0-.62,0-1.24,0-1.86a1.46,1.46,0,0,1,1.08-1.53,23,23,0,0,1,3.12-.79,18.43,18.43,0,0,1,5.14-.18c2.12.27,3.32,1.43,3.35,3.56.06,3.57,0,7.15,0,10.72,0,.41-.17.6-.59.58-.62,0-1.24,0-1.86,0s-.73-.23-.73-.76c0-3.1,0-6.19,0-9.28,0-.27,0-.54,0-.81a1.7,1.7,0,0,0-1.82-1.82A15.85,15.85,0,0,0,380.89,442.36Z"/>
        <path class="b09575db-f156-42a2-9706-25c6e3e3b29e" d="M338.23,454.6a13.7,13.7,0,0,1-4.38-.05l-.18,0a4.8,4.8,0,0,1-4-4,15.27,15.27,0,0,1-.05-6.49,4.94,4.94,0,0,1,4.44-4.36,13.49,13.49,0,0,1,6.18.43c.71.22.78.36.61,1.09-.35,1.49-.1,1.25-1.58,1a17.66,17.66,0,0,0-3.55-.29,2.88,2.88,0,0,0-2.93,2.54,13.51,13.51,0,0,0-.09,4.95c.36,2.23,1.32,3.08,3.65,3.09a20,20,0,0,0,3.43-.45c.73-.14.78-.16.95.54.35,1.43.33,1.51-1.13,1.81C339.16,454.45,338.7,454.53,338.23,454.6Z"/>
        <path class="b09575db-f156-42a2-9706-25c6e3e3b29e" d="M369.08,442.54v3.54c0,2.53,0,5.06,0,7.59,0,.74-.06.81-.78.81s-1.16,0-1.74,0-.66-.19-.65-.65c0-.94,0-1.89,0-2.84v-8.4c0-1.48.26-1.82,1.69-2.28a26.58,26.58,0,0,1,7.31-.81c.5,0,.71.05.72.73s0,.91,0,1.26c0,.64-.12.89-1,.82A36.19,36.19,0,0,0,369.08,442.54Z"/>
        <path class="b09575db-f156-42a2-9706-25c6e3e3b29e" d="M362.64,437.08c0,.48-.21.66-.59.67-.64,0-1.27,0-1.91,0a.59.59,0,0,1-.64-.66v-2a.52.52,0,0,1,.57-.58h2c.37,0,.53.1.53.6C362.63,435.43,362.64,436.6,362.64,437.08Z"/>
      </g>
      <path class="b09575db-f156-42a2-9706-25c6e3e3b29e" d="M361.92,440h-1.7a.72.72,0,0,0-.72.72v11.32l1.57-1.48,1.57,1.48V440.75A.72.72,0,0,0,361.92,440Z"/>
    </g>
  </g>
  <g>
    <g>
      <path class="a882db87-1b67-429c-8f17-d183808afd1c" d="M272.61,164.93h24.74a1.73,1.73,0,0,1,1.73,1.73v7.59a1.74,1.74,0,0,1-1.73,1.74H270.88v-9.33A1.72,1.72,0,0,1,272.61,164.93Z"/>
      <path class="aad2e1d1-02f7-44e7-a030-8d82a4a29c0c" d="M270.88,153.86h26.47a1.74,1.74,0,0,1,1.73,1.74V169h-28.2Z"/>
      <g>
        <path class="aad2e1d1-02f7-44e7-a030-8d82a4a29c0c" d="M276.28,172.36a1,1,0,0,1,.15-.54.51.51,0,0,1,.42-.24.5.5,0,0,1,.41.24,1,1,0,0,1,.15.54.92.92,0,0,1-.15.53.5.5,0,0,1-.41.24.51.51,0,0,1-.42-.24A1,1,0,0,1,276.28,172.36Zm.88,0a.66.66,0,0,0-.11-.4.24.24,0,0,0-.2-.14.25.25,0,0,0-.21.14.66.66,0,0,0-.11.4.67.67,0,0,0,.11.39.25.25,0,0,0,.21.14.24.24,0,0,0,.2-.14A.67.67,0,0,0,277.16,172.36Z"/>
        <path class="aad2e1d1-02f7-44e7-a030-8d82a4a29c0c" d="M278.91,172.6a.54.54,0,1,1-.83-.44.35.35,0,0,1-.08-.22.37.37,0,0,1,.38-.36.36.36,0,0,1,.36.36.41.41,0,0,1-.07.22A.55.55,0,0,1,278.91,172.6Zm-.25,0a.29.29,0,0,0-.28-.28.29.29,0,1,0,0,.57A.29.29,0,0,0,278.66,172.6Zm-.41-.66a.13.13,0,0,0,.13.13.13.13,0,0,0,.12-.13.12.12,0,0,0-.12-.12A.12.12,0,0,0,278.25,171.94Z"/>
        <path class="aad2e1d1-02f7-44e7-a030-8d82a4a29c0c" d="M279.26,172.36a1,1,0,0,1,.16-.54.47.47,0,0,1,.82,0,1,1,0,0,1,.15.54.92.92,0,0,1-.15.53.47.47,0,0,1-.82,0A1,1,0,0,1,279.26,172.36Zm.88,0a.74.74,0,0,0-.1-.4.23.23,0,0,0-.42,0,.73.73,0,0,0-.11.4.75.75,0,0,0,.11.39.23.23,0,0,0,.42,0A.75.75,0,0,0,280.14,172.36Z"/>
        <path class="aad2e1d1-02f7-44e7-a030-8d82a4a29c0c" d="M280.85,172.36a1,1,0,0,1,.15-.54.47.47,0,0,1,.82,0,1,1,0,0,1,.15.54.92.92,0,0,1-.15.53.47.47,0,0,1-.82,0A.92.92,0,0,1,280.85,172.36Zm.88,0a.73.73,0,0,0-.11-.4.23.23,0,0,0-.42,0,.73.73,0,0,0-.11.4.75.75,0,0,0,.11.39.23.23,0,0,0,.42,0A.75.75,0,0,0,281.73,172.36Z"/>
        <path class="aad2e1d1-02f7-44e7-a030-8d82a4a29c0c" d="M283.1,172.11a.54.54,0,0,1,.54-.53.54.54,0,0,1,.54.48h0v.13a1.24,1.24,0,0,1-.08.46.79.79,0,0,1-.28.38.65.65,0,0,1-.34.1.13.13,0,0,1-.13-.12.12.12,0,0,1,.12-.12.4.4,0,0,0,.21-.07.34.34,0,0,0,.14-.15s0,0,0-.06a.49.49,0,0,1-.21,0A.54.54,0,0,1,283.1,172.11Zm.24,0a.31.31,0,0,0,.3.3.3.3,0,0,0,.29-.3.29.29,0,0,0-.29-.29A.3.3,0,0,0,283.34,172.11Z"/>
        <path class="aad2e1d1-02f7-44e7-a030-8d82a4a29c0c" d="M284.53,172.11a.54.54,0,0,1,.54-.53.54.54,0,0,1,.54.48h0v.13a1.24,1.24,0,0,1-.08.46.79.79,0,0,1-.28.38.65.65,0,0,1-.34.1.13.13,0,0,1-.13-.12.12.12,0,0,1,.12-.12.44.44,0,0,0,.21-.07.41.41,0,0,0,.14-.15l0-.06a.49.49,0,0,1-.21,0A.54.54,0,0,1,284.53,172.11Zm.24,0a.31.31,0,0,0,.3.3.3.3,0,0,0,.29-.3.29.29,0,0,0-.29-.29A.3.3,0,0,0,284.77,172.11Z"/>
        <path class="aad2e1d1-02f7-44e7-a030-8d82a4a29c0c" d="M286,172.36a1,1,0,0,1,.16-.54.48.48,0,0,1,.41-.24.5.5,0,0,1,.41.24,1,1,0,0,1,.15.54.92.92,0,0,1-.15.53.5.5,0,0,1-.41.24.48.48,0,0,1-.41-.24A1,1,0,0,1,286,172.36Zm.88,0a.74.74,0,0,0-.1-.4.23.23,0,0,0-.42,0,.73.73,0,0,0-.11.4.75.75,0,0,0,.11.39.23.23,0,0,0,.42,0A.75.75,0,0,0,286.83,172.36Z"/>
        <path class="aad2e1d1-02f7-44e7-a030-8d82a4a29c0c" d="M289.05,172.19a.53.53,0,0,1,.16.39.55.55,0,0,1-.55.55.53.53,0,0,1-.39-.16.13.13,0,0,1,0-.18.11.11,0,0,1,.17,0,.31.31,0,0,0,.22.09.3.3,0,0,0,.21-.09.29.29,0,0,0,.09-.21.27.27,0,0,0-.09-.21.29.29,0,0,0-.21-.09.13.13,0,0,1-.09,0h0a.11.11,0,0,1,0-.17l.23-.24h-.36a.12.12,0,0,1-.13-.12.13.13,0,0,1,.13-.13h.65a.13.13,0,0,1,.13.13.14.14,0,0,1,0,.06s0,0,0,0l-.28.29A.57.57,0,0,1,289.05,172.19Z"/>
        <path class="aad2e1d1-02f7-44e7-a030-8d82a4a29c0c" d="M290.75,172.72a.12.12,0,0,1-.12.12h0V173a.12.12,0,0,1-.13.12.12.12,0,0,1-.12-.12v-.17h-.7a.12.12,0,0,1-.08,0,.14.14,0,0,1,0-.18l.83-1h.19v0h0v0h0v.9h0A.12.12,0,0,1,290.75,172.72Zm-.39-.67-.44.55h.44Z"/>
        <path class="aad2e1d1-02f7-44e7-a030-8d82a4a29c0c" d="M291,172.36a1,1,0,0,1,.15-.54.48.48,0,0,1,.83,0,1,1,0,0,1,.15.54,1,1,0,0,1-.15.53.48.48,0,0,1-.83,0A.92.92,0,0,1,291,172.36Zm.88,0a.66.66,0,0,0-.11-.4.25.25,0,0,0-.2-.14.28.28,0,0,0-.22.14.74.74,0,0,0-.1.4.75.75,0,0,0,.1.39.28.28,0,0,0,.22.14.25.25,0,0,0,.2-.14A.67.67,0,0,0,291.92,172.36Z"/>
        <path class="aad2e1d1-02f7-44e7-a030-8d82a4a29c0c" d="M293.44,172.19a.56.56,0,0,1,.17.39.54.54,0,0,1-.17.39.53.53,0,0,1-.39.16h0a.54.54,0,0,1-.39-.16.13.13,0,0,1,0-.18.15.15,0,0,1,.18,0,.29.29,0,0,0,.21.09.31.31,0,0,0,.22-.09.3.3,0,0,0,.08-.21.28.28,0,0,0-.08-.21.31.31,0,0,0-.22-.09.3.3,0,0,0-.21.09.13.13,0,0,1-.18,0l0,0h0a0,0,0,0,1,0,0l.06-.57a.15.15,0,0,1,.06-.09h.73a.12.12,0,0,1,.13.12.13.13,0,0,1-.13.13h-.55l0,.22a.39.39,0,0,1,.15,0A.53.53,0,0,1,293.44,172.19Z"/>
      </g>
      <g>
        <path class="a882db87-1b67-429c-8f17-d183808afd1c" d="M286.85,165.31h-.51V167a.18.18,0,1,1-.36,0v-1.73h-.52a.18.18,0,0,1-.17-.19.16.16,0,0,1,.17-.17h1.39a.17.17,0,0,1,.18.17A.19.19,0,0,1,286.85,165.31Z"/>
        <path class="a882db87-1b67-429c-8f17-d183808afd1c" d="M289.19,165.23a1.21,1.21,0,0,1,0,1.64,1.09,1.09,0,0,1-.78.35,1.12,1.12,0,0,1-.8-.35,1.21,1.21,0,0,1,0-1.64,1.08,1.08,0,0,1,.8-.35A1.05,1.05,0,0,1,289.19,165.23Zm-.05.82a.83.83,0,0,0-.22-.57.71.71,0,0,0-.51-.23.74.74,0,0,0-.53.23.88.88,0,0,0-.22.57.86.86,0,0,0,.22.57.74.74,0,0,0,.53.23.71.71,0,0,0,.51-.23A.81.81,0,0,0,289.14,166.05Z"/>
        <path class="a882db87-1b67-429c-8f17-d183808afd1c" d="M291.13,167v-1.92a.18.18,0,0,1,.18-.17.19.19,0,0,1,.19.17v1.74h.88a.18.18,0,0,1,0,.36h-1.07A.18.18,0,0,1,291.13,167Z"/>
        <path class="a882db87-1b67-429c-8f17-d183808afd1c" d="M293,167v-1.92a.16.16,0,0,1,.17-.17h1.07a.18.18,0,0,1,.18.17.19.19,0,0,1-.18.19h-.88v.59h.75a.19.19,0,0,1,.18.18.18.18,0,0,1-.18.18h-.75v.6h.88a.18.18,0,0,1,0,.36h-1.07A.17.17,0,0,1,293,167Z"/>
        <path class="a882db87-1b67-429c-8f17-d183808afd1c" d="M296.29,165.31h-.52V167a.18.18,0,1,1-.36,0v-1.73h-.51a.19.19,0,0,1-.18-.19.17.17,0,0,1,.18-.17h1.39a.18.18,0,0,1,.18.17A.2.2,0,0,1,296.29,165.31Z"/>
      </g>
      <rect class="b34799ef-de35-4cf7-bfc9-3948ab562994" x="269.12" y="153.86" width="2.18" height="67.18"/>
    </g>
    <g>
      <g>
        <path class="b09575db-f156-42a2-9706-25c6e3e3b29e" d="M283.29,158.59v-.38c0-.44-.16-.6-.59-.66a6,6,0,0,0-2.06.22c-.24.06-.26,0-.31-.18-.12-.56-.23-.51.4-.66a6,6,0,0,1,2.59-.12,1.08,1.08,0,0,1,1,.8,1.84,1.84,0,0,1,.06.47c0,.93,0,2.34,0,2.58a4.82,4.82,0,0,1,0,.6c0,.28-.18.35-.42.46a3.41,3.41,0,0,1-1.1.23,6.87,6.87,0,0,1-1.64-.07,1.39,1.39,0,0,1-1.2-1.73c.07-.79.46-1.12,1.36-1.24.32,0,.65-.1,1-.16Zm0,.75c-.59.1-1.17.19-1.75.32a.59.59,0,0,0-.35.25.85.85,0,0,0,.51,1.27,3.18,3.18,0,0,0,1.59-.1Z"/>
        <path class="b09575db-f156-42a2-9706-25c6e3e3b29e" d="M292.83,157.7v3.9c0,.23,0,.25-.27.26a5.23,5.23,0,0,0-.56,0c-.24,0-.26,0-.26-.27v-4a.51.51,0,0,1,.37-.53,8,8,0,0,1,1.07-.27,6.1,6.1,0,0,1,1.76-.06,1.15,1.15,0,0,1,1.15,1.22c0,1.22,0,2.45,0,3.68,0,.14-.06.2-.21.2s-.42,0-.63,0-.25-.08-.25-.26v-3.46a.59.59,0,0,0-.63-.63A5.21,5.21,0,0,0,292.83,157.7Z"/>
        <path class="b09575db-f156-42a2-9706-25c6e3e3b29e" d="M278.19,161.9a4.72,4.72,0,0,1-1.5,0h-.06a1.66,1.66,0,0,1-1.37-1.37,5.41,5.41,0,0,1,0-2.23,1.7,1.7,0,0,1,1.53-1.49,4.62,4.62,0,0,1,2.12.14c.24.08.27.12.21.38-.12.51,0,.42-.54.33a6.28,6.28,0,0,0-1.22-.1,1,1,0,0,0-1,.87,4.86,4.86,0,0,0,0,1.7,1.07,1.07,0,0,0,1.26,1.06,6.69,6.69,0,0,0,1.17-.15c.25,0,.27-.06.33.18.12.49.11.52-.39.62Z"/>
        <path class="b09575db-f156-42a2-9706-25c6e3e3b29e" d="M288.78,157.76v3.82c0,.25,0,.27-.27.28s-.4,0-.6,0-.22-.06-.22-.22v-3.86c0-.51.09-.63.58-.78a9.05,9.05,0,0,1,2.51-.28c.17,0,.24,0,.24.25v.43c0,.22,0,.31-.34.28A13.51,13.51,0,0,0,288.78,157.76Z"/>
        <path class="b09575db-f156-42a2-9706-25c6e3e3b29e" d="M286.56,155.89c0,.16-.07.22-.2.23h-.65a.2.2,0,0,1-.22-.23v-.67a.18.18,0,0,1,.2-.2q.35,0,.69,0c.13,0,.18,0,.18.21Z"/>
      </g>
      <path class="b09575db-f156-42a2-9706-25c6e3e3b29e" d="M286.32,156.9h-.58a.25.25,0,0,0-.25.25V161l.54-.51.54.51v-3.88A.25.25,0,0,0,286.32,156.9Z"/>
    </g>
  </g>
  <rect class="edc453f9-b51d-490d-8df1-d38bf220b71a" x="1.92" y="-98.32" width="465.11" height="98.36"/>
  <g>
    <g>
      <circle class="a74dbacd-3d62-4109-8d0d-01002fc4cc7e" cx="338.18" cy="398.88" r="9.16"/>
      <circle class="a882db87-1b67-429c-8f17-d183808afd1c" cx="338.18" cy="398.88" r="6.33"/>
      <g>
        <circle class="a74dbacd-3d62-4109-8d0d-01002fc4cc7e" cx="271.14" cy="398.88" r="9.16"/>
        <rect class="b3929253-8b49-4e5b-8d91-0ec8ea7cec37" x="275.95" y="349.02" width="86.09" height="49.86" rx="13.73" transform="translate(637.99 747.9) rotate(180)"/>
        <circle class="e281993f-916b-49f1-8920-e5168b530498" cx="271.14" cy="398.88" r="6.33"/>
        <path class="b3929253-8b49-4e5b-8d91-0ec8ea7cec37" d="M300.26,398.88H256.43s-6.1-1.18-7-6.53c-.52-3.05-.45-8.92-.29-13.41,0-5.63,5.84-9.25,5.84-9.25l21.32-17.32S279.9,349,288.11,349"/>
        <path class="a882db87-1b67-429c-8f17-d183808afd1c" d="M277.29,355.3v12.47a.31.31,0,0,1-.3.31H261.64a.31.31,0,0,1-.2-.54l15.35-12.48A.31.31,0,0,1,277.29,355.3Z"/>
        <circle class="a882db87-1b67-429c-8f17-d183808afd1c" cx="271.14" cy="398.88" r="6.33"/>
      </g>
    </g>
    <g>
      <g>
        <path class="b09575db-f156-42a2-9706-25c6e3e3b29e" d="M314.22,373.34v-.86c0-1-.37-1.38-1.36-1.5a12.93,12.93,0,0,0-4.71.49c-.55.14-.6.12-.71-.41-.26-1.28-.52-1.17.92-1.51a13.7,13.7,0,0,1,5.94-.29,2.52,2.52,0,0,1,2.24,1.84,4.38,4.38,0,0,1,.14,1.08c0,2.13,0,5.36,0,5.9s0,1.15-.05,1.39c-.09.63-.41.79-1,1a8.13,8.13,0,0,1-2.53.51,15.22,15.22,0,0,1-3.76-.15c-2.17-.37-2.94-1.86-2.74-3.95.16-1.82,1.06-2.57,3.11-2.85.75-.1,1.49-.24,2.24-.36Zm0,1.72c-1.36.24-2.69.45-4,.73a1.49,1.49,0,0,0-.82.58,1.94,1.94,0,0,0,1.19,2.9,7.34,7.34,0,0,0,3.63-.21Z"/>
        <path class="b09575db-f156-42a2-9706-25c6e3e3b29e" d="M336.05,371.31v8.92c0,.53-.07.59-.61.59s-.81,0-1.28,0-.6-.05-.6-.6v-7.64c0-.49,0-1,0-1.46a1.16,1.16,0,0,1,.85-1.21,18.66,18.66,0,0,1,2.45-.61,14.32,14.32,0,0,1,4-.15,2.65,2.65,0,0,1,2.63,2.8c.05,2.8,0,5.61,0,8.42,0,.32-.12.47-.46.46a14.22,14.22,0,0,0-1.46,0c-.44,0-.57-.18-.57-.6q0-3.64,0-7.28c0-.22,0-.43,0-.64a1.33,1.33,0,0,0-1.43-1.43A12.58,12.58,0,0,0,336.05,371.31Z"/>
        <path class="b09575db-f156-42a2-9706-25c6e3e3b29e" d="M302.56,380.91a10.79,10.79,0,0,1-3.45,0l-.14,0a3.77,3.77,0,0,1-3.12-3.14,12,12,0,0,1,0-5.1,3.89,3.89,0,0,1,3.49-3.42,10.63,10.63,0,0,1,4.85.34c.56.18.61.28.47.86-.27,1.17-.08,1-1.23.77a13.77,13.77,0,0,0-2.79-.23,2.26,2.26,0,0,0-2.3,2,10.83,10.83,0,0,0-.08,3.89c.29,1.75,1,2.42,2.88,2.43a15.4,15.4,0,0,0,2.68-.36c.58-.1.62-.12.75.43.28,1.12.26,1.19-.88,1.42C303.29,380.8,302.92,380.86,302.56,380.91Z"/>
        <path class="b09575db-f156-42a2-9706-25c6e3e3b29e" d="M326.78,371.44v8.75c0,.58,0,.63-.62.63s-.91,0-1.36,0-.52-.15-.51-.51c0-.74,0-1.48,0-2.23v-6.6c0-1.16.2-1.43,1.32-1.78a20.73,20.73,0,0,1,5.75-.64c.39,0,.55,0,.56.57v1c0,.5-.1.7-.77.64A30.28,30.28,0,0,0,326.78,371.44Z"/>
        <path class="b09575db-f156-42a2-9706-25c6e3e3b29e" d="M321.72,367.16c0,.37-.17.52-.46.53-.5,0-1,0-1.5,0a.46.46,0,0,1-.51-.51c0-.77,0-.78,0-1.55a.41.41,0,0,1,.44-.46h1.59c.3,0,.43.08.43.48Z"/>
      </g>
      <path class="b09575db-f156-42a2-9706-25c6e3e3b29e" d="M321.15,369.47h-1.33a.58.58,0,0,0-.57.57v8.89l1.23-1.16,1.24,1.16V370A.57.57,0,0,0,321.15,369.47Z"/>
    </g>
  </g>
  <g>
    <ellipse class="b5a6edbb-34df-4920-8ec8-da82e73da7ef" cx="367.04" cy="108.93" rx="12.25" ry="4.45"/>
    <g>
      <line class="e0bf123b-e137-4d34-b7a9-8fa1f7ea49b2" x1="367.1" y1="108.28" x2="367.1" y2="68.48"/>
      <path class="a099860d-7def-4840-bb56-308be6711d7e" d="M356.86,71s.92,10.29,10.24,14"/>
      <path class="a099860d-7def-4840-bb56-308be6711d7e" d="M377.18,67.07S376,79.2,367.1,79.2"/>
      <circle class="be4d3b4f-79aa-4130-89d2-6c441c1f1a4c" cx="378.83" cy="65.5" r="8.01"/>
      <circle class="be4d3b4f-79aa-4130-89d2-6c441c1f1a4c" cx="384.44" cy="43.78" r="8.01"/>
      <circle class="be4d3b4f-79aa-4130-89d2-6c441c1f1a4c" cx="351.27" cy="44.57" r="9.57"/>
      <circle class="be4d3b4f-79aa-4130-89d2-6c441c1f1a4c" cx="366.33" cy="67.85" r="6.24"/>
      <circle class="be4d3b4f-79aa-4130-89d2-6c441c1f1a4c" cx="386.83" cy="56.78" r="10.3"/>
      <circle class="be4d3b4f-79aa-4130-89d2-6c441c1f1a4c" cx="346.15" cy="56.78" r="9.22"/>
      <circle class="be4d3b4f-79aa-4130-89d2-6c441c1f1a4c" cx="363" cy="39.06" r="13.73"/>
      <circle class="be4d3b4f-79aa-4130-89d2-6c441c1f1a4c" cx="373.25" cy="41.02" r="10.97"/>
      <circle class="be4d3b4f-79aa-4130-89d2-6c441c1f1a4c" cx="365.21" cy="54.75" r="13.73"/>
      <circle class="be4d3b4f-79aa-4130-89d2-6c441c1f1a4c" cx="355.23" cy="65.5" r="7.99"/>
    </g>
  </g>
  <g>
    <ellipse class="b5a6edbb-34df-4920-8ec8-da82e73da7ef" cx="394.54" cy="194.94" rx="14.32" ry="5.21"/>
    <g>
      <line class="bc2312bb-898d-4247-9db4-22a0c56d9979" x1="394.62" y1="194.18" x2="394.62" y2="147.64"/>
      <path class="adf33437-6d0e-4868-803c-d2b096a7915e" d="M382.64,150.63s1.08,12,12,16.43"/>
      <path class="adf33437-6d0e-4868-803c-d2b096a7915e" d="M406.4,146s-1.43,14.17-11.78,14.17"/>
      <circle class="be4d3b4f-79aa-4130-89d2-6c441c1f1a4c" cx="408.32" cy="144.16" r="9.36"/>
      <circle class="be4d3b4f-79aa-4130-89d2-6c441c1f1a4c" cx="414.88" cy="118.76" r="9.36"/>
      <circle class="be4d3b4f-79aa-4130-89d2-6c441c1f1a4c" cx="376.1" cy="119.69" r="11.19"/>
      <circle class="be4d3b4f-79aa-4130-89d2-6c441c1f1a4c" cx="393.71" cy="146.91" r="7.3"/>
      <circle class="be4d3b4f-79aa-4130-89d2-6c441c1f1a4c" cx="417.68" cy="133.96" r="12.04"/>
      <circle class="be4d3b4f-79aa-4130-89d2-6c441c1f1a4c" cx="370.13" cy="133.96" r="10.78"/>
      <circle class="be4d3b4f-79aa-4130-89d2-6c441c1f1a4c" cx="389.82" cy="113.25" r="16.05"/>
      <circle class="be4d3b4f-79aa-4130-89d2-6c441c1f1a4c" cx="401.8" cy="115.54" r="12.82"/>
      <circle class="be4d3b4f-79aa-4130-89d2-6c441c1f1a4c" cx="392.41" cy="131.59" r="16.05"/>
      <circle class="be4d3b4f-79aa-4130-89d2-6c441c1f1a4c" cx="380.73" cy="144.16" r="9.34"/>
    </g>
  </g>
  <g>
    <ellipse class="b5a6edbb-34df-4920-8ec8-da82e73da7ef" cx="428.96" cy="292.65" rx="16.4" ry="5.97"/>
    <g>
      <line class="a2304821-0c52-47c6-8611-0719de513799" x1="429.05" y1="291.78" x2="429.05" y2="238.45"/>
      <path class="ec063867-daea-4d15-922b-7bd55135e18a" d="M415.33,241.88s1.24,13.79,13.72,18.82"/>
      <path class="ec063867-daea-4d15-922b-7bd55135e18a" d="M442.55,236.57s-1.63,16.24-13.5,16.24"/>
      <circle class="be4d3b4f-79aa-4130-89d2-6c441c1f1a4c" cx="444.76" cy="234.46" r="10.72"/>
      <circle class="be4d3b4f-79aa-4130-89d2-6c441c1f1a4c" cx="452.28" cy="205.36" r="10.72"/>
      <circle class="be4d3b4f-79aa-4130-89d2-6c441c1f1a4c" cx="407.84" cy="206.42" r="12.82"/>
      <circle class="be4d3b4f-79aa-4130-89d2-6c441c1f1a4c" cx="428.01" cy="237.61" r="8.36"/>
      <circle class="be4d3b4f-79aa-4130-89d2-6c441c1f1a4c" cx="455.48" cy="222.78" r="13.8"/>
      <circle class="be4d3b4f-79aa-4130-89d2-6c441c1f1a4c" cx="400.99" cy="222.78" r="12.35"/>
      <circle class="be4d3b4f-79aa-4130-89d2-6c441c1f1a4c" cx="423.55" cy="199.05" r="18.39"/>
      <circle class="be4d3b4f-79aa-4130-89d2-6c441c1f1a4c" cx="437.28" cy="201.67" r="14.69"/>
      <circle class="be4d3b4f-79aa-4130-89d2-6c441c1f1a4c" cx="426.52" cy="220.06" r="18.39"/>
      <circle class="be4d3b4f-79aa-4130-89d2-6c441c1f1a4c" cx="413.14" cy="234.46" r="10.7"/>
    </g>
  </g>
  <g class="text-cta text-cta--7">
    <rect class="b5a6edbb-34df-4920-8ec8-da82e73da7ef" x="79.67" y="167.64" width="105.21" height="67.55" rx="4.86"/>
    <path class="faf142ad-d7a5-490e-9a29-ae593bc99599" d="M184.87,230.28a4.93,4.93,0,0,1-4.91,4.91H84.58a4.93,4.93,0,0,1-4.91-4.91"/>
    <rect class="b5a6edbb-34df-4920-8ec8-da82e73da7ef" x="45.14" y="199.65" width="34.05" height="35.54" rx="3.97"/>
    <circle class="ae478da2-7a9a-4d81-bbf5-efe2e2dfaf63" cx="64.89" cy="235.65" r="7.42"/>
    <circle class="ae478da2-7a9a-4d81-bbf5-efe2e2dfaf63" cx="159.08" cy="235.65" r="7.42"/>
    <path class="b5a6edbb-34df-4920-8ec8-da82e73da7ef" d="M73.74,208.21H53.31A5.45,5.45,0,0,1,48,201.74l4.47-23.5a5.46,5.46,0,0,1,5.36-4.44H73.74a5.46,5.46,0,0,1,5.45,5.46v23.5A5.45,5.45,0,0,1,73.74,208.21Z"/>
    <rect class="a882db87-1b67-429c-8f17-d183808afd1c" x="56.41" y="179.95" width="15.78" height="21.84" rx="2.55"/>
    <g>
      <path class="a882db87-1b67-429c-8f17-d183808afd1c" d="M105.78,204.72a.8.8,0,0,1-.51,1,1.08,1.08,0,0,1-.33.05h0a1,1,0,0,1-.58-.17,1.45,1.45,0,0,1-.47-.51,4.07,4.07,0,0,1-.31-1.77,1.21,1.21,0,0,0-.17-.63,1.33,1.33,0,0,0-.45-.43,2.8,2.8,0,0,0-.82-.36h-1.74v3.2a.82.82,0,0,1-.83.81.81.81,0,0,1-.81-.81v-8.69a.8.8,0,0,1,.81-.81h2.64a3.15,3.15,0,0,1,3.16,3.16,3.11,3.11,0,0,1-1.15,2.42,2.24,2.24,0,0,1,.51.55,2.73,2.73,0,0,1,.49,1.59,3.43,3.43,0,0,0,.06.87A.77.77,0,0,1,105.78,204.72Zm-2.06-5.93a1.52,1.52,0,0,0-1.52-1.53h-1.81v3h1.81A1.52,1.52,0,0,0,103.72,198.79Z"/>
      <path class="a882db87-1b67-429c-8f17-d183808afd1c" d="M107.35,202.26a3.64,3.64,0,0,1,3.59-3.69A3.53,3.53,0,0,1,114.5,202v.08a.3.3,0,0,1,0,.13.71.71,0,0,1-.76.59H109a1.85,1.85,0,0,0,.5,1,2.29,2.29,0,0,0,1.41.67,2.44,2.44,0,0,0,1.54-.37.83.83,0,0,1,1.1-.05.68.68,0,0,1,0,1,3.73,3.73,0,0,1-2.64,1A3.65,3.65,0,0,1,107.35,202.26Zm1.61-.72h4.17a2.43,2.43,0,0,0-2.19-1.57A2,2,0,0,0,109,201.54Z"/>
      <path class="a882db87-1b67-429c-8f17-d183808afd1c" d="M123,201.62v3.54a.78.78,0,0,1-.78.78.8.8,0,0,1-.79-.78v-3.54a1.51,1.51,0,0,0-3,0v3.49s0,.08,0,.11v0s0,.06,0,.09v.07a.85.85,0,0,1-.74.47h-.14a.8.8,0,0,1-.64-.77v-5.79a.79.79,0,0,1,.78-.8.76.76,0,0,1,.71.45,3.12,3.12,0,0,1,1.58-.45,3.06,3.06,0,0,1,2.31,1,3.09,3.09,0,0,1,5.38,2.08v3.49a.78.78,0,0,1-.78.78.79.79,0,0,1-.79-.78v-3.49a1.51,1.51,0,0,0-1.49-1.52A1.53,1.53,0,0,0,123,201.62Z"/>
      <path class="a882db87-1b67-429c-8f17-d183808afd1c" d="M131.54,204.87a3.72,3.72,0,0,1-1-2.6,3.83,3.83,0,0,1,1-2.58,3.45,3.45,0,0,1,2.54-1.12,3.28,3.28,0,0,1,2.46,1.12,3.71,3.71,0,0,1,1,2.58,3.6,3.6,0,0,1-1,2.6,3.28,3.28,0,0,1-2.46,1.12A3.45,3.45,0,0,1,131.54,204.87Zm.59-2.6a2.4,2.4,0,0,0,.53,1.57,2,2,0,0,0,1.42.54,1.94,1.94,0,0,0,1.35-.54,2.28,2.28,0,0,0,.58-1.57,2.22,2.22,0,0,0-.58-1.53,2.1,2.1,0,0,0-1.35-.56,2.18,2.18,0,0,0-1.42.56A2.33,2.33,0,0,0,132.13,202.27Z"/>
      <path class="a882db87-1b67-429c-8f17-d183808afd1c" d="M145.46,199.75,143,205.47a.21.21,0,0,1-.06.1s0,0,0,0l-.09.1a0,0,0,0,1,0,0l-.09.09h0a.23.23,0,0,1-.1.07h0v0a.21.21,0,0,0-.12,0h-.34a.24.24,0,0,0-.12,0v0h0a.88.88,0,0,1-.13-.07h0l-.09-.09s0,0,0,0l-.08-.1s0,0,0,0,0,0-.06-.1l-2.39-5.72a.77.77,0,1,1,1.42-.57l1.69,4,1.71-4a.74.74,0,0,1,1-.43A.75.75,0,0,1,145.46,199.75Z"/>
      <path class="a882db87-1b67-429c-8f17-d183808afd1c" d="M154.08,202.27v2.89a.78.78,0,0,1-.78.78.81.81,0,0,1-.77-.63,3.32,3.32,0,0,1-2,.63,3.42,3.42,0,0,1-2.5-1.07,3.75,3.75,0,0,1-1-2.6,3.69,3.69,0,0,1,1-2.59,3.38,3.38,0,0,1,2.5-1.11,3.34,3.34,0,0,1,2,.65.81.81,0,0,1,.77-.65.79.79,0,0,1,.78.8Zm-1.56,0a2.15,2.15,0,0,0-.58-1.52,1.83,1.83,0,0,0-1.37-.6,1.8,1.8,0,0,0-1.37.6,2.18,2.18,0,0,0-.56,1.52,2.22,2.22,0,0,0,.56,1.52,1.86,1.86,0,0,0,1.37.58,1.89,1.89,0,0,0,1.37-.58A2.18,2.18,0,0,0,152.52,202.27Z"/>
      <path class="a882db87-1b67-429c-8f17-d183808afd1c" d="M158.09,195.63a.82.82,0,0,1,.83.81v8.69a.82.82,0,0,1-1.64,0v-8.69A.81.81,0,0,1,158.09,195.63Z"/>
      <path class="a882db87-1b67-429c-8f17-d183808afd1c" d="M160.5,203.84a.76.76,0,0,1,1.1-.12,2.76,2.76,0,0,0,1.62.65,2,2,0,0,0,1-.28.61.61,0,0,0,.27-.45.2.2,0,0,0,0-.14.45.45,0,0,0-.2-.18,3.2,3.2,0,0,0-1.17-.41h0a5.47,5.47,0,0,1-1.28-.39,2.45,2.45,0,0,1-1-.85,1.82,1.82,0,0,1-.25-.93,2.06,2.06,0,0,1,.87-1.62,3.2,3.2,0,0,1,1.81-.55,3.8,3.8,0,0,1,2.21.81.81.81,0,0,1,.24,1.09.78.78,0,0,1-1.09.21,2.49,2.49,0,0,0-1.36-.54,1.46,1.46,0,0,0-.88.26.47.47,0,0,0-.24.34.17.17,0,0,0,0,.12.46.46,0,0,0,.16.15,3.21,3.21,0,0,0,1.08.35h0a5.61,5.61,0,0,1,1.37.43,2.32,2.32,0,0,1,1,.87,2,2,0,0,1,.28,1,2.11,2.11,0,0,1-.93,1.71,3.36,3.36,0,0,1-1.92.59,4.25,4.25,0,0,1-2.62-1A.78.78,0,0,1,160.5,203.84Z"/>
    </g>
  </g>
  <g>
    <line class="a9bca843-89f5-480b-a573-9c9723faa128" x1="241.81" y1="192.39" x2="241.81" y2="209.06"/>
    <line class="a9bca843-89f5-480b-a573-9c9723faa128" x1="260.9" y1="192.39" x2="260.9" y2="209.06"/>
    <rect class="aad2e1d1-02f7-44e7-a030-8d82a4a29c0c" x="243.17" y="180.48" width="16.44" height="21.95" rx="1.21"/>
    <rect class="aad2e1d1-02f7-44e7-a030-8d82a4a29c0c" x="240.96" y="197.2" width="20.84" height="5.43" rx="2.13"/>
    <rect class="aad2e1d1-02f7-44e7-a030-8d82a4a29c0c" x="259.4" y="191.46" width="2.43" height="1.85" rx="0.73"/>
    <rect class="aad2e1d1-02f7-44e7-a030-8d82a4a29c0c" x="240.96" y="191.46" width="2.43" height="1.85" rx="0.73"/>
    <line class="acbf1b35-47d5-4f8c-aab2-ef963afb05c8" x1="243.12" y1="197.01" x2="259.64" y2="197.01"/>
    <circle class="a882db87-1b67-429c-8f17-d183808afd1c" cx="248.35" cy="185.85" r="0.44"/>
    <circle class="a882db87-1b67-429c-8f17-d183808afd1c" cx="248.35" cy="191.35" r="0.44"/>
    <circle class="a882db87-1b67-429c-8f17-d183808afd1c" cx="254.45" cy="185.85" r="0.44"/>
    <circle class="a882db87-1b67-429c-8f17-d183808afd1c" cx="254.45" cy="191.35" r="0.44"/>
  </g>
  <g>
    <path class="af1af0a5-248f-4388-9569-1c8f7b8e73df" d="M385.22,379.28a16.22,16.22,0,0,0-1.39-2.76,4.13,4.13,0,0,1-.53-3,4,4,0,0,1,1.58-2c2-1.53,5.12-2.15,7.05-.49s1.84,4.34,1.35,6.68-1.33,4.72-.75,7,2.43,4,3.78,6a15.26,15.26,0,0,1,2.32,5.17,26.32,26.32,0,0,1,.52,6.45c0,3.3-.32,6.83-2.38,9.41-2.46,3.05-6.78,3.9-10.69,3.69a15.89,15.89,0,0,1-6.88-1.74,8.62,8.62,0,0,1-4.34-5.41,10.44,10.44,0,0,1-.05-3.74,30.13,30.13,0,0,1,5.52-13.22c1.51-2.14,3.23-4.17,4.25-6.58s1.24-5.37-.24-7.53"/>
    <path class="a668f716-b3e0-4330-be5f-e269b07fd36f" d="M384.22,375.16c-3-.21-6.43-.25-8.3,1.76l8.69-.12,0-1.5"/>
    <circle class="f59664d2-23b5-4e81-9984-c8815ee903d9" cx="386.1" cy="373.81" r="0.82"/>
    <path class="fa993ac0-4a4a-47ac-b81e-9e03098bb55f" d="M390,414.23a116.26,116.26,0,0,1-.43,16"/>
    <path class="fa993ac0-4a4a-47ac-b81e-9e03098bb55f" d="M383.93,414.23a116.26,116.26,0,0,0,.43,16"/>
    <path class="a668f716-b3e0-4330-be5f-e269b07fd36f" d="M391.72,432.85a1.57,1.57,0,0,0-1.16-.16,1.53,1.53,0,0,0-.95.68,1.15,1.15,0,0,0-.5-.69,1.11,1.11,0,0,0-.37-.07,5,5,0,0,0-.95.05c.15,0,.42-.4.52-.51s.32-.41.47-.62c.28-.44.49-.92.77-1.36a14.5,14.5,0,0,1,1,1.28Z"/>
    <path class="a668f716-b3e0-4330-be5f-e269b07fd36f" d="M386.45,432.7a1.57,1.57,0,0,0-1.16-.16,1.53,1.53,0,0,0-1,.68.84.84,0,0,0-.87-.76,5,5,0,0,0-1,.05c.15,0,.43-.4.52-.51a6.74,6.74,0,0,0,.47-.62c.29-.44.49-.92.77-1.36a14.5,14.5,0,0,1,1,1.28Z"/>
  </g>
  <g>
    <path class="faf142ad-d7a5-490e-9a29-ae593bc99599" d="M225.86,190l.6-7.5c0-3.24,2.36-5.86,5.27-5.86H234c2.91,0,5.27,2.62,5.27,5.86l.72,7.5"/>
    <g>
      <g>
        <g>
          <path class="e67e2b26-a801-442b-861f-821bedef5088" d="M232,195a6.14,6.14,0,0,0-2.31.22,4.28,4.28,0,0,0-1.85,2.09,33,33,0,0,0-2.05,7.46c-.61,3.15,8.52,2.74,9.76,3.5"/>
          <path class="bf751a37-3adf-4fa2-827e-c58efc763244" d="M234.34,195c2,0,2.8-.17,4.15,2.31s3,12.08,3.19,15.7"/>
          <rect class="f6edd1cb-a3f1-4691-82a6-d8984930c2be" x="227.68" y="178.71" width="10.55" height="14.29" rx="5.27"/>
          <rect class="a882db87-1b67-429c-8f17-d183808afd1c" x="229.58" y="185.38" width="1.41" height="0.76" rx="0.38"/>
          <rect class="a00c9ee7-bdf5-444c-aab2-de4483ffe350" x="232.03" y="191.96" width="2.31" height="2.31"/>
          <rect class="a882db87-1b67-429c-8f17-d183808afd1c" x="234.91" y="185.38" width="1.41" height="0.76" rx="0.38"/>
          <circle class="ac7d9051-c8d2-4172-8005-b11d253e3e78" cx="235.62" cy="185.76" r="0.3"/>
          <line class="f4c36866-045a-4154-99e1-a14c21c31fcb" x1="229.58" y1="184.14" x2="230.75" y2="184.14"/>
          <line class="f4c36866-045a-4154-99e1-a14c21c31fcb" x1="235.11" y1="184.14" x2="236.28" y2="184.14"/>
          <g class="f3a5127e-a0fc-432b-946a-06cbb5605982">
            <circle class="ac7d9051-c8d2-4172-8005-b11d253e3e78" cx="230.29" cy="185.76" r="0.3"/>
          </g>
          <path class="b7f8ef06-342d-456d-9d43-afa245041c51" d="M230.89,189.39a3.08,3.08,0,0,0,4.12,0"/>
          <path class="b7f8ef06-342d-456d-9d43-afa245041c51" d="M233.42,187.47H233a.28.28,0,0,1-.29-.29v-.41"/>
          <rect class="af1af0a5-248f-4388-9569-1c8f7b8e73df" x="227.98" y="194.27" width="10.17" height="12.81" rx="5.09"/>
          <polygon class="f117ce6f-1d6d-42e4-a3bb-e141876a6a02" points="228.41 210.58 237.72 210.58 238.16 202.75 227.98 202.75 228.41 210.58"/>
        </g>
        <path class="a00c9ee7-bdf5-444c-aab2-de4483ffe350" d="M230.13,234.6h-2.46a157.27,157.27,0,0,1,1.76-22.67l3.9.89A85.57,85.57,0,0,0,230.13,234.6Z"/>
        <path class="a00c9ee7-bdf5-444c-aab2-de4483ffe350" d="M238.79,234.6h-2.46a85.9,85.9,0,0,0-3.19-21.77l3.9-.9A159.75,159.75,0,0,1,238.79,234.6Z"/>
        <polygon class="a668f716-b3e0-4330-be5f-e269b07fd36f" points="238.91 218.27 227.49 218.27 228.46 209.51 237.77 209.51 238.91 218.27"/>
        <rect class="aad2e1d1-02f7-44e7-a030-8d82a4a29c0c" x="227.49" y="234.6" width="2.95" height="3.89"/>
        <rect class="aad2e1d1-02f7-44e7-a030-8d82a4a29c0c" x="236.07" y="234.6" width="2.95" height="3.89"/>
        <path class="b3929253-8b49-4e5b-8d91-0ec8ea7cec37" d="M235.85,239a1.68,1.68,0,0,1,3.35,0"/>
        <rect class="aad2e1d1-02f7-44e7-a030-8d82a4a29c0c" x="235.85" y="239.02" width="3.35" height="0.65"/>
        <path class="b3929253-8b49-4e5b-8d91-0ec8ea7cec37" d="M227.29,239a1.68,1.68,0,0,1,3.35,0"/>
        <rect class="aad2e1d1-02f7-44e7-a030-8d82a4a29c0c" x="227.29" y="239.02" width="3.35" height="0.65"/>
        <path class="f1ca38fd-66cb-48e5-a3aa-cbce3c1b8004" d="M228.27,235.74a4.11,4.11,0,0,0,1.31.06,2.33,2.33,0,0,1-1.33.53,1.94,1.94,0,0,0,1.48.46,2.44,2.44,0,0,1-1.49.39"/>
        <path class="f1ca38fd-66cb-48e5-a3aa-cbce3c1b8004" d="M238.24,235.77a3.84,3.84,0,0,1-1.31.07,2.29,2.29,0,0,0,1.33.52,2,2,0,0,1-1.48.47,2.37,2.37,0,0,0,1.49.38"/>
        <path class="a00c9ee7-bdf5-444c-aab2-de4483ffe350" d="M234.91,194.18c0,.43-.77.77-1.72.77s-1.71-.34-1.71-.77"/>
      </g>
      <rect class="a00c9ee7-bdf5-444c-aab2-de4483ffe350" x="233.66" y="205.75" width="2.83" height="2.83" rx="1.41" transform="translate(-36.45 50.79) rotate(-11.45)"/>
      <rect class="a00c9ee7-bdf5-444c-aab2-de4483ffe350" x="240.33" y="211.55" width="3.05" height="3.05" rx="1.52" transform="translate(-37.49 52.26) rotate(-11.45)"/>
    </g>
    <polygon class="faf142ad-d7a5-490e-9a29-ae593bc99599" points="227.68 182.18 238.16 182.18 235.92 178.88 232.48 177.44 229.1 178.57 227.68 182.18"/>
  </g>
  <g>
    <line class="b627300f-ff09-4532-a76e-f92dfbb84fc0" x1="246.8" y1="221.86" x2="246.8" y2="239.89"/>
    <line class="b627300f-ff09-4532-a76e-f92dfbb84fc0" x1="267.46" y1="221.86" x2="267.46" y2="239.89"/>
    <rect class="aad2e1d1-02f7-44e7-a030-8d82a4a29c0c" x="248.27" y="208.98" width="17.78" height="23.75" rx="2.19"/>
    <rect class="aad2e1d1-02f7-44e7-a030-8d82a4a29c0c" x="245.89" y="227.06" width="22.55" height="5.87" rx="2.13"/>
    <rect class="aad2e1d1-02f7-44e7-a030-8d82a4a29c0c" x="265.83" y="220.86" width="2.63" height="2.01" rx="0.73"/>
    <rect class="aad2e1d1-02f7-44e7-a030-8d82a4a29c0c" x="245.89" y="220.86" width="2.63" height="2.01" rx="0.73"/>
    <line class="a97ff76f-7520-421a-8e28-8eb1b5c04aa3" x1="248.23" y1="226.86" x2="266.09" y2="226.86"/>
    <circle class="a882db87-1b67-429c-8f17-d183808afd1c" cx="253.87" cy="214.79" r="0.47"/>
    <circle class="a882db87-1b67-429c-8f17-d183808afd1c" cx="253.87" cy="220.73" r="0.47"/>
    <circle class="a882db87-1b67-429c-8f17-d183808afd1c" cx="260.48" cy="214.79" r="0.47"/>
    <circle class="a882db87-1b67-429c-8f17-d183808afd1c" cx="260.48" cy="220.73" r="0.47"/>
  </g>
  <g>
    <rect class="a3ca8ed2-77e7-48a8-ad7f-ac5d4e86da21" x="200.78" y="229.25" width="11.52" height="16.4"/>
    <rect class="a3ca8ed2-77e7-48a8-ad7f-ac5d4e86da21" x="214.39" y="227.59" width="11.52" height="16.4" transform="translate(-53.13 64.38) rotate(-14.87)"/>
    <rect class="a3ca8ed2-77e7-48a8-ad7f-ac5d4e86da21" x="197.88" y="212.85" width="11.52" height="16.4"/>
  </g>
</svg>
