<svg id="e25fb561-d793-44a9-876c-8c01be78e8b6" data-name="Layer 1" xmlns="http://www.w3.org/2000/svg" xmlns:xlink="http://www.w3.org/1999/xlink" viewBox="0 0 465.61 728.15">
  <defs>
    <style>
      .aa29342c-2efa-45f7-9af8-364e3d0c22fd, .ab4c842d-5d62-4704-8397-d70128a97113, .adc83ea3-fa63-4236-bf7c-c34f8c297cd6, .add992d8-f409-4858-a917-b5e5aab24e01, .aedb2804-66a7-4e06-b446-db421fdbae47, .b4bd443a-cee3-494c-9b44-f12972fa4541, .e164cdbd-140c-449c-a135-a5d9a5208f50, .e59e94b1-db48-4242-92b1-91e55940df98, .ebb266c5-2f92-45fc-bb8b-a1ca5960c801, .fa9ec2c9-27af-4921-9880-2e7d1855ab17 {
        fill: none;
      }

      .a1e8eec2-0326-43e8-a0ff-be845f5e3d65, .aad1e575-03f8-4e70-8b47-d3909e673443, .b01bb0c9-2e93-45ff-b2aa-ac7174739c7e, .b663a75a-0c98-4c60-9ff6-ba13cf409a68 {
        fill: #ede8db;
      }

      .bafa2f01-5ac4-4e68-a56a-e0d814e3c665 {
        fill: #aeaaa1;
      }

      .fb05bd80-bb01-4fbe-99f7-b1439c984cbc {
        fill: #062837;
        stroke-width: 2.55px;
      }

      .ebb266c5-2f92-45fc-bb8b-a1ca5960c801, .fb05bd80-bb01-4fbe-99f7-b1439c984cbc {
        stroke: #062837;
      }

      .a621915f-1014-417d-9e45-3b0b7d8b2889, .aa52a32f-dede-4b4d-a5af-c008ea6ee5f0, .aad1e575-03f8-4e70-8b47-d3909e673443, .ab4c842d-5d62-4704-8397-d70128a97113, .adc83ea3-fa63-4236-bf7c-c34f8c297cd6, .aedb2804-66a7-4e06-b446-db421fdbae47, .b0ef88a1-ee8b-43ae-801f-205bcc9db9ef, .b4bd443a-cee3-494c-9b44-f12972fa4541, .b663a75a-0c98-4c60-9ff6-ba13cf409a68, .b6985c12-aac0-4f33-bd54-33cbc46ec262, .e59e94b1-db48-4242-92b1-91e55940df98, .e993fef0-3d60-4279-93fc-98adbd8aaa6a, .ebb266c5-2f92-45fc-bb8b-a1ca5960c801, .ef813ff2-cdb7-40c0-befd-ec56172bbfa1, .f81e952b-3bf0-4d40-9968-6b514c61f6cb, .f9b26461-a94b-444e-9f92-531670ce6968, .fa735e09-a876-4bd3-81ea-602925b259a3, .fa9ec2c9-27af-4921-9880-2e7d1855ab17, .fb05bd80-bb01-4fbe-99f7-b1439c984cbc, .fc9153ac-5f17-4604-b76c-5a4a9df88997, .fdd5f464-9670-417a-955c-b2c4ae1c07dd {
        stroke-linecap: round;
        stroke-linejoin: round;
      }

      .a0b35c46-134b-4e3d-950c-fb4596117d3c {
        fill: #d5a555;
      }

      .f9b26461-a94b-444e-9f92-531670ce6968, .fc9153ac-5f17-4604-b76c-5a4a9df88997, .ff93da22-6492-485a-a613-99d780fb8e9d {
        fill: #002838;
      }

      .f9b26461-a94b-444e-9f92-531670ce6968, .fc9153ac-5f17-4604-b76c-5a4a9df88997 {
        stroke: #002838;
      }

      .f9b26461-a94b-444e-9f92-531670ce6968 {
        stroke-width: 1.27px;
      }

      .b7af1b50-b9f1-4c22-838f-441f15819527 {
        fill: #3c5743;
      }

      .a1e8eec2-0326-43e8-a0ff-be845f5e3d65, .a50414d3-ac04-4f36-bcf5-7e919f6d6787, .aa29342c-2efa-45f7-9af8-364e3d0c22fd, .abc20461-b524-41f9-9533-2d77b6df1687, .b2254deb-eec2-4666-8063-c6138e8db4f3, .b71c39d5-a5de-4f3d-8faa-3615a55ee9d2, .b7af1b50-b9f1-4c22-838f-441f15819527 {
        fill-rule: evenodd;
      }

      .e4e4da8f-1116-4258-b64a-98c4722c9c16 {
        fill: #d4a354;
      }

      .a50a7083-2ba9-487a-b689-cfe9b931cf4e {
        fill: #858173;
      }

      .a59bdc7d-2b72-4963-b67e-4383f66b8c93 {
        fill: #ada9a0;
      }

      .e55329d3-714e-494c-b002-d3ab3e8a7d65 {
        fill: #2d2e2c;
      }

      .a5175a99-0d7b-450c-82fa-fea32dddf11e, .abc20461-b524-41f9-9533-2d77b6df1687 {
        fill: #ea5736;
      }

      .a50414d3-ac04-4f36-bcf5-7e919f6d6787, .bbbaea21-d190-4a5b-a90d-1d8f6dde63bd {
        fill: #ebe8da;
      }

      .b71c39d5-a5de-4f3d-8faa-3615a55ee9d2, .e583cbd4-31f4-44a2-9baa-9ccd424b0f9e {
        fill: #3f5843;
      }

      .b786c70b-0417-472b-919b-cc379199371f {
        fill: #89563c;
      }

      .aa52a32f-dede-4b4d-a5af-c008ea6ee5f0, .aead4876-f766-4816-8789-b0fe097ed04d, .afe19517-304b-44ed-a96d-61c79ab2b958, .b0ef88a1-ee8b-43ae-801f-205bcc9db9ef, .b336f123-6000-462f-9fba-cdab45cac155, .e993fef0-3d60-4279-93fc-98adbd8aaa6a {
        fill: #d4a455;
      }

      .b2254deb-eec2-4666-8063-c6138e8db4f3, .ed298c0d-9fb1-4a21-8b6d-9ca5963be939, .fa735e09-a876-4bd3-81ea-602925b259a3 {
        fill: #062838;
      }

      .fa735e09-a876-4bd3-81ea-602925b259a3 {
        stroke: #062838;
        stroke-width: 0.16px;
      }

      .f331a56a-f0f7-4cae-9309-15c692165e17 {
        fill: #dfb4ac;
      }

      .ab4c842d-5d62-4704-8397-d70128a97113 {
        stroke: #524e4e;
        stroke-width: 0.5px;
      }

      .aac91234-f9b8-429f-afc9-921f15dd3d37 {
        fill: #78a9a2;
      }

      .fc9153ac-5f17-4604-b76c-5a4a9df88997 {
        stroke-width: 2.63px;
      }

      .a0293fe9-c906-48f0-bc85-fe214624d10a {
        fill: #afaca3;
      }

      .aa52a32f-dede-4b4d-a5af-c008ea6ee5f0, .aead4876-f766-4816-8789-b0fe097ed04d, .afe19517-304b-44ed-a96d-61c79ab2b958, .b0ef88a1-ee8b-43ae-801f-205bcc9db9ef, .e993fef0-3d60-4279-93fc-98adbd8aaa6a {
        stroke: #d4a455;
      }

      .aa52a32f-dede-4b4d-a5af-c008ea6ee5f0 {
        stroke-width: 0.47px;
      }

      .ac48b451-3803-4a62-bf00-686f194f2c3c {
        fill: #2e2d2c;
      }

      .ebb266c5-2f92-45fc-bb8b-a1ca5960c801 {
        stroke-width: 5.11px;
      }

      .b2026fdd-e07d-4f76-a068-6ec5bf736b7c {
        clip-path: url(#aea884fb-3099-40d0-aed8-40523f76d540);
      }

      .e59e94b1-db48-4242-92b1-91e55940df98 {
        stroke: #30383b;
        stroke-width: 3.41px;
      }

      .b4bd443a-cee3-494c-9b44-f12972fa4541 {
        stroke: #d5a555;
        stroke-width: 20.45px;
      }

      .aa29342c-2efa-45f7-9af8-364e3d0c22fd, .e164cdbd-140c-449c-a135-a5d9a5208f50 {
        stroke: #d5a655;
      }

      .aa29342c-2efa-45f7-9af8-364e3d0c22fd, .ab41b602-bcb3-4169-b352-c12bef3796a0, .aead4876-f766-4816-8789-b0fe097ed04d, .afe19517-304b-44ed-a96d-61c79ab2b958, .e164cdbd-140c-449c-a135-a5d9a5208f50, .e838bf45-83a7-4a07-b831-15f605a4d43c, .fe0e63fc-37ab-45ee-b9ec-e6a0de50986c {
        stroke-miterlimit: 10;
      }

      .e164cdbd-140c-449c-a135-a5d9a5208f50 {
        stroke-width: 15.34px;
      }

      .b15a01e9-f4f3-4070-aabd-823d1fe0ef6e {
        fill: #867f72;
      }

      .aa29342c-2efa-45f7-9af8-364e3d0c22fd {
        stroke-width: 14.95px;
      }

      .e838bf45-83a7-4a07-b831-15f605a4d43c, .f3a2145d-8620-4e98-aa7b-e9ec61ea2537, .fe0e63fc-37ab-45ee-b9ec-e6a0de50986c {
        fill: #ea5836;
      }

      .e838bf45-83a7-4a07-b831-15f605a4d43c, .fe0e63fc-37ab-45ee-b9ec-e6a0de50986c {
        stroke: #ea5736;
      }

      .e838bf45-83a7-4a07-b831-15f605a4d43c {
        stroke-width: 0.85px;
      }

      .bb25c1b6-b595-4019-b11a-71a0dfb35abb, .ef813ff2-cdb7-40c0-befd-ec56172bbfa1, .fdd5f464-9670-417a-955c-b2c4ae1c07dd {
        fill: #868072;
      }

      .ef1463ff-8ceb-4c3f-90cc-65fd1ed6b2b5 {
        fill: #aeaaa2;
      }

      .bbe7d0c0-a505-429f-905f-fdf518702cf0 {
        fill: #79a9a2;
      }

      .aed40f28-3abf-47b9-bf2d-9a7875654db3 {
        fill: #3d5843;
      }

      .ef813ff2-cdb7-40c0-befd-ec56172bbfa1, .fdd5f464-9670-417a-955c-b2c4ae1c07dd {
        stroke: #868072;
      }

      .fdd5f464-9670-417a-955c-b2c4ae1c07dd {
        stroke-width: 0.32px;
      }

      .e993fef0-3d60-4279-93fc-98adbd8aaa6a {
        stroke-width: 43.88px;
      }

      .afe19517-304b-44ed-a96d-61c79ab2b958 {
        stroke-width: 0.95px;
      }

      .ba092f5e-0c64-4f83-bc83-33dc3f4f7568 {
        fill: #ece8dc;
      }

      .ab41b602-bcb3-4169-b352-c12bef3796a0, .b6985c12-aac0-4f33-bd54-33cbc46ec262, .f24d40bd-1a75-4e4a-878c-2979fc45e5fb {
        fill: #8a533b;
      }

      .ab41b602-bcb3-4169-b352-c12bef3796a0, .b6985c12-aac0-4f33-bd54-33cbc46ec262 {
        stroke: #8a533b;
      }

      .b6985c12-aac0-4f33-bd54-33cbc46ec262 {
        stroke-width: 8.23px;
      }

      .ace2100f-f594-4d91-8791-e0d11061f007 {
        clip-path: url(#e0b54d3f-2364-4d93-b387-91bebffdcdc6);
      }

      .aedb2804-66a7-4e06-b446-db421fdbae47 {
        stroke: #31373a;
        stroke-width: 4.27px;
      }

      .aead4876-f766-4816-8789-b0fe097ed04d {
        stroke-width: 2.21px;
      }

      .ab41b602-bcb3-4169-b352-c12bef3796a0 {
        stroke-width: 4.88px;
      }

      .fe0e63fc-37ab-45ee-b9ec-e6a0de50986c {
        stroke-width: 1.52px;
      }

      .b0ef88a1-ee8b-43ae-801f-205bcc9db9ef {
        stroke-width: 0.85px;
      }

      .ef813ff2-cdb7-40c0-befd-ec56172bbfa1 {
        stroke-width: 0.57px;
      }

      .a621915f-1014-417d-9e45-3b0b7d8b2889, .abe5ceef-426f-4224-801f-87eda1008df5, .f81e952b-3bf0-4d40-9968-6b514c61f6cb {
        fill: #77a9a2;
      }

      .bccb206a-583c-49d0-bf49-f37111496eda {
        fill: #fff;
      }

      .a621915f-1014-417d-9e45-3b0b7d8b2889, .f81e952b-3bf0-4d40-9968-6b514c61f6cb, .fa9ec2c9-27af-4921-9880-2e7d1855ab17 {
        stroke: #77a9a2;
      }

      .adc83ea3-fa63-4236-bf7c-c34f8c297cd6, .f81e952b-3bf0-4d40-9968-6b514c61f6cb {
        stroke-width: 2.49px;
      }

      .aad1e575-03f8-4e70-8b47-d3909e673443, .adc83ea3-fa63-4236-bf7c-c34f8c297cd6, .b663a75a-0c98-4c60-9ff6-ba13cf409a68 {
        stroke: #ede8db;
      }

      .b663a75a-0c98-4c60-9ff6-ba13cf409a68 {
        stroke-width: 1.91px;
      }

      .fa9ec2c9-27af-4921-9880-2e7d1855ab17 {
        stroke-width: 5px;
      }

      .a621915f-1014-417d-9e45-3b0b7d8b2889, .aad1e575-03f8-4e70-8b47-d3909e673443 {
        stroke-width: 2px;
      }
    </style>
    <clipPath id="aea884fb-3099-40d0-aed8-40523f76d540">
      <rect class="add992d8-f409-4858-a917-b5e5aab24e01" x="321.73" y="354.32" width="10.68" height="5.75" rx="1.41"/>
    </clipPath>
    <clipPath id="e0b54d3f-2364-4d93-b387-91bebffdcdc6">
      <rect class="add992d8-f409-4858-a917-b5e5aab24e01" x="120.05" y="291" width="13.37" height="7.2" rx="1.48"/>
    </clipPath>
  </defs>
  <title>screen-14</title>
  <rect class="b01bb0c9-2e93-45ff-b2aa-ac7174739c7e" y="-927.09" width="465.11" height="2577.43"/>
  <path class="bafa2f01-5ac4-4e68-a56a-e0d814e3c665" d="M424.2,730.78c7.23-129.38-1.72-259.11-13.49-388.16-4.15-45.49-8.65-91-15.47-136.15C379.88,104.8,352.73,2.1,369.15-99.4l97,.68-.88,827.86Z"/>
  <rect class="bafa2f01-5ac4-4e68-a56a-e0d814e3c665" x="1.55" y="671.15" width="404.31" height="57.98"/>
  <rect class="b01bb0c9-2e93-45ff-b2aa-ac7174739c7e" width="465.61" height="728.15"/>
  <path class="bafa2f01-5ac4-4e68-a56a-e0d814e3c665" d="M-.36,727.79C101.86,767.17,261.14,704,339.92,620c64-68.28,99-166,113.07-264.66S468.43,98.74,466.1-.36H414.57c5.09,99.75,10.14,202.73-3.93,301.36s-49,196.38-113.06,264.66C229.26,638.52,92.05,688.3.3,653Z"/>
  <rect class="bafa2f01-5ac4-4e68-a56a-e0d814e3c665" x="-0.36" y="221.38" width="437.04" height="54.74"/>
  <g>
    <polygon class="fb05bd80-bb01-4fbe-99f7-b1439c984cbc" points="192.51 122.38 112.23 122.38 31.95 122.38 19.85 145.22 112.23 145.22 204.6 145.22 192.51 122.38"/>
    <rect class="a0b35c46-134b-4e3d-950c-fb4596117d3c" x="124.59" y="190.24" width="44.12" height="25.4" rx="0.42"/>
    <rect class="a0b35c46-134b-4e3d-950c-fb4596117d3c" x="20.16" y="146.42" width="182.58" height="65.55" rx="1.37"/>
    <rect class="b01bb0c9-2e93-45ff-b2aa-ac7174739c7e" x="65.44" y="155.97" width="24.09" height="13.03" rx="0.43"/>
    <rect class="b01bb0c9-2e93-45ff-b2aa-ac7174739c7e" x="30.91" y="155.97" width="24.09" height="13.03" rx="0.43"/>
    <rect class="b01bb0c9-2e93-45ff-b2aa-ac7174739c7e" x="65.44" y="185.34" width="24.09" height="13.03" rx="0.43"/>
    <rect class="b01bb0c9-2e93-45ff-b2aa-ac7174739c7e" x="30.91" y="185.34" width="24.09" height="13.03" rx="0.43"/>
    <rect class="b01bb0c9-2e93-45ff-b2aa-ac7174739c7e" x="99.97" y="155.97" width="24.09" height="13.03" rx="0.43"/>
    <rect class="b01bb0c9-2e93-45ff-b2aa-ac7174739c7e" x="182.34" y="185.34" width="10.99" height="13.03" rx="0.29"/>
    <rect class="b01bb0c9-2e93-45ff-b2aa-ac7174739c7e" x="99.97" y="185.34" width="10.99" height="13.03" rx="0.29"/>
    <rect class="b01bb0c9-2e93-45ff-b2aa-ac7174739c7e" x="141.6" y="155.97" width="10.99" height="13.03" rx="0.29"/>
    <rect class="b01bb0c9-2e93-45ff-b2aa-ac7174739c7e" x="134.85" y="155.97" width="23.41" height="13.03" rx="0.43"/>
    <rect class="b01bb0c9-2e93-45ff-b2aa-ac7174739c7e" x="169.38" y="155.97" width="23.41" height="13.03" rx="0.43"/>
    <rect class="b01bb0c9-2e93-45ff-b2aa-ac7174739c7e" x="138.06" y="195.22" width="17.02" height="20.41" rx="0.23"/>
    <rect class="b01bb0c9-2e93-45ff-b2aa-ac7174739c7e" x="158.15" y="195.22" width="9.14" height="17.04" rx="0.16"/>
    <rect class="b01bb0c9-2e93-45ff-b2aa-ac7174739c7e" x="125.82" y="195.22" width="9.14" height="17.04" rx="0.16"/>
    <polygon class="f9b26461-a94b-444e-9f92-531670ce6968" points="124.37 190.24 168.64 190.24 156.83 179.19 137.8 179.19 124.37 190.24"/>
    <path class="b7af1b50-b9f1-4c22-838f-441f15819527" d="M184.15,215.64h-26a6.54,6.54,0,0,1,3.42-4.71,4.11,4.11,0,0,1-.77-1.41,4.24,4.24,0,0,1,6.39-4.81,6.52,6.52,0,0,1,11,6.86A6.51,6.51,0,0,1,184.15,215.64Z"/>
    <path class="b7af1b50-b9f1-4c22-838f-441f15819527" d="M109,215.64h26a6.53,6.53,0,0,0-3.41-4.71,4.24,4.24,0,0,0-5.63-6.22,6.52,6.52,0,0,0-11,6.86A6.51,6.51,0,0,0,109,215.64Z"/>
  </g>
  <g>
    <polygon class="fb05bd80-bb01-4fbe-99f7-b1439c984cbc" points="387.72 123.15 307.44 123.15 227.15 123.15 215.06 145.99 307.44 145.99 399.81 145.99 387.72 123.15"/>
    <rect class="a0b35c46-134b-4e3d-950c-fb4596117d3c" x="319.8" y="191" width="44.12" height="25.4" rx="0.42"/>
    <rect class="a0b35c46-134b-4e3d-950c-fb4596117d3c" x="215.37" y="147.18" width="182.58" height="65.55" rx="1.37"/>
    <rect class="b01bb0c9-2e93-45ff-b2aa-ac7174739c7e" x="260.65" y="156.73" width="24.09" height="13.03" rx="0.43"/>
    <rect class="b01bb0c9-2e93-45ff-b2aa-ac7174739c7e" x="226.12" y="156.73" width="24.09" height="13.03" rx="0.43"/>
    <rect class="b01bb0c9-2e93-45ff-b2aa-ac7174739c7e" x="260.65" y="186.11" width="24.09" height="13.03" rx="0.43"/>
    <rect class="b01bb0c9-2e93-45ff-b2aa-ac7174739c7e" x="226.12" y="186.11" width="24.09" height="13.03" rx="0.43"/>
    <rect class="b01bb0c9-2e93-45ff-b2aa-ac7174739c7e" x="295.18" y="156.73" width="24.09" height="13.03" rx="0.43"/>
    <rect class="b01bb0c9-2e93-45ff-b2aa-ac7174739c7e" x="377.55" y="186.11" width="10.99" height="13.03" rx="0.29"/>
    <rect class="b01bb0c9-2e93-45ff-b2aa-ac7174739c7e" x="295.18" y="186.11" width="10.99" height="13.03" rx="0.29"/>
    <rect class="b01bb0c9-2e93-45ff-b2aa-ac7174739c7e" x="336.81" y="156.73" width="10.99" height="13.03" rx="0.29"/>
    <rect class="b01bb0c9-2e93-45ff-b2aa-ac7174739c7e" x="330.06" y="156.73" width="23.41" height="13.03" rx="0.43"/>
    <rect class="b01bb0c9-2e93-45ff-b2aa-ac7174739c7e" x="364.59" y="156.73" width="23.41" height="13.03" rx="0.43"/>
    <rect class="b01bb0c9-2e93-45ff-b2aa-ac7174739c7e" x="333.26" y="195.99" width="17.02" height="20.41" rx="0.23"/>
    <rect class="b01bb0c9-2e93-45ff-b2aa-ac7174739c7e" x="353.36" y="195.99" width="9.14" height="17.04" rx="0.16"/>
    <rect class="b01bb0c9-2e93-45ff-b2aa-ac7174739c7e" x="321.03" y="195.99" width="9.14" height="17.04" rx="0.16"/>
    <polygon class="f9b26461-a94b-444e-9f92-531670ce6968" points="319.58 191 363.85 191 352.04 179.96 333.01 179.96 319.58 191"/>
    <path class="b7af1b50-b9f1-4c22-838f-441f15819527" d="M379.36,216.4h-26a6.49,6.49,0,0,1,3.41-4.7,4.36,4.36,0,0,1-.76-1.41,4.24,4.24,0,0,1,6.39-4.82,6.52,6.52,0,0,1,11,6.86A6.55,6.55,0,0,1,379.36,216.4Z"/>
    <path class="b7af1b50-b9f1-4c22-838f-441f15819527" d="M304.16,216.4h26a6.49,6.49,0,0,0-3.41-4.7,4.36,4.36,0,0,0,.76-1.41,4.24,4.24,0,0,0-6.39-4.82,6.52,6.52,0,0,0-11,6.86A6.55,6.55,0,0,0,304.16,216.4Z"/>
  </g>
  <g>
    <g>
      <path class="e4e4da8f-1116-4258-b64a-98c4722c9c16" d="M148.63,220.71a1.06,1.06,0,0,1-.75-1.31s1-4,2-8a1.07,1.07,0,1,1,2.09.47c-.92,4.11-2,8.06-2,8.1a1.08,1.08,0,0,1-1.31.76Z"/>
      <path class="e4e4da8f-1116-4258-b64a-98c4722c9c16" d="M151.28,212.64a1.06,1.06,0,0,1-1.37-.54c-1.29-2.77-2.35-4.86-3.14-6.19a1.07,1.07,0,1,1,1.84-1.1c.83,1.4,1.92,3.55,3.24,6.39a1.07,1.07,0,0,1-.52,1.42Z"/>
      <path class="a50a7083-2ba9-487a-b689-cfe9b931cf4e" d="M152.54,219.58h-5l0,1.89H154V221A1.41,1.41,0,0,0,152.54,219.58Z"/>
      <path class="e4e4da8f-1116-4258-b64a-98c4722c9c16" d="M135.07,216.27a1.07,1.07,0,0,1,.53-1.41s3.7-1.73,7.41-3.62a1.07,1.07,0,0,1,1,1.9c-3.75,1.92-7.45,3.64-7.49,3.66a1.06,1.06,0,0,1-1.42-.52Z"/>
      <path class="e4e4da8f-1116-4258-b64a-98c4722c9c16" d="M143.58,213.09a1.07,1.07,0,0,1-1.07-1c-.13-3.06-.32-5.39-.54-6.92a1.07,1.07,0,1,1,2.11-.32c.24,1.61.43,4,.57,7.14a1.07,1.07,0,0,1-1,1.12Z"/>
      <path class="a50a7083-2ba9-487a-b689-cfe9b931cf4e" d="M138.75,218.52l-1.18-1.73-.78-1.15-.83-1.23-1.59,1,.06.1,1.17,1.71,2.38,3.5.4-.28A1.4,1.4,0,0,0,138.75,218.52Z"/>
      <g>
        <line class="a59bdc7d-2b72-4963-b67e-4383f66b8c93" x1="150.44" y1="177.24" x2="149.21" y2="177.24"/>
        <path class="e55329d3-714e-494c-b002-d3ab3e8a7d65" d="M150.44,177.55h-1.23a.31.31,0,0,1,0-.62h1.23a.31.31,0,0,1,0,.62Z"/>
      </g>
      <g>
        <line class="a59bdc7d-2b72-4963-b67e-4383f66b8c93" x1="145.21" y1="177.24" x2="143.98" y2="177.24"/>
        <path class="e55329d3-714e-494c-b002-d3ab3e8a7d65" d="M145.21,177.55H144a.31.31,0,0,1,0-.62h1.23a.31.31,0,1,1,0,.62Z"/>
      </g>
      <g>
        <path class="e55329d3-714e-494c-b002-d3ab3e8a7d65" d="M146.27,171.53l-.08,3.94h-4.53l-.9,4.53v-2.92A5.55,5.55,0,0,1,146.27,171.53Z"/>
        <path class="e55329d3-714e-494c-b002-d3ab3e8a7d65" d="M140.87,180l-.23,0v-2.92a5.66,5.66,0,0,1,5.63-5.66h.12l-.09,4.18h-4.54Zm5.28-8.38a5.45,5.45,0,0,0-5.28,5.43v1.73l.69-3.45h4.51Z"/>
      </g>
      <g>
        <line class="e4e4da8f-1116-4258-b64a-98c4722c9c16" x1="146.34" y1="185.35" x2="146.34" y2="190.07"/>
        <path class="e4e4da8f-1116-4258-b64a-98c4722c9c16" d="M146.34,191.48a1.41,1.41,0,0,1-1.42-1.41v-4.72a1.42,1.42,0,1,1,2.83,0v4.72A1.41,1.41,0,0,1,146.34,191.48Z"/>
      </g>
      <path class="a5175a99-0d7b-450c-82fa-fea32dddf11e" d="M146.22,188.49h0a5,5,0,0,1,5,5v4.64a4.56,4.56,0,0,1-4.56,4.56h-.92a4.56,4.56,0,0,1-4.56-4.56v-4.64A5,5,0,0,1,146.22,188.49Z" transform="translate(292.43 391.2) rotate(-180)"/>
      <g>
        <path class="a50414d3-ac04-4f36-bcf5-7e919f6d6787" d="M147.81,188.49h-1.63s-.27,1.32.82,1.32S147.81,188.49,147.81,188.49Z"/>
        <path class="a50414d3-ac04-4f36-bcf5-7e919f6d6787" d="M146.51,188.49h-1.62s-.27,1.32.81,1.32S146.51,188.49,146.51,188.49Z"/>
        <rect class="bbbaea21-d190-4a5b-a90d-1d8f6dde63bd" x="146.16" y="189.15" width="0.54" height="13.53"/>
      </g>
      <g>
        <polygon class="b71c39d5-a5de-4f3d-8faa-3615a55ee9d2" points="140.9 199.77 141.19 198.76 146.2 198.4 151.24 198.76 151.53 199.77 154.49 209.92 146.6 209.92 145.83 209.92 137.94 209.92 140.9 199.77"/>
        <path class="e583cbd4-31f4-44a2-9baa-9ccd424b0f9e" d="M154.64,210H137.79l3.32-11.38,5.09-.36h0l5.11.36Zm-16.56-.22h16.26l-3.19-10.94-5-.36-4.92.36Z"/>
      </g>
      <path class="a5175a99-0d7b-450c-82fa-fea32dddf11e" d="M127.66,191a1.06,1.06,0,0,0,.51,1.34,23.68,23.68,0,0,0,7.9,2.2,1.07,1.07,0,0,0,.19-2.13,22.42,22.42,0,0,1-7.12-2,1.07,1.07,0,0,0-1.44.47A.63.63,0,0,1,127.66,191Z"/>
      <rect class="e4e4da8f-1116-4258-b64a-98c4722c9c16" x="126.79" y="189.63" width="2.41" height="2.41" rx="1.07" transform="matrix(0.36, 0.93, -0.93, 0.36, 259.82, 2.63)"/>
      <path class="a5175a99-0d7b-450c-82fa-fea32dddf11e" d="M135.14,193.36a1.07,1.07,0,0,0,1.3,1.13l.43-.1c2.19-.47,4.46-1,6.28-3.27a1.08,1.08,0,0,0-1.69-1.33c-1.34,1.7-3,2.06-5.05,2.51l-.43.1A1,1,0,0,0,135.14,193.36Z"/>
      <path class="a5175a99-0d7b-450c-82fa-fea32dddf11e" d="M157.35,202.39l-.09,0a1.07,1.07,0,0,1-1.27-.83h0a22.06,22.06,0,0,0-2.91-6.79,1.07,1.07,0,0,1,1.79-1.18,23.83,23.83,0,0,1,3.22,7.54A1.07,1.07,0,0,1,157.35,202.39Z"/>
      <rect class="e4e4da8f-1116-4258-b64a-98c4722c9c16" x="156.04" y="200.87" width="2.41" height="2.41" rx="0.92" transform="translate(-51.95 54.43) rotate(-16.9)"/>
      <path class="a5175a99-0d7b-450c-82fa-fea32dddf11e" d="M154.25,195.17a1.07,1.07,0,0,1-1.2-.43l-.25-.37c-1.17-1.77-2.09-3.17-4.16-3.81a1.07,1.07,0,1,1,.63-2c2.8.86,4.08,2.79,5.31,4.66l.25.37a1.08,1.08,0,0,1-.3,1.49A1,1,0,0,1,154.25,195.17Z"/>
      <g>
        <rect class="e4e4da8f-1116-4258-b64a-98c4722c9c16" x="140.76" y="171.97" width="11.02" height="14.44" rx="5.51" transform="translate(292.53 358.38) rotate(-180)"/>
        <path class="e4e4da8f-1116-4258-b64a-98c4722c9c16" d="M146.34,186.52a5.62,5.62,0,0,1-5.61-5.61v-3.45a5.61,5.61,0,0,1,11.21,0v3.45A5.92,5.92,0,0,1,146.34,186.52Zm0-14.54a5.49,5.49,0,0,0-5.49,5.48v3.45a5.49,5.49,0,1,0,11,0v-3.45A5.49,5.49,0,0,0,146.34,172Z"/>
      </g>
      <g>
        <circle class="e55329d3-714e-494c-b002-d3ab3e8a7d65" cx="150.04" cy="178.95" r="0.32"/>
        <circle class="e55329d3-714e-494c-b002-d3ab3e8a7d65" cx="150.05" cy="178.95" r="0.32"/>
        <g>
          <rect class="bbbaea21-d190-4a5b-a90d-1d8f6dde63bd" x="149" y="178.55" width="1.48" height="0.8" rx="0.4" transform="translate(299.47 357.89) rotate(180)"/>
          <circle class="e55329d3-714e-494c-b002-d3ab3e8a7d65" cx="150.05" cy="178.95" r="0.32"/>
        </g>
        <g>
          <rect class="bbbaea21-d190-4a5b-a90d-1d8f6dde63bd" x="143.68" y="178.55" width="1.48" height="0.8" rx="0.4" transform="translate(288.85 357.89) rotate(180)"/>
          <circle class="e55329d3-714e-494c-b002-d3ab3e8a7d65" cx="144.74" cy="178.95" r="0.32"/>
        </g>
        <g>
          <line class="a59bdc7d-2b72-4963-b67e-4383f66b8c93" x1="150.44" y1="177.24" x2="149.21" y2="177.24"/>
          <path class="e55329d3-714e-494c-b002-d3ab3e8a7d65" d="M150.44,177.55h-1.23a.31.31,0,0,1,0-.62h1.23a.31.31,0,0,1,0,.62Z"/>
        </g>
        <g>
          <line class="a59bdc7d-2b72-4963-b67e-4383f66b8c93" x1="145.21" y1="177.24" x2="143.98" y2="177.24"/>
          <path class="e55329d3-714e-494c-b002-d3ab3e8a7d65" d="M145.21,177.55H144a.31.31,0,0,1,0-.62h1.23a.31.31,0,1,1,0,.62Z"/>
        </g>
        <path class="e55329d3-714e-494c-b002-d3ab3e8a7d65" d="M147.21,181h-.46a.24.24,0,0,1,0-.48h.46s.07,0,.07-.07V180a.23.23,0,0,1,.24-.23.23.23,0,0,1,.23.23v.44A.53.53,0,0,1,147.21,181Z"/>
        <path class="e55329d3-714e-494c-b002-d3ab3e8a7d65" d="M147.25,183.8a3.64,3.64,0,0,1-2.36-.87.25.25,0,0,1,0-.33.23.23,0,0,1,.32,0,3.13,3.13,0,0,0,4.11,0,.22.22,0,0,1,.32,0,.22.22,0,0,1,0,.32A3.61,3.61,0,0,1,147.25,183.8Z"/>
      </g>
      <g>
        <line class="a59bdc7d-2b72-4963-b67e-4383f66b8c93" x1="150.44" y1="177.24" x2="149.21" y2="177.24"/>
        <path class="b786c70b-0417-472b-919b-cc379199371f" d="M150.44,177.55h-1.23a.31.31,0,0,1,0-.62h1.23a.31.31,0,0,1,0,.62Z"/>
      </g>
      <g>
        <line class="a59bdc7d-2b72-4963-b67e-4383f66b8c93" x1="145.21" y1="177.24" x2="143.98" y2="177.24"/>
        <path class="b786c70b-0417-472b-919b-cc379199371f" d="M145.21,177.55H144a.31.31,0,0,1,0-.62h1.23a.31.31,0,1,1,0,.62Z"/>
      </g>
      <path class="b786c70b-0417-472b-919b-cc379199371f" d="M146.7,174.38a3,3,0,0,1-2,1.79c-.74.18-1.61.11-2.14.66a2,2,0,0,0-.47,1,15,15,0,0,0,.16,6.15c.06.28.45,1.34.21,1.36-1-1.27-2.71-3.41-2.94-5a6.67,6.67,0,0,1,.07-2.44,9.87,9.87,0,0,1,2.5-5,7.62,7.62,0,0,1,5.29-1.77,5.79,5.79,0,0,1,4.7,2.53,8.22,8.22,0,0,1,1.1,3.1,21.89,21.89,0,0,1,.34,5.3,7.44,7.44,0,0,1-.6,2.8c-.42.86-1.87,1.92-2.53,1.82,1.11-2.46,1.15-5.33.91-8.31-.08-1.07.32-2.28-.32-3.17-.51-.71-1.58-.69-2.45-.67a5.48,5.48,0,0,0-2,.69,9.27,9.27,0,0,0,0-3.28A3,3,0,0,1,146.7,174.38Z"/>
    </g>
    <polygon class="b336f123-6000-462f-9fba-cdab45cac155" points="45.81 140.91 37.21 148.72 37.53 130.59 45.81 140.91"/>
    <polygon class="fa735e09-a876-4bd3-81ea-602925b259a3" points="51.9 135.79 55.6 158.63 45.81 140.91 51.9 135.79"/>
    <polygon class="a5175a99-0d7b-450c-82fa-fea32dddf11e" points="37.53 130.59 51.9 135.79 45.81 140.91 37.53 130.59"/>
    <polygon class="f331a56a-f0f7-4cae-9309-15c692165e17" points="45.81 140.91 37.21 148.72 55.6 158.63 45.81 140.91"/>
    <path class="ab4c842d-5d62-4704-8397-d70128a97113" d="M127.76,190.31s-4.44,1.15-20.76-9c-4.08-2.55-10.77-6.27-15.91-7-5.3-.73-11.8-2.66-19.58-8.68-3.81-2.95-11.06-5.44-15.91-7"/>
    <path class="ab4c842d-5d62-4704-8397-d70128a97113" d="M55.82,176c1.11-4.68.39-12.31-.22-17.36"/>
    <g>
      <circle class="a5175a99-0d7b-450c-82fa-fea32dddf11e" cx="55.74" cy="176.01" r="1.1"/>
      <polygon class="a5175a99-0d7b-450c-82fa-fea32dddf11e" points="53.54 176.01 53.54 174.74 54.64 175.38 55.74 176.01 54.64 176.65 53.54 177.29 53.54 176.01"/>
      <polygon class="a5175a99-0d7b-450c-82fa-fea32dddf11e" points="57.94 176.01 57.94 177.29 56.84 176.65 55.73 176.01 56.84 175.38 57.94 174.74 57.94 176.01"/>
    </g>
    <g>
      <circle class="fa735e09-a876-4bd3-81ea-602925b259a3" cx="56.24" cy="169.48" r="1.1"/>
      <polygon class="fa735e09-a876-4bd3-81ea-602925b259a3" points="54.05 169.72 53.91 168.46 55.08 168.97 56.24 169.48 55.22 170.23 54.19 170.99 54.05 169.72"/>
      <polygon class="fa735e09-a876-4bd3-81ea-602925b259a3" points="58.42 169.24 58.56 170.5 57.4 169.99 56.23 169.48 57.26 168.73 58.28 167.97 58.42 169.24"/>
    </g>
    <g>
      <circle class="aac91234-f9b8-429f-afc9-921f15dd3d37" cx="55.89" cy="163.56" r="1.1"/>
      <polygon class="aac91234-f9b8-429f-afc9-921f15dd3d37" points="53.74 164.02 53.47 162.78 54.68 163.17 55.89 163.56 54.95 164.41 54 165.26 53.74 164.02"/>
      <polygon class="aac91234-f9b8-429f-afc9-921f15dd3d37" points="58.04 163.1 58.3 164.35 57.09 163.95 55.88 163.56 56.83 162.71 57.77 161.86 58.04 163.1"/>
    </g>
  </g>
  <g>
    <g>
      <circle class="fc9153ac-5f17-4604-b76c-5a4a9df88997" cx="295.54" cy="243.93" r="11.59"/>
      <circle class="b01bb0c9-2e93-45ff-b2aa-ac7174739c7e" cx="295.54" cy="243.93" r="8.01"/>
      <g>
        <circle class="fc9153ac-5f17-4604-b76c-5a4a9df88997" cx="210.66" cy="243.93" r="11.59"/>
        <rect class="ff93da22-6492-485a-a613-99d780fb8e9d" x="216.76" y="180.82" width="108.98" height="63.12" rx="19.93" transform="translate(542.5 424.75) rotate(-180)"/>
        <circle class="a0293fe9-c906-48f0-bc85-fe214624d10a" cx="210.66" cy="243.93" r="8.01"/>
        <path class="ff93da22-6492-485a-a613-99d780fb8e9d" d="M247.54,243.93H192.05s-7.73-1.49-8.9-8.26c-.67-3.86-.57-11.29-.37-17,0-7.13,7.39-11.72,7.39-11.72l27-21.91s4.6-4.25,15-4.25"/>
        <path class="b01bb0c9-2e93-45ff-b2aa-ac7174739c7e" d="M218.27,188.74l.37,15.42a.51.51,0,0,1-.5.52l-20.12.49a.51.51,0,0,1-.34-.91l19.75-15.91A.52.52,0,0,1,218.27,188.74Z"/>
        <circle class="b01bb0c9-2e93-45ff-b2aa-ac7174739c7e" cx="210.66" cy="243.93" r="8.01"/>
      </g>
    </g>
    <g>
      <g>
        <path class="a1e8eec2-0326-43e8-a0ff-be845f5e3d65" d="M265.21,202.74v-1.08c0-1.28-.47-1.75-1.72-1.9a16.44,16.44,0,0,0-6,.62c-.7.17-.77.15-.91-.52-.33-1.62-.65-1.48,1.17-1.92a17.51,17.51,0,0,1,7.52-.36,3.2,3.2,0,0,1,2.84,2.33,6.25,6.25,0,0,1,.17,1.36c0,2.71,0,6.8,0,7.48a15.61,15.61,0,0,1-.07,1.76c-.11.79-.51,1-1.21,1.32a9.66,9.66,0,0,1-3.21.65,18.85,18.85,0,0,1-4.75-.19c-2.75-.47-3.72-2.35-3.47-5,.21-2.31,1.34-3.25,3.94-3.6.94-.13,1.88-.31,2.83-.46Zm0,2.18c-1.73.31-3.41.57-5.07.93a1.79,1.79,0,0,0-1,.73,2.45,2.45,0,0,0,1.5,3.67,9.15,9.15,0,0,0,4.61-.27Z"/>
        <path class="a1e8eec2-0326-43e8-a0ff-be845f5e3d65" d="M292.84,200.17v11.3c0,.67-.08.74-.78.75-.53,0-1-.05-1.61,0s-.76-.07-.76-.76c0-3.23,0-6.45,0-9.68,0-.62,0-1.23,0-1.84a1.45,1.45,0,0,1,1.07-1.53,21.12,21.12,0,0,1,3.11-.78,18.15,18.15,0,0,1,5.1-.18c2.11.26,3.3,1.42,3.33,3.53.06,3.55,0,7.11,0,10.66,0,.41-.16.6-.59.58-.61,0-1.23,0-1.84,0s-.73-.22-.73-.75c0-3.08,0-6.15,0-9.22,0-.27,0-.54,0-.81a1.67,1.67,0,0,0-1.8-1.8A15.33,15.33,0,0,0,292.84,200.17Z"/>
        <path class="a1e8eec2-0326-43e8-a0ff-be845f5e3d65" d="M250.44,212.33a13.57,13.57,0,0,1-4.36,0l-.18,0a4.8,4.8,0,0,1-4-4,15.25,15.25,0,0,1,0-6.45,4.92,4.92,0,0,1,4.41-4.33,13.31,13.31,0,0,1,6.14.42c.71.22.78.36.61,1.09-.35,1.48-.1,1.24-1.57,1a17.47,17.47,0,0,0-3.53-.29,2.87,2.87,0,0,0-2.91,2.53,13.34,13.34,0,0,0-.09,4.92c.35,2.22,1.32,3.06,3.63,3.07a19.55,19.55,0,0,0,3.4-.45c.73-.13.78-.15.95.54.35,1.42.33,1.5-1.12,1.8C251.36,212.19,250.9,212.27,250.44,212.33Z"/>
        <path class="a1e8eec2-0326-43e8-a0ff-be845f5e3d65" d="M281.11,200.34v11.08c0,.73-.07.8-.78.8s-1.16,0-1.73,0-.66-.18-.65-.64c0-.94,0-1.88,0-2.82v-8.35c0-1.47.25-1.81,1.68-2.27a26.31,26.31,0,0,1,7.27-.8c.5,0,.7,0,.72.72s0,.91,0,1.25c0,.64-.12.89-1,.82A36.94,36.94,0,0,0,281.11,200.34Z"/>
        <path class="a1e8eec2-0326-43e8-a0ff-be845f5e3d65" d="M274.7,194.93c0,.46-.21.65-.59.66-.63,0-1.26,0-1.89,0a.59.59,0,0,1-.64-.66v-2a.52.52,0,0,1,.57-.58c.67,0,1.34,0,2,0,.37,0,.54.1.54.6Z"/>
      </g>
      <path class="a1e8eec2-0326-43e8-a0ff-be845f5e3d65" d="M274,197.85h-1.69a.72.72,0,0,0-.72.72v11.25l1.57-1.47,1.56,1.47V198.57A.72.72,0,0,0,274,197.85Z"/>
    </g>
    <g>
      <path class="b01bb0c9-2e93-45ff-b2aa-ac7174739c7e" d="M246.8,224v-5.46a.51.51,0,1,1,1,0v2.68l3-3a.5.5,0,0,1,.73,0,.52.52,0,0,1,0,.73l-2,2,2.07,2.71a.5.5,0,0,1-.07.72.52.52,0,0,1-.33.12.47.47,0,0,1-.38-.19l-2-2.63-1,1V224a.51.51,0,1,1-1,0Z"/>
      <path class="b01bb0c9-2e93-45ff-b2aa-ac7174739c7e" d="M253.53,218.48A.51.51,0,0,1,254,218a.52.52,0,0,1,.52.52V224a.51.51,0,0,1-.52.51.5.5,0,0,1-.51-.51Z"/>
      <path class="b01bb0c9-2e93-45ff-b2aa-ac7174739c7e" d="M260.3,219h-1.48v5a.52.52,0,0,1-1,0v-5h-1.47a.52.52,0,0,1-.52-.52.52.52,0,0,1,.52-.52h4a.51.51,0,0,1,.51.52A.52.52,0,0,1,260.3,219Z"/>
      <path class="b01bb0c9-2e93-45ff-b2aa-ac7174739c7e" d="M261.55,221.13a3.45,3.45,0,0,1,5.57-2.62.53.53,0,1,1-.65.84,2.35,2.35,0,0,0-1.5-.51,2.48,2.48,0,0,0-1.68.67,2.3,2.3,0,0,0-.68,1.62,2.27,2.27,0,0,0,.68,1.63,2.48,2.48,0,0,0,1.68.67,2.37,2.37,0,0,0,1.5-.51.56.56,0,0,1,.75.1.55.55,0,0,1-.1.74,3.45,3.45,0,0,1-5.57-2.63Z"/>
      <path class="b01bb0c9-2e93-45ff-b2aa-ac7174739c7e" d="M269,224v-5.5a.51.51,0,0,1,.51-.52.52.52,0,0,1,.52.52v2.24h2.42v-2.24A.51.51,0,0,1,273,218a.52.52,0,0,1,.52.52V224a.51.51,0,0,1-.52.51.5.5,0,0,1-.51-.51v-2.24h-2.42V224a.51.51,0,0,1-.52.51A.5.5,0,0,1,269,224Z"/>
      <path class="b01bb0c9-2e93-45ff-b2aa-ac7174739c7e" d="M275.64,224v-5.5a.51.51,0,0,1,.51-.52h3.05a.52.52,0,0,1,0,1h-2.53v1.71h2.18a.52.52,0,0,1,0,1h-2.18v1.72h2.53a.52.52,0,0,1,0,1h-3s0,0,0,0h0A.51.51,0,0,1,275.64,224Z"/>
      <path class="b01bb0c9-2e93-45ff-b2aa-ac7174739c7e" d="M282.19,224a.51.51,0,1,1-1,0v-5.42h0a.5.5,0,0,1,.91-.31l3,4.16v-3.84a.51.51,0,0,1,1,0V224a.51.51,0,0,1-.9.32.1.1,0,0,1,0-.05l-3-4.14Z"/>
      <path class="b01bb0c9-2e93-45ff-b2aa-ac7174739c7e" d="M295.62,221.08a1.12,1.12,0,0,1-.4.89l-.1.06a1.62,1.62,0,0,1,0,.22,2.25,2.25,0,0,1-4.49,0,2.19,2.19,0,0,1,.73-1.64,1.69,1.69,0,0,1-.26-.91,1.74,1.74,0,1,1,3.47,0,.51.51,0,0,1-.52.51.51.51,0,0,1-.52-.51.7.7,0,0,0-1.4,0,.68.68,0,0,0,.3.57.52.52,0,0,1,.14.69h0s0,0,0,0l-.1.11,0,0h0l0,0a1.23,1.23,0,0,0-.68,1.09,1.21,1.21,0,1,0,2.41,0v-.05a1.09,1.09,0,0,0-.71.17.28.28,0,0,0-.07.21.58.58,0,0,0,0,.1.54.54,0,0,1-.36.65h-.14a.49.49,0,0,1-.49-.37,1,1,0,0,1-.06-.39,1.26,1.26,0,0,1,.39-.94,2,2,0,0,1,1.45-.48h.45s0,0,0,0v-.2a.5.5,0,0,1,.38-.62.51.51,0,0,1,.61.4A1.12,1.12,0,0,1,295.62,221.08Z"/>
      <path class="b01bb0c9-2e93-45ff-b2aa-ac7174739c7e" d="M243.1,232.59v-5.5a.51.51,0,0,1,.51-.52h1.33a1.77,1.77,0,0,1,1.77,1.77,1.75,1.75,0,0,1-.36,1.07,2,2,0,0,1-1,3.69h-1.69A.51.51,0,0,1,243.1,232.59Zm1-3.49h.8a.75.75,0,0,0,.73-.76.72.72,0,0,0-.73-.73h-.8Zm0,3h1.16a1,1,0,0,0,0-1.93h-1.16Z"/>
      <path class="b01bb0c9-2e93-45ff-b2aa-ac7174739c7e" d="M251.78,231.56h-2.26l-.46,1.21a.52.52,0,0,1-.49.33.47.47,0,0,1-.17,0,.53.53,0,0,1-.31-.67l2.06-5.49a.54.54,0,0,1,1,0l2.06,5.49a.53.53,0,0,1-.31.67.48.48,0,0,1-.18,0,.49.49,0,0,1-.47-.33Zm-.38-1-.76-2-.75,2Z"/>
      <path class="b01bb0c9-2e93-45ff-b2aa-ac7174739c7e" d="M257.53,227.61h-1.48v5a.51.51,0,0,1-.51.51.51.51,0,0,1-.51-.51v-5h-1.48a.52.52,0,0,1-.51-.52.51.51,0,0,1,.51-.52h4a.52.52,0,0,1,.52.52A.54.54,0,0,1,257.53,227.61Z"/>
      <path class="b01bb0c9-2e93-45ff-b2aa-ac7174739c7e" d="M259.59,232.59v-5.5a.51.51,0,0,1,.51-.52.52.52,0,0,1,.52.52v2.23H263v-2.23a.51.51,0,0,1,.51-.52.52.52,0,0,1,.52.52v5.5a.51.51,0,0,1-.52.51.51.51,0,0,1-.51-.51v-2.24h-2.42v2.24a.51.51,0,0,1-.52.51A.51.51,0,0,1,259.59,232.59Z"/>
      <path class="b01bb0c9-2e93-45ff-b2aa-ac7174739c7e" d="M270.51,232.32a.52.52,0,0,1-.32.66.79.79,0,0,1-.21,0h0a.64.64,0,0,1-.36-.11.93.93,0,0,1-.3-.32,2.54,2.54,0,0,1-.19-1.12.73.73,0,0,0-.12-.4.67.67,0,0,0-.28-.27,1.75,1.75,0,0,0-.52-.23h-1.1v2a.51.51,0,0,1-.52.51.51.51,0,0,1-.51-.51v-5.5a.51.51,0,0,1,.51-.52h1.67a2,2,0,0,1,2,2,2,2,0,0,1-.72,1.53,1.3,1.3,0,0,1,.32.34,1.75,1.75,0,0,1,.31,1,2.23,2.23,0,0,0,0,.55A.47.47,0,0,1,270.51,232.32Zm-1.3-3.74a1,1,0,0,0-1-1H267.1v1.92h1.15A1,1,0,0,0,269.21,228.58Z"/>
      <path class="b01bb0c9-2e93-45ff-b2aa-ac7174739c7e" d="M277,227.38a3.43,3.43,0,0,1,.94,2.36,3.39,3.39,0,0,1-.94,2.36,3,3,0,0,1-2.22,1,3.14,3.14,0,0,1-2.29-1,3.38,3.38,0,0,1-.92-2.36,3.41,3.41,0,0,1,.92-2.36,3.13,3.13,0,0,1,2.29-1A3,3,0,0,1,277,227.38Zm-.12,2.36a2.43,2.43,0,0,0-.63-1.63,2,2,0,0,0-1.47-.66,2.06,2.06,0,0,0-1.52.66,2.38,2.38,0,0,0-.63,1.63,2.32,2.32,0,0,0,.63,1.62,2.07,2.07,0,0,0,1.52.68,2,2,0,0,0,1.47-.68A2.36,2.36,0,0,0,276.89,229.74Z"/>
      <path class="b01bb0c9-2e93-45ff-b2aa-ac7174739c7e" d="M284.85,227.38a3.48,3.48,0,0,1,.94,2.36,3.44,3.44,0,0,1-.94,2.36,3.08,3.08,0,0,1-2.23,1,3.14,3.14,0,0,1-2.29-1,3.38,3.38,0,0,1-.92-2.36,3.41,3.41,0,0,1,.92-2.36,3.13,3.13,0,0,1,2.29-1A3.07,3.07,0,0,1,284.85,227.38Zm-.13,2.36a2.43,2.43,0,0,0-.63-1.63,2,2,0,0,0-1.47-.66,2,2,0,0,0-1.51.66,2.34,2.34,0,0,0-.64,1.63,2.28,2.28,0,0,0,.64,1.62,2,2,0,0,0,3,0A2.36,2.36,0,0,0,284.72,229.74Z"/>
      <path class="b01bb0c9-2e93-45ff-b2aa-ac7174739c7e" d="M292.86,227.09v5.5a.52.52,0,0,1-.52.51.51.51,0,0,1-.51-.51v-3.93l-1.34,1.87a.51.51,0,0,1-.42.21h0a.52.52,0,0,1-.43-.21l-1.33-1.87v3.93a.52.52,0,0,1-1,0v-5.5a.53.53,0,0,1,.51-.52h0a.5.5,0,0,1,.41.22l1.86,2.57,1.85-2.57a.52.52,0,0,1,.42-.22h0A.54.54,0,0,1,292.86,227.09Z"/>
      <path class="b01bb0c9-2e93-45ff-b2aa-ac7174739c7e" d="M294.92,231.48a.48.48,0,0,1,.68-.07,3,3,0,0,0,1.78.72,2,2,0,0,0,1.16-.35.82.82,0,0,0,.4-.67.52.52,0,0,0-.08-.3,1.05,1.05,0,0,0-.28-.28,3.87,3.87,0,0,0-1.28-.43h0a5.36,5.36,0,0,1-1.21-.37,2.11,2.11,0,0,1-.87-.72,1.56,1.56,0,0,1-.21-.77,1.73,1.73,0,0,1,.75-1.36,2.7,2.7,0,0,1,1.61-.49,3.62,3.62,0,0,1,2,.74.47.47,0,0,1,.13.66.46.46,0,0,1-.66.14,2.75,2.75,0,0,0-1.5-.59,1.81,1.81,0,0,0-1,.31.75.75,0,0,0-.36.59.42.42,0,0,0,.07.26.72.72,0,0,0,.25.24,3.09,3.09,0,0,0,1.16.41h0a5.59,5.59,0,0,1,1.29.4,2.14,2.14,0,0,1,.93.77,1.49,1.49,0,0,1,.22.79,1.8,1.8,0,0,1-.8,1.45,2.93,2.93,0,0,1-1.72.53,4,4,0,0,1-2.39-.93A.5.5,0,0,1,294.92,231.48Z"/>
    </g>
  </g>
  <g>
    <path class="ff93da22-6492-485a-a613-99d780fb8e9d" d="M299.45,405.27c-3.8-.67-4.1-17.12-.65-36.75s9.32-35,13.13-34.34"/>
    <path class="ff93da22-6492-485a-a613-99d780fb8e9d" d="M394.87,405.27c3.81-.67,4.1-17.12.66-36.75s-9.33-35-13.14-34.34"/>
    <g>
      <rect class="aa52a32f-dede-4b4d-a5af-c008ea6ee5f0" x="296.35" y="653.48" width="13.97" height="6.08"/>
      <g>
        <rect class="a0b35c46-134b-4e3d-950c-fb4596117d3c" x="307.25" y="303.65" width="80.1" height="108.5" rx="40.05"/>
        <rect class="b01bb0c9-2e93-45ff-b2aa-ac7174739c7e" x="321.73" y="354.32" width="10.68" height="5.75" rx="1.41"/>
        <rect class="b01bb0c9-2e93-45ff-b2aa-ac7174739c7e" x="362.2" y="354.32" width="10.68" height="5.75" rx="1.41"/>
        <circle class="ac48b451-3803-4a62-bf00-686f194f2c3c" cx="367.54" cy="357.19" r="2.28"/>
        <line class="ebb266c5-2f92-45fc-bb8b-a1ca5960c801" x1="321.73" y1="344.87" x2="330.6" y2="344.87"/>
        <line class="ebb266c5-2f92-45fc-bb8b-a1ca5960c801" x1="363.71" y1="344.87" x2="372.58" y2="344.87"/>
        <g class="b2026fdd-e07d-4f76-a068-6ec5bf736b7c">
          <circle class="ac48b451-3803-4a62-bf00-686f194f2c3c" cx="327.07" cy="357.19" r="2.24"/>
        </g>
        <path class="e59e94b1-db48-4242-92b1-91e55940df98" d="M350.89,370.22h-3.26a2.17,2.17,0,0,1-2.24-2.21v-3.17"/>
        <path class="ff93da22-6492-485a-a613-99d780fb8e9d" d="M346.35,300.43l.61,28.46h33.66l6.73,32.71V340.47C387.35,318.43,369,300.56,346.35,300.43Z"/>
        <path class="ff93da22-6492-485a-a613-99d780fb8e9d" d="M348.72,300.43l-.61,28.46H314.06l-6.81,32.71V340.47C307.25,318.43,325.8,300.56,348.72,300.43Z"/>
        <line class="b4bd443a-cee3-494c-9b44-f12972fa4541" x1="348.72" y1="403.41" x2="348.72" y2="437.5"/>
        <rect class="ed298c0d-9fb1-4a21-8b6d-9ca5963be939" x="306.91" y="431.68" width="77.26" height="97.26" rx="13.43"/>
        <rect class="ff93da22-6492-485a-a613-99d780fb8e9d" x="306.91" y="496.03" width="77.26" height="36.11"/>
        <rect class="ff93da22-6492-485a-a613-99d780fb8e9d" x="306.91" y="518.26" width="77.26" height="27.78" rx="6.14"/>
        <path class="e164cdbd-140c-449c-a135-a5d9a5208f50" d="M367.5,538.63S381.57,596,381.57,658.35"/>
        <path class="b15a01e9-f4f3-4070-aabd-823d1fe0ef6e" d="M380.18,657.4h26.65a10.79,10.79,0,0,1,10.79,10.79v3.71H369.39v-3.71A10.79,10.79,0,0,1,380.18,657.4Z"/>
        <polygon class="b15a01e9-f4f3-4070-aabd-823d1fe0ef6e" points="368.79 657.4 368.49 671.9 385.2 671.9 390.82 657.4 368.79 657.4"/>
        <path class="aa29342c-2efa-45f7-9af8-364e3d0c22fd" d="M317.05,446.39S284,438.48,279.69,303.2"/>
        <path class="b2254deb-eec2-4666-8063-c6138e8db4f3" d="M293.14,439.9a72,72,0,0,0,11.59-23.45,80.1,80.1,0,0,0,22.58,26.62,2.1,2.1,0,0,1,.88,1.05,2.26,2.26,0,0,1-.1,1.09c-1.16,4.28-3.64,18.35-9.34,16.05-6.28-2.53-12.37-7.48-17.37-12.2A76.44,76.44,0,0,1,293.14,439.9Z"/>
        <path class="aa29342c-2efa-45f7-9af8-364e3d0c22fd" d="M380.19,441.5s33.05-7.92,37.36-143.2"/>
        <path class="b2254deb-eec2-4666-8063-c6138e8db4f3" d="M404.1,436.83A55,55,0,0,1,390,417.58c-6.8,8.65-16.29,16.17-27.55,21.85-.45.22-.93.48-1.07.86a1.22,1.22,0,0,0,.12.89c1.41,3.51,4.44,15.06,11.39,13.18,7.67-2.08,15.09-6.14,21.21-10A80.14,80.14,0,0,0,404.1,436.83Z"/>
        <rect class="ff93da22-6492-485a-a613-99d780fb8e9d" x="357.27" y="525.34" width="37.94" height="131.81" transform="translate(844.22 1112.9) rotate(170.57)"/>
        <path class="b15a01e9-f4f3-4070-aabd-823d1fe0ef6e" d="M311.17,657.4H284.52a10.79,10.79,0,0,0-10.79,10.79v3.71H322v-3.71A10.79,10.79,0,0,0,311.17,657.4Z"/>
        <rect class="ff93da22-6492-485a-a613-99d780fb8e9d" x="296.14" y="525.34" width="37.94" height="131.81" transform="translate(101.08 -43.62) rotate(9.43)"/>
        <rect class="a0b35c46-134b-4e3d-950c-fb4596117d3c" x="270.3" y="288.1" width="17.46" height="17.46" rx="3.48"/>
        <rect class="a0b35c46-134b-4e3d-950c-fb4596117d3c" x="408.17" y="284.98" width="17.46" height="17.46" rx="3.48" transform="translate(833.79 587.42) rotate(-180)"/>
        <path class="ff93da22-6492-485a-a613-99d780fb8e9d" d="M363.68,389.51c0,4-7.43,7.18-16.59,7.18s-16.59-3.22-16.59-7.18"/>
        <g>
          <g>
            <path class="abc20461-b524-41f9-9533-2d77b6df1687" d="M340,457.73c0-.38,0-.7,0-1,0-1.2-.43-1.64-1.61-1.79a15.19,15.19,0,0,0-5.61.59c-.66.15-.72.14-.85-.5-.31-1.52-.62-1.39,1.1-1.8a16.38,16.38,0,0,1,7.07-.33,3,3,0,0,1,2.67,2.18,5.62,5.62,0,0,1,.16,1.29c0,2.54,0,6.38,0,7s0,1.37-.06,1.66c-.11.75-.49.94-1.14,1.25a9.25,9.25,0,0,1-3,.6,18,18,0,0,1-4.47-.17c-2.59-.45-3.5-2.21-3.27-4.71.2-2.16,1.27-3.05,3.71-3.38.89-.12,1.77-.29,2.66-.44Zm0,2c-1.62.29-3.2.53-4.76.87a1.73,1.73,0,0,0-1,.68,2.31,2.31,0,0,0,1.41,3.46,8.73,8.73,0,0,0,4.33-.25Z"/>
            <path class="abc20461-b524-41f9-9533-2d77b6df1687" d="M366,455.31v8c0,.89,0,1.77,0,2.66,0,.63-.07.7-.73.7-.5,0-.95,0-1.52,0s-.71-.06-.71-.71c0-3,0-6.07,0-9.11,0-.58,0-1.15,0-1.73a1.37,1.37,0,0,1,1-1.44,21.13,21.13,0,0,1,2.92-.73,16.77,16.77,0,0,1,4.8-.17,3.15,3.15,0,0,1,3.13,3.32c.06,3.34,0,6.69,0,10,0,.38-.15.56-.55.54-.58,0-1.16,0-1.74,0s-.68-.21-.68-.72q0-4.33,0-8.67c0-.25,0-.5,0-.76a1.58,1.58,0,0,0-1.7-1.69A14.22,14.22,0,0,0,366,455.31Z"/>
            <path class="abc20461-b524-41f9-9533-2d77b6df1687" d="M326.12,466.75a12.53,12.53,0,0,1-4.1-.05l-.17,0a4.52,4.52,0,0,1-3.73-3.74,14.4,14.4,0,0,1,0-6.06,4.64,4.64,0,0,1,4.15-4.08,12.59,12.59,0,0,1,5.78.41c.66.2.73.33.57,1-.33,1.39-.1,1.16-1.48.91a16.06,16.06,0,0,0-3.32-.27,2.7,2.7,0,0,0-2.74,2.37,12.65,12.65,0,0,0-.08,4.63c.33,2.09,1.24,2.88,3.42,2.89a18.23,18.23,0,0,0,3.19-.42c.69-.13.73-.15.9.51.32,1.33.3,1.41-1.06,1.69C327,466.61,326.55,466.69,326.12,466.75Z"/>
            <path class="abc20461-b524-41f9-9533-2d77b6df1687" d="M355,455.47v10.42c0,.69-.06.75-.74.75s-1.08,0-1.62,0-.62-.18-.61-.61c0-.88,0-1.77,0-2.65v-7.86c0-1.38.24-1.7,1.58-2.13a24.53,24.53,0,0,1,6.84-.75c.47,0,.66,0,.67.67s0,.86,0,1.18c0,.6-.11.83-.91.77A35.55,35.55,0,0,0,355,455.47Z"/>
            <path class="abc20461-b524-41f9-9533-2d77b6df1687" d="M348.93,450.38c0,.44-.19.61-.55.62-.59,0-1.19,0-1.78,0a.55.55,0,0,1-.6-.62c0-.92,0-.92,0-1.84a.49.49,0,0,1,.53-.55c.63,0,1.26,0,1.89,0,.36,0,.51.09.51.56Z"/>
          </g>
          <path class="abc20461-b524-41f9-9533-2d77b6df1687" d="M348.26,453.13h-1.59a.68.68,0,0,0-.68.67v10.59l1.47-1.39,1.47,1.39V453.8A.67.67,0,0,0,348.26,453.13Z"/>
        </g>
      </g>
      <g>
        <path class="e838bf45-83a7-4a07-b831-15f605a4d43c" d="M305.07,520.65a140.34,140.34,0,0,0,40.78,7.65,140.28,140.28,0,0,0,40.77-7.65v0a13.56,13.56,0,0,0-1-5.45,137.43,137.43,0,0,1-39.76,7.46,137.43,137.43,0,0,1-39.76-7.46,13.44,13.44,0,0,0-1,5.45Z"/>
        <g>
          <rect class="bb25c1b6-b595-4019-b11a-71a0dfb35abb" x="318.02" y="512.22" width="2.44" height="25.02" rx="0.22" transform="matrix(0.98, 0.17, -0.17, 0.98, 95.47, -47.27)"/>
          <path class="ef1463ff-8ceb-4c3f-90cc-65fd1ed6b2b5" d="M316.41,540.9a2.34,2.34,0,1,1,2.71-1.9A2.34,2.34,0,0,1,316.41,540.9Zm.6-3.41a1.12,1.12,0,1,0,.91,1.3A1.14,1.14,0,0,0,317,537.49Z"/>
          <g>
            <path class="ef1463ff-8ceb-4c3f-90cc-65fd1ed6b2b5" d="M321.89,508.91l.54,2.26a.59.59,0,0,1-.44.7l-1,.25a.59.59,0,0,1-.7-.44l-.55-2.3a2.79,2.79,0,1,0,2.19-.47Z"/>
            <path class="ef1463ff-8ceb-4c3f-90cc-65fd1ed6b2b5" d="M320.82,514.55a3,3,0,0,1-2.4-3.43,2.9,2.9,0,0,1,1.18-1.88.17.17,0,0,1,.17,0,.17.17,0,0,1,.1.13l.54,2.3a.43.43,0,0,0,.5.31l1-.25a.41.41,0,0,0,.31-.49l-.53-2.26a.16.16,0,0,1,0-.16.16.16,0,0,1,.16-.05,3,3,0,0,1-1.11,5.81Zm-1.22-4.86a2.58,2.58,0,0,0-.84,1.49,2.61,2.61,0,1,0,3.37-2l.46,2a.74.74,0,0,1-.56.91l-1,.25a.75.75,0,0,1-.9-.57Z"/>
          </g>
        </g>
        <g>
          <rect class="bb25c1b6-b595-4019-b11a-71a0dfb35abb" x="373.3" y="527.31" width="12.91" height="0.93" transform="translate(907.53 148.02) rotate(90)"/>
          <path class="bb25c1b6-b595-4019-b11a-71a0dfb35abb" d="M380.44,537.12V535l-.23-1.23a.13.13,0,0,0-.13-.11h-.62a.13.13,0,0,0-.14.11l-.23,1.23v2.1a.14.14,0,0,0,.14.14h1.08A.14.14,0,0,0,380.44,537.12Z"/>
          <path class="ef1463ff-8ceb-4c3f-90cc-65fd1ed6b2b5" d="M379.08,535v2.08a.14.14,0,0,0,.14.14h1.08a.14.14,0,0,0,.14-.14V535h-1.35Z"/>
          <rect class="bbe7d0c0-a505-429f-905f-fdf518702cf0" x="371.94" y="513.53" width="15.66" height="3.5" rx="1.12" transform="translate(895.05 135.51) rotate(90)"/>
          <rect class="aed40f28-3abf-47b9-bf2d-9a7875654db3" x="374.34" y="515.04" width="13.03" height="0.46" rx="0.17" transform="translate(896.12 134.41) rotate(90)"/>
          <rect class="aed40f28-3abf-47b9-bf2d-9a7875654db3" x="373.24" y="515.04" width="13.03" height="0.46" rx="0.17" transform="translate(895.03 135.51) rotate(90)"/>
          <rect class="aed40f28-3abf-47b9-bf2d-9a7875654db3" x="372.14" y="515.04" width="13.03" height="0.46" rx="0.17" transform="translate(893.93 136.61) rotate(90)"/>
        </g>
        <g>
          <rect class="bb25c1b6-b595-4019-b11a-71a0dfb35abb" x="313.25" y="508.51" width="3.35" height="26.26" rx="0.3"/>
          <path class="ef1463ff-8ceb-4c3f-90cc-65fd1ed6b2b5" d="M314.92,540.13a3.22,3.22,0,1,1,3.22-3.21A3.21,3.21,0,0,1,314.92,540.13Zm0-4.75a1.54,1.54,0,1,0,1.54,1.54A1.54,1.54,0,0,0,314.92,535.38Z"/>
          <g>
            <path class="ef1463ff-8ceb-4c3f-90cc-65fd1ed6b2b5" d="M314.75,503.65l1.26,2.93a.81.81,0,0,1-.42,1.05l-1.36.58a.79.79,0,0,1-1.05-.42l-1.28-3a3.83,3.83,0,1,0,2.85-1.15Z"/>
            <path class="ef1463ff-8ceb-4c3f-90cc-65fd1ed6b2b5" d="M314.64,511.54a4.07,4.07,0,0,1-2.91-6.91.25.25,0,0,1,.22-.06.22.22,0,0,1,.17.14l1.28,3a.57.57,0,0,0,.74.29l1.36-.58a.56.56,0,0,0,.29-.73l-1.26-2.94a.24.24,0,0,1,0-.23.22.22,0,0,1,.2-.1,4.07,4.07,0,0,1-.12,8.13Zm-2.81-6.3a3.59,3.59,0,1,0,6.4,2.23,3.55,3.55,0,0,0-3.1-3.55l1.1,2.57a1,1,0,0,1-.55,1.36l-1.35.58a1,1,0,0,1-1.37-.54Z"/>
          </g>
        </g>
        <rect class="aa52a32f-dede-4b4d-a5af-c008ea6ee5f0" x="364.96" y="519.3" width="2.61" height="28.31" rx="0.89"/>
        <path class="e838bf45-83a7-4a07-b831-15f605a4d43c" d="M363,521c1.61,0,7,.06,7.47-.19s.35,3.35.35,3.35-2.47,1.87-10.31,1.28S363,521,363,521Z"/>
        <rect class="fdd5f464-9670-417a-955c-b2c4ae1c07dd" x="359.37" y="517.05" width="3.03" height="4.48" rx="0.92"/>
        <path class="fdd5f464-9670-417a-955c-b2c4ae1c07dd" d="M367.35,517.6a7.48,7.48,0,0,1,7,4.76h-.92c-3.39-3.85-4.27-1.82-6-1.82S362,517.6,367.35,517.6Z"/>
        <g>
          <rect class="bb25c1b6-b595-4019-b11a-71a0dfb35abb" x="369.91" y="510.6" width="12.91" height="0.93" transform="translate(-31.12 997.67) rotate(-103.69)"/>
          <path class="bb25c1b6-b595-4019-b11a-71a0dfb35abb" d="M373.49,502.14l.49,2v0l.52,1.14a.14.14,0,0,0,.16.08l.6-.15a.16.16,0,0,0,.11-.14l-.07-1.25v0l-.49-2a.13.13,0,0,0-.16-.1l-1.06.26A.14.14,0,0,0,373.49,502.14Z"/>
          <path class="ef1463ff-8ceb-4c3f-90cc-65fd1ed6b2b5" d="M375.3,503.83l-.49-2a.13.13,0,0,0-.16-.1l-1.06.26a.14.14,0,0,0-.1.17l.49,2v0l1.32-.32Z"/>
          <rect class="bbe7d0c0-a505-429f-905f-fdf518702cf0" x="371.48" y="521.45" width="15.66" height="3.5" rx="1.12" transform="translate(-39.27 1015.54) rotate(-103.69)"/>
          <rect class="aed40f28-3abf-47b9-bf2d-9a7875654db3" x="371.74" y="523.24" width="13.03" height="0.46" rx="0.17" transform="translate(-40.84 1014.85) rotate(-103.69)"/>
          <rect class="aed40f28-3abf-47b9-bf2d-9a7875654db3" x="372.81" y="522.98" width="13.03" height="0.46" rx="0.17" transform="translate(-39.26 1015.57) rotate(-103.69)"/>
          <rect class="aed40f28-3abf-47b9-bf2d-9a7875654db3" x="373.87" y="522.72" width="13.03" height="0.46" rx="0.17" transform="translate(-37.69 1016.28) rotate(-103.69)"/>
        </g>
        <path class="f3a2145d-8620-4e98-aa7b-e9ec61ea2537" d="M375.42,542.79H386.5c.33,0,.6-.5.6-1.1V518.75c0-.6-.58-3-.91-3L375,519.08c-.32,0-.53-.15-.53.45l.33,22.16C374.82,542.29,375.09,542.79,375.42,542.79Z"/>
        <path class="e838bf45-83a7-4a07-b831-15f605a4d43c" d="M327.59,544.57H307.22a1.1,1.1,0,0,1-1.1-1.1V520.54c0-.61,1.07-3,1.67-3l19.91,5.37c.6,0,1-.15,1,.45v20.08A1.09,1.09,0,0,1,327.59,544.57Z"/>
      </g>
      <g>
        <path class="a5175a99-0d7b-450c-82fa-fea32dddf11e" d="M313.59,480.76v-5.9a.54.54,0,0,1,.55-.55.55.55,0,0,1,.56.55v2.4h2.59v-2.4a.54.54,0,0,1,.55-.55.55.55,0,0,1,.56.55v5.9a.55.55,0,0,1-.56.55.54.54,0,0,1-.55-.55v-2.4H314.7v2.4a.55.55,0,0,1-.56.55A.54.54,0,0,1,313.59,480.76Z"/>
        <path class="a5175a99-0d7b-450c-82fa-fea32dddf11e" d="M324.8,478.82v2a.53.53,0,0,1-.53.53.54.54,0,0,1-.52-.43,2.27,2.27,0,0,1-1.33.43,2.32,2.32,0,0,1-1.7-.73,2.56,2.56,0,0,1-.68-1.76,2.52,2.52,0,0,1,.68-1.76,2.3,2.3,0,0,1,1.7-.75,2.28,2.28,0,0,1,1.33.44.54.54,0,0,1,.52-.44.54.54,0,0,1,.53.54Zm-1.06,0a1.47,1.47,0,0,0-.39-1,1.24,1.24,0,0,0-.93-.41,1.21,1.21,0,0,0-.93.41,1.46,1.46,0,0,0-.38,1,1.5,1.5,0,0,0,.38,1,1.26,1.26,0,0,0,.93.39,1.29,1.29,0,0,0,.93-.39A1.51,1.51,0,0,0,323.74,478.82Z"/>
        <path class="a5175a99-0d7b-450c-82fa-fea32dddf11e" d="M330.83,478.39v2.39a.52.52,0,0,1-.52.53.54.54,0,0,1-.53-.53v-2.39a1,1,0,0,0-1-1,1,1,0,0,0-1,1v2.39a.2.2,0,0,1,0,.1.55.55,0,0,1-.53.43.53.53,0,0,1-.53-.53v-3.94a.53.53,0,0,1,.53-.53.54.54,0,0,1,.49.31,2,2,0,0,1,1.06-.31A2.09,2.09,0,0,1,330.83,478.39Z"/>
        <path class="a5175a99-0d7b-450c-82fa-fea32dddf11e" d="M337.12,480.77a.54.54,0,0,1-.54.54.54.54,0,0,1-.53-.43,2.41,2.41,0,0,1-3.78-2.06,2.47,2.47,0,0,1,2.42-2.51,2.37,2.37,0,0,1,1.34.42v-1.88a.55.55,0,0,1,1.09,0v4h0Zm-2.43-3.37a1.29,1.29,0,0,0-.94.41,1.48,1.48,0,0,0,0,2,1.29,1.29,0,0,0,.94.41,1.28,1.28,0,0,0,.94-.41,1.45,1.45,0,0,0,0-2A1.28,1.28,0,0,0,334.69,477.4Z"/>
        <path class="a5175a99-0d7b-450c-82fa-fea32dddf11e" d="M343,476.84v3.78a2.37,2.37,0,0,1-2.39,2.39,2.52,2.52,0,0,1-1-.25.51.51,0,0,1-.25-.71.53.53,0,0,1,.71-.22,1.26,1.26,0,0,0,.57.14,1.32,1.32,0,0,0,1.25-.91,1.94,1.94,0,0,1-.95.24,2.1,2.1,0,0,1-2.08-2.1v-2.36a.53.53,0,0,1,.51-.53.51.51,0,0,1,.53.53v2.36a1,1,0,0,0,2.07,0v-2.36a.51.51,0,0,1,.52-.53A.54.54,0,0,1,343,476.84Z"/>
        <path class="a5175a99-0d7b-450c-82fa-fea32dddf11e" d="M345.08,482.64v-3.81h0v-2a.52.52,0,0,1,.52-.53.55.55,0,0,1,.55.41,2.54,2.54,0,0,1,1.36-.41,2.48,2.48,0,0,1,2.42,2.51,2.45,2.45,0,0,1-2.42,2.48,2.31,2.31,0,0,1-1.34-.41v1.75a.56.56,0,0,1-.57.54A.53.53,0,0,1,345.08,482.64Zm1.09-3.82a1.33,1.33,0,0,0,.39,1,1.24,1.24,0,0,0,.95.42,1.28,1.28,0,0,0,.94-.42,1.46,1.46,0,0,0,.39-1,1.54,1.54,0,0,0-.39-1,1.31,1.31,0,0,0-.94-.41,1.26,1.26,0,0,0-.95.41A1.4,1.4,0,0,0,346.17,478.82Z"/>
        <path class="a5175a99-0d7b-450c-82fa-fea32dddf11e" d="M351.23,478.81a2.47,2.47,0,0,1,2.43-2.5,2.39,2.39,0,0,1,2.41,2.32v.05a.28.28,0,0,1,0,.09.48.48,0,0,1-.52.4h-3.18a1.31,1.31,0,0,0,.34.66,1.55,1.55,0,0,0,1,.45,1.63,1.63,0,0,0,1-.25.57.57,0,0,1,.75,0,.46.46,0,0,1,0,.65,2.53,2.53,0,0,1-1.79.66A2.47,2.47,0,0,1,351.23,478.81Zm1.08-.49h2.83a1.63,1.63,0,0,0-1.48-1.06A1.4,1.4,0,0,0,352.31,478.32Z"/>
        <path class="a5175a99-0d7b-450c-82fa-fea32dddf11e" d="M360.53,476.84a.53.53,0,0,1-.53.53,1,1,0,0,0-.6.19,1.51,1.51,0,0,0-.46.48,3.07,3.07,0,0,0-.41.84v1.9a.54.54,0,0,1-.55.53.53.53,0,0,1-.53-.53v-3.94a.52.52,0,0,1,.53-.52.54.54,0,0,1,.55.52v.07a1.31,1.31,0,0,1,.21-.2,2.19,2.19,0,0,1,1.26-.39A.52.52,0,0,1,360.53,476.84Z"/>
        <path class="a5175a99-0d7b-450c-82fa-fea32dddf11e" d="M361.6,479.88a.52.52,0,0,1,.75-.08,1.84,1.84,0,0,0,1.1.44,1.33,1.33,0,0,0,.68-.19.41.41,0,0,0,.18-.3.15.15,0,0,0,0-.1s0-.07-.13-.12a2.32,2.32,0,0,0-.8-.28h0a3.84,3.84,0,0,1-.87-.26,1.67,1.67,0,0,1-.69-.58,1.21,1.21,0,0,1-.17-.63,1.4,1.4,0,0,1,.59-1.1,2.15,2.15,0,0,1,1.23-.37,2.57,2.57,0,0,1,1.5.55.55.55,0,0,1,.16.74.53.53,0,0,1-.74.14,1.71,1.71,0,0,0-.92-.37,1,1,0,0,0-.6.18.3.3,0,0,0-.16.23.11.11,0,0,0,0,.08.27.27,0,0,0,.11.1,2,2,0,0,0,.73.24h0a3.6,3.6,0,0,1,.93.29,1.55,1.55,0,0,1,.71.59,1.3,1.3,0,0,1,.19.66,1.44,1.44,0,0,1-.63,1.16,2.28,2.28,0,0,1-1.3.4,2.9,2.9,0,0,1-1.78-.69A.53.53,0,0,1,361.6,479.88Z"/>
        <path class="a5175a99-0d7b-450c-82fa-fea32dddf11e" d="M367.22,480.58a2.5,2.5,0,0,1-.69-1.76,2.58,2.58,0,0,1,.69-1.75,2.34,2.34,0,0,1,1.72-.76,2.21,2.21,0,0,1,1.67.76,2.5,2.5,0,0,1,.7,1.75,2.42,2.42,0,0,1-.7,1.76,2.21,2.21,0,0,1-1.67.76A2.34,2.34,0,0,1,367.22,480.58Zm.4-1.76a1.62,1.62,0,0,0,.36,1.06,1.35,1.35,0,0,0,1,.37,1.31,1.31,0,0,0,.92-.37,1.54,1.54,0,0,0,.39-1.06,1.5,1.5,0,0,0-.39-1,1.41,1.41,0,0,0-.92-.38,1.45,1.45,0,0,0-1,.38A1.58,1.58,0,0,0,367.62,478.82Z"/>
        <path class="a5175a99-0d7b-450c-82fa-fea32dddf11e" d="M377.18,478.39v2.39a.52.52,0,0,1-.52.53.54.54,0,0,1-.53-.53v-2.39a1,1,0,0,0-1-1,1,1,0,0,0-1,1v2.39a.2.2,0,0,1,0,.1.55.55,0,0,1-.53.43.53.53,0,0,1-.53-.53v-3.94a.53.53,0,0,1,.53-.53.54.54,0,0,1,.49.31,2,2,0,0,1,1.06-.31A2.09,2.09,0,0,1,377.18,478.39Z"/>
        <path class="a5175a99-0d7b-450c-82fa-fea32dddf11e" d="M327.6,488.57a.52.52,0,0,1,.73-.07,3.23,3.23,0,0,0,1.9.77,2.15,2.15,0,0,0,1.25-.37.9.9,0,0,0,.43-.72.57.57,0,0,0-.09-.32.94.94,0,0,0-.3-.3,4,4,0,0,0-1.37-.47h0a5.19,5.19,0,0,1-1.28-.39,2.15,2.15,0,0,1-.93-.78,1.53,1.53,0,0,1-.23-.82,1.85,1.85,0,0,1,.8-1.46,2.9,2.9,0,0,1,1.72-.53,3.92,3.92,0,0,1,2.18.8.51.51,0,0,1,.14.71.51.51,0,0,1-.71.15,2.9,2.9,0,0,0-1.61-.64,1.93,1.93,0,0,0-1.12.34.82.82,0,0,0-.38.63.49.49,0,0,0,.08.28.79.79,0,0,0,.26.26,3.52,3.52,0,0,0,1.25.44h0a5.88,5.88,0,0,1,1.38.42,2.34,2.34,0,0,1,1,.83,1.62,1.62,0,0,1,.24.85,1.94,1.94,0,0,1-.86,1.55,3.13,3.13,0,0,1-1.85.57,4.31,4.31,0,0,1-2.55-1A.53.53,0,0,1,327.6,488.57Z"/>
        <path class="a5175a99-0d7b-450c-82fa-fea32dddf11e" d="M334,487.81a2.47,2.47,0,0,1,2.43-2.5,2.39,2.39,0,0,1,2.41,2.32v.05a.28.28,0,0,1,0,.09.48.48,0,0,1-.52.4h-3.18a1.39,1.39,0,0,0,.34.66,1.57,1.57,0,0,0,1,.45,1.63,1.63,0,0,0,1-.25.57.57,0,0,1,.75,0,.46.46,0,0,1,0,.65,2.53,2.53,0,0,1-1.79.66A2.48,2.48,0,0,1,334,487.81Zm1.09-.49h2.82a1.63,1.63,0,0,0-1.48-1.06A1.39,1.39,0,0,0,335.12,487.32Z"/>
        <path class="a5175a99-0d7b-450c-82fa-fea32dddf11e" d="M343.33,485.84a.53.53,0,0,1-.53.53,1,1,0,0,0-.6.19,1.48,1.48,0,0,0-.45.48,2.89,2.89,0,0,0-.42.84v1.9a.54.54,0,0,1-.54.53.53.53,0,0,1-.53-.53v-3.94a.52.52,0,0,1,.53-.52.53.53,0,0,1,.54.52v.07a1.94,1.94,0,0,1,.21-.2,2.19,2.19,0,0,1,1.26-.39A.52.52,0,0,1,343.33,485.84Z"/>
        <path class="a5175a99-0d7b-450c-82fa-fea32dddf11e" d="M348.59,486.11,347,490a.21.21,0,0,1,0,.07h0l-.06.07h0a.34.34,0,0,1-.06.06,0,0,0,0,0,0,0,.18.18,0,0,1-.07,0h0l-.08,0h-.23l-.08,0h0l-.09,0a0,0,0,0,0,0,0,.34.34,0,0,1-.06-.06h0l-.05-.07h0s0,0,0-.07l-1.61-3.88a.5.5,0,0,1,.29-.68.52.52,0,0,1,.67.29l1.14,2.72,1.16-2.72a.52.52,0,1,1,1,.39Z"/>
        <path class="a5175a99-0d7b-450c-82fa-fea32dddf11e" d="M351.55,484.06a.53.53,0,0,1-.53.55.55.55,0,0,1-.54-.55v-.21a.54.54,0,0,1,.54-.54.52.52,0,0,1,.53.54Zm0,1.81v3.9a.52.52,0,0,1-.53.54.54.54,0,0,1-.54-.54v-3.9a.53.53,0,0,1,.54-.55A.52.52,0,0,1,351.55,485.87Z"/>
        <path class="a5175a99-0d7b-450c-82fa-fea32dddf11e" d="M352.93,487.82a2.54,2.54,0,0,1,2.53-2.51,2.64,2.64,0,0,1,1.59.55.55.55,0,0,1,.11.74.53.53,0,0,1-.75.1,1.6,1.6,0,0,0-1-.32,1.44,1.44,0,1,0,0,2.87,1.62,1.62,0,0,0,1-.32.54.54,0,0,1,.75.11.55.55,0,0,1-.11.74,2.75,2.75,0,0,1-1.59.53A2.52,2.52,0,0,1,352.93,487.82Z"/>
        <path class="a5175a99-0d7b-450c-82fa-fea32dddf11e" d="M358.49,487.81a2.47,2.47,0,0,1,2.43-2.5,2.39,2.39,0,0,1,2.41,2.32v.05a.28.28,0,0,1,0,.09.48.48,0,0,1-.52.4h-3.18a1.39,1.39,0,0,0,.34.66,1.57,1.57,0,0,0,1,.45,1.63,1.63,0,0,0,1-.25.57.57,0,0,1,.75,0,.46.46,0,0,1,0,.65,2.53,2.53,0,0,1-1.79.66A2.48,2.48,0,0,1,358.49,487.81Zm1.09-.49h2.82a1.63,1.63,0,0,0-1.48-1.06A1.39,1.39,0,0,0,359.58,487.32Z"/>
      </g>
    </g>
  </g>
  <path class="abc20461-b524-41f9-9533-2d77b6df1687" d="M67.71,174.14l13.68,24.51,27.81,5.28L89.84,224.36l3.52,27.78L67.71,240.25,42.06,252.14l3.52-27.78L26.22,203.93,54,198.65l13.68-24.51"/>
  <path class="abc20461-b524-41f9-9533-2d77b6df1687" d="M126,64.36l16.74,30,34.06,6.46-23.71,25,4.3,34L126,145.29l-31.4,14.55,4.31-34-23.71-25,34.05-6.46,16.75-30"/>
  <path class="abc20461-b524-41f9-9533-2d77b6df1687" d="M229.09,8.51l20.59,36.91,41.89,7.95L262.41,84.13,267.7,126l-38.61-17.9L190.47,126l5.29-41.82L166.61,53.37l41.88-7.95,20.6-36.91"/>
  <path class="abc20461-b524-41f9-9533-2d77b6df1687" d="M391.81,172.7l13.68,24.52,27.81,5.28-19.36,20.43,3.51,27.77-25.64-11.89L366.16,250.7l3.52-27.77L350.32,202.5l27.81-5.28,13.68-24.52"/>
  <path class="abc20461-b524-41f9-9533-2d77b6df1687" d="M338.45,66.59l16.74,30,34.06,6.46-23.71,25,4.3,34-31.39-14.56-31.4,14.56,4.31-34-23.71-25,34.06-6.46,16.74-30"/>
  <g>
    <g>
      <g>
        <line class="e993fef0-3d60-4279-93fc-98adbd8aaa6a" x1="152.09" y1="342.28" x2="152.09" y2="384.97"/>
        <path class="ed298c0d-9fb1-4a21-8b6d-9ca5963be939" d="M191.38,372.41h-7.77a36.37,36.37,0,0,0-8.85-1.13H127.42a36.45,36.45,0,0,0-8.86,1.13h-5.21A38.5,38.5,0,0,0,75,410.8v76.64a38.49,38.49,0,0,0,38.38,38.39h78a38.5,38.5,0,0,0,38.39-38.39V410.8A38.5,38.5,0,0,0,191.38,372.41Z"/>
        <circle class="afe19517-304b-44ed-a96d-61c79ab2b958" cx="152.09" cy="303.41" r="61.63"/>
        <rect class="ba092f5e-0c64-4f83-bc83-33dc3f4f7568" x="120.05" y="291" width="13.37" height="7.2" rx="1.48"/>
        <rect class="ba092f5e-0c64-4f83-bc83-33dc3f4f7568" x="170.75" y="291" width="13.37" height="7.2" rx="1.48"/>
        <circle class="e55329d3-714e-494c-b002-d3ab3e8a7d65" cx="177.43" cy="294.61" r="2.86"/>
        <line class="b6985c12-aac0-4f33-bd54-33cbc46ec262" x1="120.05" y1="279.17" x2="138.41" y2="279.17"/>
        <g class="ace2100f-f594-4d91-8791-e0d11061f007">
          <circle class="e55329d3-714e-494c-b002-d3ab3e8a7d65" cx="126.74" cy="294.61" r="2.81"/>
        </g>
        <path class="aedb2804-66a7-4e06-b446-db421fdbae47" d="M156.58,310.92h-4.09a2.72,2.72,0,0,1-2.8-2.77v-4"/>
        <path class="ed298c0d-9fb1-4a21-8b6d-9ca5963be939" d="M128.11,654.64H76.92c0-80.32,17.62-153,18.37-156.06L145,510.78h0C144.71,512,128.11,581,128.11,654.64Z"/>
        <path class="ed298c0d-9fb1-4a21-8b6d-9ca5963be939" d="M227.83,654.64H176.64c0-73.92-16.73-143.17-16.9-143.86l49.72-12.2C210.21,501.64,227.83,574.32,227.83,654.64Z"/>
        <path class="bb25c1b6-b595-4019-b11a-71a0dfb35abb" d="M128.3,650.23H72.2a15.91,15.91,0,0,0-15.91,15.91v5.47h72.46Z"/>
        <circle class="aead4876-f766-4816-8789-b0fe097ed04d" cx="92.58" cy="310.29" r="10.68"/>
        <circle class="aead4876-f766-4816-8789-b0fe097ed04d" cx="211.16" cy="310.29" r="10.68"/>
        <line class="b6985c12-aac0-4f33-bd54-33cbc46ec262" x1="165.4" y1="279.17" x2="183.75" y2="279.17"/>
        <path class="bb25c1b6-b595-4019-b11a-71a0dfb35abb" d="M176.66,650.23h56.1a15.91,15.91,0,0,1,15.91,15.91v5.47H176.21Z"/>
        <path class="ed298c0d-9fb1-4a21-8b6d-9ca5963be939" d="M128.1,539.6a187.62,187.62,0,0,1-29.23-26.06C78.47,491.17,67.4,468.12,66,445s6.73-45,24.18-65l26.05,22.83c-10,11.54-14.51,23.13-13.78,35.51,1.85,31,35.57,60.74,48.4,69.61Z"/>
        <path class="ed298c0d-9fb1-4a21-8b6d-9ca5963be939" d="M155.76,535.35a187.76,187.76,0,0,0,33.15-20.85c23.83-18.67,38.56-39.58,43.79-62.13s.82-45.47-13.06-68.12l-29.49,18.2c8,13.05,10.49,25.21,7.7,37.29-6.95,30.22-45.14,54-59.27,60.63Z"/>
        <rect class="ed298c0d-9fb1-4a21-8b6d-9ca5963be939" x="79.13" y="495.7" width="146.48" height="56.71" rx="8.45"/>
        <path class="aedb2804-66a7-4e06-b446-db421fdbae47" d="M143.75,340.5a22.47,22.47,0,0,0,16.74,0"/>
        <path class="f24d40bd-1a75-4e4a-878c-2979fc45e5fb" d="M206.55,296.18l-.42.39c-55.17,50.42-106.88.54-107.4,0l-.42-.42-7.53.88a2.65,2.65,0,0,0-2.34,2.66c.43,26,9.8,43.15,17.72,51.1,10.91,11,26.46,16.55,46.21,16.57s35.3-5.59,46.21-16.56c7.93-8,17.31-24.76,17.72-50.78a2.64,2.64,0,0,0-2.22-2.65ZM162.13,345a27.85,27.85,0,0,1-9.81,1.78,25.89,25.89,0,0,1-10.43-2.07,4.88,4.88,0,0,1,4.19-8.81,17.53,17.53,0,0,0,12.89-.13,4.87,4.87,0,0,1,6.43,3.13A5.11,5.11,0,0,1,162.13,345Z"/>
        <path class="ab41b602-bcb3-4169-b352-c12bef3796a0" d="M152.39,268.38H100.76l-8.18,41V282.89a50.16,50.16,0,0,1,49.85-50.16h20.13a50.16,50.16,0,0,1,49.85,50.16v26.47l-8.18-41H152.39"/>
        <path class="fe0e63fc-37ab-45ee-b9ec-e6a0de50986c" d="M79.13,516.61c27.91,9.41,52.5,13.13,73.24,13.74,20.74-.61,45.33-4.33,73.24-13.74v.06a24.3,24.3,0,0,0-1.82-9.78c-27.22,9.17-51.2,12.8-71.42,13.4-20.22-.6-44.21-4.23-71.42-13.4a24.3,24.3,0,0,0-1.82,9.78Z"/>
        <g>
          <rect class="bb25c1b6-b595-4019-b11a-71a0dfb35abb" x="102.39" y="501.48" width="4.38" height="44.93" rx="0.22" transform="translate(92.1 -10.19) rotate(9.95)"/>
          <path class="ef1463ff-8ceb-4c3f-90cc-65fd1ed6b2b5" d="M99.49,553a4.2,4.2,0,1,1,4.86-3.42A4.22,4.22,0,0,1,99.49,553Zm1.07-6.13a2,2,0,1,0,1.64,2.33A2,2,0,0,0,100.56,546.86Z"/>
          <g>
            <path class="ef1463ff-8ceb-4c3f-90cc-65fd1ed6b2b5" d="M109.34,495.52l1,4.07a1,1,0,0,1-.78,1.25l-1.88.44a1.05,1.05,0,0,1-1.26-.78l-1-4.14a5,5,0,1,0,3.93-.84Z"/>
            <path class="ef1463ff-8ceb-4c3f-90cc-65fd1ed6b2b5" d="M107.42,505.65a5.31,5.31,0,0,1-2.19-9.54.31.31,0,0,1,.48.18l1,4.14a.73.73,0,0,0,.88.55l1.88-.44a.73.73,0,0,0,.54-.88l-.95-4.07a.29.29,0,0,1,.08-.29.36.36,0,0,1,.29-.09,5.31,5.31,0,0,1-2,10.44Zm-2.2-8.73a4.63,4.63,0,0,0-1.5,2.69,4.69,4.69,0,1,0,6-3.66l.83,3.56a1.37,1.37,0,0,1-1,1.64l-1.88.44a1.36,1.36,0,0,1-1.63-1Z"/>
          </g>
        </g>
        <g>
          <rect class="bb25c1b6-b595-4019-b11a-71a0dfb35abb" x="201.68" y="528.57" width="23.19" height="1.66" transform="translate(742.68 316.13) rotate(90)"/>
          <path class="bb25c1b6-b595-4019-b11a-71a0dfb35abb" d="M214.49,546.2v-3.78l-.42-2.21a.24.24,0,0,0-.24-.2h-1.12a.24.24,0,0,0-.24.2l-.41,2.21a.07.07,0,0,0,0,.05v3.73a.25.25,0,0,0,.25.25h1.94A.25.25,0,0,0,214.49,546.2Z"/>
          <path class="ef1463ff-8ceb-4c3f-90cc-65fd1ed6b2b5" d="M212.05,542.47v3.73a.25.25,0,0,0,.25.25h1.94a.25.25,0,0,0,.25-.25v-3.78h-2.43A.07.07,0,0,0,212.05,542.47Z"/>
          <rect class="bbe7d0c0-a505-429f-905f-fdf518702cf0" x="199.23" y="503.83" width="28.12" height="6.29" rx="1.12" transform="translate(720.26 293.68) rotate(90)"/>
          <rect class="aed40f28-3abf-47b9-bf2d-9a7875654db3" x="203.54" y="506.53" width="23.41" height="0.83" rx="0.17" transform="translate(722.19 291.7) rotate(90)"/>
          <rect class="aed40f28-3abf-47b9-bf2d-9a7875654db3" x="201.57" y="506.53" width="23.41" height="0.83" rx="0.17" transform="translate(720.22 293.67) rotate(90)"/>
          <rect class="aed40f28-3abf-47b9-bf2d-9a7875654db3" x="199.59" y="506.53" width="23.41" height="0.83" rx="0.17" transform="translate(718.25 295.65) rotate(90)"/>
        </g>
        <g>
          <rect class="bb25c1b6-b595-4019-b11a-71a0dfb35abb" x="93.81" y="494.8" width="6.02" height="47.16" rx="0.3"/>
          <path class="ef1463ff-8ceb-4c3f-90cc-65fd1ed6b2b5" d="M96.82,551.61a5.78,5.78,0,1,1,5.78-5.78A5.8,5.8,0,0,1,96.82,551.61Zm0-8.55a2.77,2.77,0,1,0,2.77,2.77A2.77,2.77,0,0,0,96.82,543.06Z"/>
          <g>
            <path class="ef1463ff-8ceb-4c3f-90cc-65fd1ed6b2b5" d="M96.52,486.07l2.25,5.27a1.45,1.45,0,0,1-.75,1.89l-2.44,1a1.45,1.45,0,0,1-1.89-.75l-2.3-5.38a6.89,6.89,0,1,0,5.13-2.07Z"/>
            <path class="ef1463ff-8ceb-4c3f-90cc-65fd1ed6b2b5" d="M96.32,500.24a7.3,7.3,0,0,1-5.23-12.4.41.41,0,0,1,.38-.12.45.45,0,0,1,.32.25l2.3,5.38a1,1,0,0,0,1.32.53l2.44-1a1,1,0,0,0,.53-1.33l-2.26-5.27a.43.43,0,0,1,.41-.6,7.3,7.3,0,0,1-.21,14.6Zm-5-11.3a6.35,6.35,0,0,0-1.4,4,6.45,6.45,0,1,0,7.32-6.39l2,4.63a1.88,1.88,0,0,1-1,2.45l-2.44,1a1.87,1.87,0,0,1-2.45-1Z"/>
          </g>
        </g>
        <path class="fe0e63fc-37ab-45ee-b9ec-e6a0de50986c" d="M117.69,559.35H81.1a2,2,0,0,1-2-2v-41.2c0-1.08,1.92-5.34,3-5.34l35.76,9.66c1.08,0,1.77-.28,1.77.81v36.07A2,2,0,0,1,117.69,559.35Z"/>
        <rect class="b0ef88a1-ee8b-43ae-801f-205bcc9db9ef" x="186.7" y="514.18" width="4.7" height="50.85" rx="0.89"/>
        <rect class="ef813ff2-cdb7-40c0-befd-ec56172bbfa1" x="178.55" y="511.14" width="14.93" height="5.29" rx="1.08"/>
        <path class="fe0e63fc-37ab-45ee-b9ec-e6a0de50986c" d="M183.17,517.2c2.89,0,12.51.11,13.42-.34s.63,6,.63,6-4.44,3.35-18.52,2.28S183.17,517.2,183.17,517.2Z"/>
        <rect class="ef813ff2-cdb7-40c0-befd-ec56172bbfa1" x="176.66" y="510.15" width="5.45" height="8.05" rx="0.92"/>
        <path class="ef813ff2-cdb7-40c0-befd-ec56172bbfa1" d="M191,511.14a13.4,13.4,0,0,1,12.58,8.54h-1.64c-6.08-6.92-7.66-3.26-10.71-3.26S181.36,511.14,191,511.14Z"/>
        <g>
          <rect class="bb25c1b6-b595-4019-b11a-71a0dfb35abb" x="195.58" y="498.56" width="23.19" height="1.66" transform="translate(-229 818.86) rotate(-103.69)"/>
          <path class="bb25c1b6-b595-4019-b11a-71a0dfb35abb" d="M202,483.36l.89,3.63a.08.08,0,0,0,0,0l.92,2.05a.26.26,0,0,0,.29.13l1.08-.26a.24.24,0,0,0,.19-.25l-.12-2.25v0l-.89-3.63a.24.24,0,0,0-.3-.18l-1.89.46A.25.25,0,0,0,202,483.36Z"/>
          <path class="ef1463ff-8ceb-4c3f-90cc-65fd1ed6b2b5" d="M205.28,486.41l-.89-3.63a.24.24,0,0,0-.3-.18l-1.89.46a.25.25,0,0,0-.18.3l.89,3.63a.08.08,0,0,0,0,0l2.36-.58Z"/>
          <rect class="bbe7d0c0-a505-429f-905f-fdf518702cf0" x="198.41" y="518.05" width="28.12" height="6.29" rx="1.12" transform="translate(-243.64 850.96) rotate(-103.69)"/>
          <rect class="aed40f28-3abf-47b9-bf2d-9a7875654db3" x="198.87" y="521.26" width="23.41" height="0.83" rx="0.17" transform="translate(-246.45 849.72) rotate(-103.69)"/>
          <rect class="aed40f28-3abf-47b9-bf2d-9a7875654db3" x="200.79" y="520.79" width="23.41" height="0.83" rx="0.17" transform="translate(-243.62 851) rotate(-103.69)"/>
          <rect class="aed40f28-3abf-47b9-bf2d-9a7875654db3" x="202.71" y="520.32" width="23.41" height="0.83" rx="0.17" transform="translate(-240.8 852.29) rotate(-103.69)"/>
        </g>
        <path class="f3a2145d-8620-4e98-aa7b-e9ec61ea2537" d="M205.48,556.37h19.9c.59,0,1.08-.88,1.08-2V513.21c0-1.09-1.05-5.34-1.64-5.34l-20,5.92c-.59,0-1-.28-1,.81l.6,39.8C204.41,555.49,204.89,556.37,205.48,556.37Z"/>
        <path class="afe19517-304b-44ed-a96d-61c79ab2b958" d="M174,370.47c0,2.84-9.77,5.15-21.83,5.15s-21.83-2.31-21.83-5.15"/>
        <rect class="b336f123-6000-462f-9fba-cdab45cac155" x="124.31" y="481.42" width="26.75" height="26.75" rx="3.73"/>
        <rect class="b336f123-6000-462f-9fba-cdab45cac155" x="165.17" y="479.59" width="26.75" height="26.75" rx="3.73" transform="translate(357.09 985.94) rotate(180)"/>
      </g>
      <g>
        <g>
          <path class="abc20461-b524-41f9-9533-2d77b6df1687" d="M145.26,423.46c0-.46,0-.86,0-1.26,0-1.49-.54-2-2-2.22a19,19,0,0,0-6.95.73c-.81.19-.89.17-1.05-.62-.39-1.88-.77-1.72,1.35-2.22a20.14,20.14,0,0,1,8.77-.42c1.57.31,2.88,1,3.31,2.7a7.14,7.14,0,0,1,.2,1.59c0,3.16,0,7.92,0,8.72s0,1.69-.08,2.05c-.13.92-.6,1.16-1.41,1.55a11.79,11.79,0,0,1-3.74.75,22.28,22.28,0,0,1-5.54-.22c-3.21-.55-4.33-2.74-4.05-5.83.24-2.69,1.57-3.79,4.59-4.2,1.11-.15,2.2-.35,3.3-.54Zm0,2.54c-2,.36-4,.66-5.91,1.08a2.12,2.12,0,0,0-1.21.85,2.86,2.86,0,0,0,1.75,4.28,10.66,10.66,0,0,0,5.37-.31Z"/>
          <path class="abc20461-b524-41f9-9533-2d77b6df1687" d="M177.47,420.46v9.88c0,1.1,0,2.19,0,3.29,0,.79-.09.87-.9.87-.63,0-1.18-.05-1.88,0s-.89-.07-.89-.88q0-5.64,0-11.28c0-.72,0-1.44,0-2.15a1.69,1.69,0,0,1,1.25-1.78,25.57,25.57,0,0,1,3.62-.91,20.81,20.81,0,0,1,6-.21c2.46.31,3.85,1.66,3.88,4.12.07,4.14,0,8.28.05,12.42,0,.48-.19.69-.69.68-.71,0-1.43,0-2.14,0s-.86-.26-.85-.88c0-3.58,0-7.17,0-10.75,0-.31,0-.63,0-.94a2,2,0,0,0-2.11-2.1A18.06,18.06,0,0,0,177.47,420.46Z"/>
          <path class="abc20461-b524-41f9-9533-2d77b6df1687" d="M128.05,434.64a15.74,15.74,0,0,1-5.08-.06l-.21,0a5.57,5.57,0,0,1-4.62-4.63,17.82,17.82,0,0,1,0-7.52,5.74,5.74,0,0,1,5.15-5.05,15.61,15.61,0,0,1,7.15.5c.83.26.91.41.71,1.27-.41,1.72-.12,1.44-1.83,1.13a20.25,20.25,0,0,0-4.11-.34,3.35,3.35,0,0,0-3.4,2.94,15.83,15.83,0,0,0-.1,5.74c.41,2.59,1.53,3.57,4.23,3.58a22.26,22.26,0,0,0,4-.52c.85-.16.9-.18,1.1.63.41,1.65.38,1.75-1.3,2.09C129.12,434.47,128.59,434.56,128.05,434.64Z"/>
          <path class="abc20461-b524-41f9-9533-2d77b6df1687" d="M163.8,420.66v4.11q0,4.41,0,8.8c0,.86-.07.93-.9.93-.68,0-1.35,0-2,0s-.76-.21-.76-.75c0-1.09,0-2.19,0-3.29v-9.73c0-1.72.29-2.11,1.95-2.64a30.54,30.54,0,0,1,8.48-.94c.58,0,.82,0,.84.84s0,1.06,0,1.46c0,.75-.14,1-1.14,1A44.62,44.62,0,0,0,163.8,420.66Z"/>
          <path class="abc20461-b524-41f9-9533-2d77b6df1687" d="M156.32,414.35c0,.54-.24.76-.68.77-.73,0-1.47,0-2.21,0a.68.68,0,0,1-.74-.76v-2.29a.6.6,0,0,1,.66-.67c.79,0,1.57,0,2.35,0,.43,0,.62.12.62.7Z"/>
        </g>
        <path class="abc20461-b524-41f9-9533-2d77b6df1687" d="M155.49,417.76h-2a.84.84,0,0,0-.84.83v13.12l1.83-1.71,1.82,1.71V418.59A.83.83,0,0,0,155.49,417.76Z"/>
      </g>
      <g>
        <path class="a5175a99-0d7b-450c-82fa-fea32dddf11e" d="M99.35,454.58V444.34a.93.93,0,0,1,1-.95,1,1,0,0,1,1,.95v4.16h4.5v-4.16a.93.93,0,0,1,1-.95,1,1,0,0,1,1,.95v10.24a1,1,0,0,1-1,.95.94.94,0,0,1-1-.95v-4.17h-4.5v4.17a1,1,0,0,1-1,.95A.94.94,0,0,1,99.35,454.58Z"/>
        <path class="a5175a99-0d7b-450c-82fa-fea32dddf11e" d="M118.8,451.21v3.4a.93.93,0,0,1-.92.92,1,1,0,0,1-.91-.75,3.91,3.91,0,0,1-2.3.75,4,4,0,0,1-3-1.27,4.4,4.4,0,0,1-1.18-3.05,4.35,4.35,0,0,1,1.18-3,4,4,0,0,1,3-1.31,3.92,3.92,0,0,1,2.3.77,1,1,0,0,1,.91-.77.93.93,0,0,1,.92.94Zm-1.84,0a2.55,2.55,0,0,0-.68-1.79,2.15,2.15,0,0,0-1.61-.71,2.09,2.09,0,0,0-1.62.71,2.59,2.59,0,0,0-.66,1.79,2.64,2.64,0,0,0,.66,1.79,2.2,2.2,0,0,0,1.62.67,2.26,2.26,0,0,0,1.61-.67A2.61,2.61,0,0,0,117,451.21Z"/>
        <path class="a5175a99-0d7b-450c-82fa-fea32dddf11e" d="M129.26,450.46v4.15a.91.91,0,0,1-.9.92.94.94,0,0,1-.92-.92v-4.15a1.78,1.78,0,0,0-1.81-1.75,1.73,1.73,0,0,0-1.73,1.75v4.15a.3.3,0,0,1,0,.17.94.94,0,0,1-.92.75.92.92,0,0,1-.92-.92v-6.84a.92.92,0,0,1,.92-.92.93.93,0,0,1,.85.54,3.48,3.48,0,0,1,1.84-.54A3.63,3.63,0,0,1,129.26,450.46Z"/>
        <path class="a5175a99-0d7b-450c-82fa-fea32dddf11e" d="M140.17,454.59a.93.93,0,0,1-1.85.19,4.29,4.29,0,1,1-2.36-7.93,4.1,4.1,0,0,1,2.32.73v-3.26a1,1,0,0,1,1-.93.93.93,0,0,1,.93.93v10.27ZM136,448.75a2.23,2.23,0,0,0-1.63.71,2.5,2.5,0,0,0,0,3.47,2.23,2.23,0,0,0,3.26,0,2.53,2.53,0,0,0,0-3.47A2.23,2.23,0,0,0,136,448.75Z"/>
        <path class="a5175a99-0d7b-450c-82fa-fea32dddf11e" d="M150.31,447.77v6.56a4.11,4.11,0,0,1-5.94,3.72.92.92,0,0,1-.45-1.24,1,1,0,0,1,1.23-.38,2.28,2.28,0,0,0,1,.25,2.31,2.31,0,0,0,2.17-1.58,3.48,3.48,0,0,1-1.65.41,3.66,3.66,0,0,1-3.63-3.64v-4.1a.93.93,0,0,1,.91-.92.9.9,0,0,1,.92.92v4.1a1.8,1.8,0,0,0,3.59,0v-4.1a.89.89,0,0,1,.9-.92A.93.93,0,0,1,150.31,447.77Z"/>
        <path class="a5175a99-0d7b-450c-82fa-fea32dddf11e" d="M154,457.85V447.77a.92.92,0,0,1,.92-.92,1,1,0,0,1,1,.72,4.39,4.39,0,0,1,2.36-.72,4.31,4.31,0,0,1,4.2,4.36,4.25,4.25,0,0,1-4.2,4.3,4,4,0,0,1-2.32-.71v3.05a1,1,0,0,1-1,.94A1,1,0,0,1,154,457.85Zm1.91-6.64a2.28,2.28,0,0,0,.67,1.73,2.15,2.15,0,0,0,1.65.73,2.2,2.2,0,0,0,1.63-.73,2.49,2.49,0,0,0,.68-1.73,2.66,2.66,0,0,0-.68-1.75,2.25,2.25,0,0,0-1.63-.71,2.2,2.2,0,0,0-1.65.71A2.42,2.42,0,0,0,155.88,451.21Z"/>
        <path class="a5175a99-0d7b-450c-82fa-fea32dddf11e" d="M164.64,451.19a4.3,4.3,0,0,1,4.23-4.34,4.15,4.15,0,0,1,4.18,4V451a.76.76,0,0,1,0,.15.85.85,0,0,1-.91.7h-5.51a2.13,2.13,0,0,0,.59,1.14,2.62,2.62,0,0,0,1.66.78,2.86,2.86,0,0,0,1.81-.43,1,1,0,0,1,1.3-.05.79.79,0,0,1,0,1.12,4.36,4.36,0,0,1-3.11,1.15A4.31,4.31,0,0,1,164.64,451.19Zm1.89-.85h4.91a2.84,2.84,0,0,0-2.57-1.84A2.43,2.43,0,0,0,166.53,450.34Z"/>
        <path class="a5175a99-0d7b-450c-82fa-fea32dddf11e" d="M180.79,447.77a.92.92,0,0,1-.92.92,1.7,1.7,0,0,0-1,.33,2.68,2.68,0,0,0-.8.84,5.56,5.56,0,0,0-.71,1.45v3.3a.94.94,0,0,1-.95.92.93.93,0,0,1-.92-.92v-6.84a.91.91,0,0,1,.92-.9.93.93,0,0,1,.95.9v.13a2.41,2.41,0,0,1,.37-.35,3.77,3.77,0,0,1,2.18-.68A.9.9,0,0,1,180.79,447.77Z"/>
        <path class="a5175a99-0d7b-450c-82fa-fea32dddf11e" d="M182.65,453.05a.9.9,0,0,1,1.3-.14,3.17,3.17,0,0,0,1.91.76,2.26,2.26,0,0,0,1.18-.33.7.7,0,0,0,.31-.52.29.29,0,0,0,0-.17.59.59,0,0,0-.23-.21,4,4,0,0,0-1.38-.48h0a6.83,6.83,0,0,1-1.51-.46,2.82,2.82,0,0,1-1.2-1,2.11,2.11,0,0,1-.29-1.09,2.43,2.43,0,0,1,1-1.91,3.72,3.72,0,0,1,2.13-.65,4.5,4.5,0,0,1,2.61,1,1,1,0,0,1,.27,1.28.92.92,0,0,1-1.28.25,2.92,2.92,0,0,0-1.6-.65,1.74,1.74,0,0,0-1,.32.52.52,0,0,0-.27.4.19.19,0,0,0,0,.13.46.46,0,0,0,.19.18,3.66,3.66,0,0,0,1.27.41v0h0a6.78,6.78,0,0,1,1.62.5,2.76,2.76,0,0,1,1.23,1,2.19,2.19,0,0,1,.33,1.14,2.52,2.52,0,0,1-1.1,2,3.94,3.94,0,0,1-2.25.69,5,5,0,0,1-3.09-1.2A.92.92,0,0,1,182.65,453.05Z"/>
        <path class="a5175a99-0d7b-450c-82fa-fea32dddf11e" d="M192.4,454.26a4.31,4.31,0,0,1-1.2-3.05,4.48,4.48,0,0,1,1.2-3,4.08,4.08,0,0,1,3-1.32,3.85,3.85,0,0,1,2.9,1.32,4.36,4.36,0,0,1,1.22,3,4.2,4.2,0,0,1-1.22,3.05,3.82,3.82,0,0,1-2.9,1.32A4,4,0,0,1,192.4,454.26Zm.69-3.05a2.81,2.81,0,0,0,.63,1.84,2.33,2.33,0,0,0,1.66.64,2.25,2.25,0,0,0,1.6-.64,2.69,2.69,0,0,0,.68-1.84,2.61,2.61,0,0,0-.68-1.8,2.41,2.41,0,0,0-1.6-.66,2.48,2.48,0,0,0-1.66.66A2.72,2.72,0,0,0,193.09,451.21Z"/>
        <path class="a5175a99-0d7b-450c-82fa-fea32dddf11e" d="M209.68,450.46v4.15a.91.91,0,0,1-.9.92.94.94,0,0,1-.92-.92v-4.15a1.78,1.78,0,0,0-1.8-1.75,1.73,1.73,0,0,0-1.74,1.75v4.15a.38.38,0,0,1,0,.17,1,1,0,0,1-.92.75.92.92,0,0,1-.92-.92v-6.84a.92.92,0,0,1,.92-.92,1,1,0,0,1,.85.54,3.45,3.45,0,0,1,1.84-.54A3.63,3.63,0,0,1,209.68,450.46Z"/>
        <path class="a5175a99-0d7b-450c-82fa-fea32dddf11e" d="M123.64,468.62a.91.91,0,0,1,1.27-.12,5.66,5.66,0,0,0,3.31,1.34,3.75,3.75,0,0,0,2.17-.64,1.57,1.57,0,0,0,.74-1.25,1,1,0,0,0-.15-.56,1.7,1.7,0,0,0-.52-.52,7.24,7.24,0,0,0-2.38-.82h0a9.23,9.23,0,0,1-2.23-.67,3.82,3.82,0,0,1-1.62-1.35,2.7,2.7,0,0,1-.4-1.43,3.2,3.2,0,0,1,1.39-2.53,5.15,5.15,0,0,1,3-.92,6.85,6.85,0,0,1,3.79,1.39.89.89,0,0,1,.24,1.23A.87.87,0,0,1,131,462a5.06,5.06,0,0,0-2.8-1.11,3.29,3.29,0,0,0-1.94.59,1.38,1.38,0,0,0-.66,1.09.91.91,0,0,0,.12.49,1.86,1.86,0,0,0,.47.45,5.94,5.94,0,0,0,2.17.76h0a10.42,10.42,0,0,1,2.4.73,4.09,4.09,0,0,1,1.73,1.44,2.84,2.84,0,0,1,.42,1.48,3.36,3.36,0,0,1-1.49,2.69,5.46,5.46,0,0,1-3.21,1,7.42,7.42,0,0,1-4.44-1.73A.92.92,0,0,1,123.64,468.62Z"/>
        <path class="a5175a99-0d7b-450c-82fa-fea32dddf11e" d="M134.79,467.3A4.29,4.29,0,0,1,139,463a4.15,4.15,0,0,1,4.18,4v.09a.47.47,0,0,1,0,.16.83.83,0,0,1-.9.69h-5.52a2.28,2.28,0,0,0,.59,1.14,2.67,2.67,0,0,0,1.67.78,2.77,2.77,0,0,0,1.8-.43,1,1,0,0,1,1.3-.05.79.79,0,0,1,0,1.13,4.37,4.37,0,0,1-3.1,1.14A4.32,4.32,0,0,1,134.79,467.3Zm1.9-.85h4.91a2.84,2.84,0,0,0-2.57-1.83A2.4,2.4,0,0,0,136.69,466.45Z"/>
        <path class="a5175a99-0d7b-450c-82fa-fea32dddf11e" d="M151,463.89a.93.93,0,0,1-.92.92,1.62,1.62,0,0,0-1,.33,2.54,2.54,0,0,0-.8.83,5.15,5.15,0,0,0-.71,1.46v3.29a1,1,0,0,1-1,.92.92.92,0,0,1-.92-.92v-6.83a.92.92,0,0,1,.92-.91.94.94,0,0,1,1,.91V464a2.38,2.38,0,0,1,.36-.35A3.87,3.87,0,0,1,150,463,.9.9,0,0,1,151,463.89Z"/>
        <path class="a5175a99-0d7b-450c-82fa-fea32dddf11e" d="M160.08,464.35l-2.85,6.74a.42.42,0,0,1-.07.12,0,0,0,0,1,0,0l-.1.12h0c0,.06-.07.07-.1.11a0,0,0,0,0,0,0,.36.36,0,0,1-.12.08h0v0a.42.42,0,0,0-.13,0h0a.56.56,0,0,1-.17,0,.53.53,0,0,1-.16,0h0a.89.89,0,0,0-.14,0v0h0l-.15-.08a0,0,0,0,0,0,0,.57.57,0,0,1-.11-.11h0a.34.34,0,0,0-.09-.12s0,0,0,0a.16.16,0,0,1-.07-.12l-2.81-6.74a.86.86,0,0,1,.5-1.17.88.88,0,0,1,1.16.5l2,4.72,2-4.72a.9.9,0,0,1,1.67.67Z"/>
        <path class="a5175a99-0d7b-450c-82fa-fea32dddf11e" d="M165.21,460.8a.94.94,0,1,1-1.87,0v-.37a.94.94,0,0,1,1.87,0Zm0,3.14v6.77a.94.94,0,0,1-1.87,0v-6.77a.94.94,0,1,1,1.87,0Z"/>
        <path class="a5175a99-0d7b-450c-82fa-fea32dddf11e" d="M167.59,467.32A4.4,4.4,0,0,1,172,463a4.55,4.55,0,0,1,2.75.95,1,1,0,0,1,.19,1.29.93.93,0,0,1-1.3.17,2.75,2.75,0,0,0-1.64-.56,2.49,2.49,0,1,0,0,5,2.79,2.79,0,0,0,1.64-.55.93.93,0,0,1,1.3.19,1,1,0,0,1-.19,1.28,4.73,4.73,0,0,1-2.75.92A4.39,4.39,0,0,1,167.59,467.32Z"/>
        <path class="a5175a99-0d7b-450c-82fa-fea32dddf11e" d="M177.24,467.3a4.28,4.28,0,0,1,4.23-4.33,4.15,4.15,0,0,1,4.18,4v.09a.47.47,0,0,1,0,.16.83.83,0,0,1-.9.69h-5.52a2.28,2.28,0,0,0,.59,1.14,2.67,2.67,0,0,0,1.67.78,2.77,2.77,0,0,0,1.8-.43,1,1,0,0,1,1.3-.05.79.79,0,0,1,0,1.13,4.37,4.37,0,0,1-3.1,1.14A4.3,4.3,0,0,1,177.24,467.3Zm1.89-.85H184a2.84,2.84,0,0,0-2.57-1.83A2.4,2.4,0,0,0,179.13,466.45Z"/>
      </g>
    </g>
    <g class="text-cta text-cta--14">
      <path class="abe5ceef-426f-4224-801f-87eda1008df5" d="M171.61,486.14l-23.88-6.76a7.72,7.72,0,0,1-5.31-9.51l21.48-75.94c1.15-4.08,17.72-24.83,19.74-26.53l16.44,4.65c.17,3.32,3.67,28.75,2.52,32.83l-21.48,75.93A7.73,7.73,0,0,1,171.61,486.14Z"/>
      <path class="bccb206a-583c-49d0-bf49-f37111496eda" d="M208.21,287.35c1.19-5.51,2.39-11,4.1-16.41,1,1.39.75,3.25.5,4.93l-3.09,20.76,9.77-27.86c.56-1.61,1.41-3.47,3.08-3.77s3.29,1.4,3.52,3.15a10.69,10.69,0,0,1-1.13,5.1,94.22,94.22,0,0,0-5.46,20.19,15.69,15.69,0,0,0,5.61-4.72c1.32-2,1.81-4.47,2.37-6.83a82.37,82.37,0,0,1,4.41-13.25c.81-1.89,1.79-3.86,3.57-4.9.64-.38,1.62-.54,2,.09a1.74,1.74,0,0,1,0,1.38,141.74,141.74,0,0,1-11.61,29.1c-1.72,3.21-3.56,6.36-5.31,9.55a204.34,204.34,0,0,0-13.3,29.49s-5.79-1.11-6.44-1.26c-2.54-.61-2.09-1.11-1.54-3.61q1.47-6.83,2.95-13.63Z"/>
      <rect class="abe5ceef-426f-4224-801f-87eda1008df5" x="147.01" y="423.91" width="40.22" height="65.06" rx="3.61" transform="translate(130.54 -28.25) rotate(15.79)"/>
      <rect class="f81e952b-3bf0-4d40-9968-6b514c61f6cb" x="183.87" y="331.62" width="14.98" height="78.23" transform="translate(108.13 -38.09) rotate(15.79)"/>
      <line class="adc83ea3-fa63-4236-bf7c-c34f8c297cd6" x1="189.76" y1="340.29" x2="208.66" y2="345.64"/>
      <rect class="b663a75a-0c98-4c60-9ff6-ba13cf409a68" x="157.64" y="407.88" width="31.84" height="51.52" transform="translate(124.57 -30.87) rotate(15.79)"/>
      <rect class="ff93da22-6492-485a-a613-99d780fb8e9d" x="154.68" y="417.92" width="40.22" height="22.77" transform="matrix(0.96, 0.27, -0.27, 0.96, 123.44, -31.37)"/>
      <g>
        <path class="b01bb0c9-2e93-45ff-b2aa-ac7174739c7e" d="M157.83,426.09a2.2,2.2,0,0,1,2.7-1.47,2.27,2.27,0,0,1,1.21.82.36.36,0,0,1-.08.48.33.33,0,0,1-.47-.07,1.64,1.64,0,0,0-.84-.58,1.6,1.6,0,0,0-1.16.13,1.48,1.48,0,0,0-.7.88,1.45,1.45,0,0,0,.14,1.12,1.57,1.57,0,0,0,.92.71,1.46,1.46,0,0,0,1-.06.36.36,0,0,1,.44.2.34.34,0,0,1-.18.44,2.22,2.22,0,0,1-3-2.6Z"/>
        <path class="b01bb0c9-2e93-45ff-b2aa-ac7174739c7e" d="M162.53,429.32a.34.34,0,0,1-.42.22.36.36,0,0,1-.24-.32.24.24,0,0,1,0-.08l1-3.4a.33.33,0,1,1,.63.18l-.28,1a1.52,1.52,0,0,1,.67,0,1.3,1.3,0,0,1,.89,1.61l-.37,1.3a.32.32,0,0,1-.4.23.32.32,0,0,1-.23-.4l.37-1.31a.64.64,0,0,0-.45-.79.65.65,0,0,0-.79.44Z"/>
        <path class="b01bb0c9-2e93-45ff-b2aa-ac7174739c7e" d="M168.39,429.77l-.32,1.13a.33.33,0,0,1-.39.22.35.35,0,0,1-.23-.34,1.31,1.31,0,0,1-.83,0,1.39,1.39,0,0,1-.86-.7,1.49,1.49,0,0,1-.11-1.12,1.52,1.52,0,0,1,.68-.91,1.4,1.4,0,0,1,1.1-.15,1.3,1.3,0,0,1,.69.47.33.33,0,0,1,.37-.17.32.32,0,0,1,.22.4Zm-.61-.17a.86.86,0,0,0-.06-.66.74.74,0,0,0-.46-.39.77.77,0,0,0-.61.09.86.86,0,0,0-.38.53.84.84,0,0,0,0,.65.72.72,0,0,0,.47.38.78.78,0,0,0,.6-.07A.93.93,0,0,0,167.78,429.6Z"/>
        <path class="b01bb0c9-2e93-45ff-b2aa-ac7174739c7e" d="M172,430.51v0l-.39,1.37a.32.32,0,0,1-.61-.18l.38-1.36v0a.61.61,0,0,0-1.18-.31l-.39,1.36a.08.08,0,0,1,0,0v0s0,0,0,0v0a.35.35,0,0,1-.34.11l0,0a.32.32,0,0,1-.16-.37l.38-1.37h0l.26-.89a.31.31,0,0,1,.39-.22.31.31,0,0,1,.23.25,1.23,1.23,0,0,1,.66,0,1.27,1.27,0,0,1,.79.65,1.28,1.28,0,0,1,1-.14,1.25,1.25,0,0,1,.85,1.55l-.38,1.36a.32.32,0,0,1-.62-.17l.39-1.36a.62.62,0,0,0-1.18-.36Z"/>
        <path class="b01bb0c9-2e93-45ff-b2aa-ac7174739c7e" d="M174.36,433.84l.62-2.2h0l.33-1.14a.31.31,0,0,1,.39-.21.32.32,0,0,1,.25.32,1.41,1.41,0,0,1,.84,0,1.49,1.49,0,0,1-.81,2.87,1.47,1.47,0,0,1-.7-.45l-.29,1a.33.33,0,0,1-.41.22A.33.33,0,0,1,174.36,433.84Zm1.26-2a.78.78,0,0,0,.06.64.74.74,0,0,0,.48.4.79.79,0,0,0,.61-.09.84.84,0,0,0,.38-.51.9.9,0,0,0-.06-.65.82.82,0,0,0-.47-.39.79.79,0,0,0-.62.08A.85.85,0,0,0,175.62,431.81Z"/>
        <path class="b01bb0c9-2e93-45ff-b2aa-ac7174739c7e" d="M181.21,433.4l-.32,1.12a.31.31,0,0,1-.39.22.32.32,0,0,1-.23-.33,1.31,1.31,0,0,1-.83,0,1.37,1.37,0,0,1-.86-.69,1.52,1.52,0,0,1-.11-1.13,1.53,1.53,0,0,1,.68-.9,1.36,1.36,0,0,1,1.1-.16,1.5,1.5,0,0,1,.7.47.31.31,0,0,1,.58.23Zm-.61-.18a.84.84,0,0,0-.06-.65.71.71,0,0,0-.46-.39.76.76,0,0,0-.61.08.92.92,0,0,0-.38.54.85.85,0,0,0,0,.65.75.75,0,0,0,.47.38.79.79,0,0,0,.6-.08A.86.86,0,0,0,180.6,433.22Z"/>
        <path class="b01bb0c9-2e93-45ff-b2aa-ac7174739c7e" d="M183.28,432.77l-.63,2.24a.32.32,0,0,1-.4.23.32.32,0,0,1-.22-.4l.63-2.25a.33.33,0,0,1,.4-.23A.33.33,0,0,1,183.28,432.77Zm.3-1a.33.33,0,0,1-.4.23.34.34,0,0,1-.23-.41l0-.12a.32.32,0,1,1,.62.18Z"/>
        <path class="b01bb0c9-2e93-45ff-b2aa-ac7174739c7e" d="M186.52,434.91l-.3,1.07a1.44,1.44,0,0,1-2.34.68.33.33,0,0,1,.44-.48.64.64,0,0,0,.3.17.8.8,0,0,0,.93-.4,1.43,1.43,0,0,1-.82,0,1.34,1.34,0,0,1-.85-.71,1.5,1.5,0,0,1-.12-1.13,1.59,1.59,0,0,1,.69-.91,1.45,1.45,0,0,1,1.1-.15,1.35,1.35,0,0,1,.7.46.33.33,0,0,1,.38-.15.32.32,0,0,1,.22.39l-.33,1.14Zm-.61-.18a1,1,0,0,0-.06-.65.72.72,0,0,0-.47-.4.68.68,0,0,0-.6.1.89.89,0,0,0-.4.52.83.83,0,0,0,.07.66.68.68,0,0,0,.46.38.77.77,0,0,0,.61-.08A.91.91,0,0,0,185.91,434.73Z"/>
        <path class="b01bb0c9-2e93-45ff-b2aa-ac7174739c7e" d="M190.22,435.68l-.39,1.37a.31.31,0,0,1-.39.22.33.33,0,0,1-.22-.39l.39-1.37a.62.62,0,0,0-.43-.76.6.6,0,0,0-.74.42l-.39,1.38a.13.13,0,0,1,0,.05.31.31,0,0,1-.37.16.31.31,0,0,1-.22-.39l.39-1.37.25-.9a.32.32,0,0,1,.39-.21.31.31,0,0,1,.23.25,1.23,1.23,0,0,1,.66,0A1.26,1.26,0,0,1,190.22,435.68Z"/>
      </g>
      <path class="bccb206a-583c-49d0-bf49-f37111496eda" d="M195.33,322.64a65.49,65.49,0,0,1-13.51-22c-1.92-5.07-3.28-10.55-3-15s2.49-7.64,5.72-6.65c3.8,1.15,7.73,7.51,9.51,13.54a47.81,47.81,0,0,1,2,17.34c-.4,4.34,1.63,10,1.73,14.94"/>
      <path class="bccb206a-583c-49d0-bf49-f37111496eda" d="M212.05,264.68a27.73,27.73,0,0,1-5.12-12.79,16.64,16.64,0,0,1,.59-8.17c.94-2.32,2.94-3.78,4.9-3,2.3,1,3.8,4.65,3.94,8a21,21,0,0,1-1.63,9.29c-1,2.24-.65,5.42-1.43,8"/>
      <path class="bccb206a-583c-49d0-bf49-f37111496eda" d="M241.55,268.1a16,16,0,0,0,9-3.22,9.68,9.68,0,0,0,3.54-4.45,3.73,3.73,0,0,0-1.4-4.52c-1.77-.95-4.38,0-6,1.55a12.67,12.67,0,0,0-3.47,5.66c-.49,1.74-2.2,3.1-3,4.88"/>
      <path class="bccb206a-583c-49d0-bf49-f37111496eda" d="M232.91,289.41a32.9,32.9,0,0,0,8.3-7.49,19.55,19.55,0,0,0,3.39-5.71c.57-1.81.24-3.28-1.1-3.19-1.57.1-4,2.26-5.55,4.49a23.76,23.76,0,0,0-3.37,6.72c-.51,1.77-2.12,3.85-2.9,5.8"/>
      <path class="bccb206a-583c-49d0-bf49-f37111496eda" d="M203.15,293.91a41.82,41.82,0,0,1-6.78-13.5,24.93,24.93,0,0,1-1.27-8.88c.26-2.58,1.53-4.29,3.26-3.54,2,.89,4,4.79,4.81,8.38a30.11,30.11,0,0,1,.69,10.16c-.32,2.49.64,5.91.57,8.75"/>
      <path class="bccb206a-583c-49d0-bf49-f37111496eda" d="M212.54,320.61a49.4,49.4,0,0,0,15.7-6.83,29.24,29.24,0,0,0,7.66-6.68c1.71-2.38,1.91-4.71-.09-5.26-2.35-.64-6.9,1.32-10.26,3.82a35.44,35.44,0,0,0-8.12,8.19c-1.59,2.34-4.93,4.59-7,7.06"/>
    </g>
    <rect class="b336f123-6000-462f-9fba-cdab45cac155" x="124.31" y="481.42" width="26.75" height="26.75" rx="3.73"/>
    <rect class="b336f123-6000-462f-9fba-cdab45cac155" x="165.17" y="479.59" width="26.75" height="26.75" rx="3.73" transform="translate(357.09 985.94) rotate(180)"/>
  </g>
  <g>
    <line class="fa9ec2c9-27af-4921-9880-2e7d1855ab17" x1="405.5" y1="284.73" x2="431.59" y2="289.09"/>
    <g>
      <path class="a621915f-1014-417d-9e45-3b0b7d8b2889" d="M411.7,222.3l-2.84,17a14.9,14.9,0,0,0,12.23,17.14l4,.68a14.93,14.93,0,0,0,17.15-12.23l2.85-17Z"/>
      <line class="fa9ec2c9-27af-4921-9880-2e7d1855ab17" x1="424.17" y1="250.43" x2="418.08" y2="286.83"/>
      <path class="aad1e575-03f8-4e70-8b47-d3909e673443" d="M412.94,233.12l-1.09,6.5a12.27,12.27,0,0,0,10.06,14.1l3.32.55a12.26,12.26,0,0,0,14.1-10.06l1.08-6.49Z"/>
    </g>
  </g>
  <g>
    <line class="fa9ec2c9-27af-4921-9880-2e7d1855ab17" x1="267.42" y1="297.33" x2="293.87" y2="297.33"/>
    <g>
      <path class="a621915f-1014-417d-9e45-3b0b7d8b2889" d="M263.24,234.73V252a14.91,14.91,0,0,0,14.89,14.89h4.08A14.91,14.91,0,0,0,297.1,252V234.73Z"/>
      <line class="fa9ec2c9-27af-4921-9880-2e7d1855ab17" x1="280.17" y1="260.42" x2="280.17" y2="297.33"/>
      <path class="aad1e575-03f8-4e70-8b47-d3909e673443" d="M266.24,245.2v6.59A12.26,12.26,0,0,0,278.49,264h3.36a12.26,12.26,0,0,0,12.25-12.24V245.2Z"/>
    </g>
  </g>
</svg>
