<svg id="a3c9776f-73f0-4187-9d58-70a966909cb7" data-name="Layer 1" xmlns="http://www.w3.org/2000/svg" xmlns:xlink="http://www.w3.org/1999/xlink" viewBox="0 0 466.18 826.04">
  <defs>
    <style>
      .a00c0ca6-ff46-435e-9388-b8a681eda386, .a01323b1-038d-47b5-aa00-5dac4d0a8bf5, .a05d6b9c-ec80-42aa-8a59-decc894970d2, .a32d87ca-9e69-4d09-94cc-a34f0b5f72ec, .a535f2bc-f67b-4d0f-9b7d-5037ab0f0e45, .ad047ddf-e115-4f42-bcaa-5ede7ccf0400, .af6919ec-f4a0-4194-82f6-fc3e59cc3a45, .b37dfe3e-2339-4c8f-9f92-bdf283e6ea3e, .b47b85f4-1021-4029-95cf-7478b2b5f558, .be387ed4-14b8-417d-a3cc-a3e09838882a, .e73fd644-236f-4267-be58-636cfc34e6f4, .ec3ee849-5c87-480e-afcf-95f17b5a58c0, .efa0f188-5a26-44da-ba8e-563ef0f2cfa3, .f1e89902-b7e3-4843-bf78-a0513e1d2926, .f7fb44dd-ad8a-43be-82b6-98b0e8a58583, .f9f042f8-ce1d-431b-b441-0f0e117130b4 {
        fill: none;
      }

      .e60f8eb4-a39a-4391-9e02-177921522485, .fc39c8a4-052b-42b8-980f-d5f6ad2c5125 {
        fill: #ede8db;
      }

      .b898cf32-fb3f-4d3a-8159-fa3a37c19b05, .bba57011-53d1-40c3-8fed-afb4017d0d79 {
        fill: #3c5743;
      }

      .a163d876-ce82-4f02-a688-479309578d02 {
        fill: #aeaaa1;
      }

      .a89c9f2d-b171-404b-ab26-c60d39fe7402, .aa160653-0c83-452c-beb3-048cb75d59d1, .b9fcffed-eade-4bda-a43d-7e6f31279c27 {
        fill: #d5a555;
      }

      .bd078188-ebf6-4488-80c5-aab6a2f4fd1a {
        fill: #062837;
      }

      .ae4ff994-92e4-49ff-9961-b7efdab13675, .e014278b-f876-49cf-965b-c7b2a40f37b0, .fae0123a-a210-4162-b196-3e67be343764 {
        fill: #77a9a2;
      }

      .f0bc8c41-edf1-490f-88d2-a7727cd70e1d {
        fill: #5e5341;
        opacity: 0.27;
      }

      .a00c0ca6-ff46-435e-9388-b8a681eda386, .a01323b1-038d-47b5-aa00-5dac4d0a8bf5, .a32d87ca-9e69-4d09-94cc-a34f0b5f72ec, .e60f8eb4-a39a-4391-9e02-177921522485, .ec3ee849-5c87-480e-afcf-95f17b5a58c0, .f1e89902-b7e3-4843-bf78-a0513e1d2926 {
        stroke: #ede8db;
      }

      .a00c0ca6-ff46-435e-9388-b8a681eda386, .a01323b1-038d-47b5-aa00-5dac4d0a8bf5, .a05d6b9c-ec80-42aa-8a59-decc894970d2, .a32d87ca-9e69-4d09-94cc-a34f0b5f72ec, .a535f2bc-f67b-4d0f-9b7d-5037ab0f0e45, .aa160653-0c83-452c-beb3-048cb75d59d1, .aa358ec2-a899-431f-8bb9-5af5ba146beb, .ad047ddf-e115-4f42-bcaa-5ede7ccf0400, .ae4ff994-92e4-49ff-9961-b7efdab13675, .b04ade51-7527-4cf8-8c63-5e2d5ff2eebc, .b37dfe3e-2339-4c8f-9f92-bdf283e6ea3e, .b47b85f4-1021-4029-95cf-7478b2b5f558, .b61e5bf4-1940-4ed5-aa1f-0d5da835b10a, .b9fcffed-eade-4bda-a43d-7e6f31279c27, .be387ed4-14b8-417d-a3cc-a3e09838882a, .e60f8eb4-a39a-4391-9e02-177921522485, .e73fd644-236f-4267-be58-636cfc34e6f4, .ec3ee849-5c87-480e-afcf-95f17b5a58c0, .efa0f188-5a26-44da-ba8e-563ef0f2cfa3, .f1e89902-b7e3-4843-bf78-a0513e1d2926, .f9f042f8-ce1d-431b-b441-0f0e117130b4 {
        stroke-linecap: round;
      }

      .a05d6b9c-ec80-42aa-8a59-decc894970d2, .a535f2bc-f67b-4d0f-9b7d-5037ab0f0e45, .aa160653-0c83-452c-beb3-048cb75d59d1, .aa358ec2-a899-431f-8bb9-5af5ba146beb, .ad047ddf-e115-4f42-bcaa-5ede7ccf0400, .ae4ff994-92e4-49ff-9961-b7efdab13675, .af6919ec-f4a0-4194-82f6-fc3e59cc3a45, .b04ade51-7527-4cf8-8c63-5e2d5ff2eebc, .b47b85f4-1021-4029-95cf-7478b2b5f558, .b61e5bf4-1940-4ed5-aa1f-0d5da835b10a, .b9fcffed-eade-4bda-a43d-7e6f31279c27, .be387ed4-14b8-417d-a3cc-a3e09838882a, .e60f8eb4-a39a-4391-9e02-177921522485, .e73fd644-236f-4267-be58-636cfc34e6f4, .ec3ee849-5c87-480e-afcf-95f17b5a58c0, .f1e89902-b7e3-4843-bf78-a0513e1d2926, .f9f042f8-ce1d-431b-b441-0f0e117130b4 {
        stroke-linejoin: round;
      }

      .f1e89902-b7e3-4843-bf78-a0513e1d2926 {
        stroke-width: 5.17px;
      }

      .a00c0ca6-ff46-435e-9388-b8a681eda386, .a01323b1-038d-47b5-aa00-5dac4d0a8bf5, .a32d87ca-9e69-4d09-94cc-a34f0b5f72ec, .b37dfe3e-2339-4c8f-9f92-bdf283e6ea3e, .efa0f188-5a26-44da-ba8e-563ef0f2cfa3 {
        stroke-miterlimit: 10;
      }

      .a01323b1-038d-47b5-aa00-5dac4d0a8bf5 {
        stroke-width: 3.88px;
      }

      .a02af2fb-0c89-41c1-9db7-1cd6ac9de4e3, .aa358ec2-a899-431f-8bb9-5af5ba146beb, .b04ade51-7527-4cf8-8c63-5e2d5ff2eebc, .b458e6b0-ff20-4e78-85d6-9b8a40bfdcdb, .bd75830c-0e2b-4afd-91c1-25fb52f8a1d3 {
        fill: #ea5736;
      }

      .b94e5336-b9d3-425a-bce4-5f777e951279 {
        fill: #ddd;
      }

      .ff2ccb23-f82c-4238-95e8-b4c2ef2ba0c7 {
        fill: #6b3c2b;
      }

      .a32d87ca-9e69-4d09-94cc-a34f0b5f72ec {
        stroke-width: 8.23px;
      }

      .a00c0ca6-ff46-435e-9388-b8a681eda386 {
        stroke-width: 10.8px;
      }

      .be98af71-2f41-49eb-b87c-33ff4bdd8d9a {
        fill: #ccc7bc;
      }

      .b3fdf90a-af9d-42d2-85f0-49c1384813c4 {
        fill: #062838;
      }

      .a32acf30-7c3f-4f8d-b0bf-ad26356f06ff {
        fill: #fff;
      }

      .be387ed4-14b8-417d-a3cc-a3e09838882a {
        stroke: #ccc7bc;
        stroke-width: 0.5px;
      }

      .a02af2fb-0c89-41c1-9db7-1cd6ac9de4e3, .b37dfe3e-2339-4c8f-9f92-bdf283e6ea3e, .b43c81d9-7ca7-4ea1-ab54-f91b046b0edb, .b898cf32-fb3f-4d3a-8159-fa3a37c19b05, .efa0f188-5a26-44da-ba8e-563ef0f2cfa3, .fae0123a-a210-4162-b196-3e67be343764 {
        fill-rule: evenodd;
      }

      .bb41f15f-72c8-4574-85cc-753511c4f9de {
        fill: #1d1d1b;
      }

      .a05d6b9c-ec80-42aa-8a59-decc894970d2, .aa358ec2-a899-431f-8bb9-5af5ba146beb, .ad047ddf-e115-4f42-bcaa-5ede7ccf0400, .b04ade51-7527-4cf8-8c63-5e2d5ff2eebc, .b37dfe3e-2339-4c8f-9f92-bdf283e6ea3e, .e73fd644-236f-4267-be58-636cfc34e6f4, .efa0f188-5a26-44da-ba8e-563ef0f2cfa3 {
        stroke: #ea5736;
      }

      .efa0f188-5a26-44da-ba8e-563ef0f2cfa3 {
        stroke-width: 0.45px;
      }

      .ab0fc358-764f-49c1-a6e3-09ea6fd9030f, .b43c81d9-7ca7-4ea1-ab54-f91b046b0edb {
        fill: #002838;
      }

      .b47b85f4-1021-4029-95cf-7478b2b5f558 {
        stroke: #4d4d4c;
        stroke-width: 1.15px;
      }

      .ad047ddf-e115-4f42-bcaa-5ede7ccf0400 {
        stroke-width: 4.03px;
      }

      .aa160653-0c83-452c-beb3-048cb75d59d1, .b9fcffed-eade-4bda-a43d-7e6f31279c27 {
        stroke: #d5a555;
      }

      .b9fcffed-eade-4bda-a43d-7e6f31279c27 {
        stroke-width: 2.96px;
      }

      .aa160653-0c83-452c-beb3-048cb75d59d1, .b04ade51-7527-4cf8-8c63-5e2d5ff2eebc, .b61e5bf4-1940-4ed5-aa1f-0d5da835b10a {
        stroke-width: 1.48px;
      }

      .b61e5bf4-1940-4ed5-aa1f-0d5da835b10a {
        fill: #867f72;
        stroke: #867f72;
      }

      .a535f2bc-f67b-4d0f-9b7d-5037ab0f0e45, .aa358ec2-a899-431f-8bb9-5af5ba146beb, .ae4ff994-92e4-49ff-9961-b7efdab13675, .e60f8eb4-a39a-4391-9e02-177921522485 {
        stroke-width: 0.99px;
      }

      .a535f2bc-f67b-4d0f-9b7d-5037ab0f0e45, .ae4ff994-92e4-49ff-9961-b7efdab13675 {
        stroke: #77a9a2;
      }

      .b37dfe3e-2339-4c8f-9f92-bdf283e6ea3e {
        stroke-width: 0.41px;
      }

      .a6a8a57e-2f3b-4397-8820-1fab36e5351b {
        opacity: 0.8;
      }

      .bd7d33c4-cad9-4f6a-a638-ef1df17e8ceb {
        fill: #feefe9;
      }

      .f2e6c974-aa51-49d9-96f3-36369b94b87d {
        fill: #fde7dc;
      }

      .a0cf499f-4b84-48d0-96da-5e24dbd113af {
        fill: #fde5d9;
      }

      .bd50d667-2fc3-4559-b99a-d98e49a66b6f {
        fill: #fef1ea;
      }

      .f9135b71-6aed-4d28-9494-05daabe26b6f {
        fill: #fcdacb;
      }

      .b97e855c-d470-4627-9f1e-36d212aea7cd {
        fill: #fbd7c7;
      }

      .ef9463ec-95eb-482b-a930-960b41faf76c {
        fill: #4e4d4c;
      }

      .b458e6b0-ff20-4e78-85d6-9b8a40bfdcdb {
        opacity: 0.51;
      }

      .e73fd644-236f-4267-be58-636cfc34e6f4 {
        stroke-width: 9.85px;
      }

      .a05d6b9c-ec80-42aa-8a59-decc894970d2 {
        stroke-width: 4.92px;
      }

      .f9f042f8-ce1d-431b-b441-0f0e117130b4 {
        stroke: #30383b;
      }

      .ec3ee849-5c87-480e-afcf-95f17b5a58c0, .f9f042f8-ce1d-431b-b441-0f0e117130b4 {
        stroke-width: 1.64px;
      }

      .ab2860ef-5cec-43e4-b7da-6ea6fbbdfc98 {
        clip-path: url(#becbc152-e308-4281-877a-45af0daaf64b);
      }

      .a81d14b0-0f3e-4d50-acb4-b0cb4ad503b5 {
        fill: #2e2d2c;
      }

      .af6919ec-f4a0-4194-82f6-fc3e59cc3a45 {
        stroke: #062837;
        stroke-width: 10.11px;
      }
    </style>
    <clipPath id="becbc152-e308-4281-877a-45af0daaf64b">
      <rect class="f7fb44dd-ad8a-43be-82b6-98b0e8a58583" x="213.7" y="454.95" width="5.14" height="2.77" rx="0.78" transform="translate(-17.72 8.83) rotate(-2.25)"/>
    </clipPath>
  </defs>
  <title>screen-6</title>
  <rect class="fc39c8a4-052b-42b8-980f-d5f6ad2c5125" y="-1703.17" width="465.11" height="2577.43"/>
  <rect class="bba57011-53d1-40c3-8fed-afb4017d0d79" x="91" y="138.87" width="359.84" height="303.05"/>
  <polygon class="bba57011-53d1-40c3-8fed-afb4017d0d79" points="407.73 340.68 465.96 226.22 466.75 827.72 211.38 827.72 407.73 340.68"/>
  <path class="a163d876-ce82-4f02-a688-479309578d02" d="M313.21,840.74C422,609.94,500,352.41,517.54,96.25l-81.91,1.22c-21.05,255.9-162.88,512.47-277.38,741.91Z"/>
  <rect class="a89c9f2d-b171-404b-ab26-c60d39fe7402" y="218.7" width="196.54" height="454.03"/>
  <polygon class="bd078188-ebf6-4488-80c5-aab6a2f4fd1a" points="0 218.56 207.31 218.93 0.73 37.34 0 218.56"/>
  <g>
    <rect class="e014278b-f876-49cf-965b-c7b2a40f37b0" x="59.28" y="363.52" width="99.36" height="103.59"/>
    <g>
      <circle class="f7fb44dd-ad8a-43be-82b6-98b0e8a58583" cx="132.04" cy="389.9" r="1.33"/>
      <path class="f7fb44dd-ad8a-43be-82b6-98b0e8a58583" d="M110,415.4a.92.92,0,1,0,.92.91A.91.91,0,0,0,110,415.4Z"/>
      <path class="f7fb44dd-ad8a-43be-82b6-98b0e8a58583" d="M77.68,372.77a.92.92,0,1,0,0,1.83.92.92,0,0,0,0-1.83Z"/>
      <path class="f7fb44dd-ad8a-43be-82b6-98b0e8a58583" d="M85.65,435.85a.92.92,0,1,0,.91.92A.92.92,0,0,0,85.65,435.85Z"/>
      <circle class="f7fb44dd-ad8a-43be-82b6-98b0e8a58583" cx="140.6" cy="447.85" r="0.91"/>
      <path class="f0bc8c41-edf1-490f-88d2-a7727cd70e1d" d="M60,364.46V468.05h99.36V364.46ZM77.68,374.6a.92.92,0,1,1,.91-.91A.92.92,0,0,1,77.68,374.6Zm8,63.08a.92.92,0,1,1,.91-.91A.92.92,0,0,1,85.65,437.68Zm1-41.47-.91-.91L90.08,391l.91.91Zm9.6,54.9-1.12-.63,2.8-5,1.12.63ZM110,417.23a.92.92,0,1,1,.92-.92A.92.92,0,0,1,110,417.23Zm22.07-26a1.33,1.33,0,1,1,1.33-1.33A1.32,1.32,0,0,1,132,391.23Zm8.56,57.54a.92.92,0,1,1,.91-.92A.92.92,0,0,1,140.6,448.77Zm10-50-2.15-7.3,1.24-.37,2.15,7.3Z"/>
    </g>
    <rect class="f1e89902-b7e3-4843-bf78-a0513e1d2926" x="59.28" y="363.52" width="99.36" height="103.59"/>
    <line class="a01323b1-038d-47b5-aa00-5dac4d0a8bf5" x1="59.28" y1="415.32" x2="158.64" y2="415.32"/>
    <line class="a01323b1-038d-47b5-aa00-5dac4d0a8bf5" x1="108.96" y1="363.52" x2="108.96" y2="467.12"/>
  </g>
  <rect class="bd75830c-0e2b-4afd-91c1-25fb52f8a1d3" y="438.88" width="27.12" height="233.85"/>
  <rect class="b94e5336-b9d3-425a-bce4-5f777e951279" width="466.18" height="98.36"/>
  <g>
    <rect class="e014278b-f876-49cf-965b-c7b2a40f37b0" x="58.95" y="239.9" width="99.36" height="103.59"/>
    <g>
      <circle class="f7fb44dd-ad8a-43be-82b6-98b0e8a58583" cx="131.7" cy="266.27" r="1.33"/>
      <path class="f7fb44dd-ad8a-43be-82b6-98b0e8a58583" d="M109.64,291.77a.92.92,0,1,0,.91.92A.92.92,0,0,0,109.64,291.77Z"/>
      <path class="f7fb44dd-ad8a-43be-82b6-98b0e8a58583" d="M77.35,249.14a.92.92,0,1,0,0,1.83.92.92,0,0,0,0-1.83Z"/>
      <path class="f7fb44dd-ad8a-43be-82b6-98b0e8a58583" d="M85.31,312.22a.92.92,0,1,0,.92.92A.92.92,0,0,0,85.31,312.22Z"/>
      <circle class="f7fb44dd-ad8a-43be-82b6-98b0e8a58583" cx="140.26" cy="324.22" r="0.91"/>
      <path class="f0bc8c41-edf1-490f-88d2-a7727cd70e1d" d="M59.62,240.83v103.6H159V240.83ZM77.35,251a.92.92,0,1,1,.91-.91A.91.91,0,0,1,77.35,251Zm8,63.08a.92.92,0,1,1,.92-.91A.91.91,0,0,1,85.31,314.05Zm1-41.47-.91-.91,4.33-4.33.92.91Zm9.61,54.9-1.13-.63,2.8-5,1.13.63Zm13.71-33.88a.92.92,0,1,1,.91-.91A.92.92,0,0,1,109.64,293.6Zm22.06-26a1.34,1.34,0,1,1,1.33-1.34A1.34,1.34,0,0,1,131.7,267.61Zm8.56,57.53a.92.92,0,1,1,.92-.92A.92.92,0,0,1,140.26,325.14Zm10-50.05-2.15-7.3,1.23-.37,2.16,7.31Z"/>
    </g>
    <rect class="f1e89902-b7e3-4843-bf78-a0513e1d2926" x="58.95" y="239.9" width="99.36" height="103.59"/>
    <line class="a01323b1-038d-47b5-aa00-5dac4d0a8bf5" x1="58.95" y1="291.69" x2="158.31" y2="291.69"/>
    <line class="a01323b1-038d-47b5-aa00-5dac4d0a8bf5" x1="108.63" y1="239.9" x2="108.63" y2="343.49"/>
  </g>
  <g>
    <rect class="ff2ccb23-f82c-4238-95e8-b4c2ef2ba0c7" x="403.15" y="778.92" width="13.08" height="5.86" rx="2.93"/>
    <rect class="ff2ccb23-f82c-4238-95e8-b4c2ef2ba0c7" x="406.76" y="774.92" width="5.86" height="5.86" rx="2.93"/>
    <rect class="fc39c8a4-052b-42b8-980f-d5f6ad2c5125" x="346.5" y="773.21" width="12.34" height="8.57" rx="4.28"/>
    <rect class="fc39c8a4-052b-42b8-980f-d5f6ad2c5125" x="386.34" y="775.89" width="13.63" height="9.47" rx="4.28"/>
    <g>
      <g>
        <path class="f7fb44dd-ad8a-43be-82b6-98b0e8a58583" d="M361.68,770.12l7.59,2.94"/>
        <path class="fc39c8a4-052b-42b8-980f-d5f6ad2c5125" d="M403,771.48a42.16,42.16,0,0,0-3.73-32.77,45.16,45.16,0,0,0-59.91-17.89,42.14,42.14,0,0,0-21.09,25.36l42.36,12.65Z"/>
        <path class="fc39c8a4-052b-42b8-980f-d5f6ad2c5125" d="M403,771.44c1.36-4.58-9.38-11.83-24-16.2s-39.5-6.35-37.81-2.26c1.27,3.07,18.24,14.49,32.86,18.85S401.67,776,403,771.44Z"/>
        <ellipse class="fc39c8a4-052b-42b8-980f-d5f6ad2c5125" cx="331.79" cy="738.04" rx="19.04" ry="15.89" transform="matrix(0.29, -0.96, 0.96, 0.29, -470.34, 844.76)"/>
        <line class="a32d87ca-9e69-4d09-94cc-a34f0b5f72ec" x1="354.66" y1="750.39" x2="354.66" y2="777.32"/>
        <line class="a00c0ca6-ff46-435e-9388-b8a681eda386" x1="394.5" y1="754.17" x2="394.5" y2="779.99"/>
        <ellipse class="be98af71-2f41-49eb-b87c-33ff4bdd8d9a" cx="319.74" cy="728.79" rx="11.81" ry="5.13" transform="translate(-439.2 489.24) rotate(-48.79)"/>
        <ellipse class="be98af71-2f41-49eb-b87c-33ff4bdd8d9a" cx="343.01" cy="730.49" rx="5.13" ry="11.81" transform="translate(-273.63 209.89) rotate(-24.67)"/>
        <ellipse class="b3fdf90a-af9d-42d2-85f0-49c1384813c4" cx="329.42" cy="754.53" rx="6.75" ry="4.15"/>
        <rect class="a32acf30-7c3f-4f8d-b0bf-ad26356f06ff" x="318.02" y="736.3" width="9.3" height="3.42" rx="1.71"/>
        <rect class="a32acf30-7c3f-4f8d-b0bf-ad26356f06ff" x="330.37" y="736.3" width="9.3" height="3.42" rx="1.71"/>
        <circle class="b3fdf90a-af9d-42d2-85f0-49c1384813c4" cx="322.67" cy="738.01" r="1.42"/>
        <circle class="b3fdf90a-af9d-42d2-85f0-49c1384813c4" cx="335.02" cy="738.01" r="1.42"/>
        <path class="a32d87ca-9e69-4d09-94cc-a34f0b5f72ec" d="M401.32,762.45a37.5,37.5,0,0,0,18.94-4.75,59.69,59.69,0,0,0,15.34-12.3"/>
      </g>
      <path class="be387ed4-14b8-417d-a3cc-a3e09838882a" d="M315.43,750.51a13.84,13.84,0,0,1,10.79-.22"/>
      <path class="be387ed4-14b8-417d-a3cc-a3e09838882a" d="M344.46,751a13.84,13.84,0,0,0-10.79-.22"/>
      <path class="be387ed4-14b8-417d-a3cc-a3e09838882a" d="M324.38,751.16a13.89,13.89,0,0,0-10.49,2.57"/>
      <path class="be387ed4-14b8-417d-a3cc-a3e09838882a" d="M335.42,751.63a13.84,13.84,0,0,1,10.49,2.57"/>
      <path class="be387ed4-14b8-417d-a3cc-a3e09838882a" d="M323.32,752a13.89,13.89,0,0,0-9.86,4.41"/>
      <path class="be387ed4-14b8-417d-a3cc-a3e09838882a" d="M336.16,752.83a13.82,13.82,0,0,1,10,4.12"/>
    </g>
  </g>
  <g>
    <path class="a32acf30-7c3f-4f8d-b0bf-ad26356f06ff" d="M140.14,162.06a17.26,17.26,0,0,1,1.45-2.88,4.33,4.33,0,0,0,.56-3.1A4.21,4.21,0,0,0,140.5,154c-2.13-1.6-5.35-2.25-7.38-.52s-1.91,4.54-1.41,7,1.39,4.94.79,7.35S130,172,128.55,174a15.87,15.87,0,0,0-2.43,5.4,27.62,27.62,0,0,0-.54,6.73c0,3.45.33,7.15,2.49,9.84,2.57,3.18,7.08,4.07,11.17,3.86a16.6,16.6,0,0,0,7.18-1.82,9,9,0,0,0,4.54-5.66,11.1,11.1,0,0,0,.06-3.9,31.59,31.59,0,0,0-5.78-13.82c-1.57-2.24-3.37-4.36-4.44-6.88s-1.29-5.6.26-7.86"/>
    <path class="a02af2fb-0c89-41c1-9db7-1cd6ac9de4e3" d="M141.18,157.76c3.09-.22,6.73-.25,8.68,1.84l-9.09-.12,0-1.57"/>
    <circle class="bb41f15f-72c8-4574-85cc-753511c4f9de" cx="139.22" cy="156.35" r="0.85"/>
    <path class="efa0f188-5a26-44da-ba8e-563ef0f2cfa3" d="M135.14,198.59a121.94,121.94,0,0,0,.46,16.77"/>
    <path class="efa0f188-5a26-44da-ba8e-563ef0f2cfa3" d="M141.49,198.59a121.94,121.94,0,0,1-.46,16.77"/>
    <path class="a02af2fb-0c89-41c1-9db7-1cd6ac9de4e3" d="M133.35,218.05a1.64,1.64,0,0,1,1.21-.17,1.66,1.66,0,0,1,1,.71,1.16,1.16,0,0,1,.52-.71,1,1,0,0,1,.39-.08,4.79,4.79,0,0,1,1,0c-.16,0-.45-.42-.55-.54a5.26,5.26,0,0,1-.49-.65c-.3-.45-.52-.95-.8-1.41a12.64,12.64,0,0,0-1.09,1.33Z"/>
    <path class="a02af2fb-0c89-41c1-9db7-1cd6ac9de4e3" d="M138.85,217.89a1.65,1.65,0,0,1,2.21.55,1.15,1.15,0,0,1,.52-.72,1,1,0,0,1,.38-.08,5.54,5.54,0,0,1,1,.05c-.16,0-.45-.42-.55-.53a7.24,7.24,0,0,1-.48-.65c-.3-.46-.52-1-.81-1.42a12.91,12.91,0,0,0-1.08,1.34Z"/>
  </g>
  <path class="f7fb44dd-ad8a-43be-82b6-98b0e8a58583" d="M123.39,615.21l.71,34.6"/>
  <path class="b898cf32-fb3f-4d3a-8159-fa3a37c19b05" d="M113.86,659.45c0-.46.07-.92.07-1.39A14.61,14.61,0,0,0,89.1,647.63a8.06,8.06,0,0,0-12.45,6.76,7.8,7.8,0,0,0,.31,2.17,11.91,11.91,0,0,0-7.36,16.17h50.61a9.74,9.74,0,0,0-6.35-13.28Z"/>
  <path class="fae0123a-a210-4162-b196-3e67be343764" d="M74.54,661.88c0-.45.07-.91.07-1.38a14.6,14.6,0,0,0-24.83-10.43,8,8,0,0,0-4.39-1.31,8.06,8.06,0,0,0-8.06,8.06,8.26,8.26,0,0,0,.31,2.18,11.91,11.91,0,0,0-7.36,16.17H80.89a9.75,9.75,0,0,0-6.35-13.29Z"/>
  <path class="fae0123a-a210-4162-b196-3e67be343764" d="M160.23,659.45a12.81,12.81,0,0,0,.07-1.39,14.61,14.61,0,0,0-24.83-10.43A8.06,8.06,0,0,0,123,654.39a8.18,8.18,0,0,0,.31,2.17A11.91,11.91,0,0,0,116,672.73h50.61a9.74,9.74,0,0,0-6.35-13.28Z"/>
  <path class="b898cf32-fb3f-4d3a-8159-fa3a37c19b05" d="M193.09,661.88c0-.45.07-.91.07-1.38a14.6,14.6,0,0,0-24.83-10.43,8,8,0,0,0-4.39-1.31,8.06,8.06,0,0,0-8.06,8.06,7.87,7.87,0,0,0,.31,2.18,11.88,11.88,0,0,0-7.36,16.17h50.61a9.75,9.75,0,0,0-6.35-13.29Z"/>
  <rect class="ab0fc358-764f-49c1-a6e3-09ea6fd9030f" x="252.83" y="194.13" width="17.16" height="5.77" rx="2.88"/>
  <g>
    <line class="b47b85f4-1021-4029-95cf-7478b2b5f558" x1="316.68" y1="116.85" x2="316.68" y2="183.3"/>
    <line class="b47b85f4-1021-4029-95cf-7478b2b5f558" x1="330.98" y1="116.85" x2="330.98" y2="183.3"/>
    <line class="b47b85f4-1021-4029-95cf-7478b2b5f558" x1="357.84" y1="116.85" x2="357.84" y2="183.3"/>
    <line class="b47b85f4-1021-4029-95cf-7478b2b5f558" x1="372.14" y1="116.85" x2="372.14" y2="183.3"/>
    <polyline class="ad047ddf-e115-4f42-bcaa-5ede7ccf0400" points="276.76 200.41 294.61 116.85 349.41 116.85"/>
    <polyline class="ad047ddf-e115-4f42-bcaa-5ede7ccf0400" points="413.89 200.41 396.04 116.85 341.24 116.85"/>
    <line class="ad047ddf-e115-4f42-bcaa-5ede7ccf0400" x1="313.7" y1="200.41" x2="295.85" y2="116.85"/>
    <line class="ad047ddf-e115-4f42-bcaa-5ede7ccf0400" x1="377.32" y1="200.41" x2="395.17" y2="116.85"/>
    <rect class="ab0fc358-764f-49c1-a6e3-09ea6fd9030f" x="315.84" y="180" width="15.98" height="5.37" rx="2.69"/>
    <rect class="ab0fc358-764f-49c1-a6e3-09ea6fd9030f" x="357.13" y="180" width="15.98" height="5.37" rx="2.69"/>
  </g>
  <g>
    <line class="b9fcffed-eade-4bda-a43d-7e6f31279c27" x1="254.88" y1="287.05" x2="254.88" y2="313.66"/>
    <line class="b9fcffed-eade-4bda-a43d-7e6f31279c27" x1="232.07" y1="287.05" x2="232.07" y2="313.66"/>
    <line class="b9fcffed-eade-4bda-a43d-7e6f31279c27" x1="229.13" y1="275.57" x2="230.88" y2="285.9"/>
    <rect class="aa160653-0c83-452c-beb3-048cb75d59d1" x="229.46" y="285.9" width="28.19" height="3.02" transform="translate(487.11 574.83) rotate(-180)"/>
    <rect class="aa160653-0c83-452c-beb3-048cb75d59d1" x="218.01" y="264.66" width="18.92" height="3.02" transform="translate(4.23 535.9) rotate(-99.87)"/>
  </g>
  <g>
    <line class="b9fcffed-eade-4bda-a43d-7e6f31279c27" x1="296.7" y1="287.05" x2="296.7" y2="313.66"/>
    <line class="b9fcffed-eade-4bda-a43d-7e6f31279c27" x1="319.51" y1="287.05" x2="319.51" y2="313.66"/>
    <line class="b9fcffed-eade-4bda-a43d-7e6f31279c27" x1="322.45" y1="275.57" x2="320.69" y2="285.9"/>
    <rect class="aa160653-0c83-452c-beb3-048cb75d59d1" x="293.92" y="285.9" width="28.19" height="3.02"/>
    <rect class="aa160653-0c83-452c-beb3-048cb75d59d1" x="314.64" y="264.66" width="18.92" height="3.02" transform="translate(6.32 539.86) rotate(-80.13)"/>
  </g>
  <rect class="b61e5bf4-1940-4ed5-aa1f-0d5da835b10a" x="244.28" y="271" width="4.1" height="43.52"/>
  <rect class="b61e5bf4-1940-4ed5-aa1f-0d5da835b10a" x="302.82" y="271" width="4.1" height="43.52"/>
  <line class="b9fcffed-eade-4bda-a43d-7e6f31279c27" x1="274.97" y1="201.72" x2="274.97" y2="314.52"/>
  <g>
    <path class="b04ade51-7527-4cf8-8c63-5e2d5ff2eebc" d="M227.72,224.35h94.5c-5-18.85-24.27-32.88-47.25-32.88S232.76,205.5,227.72,224.35Z"/>
    <path class="fc39c8a4-052b-42b8-980f-d5f6ad2c5125" d="M275,190.8S265.7,211,265.7,225H275Z"/>
    <path class="fc39c8a4-052b-42b8-980f-d5f6ad2c5125" d="M275,190.8S284.24,211,284.24,225H275Z"/>
    <path class="fc39c8a4-052b-42b8-980f-d5f6ad2c5125" d="M275,190.8s-23,15-23,34.21H238.57S241.77,201.68,275,190.8Z"/>
    <path class="fc39c8a4-052b-42b8-980f-d5f6ad2c5125" d="M275,190.8s23,15,23,34.21h13.37S308.18,201.68,275,190.8Z"/>
  </g>
  <rect class="aa160653-0c83-452c-beb3-048cb75d59d1" x="240.44" y="267.97" width="69.07" height="6.05"/>
  <rect class="e60f8eb4-a39a-4391-9e02-177921522485" x="297.35" y="256.34" width="5.9" height="10.66"/>
  <rect class="aa358ec2-a899-431f-8bb9-5af5ba146beb" x="298.14" y="258.2" width="4.32" height="7.66"/>
  <rect class="e60f8eb4-a39a-4391-9e02-177921522485" x="246.8" y="256.34" width="5.9" height="10.66"/>
  <rect class="aa358ec2-a899-431f-8bb9-5af5ba146beb" x="247.59" y="260.09" width="4.32" height="5.77"/>
  <rect class="ae4ff994-92e4-49ff-9961-b7efdab13675" x="283.74" y="249.83" width="8.68" height="17.17"/>
  <polyline class="a535f2bc-f67b-4d0f-9b7d-5037ab0f0e45" points="284.24 251.12 280.17 251.12 280.17 257.49 283.85 261.17"/>
  <polyline class="ae4ff994-92e4-49ff-9961-b7efdab13675" points="291.8 249.83 295.26 249.83 292.2 252.89"/>
  <rect class="aa358ec2-a899-431f-8bb9-5af5ba146beb" x="284.64" y="259.81" width="6.88" height="6.05"/>
  <g>
    <path class="a32acf30-7c3f-4f8d-b0bf-ad26356f06ff" d="M179.8,166.87a17,17,0,0,0-1.32-2.63,3.23,3.23,0,0,1,1-4.73c1.95-1.46,4.88-2,6.73-.47s1.75,4.14,1.29,6.37-1.27,4.5-.72,6.71,2.31,3.82,3.61,5.68a14.57,14.57,0,0,1,2.21,4.92,25.35,25.35,0,0,1,.49,6.15c0,3.14-.3,6.51-2.27,9-2.34,2.91-6.46,3.71-10.19,3.52a15,15,0,0,1-6.56-1.66,8.21,8.21,0,0,1-4.14-5.16,10.38,10.38,0,0,1,0-3.56,28.79,28.79,0,0,1,5.27-12.6,35.19,35.19,0,0,0,4.05-6.28c1-2.3,1.18-5.12-.23-7.18"/>
    <path class="a02af2fb-0c89-41c1-9db7-1cd6ac9de4e3" d="M178.85,163c-2.82-.2-6.14-.23-7.92,1.68l8.29-.12,0-1.43"/>
    <circle class="bb41f15f-72c8-4574-85cc-753511c4f9de" cx="180.64" cy="161.66" r="0.78"/>
    <path class="b37dfe3e-2339-4c8f-9f92-bdf283e6ea3e" d="M184.36,200.19a111.79,111.79,0,0,1-.42,15.31"/>
    <path class="b37dfe3e-2339-4c8f-9f92-bdf283e6ea3e" d="M178.57,200.19A110.21,110.21,0,0,0,179,215.5"/>
    <path class="a02af2fb-0c89-41c1-9db7-1cd6ac9de4e3" d="M186,217.94a1.51,1.51,0,0,0-1.1-.15,1.49,1.49,0,0,0-.9.65,1.12,1.12,0,0,0-.48-.65,1,1,0,0,0-.35-.07,4.59,4.59,0,0,0-.91,0c.14,0,.4-.38.5-.49a4.31,4.31,0,0,0,.44-.59c.27-.41.47-.87.73-1.29a11.71,11.71,0,0,1,1,1.22Z"/>
    <path class="a02af2fb-0c89-41c1-9db7-1cd6ac9de4e3" d="M181,217.8a1.46,1.46,0,0,0-1.1-.15,1.54,1.54,0,0,0-.91.65,1.11,1.11,0,0,0-.47-.66.88.88,0,0,0-.36-.06,4.63,4.63,0,0,0-.91,0c.15,0,.41-.38.5-.49a6.14,6.14,0,0,0,.45-.59c.27-.42.47-.87.73-1.29a11.71,11.71,0,0,1,1,1.22Z"/>
  </g>
  <g class="a6a8a57e-2f3b-4397-8820-1fab36e5351b">
    <g class="a6a8a57e-2f3b-4397-8820-1fab36e5351b">
      <path class="bd7d33c4-cad9-4f6a-a638-ef1df17e8ceb" d="M122.35,488.53a25.27,25.27,0,0,1,7.3,6.76,27.6,27.6,0,0,1,4.22,8.91,47.63,47.63,0,0,1,.89,18,35,35,0,0,1-.75,3.83c.32-.59.55-1.21.82-1.82a32.31,32.31,0,0,0,.41-23.06,28.25,28.25,0,0,0-6.75-10.31,30.81,30.81,0,0,0-10.09-6.48,31.72,31.72,0,0,0-7-1.68,46.88,46.88,0,0,0-7.09-.33c-4.7.1-9.33.71-14.08,1.07A1.1,1.1,0,0,0,89,484.56a19.82,19.82,0,0,1,2.6,1.16,94.51,94.51,0,0,1,11.61-1.14,35,35,0,0,1,11.91,1.64C117.69,487.11,120.91,487.55,122.35,488.53Z"/>
      <path class="f2e6c974-aa51-49d9-96f3-36369b94b87d" d="M91.32,485.66l.15.08,1.16-.16Z"/>
      <path class="a0cf499f-4b84-48d0-96da-5e24dbd113af" d="M110.44,484.86a24.21,24.21,0,0,1,7.65,2.21,14.84,14.84,0,0,1,4.26,1.46,25.27,25.27,0,0,1,7.3,6.76,27.6,27.6,0,0,1,4.22,8.91,47.63,47.63,0,0,1,.89,18A34.23,34.23,0,0,1,134,526c.33-.64.59-1.31.88-2a32.28,32.28,0,0,0,2-15.82c-.08-.29-.15-.59-.24-.86-1-2.93-1.33-5.81-2.66-8.6a33.22,33.22,0,0,0-7.7-9.4,28.8,28.8,0,0,0-10.5-5.65,19.67,19.67,0,0,0-4.54-.72c-1.57-.12-3.18-.17-4.84-.35l-3.31-.27c-4.37.18-8.68.74-13.1,1.07a1.11,1.11,0,0,0-1.17,1.13c.52.18,1,.38,1.44.58,3.57-.2,7.16-.55,10.86-.5a41.62,41.62,0,0,1,9.75.47A4.3,4.3,0,0,0,110.44,484.86Z"/>
      <path class="f2e6c974-aa51-49d9-96f3-36369b94b87d" d="M110.55,486c.44.1,1.11-.28.36-.82a41.62,41.62,0,0,0-9.75-.47A33,33,0,0,1,110.55,486Z"/>
      <path class="bd50d667-2fc3-4559-b99a-d98e49a66b6f" d="M109.62,488.21a43.74,43.74,0,0,1,8.11,2.61,16.55,16.55,0,0,1,6.16,4.52,13.66,13.66,0,0,1,3,6.27,16.42,16.42,0,0,1,1,2,26.26,26.26,0,0,1,2,13.79,24.8,24.8,0,0,1-1.79,6.8,23.92,23.92,0,0,1-3.74,6,72.56,72.56,0,0,1-5.25,5.49,50.44,50.44,0,0,1-5.69,4.83,20.52,20.52,0,0,1-3,1.82c-.52.24-1,.54-1.55.74l-1.61.6a22.93,22.93,0,0,1-6.72,1.09,34.38,34.38,0,0,1-13.39-2.39,34.91,34.91,0,0,1-6.32-3.23c-1-.62-2-1.41-3-2.14s-1.92-1.62-2.8-2.54a21.21,21.21,0,0,1-4.27-7.18,21.51,21.51,0,0,1-1.23-7.78,38.13,38.13,0,0,1,1.91-9.89,98.61,98.61,0,0,1,3.63-9.77c1.41-3.11,3.12-6.05,5.85-8.11a21.64,21.64,0,0,1,10.3-3.78c4.22-.55,4.69-3.25,3.63-3.24a53.67,53.67,0,0,0-10.28,1.59,22.51,22.51,0,0,0-5,2.1,19.31,19.31,0,0,0-4.3,3.4,34.53,34.53,0,0,0-5.69,8.64,62.22,62.22,0,0,0-3.75,9.31A28.85,28.85,0,0,0,64.49,520a26.53,26.53,0,0,0,2.88,10.09,34.52,34.52,0,0,0,6.06,8.4,37.19,37.19,0,0,0,23.29,11.32,14.37,14.37,0,0,0,2,.1c.67,0,1.33,0,2,0a32.17,32.17,0,0,0,3.93-.46,33.43,33.43,0,0,0,3.83-.94c.62-.21,1.23-.47,1.84-.7l.92-.36.88-.44c4.77-2.27,8.56-5.75,12.18-9a65.62,65.62,0,0,0,5.34-5.34,30,30,0,0,0,4.42-6.61,35,35,0,0,0,.75-3.83,47.63,47.63,0,0,0-.89-18,27.6,27.6,0,0,0-4.22-8.91,25.27,25.27,0,0,0-7.3-6.76c-1.44-1-4.66-1.42-7.19-2.31a35,35,0,0,0-11.91-1.64,94.51,94.51,0,0,0-11.61,1.14,49.28,49.28,0,0,0,4.57,2.41C100.76,487.43,105.4,487.09,109.62,488.21Z"/>
      <path class="f9135b71-6aed-4d28-9494-05daabe26b6f" d="M109.62,488.21c-4.22-1.12-8.86-.78-13.41-.08a11.79,11.79,0,0,0,2.61.73c5.53.56,11.05,1.08,16,3a23.1,23.1,0,0,1,12,9.75,13.66,13.66,0,0,0-3-6.27,16.55,16.55,0,0,0-6.16-4.52A43.74,43.74,0,0,0,109.62,488.21Z"/>
      <path class="a0cf499f-4b84-48d0-96da-5e24dbd113af" d="M109.62,488.21c-4-1.06-8.44-.82-12.79-.17,1.49.07,3,.1,4.46.14a41,41,0,0,1,10.93,1.48,22.24,22.24,0,0,1,9.08,5.16,26.06,26.06,0,0,0-9.93-4.87,40.37,40.37,0,0,0-11.6-1c5.37.54,10.7,1.09,15.5,3.06a22.87,22.87,0,0,1,11.6,9.56,13.8,13.8,0,0,0-3-6.25,16.55,16.55,0,0,0-6.16-4.52A43.74,43.74,0,0,0,109.62,488.21Z"/>
      <path class="b97e855c-d470-4627-9f1e-36d212aea7cd" d="M120.81,492.27a28,28,0,0,0-12.44-5.06,49.07,49.07,0,0,0-14,.14c.42.23.84.44,1.29.64l1.17.05c4.35-.65,8.77-.89,12.79.17a43.74,43.74,0,0,1,8.11,2.61,16.55,16.55,0,0,1,6.16,4.52,13.8,13.8,0,0,1,3,6.25,16.76,16.76,0,0,1,.92,1.85,26,26,0,0,1,2.07,14.08,23.3,23.3,0,0,1-5.81,13,49.24,49.24,0,0,1-4.45,5.3,44,44,0,0,1-5.21,4.76,27.38,27.38,0,0,1-2.87,1.9,23.3,23.3,0,0,1-3.06,1.38,20.41,20.41,0,0,1-6.47,1.3,9.77,9.77,0,0,0,1.52-.22c.5-.1,1-.17,1.51-.3a22.43,22.43,0,0,0,2.9-1c.47-.21,1-.38,1.41-.61l1.34-.75a18.93,18.93,0,0,0,2.6-1.73,19.39,19.39,0,0,1-3,1.75c-.51.24-1,.54-1.52.73l-1.57.58a22.65,22.65,0,0,1-6.57,1.08,34.93,34.93,0,0,1-11.41-1.61,4.29,4.29,0,0,1-1.82.14A9.48,9.48,0,0,1,86.2,543c-.44-.15-.91-.34-1.43-.57-3.24-1.53-6-3.76-8.93-6-.34-.39.08-.64-.56-1.41a14.4,14.4,0,0,0,5.69,4.2,36,36,0,0,1-3-2.13c-.48-.39-.94-.82-1.42-1.24s-1-.84-1.41-1.3A21.33,21.33,0,0,1,69.73,523c-.14-.43-.24-.85-.34-1.29a30,30,0,0,1-.78-6.76,22.28,22.28,0,0,0-.3,2.88,12.41,12.41,0,0,1,.38-5c0,.7-.08,1.4-.08,2.09a33.42,33.42,0,0,1,1.93-6.71,20.72,20.72,0,0,0-1.45,8.32,33.72,33.72,0,0,1,5.08-14.9l-.1.4c1.43-3.56,3.05-7,5.82-9.57s6.81-4,11.13-4.59,4.7-3.26,3.63-3.25c-2.34.21-4.74.42-7.16.88a26.3,26.3,0,0,0-7.15,2.35,19.44,19.44,0,0,0-5.93,4.76,32.81,32.81,0,0,0-4,6c-1.11,2.09-2.06,4.18-3,6.33a45.73,45.73,0,0,0-2.22,6.73,28.24,28.24,0,0,0-.8,7.25,25.1,25.1,0,0,0,1.32,7.26,26.47,26.47,0,0,1-.22-6.65,10.89,10.89,0,0,1,.42-2.68,24.46,24.46,0,0,0-.42,2.68,27,27,0,0,0,1.39,8.07,3.68,3.68,0,0,0,1.45,2.44,21.31,21.31,0,0,0,3.07,5.16c1.24,1.65,2.68,3.11,3.86,4.59a4.25,4.25,0,0,1,.55,1c.46.39.91.79,1.38,1.17l1.46,1.08c1,.74,2,1.32,3,2a35.53,35.53,0,0,0,19.13,4.87,30.55,30.55,0,0,0,17.88-7.15,34.51,34.51,0,0,1-3.9,2.29,29,29,0,0,1-4,1.53c-1.84.35-4.43,1.42-7.58,1.95a29.37,29.37,0,0,1-10,.08,5.45,5.45,0,0,1-2-.65c-.59-.29-1.18-.57-1.92-.88,2.9.23,6,.79,9.24.93a23.56,23.56,0,0,0,9.64-1.34l1.49-.62.78-.32.76-.39,1.56-.79c.52-.29,1-.6,1.55-.93a47.88,47.88,0,0,0,6-4.63,67.7,67.7,0,0,0,5.54-5.43,22.43,22.43,0,0,0,4-6.14c1.45-3.49,2.88-6.71,3.89-9.75a12,12,0,0,1-.63,4.36,27.81,27.81,0,0,1-3,6.67,37.81,37.81,0,0,1-4.53,5.67c-1.66,1.73-3.35,3.39-5.09,5a56.54,56.54,0,0,1-5.54,4.65,39.92,39.92,0,0,0,6-4.49c1.85-1.65,3.62-3.32,5.35-5.11a38.41,38.41,0,0,0,4.74-5.93,33.3,33.3,0,0,0,3.33-7.09,25.45,25.45,0,0,1-3.84,8.33c-1.71,2.47-3.64,4.6-5.3,6.85a14.25,14.25,0,0,0,1.24-.79,45.29,45.29,0,0,0,4.11-4.47A29.06,29.06,0,0,0,134,526a34.23,34.23,0,0,0,.74-3.79,47.63,47.63,0,0,0-.89-18,27.6,27.6,0,0,0-4.22-8.91,25.27,25.27,0,0,0-7.3-6.76,14.84,14.84,0,0,0-4.26-1.46,30.17,30.17,0,0,1,9.75,7.48c-1-1.37-2-2.62-2.9-3.87a18.28,18.28,0,0,1,3.78,4.13c1,1.5,1.87,3.07,2.82,4.78a39.86,39.86,0,0,0-3.7-5,29.54,29.54,0,0,1,3.71,6.71c-1.29-2.15-2.36-4.26-3.81-6.21a14.38,14.38,0,0,0-5.54-4.77,19.73,19.73,0,0,1,2.47,2,30.67,30.67,0,0,0-2.53-2l.06,0a23,23,0,0,0-8.67-3.34,23.42,23.42,0,0,1,7,3.49,34.92,34.92,0,0,1,5.68,5.14c.6.62,1.15,1.29,1.69,2-.56-.68-1.11-1.35-1.69-2a31.51,31.51,0,0,0-15.4-8.84c-5.9-1.48-12.13-1.52-18.22-1.15l-1.16.16,1.07.58a63.64,63.64,0,0,1,15.06.37A29.11,29.11,0,0,1,120.81,492.27Z"/>
    </g>
  </g>
  <g class="a6a8a57e-2f3b-4397-8820-1fab36e5351b">
    <g class="a6a8a57e-2f3b-4397-8820-1fab36e5351b">
      <path class="bd7d33c4-cad9-4f6a-a638-ef1df17e8ceb" d="M91.09,497.72c-1.06,0-2,.09-3.25,0s-2.15-.16-3.15-.24l-1.47-.09-1,0a4.47,4.47,0,0,0-1.56.25,1.41,1.41,0,0,0-1,1.28,2.91,2.91,0,0,0,.66,1.57,6.13,6.13,0,0,0,.57.69c.29.31.68.69,1,1,.74.68,1.52,1.33,2.33,1.94,1.63,1.25,3.29,2.3,5.06,3.41a41.3,41.3,0,0,0,5,2.81c1.09.55,2.2,1.07,3.33,1.58l-1.48-1.14c-1.67-1.3-3.35-2.62-5-4l-.62-.51-.71-.57-1.34-1c-.86-.67-1.7-1.33-2.52-2s-1.59-1.34-2.31-2c-.36-.34-.71-.68-1-1l-.11-.11h0v0c0-.08.09-.08.12-.06s0,0,0,0H83c1.23,0,2.59.12,4.19.21.77,0,1.86.06,2.51,0l2.22-.07,4.4-.17c4.54-.27,9.1-1,13.78-1.52s9.47-1,14.48-1.14a1.14,1.14,0,0,0,1.28-1.1,20.15,20.15,0,0,1-2.71-1.32L111,495.64c-2,.19-4.09.38-6.16.54s-4.14.31-6.24.33C95.79,496.5,92.76,497.72,91.09,497.72Z"/>
      <path class="f2e6c974-aa51-49d9-96f3-36369b94b87d" d="M123.49,494.52l-.16-.09-1.23.11Z"/>
      <path class="a0cf499f-4b84-48d0-96da-5e24dbd113af" d="M103.57,496.47a64.52,64.52,0,0,1-8.07.4,29.5,29.5,0,0,1-4.41.85c-1.06,0-2,.09-3.25,0s-2.15-.16-3.15-.24l-1.47-.09-1,0a4.47,4.47,0,0,0-1.56.25,1.41,1.41,0,0,0-1,1.28,2.91,2.91,0,0,0,.66,1.57,6.13,6.13,0,0,0,.57.69c.29.31.68.69,1,1,.74.68,1.52,1.33,2.33,1.94,1.63,1.25,3.29,2.3,5.06,3.41a41.3,41.3,0,0,0,5,2.81c1.08.54,2.18,1.06,3.29,1.56L96,510.71c-2-1.5-3.8-3-5.78-4.62l-3-2.37c-1-.76-1.9-1.52-2.78-2.29l-.64-.4a7.4,7.4,0,0,1-1.48-1.1l-.07-.07,0,0,0-.06a.27.27,0,0,1,0-.12c0-.16.18-.24.24-.28a.12.12,0,0,1,0-.13.18.18,0,0,1,.14-.09l.09,0h.9c.73,0,1.48.07,2.3.14s1.65.14,2.68.17h1.32l1.25,0,2.51,0c1.69,0,3.42-.11,5.22-.22,2.82-.12,5.77-1.16,9.12-1.22,1.14-.06,2.24-.08,3.31-.07,4.38-.51,8.85-.92,13.53-1,1.11,0,1.22-.74,1.27-1.1-.53-.22-1-.44-1.49-.68-3.78,0-7.56.23-11.42.35-3.34.33-6.7.64-10.09.88A3.1,3.1,0,0,0,103.57,496.47Z"/>
      <path class="f2e6c974-aa51-49d9-96f3-36369b94b87d" d="M103.21,495.41c-.48,0-1,.55-.17.9,3.39-.24,6.75-.55,10.09-.88C109.89,495.53,106.6,495.57,103.21,495.41Z"/>
      <path class="bd50d667-2fc3-4559-b99a-d98e49a66b6f" d="M103.66,492.91c-3.3,0-6.52.15-9.6.33-1.54.08-3,.15-4.5.17a14.47,14.47,0,0,1-2-.1c-.68-.08-1.37-.19-2.06-.32l-1.85-.3-1-.13a5,5,0,0,0-.63-.05l-.69,0a11.11,11.11,0,0,0-5.32,1,8.48,8.48,0,0,0-1.73,1.27,6,6,0,0,0-1,4.16c.28,2.22,1.83,4.37,3.66,6.14a37.55,37.55,0,0,0,3.58,3c1.2.89,2.4,1.72,3.58,2.51l1.72,1.15,1.7,1.2c4.7,3.28,9.53,6.25,14.31,9.17l7.14,4.37,3.56,2.2.46.29.23.15.42.3a15.47,15.47,0,0,1,1.29,1l.1.09a1.17,1.17,0,0,1-.27,0h-.57c-.36,0-.68,0-1-.05a3.09,3.09,0,0,0-.63,0l-.33,0-2,.18-7.93.72c-2.64.23-5.3.47-8,.64-1.35.09-2.71.16-4.08.23l-1,0-.58,0c-.38,0-.79.08-1.22.1a19,19,0,0,1-2.68-.19c-.38-.06-.72-.13-1-.2l-.21-.06-.1,0,.16-.1.65-.43a38.11,38.11,0,0,1,4.1-2.32,4.76,4.76,0,0,0,.49-.32l.62-.45,1.23-.9c.82-.6,1.62-1.21,2.4-1.82,1.57-1.23,3.08-2.49,4.55-3.77,3-2.56,5.73-5.22,8.47-7.94,5.48-5.44,10.81-11.14,17-16.85,3.31-3.08,2-5.64,1.09-4.95-10.45,9.42-21,18.1-31.54,26.75l-8.11,6.65-5.94,4.9-5.71,4.85c-.49.28.12.22.38.26l1,.08,1.91.16,3.8.29c2.52.18,5.08.35,7.65.45l1.77.06,1.31,0,2.64,0c1.75,0,3.52,0,5.28-.08,2.75-.08,5.47-.18,8.16-.33l4-.23,2-.15c.91-.05,1.82-.12,2.72-.21,3.64-.28,7.11-.67,10.66-1l2.69-.3,1.36-.15.34,0,.17,0h.07l-.06-.05-.54-.34-4.3-2.76-2.15-1.4-2.27-1.44-4.64-3-2-1.29-1.61-1.06-3.19-2.13c-4.25-2.84-8.43-5.72-12.42-8.73-1.13-.51-2.24-1-3.33-1.58a41.3,41.3,0,0,1-5-2.81c-1.77-1.11-3.43-2.16-5.06-3.41-.81-.61-1.59-1.26-2.33-1.94-.36-.33-.75-.71-1-1a6.13,6.13,0,0,1-.57-.69,2.91,2.91,0,0,1-.66-1.57,1.41,1.41,0,0,1,1-1.28,4.47,4.47,0,0,1,1.56-.25l1,0,1.47.09c1,.08,2,.18,3.15.24s2.19,0,3.25,0c1.67,0,4.7-1.22,7.48-1.21,2.1,0,4.18-.17,6.24-.33s4.12-.35,6.16-.54l12.18-1.2a40.54,40.54,0,0,0-4.78-2.65A99.68,99.68,0,0,1,103.66,492.91Z"/>
      <path class="f9135b71-6aed-4d28-9494-05daabe26b6f" d="M103.66,492.91a99.68,99.68,0,0,0,14.71-1.12,11.79,11.79,0,0,0-2.83-.76c-2.94-.25-5.94-.34-9-.32s-6.16.18-9.29.24l-9.17.38c-1.39,0-3.08-.13-4.85-.1l-.7,0c-.31,0-.71.05-1.06.07a9.2,9.2,0,0,0-1.07.13,7.2,7.2,0,0,0-1.05.19c-.33.09-.67.17-1,.27l-.93.37a11.33,11.33,0,0,0-1.65,1,8,8,0,0,0-1.45,1.52,8.48,8.48,0,0,1,1.73-1.27,11.11,11.11,0,0,1,5.32-1l.69,0a5,5,0,0,1,.63.05l1,.13,1.85.3c.69.13,1.38.24,2.06.32a14.47,14.47,0,0,0,2,.1c1.46,0,3-.09,4.5-.17C97.14,493.06,100.36,492.94,103.66,492.91Z"/>
      <path class="a0cf499f-4b84-48d0-96da-5e24dbd113af" d="M103.66,492.91a95.72,95.72,0,0,0,14-1c-1.61-.09-3.22-.12-4.85-.08l-12.45.39q-3.11,0-6.2-.07L91.1,492l-1.54-.08-.75-.05-.61-.08.65,0h.83l1.65,0,3.31,0,6.61-.11q6.61-.3,13.24-.71c-2.87-.2-5.8-.26-8.78-.21-1.48,0-3,.07-4.49.13l-4.54.13-4.55.19-2.28.11-1.1.05h-.93c-1.4,0-3-.14-4.76-.09l-.74,0-1,.08c-.35,0-.69.09-1,.13a6.45,6.45,0,0,0-1,.2c-.32.1-.65.16-1,.27l-.9.36a16,16,0,0,0-1.6.94,9.15,9.15,0,0,0-1.43,1.49,9.23,9.23,0,0,1,1.71-1.24,11.11,11.11,0,0,1,5.32-1l.69,0a5,5,0,0,1,.63.05l1,.13,1.85.3c.69.13,1.38.24,2.06.32a14.47,14.47,0,0,0,2,.1c1.46,0,3-.09,4.5-.17C97.14,493.06,100.36,492.94,103.66,492.91Z"/>
      <path class="b97e855c-d470-4627-9f1e-36d212aea7cd" d="M90.25,493.62l7.47.13c1.25,0,2.5,0,3.75,0l3.75-.12c5-.19,10-.5,15.09-1-.44-.25-.89-.48-1.36-.69l-1.26-.07a95.72,95.72,0,0,1-14,1c-3.3,0-6.52.15-9.6.33-1.54.08-3,.15-4.5.17a14.47,14.47,0,0,1-2-.1c-.68-.08-1.37-.19-2.06-.32l-1.85-.3-1-.13a5,5,0,0,0-.63-.05l-.69,0a11.11,11.11,0,0,0-5.32,1,9.23,9.23,0,0,0-1.71,1.24,6.78,6.78,0,0,0-.87,1.87,6.62,6.62,0,0,0-.17,2c.17,2.27,1.72,4.48,3.57,6.31l.51.48.45.41.91.78c.61.5,1.22,1,1.83,1.43,1.22.91,2.45,1.75,3.66,2.56s2.24,1.51,3.49,2.4c4.8,3.35,9.73,6.38,14.61,9.36q3.36,1.67,6.72,3.54c1.12.63,2.24,1.27,3.36,1.93l1.17.69.69.41a24.43,24.43,0,0,1,2.3,1.6,4.8,4.8,0,0,1,.39.32s.11.07,0,.07h-.7c-.6,0-1.17,0-1.68,0,.35,0,.7-.06,1-.11.17,0,.35,0,.49-.06l-.48-.28c-.65-.37-1.32-.72-1.92-1a15.46,15.46,0,0,1,1.25,1l.1.09a1.12,1.12,0,0,1-.27,0h-.55c-.35,0-.67,0-1-.05a4.79,4.79,0,0,0-.56,0l-.24,0-.13,0h-.25l-.42,0-6.72.62a8.93,8.93,0,0,1-4.86,1.49c-2,.15-3.91.19-5.86.25l-3,.11-1.49.1-.73.06-.56.09c-.41,0-.17-.55-.81-.61a12.39,12.39,0,0,0,1.35,0l1,0,1-.06a23.29,23.29,0,0,0,3.58-.58c-1.36.1-2.73.17-4.12.24l-1,0h-.4l-.28,0c-.38,0-.79.08-1.22.1a15.42,15.42,0,0,1-3.82-.42l-.16,0-.08,0s.06,0,.09-.07l.51-.34,1-.63c.65-.39,1.24-.73,1.76-1l.41-.41c.17-.17.34-.36.52-.56l.27-.32.7-.7c.94-.94,1.86-1.91,2.78-2.89l-2.59,2.05a31.37,31.37,0,0,1,4.18-3.77l-1.59,1.72,6.11-4.85a78.39,78.39,0,0,0-7.06,6.51c4.7-4,8.89-7.73,13.84-11.2l-.29.37c6.15-6,12-12.33,18.81-18.68,3.31-3.08,2-5.64,1.1-4.95-7.31,6.58-14.64,12.8-22,18.9l-11,9.09-5.53,4.53-4,3.26c-1.38,1.14-2.79,2.3-4.1,3.42,3.09-2.11,5.92-3.92,8.24-5.39a19,19,0,0,1,2.41-1.43l-2.41,1.43c-1.32.93-2.72,2-4.18,3.17s-2.94,2.3-4.69,3.56A10.44,10.44,0,0,0,75.11,534a3,3,0,0,0-.57.64.31.31,0,0,0-.06.21s.06,0,.13,0l.19,0,.4-.05a68.88,68.88,0,0,0,7.51.81l4.13.29,2,.16c.58.06,1,.12,1.5.19a3.78,3.78,0,0,1,1.05.38c2.44,0,4.89,0,7.34-.07q5.15-.15,10.18-.45l5.49-.37c2.27-.19,4.53-.37,6.72-.61l6.64-.71,1.7-.18.85-.1.42,0c.13,0,0-.05,0-.08l-.17-.11-2.69-1.72-5.45-3.5-5.8-3.68a74.2,74.2,0,0,1,8,6.31,12.78,12.78,0,0,0,2.46,1.9c.08,0,0,0-.08,0l-.15,0-.3,0-.61.06-1.21.15-2.49.32-5.44.75-3,.36-2.76.28c-1.7.22-2.73-.27-4.4-.25a31.51,31.51,0,0,1,4.66-.91l1.23-.15,1.18-.11c.78-.07,1.57-.13,2.38-.18,1.63-.11,3.38-.2,5.15-.34.89-.06,1.78-.15,2.62-.24l1.24-.15.29,0-.28-.16-.57-.33c-2-1.14-3.81-2.33-5.87-3.68l-6.65-4.38a136.45,136.45,0,0,0-13.66-8.09,30.46,30.46,0,0,1-8.66-6.76,21.51,21.51,0,0,1,3.82,2.36c4,2.88,8.24,5.59,12.47,8.25l6.4,3.95,7.11,4.27c-1.16-.82-2.41-1.67-3.72-2.54l-3.36-2.23L106,519.33a129.85,129.85,0,0,1-12.53-8.9c5,3.39,9.65,7.18,15,9.52-.34-.37-.7-.72-1.07-1.08-3.32-2.27-6.6-4.55-9.75-6.94-1.11-.5-2.21-1-3.29-1.56a41.3,41.3,0,0,1-5-2.81c-1.77-1.11-3.43-2.16-5.06-3.41-.81-.61-1.59-1.26-2.33-1.94-.36-.33-.75-.71-1-1a6.13,6.13,0,0,1-.57-.69,2.91,2.91,0,0,1-.66-1.57,1.41,1.41,0,0,1,1-1.28,4.47,4.47,0,0,1,1.56-.25l1,0,1.47.09c1,.08,2,.18,3.15.24s2.19,0,3.25,0a29.5,29.5,0,0,0,4.41-.85c-2.08,0-4.16,0-6.23-.06-2.24,0-4.25-.41-6.24-.4a24.93,24.93,0,0,1,4.64,1.06c-1.75-.07-3.18-.32-4.58-.47l-.84-.1c-.22,0-.46,0-.71,0a3.72,3.72,0,0,0-1.49.26,1.84,1.84,0,0,0-.9.73,1.9,1.9,0,0,1,.78-.83,3.7,3.7,0,0,1,1.43-.5,6.9,6.9,0,0,1,.78-.09,7.87,7.87,0,0,1,.89,0l-.5-.06-.4,0a6,6,0,0,0-.85,0,5,5,0,0,0-1.76.34,2.18,2.18,0,0,0-1.55,2,1.92,1.92,0,0,1,1.25-2.25,5.76,5.76,0,0,1,2.44-.44c.42,0,.74,0,1.22.07s.93.08,1.4.13c.94.09,1.89.2,2.89.24a13.32,13.32,0,0,0,1.54,0c.52-.05,1-.13,1.52-.23a18.39,18.39,0,0,1-3.31-.14,29.56,29.56,0,0,0,3.38.13h-.07a96.07,96.07,0,0,0,9.69-.84c-2.88.06-5.62-.08-8.35-.21-1.36-.09-2.72-.09-4-.25a39.77,39.77,0,0,0-4.18-.33,14.67,14.67,0,0,0-3,.29,13,13,0,0,1,3-.29c12.89.36,25.85.17,38.76.05l1.23-.11-1.11-.65C111.53,494,100.68,494.24,90.25,493.62Z"/>
    </g>
  </g>
  <g>
    <rect class="ef9463ec-95eb-482b-a930-960b41faf76c" x="163.22" y="513.88" width="14.32" height="27.16" transform="matrix(0.99, 0.11, -0.11, 0.99, 58.05, -15.33)"/>
    <polygon class="bd75830c-0e2b-4afd-91c1-25fb52f8a1d3" points="174.64 514.26 169.31 513.68 170.47 509.91 174.32 510.33 174.64 514.26"/>
    <polygon class="b458e6b0-ff20-4e78-85d6-9b8a40bfdcdb" points="168.96 513.08 130.71 505.06 132.29 499.09 169.6 510.67 168.96 513.08"/>
    <g>
      <line class="e73fd644-236f-4267-be58-636cfc34e6f4" x1="231.07" y1="480.26" x2="233.47" y2="496.72"/>
      <rect class="bd75830c-0e2b-4afd-91c1-25fb52f8a1d3" x="207.84" y="432.9" width="38.57" height="52.25" rx="19.29" transform="translate(-17.82 9.25) rotate(-2.25)"/>
      <line class="a05d6b9c-ec80-42aa-8a59-decc894970d2" x1="204.24" y1="464.41" x2="213.36" y2="464.05"/>
      <path class="f9f042f8-ce1d-431b-b441-0f0e117130b4" d="M209.15,473.14a14.11,14.11,0,0,0,8.13-3.5"/>
      <rect class="fc39c8a4-052b-42b8-980f-d5f6ad2c5125" x="213.7" y="454.95" width="5.14" height="2.77" rx="0.78" transform="translate(-17.72 8.83) rotate(-2.25)"/>
      <circle class="a89c9f2d-b171-404b-ab26-c60d39fe7402" cx="212.39" cy="439.34" r="6.5"/>
      <circle class="a89c9f2d-b171-404b-ab26-c60d39fe7402" cx="222.22" cy="433.38" r="6.5"/>
      <circle class="a89c9f2d-b171-404b-ab26-c60d39fe7402" cx="232.88" cy="432.96" r="6.5"/>
      <circle class="a89c9f2d-b171-404b-ab26-c60d39fe7402" cx="240.67" cy="437.79" r="6.5"/>
      <circle class="fc39c8a4-052b-42b8-980f-d5f6ad2c5125" cx="245.24" cy="446.23" r="6.5"/>
      <circle class="a89c9f2d-b171-404b-ab26-c60d39fe7402" cx="246.13" cy="455.08" r="6.5"/>
      <circle class="a89c9f2d-b171-404b-ab26-c60d39fe7402" cx="237.76" cy="455.31" r="6.5"/>
      <circle class="a89c9f2d-b171-404b-ab26-c60d39fe7402" cx="229.21" cy="451.11" r="6.5"/>
      <circle class="a89c9f2d-b171-404b-ab26-c60d39fe7402" cx="220.22" cy="444.48" r="6.5"/>
      <circle class="a89c9f2d-b171-404b-ab26-c60d39fe7402" cx="230.64" cy="440.3" r="6.5"/>
      <circle class="a89c9f2d-b171-404b-ab26-c60d39fe7402" cx="239.46" cy="446.08" r="6.5"/>
      <g class="ab2860ef-5cec-43e4-b7da-6ea6fbbdfc98">
        <circle class="a81d14b0-0f3e-4d50-acb4-b0cb4ad503b5" cx="214.85" cy="456.71" r="1.38"/>
      </g>
      <line class="ec3ee849-5c87-480e-afcf-95f17b5a58c0" x1="213.82" y1="452.74" x2="217.71" y2="452.46"/>
      <circle class="a89c9f2d-b171-404b-ab26-c60d39fe7402" cx="235.71" cy="460.79" r="6.5"/>
      <circle class="a89c9f2d-b171-404b-ab26-c60d39fe7402" cx="242.2" cy="466.87" r="6.5"/>
      <circle class="a89c9f2d-b171-404b-ab26-c60d39fe7402" cx="250.16" cy="466.87" r="6.5"/>
      <circle class="a89c9f2d-b171-404b-ab26-c60d39fe7402" cx="253.03" cy="449.76" r="6.5"/>
      <circle class="a89c9f2d-b171-404b-ab26-c60d39fe7402" cx="250.03" cy="439.88" r="6.5"/>
      <circle class="a89c9f2d-b171-404b-ab26-c60d39fe7402" cx="245.13" cy="432.67" r="6.5"/>
      <circle class="a89c9f2d-b171-404b-ab26-c60d39fe7402" cx="253.03" cy="459.02" r="6.5"/>
      <circle class="a89c9f2d-b171-404b-ab26-c60d39fe7402" cx="243.95" cy="473.02" r="6.5"/>
      <circle class="a89c9f2d-b171-404b-ab26-c60d39fe7402" cx="247.16" cy="476.11" r="6.5"/>
      <g>
        <path class="bd75830c-0e2b-4afd-91c1-25fb52f8a1d3" d="M232.46,659.94a4.14,4.14,0,0,1,3.21-2.86c-6.42-40.74,1.82-84.36,1.88-84.8.47-3-3.18-5.83-6.19-6.3a5.52,5.52,0,0,0-6.3,4.6c-.29,1.86-7.05,46.13-.2,88.8A5.51,5.51,0,0,0,230.3,664a5.3,5.3,0,0,0,.88-.07,5.88,5.88,0,0,0,1-.27A5.2,5.2,0,0,1,232.46,659.94Z"/>
        <path class="bd75830c-0e2b-4afd-91c1-25fb52f8a1d3" d="M246.26,659.94a4.15,4.15,0,0,1,3.21-2.86c-6.42-40.74,2.35-84.36,2.42-84.8.47-3-3.71-5.83-6.72-6.3a5.53,5.53,0,0,0-6.31,4.6c-.29,1.86-7.05,46.13-.2,88.8A5.52,5.52,0,0,0,244.1,664,5.22,5.22,0,0,0,245,664a5.88,5.88,0,0,0,1-.27A5.2,5.2,0,0,1,246.26,659.94Z"/>
        <rect class="ab0fc358-764f-49c1-a6e3-09ea6fd9030f" x="220.09" y="494.65" width="32.58" height="72.91" rx="16.29"/>
        <rect class="ab0fc358-764f-49c1-a6e3-09ea6fd9030f" x="220.09" y="549.93" width="32.58" height="22.02"/>
        <path class="b43c81d9-7ca7-4ea1-ab54-f91b046b0edb" d="M228.9,496.33l10.46-4.71s12.09,1,13.11,16.6"/>
        <path class="ab0fc358-764f-49c1-a6e3-09ea6fd9030f" d="M243.88,657.08H230.45a5.44,5.44,0,0,0-5.45,5.44v1.87h24.32v-1.87A5.43,5.43,0,0,0,243.88,657.08Z"/>
        <polygon class="ab0fc358-764f-49c1-a6e3-09ea6fd9030f" points="249.47 657.08 249.78 664.39 241.35 664.39 238.51 657.08 249.47 657.08"/>
        <path class="ab0fc358-764f-49c1-a6e3-09ea6fd9030f" d="M232.73,657.08H219.3a5.43,5.43,0,0,0-5.44,5.44v1.87h24.32v-1.87A5.44,5.44,0,0,0,232.73,657.08Z"/>
        <polygon class="ab0fc358-764f-49c1-a6e3-09ea6fd9030f" points="238.32 657.08 238.63 664.39 230.2 664.39 227.37 657.08 238.32 657.08"/>
      </g>
      <rect class="bd75830c-0e2b-4afd-91c1-25fb52f8a1d3" x="174.25" y="526.4" width="9.42" height="9.42" rx="2.65"/>
      <path class="af6919ec-f4a0-4194-82f6-fc3e59cc3a45" d="M236,501.54A118,118,0,0,1,182.26,531"/>
      <circle class="a89c9f2d-b171-404b-ab26-c60d39fe7402" cx="237.46" cy="428.94" r="6.5"/>
      <circle class="a89c9f2d-b171-404b-ab26-c60d39fe7402" cx="245.13" cy="444.81" r="6.5"/>
      <circle class="a89c9f2d-b171-404b-ab26-c60d39fe7402" cx="228.13" cy="428.98" r="6.5"/>
      <circle class="a89c9f2d-b171-404b-ab26-c60d39fe7402" cx="218.28" cy="432.81" r="6.5"/>
    </g>
  </g>
</svg>
