<svg id="e8eff67d-e17f-4163-83d8-c7e0c7be232d" data-name="Layer 1" xmlns="http://www.w3.org/2000/svg" xmlns:xlink="http://www.w3.org/1999/xlink" viewBox="0 0 465.11 727.87">
  <defs>
    <style>
      .a32868cb-da2b-4c7b-ba68-146a0165ed7c, .a4ca20aa-c976-4042-82d3-8ef5bd4111b2, .afd8bddf-93c4-4a2c-823a-61b8fd8ba723, .b5798fcb-ed2a-4df4-a9e3-aff31daa35e7, .bb095c2c-3d7c-4d5e-a784-2e894b36c881, .f162f811-05f2-423a-8ebc-57b74da0cfdd {
        fill: none;
      }

      .a0ce1373-e9c8-4af4-ac0e-c34ea1071d63, .a74a7bb1-4db1-4eff-b988-c8ed76c54c29 {
        fill: #ede8db;
      }

      .b0280f2e-6414-411d-b7d9-3e2601b2af28 {
        fill: #3c5743;
      }

      .ac7498af-d94e-4230-9d9c-d7b8a385e342 {
        fill: #aeaaa1;
      }

      .bffed540-89aa-44ac-9eb3-89530bfa00ff {
        fill: #ddd;
      }

      .ef977ee9-51c4-4c51-bd25-22ce729bb717 {
        fill: #fff;
      }

      .ad2c862a-16cc-49d9-9f14-b39bfe39c248 {
        fill: #77a9a2;
      }

      .a0ce1373-e9c8-4af4-ac0e-c34ea1071d63, .a8fc7fbc-da9e-4420-a05e-d587fdffe1e9, .ad2c862a-16cc-49d9-9f14-b39bfe39c248, .bb095c2c-3d7c-4d5e-a784-2e894b36c881 {
        fill-rule: evenodd;
      }

      .a142a8e1-3929-4998-96e1-7d54fc500d35, .b5798fcb-ed2a-4df4-a9e3-aff31daa35e7, .bb095c2c-3d7c-4d5e-a784-2e894b36c881, .f162f811-05f2-423a-8ebc-57b74da0cfdd {
        stroke: #ea5736;
      }

      .a142a8e1-3929-4998-96e1-7d54fc500d35, .a4ca20aa-c976-4042-82d3-8ef5bd4111b2, .b5798fcb-ed2a-4df4-a9e3-aff31daa35e7, .bab0a2a2-f701-4807-844c-0e0a7d6c27bb, .bb095c2c-3d7c-4d5e-a784-2e894b36c881, .ecbde28b-515e-4898-9f3b-6908298eb783, .ef0d4adb-5eb5-44d3-9ccf-145b157e8eed, .f162f811-05f2-423a-8ebc-57b74da0cfdd {
        stroke-miterlimit: 10;
      }

      .f162f811-05f2-423a-8ebc-57b74da0cfdd {
        stroke-width: 5.85px;
      }

      .a32868cb-da2b-4c7b-ba68-146a0165ed7c, .aa469853-dc35-4c71-b1aa-7c6cfad85614, .ad04f1f8-00ae-43fe-84d4-6ca8805615d9, .addf140d-4c26-416a-9ea8-7c8edb092ee1, .b5798fcb-ed2a-4df4-a9e3-aff31daa35e7, .bb095c2c-3d7c-4d5e-a784-2e894b36c881, .ec826368-d573-4fc5-8c3c-3f0f95d1cac8, .f752e0f7-7d95-429a-8b9d-b2afb9fa57f1, .fc640540-897a-446d-ae93-7b9f7daea025 {
        stroke-linecap: round;
      }

      .b5798fcb-ed2a-4df4-a9e3-aff31daa35e7 {
        stroke-width: 2.51px;
      }

      .bf9c7cd9-683f-4477-b47b-254fd1250ab6 {
        fill: #a2a081;
      }

      .effc497e-9c10-415a-b37e-c7f1fc178ab1 {
        fill: #d5a555;
      }

      .a3aaf29f-96b9-4040-884b-a20452bbd839 {
        fill: #062837;
      }

      .addf140d-4c26-416a-9ea8-7c8edb092ee1, .b10d72dc-5b61-4a3f-9096-a0c0647f28a0 {
        fill: #ece8dc;
      }

      .addf140d-4c26-416a-9ea8-7c8edb092ee1 {
        stroke: #ece8dc;
        stroke-width: 5.08px;
      }

      .a32868cb-da2b-4c7b-ba68-146a0165ed7c, .aa469853-dc35-4c71-b1aa-7c6cfad85614, .ad04f1f8-00ae-43fe-84d4-6ca8805615d9, .addf140d-4c26-416a-9ea8-7c8edb092ee1, .ec826368-d573-4fc5-8c3c-3f0f95d1cac8, .f752e0f7-7d95-429a-8b9d-b2afb9fa57f1, .fc640540-897a-446d-ae93-7b9f7daea025 {
        stroke-linejoin: round;
      }

      .a7719e9e-b74f-43e1-8cf8-ab467a8bb7ba, .fc640540-897a-446d-ae93-7b9f7daea025 {
        fill: #002838;
      }

      .fc640540-897a-446d-ae93-7b9f7daea025 {
        stroke: #002838;
        stroke-width: 5.31px;
      }

      .f80b74ec-f02b-4cd9-ab64-316922c9ac4a {
        fill: #afaca3;
      }

      .a4ca20aa-c976-4042-82d3-8ef5bd4111b2 {
        stroke: #4e4d4c;
        stroke-width: 10px;
      }

      .ad04f1f8-00ae-43fe-84d4-6ca8805615d9, .ade1d81c-e13b-48f5-8f82-3631417fe466, .ef0d4adb-5eb5-44d3-9ccf-145b157e8eed {
        fill: #8a533b;
      }

      .a927a944-8fe6-4a73-b22f-07f99692df60, .bab0a2a2-f701-4807-844c-0e0a7d6c27bb, .ec826368-d573-4fc5-8c3c-3f0f95d1cac8, .ecbde28b-515e-4898-9f3b-6908298eb783, .f752e0f7-7d95-429a-8b9d-b2afb9fa57f1 {
        fill: #d4a455;
      }

      .bab0a2a2-f701-4807-844c-0e0a7d6c27bb, .ec826368-d573-4fc5-8c3c-3f0f95d1cac8, .ecbde28b-515e-4898-9f3b-6908298eb783, .f752e0f7-7d95-429a-8b9d-b2afb9fa57f1 {
        stroke: #d4a455;
      }

      .ec826368-d573-4fc5-8c3c-3f0f95d1cac8 {
        stroke-width: 24.19px;
      }

      .f737b823-1898-4f93-8c3a-e16f0a0f654d {
        fill: #062838;
      }

      .ecbde28b-515e-4898-9f3b-6908298eb783 {
        stroke-width: 0.52px;
      }

      .b53dfcac-3cb9-48e4-b479-53f903f811b4 {
        fill: #2d2e2c;
      }

      .ad04f1f8-00ae-43fe-84d4-6ca8805615d9, .ef0d4adb-5eb5-44d3-9ccf-145b157e8eed {
        stroke: #8a533b;
      }

      .ad04f1f8-00ae-43fe-84d4-6ca8805615d9 {
        stroke-width: 4.54px;
      }

      .b61c8615-a130-4e86-85ba-f44cbf01f991 {
        clip-path: url(#ad17e02a-69ea-45eb-8553-a373f518c912);
      }

      .a32868cb-da2b-4c7b-ba68-146a0165ed7c {
        stroke: #31373a;
        stroke-width: 2.35px;
      }

      .aa469853-dc35-4c71-b1aa-7c6cfad85614, .b70e3503-17e2-4273-938e-72d7da214374 {
        fill: #868072;
      }

      .bab0a2a2-f701-4807-844c-0e0a7d6c27bb {
        stroke-width: 1.22px;
      }

      .ef0d4adb-5eb5-44d3-9ccf-145b157e8eed {
        stroke-width: 2.69px;
      }

      .a142a8e1-3929-4998-96e1-7d54fc500d35, .a6aed222-d888-4bea-a81f-67bda2d0ab38 {
        fill: #ea5836;
      }

      .a142a8e1-3929-4998-96e1-7d54fc500d35 {
        stroke-width: 0.84px;
      }

      .b52b9107-d3ad-4093-9521-c9e792853e08 {
        fill: #aeaaa2;
      }

      .a5e528e3-8ab7-42f8-b651-897940b5239b {
        fill: #79a9a2;
      }

      .b9645fe4-b9df-4ee7-9faa-779330049141 {
        fill: #3d5843;
      }

      .f752e0f7-7d95-429a-8b9d-b2afb9fa57f1 {
        stroke-width: 0.47px;
      }

      .aa469853-dc35-4c71-b1aa-7c6cfad85614 {
        stroke: #868072;
        stroke-width: 0.31px;
      }

      .a8fc7fbc-da9e-4420-a05e-d587fdffe1e9 {
        fill: #ea5736;
      }

      .a9a6cadc-7098-485a-8656-bd21a248fd50 {
        fill: #1d1d1b;
      }

      .bb095c2c-3d7c-4d5e-a784-2e894b36c881 {
        stroke-width: 0.45px;
      }
    </style>
    <clipPath id="ad17e02a-69ea-45eb-8553-a373f518c912">
      <rect class="afd8bddf-93c4-4a2c-823a-61b8fd8ba723" x="279.25" y="465.08" width="7.37" height="3.97" rx="1.48"/>
    </clipPath>
  </defs>
  <title>screen-4</title>
  <rect class="a74a7bb1-4db1-4eff-b988-c8ed76c54c29" x="-1.55" y="-926.54" width="465.11" height="2577.43"/>
  <polygon class="b0280f2e-6414-411d-b7d9-3e2601b2af28" points="435.19 0.89 464.55 0.2 464.67 729.69 384.19 428.58 384.19 29.42 435.19 0.89"/>
  <path class="ac7498af-d94e-4230-9d9c-d7b8a385e342" d="M472,734A1685.9,1685.9,0,0,1,427.08,95.41c10.24-83.91,43.15-154.54,35.13-238.68l-103.79,1.86c8,84.15-8.58,149.39-18.82,233.29a1686,1686,0,0,0,44.88,638.6Z"/>
  <rect class="bffed540-89aa-44ac-9eb3-89530bfa00ff" x="-0.53" y="-98.16" width="465.09" height="98.36"/>
  <rect class="ef977ee9-51c4-4c51-bd25-22ce729bb717" x="465.09" y="629.61" width="64.74" height="153.47"/>
  <rect class="ac7498af-d94e-4230-9d9c-d7b8a385e342" x="129.93" y="110.94" width="228.47" height="35.97"/>
  <path class="ad2c862a-16cc-49d9-9f14-b39bfe39c248" d="M237.92,140.49a6.62,6.62,0,0,0,0-.77A8.06,8.06,0,0,0,224.25,134a4.39,4.39,0,0,0-2.43-.72,4.45,4.45,0,0,0-4.45,4.45,4.3,4.3,0,0,0,.17,1.2,6.54,6.54,0,0,0-4.06,8.93h28a5.31,5.31,0,0,0,.45-2.15A5.37,5.37,0,0,0,237.92,140.49Z"/>
  <path class="ad2c862a-16cc-49d9-9f14-b39bfe39c248" d="M220.8,140.49c0-.26,0-.51,0-.77A8.07,8.07,0,0,0,207.12,134a4.36,4.36,0,0,0-2.42-.72,4.45,4.45,0,0,0-4.45,4.45,4.3,4.3,0,0,0,.17,1.2,6.57,6.57,0,0,0-4.07,8.93h28a5.48,5.48,0,0,0,.45-2.15A5.37,5.37,0,0,0,220.8,140.49Z"/>
  <path class="ad2c862a-16cc-49d9-9f14-b39bfe39c248" d="M194.29,140.49c0-.26,0-.51,0-.77A8.06,8.06,0,0,0,180.61,134a4.39,4.39,0,0,0-2.43-.72,4.45,4.45,0,0,0-4.45,4.45,4.3,4.3,0,0,0,.17,1.2,6.57,6.57,0,0,0-4.06,8.93h27.95a5.31,5.31,0,0,0,.45-2.15A5.36,5.36,0,0,0,194.29,140.49Z"/>
  <path class="ad2c862a-16cc-49d9-9f14-b39bfe39c248" d="M166.67,140.49c0-.26,0-.51,0-.77A8.06,8.06,0,0,0,153,134a4.38,4.38,0,0,0-2.42-.72,4.46,4.46,0,0,0-4.46,4.45,4.3,4.3,0,0,0,.17,1.2,6.57,6.57,0,0,0-4.06,8.93h27.95a5.31,5.31,0,0,0,.45-2.15A5.36,5.36,0,0,0,166.67,140.49Z"/>
  <path class="ad2c862a-16cc-49d9-9f14-b39bfe39c248" d="M329.92,140.49a6.62,6.62,0,0,0,0-.77A8.06,8.06,0,0,0,316.25,134a4.39,4.39,0,0,0-2.43-.72,4.45,4.45,0,0,0-4.45,4.45,4.3,4.3,0,0,0,.17,1.2,6.54,6.54,0,0,0-4.06,8.93h27.95a5.31,5.31,0,0,0,.45-2.15A5.37,5.37,0,0,0,329.92,140.49Z"/>
  <path class="ad2c862a-16cc-49d9-9f14-b39bfe39c248" d="M312.8,140.49c0-.26,0-.51,0-.77A8.07,8.07,0,0,0,299.12,134a4.36,4.36,0,0,0-2.42-.72,4.45,4.45,0,0,0-4.45,4.45,4.3,4.3,0,0,0,.17,1.2,6.57,6.57,0,0,0-4.07,8.93h28a5.48,5.48,0,0,0,.45-2.15A5.37,5.37,0,0,0,312.8,140.49Z"/>
  <path class="ad2c862a-16cc-49d9-9f14-b39bfe39c248" d="M286.29,140.49c0-.26,0-.51,0-.77A8.06,8.06,0,0,0,272.61,134a4.39,4.39,0,0,0-2.43-.72,4.45,4.45,0,0,0-4.45,4.45,4.3,4.3,0,0,0,.17,1.2,6.57,6.57,0,0,0-4.06,8.93h28a5.31,5.31,0,0,0,.45-2.15A5.36,5.36,0,0,0,286.29,140.49Z"/>
  <path class="ad2c862a-16cc-49d9-9f14-b39bfe39c248" d="M258.67,140.49c0-.26,0-.51,0-.77A8.06,8.06,0,0,0,245,134a4.38,4.38,0,0,0-2.42-.72,4.46,4.46,0,0,0-4.46,4.45,4.3,4.3,0,0,0,.17,1.2,6.57,6.57,0,0,0-4.06,8.93h28a5.31,5.31,0,0,0,.45-2.15A5.36,5.36,0,0,0,258.67,140.49Z"/>
  <g>
    <line class="f162f811-05f2-423a-8ebc-57b74da0cfdd" x1="198.92" y1="154.83" x2="198.92" y2="111.54"/>
    <path class="b5798fcb-ed2a-4df4-a9e3-aff31daa35e7" d="M187.78,114.32s1,11.2,11.14,15.28"/>
    <path class="b5798fcb-ed2a-4df4-a9e3-aff31daa35e7" d="M209.88,110s-1.33,13.19-11,13.19"/>
    <circle class="bf9c7cd9-683f-4477-b47b-254fd1250ab6" cx="211.67" cy="108.3" r="8.71"/>
    <circle class="bf9c7cd9-683f-4477-b47b-254fd1250ab6" cx="217.77" cy="84.68" r="8.71"/>
    <circle class="bf9c7cd9-683f-4477-b47b-254fd1250ab6" cx="181.7" cy="85.54" r="10.41"/>
    <circle class="bf9c7cd9-683f-4477-b47b-254fd1250ab6" cx="198.08" cy="110.86" r="6.79"/>
    <circle class="bf9c7cd9-683f-4477-b47b-254fd1250ab6" cx="220.38" cy="98.82" r="11.2"/>
    <circle class="bf9c7cd9-683f-4477-b47b-254fd1250ab6" cx="176.14" cy="98.82" r="10.02"/>
    <circle class="bf9c7cd9-683f-4477-b47b-254fd1250ab6" cx="194.46" cy="79.55" r="14.93"/>
    <circle class="bf9c7cd9-683f-4477-b47b-254fd1250ab6" cx="205.6" cy="81.68" r="11.93"/>
    <circle class="bf9c7cd9-683f-4477-b47b-254fd1250ab6" cx="196.86" cy="96.61" r="14.93"/>
    <circle class="bf9c7cd9-683f-4477-b47b-254fd1250ab6" cx="186.01" cy="108.3" r="8.69"/>
  </g>
  <rect class="ac7498af-d94e-4230-9d9c-d7b8a385e342" x="129.93" y="339.23" width="202.47" height="61.68"/>
  <g>
    <line class="f162f811-05f2-423a-8ebc-57b74da0cfdd" x1="144.92" y1="154.83" x2="144.92" y2="111.54"/>
    <path class="b5798fcb-ed2a-4df4-a9e3-aff31daa35e7" d="M133.78,114.32s1,11.2,11.14,15.28"/>
    <path class="b5798fcb-ed2a-4df4-a9e3-aff31daa35e7" d="M155.88,110s-1.33,13.19-11,13.19"/>
    <circle class="b0280f2e-6414-411d-b7d9-3e2601b2af28" cx="157.67" cy="108.3" r="8.71"/>
    <circle class="b0280f2e-6414-411d-b7d9-3e2601b2af28" cx="163.77" cy="84.68" r="8.71"/>
    <circle class="b0280f2e-6414-411d-b7d9-3e2601b2af28" cx="127.7" cy="85.54" r="10.41"/>
    <circle class="b0280f2e-6414-411d-b7d9-3e2601b2af28" cx="144.08" cy="110.86" r="6.79"/>
    <circle class="b0280f2e-6414-411d-b7d9-3e2601b2af28" cx="166.38" cy="98.82" r="11.2"/>
    <circle class="b0280f2e-6414-411d-b7d9-3e2601b2af28" cx="122.14" cy="98.82" r="10.02"/>
    <circle class="b0280f2e-6414-411d-b7d9-3e2601b2af28" cx="140.46" cy="79.55" r="14.93"/>
    <circle class="b0280f2e-6414-411d-b7d9-3e2601b2af28" cx="151.6" cy="81.68" r="11.93"/>
    <circle class="b0280f2e-6414-411d-b7d9-3e2601b2af28" cx="142.86" cy="96.61" r="14.93"/>
    <circle class="b0280f2e-6414-411d-b7d9-3e2601b2af28" cx="132.01" cy="108.3" r="8.69"/>
  </g>
  <rect class="effc497e-9c10-415a-b37e-c7f1fc178ab1" x="-0.55" y="136.83" width="142.07" height="534.09"/>
  <g>
    <line class="f162f811-05f2-423a-8ebc-57b74da0cfdd" x1="304.92" y1="154.83" x2="304.92" y2="111.54"/>
    <path class="b5798fcb-ed2a-4df4-a9e3-aff31daa35e7" d="M293.78,114.32s1,11.2,11.14,15.28"/>
    <path class="b5798fcb-ed2a-4df4-a9e3-aff31daa35e7" d="M315.88,110s-1.33,13.19-11,13.19"/>
    <circle class="bf9c7cd9-683f-4477-b47b-254fd1250ab6" cx="317.67" cy="108.3" r="8.71"/>
    <circle class="bf9c7cd9-683f-4477-b47b-254fd1250ab6" cx="323.77" cy="84.68" r="8.71"/>
    <circle class="bf9c7cd9-683f-4477-b47b-254fd1250ab6" cx="287.7" cy="85.54" r="10.41"/>
    <circle class="bf9c7cd9-683f-4477-b47b-254fd1250ab6" cx="304.08" cy="110.86" r="6.79"/>
    <circle class="bf9c7cd9-683f-4477-b47b-254fd1250ab6" cx="326.38" cy="98.82" r="11.2"/>
    <circle class="bf9c7cd9-683f-4477-b47b-254fd1250ab6" cx="282.14" cy="98.82" r="10.02"/>
    <circle class="bf9c7cd9-683f-4477-b47b-254fd1250ab6" cx="300.46" cy="79.55" r="14.93"/>
    <circle class="bf9c7cd9-683f-4477-b47b-254fd1250ab6" cx="311.6" cy="81.68" r="11.93"/>
    <circle class="bf9c7cd9-683f-4477-b47b-254fd1250ab6" cx="302.86" cy="96.61" r="14.93"/>
    <circle class="bf9c7cd9-683f-4477-b47b-254fd1250ab6" cx="292.01" cy="108.3" r="8.69"/>
  </g>
  <g>
    <line class="f162f811-05f2-423a-8ebc-57b74da0cfdd" x1="255.92" y1="154.83" x2="255.92" y2="111.54"/>
    <path class="b5798fcb-ed2a-4df4-a9e3-aff31daa35e7" d="M244.78,114.32s1,11.2,11.14,15.28"/>
    <path class="b5798fcb-ed2a-4df4-a9e3-aff31daa35e7" d="M266.88,110s-1.33,13.19-11,13.19"/>
    <circle class="b0280f2e-6414-411d-b7d9-3e2601b2af28" cx="268.67" cy="108.3" r="8.71"/>
    <circle class="b0280f2e-6414-411d-b7d9-3e2601b2af28" cx="274.77" cy="84.68" r="8.71"/>
    <circle class="b0280f2e-6414-411d-b7d9-3e2601b2af28" cx="238.7" cy="85.54" r="10.41"/>
    <circle class="b0280f2e-6414-411d-b7d9-3e2601b2af28" cx="255.08" cy="110.86" r="6.79"/>
    <circle class="b0280f2e-6414-411d-b7d9-3e2601b2af28" cx="277.38" cy="98.82" r="11.2"/>
    <circle class="b0280f2e-6414-411d-b7d9-3e2601b2af28" cx="233.14" cy="98.82" r="10.02"/>
    <circle class="b0280f2e-6414-411d-b7d9-3e2601b2af28" cx="251.46" cy="79.55" r="14.93"/>
    <circle class="b0280f2e-6414-411d-b7d9-3e2601b2af28" cx="262.6" cy="81.68" r="11.93"/>
    <circle class="b0280f2e-6414-411d-b7d9-3e2601b2af28" cx="253.86" cy="96.61" r="14.93"/>
    <circle class="b0280f2e-6414-411d-b7d9-3e2601b2af28" cx="243.01" cy="108.3" r="8.69"/>
  </g>
  <polygon class="a3aaf29f-96b9-4040-884b-a20452bbd839" points="-0.55 136.83 154.52 137.1 0 0.23 -0.55 136.83"/>
  <rect class="addf140d-4c26-416a-9ea8-7c8edb092ee1" x="17.56" y="235.82" width="72.84" height="72.84"/>
  <g class="text-cta text-cta--4">
    <g>
      <circle class="fc640540-897a-446d-ae93-7b9f7daea025" cx="372.53" cy="364.89" r="23.35"/>
      <circle class="a74a7bb1-4db1-4eff-b988-c8ed76c54c29" cx="372.53" cy="364.89" r="16.14"/>
      <g>
        <circle class="fc640540-897a-446d-ae93-7b9f7daea025" cx="201.51" cy="364.89" r="23.35"/>
        <rect class="a7719e9e-b74f-43e1-8cf8-ab467a8bb7ba" x="213.79" y="237.71" width="219.6" height="127.18" rx="17.22" transform="translate(647.19 602.6) rotate(-180)"/>
        <circle class="f80b74ec-f02b-4cd9-ab64-316922c9ac4a" cx="201.51" cy="364.89" r="16.14"/>
        <path class="a7719e9e-b74f-43e1-8cf8-ab467a8bb7ba" d="M275.82,364.89H164s-15.57-3-17.93-16.65c-1.35-7.77-1.16-22.75-.75-34.21,0-14.35,14.9-23.6,14.9-23.6l54.38-44.16s9.27-8.56,30.2-8.56"/>
        <polygon class="a74a7bb1-4db1-4eff-b988-c8ed76c54c29" points="217.2 252.1 217.2 286.32 172.55 286.32 217.2 252.1"/>
        <circle class="a74a7bb1-4db1-4eff-b988-c8ed76c54c29" cx="201.51" cy="364.89" r="16.14"/>
      </g>
    </g>
    <g>
      <g>
        <path class="a0ce1373-e9c8-4af4-ac0e-c34ea1071d63" d="M311.42,281.89c0-.8,0-1.49,0-2.19,0-2.57-.94-3.51-3.46-3.83-4.12-.52-8.07.31-12,1.26-1.41.34-1.54.31-1.82-1.06-.67-3.26-1.32-3,2.35-3.85a35.07,35.07,0,0,1,15.15-.73c2.71.55,5,1.73,5.72,4.69a11.57,11.57,0,0,1,.34,2.75c0,5.45,0,13.68,0,15.06s-.05,2.93-.13,3.54c-.23,1.6-1.05,2-2.45,2.68a20,20,0,0,1-6.46,1.29,38.21,38.21,0,0,1-9.57-.37c-5.56-1-7.5-4.74-7-10.09.42-4.64,2.71-6.54,7.94-7.25,1.91-.26,3.8-.61,5.7-.93Zm-.05,4.39c-3.48.62-6.86,1.15-10.2,1.86a3.74,3.74,0,0,0-2.1,1.47,5,5,0,0,0,3,7.41,18.5,18.5,0,0,0,9.27-.54Z"/>
        <path class="a0ce1373-e9c8-4af4-ac0e-c34ea1071d63" d="M367.1,276.71v22.76c0,1.36-.17,1.5-1.57,1.51-1.08,0-2-.09-3.25,0-1.39.1-1.53-.13-1.53-1.53q0-9.75,0-19.5c0-1.24,0-2.48,0-3.72a2.93,2.93,0,0,1,2.16-3.08,45.36,45.36,0,0,1,6.25-1.57,36.49,36.49,0,0,1,10.28-.36c4.25.54,6.65,2.87,6.72,7.12.11,7.16.05,14.32.07,21.48,0,.83-.32,1.2-1.18,1.17-1.23,0-2.48-.06-3.71,0s-1.47-.44-1.47-1.52c0-6.19,0-12.39,0-18.58,0-.54,0-1.08,0-1.62-.14-2.37-1.28-3.51-3.64-3.64A31.11,31.11,0,0,0,367.1,276.71Z"/>
        <path class="a0ce1373-e9c8-4af4-ac0e-c34ea1071d63" d="M281.66,301.22a27.51,27.51,0,0,1-8.78-.1l-.36-.07c-4.44-.87-7-3.73-8-8a30.79,30.79,0,0,1-.09-13c1-5.09,3.81-7.9,8.89-8.72a26.87,26.87,0,0,1,12.37.86c1.44.44,1.57.71,1.23,2.19-.71,3-.21,2.49-3.16,2a36.23,36.23,0,0,0-7.12-.6c-3.22.1-5.2,1.94-5.86,5.1a27.12,27.12,0,0,0-.19,9.92c.72,4.47,2.66,6.17,7.33,6.18a38.19,38.19,0,0,0,6.85-.91c1.47-.26,1.56-.3,1.91,1.1.7,2.86.66,3-2.25,3.62C283.52,300.93,282.59,301.08,281.66,301.22Z"/>
        <path class="a0ce1373-e9c8-4af4-ac0e-c34ea1071d63" d="M343.45,277.06v7.1c0,5.07,0,10.14,0,15.21,0,1.48-.13,1.61-1.57,1.61-1.16,0-2.32,0-3.48,0-1,.05-1.32-.36-1.31-1.29,0-1.89,0-3.79,0-5.68,0-5.61,0-11.22,0-16.83,0-3,.51-3.66,3.38-4.57,3.53-1.12,9.29-1.67,14.65-1.62,1,0,1.41.09,1.44,1.45s0,1.84,0,2.52c0,1.3-.24,1.79-2,1.65A73.72,73.72,0,0,0,343.45,277.06Z"/>
        <path class="a0ce1373-e9c8-4af4-ac0e-c34ea1071d63" d="M330.54,266.14c0,.94-.41,1.32-1.18,1.34-1.27,0-2.55,0-3.82,0a1.18,1.18,0,0,1-1.28-1.32c0-2,0-2,0-3.95a1,1,0,0,1,1.15-1.16c1.35,0,2.7,0,4,0,.75,0,1.08.2,1.08,1.21Z"/>
      </g>
      <path class="a0ce1373-e9c8-4af4-ac0e-c34ea1071d63" d="M329.1,272h-3.4a1.45,1.45,0,0,0-1.45,1.45v22.67l3.15-3,3.15,3V273.48A1.45,1.45,0,0,0,329.1,272Z"/>
    </g>
    <g>
      <path class="a74a7bb1-4db1-4eff-b988-c8ed76c54c29" d="M299,327.57a1.1,1.1,0,0,1-.7,1.4,1.76,1.76,0,0,1-.44.06h0a1.45,1.45,0,0,1-.78-.22,2,2,0,0,1-.64-.7,5.38,5.38,0,0,1-.42-2.4,1.69,1.69,0,0,0-.24-.86,1.86,1.86,0,0,0-.6-.58,3.8,3.8,0,0,0-1.12-.48h-2.36v4.34a1.11,1.11,0,0,1-1.12,1.1,1.1,1.1,0,0,1-1.1-1.1v-11.8a1.08,1.08,0,0,1,1.1-1.1h3.58a4.28,4.28,0,0,1,2.72,7.58,3.1,3.1,0,0,1,.7.74,3.79,3.79,0,0,1,.66,2.16,5,5,0,0,0,.08,1.18A1.08,1.08,0,0,1,299,327.57Zm-2.8-8a2.06,2.06,0,0,0-2.06-2.08h-2.46v4.12h2.46A2.05,2.05,0,0,0,296.15,319.53Z"/>
      <path class="a74a7bb1-4db1-4eff-b988-c8ed76c54c29" d="M302.19,328.13v-11.8a1.08,1.08,0,0,1,1.1-1.1h6.54a1.11,1.11,0,0,1,1.1,1.1,1.13,1.13,0,0,1-1.1,1.12h-5.42v3.66h4.66a1.11,1.11,0,0,1,0,2.22h-4.66V327h5.42a1.11,1.11,0,0,1,0,2.22h-6.48s0,0,0,0l0,0A1.1,1.1,0,0,1,302.19,328.13Z"/>
      <path class="a74a7bb1-4db1-4eff-b988-c8ed76c54c29" d="M318.73,323.79h-2.46v4.34a1.11,1.11,0,0,1-2.22,0v-11.8a1.1,1.1,0,0,1,1.1-1.1h3.58a4.28,4.28,0,1,1,0,8.56Zm-2.46-2.22h2.46a2.06,2.06,0,1,0,0-4.12h-2.46Z"/>
      <path class="a74a7bb1-4db1-4eff-b988-c8ed76c54c29" d="M331.45,325.93h-4.86l-1,2.6a1.12,1.12,0,0,1-1,.7,1.16,1.16,0,0,1-.38-.06,1.13,1.13,0,0,1-.66-1.44L328,316a1.12,1.12,0,0,1,1.06-.7,1.1,1.1,0,0,1,1.06.7l4.42,11.78a1.13,1.13,0,0,1-.66,1.44,1.12,1.12,0,0,1-1.4-.64Zm-.82-2.2-1.62-4.3-1.62,4.3Z"/>
      <path class="a74a7bb1-4db1-4eff-b988-c8ed76c54c29" d="M337.37,316.33a1.08,1.08,0,0,1,1.1-1.1,1.11,1.11,0,0,1,1.12,1.1v11.8a1.11,1.11,0,0,1-1.12,1.1,1.08,1.08,0,0,1-1.1-1.1Z"/>
      <path class="a74a7bb1-4db1-4eff-b988-c8ed76c54c29" d="M352.59,327.57a1.1,1.1,0,0,1-.7,1.4,1.76,1.76,0,0,1-.44.06h0a1.45,1.45,0,0,1-.78-.22,2,2,0,0,1-.64-.7,5.38,5.38,0,0,1-.42-2.4,1.69,1.69,0,0,0-.24-.86,1.86,1.86,0,0,0-.6-.58,3.8,3.8,0,0,0-1.12-.48h-2.36v4.34a1.11,1.11,0,0,1-1.12,1.1,1.1,1.1,0,0,1-1.1-1.1v-11.8a1.08,1.08,0,0,1,1.1-1.1h3.58a4.28,4.28,0,0,1,2.72,7.58,3.1,3.1,0,0,1,.7.74,3.79,3.79,0,0,1,.66,2.16,5,5,0,0,0,.08,1.18A1.08,1.08,0,0,1,352.59,327.57Zm-2.8-8a2.06,2.06,0,0,0-2.06-2.08h-2.46v4.12h2.46A2.05,2.05,0,0,0,349.79,319.53Z"/>
      <path class="a74a7bb1-4db1-4eff-b988-c8ed76c54c29" d="M355.39,325.75a1,1,0,0,1,1.46-.14,6.52,6.52,0,0,0,3.82,1.54,4.31,4.31,0,0,0,2.5-.74A1.8,1.8,0,0,0,364,325a1.14,1.14,0,0,0-.18-.64,1.89,1.89,0,0,0-.6-.6,8,8,0,0,0-2.74-.94h0a10.82,10.82,0,0,1-2.58-.78,4.3,4.3,0,0,1-1.86-1.56,3.07,3.07,0,0,1-.46-1.64,3.7,3.7,0,0,1,1.6-2.92,5.91,5.91,0,0,1,3.46-1.06,7.83,7.83,0,0,1,4.36,1.6,1,1,0,0,1,.28,1.42,1,1,0,0,1-1.42.3,5.8,5.8,0,0,0-3.22-1.28,3.82,3.82,0,0,0-2.24.68,1.59,1.59,0,0,0-.76,1.26,1,1,0,0,0,.14.56,1.93,1.93,0,0,0,.54.52,6.89,6.89,0,0,0,2.5.88h0a11.77,11.77,0,0,1,2.76.84,4.67,4.67,0,0,1,2,1.66,3.24,3.24,0,0,1,.48,1.7,3.87,3.87,0,0,1-1.72,3.1,6.25,6.25,0,0,1-3.7,1.14,8.62,8.62,0,0,1-5.12-2A1.06,1.06,0,0,1,355.39,325.75Z"/>
    </g>
  </g>
  <path class="ad2c862a-16cc-49d9-9f14-b39bfe39c248" d="M324,390.47q.06-.69.06-1.38a14.6,14.6,0,0,0-24.82-10.44,8.06,8.06,0,0,0-12.45,6.76,8.18,8.18,0,0,0,.3,2.17,11.88,11.88,0,0,0-7.35,16.17h50.6a9.55,9.55,0,0,0,.82-3.89A9.74,9.74,0,0,0,324,390.47Z"/>
  <path class="ad2c862a-16cc-49d9-9f14-b39bfe39c248" d="M293,390.47q.06-.69.06-1.38a14.6,14.6,0,0,0-24.82-10.44,8.06,8.06,0,0,0-12.45,6.76,8.18,8.18,0,0,0,.3,2.17,11.88,11.88,0,0,0-7.35,16.17h50.6a9.55,9.55,0,0,0,.82-3.89A9.74,9.74,0,0,0,293,390.47Z"/>
  <path class="ad2c862a-16cc-49d9-9f14-b39bfe39c248" d="M245,390.47q.06-.69.06-1.38a14.6,14.6,0,0,0-24.82-10.44,8.06,8.06,0,0,0-12.45,6.76,8.18,8.18,0,0,0,.3,2.17,11.88,11.88,0,0,0-7.35,16.17h50.6a9.55,9.55,0,0,0,.82-3.89A9.74,9.74,0,0,0,245,390.47Z"/>
  <path class="ad2c862a-16cc-49d9-9f14-b39bfe39c248" d="M195,390.47q.06-.69.06-1.38a14.6,14.6,0,0,0-24.82-10.44,8.06,8.06,0,0,0-12.45,6.76,8.18,8.18,0,0,0,.3,2.17,11.88,11.88,0,0,0-7.35,16.17h50.6a9.55,9.55,0,0,0,.82-3.89A9.74,9.74,0,0,0,195,390.47Z"/>
  <rect class="addf140d-4c26-416a-9ea8-7c8edb092ee1" x="17.52" y="358.81" width="72.84" height="72.84"/>
  <rect class="addf140d-4c26-416a-9ea8-7c8edb092ee1" x="17.52" y="479.96" width="72.84" height="72.84"/>
  <line class="a4ca20aa-c976-4042-82d3-8ef5bd4111b2" x1="167.13" y1="102.87" x2="167.13" y2="670.92"/>
  <line class="a4ca20aa-c976-4042-82d3-8ef5bd4111b2" x1="167.9" y1="508.85" x2="235.69" y2="508.85"/>
  <line class="a4ca20aa-c976-4042-82d3-8ef5bd4111b2" x1="166.74" y1="339.23" x2="234.53" y2="339.23"/>
  <line class="a4ca20aa-c976-4042-82d3-8ef5bd4111b2" x1="167.51" y1="169.72" x2="235.3" y2="169.72"/>
  <line class="a4ca20aa-c976-4042-82d3-8ef5bd4111b2" x1="169.13" y1="670.92" x2="235.69" y2="508.85"/>
  <line class="a4ca20aa-c976-4042-82d3-8ef5bd4111b2" x1="167.9" y1="508.85" x2="234.53" y2="339.23"/>
  <line class="a4ca20aa-c976-4042-82d3-8ef5bd4111b2" x1="166.74" y1="339.23" x2="235.3" y2="169.72"/>
  <line class="a4ca20aa-c976-4042-82d3-8ef5bd4111b2" x1="76.12" y1="672.82" x2="142.68" y2="510.75"/>
  <line class="a4ca20aa-c976-4042-82d3-8ef5bd4111b2" x1="74.89" y1="510.75" x2="141.52" y2="341.13"/>
  <line class="a4ca20aa-c976-4042-82d3-8ef5bd4111b2" x1="73.73" y1="341.13" x2="142.29" y2="171.61"/>
  <ellipse class="ade1d81c-e13b-48f5-8f82-3631417fe466" cx="145.13" cy="154.71" rx="7.85" ry="2.56"/>
  <line class="a4ca20aa-c976-4042-82d3-8ef5bd4111b2" x1="1.91" y1="674.03" x2="68.47" y2="511.96"/>
  <line class="a4ca20aa-c976-4042-82d3-8ef5bd4111b2" x1="0.68" y1="511.96" x2="67.31" y2="342.35"/>
  <line class="a4ca20aa-c976-4042-82d3-8ef5bd4111b2" x1="-0.49" y1="342.35" x2="68.08" y2="172.83"/>
  <rect class="ac7498af-d94e-4230-9d9c-d7b8a385e342" x="152.47" y="668.58" width="31.33" height="7.07"/>
  <rect class="ac7498af-d94e-4230-9d9c-d7b8a385e342" x="219.03" y="668.23" width="31.33" height="7.07"/>
  <line class="a4ca20aa-c976-4042-82d3-8ef5bd4111b2" x1="139.35" y1="339.47" x2="-0.55" y2="341.05"/>
  <line class="a4ca20aa-c976-4042-82d3-8ef5bd4111b2" x1="139.4" y1="510.99" x2="-0.49" y2="512.57"/>
  <line class="a4ca20aa-c976-4042-82d3-8ef5bd4111b2" x1="139.35" y1="168.92" x2="-0.55" y2="170.51"/>
  <line class="a4ca20aa-c976-4042-82d3-8ef5bd4111b2" x1="141.52" y1="104.07" x2="141.52" y2="672.11"/>
  <line class="a4ca20aa-c976-4042-82d3-8ef5bd4111b2" x1="69.12" y1="102.72" x2="69.12" y2="670.77"/>
  <rect class="ac7498af-d94e-4230-9d9c-d7b8a385e342" x="125.86" y="668.58" width="31.33" height="7.07"/>
  <rect class="ac7498af-d94e-4230-9d9c-d7b8a385e342" x="59.85" y="670.77" width="31.33" height="7.07"/>
  <rect class="ac7498af-d94e-4230-9d9c-d7b8a385e342" x="-2.27" y="670.58" width="31.33" height="7.07"/>
  <ellipse class="ade1d81c-e13b-48f5-8f82-3631417fe466" cx="199.13" cy="154.71" rx="7.85" ry="2.56"/>
  <ellipse class="ade1d81c-e13b-48f5-8f82-3631417fe466" cx="305.13" cy="154.71" rx="7.85" ry="2.56"/>
  <ellipse class="ade1d81c-e13b-48f5-8f82-3631417fe466" cx="256.13" cy="154.71" rx="7.85" ry="2.56"/>
  <g>
    <g>
      <line class="ec826368-d573-4fc5-8c3c-3f0f95d1cac8" x1="296.91" y1="493.34" x2="296.91" y2="516.88"/>
      <path class="f737b823-1898-4f93-8c3a-e16f0a0f654d" d="M315.92,510h-1.33a2.38,2.38,0,0,1-.59-.07,19.89,19.89,0,0,0-4.59-.55h-26.1a20,20,0,0,0-4.67.57,1.54,1.54,0,0,1-.43.05h0a23.89,23.89,0,0,0-23.81,23.82v36.94a23.89,23.89,0,0,0,23.81,23.82h37.71a23.89,23.89,0,0,0,23.82-23.82V533.77A23.89,23.89,0,0,0,315.92,510Z"/>
      <circle class="ecbde28b-515e-4898-9f3b-6908298eb783" cx="296.92" cy="471.91" r="33.97"/>
      <rect class="b10d72dc-5b61-4a3f-9096-a0c0647f28a0" x="279.25" y="465.08" width="7.37" height="3.97" rx="1.48"/>
      <rect class="b10d72dc-5b61-4a3f-9096-a0c0647f28a0" x="307.2" y="465.08" width="7.37" height="3.97" rx="1.48"/>
      <circle class="b53dfcac-3cb9-48e4-b479-53f903f811b4" cx="310.89" cy="467.06" r="1.58"/>
      <line class="ad04f1f8-00ae-43fe-84d4-6ca8805615d9" x1="279.25" y1="458.55" x2="289.37" y2="458.55"/>
      <g class="b61c8615-a130-4e86-85ba-f44cbf01f991">
        <circle class="b53dfcac-3cb9-48e4-b479-53f903f811b4" cx="282.94" cy="467.06" r="1.55"/>
      </g>
      <path class="a32868cb-da2b-4c7b-ba68-146a0165ed7c" d="M299.39,476.05h-2.25a1.5,1.5,0,0,1-1.55-1.52v-2.19"/>
      <path class="f737b823-1898-4f93-8c3a-e16f0a0f654d" d="M283.7,665.54H255.47c0-44.28,9.72-84.35,10.13-86L293,586.23h0C292.85,586.91,283.7,625,283.7,665.54Z"/>
      <path class="f737b823-1898-4f93-8c3a-e16f0a0f654d" d="M338.67,665.54H310.45c0-40.75-9.22-78.93-9.32-79.31l27.41-6.72C329,581.19,338.67,621.26,338.67,665.54Z"/>
      <path class="b70e3503-17e2-4273-938e-72d7da214374" d="M283.8,663.11H252.87a8.77,8.77,0,0,0-8.77,8.77v3h40Z"/>
      <circle class="bab0a2a2-f701-4807-844c-0e0a7d6c27bb" cx="264.11" cy="475.71" r="5.89"/>
      <circle class="bab0a2a2-f701-4807-844c-0e0a7d6c27bb" cx="329.48" cy="475.71" r="5.89"/>
      <line class="ad04f1f8-00ae-43fe-84d4-6ca8805615d9" x1="304.25" y1="458.55" x2="314.37" y2="458.55"/>
      <path class="b70e3503-17e2-4273-938e-72d7da214374" d="M310.46,663.11h30.92a8.77,8.77,0,0,1,8.78,8.77v3h-40Z"/>
      <rect class="a927a944-8fe6-4a73-b22f-07f99692df60" x="227.34" y="443.8" width="14.75" height="14.75" rx="3.73"/>
      <path class="f737b823-1898-4f93-8c3a-e16f0a0f654d" d="M225.56,456.14a103.09,103.09,0,0,0,.56,21.58c2.14,16.56,7.91,29.42,17.13,38.25s21.32,13.18,36,13l-.33-19.1C270.45,510,264,507.72,259,503c-12.37-11.8-12.9-36.6-12.06-45.16Z"/>
      <rect class="a927a944-8fe6-4a73-b22f-07f99692df60" x="345.28" y="586.25" width="14.75" height="14.75" rx="3.73" transform="translate(705.3 1187.24) rotate(-180)"/>
      <path class="f737b823-1898-4f93-8c3a-e16f0a0f654d" d="M364.24,591.9,342.83,590c.83-9.63.3-37.55-12.06-50.83-4.95-5.32-11.47-7.84-19.85-7.71l-.33-22.08a46.32,46.32,0,0,1,36,15.19c9.23,9.93,15,24.42,17.14,43.05A131.1,131.1,0,0,1,364.24,591.9Z"/>
      <rect class="f737b823-1898-4f93-8c3a-e16f0a0f654d" x="256.69" y="577.92" width="80.75" height="31.26" rx="8.45"/>
      <path class="a32868cb-da2b-4c7b-ba68-146a0165ed7c" d="M292.32,492.36a12.37,12.37,0,0,0,9.22,0"/>
      <path class="ade1d81c-e13b-48f5-8f82-3631417fe466" d="M326.94,467.93l-.24.21c-30.41,27.8-58.91.3-59.2,0l-.23-.23-4.16.49a1.46,1.46,0,0,0-1.29,1.46c.24,14.33,5.41,23.79,9.77,28.17,6,6.05,14.59,9.12,25.48,9.13s19.46-3.08,25.47-9.13c4.37-4.39,9.55-13.64,9.77-28a1.45,1.45,0,0,0-1.22-1.46Zm-24.49,26.91a15.42,15.42,0,0,1-5.41,1,14.41,14.41,0,0,1-5.75-1.14,2.69,2.69,0,0,1,2.31-4.86,9.71,9.71,0,0,0,7.11-.07,2.68,2.68,0,0,1,3.54,1.72A2.82,2.82,0,0,1,302.45,494.84Z"/>
      <path class="ef0d4adb-5eb5-44d3-9ccf-145b157e8eed" d="M297.08,452.61H268.62l-4.51,22.59V460.6A27.66,27.66,0,0,1,291.59,433h11.1a27.66,27.66,0,0,1,27.48,27.65v14.6l-4.51-22.59H297.08"/>
      <path class="a142a8e1-3929-4998-96e1-7d54fc500d35" d="M256.69,589.45A139.4,139.4,0,0,0,297.07,597a139.28,139.28,0,0,0,40.37-7.57v0a13.41,13.41,0,0,0-1-5.39,135.81,135.81,0,0,1-39.37,7.38,135.81,135.81,0,0,1-39.37-7.38,13.3,13.3,0,0,0-1,5.39Z"/>
      <g>
        <rect class="b70e3503-17e2-4273-938e-72d7da214374" x="269.52" y="581.1" width="2.41" height="24.77" rx="0.22" transform="translate(106.62 -37.85) rotate(9.95)"/>
        <path class="b52b9107-d3ad-4093-9521-c9e792853e08" d="M267.92,609.5a2.32,2.32,0,1,1,2.68-1.88A2.33,2.33,0,0,1,267.92,609.5Zm.59-3.38a1.11,1.11,0,1,0,.9,1.29A1.12,1.12,0,0,0,268.51,606.12Z"/>
        <g>
          <path class="b52b9107-d3ad-4093-9521-c9e792853e08" d="M273.35,577.82l.52,2.24a.57.57,0,0,1-.42.69l-1,.25a.57.57,0,0,1-.69-.43l-.54-2.29a2.76,2.76,0,0,0,1.14,5,2.76,2.76,0,0,0,1-5.42Z"/>
          <path class="b52b9107-d3ad-4093-9521-c9e792853e08" d="M272.29,583.41a2.94,2.94,0,0,1-1.21-5.27.18.18,0,0,1,.16,0,.16.16,0,0,1,.11.12l.53,2.29a.41.41,0,0,0,.49.3l1-.24a.42.42,0,0,0,.3-.49l-.53-2.24a.16.16,0,0,1,.05-.16.17.17,0,0,1,.15-.05,2.93,2.93,0,0,1-1.09,5.76Zm-1.21-4.82a2.51,2.51,0,0,0-.83,1.48,2.58,2.58,0,1,0,3.33-2l.46,2a.74.74,0,0,1-.56.9l-1,.24a.74.74,0,0,1-.9-.55Z"/>
        </g>
      </g>
      <g>
        <rect class="b70e3503-17e2-4273-938e-72d7da214374" x="324.25" y="596.04" width="12.79" height="0.92" transform="translate(927.14 265.86) rotate(90)"/>
        <path class="b70e3503-17e2-4273-938e-72d7da214374" d="M331.32,605.76v-2.09l-.23-1.21a.13.13,0,0,0-.13-.12h-.62a.14.14,0,0,0-.13.12l-.23,1.21v2.09a.13.13,0,0,0,.14.13h1.07A.14.14,0,0,0,331.32,605.76Z"/>
        <path class="b52b9107-d3ad-4093-9521-c9e792853e08" d="M330,603.7v2.06a.13.13,0,0,0,.14.13h1.07a.14.14,0,0,0,.14-.13v-2.09H330Z"/>
        <rect class="a5e528e3-8ab7-42f8-b651-897940b5239b" x="322.9" y="582.4" width="15.5" height="3.47" rx="1.12" transform="translate(914.78 253.48) rotate(90)"/>
        <rect class="b9645fe4-b9df-4ee7-9faa-779330049141" x="325.28" y="583.89" width="12.91" height="0.46" rx="0.17" transform="translate(915.85 252.39) rotate(90)"/>
        <rect class="b9645fe4-b9df-4ee7-9faa-779330049141" x="324.19" y="583.89" width="12.91" height="0.46" rx="0.17" transform="translate(914.76 253.48) rotate(90)"/>
        <rect class="b9645fe4-b9df-4ee7-9faa-779330049141" x="323.1" y="583.89" width="12.91" height="0.46" rx="0.17" transform="translate(913.67 254.56) rotate(90)"/>
      </g>
      <g>
        <rect class="b70e3503-17e2-4273-938e-72d7da214374" x="264.79" y="577.42" width="3.32" height="26" rx="0.3"/>
        <path class="b52b9107-d3ad-4093-9521-c9e792853e08" d="M266.45,608.74a3.19,3.19,0,1,1,3.18-3.19A3.19,3.19,0,0,1,266.45,608.74Zm0-4.71a1.53,1.53,0,1,0,1.52,1.52A1.53,1.53,0,0,0,266.45,604Z"/>
        <g>
          <path class="b52b9107-d3ad-4093-9521-c9e792853e08" d="M266.28,572.61l1.24,2.91a.79.79,0,0,1-.41,1l-1.35.57a.79.79,0,0,1-1-.42l-1.27-3a3.8,3.8,0,1,0,2.83-1.14Z"/>
          <path class="b52b9107-d3ad-4093-9521-c9e792853e08" d="M266.17,580.42a4,4,0,0,1-2.89-6.83.26.26,0,0,1,.22-.07.22.22,0,0,1,.17.14l1.27,3a.56.56,0,0,0,.73.29l1.34-.57a.56.56,0,0,0,.3-.73l-1.25-2.91a.24.24,0,0,1,0-.22.25.25,0,0,1,.21-.11,4,4,0,0,1-.12,8Zm-2.79-6.23a3.55,3.55,0,1,0,6.34,2.2,3.52,3.52,0,0,0-3.07-3.51l1.09,2.54a1,1,0,0,1-.54,1.36l-1.35.57a1,1,0,0,1-1.35-.54Z"/>
        </g>
      </g>
      <path class="a142a8e1-3929-4998-96e1-7d54fc500d35" d="M278,613H257.78a1.08,1.08,0,0,1-1.09-1.08V589.21c0-.6,1.06-2.94,1.66-2.94l19.71,5.32c.6,0,1-.15,1,.45v19.88A1.08,1.08,0,0,1,278,613Z"/>
      <rect class="f752e0f7-7d95-429a-8b9d-b2afb9fa57f1" x="315.99" y="588.1" width="2.59" height="28.03" rx="0.89"/>
      <rect class="aa469853-dc35-4c71-b1aa-7c6cfad85614" x="311.5" y="586.43" width="8.23" height="2.92" rx="1.08"/>
      <path class="a142a8e1-3929-4998-96e1-7d54fc500d35" d="M314.05,589.77c1.59,0,6.9.06,7.4-.19s.34,3.33.34,3.33-2.45,1.84-10.21,1.26S314.05,589.77,314.05,589.77Z"/>
      <rect class="aa469853-dc35-4c71-b1aa-7c6cfad85614" x="310.46" y="585.88" width="3" height="4.44" rx="0.92"/>
      <path class="aa469853-dc35-4c71-b1aa-7c6cfad85614" d="M318.36,586.43a7.4,7.4,0,0,1,6.94,4.71h-.91c-3.35-3.81-4.23-1.8-5.9-1.8S313.05,586.43,318.36,586.43Z"/>
      <g>
        <rect class="b70e3503-17e2-4273-938e-72d7da214374" x="320.89" y="579.49" width="12.79" height="0.92" transform="translate(-158.75 1035.18) rotate(-103.69)"/>
        <path class="b70e3503-17e2-4273-938e-72d7da214374" d="M324.44,571.11l.49,2v0l.51,1.13a.12.12,0,0,0,.15.07l.6-.14a.14.14,0,0,0,.1-.14l-.06-1.24v0l-.48-2a.15.15,0,0,0-.17-.11l-1,.26A.13.13,0,0,0,324.44,571.11Z"/>
        <path class="b52b9107-d3ad-4093-9521-c9e792853e08" d="M326.23,572.8l-.48-2a.15.15,0,0,0-.17-.11l-1,.26a.13.13,0,0,0-.1.16l.49,2v0l1.3-.32Z"/>
        <rect class="a5e528e3-8ab7-42f8-b651-897940b5239b" x="322.45" y="590.24" width="15.5" height="3.47" rx="1.12" transform="translate(-166.82 1052.87) rotate(-103.69)"/>
        <rect class="b9645fe4-b9df-4ee7-9faa-779330049141" x="322.7" y="592.01" width="12.91" height="0.46" rx="0.17" transform="translate(-168.37 1052.19) rotate(-103.69)"/>
        <rect class="b9645fe4-b9df-4ee7-9faa-779330049141" x="323.76" y="591.75" width="12.91" height="0.46" rx="0.17" transform="translate(-166.81 1052.9) rotate(-103.69)"/>
        <rect class="b9645fe4-b9df-4ee7-9faa-779330049141" x="324.82" y="591.49" width="12.91" height="0.46" rx="0.17" transform="translate(-165.25 1053.61) rotate(-103.69)"/>
      </g>
      <path class="a6aed222-d888-4bea-a81f-67bda2d0ab38" d="M326.35,611.37h11c.32,0,.59-.49.59-1.09V587.57c0-.6-.58-2.94-.9-2.94L326,587.89c-.33,0-.53-.15-.53.45l.33,21.94C325.76,610.88,326,611.37,326.35,611.37Z"/>
    </g>
    <g>
      <g>
        <path class="a8fc7fbc-da9e-4420-a05e-d587fdffe1e9" d="M292.48,532.3v-.81c0-.94-.35-1.29-1.28-1.41a12.28,12.28,0,0,0-4.43.47c-.52.12-.57.11-.67-.39-.25-1.21-.49-1.1.86-1.42a12.87,12.87,0,0,1,5.59-.27,2.36,2.36,0,0,1,2.11,1.72,4.38,4.38,0,0,1,.12,1c0,2,0,5,0,5.55s0,1.08-.05,1.3c-.09.6-.39.75-.9,1a7.5,7.5,0,0,1-2.39.48,14.27,14.27,0,0,1-3.52-.14c-2.05-.35-2.77-1.75-2.59-3.72.16-1.71,1-2.41,2.93-2.67.7-.09,1.4-.22,2.1-.34Zm0,1.62c-1.28.23-2.53.42-3.76.68a1.39,1.39,0,0,0-.77.55,1.82,1.82,0,0,0,1.11,2.73,7,7,0,0,0,3.42-.2Z"/>
        <path class="a8fc7fbc-da9e-4420-a05e-d587fdffe1e9" d="M313,530.39v8.39c0,.5-.06.55-.58.56a12,12,0,0,0-1.2,0c-.51,0-.56-.05-.57-.57v-7.19c0-.45,0-.91,0-1.37a1.07,1.07,0,0,1,.79-1.13,17,17,0,0,1,2.31-.58,13.35,13.35,0,0,1,3.79-.13A2.49,2.49,0,0,1,320,531c.05,2.64,0,5.28,0,7.92,0,.3-.12.44-.43.43s-.92,0-1.37,0-.54-.16-.54-.56c0-2.28,0-4.57,0-6.85,0-.2,0-.4,0-.6a1.25,1.25,0,0,0-1.34-1.34A11.73,11.73,0,0,0,313,530.39Z"/>
        <path class="a8fc7fbc-da9e-4420-a05e-d587fdffe1e9" d="M281.51,539.42a10.06,10.06,0,0,1-3.24,0l-.13,0a3.54,3.54,0,0,1-2.94-3,11.37,11.37,0,0,1,0-4.79,3.67,3.67,0,0,1,3.28-3.22,9.92,9.92,0,0,1,4.56.32c.53.17.58.26.45.81-.26,1.09-.07.92-1.16.72a13.57,13.57,0,0,0-2.62-.22,2.15,2.15,0,0,0-2.17,1.88,10,10,0,0,0-.06,3.65c.26,1.65,1,2.28,2.7,2.28a13.49,13.49,0,0,0,2.52-.33c.54-.1.58-.11.7.4.26,1.06.25,1.12-.83,1.34C282.19,539.32,281.85,539.37,281.51,539.42Z"/>
        <path class="a8fc7fbc-da9e-4420-a05e-d587fdffe1e9" d="M304.28,530.52v8.22c0,.55,0,.59-.58.6s-.85,0-1.28,0-.49-.13-.48-.48c0-.69,0-1.39,0-2.09v-6.2c0-1.1.19-1.35,1.25-1.69a19.57,19.57,0,0,1,5.4-.59c.37,0,.52,0,.53.53s0,.68,0,.93c0,.48-.08.66-.72.61A26.94,26.94,0,0,0,304.28,530.52Z"/>
        <path class="a8fc7fbc-da9e-4420-a05e-d587fdffe1e9" d="M299.52,526.49c0,.35-.15.49-.43.5h-1.41a.43.43,0,0,1-.47-.48v-1.46a.39.39,0,0,1,.42-.43h1.49c.28,0,.4.08.4.45Z"/>
      </g>
      <path class="a8fc7fbc-da9e-4420-a05e-d587fdffe1e9" d="M299,528.67h-1.25a.54.54,0,0,0-.54.53v8.36l1.16-1.1,1.17,1.1V529.2A.54.54,0,0,0,299,528.67Z"/>
    </g>
    <path class="a927a944-8fe6-4a73-b22f-07f99692df60" d="M309,509.33c0,.5-5.33.9-12,.9s-12.14-.4-12.14-.9,5.43-.91,12.14-.91S309,508.83,309,509.33Z"/>
  </g>
  <line class="a4ca20aa-c976-4042-82d3-8ef5bd4111b2" x1="235.69" y1="102.72" x2="235.69" y2="670.77"/>
  <g>
    <path class="ef977ee9-51c4-4c51-bd25-22ce729bb717" d="M72.26,47.08a17.36,17.36,0,0,1,1.45-2.89,4.27,4.27,0,0,0,.56-3.1A4.25,4.25,0,0,0,72.62,39c-2.13-1.6-5.35-2.25-7.37-.51s-1.92,4.53-1.42,7,1.4,4.94.79,7.36-2.54,4.19-4,6.22a15.87,15.87,0,0,0-2.43,5.4,27.66,27.66,0,0,0-.54,6.74c0,3.44.33,7.14,2.49,9.83,2.57,3.19,7.08,4.07,11.17,3.86a16.67,16.67,0,0,0,7.19-1.81,9,9,0,0,0,4.54-5.67,11.34,11.34,0,0,0,0-3.9,31.48,31.48,0,0,0-5.77-13.81c-1.58-2.24-3.38-4.37-4.45-6.89s-1.29-5.6.26-7.86"/>
    <path class="a8fc7fbc-da9e-4420-a05e-d587fdffe1e9" d="M73.3,42.78c3.09-.23,6.73-.26,8.68,1.84l-9.08-.13,0-1.57"/>
    <circle class="a9a6cadc-7098-485a-8656-bd21a248fd50" cx="71.34" cy="41.36" r="0.85"/>
    <path class="bb095c2c-3d7c-4d5e-a784-2e894b36c881" d="M67.26,83.6a122.09,122.09,0,0,0,.46,16.78"/>
    <path class="bb095c2c-3d7c-4d5e-a784-2e894b36c881" d="M73.61,83.6a122.08,122.08,0,0,1-.45,16.78"/>
    <path class="a8fc7fbc-da9e-4420-a05e-d587fdffe1e9" d="M65.47,103.06a1.65,1.65,0,0,1,1.21-.17,1.61,1.61,0,0,1,1,.72,1.19,1.19,0,0,1,.52-.72,1,1,0,0,1,.39-.08,5.59,5.59,0,0,1,1,0c-.16,0-.45-.42-.55-.53a7.37,7.37,0,0,1-.49-.65c-.3-.46-.51-1-.8-1.42a11.8,11.8,0,0,0-1.09,1.34Z"/>
    <path class="a8fc7fbc-da9e-4420-a05e-d587fdffe1e9" d="M71,102.9a1.69,1.69,0,0,1,1.21-.17,1.75,1.75,0,0,1,1,.72,1.21,1.21,0,0,1,.52-.72,1,1,0,0,1,.39-.07,5.47,5.47,0,0,1,1,0c-.16,0-.44-.41-.55-.53a7.79,7.79,0,0,1-.48-.65c-.3-.45-.52-1-.81-1.42a15.43,15.43,0,0,0-1.08,1.34Z"/>
  </g>
</svg>
