<svg id="f7a72a0f-00d0-4202-91eb-feb300872008" data-name="Layer 1" xmlns="http://www.w3.org/2000/svg" xmlns:xlink="http://www.w3.org/1999/xlink" viewBox="0 0 465.5 685.01">
  <defs>
    <style>
      .a3f6f863-3474-464b-9395-0dae9471be05, .a40919e6-3257-48ba-8c01-691d3d6e3b26, .a4193705-b8f2-4f25-b002-3df60da421cc, .a61c0f09-3f81-48a9-ac4e-55c40a2ead7d, .afb8531e-0410-4c0b-a963-ecdf3c78b02b, .b1a03174-6153-4320-ab32-6d2cdd018fdc, .bc6fa41b-9063-42d3-94dd-2947adac4085, .bd8060b9-7242-4a51-a201-f34d265a3ed1, .be8491d2-be1c-4164-80d9-bf64c75b3be8, .bf2bb1cd-e81d-42e3-9588-00049bb767fa, .f4b083c9-87c8-4667-9177-1fb0f9d846cf, .f58b35b4-c0be-4bf2-9da5-a559f7574d8e, .f76097bf-1a7a-4524-aa10-8d12d6ea0e0b, .f98a3e50-a9b8-492f-b33c-a0180e8d8276 {
        fill: none;
      }

      .a1e2feef-8380-41e9-a46c-e8fb060be35b, .a3e34baf-a581-42c3-97f3-4465853b6cab, .a5a5eb65-85fc-4061-97d3-3c3cea12ffde, .b02ee871-aa8f-4138-b5e4-8f70599b1d21 {
        fill: #ede8db;
      }

      .a1e2feef-8380-41e9-a46c-e8fb060be35b, .a3e34baf-a581-42c3-97f3-4465853b6cab {
        stroke: #ede8db;
      }

      .a1e2feef-8380-41e9-a46c-e8fb060be35b, .a3e34baf-a581-42c3-97f3-4465853b6cab, .a3e53e79-dd6e-4375-a27d-dded84d13daf, .a40919e6-3257-48ba-8c01-691d3d6e3b26, .a4193705-b8f2-4f25-b002-3df60da421cc, .b1a03174-6153-4320-ab32-6d2cdd018fdc, .b70435a0-ec4b-4534-823f-459e3cf5671c, .bd8060b9-7242-4a51-a201-f34d265a3ed1, .be8491d2-be1c-4164-80d9-bf64c75b3be8, .bf2bb1cd-e81d-42e3-9588-00049bb767fa, .f4b083c9-87c8-4667-9177-1fb0f9d846cf, .f58b35b4-c0be-4bf2-9da5-a559f7574d8e, .f76097bf-1a7a-4524-aa10-8d12d6ea0e0b, .fcd4fdc9-cf04-4c6d-abdf-c43c638958b0 {
        stroke-linecap: round;
      }

      .a1e2feef-8380-41e9-a46c-e8fb060be35b, .a3e34baf-a581-42c3-97f3-4465853b6cab, .a3e53e79-dd6e-4375-a27d-dded84d13daf, .a40919e6-3257-48ba-8c01-691d3d6e3b26, .a4193705-b8f2-4f25-b002-3df60da421cc, .a61c0f09-3f81-48a9-ac4e-55c40a2ead7d, .b1a03174-6153-4320-ab32-6d2cdd018fdc, .b70435a0-ec4b-4534-823f-459e3cf5671c, .be8491d2-be1c-4164-80d9-bf64c75b3be8, .bf2bb1cd-e81d-42e3-9588-00049bb767fa, .bfa9e636-c1d6-40ed-a481-5451660cd5f8, .f4b083c9-87c8-4667-9177-1fb0f9d846cf, .f58b35b4-c0be-4bf2-9da5-a559f7574d8e, .f76097bf-1a7a-4524-aa10-8d12d6ea0e0b, .fcd4fdc9-cf04-4c6d-abdf-c43c638958b0 {
        stroke-linejoin: round;
      }

      .a1e2feef-8380-41e9-a46c-e8fb060be35b {
        stroke-width: 1px;
      }

      .a3e34baf-a581-42c3-97f3-4465853b6cab {
        stroke-width: 1.21px;
      }

      .ba9af3a0-1734-4d63-984c-988ad6a79c73 {
        fill: #3c5743;
      }

      .a59d27a5-d01a-4234-9d48-953cb2375bf2 {
        fill: #062838;
      }

      .bb15a2ce-5e06-4781-b8d9-3fcc87478ef1 {
        fill: #aeaaa1;
      }

      .b91c64e0-8acd-4739-9a27-5c7c6b44879a {
        fill: #ddd;
      }

      .fcd4fdc9-cf04-4c6d-abdf-c43c638958b0 {
        fill: #062837;
        stroke-width: 7.3px;
      }

      .e47ed97b-f1b4-4ccf-9f4d-41f8ee8c9ff0, .fcd4fdc9-cf04-4c6d-abdf-c43c638958b0 {
        stroke: #062837;
      }

      .ab748845-f743-439e-83ec-a55c7d93b040 {
        fill: #89563c;
      }

      .e6b48d72-eecb-44f8-b658-263e63e46be6 {
        fill: #77aaa2;
      }

      .a5cfc6f4-dce9-491e-b820-6e8fd7befa9b, .a5fbf88a-b794-4695-a801-5ae78d28fcad, .b02ee871-aa8f-4138-b5e4-8f70599b1d21, .feaee7d2-db51-4d0e-b25b-2c744fd8e4b5 {
        fill-rule: evenodd;
      }

      .a95205e1-bae1-4fb3-8e47-76aea9dcb94c {
        fill: #002838;
      }

      .bf91905a-a00c-4f60-a039-6bb50dc1d970 {
        fill: #a09b90;
      }

      .a33397e7-394a-452b-9550-02d015400f88, .af7811fe-0ea4-493d-abb0-1ee67da4d01e, .b374eaa6-a937-4c34-9922-137c68aa8c41, .b4dfc048-196f-4656-b8d3-5411d75eccd4, .b5dce50c-ad6a-4aa7-b955-7ff859982e0f, .bfa9e636-c1d6-40ed-a481-5451660cd5f8, .feaee7d2-db51-4d0e-b25b-2c744fd8e4b5 {
        fill: #d4a455;
      }

      .a506c3b0-8102-4874-91ea-a0757f342bc7, .a5fbf88a-b794-4695-a801-5ae78d28fcad {
        fill: #ea5736;
      }

      .a33397e7-394a-452b-9550-02d015400f88, .a61c0f09-3f81-48a9-ac4e-55c40a2ead7d, .b374eaa6-a937-4c34-9922-137c68aa8c41, .b4dfc048-196f-4656-b8d3-5411d75eccd4, .b5dce50c-ad6a-4aa7-b955-7ff859982e0f, .bfa9e636-c1d6-40ed-a481-5451660cd5f8 {
        stroke: #d4a455;
      }

      .a61c0f09-3f81-48a9-ac4e-55c40a2ead7d {
        stroke-width: 16.65px;
      }

      .a3e53e79-dd6e-4375-a27d-dded84d13daf, .a5cfc6f4-dce9-491e-b820-6e8fd7befa9b, .b7f35918-8fa8-486b-9b54-a5c6e5d6addc {
        fill: #ece8dc;
      }

      .a3e53e79-dd6e-4375-a27d-dded84d13daf, .bc6fa41b-9063-42d3-94dd-2947adac4085 {
        stroke: #ece8dc;
      }

      .a33397e7-394a-452b-9550-02d015400f88, .a3f6f863-3474-464b-9395-0dae9471be05, .b374eaa6-a937-4c34-9922-137c68aa8c41, .b4dfc048-196f-4656-b8d3-5411d75eccd4, .b5dce50c-ad6a-4aa7-b955-7ff859982e0f, .bc6fa41b-9063-42d3-94dd-2947adac4085, .bd8060b9-7242-4a51-a201-f34d265a3ed1, .e47ed97b-f1b4-4ccf-9f4d-41f8ee8c9ff0 {
        stroke-miterlimit: 10;
      }

      .bc6fa41b-9063-42d3-94dd-2947adac4085 {
        stroke-width: 10.44px;
      }

      .bbd8ef75-eda4-4318-b1c3-79cc5f1a2b8c {
        fill: #2d2e2c;
      }

      .a3e53e79-dd6e-4375-a27d-dded84d13daf {
        stroke-width: 4.92px;
      }

      .e9b83a4d-1070-431e-a62c-4e33f29927c6 {
        clip-path: url(#a6eb9775-f198-4a4d-b930-8b3980d05f0c);
      }

      .a40919e6-3257-48ba-8c01-691d3d6e3b26, .be8491d2-be1c-4164-80d9-bf64c75b3be8, .bf2bb1cd-e81d-42e3-9588-00049bb767fa, .f76097bf-1a7a-4524-aa10-8d12d6ea0e0b {
        stroke: #31373a;
      }

      .f76097bf-1a7a-4524-aa10-8d12d6ea0e0b {
        stroke-width: 2.77px;
      }

      .b4dfc048-196f-4656-b8d3-5411d75eccd4 {
        stroke-width: 1.39px;
      }

      .bf2bb1cd-e81d-42e3-9588-00049bb767fa {
        stroke-width: 2.68px;
      }

      .ae30e621-9fec-4417-aa46-9b9fff36dc35 {
        fill: #d4a554;
      }

      .e2d203d4-6112-4c3d-bddd-743996be387e {
        fill: #dcd7cb;
      }

      .a740c879-72c6-4e33-b208-d6c08ff680d7 {
        fill: #4d4d4c;
      }

      .a4193705-b8f2-4f25-b002-3df60da421cc, .b1a03174-6153-4320-ab32-6d2cdd018fdc, .b70435a0-ec4b-4534-823f-459e3cf5671c {
        stroke: #868072;
      }

      .a4193705-b8f2-4f25-b002-3df60da421cc {
        stroke-width: 2.69px;
      }

      .a3cebcb0-df15-44f4-aaf4-f733d101d8e9, .b70435a0-ec4b-4534-823f-459e3cf5671c {
        fill: #868072;
      }

      .b0f0d5e6-eb2d-44c5-9f66-b892877a794f {
        fill: #3d5845;
      }

      .b1a03174-6153-4320-ab32-6d2cdd018fdc {
        stroke-width: 2.63px;
      }

      .a33397e7-394a-452b-9550-02d015400f88 {
        stroke-width: 1.23px;
      }

      .b70435a0-ec4b-4534-823f-459e3cf5671c {
        stroke-width: 4.05px;
      }

      .b9b91c66-7177-47a3-8666-ff7ce05eafda {
        clip-path: url(#f109bb18-46f1-43d4-8bba-da3dbb175962);
      }

      .a40919e6-3257-48ba-8c01-691d3d6e3b26 {
        stroke-width: 2.29px;
      }

      .b374eaa6-a937-4c34-9922-137c68aa8c41 {
        stroke-width: 1.14px;
      }

      .b0e31df3-94e7-4d68-8f3b-8224bb1b97b6 {
        fill: #cec9be;
      }

      .a3f6f863-3474-464b-9395-0dae9471be05 {
        stroke: #e0e0e0;
        stroke-width: 0.93px;
      }

      .a761e1af-97de-4835-b1fa-da2bf5fc8934 {
        fill: #d5a555;
      }

      .adb6e87c-a3d3-47fb-9e1a-3a2646a32552 {
        fill: #2e2d2c;
      }

      .bd8060b9-7242-4a51-a201-f34d265a3ed1 {
        stroke: #30383b;
      }

      .bd8060b9-7242-4a51-a201-f34d265a3ed1, .f58b35b4-c0be-4bf2-9da5-a559f7574d8e {
        stroke-width: 1.92px;
      }

      .f4b083c9-87c8-4667-9177-1fb0f9d846cf {
        stroke: #89563c;
        stroke-width: 3.45px;
      }

      .a10c8bf8-5a8d-4013-b4a9-bb4bec97eb3e {
        clip-path: url(#a8725d36-3e5e-40b1-98d6-552950a7da5f);
      }

      .be8491d2-be1c-4164-80d9-bf64c75b3be8 {
        stroke-width: 2.65px;
      }

      .b5dce50c-ad6a-4aa7-b955-7ff859982e0f {
        stroke-width: 1.37px;
      }

      .a96b056b-13b2-48d3-b48d-0ab5725f5f2f, .e47ed97b-f1b4-4ccf-9f4d-41f8ee8c9ff0 {
        fill: #052837;
      }

      .e47ed97b-f1b4-4ccf-9f4d-41f8ee8c9ff0 {
        stroke-width: 2.33px;
      }

      .afb8531e-0410-4c0b-a963-ecdf3c78b02b {
        stroke: #77aaa2;
        stroke-linejoin: bevel;
        stroke-width: 3.83px;
      }

      .f58b35b4-c0be-4bf2-9da5-a559f7574d8e {
        stroke: #afaca3;
      }

      .a3a52b23-1369-477d-b8c5-72aed2320ef0 {
        fill: #30383b;
      }

      .bfa9e636-c1d6-40ed-a481-5451660cd5f8 {
        stroke-width: 17.09px;
      }
    </style>
    <clipPath id="a6eb9775-f198-4a4d-b930-8b3980d05f0c">
      <rect class="f98a3e50-a9b8-492f-b33c-a0180e8d8276" x="309.33" y="303.04" width="8.69" height="4.68" rx="1.35"/>
    </clipPath>
    <clipPath id="f109bb18-46f1-43d4-8bba-da3dbb175962">
      <rect class="f98a3e50-a9b8-492f-b33c-a0180e8d8276" x="202.93" y="317.32" width="6.97" height="3.97" rx="1.35"/>
    </clipPath>
    <clipPath id="a8725d36-3e5e-40b1-98d6-552950a7da5f">
      <rect class="f98a3e50-a9b8-492f-b33c-a0180e8d8276" x="112.86" y="354.64" width="8.31" height="4.48" rx="1.3"/>
    </clipPath>
  </defs>
  <title>screen-13</title>
  <rect class="a5a5eb65-85fc-4061-97d3-3c3cea12ffde" x="-0.1" y="-97.6" width="465.11" height="2577.43"/>
  <rect class="a1e2feef-8380-41e9-a46c-e8fb060be35b" x="175.29" y="189.87" width="14.28" height="23.02"/>
  <rect class="a1e2feef-8380-41e9-a46c-e8fb060be35b" x="213.59" y="189.87" width="14.28" height="23.02"/>
  <rect class="a1e2feef-8380-41e9-a46c-e8fb060be35b" x="175.29" y="230.76" width="14.28" height="23.02"/>
  <rect class="a1e2feef-8380-41e9-a46c-e8fb060be35b" x="250.29" y="230.76" width="14.28" height="23.02"/>
  <rect class="a3e34baf-a581-42c3-97f3-4465853b6cab" x="213.59" y="230.76" width="14.28" height="33.92"/>
  <rect class="a1e2feef-8380-41e9-a46c-e8fb060be35b" x="37.31" y="189.87" width="14.28" height="23.02"/>
  <rect class="a1e2feef-8380-41e9-a46c-e8fb060be35b" x="75.61" y="189.87" width="14.28" height="23.02"/>
  <rect class="a1e2feef-8380-41e9-a46c-e8fb060be35b" x="112.31" y="189.87" width="14.28" height="23.02"/>
  <rect class="a1e2feef-8380-41e9-a46c-e8fb060be35b" x="37.31" y="230.76" width="14.28" height="23.02"/>
  <rect class="a1e2feef-8380-41e9-a46c-e8fb060be35b" x="112.31" y="230.76" width="14.28" height="23.02"/>
  <path class="ba9af3a0-1734-4d63-984c-988ad6a79c73" d="M0,2.64C44.05,4,84.69-.19,128.69,0L329.52.89l130.76.57h0L458,685,.9,684.16"/>
  <path class="ba9af3a0-1734-4d63-984c-988ad6a79c73" d="M417.65,690.51c-50.5-156.66-55.07-321-105.57-477.71-16.23-50.34,4.86-91-7.92-142.32C300.84,57.14,291.66,19,308,12.85,318.72,8.84,291.69-1,303.28-1L467.08.62l-1,683.54-324.83,4"/>
  <rect class="a3e34baf-a581-42c3-97f3-4465853b6cab" x="75.61" y="230.76" width="14.28" height="33.92"/>
  <rect class="a59d27a5-d01a-4234-9d48-953cb2375bf2" x="0.9" y="684.16" width="465.16" height="46.54"/>
  <path class="bb15a2ce-5e06-4781-b8d9-3fcc87478ef1" d="M443.41,543.39c7.74-83-22.92-164.44-31.19-247.41-2.5-25-3-50.25-3.4-75.41-1-54.78-1.94-109.75,4.3-164.19,2.43-21.21,7.23-44.5,24.41-57.19L467.05.42,465.52,535Z"/>
  <rect class="bb15a2ce-5e06-4781-b8d9-3fcc87478ef1" x="0.91" y="535.15" width="464.6" height="149.86"/>
  <rect class="b91c64e0-8acd-4739-9a27-5c7c6b44879a" x="1.92" y="-97.74" width="465.11" height="98.36"/>
  <g>
    <rect class="fcd4fdc9-cf04-4c6d-abdf-c43c638958b0" x="27.34" y="122.7" width="367.2" height="407.5"/>
    <polyline class="ab748845-f743-439e-83ec-a55c7d93b040" points="300.74 42.33 211.82 42.33 50.02 42.33 7.74 125.81 211.82 125.81 415.9 125.81 373.63 42.33 347.39 42.33"/>
    <rect class="e6b48d72-eecb-44f8-b658-263e63e46be6" x="46.72" y="334.37" width="43.54" height="43.54"/>
    <rect class="e6b48d72-eecb-44f8-b658-263e63e46be6" x="103.89" y="334.37" width="43.54" height="43.54"/>
    <rect class="e6b48d72-eecb-44f8-b658-263e63e46be6" x="46.72" y="390.03" width="43.54" height="43.54"/>
    <rect class="e6b48d72-eecb-44f8-b658-263e63e46be6" x="103.89" y="390.03" width="43.54" height="43.54"/>
    <rect class="e6b48d72-eecb-44f8-b658-263e63e46be6" x="160.72" y="334.37" width="43.54" height="43.54"/>
    <rect class="e6b48d72-eecb-44f8-b658-263e63e46be6" x="217.89" y="334.37" width="43.54" height="43.54"/>
    <rect class="e6b48d72-eecb-44f8-b658-263e63e46be6" x="160.72" y="390.03" width="43.54" height="43.54"/>
    <rect class="e6b48d72-eecb-44f8-b658-263e63e46be6" x="217.89" y="390.03" width="43.54" height="43.54"/>
    <rect class="e6b48d72-eecb-44f8-b658-263e63e46be6" x="46.72" y="223.37" width="43.54" height="43.54"/>
    <rect class="e6b48d72-eecb-44f8-b658-263e63e46be6" x="103.89" y="223.37" width="43.54" height="43.54"/>
    <rect class="e6b48d72-eecb-44f8-b658-263e63e46be6" x="46.72" y="279.03" width="43.54" height="43.54"/>
    <rect class="e6b48d72-eecb-44f8-b658-263e63e46be6" x="103.89" y="279.03" width="43.54" height="43.54"/>
    <rect class="e6b48d72-eecb-44f8-b658-263e63e46be6" x="160.72" y="223.37" width="43.54" height="43.54"/>
    <rect class="e6b48d72-eecb-44f8-b658-263e63e46be6" x="217.89" y="223.37" width="43.54" height="43.54"/>
    <rect class="e6b48d72-eecb-44f8-b658-263e63e46be6" x="160.72" y="279.03" width="43.54" height="43.54"/>
    <rect class="e6b48d72-eecb-44f8-b658-263e63e46be6" x="217.89" y="279.03" width="43.54" height="43.54"/>
    <rect class="e6b48d72-eecb-44f8-b658-263e63e46be6" x="274.89" y="334.37" width="43.54" height="43.54"/>
    <rect class="e6b48d72-eecb-44f8-b658-263e63e46be6" x="274.89" y="390.03" width="43.54" height="43.54"/>
    <rect class="e6b48d72-eecb-44f8-b658-263e63e46be6" x="274.89" y="223.37" width="43.54" height="43.54"/>
    <rect class="e6b48d72-eecb-44f8-b658-263e63e46be6" x="274.89" y="279.03" width="43.54" height="43.54"/>
    <rect class="e6b48d72-eecb-44f8-b658-263e63e46be6" x="331.89" y="334.37" width="43.54" height="43.54"/>
    <rect class="e6b48d72-eecb-44f8-b658-263e63e46be6" x="331.89" y="390.03" width="43.54" height="43.54"/>
    <rect class="e6b48d72-eecb-44f8-b658-263e63e46be6" x="331.89" y="223.37" width="43.54" height="43.54"/>
    <rect class="e6b48d72-eecb-44f8-b658-263e63e46be6" x="331.89" y="279.03" width="43.54" height="43.54"/>
  </g>
  <g>
    <g>
      <path class="b02ee871-aa8f-4138-b5e4-8f70599b1d21" d="M182.37,168.79c0-1.38,0-2.56,0-3.75,0-4.42-1.61-6-5.94-6.58-7.06-.9-13.84.53-20.61,2.16-2.41.58-2.64.53-3.12-1.81-1.15-5.6-2.26-5.11,4-6.61,8.56-2,17.24-3,26-1.24,4.64.93,8.55,2.95,9.81,8a20.25,20.25,0,0,1,.59,4.71c0,9.36,0,23.48,0,25.83a60.55,60.55,0,0,1-.23,6.09c-.4,2.74-1.79,3.45-4.2,4.59-2.08,1-5.57,1.77-11.08,2.22a65.24,65.24,0,0,1-16.42-.64c-9.52-1.64-12.86-8.13-12-17.3.73-8,4.64-11.23,13.62-12.44,3.27-.44,6.52-1.05,9.78-1.59Zm-.08,7.52c-6,1.07-11.77,2-17.51,3.2A6.35,6.35,0,0,0,161.2,182a8.47,8.47,0,0,0,5.19,12.71,31.73,31.73,0,0,0,15.9-.93Z"/>
      <path class="b02ee871-aa8f-4138-b5e4-8f70599b1d21" d="M277.88,159.9v29.29c0,3.25,0,6.5,0,9.76,0,2.32-.28,2.57-2.68,2.58-1.86,0-3.5-.15-5.58,0-2.38.17-2.63-.23-2.63-2.62q0-16.72,0-33.46c0-2.12.06-4.25,0-6.37a5,5,0,0,1,3.7-5.28,77.25,77.25,0,0,1,10.73-2.69,62.71,62.71,0,0,1,17.63-.63c7.29.93,11.41,4.93,11.53,12.22.19,12.28.08,24.56.12,36.84,0,1.42-.55,2.06-2,2-2.12-.07-4.25-.1-6.37,0-1.95.09-2.53-.77-2.52-2.62.06-10.62,0-21.24,0-31.87,0-.93,0-1.86,0-2.78-.23-4.06-2.19-6-6.24-6.24A53.62,53.62,0,0,0,277.88,159.9Z"/>
      <path class="b02ee871-aa8f-4138-b5e4-8f70599b1d21" d="M131.33,201.94a47,47,0,0,1-15.07-.17l-.62-.12c-7.6-1.49-12-6.39-13.68-13.74a52.84,52.84,0,0,1-.16-22.29c1.79-8.74,6.55-13.55,15.26-15a46.11,46.11,0,0,1,21.22,1.48c2.45.76,2.69,1.22,2.09,3.75-1.2,5.11-.34,4.27-5.41,3.37a60.32,60.32,0,0,0-12.2-1c-5.54.16-8.93,3.33-10.07,8.73a46.61,46.61,0,0,0-.32,17c1.24,7.67,4.56,10.59,12.57,10.61,3.92,0,7.86-.86,11.75-1.56,2.52-.45,2.68-.53,3.28,1.88,1.2,4.91,1.13,5.19-3.87,6.21C134.52,201.44,132.92,201.7,131.33,201.94Z"/>
      <path class="b02ee871-aa8f-4138-b5e4-8f70599b1d21" d="M237.32,160.5v38.26c0,2.54-.22,2.76-2.7,2.77-2,0-4-.07-6,0-1.66.09-2.27-.62-2.24-2.21,0-3.25,0-6.5,0-9.75q0-14.44,0-28.87c0-5.09.87-6.27,5.8-7.83,6.05-1.92,15.93-2.87,25.13-2.78,1.72-.06,2.42.15,2.48,2.48s0,3.16,0,4.34c0,2.21-.41,3.06-3.37,2.82A128.43,128.43,0,0,0,237.32,160.5Z"/>
      <path class="b02ee871-aa8f-4138-b5e4-8f70599b1d21" d="M215.16,141.76c0,1.63-.7,2.27-2,2.31-2.19.07-4.37.05-6.56,0a2,2,0,0,1-2.2-2.25c0-3.38,0-3.41,0-6.78a1.8,1.8,0,0,1,2-2c2.32,0,4.63,0,6.95,0,1.29,0,1.85.36,1.85,2.08Z"/>
    </g>
    <path class="b02ee871-aa8f-4138-b5e4-8f70599b1d21" d="M212.7,151.87h-5.84a2.49,2.49,0,0,0-2.48,2.49v38.9l5.4-5.09,5.41,5.09v-38.9A2.5,2.5,0,0,0,212.7,151.87Z"/>
  </g>
  <path class="a95205e1-bae1-4fb3-8e47-76aea9dcb94c" d="M130.75,502a2,2,0,0,0,.62-.12c.07,0,.09,0,.1.06l.05.28c0,.07,0,.1-.05.13a2,2,0,0,1-.81.16c-.92,0-1.21-.55-1.21-1.69s.29-1.68,1.21-1.68a2,2,0,0,1,.81.16c.05,0,.06.06.05.13l-.05.28c0,.05,0,.08-.1.06a1.7,1.7,0,0,0-.62-.12c-.55,0-.72.29-.72,1.18S130.2,502,130.75,502Z"/>
  <path class="a95205e1-bae1-4fb3-8e47-76aea9dcb94c" d="M135.31,498.72H135a.15.15,0,0,1-.13-.16v-.39A.14.14,0,0,1,135,498h.3c.08,0,.13.07.13.16v.39A.14.14,0,0,1,135.31,498.72Z"/>
  <g>
    <rect class="bf91905a-a00c-4f60-a039-6bb50dc1d970" x="293.23" y="638.42" width="22.72" height="4.47"/>
    <g>
      <rect class="af7811fe-0ea4-493d-abb0-1ee67da4d01e" x="266.44" y="463.02" width="15.5" height="19.87" rx="2.83"/>
      <path class="a506c3b0-8102-4874-91ea-a0757f342bc7" d="M316.4,632.8H292.94c0-84,3.09-160,3.77-163.23L332.46,476C332.3,476.74,316.4,552.12,316.4,632.8Z"/>
      <line class="a61c0f09-3f81-48a9-ac4e-55c40a2ead7d" x1="330.15" y1="345.93" x2="330.15" y2="360.69"/>
      <path class="a506c3b0-8102-4874-91ea-a0757f342bc7" d="M367,632.8H345.3c0-80.83-14.72-156.06-14.87-156.81l32.06-6.42C363.12,472.77,367,548.75,367,632.8Z"/>
      <path class="b7f35918-8fa8-486b-9b54-a5c6e5d6addc" d="M282.46,469l-16.37-1.05c3.89-99.66,53.75-109.66,55.73-108.5l-8.77,23.39.19,0C313,382.85,285.59,388.93,282.46,469Z"/>
      <path class="bc6fa41b-9063-42d3-94dd-2947adac4085" d="M299.9,310.64V289.53a27,27,0,0,1,26.92-26.92h6.66a27,27,0,0,1,26.92,26.92v21.11"/>
      <rect class="af7811fe-0ea4-493d-abb0-1ee67da4d01e" x="301.56" y="262.78" width="57.59" height="88.29" rx="28.79"/>
      <path class="b7f35918-8fa8-486b-9b54-a5c6e5d6addc" d="M359.15,322.28a28.59,28.59,0,0,1-2.27,11.18,29.13,29.13,0,0,1-15.35,15.34,28.56,28.56,0,0,1-11.18,2.27h0a28.63,28.63,0,0,1-11.18-2.27,29.15,29.15,0,0,1-15.34-15.34,28.59,28.59,0,0,1-2.27-11.18"/>
      <rect class="b7f35918-8fa8-486b-9b54-a5c6e5d6addc" x="309.33" y="303.04" width="8.69" height="4.68" rx="1.35"/>
      <rect class="b7f35918-8fa8-486b-9b54-a5c6e5d6addc" x="342.28" y="303.04" width="8.69" height="4.68" rx="1.35"/>
      <circle class="bbd8ef75-eda4-4318-b1c3-79cc5f1a2b8c" cx="346.63" cy="305.38" r="1.86"/>
      <line class="a3e53e79-dd6e-4375-a27d-dded84d13daf" x1="309.33" y1="298.27" x2="316.56" y2="298.27"/>
      <line class="a3e53e79-dd6e-4375-a27d-dded84d13daf" x1="343.5" y1="298.27" x2="350.73" y2="298.27"/>
      <g class="e9b83a4d-1070-431e-a62c-4e33f29927c6">
        <circle class="bbd8ef75-eda4-4318-b1c3-79cc5f1a2b8c" cx="313.68" cy="305.38" r="1.83"/>
      </g>
      <path class="f76097bf-1a7a-4524-aa10-8d12d6ea0e0b" d="M332.46,316H329.8a1.77,1.77,0,0,1-1.82-1.8V311.6"/>
      <circle class="b4dfc048-196f-4656-b8d3-5411d75eccd4" cx="299.38" cy="311.6" r="8.78"/>
      <circle class="b4dfc048-196f-4656-b8d3-5411d75eccd4" cx="360.92" cy="311.6" r="8.78"/>
      <path class="bf2bb1cd-e81d-42e3-9588-00049bb767fa" d="M317.94,331.82a18.29,18.29,0,0,0,24.55,0"/>
      <path class="b7f35918-8fa8-486b-9b54-a5c6e5d6addc" d="M321.5,288.47c7-3.66,12.95-9,18.49-14.62a120.57,120.57,0,0,0,24.5,24.25c-1-7.74-2.12-15.61-5.49-22.64s-9.33-13.24-16.92-15a34.51,34.51,0,0,0-10.1-.51c-6.53.41-13.12,1.35-19.11,4-7.41,3.25-18.73,13.44-16.12,23C299.67,297.52,314.45,292.18,321.5,288.47Z"/>
      <path class="b7f35918-8fa8-486b-9b54-a5c6e5d6addc" d="M323.84,359.48h11.34A26.83,26.83,0,0,1,362,386.31v68.77a22.31,22.31,0,0,1-22.31,22.31H323.84A26.83,26.83,0,0,1,297,450.55V386.31a26.83,26.83,0,0,1,26.83-26.83Z"/>
      <polygon class="ae30e621-9fec-4417-aa46-9b9fff36dc35" points="321.82 359.39 330.22 368.42 338.42 359.39 330.53 350.53 321.82 359.39"/>
      <path class="a5fbf88a-b794-4695-a801-5ae78d28fcad" d="M297,455v24.44c0,8.68,4.68,15.71,10.44,15.71h44.13c5.76,0,10.43-7,10.43-15.71V455Z"/>
      <g>
        <polygon class="a506c3b0-8102-4874-91ea-a0757f342bc7" points="323.91 361.72 336.21 361.72 330.06 373.84 323.91 361.72"/>
        <polygon class="a506c3b0-8102-4874-91ea-a0757f342bc7" points="330.06 368.97 320.22 415.68 330.06 431.82 340.51 415.68 330.06 368.97"/>
      </g>
      <polygon class="e2d203d4-6112-4c3d-bddd-743996be387e" points="321.87 356.21 326.04 365.5 322.83 371.75 321.21 359.74 321.87 356.21"/>
      <polygon class="e2d203d4-6112-4c3d-bddd-743996be387e" points="338.48 356.21 334.03 365.49 337.51 371.75 339.2 359.75 338.48 356.21"/>
      <circle class="a740c879-72c6-4e33-b208-d6c08ff680d7" cx="329.51" cy="438.17" r="1.91"/>
      <circle class="a740c879-72c6-4e33-b208-d6c08ff680d7" cx="329.51" cy="447.6" r="1.91"/>
      <rect class="ab748845-f743-439e-83ec-a55c7d93b040" x="297.01" y="455.04" width="65" height="7.98"/>
      <rect class="a4193705-b8f2-4f25-b002-3df60da421cc" x="323.91" y="452.3" width="10.75" height="13.19"/>
      <line class="a4193705-b8f2-4f25-b002-3df60da421cc" x1="324.08" y1="459.1" x2="334.48" y2="458.96"/>
      <rect class="af7811fe-0ea4-493d-abb0-1ee67da4d01e" x="351.24" y="462.34" width="14.5" height="18.59" rx="2.83" transform="translate(528.18 1039.24) rotate(-159.4)"/>
      <path class="b7f35918-8fa8-486b-9b54-a5c6e5d6addc" d="M358.58,468.6c-2.34,0-4.79.08-7.14,0"/>
      <path class="b7f35918-8fa8-486b-9b54-a5c6e5d6addc" d="M367.37,469.21l-2-2.4-5.27,1.79-4,0-4.76.08c7.09-18.71,19.26-36.73,18.5-47.22-3-11.85-5.39-20.75-10.3-25.84-3.61-5.74-7.13-9-9.77-10.76a13.33,13.33,0,0,0-4.45-2.16l-1.77-5.8-1.77-5.8-1.77-5.8-1.77-5.8c.45-.19,3.81.25,8.66,2.59A55.56,55.56,0,0,1,364.52,376c6.4,7.36,12.86,17.85,18,32.74,2.17,6.33,1.29,13.37-.18,19.75-1.88,8.18-5,16-8.18,23.79-1.72,4.18-3.52,8.32-5.3,12.48-.44,1-.88,2.07-1.33,3.11"/>
      <polygon class="b7f35918-8fa8-486b-9b54-a5c6e5d6addc" points="307.1 322.56 301.56 322.56 301.56 313.8 307.1 316.99 307.1 322.56"/>
      <polygon class="b7f35918-8fa8-486b-9b54-a5c6e5d6addc" points="354.7 322.56 359.15 322.56 359.15 313.8 354.7 316.99 354.7 322.56"/>
      <ellipse class="af7811fe-0ea4-493d-abb0-1ee67da4d01e" cx="350.32" cy="322" rx="4.38" ry="8.23"/>
      <ellipse class="af7811fe-0ea4-493d-abb0-1ee67da4d01e" cx="311.48" cy="322.28" rx="4.38" ry="8.23"/>
      <polygon class="af7811fe-0ea4-493d-abb0-1ee67da4d01e" points="331.33 322.28 348.39 328.47 348.39 318.18 313.59 318.63 313.59 327.81 331.33 322.28"/>
      <path class="a3cebcb0-df15-44f4-aaf4-f733d101d8e9" d="M293.23,638.42h0a8.8,8.8,0,0,1,8.8-8.81h5.11a8.8,8.8,0,0,1,8.8,8.81h0"/>
      <path class="a3cebcb0-df15-44f4-aaf4-f733d101d8e9" d="M345.81,638.42h0a8.8,8.8,0,0,1,8.8-8.81h5.11a8.8,8.8,0,0,1,8.8,8.81h0"/>
    </g>
    <rect class="bf91905a-a00c-4f60-a039-6bb50dc1d970" x="345.81" y="638.42" width="22.72" height="4.47"/>
  </g>
  <g>
    <path class="a506c3b0-8102-4874-91ea-a0757f342bc7" d="M182.51,639.77h0a8.58,8.58,0,0,1,8.58-8.58h5a8.58,8.58,0,0,1,8.58,8.58h0"/>
    <path class="a506c3b0-8102-4874-91ea-a0757f342bc7" d="M233.77,639.77h0a8.59,8.59,0,0,1,8.59-8.58h5a8.58,8.58,0,0,1,8.58,8.58h0"/>
    <g>
      <path class="b7f35918-8fa8-486b-9b54-a5c6e5d6addc" d="M205.46,633.11H182.59c0-82,5.88-156,6.55-159.16l32,6.25C221,480.94,205.46,554.44,205.46,633.11Z"/>
      <path class="b7f35918-8fa8-486b-9b54-a5c6e5d6addc" d="M254.82,633.11H233.64c0-78.82-14.36-152.17-14.5-152.9L249.48,474C250.09,477.06,254.82,551.15,254.82,633.11Z"/>
      <path class="b0f0d5e6-eb2d-44c5-9f66-b892877a794f" d="M248.35,258.92l16,1.37c-3.8,129.66-33.22,151.56-35.15,150L232.84,371l-.18,0C232.93,371,245.3,363.07,248.35,258.92Z"/>
      <path class="b0f0d5e6-eb2d-44c5-9f66-b892877a794f" d="M213.12,367.1h10.27a26.56,26.56,0,0,1,26.56,26.56v64.93a23.48,23.48,0,0,1-23.48,23.48H213.12a26.56,26.56,0,0,1-26.56-26.56V393.66a26.56,26.56,0,0,1,26.56-26.56Z"/>
      <polygon class="ae30e621-9fec-4417-aa46-9b9fff36dc35" points="209.81 354.38 212.52 366.57 225.57 366.49 226.84 354.88 209.81 354.38"/>
      <path class="a5cfc6f4-dce9-491e-b820-6e8fd7befa9b" d="M186.56,459.78v23.83c0,8.46,4.55,15.32,10.18,15.32h43c5.62,0,10.18-6.86,10.18-15.32V459.78Z"/>
      <circle class="a740c879-72c6-4e33-b208-d6c08ff680d7" cx="218.25" cy="443.33" r="1.86"/>
      <circle class="a740c879-72c6-4e33-b208-d6c08ff680d7" cx="218.25" cy="452.53" r="1.86"/>
      <rect class="a506c3b0-8102-4874-91ea-a0757f342bc7" x="186.56" y="459.78" width="63.38" height="7.78"/>
      <rect class="b1a03174-6153-4320-ab32-6d2cdd018fdc" x="212.78" y="457.11" width="10.48" height="12.86"/>
      <path class="feaee7d2-db51-4d0e-b25b-2c744fd8e4b5" d="M265.49,251.15l.4,7.33a3.38,3.38,0,0,1-3.73,3l-11.29-1.23a3.38,3.38,0,0,1-3-3.73l.8-7.33a3.38,3.38,0,0,1,3.73-3l11.29,1.23C265.55,247.62,265.7,249.29,265.49,251.15Z"/>
      <path class="b0f0d5e6-eb2d-44c5-9f66-b892877a794f" d="M184.67,259.63l-16,1.37c3.8,129.66,33.22,151.56,35.15,150.05l-3.68-39.32.18,0C200.09,371.69,187.71,363.78,184.67,259.63Z"/>
      <rect class="af7811fe-0ea4-493d-abb0-1ee67da4d01e" x="169.85" y="245.48" width="14.14" height="18.12" rx="2.83" transform="translate(-56.99 457.96) rotate(-96.21)"/>
      <path class="b7f35918-8fa8-486b-9b54-a5c6e5d6addc" d="M246.59,473c-2.28,0-4.67.08-7,0"/>
      <g>
        <rect class="a33397e7-394a-452b-9550-02d015400f88" x="191.1" y="280.6" width="56.32" height="80.57" rx="28.16"/>
        <rect class="b7f35918-8fa8-486b-9b54-a5c6e5d6addc" x="202.93" y="317.32" width="6.97" height="3.97" rx="1.35"/>
        <rect class="b7f35918-8fa8-486b-9b54-a5c6e5d6addc" x="229.37" y="317.32" width="6.97" height="3.97" rx="1.35"/>
        <ellipse class="bbd8ef75-eda4-4318-b1c3-79cc5f1a2b8c" cx="232.85" cy="319.31" rx="1.49" ry="1.58"/>
        <line class="b70435a0-ec4b-4534-823f-459e3cf5671c" x1="202.93" y1="313.28" x2="208.73" y2="313.28"/>
        <line class="b70435a0-ec4b-4534-823f-459e3cf5671c" x1="230.35" y1="313.28" x2="236.15" y2="313.28"/>
        <g class="b9b91c66-7177-47a3-8666-ff7ce05eafda">
          <ellipse class="bbd8ef75-eda4-4318-b1c3-79cc5f1a2b8c" cx="206.41" cy="319.31" rx="1.47" ry="1.55"/>
        </g>
        <path class="a40919e6-3257-48ba-8c01-691d3d6e3b26" d="M222,328.29h-2.13a1.47,1.47,0,0,1-1.47-1.52v-2.19"/>
        <ellipse class="b374eaa6-a937-4c34-9922-137c68aa8c41" cx="189.47" cy="324.58" rx="7.04" ry="7.44"/>
        <ellipse class="b374eaa6-a937-4c34-9922-137c68aa8c41" cx="248.59" cy="324.58" rx="7.04" ry="7.44"/>
        <path class="b0e31df3-94e7-4d68-8f3b-8224bb1b97b6" d="M248.31,315.81c.34-14.51-2-20.64-2-20.64-3.22-11.71-12.44-11.47-12.44-11.47a2.68,2.68,0,0,0-1.85.68,3.38,3.38,0,0,0-1.05,2.71l.56,8.44a3.31,3.31,0,0,0,1.41,2.54c.6.39,1.2.83,1.8,1.3a24,24,0,0,1,6.42,7.8l1.73,9.11A2.09,2.09,0,0,0,245,318h0c1.1-.06,3.29-1.06,3.29-2.22"/>
        <path class="b0e31df3-94e7-4d68-8f3b-8224bb1b97b6" d="M189.87,315.78c-.34-14.51,2-20.63,2-20.63,3.22-11.72,12.44-11.48,12.44-11.48a2.74,2.74,0,0,1,1.85.69,3.34,3.34,0,0,1,1,2.7l-.56,8.44a3.31,3.31,0,0,1-1.41,2.54c-.6.4-1.2.83-1.8,1.3a24,24,0,0,0-6.42,7.8l-1.73,9.11a2.09,2.09,0,0,1-2.12,1.75h0c-1.1-.06-3.29-1.06-3.29-2.22"/>
        <path class="a40919e6-3257-48ba-8c01-691d3d6e3b26" d="M225.52,340a5.49,5.49,0,1,1-11,0"/>
        <path class="b7f35918-8fa8-486b-9b54-a5c6e5d6addc" d="M232.86,341.77h0c0-4.81-1.65-8.74-3.66-8.74h-19c-2,0-3.66,3.93-3.66,8.74h26.31Z"/>
      </g>
      <ellipse class="ae30e621-9fec-4417-aa46-9b9fff36dc35" cx="219.03" cy="366.36" rx="6.54" ry="2.82"/>
      <path class="a3f6f863-3474-464b-9395-0dae9471be05" d="M226,366.85c-.4,1.55-3,2.61-6.94,2.45s-6.73-1.28-6.95-2.83"/>
    </g>
  </g>
  <g class="text-cta text-cta--13">
    <g>
      <g>
        <g>
          <ellipse class="a761e1af-97de-4835-b1fa-da2bf5fc8934" cx="217.3" cy="195.94" rx="7.8" ry="22.03"/>
          <path class="a761e1af-97de-4835-b1fa-da2bf5fc8934" d="M217.31,218.88c-4.23,0-8.72-8-8.72-22.94S213.08,173,217.31,173s8.71,8,8.71,22.95S221.53,218.88,217.31,218.88Zm0-44c-3.26,0-6.89,8.67-6.89,21.11s3.63,21.11,6.89,21.11,6.88-8.67,6.88-21.11S220.56,174.83,217.31,174.83Z"/>
        </g>
        <g>
          <path class="a761e1af-97de-4835-b1fa-da2bf5fc8934" d="M182.31,131.79a35,35,0,0,0,70,0Z"/>
          <path class="a761e1af-97de-4835-b1fa-da2bf5fc8934" d="M217.31,166.37a35.83,35.83,0,0,1-35.92-34.55.93.93,0,0,1,.26-.67.91.91,0,0,1,.66-.28h70a.91.91,0,0,1,.66.28.93.93,0,0,1,.26.67A35.83,35.83,0,0,1,217.31,166.37Zm-34-33.66a34.1,34.1,0,0,0,68.05,0Z"/>
        </g>
        <g>
          <circle class="a761e1af-97de-4835-b1fa-da2bf5fc8934" cx="217.3" cy="169.55" r="7.8"/>
          <path class="a761e1af-97de-4835-b1fa-da2bf5fc8934" d="M217.31,178.27a8.72,8.72,0,1,1,8.71-8.72A8.73,8.73,0,0,1,217.31,178.27Zm0-15.6a6.89,6.89,0,1,0,6.88,6.88A6.89,6.89,0,0,0,217.31,162.67Z"/>
        </g>
        <g>
          <circle class="a761e1af-97de-4835-b1fa-da2bf5fc8934" cx="217.3" cy="221.18" r="18.23"/>
          <path class="a761e1af-97de-4835-b1fa-da2bf5fc8934" d="M217.31,240.32a19.14,19.14,0,1,1,19.14-19.14A19.16,19.16,0,0,1,217.31,240.32Zm0-36.45a17.31,17.31,0,1,0,17.3,17.31A17.33,17.33,0,0,0,217.31,203.87Z"/>
        </g>
        <g>
          <rect class="adb6e87c-a3d3-47fb-9e1a-3a2646a32552" x="192.07" y="223.4" width="50.48" height="21.11"/>
          <path class="adb6e87c-a3d3-47fb-9e1a-3a2646a32552" d="M242.54,245.42H192.07a.92.92,0,0,1-.92-.92V223.4a.92.92,0,0,1,.92-.92h50.47a.92.92,0,0,1,.92.92v21.1A.92.92,0,0,1,242.54,245.42ZM193,243.59h48.65V224.31H193Z"/>
        </g>
        <g>
          <rect class="adb6e87c-a3d3-47fb-9e1a-3a2646a32552" x="187.92" y="230.43" width="60.6" height="24.39"/>
          <path class="adb6e87c-a3d3-47fb-9e1a-3a2646a32552" d="M247.6,255.74H187a.92.92,0,0,1-.92-.92V230.43a.92.92,0,0,1,.92-.92H247.6a.92.92,0,0,1,.92.92v24.39A.92.92,0,0,1,247.6,255.74Zm-59.68-1.84h58.77V231.35H187.92Z"/>
        </g>
        <g>
          <rect class="a761e1af-97de-4835-b1fa-da2bf5fc8934" x="200.06" y="235.33" width="33.96" height="12.24"/>
          <path class="a761e1af-97de-4835-b1fa-da2bf5fc8934" d="M234,248.48h-34a.92.92,0,0,1-.92-.92V235.33a.92.92,0,0,1,.92-.92h34a.92.92,0,0,1,.91.92v12.23A.92.92,0,0,1,234,248.48Zm-33-1.83H233.1V236.24H201Z"/>
        </g>
      </g>
      <path class="a761e1af-97de-4835-b1fa-da2bf5fc8934" d="M192.38,153.55a2.29,2.29,0,0,0-1.62-.67c-8.8,0-23.33-12.75-24.24-23.77-.28-3.31,1.08-5.07,4.39-5.68,2.68,0,4.52.79,5.61,2.29,2.27,3.13,1,9.13.35,11.17a2.3,2.3,0,0,0,4.36,1.44c.13-.39,3.12-9.61-1-15.29-2-2.79-5.21-4.19-9.53-4.19a2.31,2.31,0,0,0-.37,0c-5.82,1-8.88,4.84-8.4,10.61.93,11.2,15.09,27,27.6,27.93a.82.82,0,0,1,0,.67,3.32,3.32,0,0,0-.14,1.89,3.16,3.16,0,0,0,2.32,1.47c1,.17,1.72-.93,1.72-.93A5.65,5.65,0,0,0,192.38,153.55Z"/>
    </g>
    <path class="a761e1af-97de-4835-b1fa-da2bf5fc8934" d="M266,118.28a2.43,2.43,0,0,0-.38,0c-4.31,0-7.52,1.41-9.53,4.19-4.1,5.68-1.12,14.91-1,15.3a2.3,2.3,0,0,0,4.36-1.44c-.67-2.05-1.91-8.05.36-11.18,1.08-1.5,2.92-2.25,5.61-2.28,3.31.6,4.66,2.36,4.39,5.68-.91,11-15.45,23.76-24.24,23.76a2.29,2.29,0,0,0-1.62.68,5.64,5.64,0,0,0-1,7h0s.76,1.09,1.72.92a2.24,2.24,0,0,0,2.2-3.28,1.88,1.88,0,0,1-.07-.74c12.52-1,26.68-16.73,27.6-27.92C274.83,123.12,271.77,119.25,266,118.28Z"/>
  </g>
  <g>
    <circle class="ab748845-f743-439e-83ec-a55c7d93b040" cx="115.79" cy="390.77" r="4.46"/>
    <circle class="ab748845-f743-439e-83ec-a55c7d93b040" cx="113.06" cy="396.1" r="4.46"/>
    <circle class="ab748845-f743-439e-83ec-a55c7d93b040" cx="109.19" cy="400.56" r="4.46"/>
    <g>
      <rect class="af7811fe-0ea4-493d-abb0-1ee67da4d01e" x="75.61" y="512.28" width="11.67" height="14.43" rx="2.68"/>
      <g>
        <rect class="af7811fe-0ea4-493d-abb0-1ee67da4d01e" x="178.86" y="511.92" width="11.67" height="14.43" rx="2.68" transform="translate(369.39 1038.26) rotate(-180)"/>
        <line class="bd8060b9-7242-4a51-a201-f34d265a3ed1" x1="134" y1="457.91" x2="134" y2="451.68"/>
        <path class="ab748845-f743-439e-83ec-a55c7d93b040" d="M134,405.82,102.8,357.17c-7.55-11.77-7-27.59,1.27-38.47,7.32-9.59,17.75-15.09,28.62-15.09,11.59,0,22.46,6.1,29.82,16.74,7.23,10.45,7.58,25,.87,36.26Zm-1.21-79.26A22.15,22.15,0,0,0,116,334.7a12.42,12.42,0,0,0-.45,15.21l18.1,25.46,16.9-25.52a12.26,12.26,0,0,0-.21-14.23A22.18,22.18,0,0,0,132.78,326.56Z"/>
        <rect class="af7811fe-0ea4-493d-abb0-1ee67da4d01e" x="105.68" y="316.31" width="54.19" height="78.44" rx="23.28"/>
        <rect class="b7f35918-8fa8-486b-9b54-a5c6e5d6addc" x="112.86" y="354.64" width="8.31" height="4.48" rx="1.3"/>
        <rect class="b7f35918-8fa8-486b-9b54-a5c6e5d6addc" x="144.38" y="354.64" width="8.31" height="4.48" rx="1.3"/>
        <circle class="bbd8ef75-eda4-4318-b1c3-79cc5f1a2b8c" cx="148.54" cy="356.88" r="1.78"/>
        <line class="f4b083c9-87c8-4667-9177-1fb0f9d846cf" x1="112.86" y1="347.29" x2="119.77" y2="347.29"/>
        <line class="f4b083c9-87c8-4667-9177-1fb0f9d846cf" x1="145.55" y1="347.29" x2="152.46" y2="347.29"/>
        <g class="a10c8bf8-5a8d-4013-b4a9-bb4bec97eb3e">
          <circle class="bbd8ef75-eda4-4318-b1c3-79cc5f1a2b8c" cx="117.02" cy="356.88" r="1.75"/>
        </g>
        <path class="be8491d2-be1c-4164-80d9-bf64c75b3be8" d="M135.57,367H133a1.69,1.69,0,0,1-1.74-1.72v-2.46"/>
        <circle class="b5dce50c-ad6a-4aa7-b955-7ff859982e0f" cx="106.18" cy="361.46" r="5.94"/>
        <circle class="b5dce50c-ad6a-4aa7-b955-7ff859982e0f" cx="159.96" cy="361.47" r="5.94"/>
        <path class="be8491d2-be1c-4164-80d9-bf64c75b3be8" d="M142.28,380.68a15.08,15.08,0,0,1-9.17,3.32,14.91,14.91,0,0,1-8.9-3.13"/>
        <rect class="e47ed97b-f1b4-4ccf-9f4d-41f8ee8c9ff0" x="103.69" y="409.73" width="57.94" height="98.83" rx="20.58"/>
        <path class="ae30e621-9fec-4417-aa46-9b9fff36dc35" d="M178.73,515.86c-1.62-40.05-10.42-62.46-17.52-74.21-7.5-12.43-14.7-15.77-14.77-15.8l3.87-14c1.5.62,36.83,16.27,40.35,103.23Z"/>
        <path class="a96b056b-13b2-48d3-b48d-0ab5725f5f2f" d="M160.87,441.25a60,60,0,0,0-5.46-7.7,43.45,43.45,0,0,0-4.71-4.85,27.57,27.57,0,0,0-3.32-2.51,11.09,11.09,0,0,0-1.28-.74l1-3.49,1-3.49,1-3.49,1-3.49a28.53,28.53,0,0,1,6.45,4.16,62.79,62.79,0,0,1,13,15.08"/>
        <path class="ae30e621-9fec-4417-aa46-9b9fff36dc35" d="M87.53,515.79c1.63-40,10.42-62.47,17.52-74.22,7.5-12.42,14.7-15.76,14.77-15.8l-3.87-14c-1.5.63-36.82,16.28-40.34,103.24Z"/>
        <path class="a96b056b-13b2-48d3-b48d-0ab5725f5f2f" d="M97.1,430.21a62.59,62.59,0,0,1,13-15.08,28.41,28.41,0,0,1,6.44-4.16l1,3.49,1,3.49,1,3.49,1,3.49a12.36,12.36,0,0,0-1.29.73,27.66,27.66,0,0,0-3.31,2.52,43.24,43.24,0,0,0-4.71,4.84,61.14,61.14,0,0,0-5.47,7.71"/>
        <path class="af7811fe-0ea4-493d-abb0-1ee67da4d01e" d="M108.3,636.06c-3.46,0-6.26-3.46-6.26-7.73,0-56.94,10.09-108.39,10.52-110.56.82-4.15,4.21-6.68,7.57-5.67s5.41,5.21,4.59,9.36c-.1.51-10.16,51.87-10.16,106.87C114.56,632.6,111.75,636.06,108.3,636.06Z"/>
        <path class="af7811fe-0ea4-493d-abb0-1ee67da4d01e" d="M160.37,636.06c-3.46,0-6.26-3.46-6.26-7.73,0-55.08-10.06-106.36-10.16-106.87-.83-4.15,1.23-8.34,4.58-9.36s6.75,1.52,7.58,5.67c.43,2.17,10.52,53.62,10.52,110.56C166.63,632.6,163.83,636.06,160.37,636.06Z"/>
        <polygon class="a5cfc6f4-dce9-491e-b820-6e8fd7befa9b" points="164.11 494.18 162.37 482.7 132.62 478.61 102.72 482.7 100.97 494.21 83.41 609.55 130.27 609.55 134.81 609.55 181.68 609.55 164.11 494.18"/>
        <path class="afb8531e-0410-4c0b-a963-ecdf3c78b02b" d="M143.4,413l-9.52,52.94L124.37,413c-2.11-8,2.71-5.36,9.51-5.36h0C140.69,407.59,145.51,405,143.4,413Z"/>
        <g>
          <path class="a506c3b0-8102-4874-91ea-a0757f342bc7" d="M143,500.54V471.49c0-1.86-1.22-3.36-2.72-3.36H127.54c-1.51,0-2.72,1.5-2.72,3.36v29.05c0,1.86,1.21,3.36,2.72,3.36h12.69C141.73,503.9,143,502.4,143,500.54Z"/>
          <line class="f58b35b4-c0be-4bf2-9da5-a559f7574d8e" x1="130.91" y1="471.83" x2="136.64" y2="471.83"/>
          <rect class="a3a52b23-1369-477d-b8c5-72aed2320ef0" x="131.59" y="465.89" width="4.36" height="6.31" rx="0.74"/>
        </g>
        <line class="bfa9e636-c1d6-40ed-a481-5451660cd5f8" x1="133.88" y1="392.99" x2="133.88" y2="410.61"/>
        <path class="a95205e1-bae1-4fb3-8e47-76aea9dcb94c" d="M136.78,482.54a3.31,3.31,0,0,0-.63,0,3.13,3.13,0,0,0-1,.19c-.25.1-.35.19-.35.49v3c0,.06,0,.11.08.11h.49c.05,0,.08-.05.08-.11v-3a3.6,3.6,0,0,1,1.31-.1s.07,0,.07-.08v-.45A.1.1,0,0,0,136.78,482.54Z"/>
        <path class="a95205e1-bae1-4fb3-8e47-76aea9dcb94c" d="M128.67,485.85a2.12,2.12,0,0,0,.72-.14c.08,0,.11,0,.12.07l.05.33c0,.08,0,.12-.06.15a2.31,2.31,0,0,1-.94.19c-1.07,0-1.41-.65-1.41-2s.34-2,1.41-2a2.31,2.31,0,0,1,.94.19c.06,0,.08.07.06.15l-.05.33c0,.06,0,.1-.12.07a2.12,2.12,0,0,0-.72-.14c-.65,0-.85.34-.85,1.37S128,485.85,128.67,485.85Z"/>
        <path class="a95205e1-bae1-4fb3-8e47-76aea9dcb94c" d="M132.25,486.36a2.69,2.69,0,0,1-.78.1c-.58,0-1.37-.06-1.37-1.2,0-.94.45-1,1-1.12l1.05-.22v-.26c0-.21,0-.37-.18-.46a1,1,0,0,0-.47-.07,3.42,3.42,0,0,0-1,.2h0s-.06,0-.07-.07l-.07-.39a.1.1,0,0,1,.06-.12,3.78,3.78,0,0,1,1.25-.24,1.53,1.53,0,0,1,.86.2c.3.2.33.54.33.92v2C132.77,486.14,132.65,486.25,132.25,486.36Zm-1-1.69c-.23.05-.46.09-.46.58s.41.65.72.65a1.6,1.6,0,0,0,.62-.11v-1.3Z"/>
        <path class="a95205e1-bae1-4fb3-8e47-76aea9dcb94c" d="M139.85,486.37h-.48c-.06,0-.09-.05-.09-.11V483.7c0-.45-.14-.59-.48-.59a2.94,2.94,0,0,0-.85.15v3a.1.1,0,0,1-.09.11h-.48a.1.1,0,0,1-.09-.11v-3c0-.27.07-.37.39-.5a4.28,4.28,0,0,1,1.18-.2c.71,0,1.08.25,1.08,1.07v2.67A.1.1,0,0,1,139.85,486.37Z"/>
        <path class="a95205e1-bae1-4fb3-8e47-76aea9dcb94c" d="M134,482.07h-.35a.17.17,0,0,1-.16-.18v-.45a.17.17,0,0,1,.15-.18H134a.17.17,0,0,1,.15.18v.45A.17.17,0,0,1,134,482.07Z"/>
        <path class="a95205e1-bae1-4fb3-8e47-76aea9dcb94c" d="M133.46,482.84v2.83s0,0,0,0l.26-.3h0l.26.3s.05,0,.05,0v-2.82a.17.17,0,0,0-.15-.18h-.36A.17.17,0,0,0,133.46,482.84Z"/>
        <path class="a96b056b-13b2-48d3-b48d-0ab5725f5f2f" d="M106,436.44a8.29,8.29,0,0,1,.32-2.53,15,15,0,0,1,1.43-2.72c.48-.82.88-1.69,1.43-2.46a10.47,10.47,0,0,1,3.15-2.73c2.19-1.33,4.9-2.2,7.3-1.32a2.91,2.91,0,0,1,1.38.92,2.86,2.86,0,0,1,.51,1.2,8.14,8.14,0,0,1,0,2.56,11.06,11.06,0,0,1-.76,3.16,15.55,15.55,0,0,1-2.21,3.39,8.92,8.92,0,0,1-6.43,4.1c-1.52.37-3.52,1-5.1.63C105.87,440.35,106,437.48,106,436.44Z"/>
        <path class="a96b056b-13b2-48d3-b48d-0ab5725f5f2f" d="M147.11,424.79a10,10,0,0,1,5.88,1.07,13.36,13.36,0,0,1,6.06,5.52,9.72,9.72,0,0,1,.67,8.05,3.79,3.79,0,0,1-.87,1.42,3.2,3.2,0,0,1-1.33.72c-2.2.66-4.61-.39-6.26-2a27.82,27.82,0,0,1-4-5.61,17.47,17.47,0,0,1-1.65-3,11.33,11.33,0,0,1-.58-4.48C145.14,425.38,146,425,147.11,424.79Z"/>
        <ellipse class="ae30e621-9fec-4417-aa46-9b9fff36dc35" cx="133.89" cy="410.56" rx="7.96" ry="0.47"/>
        <ellipse class="ab748845-f743-439e-83ec-a55c7d93b040" cx="132.62" cy="331.21" rx="32.01" ry="4.66"/>
        <path class="ab748845-f743-439e-83ec-a55c7d93b040" d="M115.14,318.34c4.63-3.21,9.36-6.84,15-7.41s12.64,1.88,18.07,3.81,10.32,6,12.09,11.5a2.37,2.37,0,0,1,0,2,2.39,2.39,0,0,1-1.26.8c-5.23,1.88-10.89,2.12-16.45,2.2-11.55.17-28.14,2-38.89-2.23C107.1,325.45,111,321.21,115.14,318.34Z"/>
        <circle class="ab748845-f743-439e-83ec-a55c7d93b040" cx="133.54" cy="305.64" r="7.99"/>
        <path class="ab748845-f743-439e-83ec-a55c7d93b040" d="M132.26,335.68a52.52,52.52,0,0,1-15.4,6.18c-3.42.77-7.18,1.34-9.6,3.88-2.13,2.24-2.71,5.61-2.29,8.68a10.65,10.65,0,0,1-4.57-5.37,31.18,31.18,0,0,1-1.65-7c-.49-3.09-.9-6.56.93-9.1a10.94,10.94,0,0,1,4.36-3.14,55.21,55.21,0,0,1,11-3.86c3.64-.87,7.69-1.31,11,.51,2.51,1.39,4.17,3.89,5.57,6.39A7.2,7.2,0,0,1,132.26,335.68Z"/>
        <path class="a506c3b0-8102-4874-91ea-a0757f342bc7" d="M100.31,635.75c0-4.86,3.59-8.81,8-8.81s8,3.95,8,8.81"/>
        <rect class="ab748845-f743-439e-83ec-a55c7d93b040" x="100.31" y="635.75" width="16.03" height="8.21"/>
        <path class="a506c3b0-8102-4874-91ea-a0757f342bc7" d="M153.15,635.75c0-4.86,3.58-8.81,8-8.81s8,3.95,8,8.81"/>
        <rect class="ab748845-f743-439e-83ec-a55c7d93b040" x="153.15" y="635.75" width="16.03" height="8.21"/>
      </g>
    </g>
  </g>
  <rect class="a761e1af-97de-4835-b1fa-da2bf5fc8934" x="182.51" y="639.77" width="22.15" height="4.18"/>
  <rect class="a761e1af-97de-4835-b1fa-da2bf5fc8934" x="233.77" y="639.77" width="22.15" height="4.18"/>
</svg>
