<svg xmlns="http://www.w3.org/2000/svg" xmlns:xlink="http://www.w3.org/1999/xlink" viewBox="0 0 144.83 47.71"><defs><style>.cls-1{fill:none;}.cls-2{clip-path:url(#clip-path);}.cls-3{fill:#ffffff;}</style><clipPath id="clip-path" transform="translate(0 0)"><rect class="cls-1" width="144.83" height="47.71"/></clipPath></defs><title>Asset 4</title><g id="Layer_2" data-name="Layer 2"><g id="Top_Navigation" data-name="Top Navigation"><g id="cairn_cream_logo" data-name="cairn cream logo"><g class="cls-2"><g class="cls-2"><path class="cls-3" d="M109,11.8a51.48,51.48,0,0,0-7.12-.06,44.75,44.75,0,0,0-11.09,1.78c-2.81.92-4,1.77-4,4.46v27.9a.92.92,0,0,0,1,1h5.5a.93.93,0,0,0,1-1V18.57c4.2-1.15,10.29-1.26,14.75-.89a.78.78,0,0,0,.86-.77V12.75a1,1,0,0,0-.88-.95" transform="translate(0 0)"/><path class="cls-3" d="M17.16,42.14a27.43,27.43,0,0,0,8.19-1.31c.91-.26,1.18.13,1.31.66l.65,3a1.06,1.06,0,0,1-.72,1.38A31.13,31.13,0,0,1,16,47.58c-12.18,0-16-5.89-16-18s3.8-18,16-18a31.13,31.13,0,0,1,10.61,1.7,1.06,1.06,0,0,1,.72,1.38l-.65,3c-.13.53-.4.92-1.31.66a27.77,27.77,0,0,0-8.19-1.31c-7.34,0-9.56,3.14-9.56,12.57s2.22,12.51,9.56,12.51" transform="translate(0 0)"/><path class="cls-3" d="M57.76,46.79a38.48,38.48,0,0,1-8.84.92c-6.55,0-15.52-.52-15.52-11,0-8.58,5.11-9.3,10.87-10.29l11.92-2V22c0-2-.13-3.41-2-4.2a15.25,15.25,0,0,0-5.37-.65A48.65,48.65,0,0,0,37.33,19a2,2,0,0,1-.46.07.79.79,0,0,1-.78-.59l-.79-3.6A1,1,0,0,1,36,13.78,50.24,50.24,0,0,1,50.1,11.62c4.65,0,7.73.66,9.76,1.77,3.41,1.9,3.73,5,3.73,8.45V40c0,4.78-1.31,5.77-5.83,6.81M46.24,31.27c-2.69.46-5.24.85-5.24,5.31,0,5.63,4.58,6,8.12,6a22.22,22.22,0,0,0,7.07-1.05V29.63Z" transform="translate(0 0)"/><path class="cls-3" d="M143.85,46.86h-5.44a1,1,0,0,1-1-1V22.36c0-4.06-1.5-5.37-5.37-5.37a41.93,41.93,0,0,0-9.69,1.38V45.88a.92.92,0,0,1-1,1h-5.44a1,1,0,0,1-1-1V18c0-2.49.85-3.47,4.39-4.58a56,56,0,0,1,13.43-1.84c8,0,12.18,2.23,12.18,9.76v24.5a.92.92,0,0,1-1,1" transform="translate(0 0)"/><path class="cls-3" d="M77.26,7.5h-4a1.71,1.71,0,0,1-1.71-1.72V1.65A1.64,1.64,0,0,1,73.15,0h4a1.72,1.72,0,0,1,1.72,1.71V5.85A1.65,1.65,0,0,1,77.26,7.5" transform="translate(0 0)"/><path class="cls-3" d="M71.51,14.52V40.43a.33.33,0,0,0,.56.24L75,37.94a.34.34,0,0,1,.46,0l2.88,2.72a.34.34,0,0,0,.57-.24V14.52a1.66,1.66,0,0,0-1.66-1.65H73.16a1.65,1.65,0,0,0-1.65,1.65" transform="translate(0 0)"/></g></g></g></g></g></svg>