<svg class="story-screen__graphic" id="ada43c34-2cf3-4536-a15b-67e2ce7ec28f" data-name="Layer 1" xmlns="http://www.w3.org/2000/svg" xmlns:xlink="http://www.w3.org/1999/xlink" viewBox="0 0 466.16 682.31">
  <defs>
    <style>
      .a3b6ac73-a00b-4c64-999e-c4e7237ede06, .a401b59e-ac5a-41c7-b853-1625f08131fb, .a4aad833-4e50-48e8-ae46-96527887a3e1, .aea1cf66-0577-406f-a146-e57b15d6befd, .b1a13a9a-05be-45b3-816d-3620b5749f66, .b2f7ad2c-0565-4929-ad19-229fb62591cf, .be3817d3-8988-48d3-81e5-d2c3399b8cc3, .eb5d4f67-1f97-450b-9552-919e0c02d1af, .f41c80c5-7917-46ae-b418-8b2ed1e9bfce, .f5592df7-d0fb-4d22-a45f-12b1c088265c {
        fill: none;
      }

      .a58a8a9a-b1f6-496b-a0bd-395b2055dd32, .a7a58e4a-6c79-4dc4-877a-333957d4c605, .acea2f46-de85-4e6d-a1bc-7ea66a7045fd, .f0a90c7e-e9f1-4d8d-bae0-e17ffad5b9c0 {
        fill: #ede8db;
      }

      .a58a8a9a-b1f6-496b-a0bd-395b2055dd32, .acea2f46-de85-4e6d-a1bc-7ea66a7045fd, .f0a90c7e-e9f1-4d8d-bae0-e17ffad5b9c0 {
        stroke: #ede8db;
      }

      .a3b6ac73-a00b-4c64-999e-c4e7237ede06, .a4aad833-4e50-48e8-ae46-96527887a3e1, .a53f7afe-49a8-4af4-8706-4d27ecaaf6e1, .a58a8a9a-b1f6-496b-a0bd-395b2055dd32, .be3817d3-8988-48d3-81e5-d2c3399b8cc3, .bf16922e-05a4-485b-a08f-37098d749e89, .eb5d4f67-1f97-450b-9552-919e0c02d1af, .f0a90c7e-e9f1-4d8d-bae0-e17ffad5b9c0, .f41c80c5-7917-46ae-b418-8b2ed1e9bfce {
        stroke-linecap: round;
      }

      .a3b6ac73-a00b-4c64-999e-c4e7237ede06, .a4aad833-4e50-48e8-ae46-96527887a3e1, .a53f7afe-49a8-4af4-8706-4d27ecaaf6e1, .a58a8a9a-b1f6-496b-a0bd-395b2055dd32, .bf16922e-05a4-485b-a08f-37098d749e89, .f0a90c7e-e9f1-4d8d-bae0-e17ffad5b9c0 {
        stroke-linejoin: round;
      }

      .f0a90c7e-e9f1-4d8d-bae0-e17ffad5b9c0 {
        stroke-width: 1px;
      }

      .a58a8a9a-b1f6-496b-a0bd-395b2055dd32 {
        stroke-width: 1.21px;
      }

      .fc9dfddc-8dd1-451b-a6a2-0660ac06f83a {
        fill: #3c5743;
      }

      .b8f3562c-a2f0-4d3b-a2b6-626a43461229 {
        fill: #aeaaa1;
      }

      .addefa5f-b6c6-4970-91f2-706e8d4acdac {
        fill: #ddd;
      }

      .a10f3e48-ab9b-42c3-9bc2-a7d58ea58d77 {
        fill: #89563c;
      }

      .a401b59e-ac5a-41c7-b853-1625f08131fb, .aea1cf66-0577-406f-a146-e57b15d6befd, .b1a13a9a-05be-45b3-816d-3620b5749f66, .be3817d3-8988-48d3-81e5-d2c3399b8cc3, .eb5d4f67-1f97-450b-9552-919e0c02d1af, .f41c80c5-7917-46ae-b418-8b2ed1e9bfce {
        stroke: #ea5736;
      }

      .a147ed08-0bc6-488d-b455-487970558f28, .a401b59e-ac5a-41c7-b853-1625f08131fb, .a6538eee-e570-4167-bebe-72c3729c7dd2, .acea2f46-de85-4e6d-a1bc-7ea66a7045fd, .aea1cf66-0577-406f-a146-e57b15d6befd, .b1a13a9a-05be-45b3-816d-3620b5749f66, .b2f7ad2c-0565-4929-ad19-229fb62591cf, .be3817d3-8988-48d3-81e5-d2c3399b8cc3, .eb5d4f67-1f97-450b-9552-919e0c02d1af, .efe62908-5c16-45b2-ac5d-86589e7f6527, .f41c80c5-7917-46ae-b418-8b2ed1e9bfce, .ff35468c-1576-46bc-8cb5-fbe5615c2847 {
        stroke-miterlimit: 10;
      }

      .a401b59e-ac5a-41c7-b853-1625f08131fb {
        stroke-width: 5.38px;
      }

      .eb5d4f67-1f97-450b-9552-919e0c02d1af {
        stroke-width: 2.3px;
      }

      .b14d8687-4b34-47a6-b6c7-ba1f8d4bfb83 {
        fill: #a2a081;
      }

      .aea1cf66-0577-406f-a146-e57b15d6befd {
        stroke-width: 6.29px;
      }

      .be3817d3-8988-48d3-81e5-d2c3399b8cc3 {
        stroke-width: 2.69px;
      }

      .b1a13a9a-05be-45b3-816d-3620b5749f66 {
        stroke-width: 7.2px;
      }

      .f41c80c5-7917-46ae-b418-8b2ed1e9bfce {
        stroke-width: 3.09px;
      }

      .acea2f46-de85-4e6d-a1bc-7ea66a7045fd {
        stroke-width: 6px;
      }

      .bf16922e-05a4-485b-a08f-37098d749e89 {
        fill: #062837;
        stroke: #062837;
        stroke-width: 6.65px;
      }

      .b82b0513-4eec-484b-adfd-d387248e8d05 {
        fill: #77aaa2;
      }

      .a147ed08-0bc6-488d-b455-487970558f28, .b4014d7c-be2c-4899-9202-0282c3acdc38 {
        fill: #fff;
      }

      .efe62908-5c16-45b2-ac5d-86589e7f6527, .f9575bee-2cef-4aa2-8862-a78b67feb26d, .ff35468c-1576-46bc-8cb5-fbe5615c2847 {
        fill: #d4a455;
      }

      .a6538eee-e570-4167-bebe-72c3729c7dd2, .af950688-df77-4445-891d-d4b3f83daa4a {
        fill: #062838;
      }

      .a3b6ac73-a00b-4c64-999e-c4e7237ede06, .efe62908-5c16-45b2-ac5d-86589e7f6527, .ff35468c-1576-46bc-8cb5-fbe5615c2847 {
        stroke: #d4a455;
      }

      .ff35468c-1576-46bc-8cb5-fbe5615c2847 {
        stroke-width: 2.48px;
      }

      .f53d2127-7be2-4373-bc64-b7b6f2004791 {
        fill: #ece8dc;
      }

      .a5832286-6cf1-42ba-96a3-fd5f468295ab {
        fill: #2d2e2c;
      }

      .a53f7afe-49a8-4af4-8706-4d27ecaaf6e1, .f9bd68af-f645-4f0f-b945-e6ab01f67d21 {
        fill: #868072;
      }

      .a53f7afe-49a8-4af4-8706-4d27ecaaf6e1 {
        stroke: #868072;
        stroke-width: 8.16px;
      }

      .e385fec4-c1c8-4062-8eca-ca74bc9be76f {
        clip-path: url(#f628d223-9aee-4acb-9949-94efb4faf170);
      }

      .a4aad833-4e50-48e8-ae46-96527887a3e1 {
        stroke: #31373a;
        stroke-width: 4.6px;
      }

      .a3b6ac73-a00b-4c64-999e-c4e7237ede06 {
        stroke-width: 27.63px;
      }

      .efe62908-5c16-45b2-ac5d-86589e7f6527 {
        stroke-width: 2.3px;
      }

      .a4f05588-642b-4a90-b378-61ad5d4d810e {
        fill: #cec9be;
      }

      .a147ed08-0bc6-488d-b455-487970558f28, .b2f7ad2c-0565-4929-ad19-229fb62591cf {
        stroke: #fff;
      }

      .a6538eee-e570-4167-bebe-72c3729c7dd2 {
        stroke: #062838;
        stroke-width: 5.44px;
      }

      .a6538eee-e570-4167-bebe-72c3729c7dd2, .aca87313-c030-4e6d-970f-b5ea1a0d899e {
        fill-rule: evenodd;
      }

      .b2f7ad2c-0565-4929-ad19-229fb62591cf {
        stroke-width: 24px;
      }

      .aca87313-c030-4e6d-970f-b5ea1a0d899e, .e2fab26a-e333-47dd-9e52-f58a0d8b1af6 {
        fill: #ea5736;
      }

      .adf70937-f45d-4b98-8e2c-8a17e7edb6df {
        fill: #be1622;
      }
    </style>
    <clipPath id="f628d223-9aee-4acb-9949-94efb4faf170">
      <rect class="f5592df7-d0fb-4d22-a45f-12b1c088265c" x="98.33" y="226.43" width="14.04" height="7.98" rx="1.35"/>
    </clipPath>
  </defs>
  <rect class="a7a58e4a-6c79-4dc4-877a-333957d4c605" y="-97.01" width="465.11" height="2577.43"/>
  <rect class="f0a90c7e-e9f1-4d8d-bae0-e17ffad5b9c0" x="175.4" y="190.47" width="14.28" height="23.02"/>
  <rect class="f0a90c7e-e9f1-4d8d-bae0-e17ffad5b9c0" x="213.69" y="190.47" width="14.28" height="23.02"/>
  <rect class="f0a90c7e-e9f1-4d8d-bae0-e17ffad5b9c0" x="175.4" y="231.35" width="14.28" height="23.02"/>
  <rect class="f0a90c7e-e9f1-4d8d-bae0-e17ffad5b9c0" x="250.39" y="231.35" width="14.28" height="23.02"/>
  <rect class="a58a8a9a-b1f6-496b-a0bd-395b2055dd32" x="213.69" y="231.35" width="14.28" height="33.92"/>
  <rect class="f0a90c7e-e9f1-4d8d-bae0-e17ffad5b9c0" x="37.42" y="190.47" width="14.28" height="23.02"/>
  <rect class="f0a90c7e-e9f1-4d8d-bae0-e17ffad5b9c0" x="75.71" y="190.47" width="14.28" height="23.02"/>
  <rect class="f0a90c7e-e9f1-4d8d-bae0-e17ffad5b9c0" x="112.41" y="190.47" width="14.28" height="23.02"/>
  <rect class="f0a90c7e-e9f1-4d8d-bae0-e17ffad5b9c0" x="37.42" y="231.35" width="14.28" height="23.02"/>
  <rect class="f0a90c7e-e9f1-4d8d-bae0-e17ffad5b9c0" x="112.41" y="231.35" width="14.28" height="23.02"/>
  <path class="fc9dfddc-8dd1-451b-a6a2-0660ac06f83a" d="M.1,3.24C44.15,4.56,84.79.41,128.79.6l200.84.88,130.76.58h0L458.09,685.6,1,684.76"/>
  <path class="fc9dfddc-8dd1-451b-a6a2-0660ac06f83a" d="M417.76,691.11c-50.5-156.66-55.07-321.06-105.58-477.72-16.22-50.34,4.87-91-7.92-142.32-3.32-13.33-12.5-51.49,3.86-57.62,10.7-4-16.32-13.87-4.73-13.87l163.8,1.64-1,683.54-324.82,4"/>
  <path class="b8f3562c-a2f0-4d3b-a2b6-626a43461229" d="M364.44,691c23.64-120.6-12.63-243.83-44.28-362.55S261.46,81.84,302.24-34a370.32,370.32,0,0,1,32-67.29c28.9,1.13,55.33-2.83,84.23-1.7C381.3,1.23,359.77,114.62,382.67,223c6.7,31.72,17.11,62.52,25.9,93.73,34,120.64,43.56,246.8,48.14,372.1"/>
  <rect class="a58a8a9a-b1f6-496b-a0bd-395b2055dd32" x="75.71" y="231.35" width="14.28" height="33.92"/>
  <rect class="b8f3562c-a2f0-4d3b-a2b6-626a43461229" x="0.11" y="114.03" width="293.45" height="15.55"/>
  <rect class="b8f3562c-a2f0-4d3b-a2b6-626a43461229" x="1.01" y="628.19" width="375.17" height="50.22"/>
  <rect class="addefa5f-b6c6-4970-91f2-706e8d4acdac" x="2.03" y="-97.14" width="465.11" height="98.36"/>
  <g>
    <ellipse class="a10f3e48-ab9b-42c3-9bc2-a7d58ea58d77" cx="436.48" cy="107.83" rx="12.25" ry="4.45"/>
    <g>
      <line class="a401b59e-ac5a-41c7-b853-1625f08131fb" x1="436.54" y1="107.18" x2="436.54" y2="67.37"/>
      <path class="eb5d4f67-1f97-450b-9552-919e0c02d1af" d="M426.3,69.93s.92,10.3,10.24,14"/>
      <path class="eb5d4f67-1f97-450b-9552-919e0c02d1af" d="M446.62,66S445.4,78.1,436.54,78.1"/>
      <circle class="b14d8687-4b34-47a6-b6c7-ba1f8d4bfb83" cx="448.27" cy="64.39" r="8.01"/>
      <circle class="b14d8687-4b34-47a6-b6c7-ba1f8d4bfb83" cx="453.88" cy="42.67" r="8.01"/>
      <circle class="b14d8687-4b34-47a6-b6c7-ba1f8d4bfb83" cx="420.71" cy="43.47" r="9.57"/>
      <circle class="b14d8687-4b34-47a6-b6c7-ba1f8d4bfb83" cx="435.77" cy="66.75" r="6.24"/>
      <circle class="b14d8687-4b34-47a6-b6c7-ba1f8d4bfb83" cx="456.27" cy="55.68" r="10.3"/>
      <circle class="b14d8687-4b34-47a6-b6c7-ba1f8d4bfb83" cx="415.6" cy="55.68" r="9.22"/>
      <circle class="b14d8687-4b34-47a6-b6c7-ba1f8d4bfb83" cx="432.44" cy="37.96" r="13.73"/>
      <circle class="b14d8687-4b34-47a6-b6c7-ba1f8d4bfb83" cx="442.69" cy="39.92" r="10.97"/>
      <circle class="b14d8687-4b34-47a6-b6c7-ba1f8d4bfb83" cx="434.65" cy="53.65" r="13.73"/>
      <circle class="b14d8687-4b34-47a6-b6c7-ba1f8d4bfb83" cx="424.67" cy="64.39" r="7.99"/>
    </g>
  </g>
  <g>
    <ellipse class="a10f3e48-ab9b-42c3-9bc2-a7d58ea58d77" cx="408.96" cy="148.02" rx="14.32" ry="5.21"/>
    <g>
      <line class="aea1cf66-0577-406f-a146-e57b15d6befd" x1="409.04" y1="147.26" x2="409.04" y2="100.72"/>
      <path class="be3817d3-8988-48d3-81e5-d2c3399b8cc3" d="M397.07,103.71s1.07,12,12,16.43"/>
      <path class="be3817d3-8988-48d3-81e5-d2c3399b8cc3" d="M420.82,99.07s-1.43,14.18-11.78,14.18"/>
      <circle class="b14d8687-4b34-47a6-b6c7-ba1f8d4bfb83" cx="422.75" cy="97.24" r="9.36"/>
      <circle class="b14d8687-4b34-47a6-b6c7-ba1f8d4bfb83" cx="429.31" cy="71.84" r="9.36"/>
      <circle class="b14d8687-4b34-47a6-b6c7-ba1f8d4bfb83" cx="390.53" cy="72.76" r="11.19"/>
      <circle class="b14d8687-4b34-47a6-b6c7-ba1f8d4bfb83" cx="408.13" cy="99.98" r="7.3"/>
      <circle class="b14d8687-4b34-47a6-b6c7-ba1f8d4bfb83" cx="432.11" cy="87.04" r="12.04"/>
      <circle class="b14d8687-4b34-47a6-b6c7-ba1f8d4bfb83" cx="384.55" cy="87.04" r="10.78"/>
      <circle class="b14d8687-4b34-47a6-b6c7-ba1f8d4bfb83" cx="404.24" cy="66.33" r="16.05"/>
      <circle class="b14d8687-4b34-47a6-b6c7-ba1f8d4bfb83" cx="416.22" cy="68.62" r="12.82"/>
      <circle class="b14d8687-4b34-47a6-b6c7-ba1f8d4bfb83" cx="406.83" cy="84.67" r="16.05"/>
      <circle class="b14d8687-4b34-47a6-b6c7-ba1f8d4bfb83" cx="395.16" cy="97.24" r="9.34"/>
    </g>
  </g>
  <g>
    <ellipse class="a10f3e48-ab9b-42c3-9bc2-a7d58ea58d77" cx="426.3" cy="220.27" rx="16.4" ry="5.97"/>
    <g>
      <line class="b1a13a9a-05be-45b3-816d-3620b5749f66" x1="426.39" y1="219.4" x2="426.39" y2="166.07"/>
      <path class="f41c80c5-7917-46ae-b418-8b2ed1e9bfce" d="M412.68,169.5s1.23,13.8,13.71,18.83"/>
      <path class="f41c80c5-7917-46ae-b418-8b2ed1e9bfce" d="M439.89,164.19s-1.63,16.25-13.5,16.25"/>
      <circle class="b14d8687-4b34-47a6-b6c7-ba1f8d4bfb83" cx="442.1" cy="162.08" r="10.72"/>
      <circle class="b14d8687-4b34-47a6-b6c7-ba1f8d4bfb83" cx="449.62" cy="132.98" r="10.72"/>
      <circle class="b14d8687-4b34-47a6-b6c7-ba1f8d4bfb83" cx="405.18" cy="134.04" r="12.82"/>
      <circle class="b14d8687-4b34-47a6-b6c7-ba1f8d4bfb83" cx="425.35" cy="165.23" r="8.36"/>
      <circle class="b14d8687-4b34-47a6-b6c7-ba1f8d4bfb83" cx="452.82" cy="150.41" r="13.8"/>
      <circle class="b14d8687-4b34-47a6-b6c7-ba1f8d4bfb83" cx="398.33" cy="150.41" r="12.35"/>
      <circle class="b14d8687-4b34-47a6-b6c7-ba1f8d4bfb83" cx="420.89" cy="126.67" r="18.39"/>
      <circle class="b14d8687-4b34-47a6-b6c7-ba1f8d4bfb83" cx="434.62" cy="129.29" r="14.69"/>
      <circle class="b14d8687-4b34-47a6-b6c7-ba1f8d4bfb83" cx="423.86" cy="147.68" r="18.39"/>
      <circle class="b14d8687-4b34-47a6-b6c7-ba1f8d4bfb83" cx="410.48" cy="162.08" r="10.7"/>
    </g>
  </g>
  <g>
    <rect class="acea2f46-de85-4e6d-a1bc-7ea66a7045fd" x="27.45" y="147.46" width="274.53" height="452.45"/>
    <polygon class="bf16922e-05a4-485b-a08f-37098d749e89" points="289.93 61.63 269.63 61.63 269.63 16.51 233.53 16.51 233.53 61.63 164.71 61.63 39.49 61.63 6.77 145.12 164.71 145.12 322.65 145.12 289.93 61.63"/>
    <rect class="b82b0513-4eec-484b-adfd-d387248e8d05" x="83.82" y="180.7" width="69.94" height="69.94"/>
    <rect class="b82b0513-4eec-484b-adfd-d387248e8d05" x="175.66" y="180.7" width="69.94" height="69.94"/>
    <rect class="b82b0513-4eec-484b-adfd-d387248e8d05" x="83.82" y="274.82" width="69.94" height="69.94"/>
    <rect class="b82b0513-4eec-484b-adfd-d387248e8d05" x="175.66" y="274.82" width="69.94" height="69.94"/>
    <rect class="b82b0513-4eec-484b-adfd-d387248e8d05" x="83.82" y="364.23" width="69.94" height="69.94"/>
    <rect class="b82b0513-4eec-484b-adfd-d387248e8d05" x="175.66" y="364.23" width="69.94" height="69.94"/>
    <rect class="bf16922e-05a4-485b-a08f-37098d749e89" x="129.74" y="459.01" width="69.94" height="143.58"/>
  </g>
  <g>
    <g>
      <path class="b4014d7c-be2c-4899-9202-0282c3acdc38" d="M207.79,470.28c-5.08-107.08-49-114.61-49.4-114.65L161,327.81c2.73.28,67,8.46,73.25,141.07Z"/>
      <rect class="f9575bee-2cef-4aa2-8862-a78b67feb26d" x="209.3" y="464.32" width="23.42" height="24.73" rx="2.83" transform="translate(442.01 953.37) rotate(-180)"/>
      <path class="af950688-df77-4445-891d-d4b3f83daa4a" d="M100.2,640.78H73.73c0-87.29,18.11-166.21,18.89-169.53l37.7,6.66C130.14,478.7,100.2,557,100.2,640.78Z"/>
      <path class="af950688-df77-4445-891d-d4b3f83daa4a" d="M193.37,640.78H166.9c0-83.95-28.94-162.08-29.12-162.86l36.71-6.67C175.26,474.57,193.37,553.49,193.37,640.78Z"/>
      <rect class="ff35468c-1576-46bc-8cb5-fbe5615c2847" x="74.54" y="152.52" width="113.36" height="162.15" rx="56.68"/>
      <rect class="f53d2127-7be2-4373-bc64-b7b6f2004791" x="98.33" y="226.43" width="14.04" height="7.98" rx="1.35"/>
      <rect class="f53d2127-7be2-4373-bc64-b7b6f2004791" x="151.54" y="226.43" width="14.04" height="7.98" rx="1.35"/>
      <ellipse class="a5832286-6cf1-42ba-96a3-fd5f468295ab" cx="158.56" cy="230.42" rx="3" ry="3.17"/>
      <line class="a53f7afe-49a8-4af4-8706-4d27ecaaf6e1" x1="98.33" y1="218.3" x2="110" y2="218.3"/>
      <line class="a53f7afe-49a8-4af4-8706-4d27ecaaf6e1" x1="153.52" y1="218.3" x2="165.19" y2="218.3"/>
      <g class="e385fec4-c1c8-4062-8eca-ca74bc9be76f">
        <ellipse class="a5832286-6cf1-42ba-96a3-fd5f468295ab" cx="105.35" cy="230.42" rx="2.95" ry="3.12"/>
      </g>
      <path class="a4aad833-4e50-48e8-ae46-96527887a3e1" d="M136.67,248.5h-4.29c-2.94,0-2.94-3.06-2.94-3.06V241"/>
      <line class="a3b6ac73-a00b-4c64-999e-c4e7237ede06" x1="133.82" y1="294.59" x2="133.82" y2="341.9"/>
      <path class="f9bd68af-f645-4f0f-b945-e6ab01f67d21" d="M100.25,639.47h-50c-7.83,0-14.18,6.7-14.18,15v5.15h64.59Z"/>
      <path class="f9bd68af-f645-4f0f-b945-e6ab01f67d21" d="M216.94,639.47h-50l-.4,20.12h64.59v-5.15C231.13,646.17,224.78,639.47,216.94,639.47Z"/>
      <ellipse class="efe62908-5c16-45b2-ac5d-86589e7f6527" cx="71.25" cy="241.04" rx="14.17" ry="14.97"/>
      <ellipse class="efe62908-5c16-45b2-ac5d-86589e7f6527" cx="190.23" cy="241.04" rx="14.17" ry="14.97"/>
      <path class="a4f05588-642b-4a90-b378-61ad5d4d810e" d="M189.68,223.38c.68-29.19-4-41.53-4-41.53-6.49-23.58-25-23.1-25-23.1a5.45,5.45,0,0,0-3.72,1.39,6.72,6.72,0,0,0-2.11,5.44l1.12,17a6.64,6.64,0,0,0,2.84,5.11c1.2.79,2.42,1.68,3.61,2.62A48.53,48.53,0,0,1,175.31,206l3.46,18.34a4.21,4.21,0,0,0,4.28,3.52h0c2.21-.12,6.63-2.13,6.63-4.47"/>
      <path class="a4f05588-642b-4a90-b378-61ad5d4d810e" d="M72.05,223.33c-.69-29.2,4-41.53,4-41.53,6.48-23.58,25-23.1,25-23.1a5.5,5.5,0,0,1,3.72,1.38,6.74,6.74,0,0,1,2.11,5.45l-1.12,17a6.65,6.65,0,0,1-2.85,5.1c-1.2.8-2.41,1.68-3.6,2.63a48.17,48.17,0,0,0-12.94,15.69L83,224.28a4.19,4.19,0,0,1-4.27,3.51h0c-2.21-.11-6.63-2.12-6.63-4.46"/>
      <path class="a4aad833-4e50-48e8-ae46-96527887a3e1" d="M143.8,272.11c0,6.43-4.94,11.64-11,11.64s-11-5.21-11-11.64"/>
      <path class="f53d2127-7be2-4373-bc64-b7b6f2004791" d="M158.57,275.64h0c0-9.68-3.31-17.6-7.36-17.6H113c-4,0-7.36,7.92-7.36,17.6h52.94Z"/>
      <path class="f9575bee-2cef-4aa2-8862-a78b67feb26d" d="M133.93,345.88c10.55,0,19.13-9.37,19.64-21.13H114.29C114.8,336.51,123.38,345.88,133.93,345.88Z"/>
      <path class="a147ed08-0bc6-488d-b455-487970558f28" d="M156,326.23a2.5,2.5,0,0,0-2.67,2.14c-1.49,9.92-9.6,17.51-19.42,17.51s-18-7.65-19.43-17.62a2.48,2.48,0,0,0-2.42-2.15h0C95.46,326.11,82,340.34,82,357.89V466.16c0,17.55,13.47,31.78,30.09,31.78h41.39c16.61,0,30.09-14.23,30.09-31.78V357.88C183.56,341.25,171.44,327.6,156,326.23Z"/>
      <path class="a6538eee-e570-4167-bebe-72c3729c7dd2" d="M82.08,448.35v39.19c0,9.84,7.54,17.81,16.85,17.81h67.72c9.31,0,16.86-8,16.86-17.81V448.35Z"/>
      <path class="b2f7ad2c-0565-4929-ad19-229fb62591cf" d="M103.57,339.61c-14.76,3.24-29.43,9.86-38.77,21.75s-12,29.8-3.33,42.2c5.71,8.19,15.39,12.92,25.2,14.75s19.91,1.1,29.86.36"/>
    </g>
    <path class="aca87313-c030-4e6d-970f-b5ea1a0d899e" d="M155.19,375.74c-4.06-11.44-15.61-8.77-15.69,4.5,0,7.3,5.5,10,9.19,12.94s6.13,6.69,6.53,8.34c.34-1.62,3.18-5.59,6.49-8.42,3.62-3.1,9.23-5.64,9.19-12.94C170.82,366.85,159.07,364.75,155.19,375.74Z"/>
    <g>
      <path class="e2fab26a-e333-47dd-9e52-f58a0d8b1af6" d="M120.18,375.1l-5.91,14.06a.48.48,0,0,1-.12.21l0,0a1.49,1.49,0,0,1-.12.14s0,0,0,.08a.59.59,0,0,0-.17.12h0c-.07,0-.12.12-.22.14h0s0,0,0,0a.9.9,0,0,0-.19.05h0a.9.9,0,0,1-.46,0h-.07a.77.77,0,0,0-.17-.05s0,0,0,0a.55.55,0,0,1-.21-.14h0c-.07-.05-.12-.1-.16-.12a.16.16,0,0,1,0-.08,1.21,1.21,0,0,1-.1-.14s0,0,0,0a.45.45,0,0,1-.09-.21l-3.16-7.48-3.16,7.48a.82.82,0,0,1-.1.21s0,0,0,0l-.15.14s0,0,0,.08a.39.39,0,0,0-.14.12h0c-.07,0-.15.12-.2.14h0a0,0,0,0,0,0,0,.44.44,0,0,0-.2.05h-.07a.53.53,0,0,1-.22,0,.66.66,0,0,1-.24,0H104a.77.77,0,0,0-.17-.05s0,0,0,0a.64.64,0,0,1-.21-.14h0c-.07-.05-.09-.1-.17-.12l0-.08-.13-.14v0s-.07-.14-.12-.21L97.15,375.1a1.31,1.31,0,0,1,.73-1.71,1.29,1.29,0,0,1,1.71.7l4.72,11.16,3.11-7.4a1.34,1.34,0,0,1,1.26-.82,1.38,1.38,0,0,1,1.25.82l3.11,7.4,4.7-11.16a1.33,1.33,0,0,1,1.76-.7A1.3,1.3,0,0,1,120.18,375.1Z"/>
      <path class="e2fab26a-e333-47dd-9e52-f58a0d8b1af6" d="M121.84,384a6,6,0,0,1,5.88-6,5.76,5.76,0,0,1,5.81,5.6v.12a.78.78,0,0,1,0,.21,1.17,1.17,0,0,1-1.26,1h-7.66a3.13,3.13,0,0,0,.82,1.59,3.69,3.69,0,0,0,2.31,1.08,3.88,3.88,0,0,0,2.51-.6,1.36,1.36,0,0,1,1.81-.07,1.11,1.11,0,0,1,0,1.57,6.13,6.13,0,0,1-4.32,1.59A6,6,0,0,1,121.84,384Zm2.63-1.18h6.82a3.94,3.94,0,0,0-3.57-2.56A3.36,3.36,0,0,0,124.47,382.77Z"/>
    </g>
  </g>
  <g class="text-cta text-cta--10">
    <path class="e2fab26a-e333-47dd-9e52-f58a0d8b1af6" d="M210.28,428.16l-34,166.65a2.21,2.21,0,0,1-4,.85l-15.27-21.42a2.21,2.21,0,0,0-3-.6l-22,13.74a2.22,2.22,0,0,1-3.35-2.32l34-166.6a10.89,10.89,0,0,1,12.85-8.5l26.27,5.36a10.89,10.89,0,0,1,8.5,12.84"/>
    <path class="adf70937-f45d-4b98-8e2c-8a17e7edb6df" d="M188.66,412.65,175.51,410a10.89,10.89,0,0,0-12.85,8.5l-34,166.6a2.22,2.22,0,0,0,3.35,2.32l22-13.74a2.19,2.19,0,0,1,1.76-.23Z"/>
    <path class="adf70937-f45d-4b98-8e2c-8a17e7edb6df" d="M193.76,428.16l34,166.65a2.21,2.21,0,0,0,4,.85L247,574.24a2.21,2.21,0,0,1,3-.6L272,587.38a2.22,2.22,0,0,0,3.35-2.32l-34-166.6a10.89,10.89,0,0,0-12.85-8.5l-26.27,5.36a10.89,10.89,0,0,0-8.5,12.84"/>
    <path class="e2fab26a-e333-47dd-9e52-f58a0d8b1af6" d="M215.38,412.65,228.53,410a10.89,10.89,0,0,1,12.85,8.5l34,166.6a2.22,2.22,0,0,1-3.35,2.32l-22.05-13.74a2.19,2.19,0,0,0-1.76-.23Z"/>
    <g>
      <circle class="e2fab26a-e333-47dd-9e52-f58a0d8b1af6" cx="202.02" cy="386.26" r="66.17"/>
      <path class="adf70937-f45d-4b98-8e2c-8a17e7edb6df" d="M202,458.88a72.62,72.62,0,1,1,72.62-72.62A72.7,72.7,0,0,1,202,458.88Zm0-132.33a59.71,59.71,0,1,0,59.71,59.71A59.78,59.78,0,0,0,202,326.55Z"/>
    </g>
    <circle class="a7a58e4a-6c79-4dc4-877a-333957d4c605" cx="202.02" cy="386.26" r="47.33"/>
    <g>
    <path class="af950688-df77-4445-891d-d4b3f83daa4a" d="M160.49,390.58a1.63,1.63,0,0,1,2.27-.22,10.08,10.08,0,0,0,5.92,2.39,6.68,6.68,0,0,0,3.87-1.14,2.82,2.82,0,0,0,1.34-2.24,1.82,1.82,0,0,0-.28-1,3,3,0,0,0-.93-.93,12.38,12.38,0,0,0-4.25-1.46h-.06a16.72,16.72,0,0,1-4-1.21,6.55,6.55,0,0,1-2.88-2.42,4.7,4.7,0,0,1-.72-2.54,5.73,5.73,0,0,1,2.48-4.52,9.15,9.15,0,0,1,5.37-1.65,12.22,12.22,0,0,1,6.76,2.48,1.59,1.59,0,0,1,.43,2.2,1.56,1.56,0,0,1-2.2.47c-1.58-1.05-3.1-2-5-2a5.94,5.94,0,0,0-3.48,1.05,2.47,2.47,0,0,0-1.17,1.95,1.56,1.56,0,0,0,.21.87,3.11,3.11,0,0,0,.84.81,10.67,10.67,0,0,0,3.88,1.36H169a18.22,18.22,0,0,1,4.28,1.3,7.28,7.28,0,0,1,3.1,2.58,5,5,0,0,1,.74,2.63,6,6,0,0,1-2.67,4.81,9.7,9.7,0,0,1-5.73,1.77,13.47,13.47,0,0,1-7.94-3.1A1.67,1.67,0,0,1,160.49,390.58Z"/>
    <path class="af950688-df77-4445-891d-d4b3f83daa4a" d="M181.85,394.27V376a1.72,1.72,0,0,1,3.44,0v7.44h8V376a1.69,1.69,0,0,1,1.71-1.71,1.72,1.72,0,0,1,1.74,1.71v18.29A1.72,1.72,0,0,1,195,396a1.69,1.69,0,0,1-1.71-1.71v-7.44h-8v7.44a1.72,1.72,0,0,1-3.44,0Z"/>
    <path class="af950688-df77-4445-891d-d4b3f83daa4a" d="M225.72,399.05A8.57,8.57,0,0,1,220.6,401h-.09a11,11,0,0,1-5.67-1.86,3.89,3.89,0,0,0-1.89-.47,5.39,5.39,0,0,0-2.21.53,1.62,1.62,0,0,1-1.79-.09s-.1,0-.19-.06,0,0-.06,0a2.43,2.43,0,0,1-.44-.72,1.78,1.78,0,0,1,.84-2.39l.09-.06a13.72,13.72,0,0,1-3.44-2.35,12.15,12.15,0,0,1-3.1-8.1,11.91,11.91,0,0,1,3.1-8A10.52,10.52,0,0,1,213.5,374a10.22,10.22,0,0,1,7.69,3.44,11.5,11.5,0,0,1,3.17,8,11.73,11.73,0,0,1-3.17,8.1,12,12,0,0,1-3.44,2.45l-.71.27a7.54,7.54,0,0,0,3.47,1.12,4.69,4.69,0,0,0,3-1.18,1.79,1.79,0,0,1,2.51.31A1.82,1.82,0,0,1,225.72,399.05ZM208.45,391a6.73,6.73,0,0,0,5.05,2.24,7.07,7.07,0,0,0,5.12-2.24,8.09,8.09,0,0,0,2.14-5.58,7.87,7.87,0,0,0-2.14-5.52,7,7,0,0,0-5.12-2.26,6.68,6.68,0,0,0-5.05,2.26,7.87,7.87,0,0,0-2.14,5.52A8.09,8.09,0,0,0,208.45,391Z"/>
    <path class="af950688-df77-4445-891d-d4b3f83daa4a" d="M229.31,390.58a1.63,1.63,0,0,1,2.27-.22,10.08,10.08,0,0,0,5.92,2.39,6.68,6.68,0,0,0,3.87-1.14,2.82,2.82,0,0,0,1.34-2.24,1.82,1.82,0,0,0-.28-1,3,3,0,0,0-.93-.93,12.38,12.38,0,0,0-4.25-1.46h-.06a16.72,16.72,0,0,1-4-1.21,6.64,6.64,0,0,1-2.89-2.42,4.78,4.78,0,0,1-.71-2.54,5.73,5.73,0,0,1,2.48-4.52,9.15,9.15,0,0,1,5.37-1.65,12.15,12.15,0,0,1,6.75,2.48,1.59,1.59,0,0,1,.44,2.2,1.56,1.56,0,0,1-2.2.47c-1.58-1.05-3.1-2-5-2a5.94,5.94,0,0,0-3.48,1.05,2.48,2.48,0,0,0-1.18,1.95,1.56,1.56,0,0,0,.22.87,3.11,3.11,0,0,0,.84.81,10.67,10.67,0,0,0,3.88,1.36h.06a18.22,18.22,0,0,1,4.28,1.3,7.28,7.28,0,0,1,3.1,2.58,5,5,0,0,1,.74,2.63,6,6,0,0,1-2.67,4.81A9.73,9.73,0,0,1,237.5,396a13.47,13.47,0,0,1-7.94-3.1A1.67,1.67,0,0,1,229.31,390.58Z"/>
  </g>
  </g>
  
  <rect class="ff35468c-1576-46bc-8cb5-fbe5615c2847" x="119.97" y="395.44" width="27.93" height="27.93" rx="8.24" transform="translate(-78.61 34.74) rotate(-11.45)"/>
  <g>
    <path class="a7a58e4a-6c79-4dc4-877a-333957d4c605" d="M59.81,79.71a5.34,5.34,0,0,1,10.65-.55s0,0,0,0c0,.42,0,.83,0,1.25A12.85,12.85,0,0,1,69.75,85a7.66,7.66,0,0,1-2.84,3.76,6.21,6.21,0,0,1-3.3,1,1.22,1.22,0,0,1-1.27-1.17,1.25,1.25,0,0,1,1.18-1.27,4.11,4.11,0,0,0,2.07-.62A4.53,4.53,0,0,0,67,85.17a3.77,3.77,0,0,0,.28-.57,5.24,5.24,0,0,1-2.11.44A5.33,5.33,0,0,1,59.81,79.71Zm2.44,0a2.9,2.9,0,1,0,5.79,0,2.9,2.9,0,0,0-5.79,0Z"/>
    <path class="a7a58e4a-6c79-4dc4-877a-333957d4c605" d="M85.68,85.7a1.21,1.21,0,0,1-1.23,1.21h-.22v1.67a1.21,1.21,0,0,1-2.42,0V86.91H74.88a1.07,1.07,0,0,1-.75-.27,1.17,1.17,0,0,1-.2-1.69l8.14-10.12s0,0,0,0a.19.19,0,0,0,.07-.08.29.29,0,0,0,.11-.07l.09-.06a.17.17,0,0,1,.13,0,.11.11,0,0,1,.09-.07s.06,0,.13,0a.15.15,0,0,0,.09,0h.37a.23.23,0,0,0,.11,0s.09,0,.13,0l.09,0a.59.59,0,0,1,.11.09l.11.06a0,0,0,0,1,0,0s.07,0,.07,0l.09.08a.7.7,0,0,0,.06.09.59.59,0,0,1,.09.11.16.16,0,0,0,.05.09,1,1,0,0,1,0,.13s0,.07,0,.09a.19.19,0,0,1,0,.13s0,.07,0,.11v9h.22A1.23,1.23,0,0,1,85.68,85.7Zm-3.87-6.65-4.38,5.44h4.38Z"/>
    <path class="a7a58e4a-6c79-4dc4-877a-333957d4c605" d="M90.52,86.67a1.66,1.66,0,0,1,1.65,1.65,1.64,1.64,0,0,1-1.65,1.62,1.62,1.62,0,0,1-1.63-1.62A1.64,1.64,0,0,1,90.52,86.67Z"/>
    <path class="a7a58e4a-6c79-4dc4-877a-333957d4c605" d="M97.05,75.6v13a1.22,1.22,0,0,1-1.23,1.21,1.2,1.2,0,0,1-1.21-1.21V77.76l-.88.5a1.13,1.13,0,0,1-.62.18,1.24,1.24,0,0,1-.64-2.27l2.71-1.6s.07,0,.09,0,.07,0,.11-.07l.13,0a.15.15,0,0,1,.09,0,.39.39,0,0,1,.15,0H96a.12.12,0,0,0,.08,0,.29.29,0,0,1,.14,0,.09.09,0,0,1,.08,0c.07,0,.09.06.14.06a.19.19,0,0,0,.08.07l.09.06a.37.37,0,0,1,.09.09l.07.09.08.09,0,0s0,0,0,.07a.21.21,0,0,1,0,.11s0,.09,0,.11,0,.09,0,.11a.19.19,0,0,0,0,.15Z"/>
    <path class="a7a58e4a-6c79-4dc4-877a-333957d4c605" d="M99.63,78.2v0a3.72,3.72,0,0,1,3.65-3.94,3.67,3.67,0,0,1,3.61,3.9v0a3.72,3.72,0,0,1-3.66,3.94A3.67,3.67,0,0,1,99.63,78.2Zm5.3,0v0c0-1.23-.71-2.24-1.7-2.24s-1.65,1-1.65,2.2v0c0,1.26.71,2.25,1.7,2.25S104.93,79.38,104.93,78.2Zm-2.77,10.27,10.09-13.8a.89.89,0,0,1,1.63.47.92.92,0,0,1-.2.57l-10.09,13.8a.93.93,0,0,1-.78.39A.84.84,0,0,1,102,89,1,1,0,0,1,102.16,88.47Zm6.77-2.4v0a3.72,3.72,0,0,1,3.65-3.94A3.68,3.68,0,0,1,116.19,86v0a3.64,3.64,0,1,1-7.26,0Zm5.3,0v0c0-1.23-.7-2.25-1.69-2.25s-1.65,1-1.65,2.2v0c0,1.25.7,2.24,1.69,2.24S114.23,87.26,114.23,86.07Z"/>
    <path class="a7a58e4a-6c79-4dc4-877a-333957d4c605" d="M129.79,79a5.4,5.4,0,1,1-5.11,5.39A5.27,5.27,0,0,1,129.79,79Zm0,9.72a4.36,4.36,0,1,0-4-4.33A4.22,4.22,0,0,0,129.79,88.73Z"/>
    <path class="a7a58e4a-6c79-4dc4-877a-333957d4c605" d="M142.92,75a.53.53,0,0,1-.53.53c-.74,0-1.14.15-1.36.42a2.64,2.64,0,0,0-.44,1.78v1.14h1.52a.54.54,0,1,1,0,1.08h-1.52v9.38a.54.54,0,0,1-1.08,0V79.91h-1.43a.54.54,0,0,1,0-1.08h1.43V77.69a3.81,3.81,0,0,1,.71-2.51,2.85,2.85,0,0,1,2.17-.77A.54.54,0,0,1,142.92,75Z"/>
    <path class="a7a58e4a-6c79-4dc4-877a-333957d4c605" d="M157.33,79a5.4,5.4,0,1,1-5.1,5.39A5.27,5.27,0,0,1,157.33,79Zm0,9.72a4.36,4.36,0,1,0-4.05-4.33A4.22,4.22,0,0,0,157.33,88.73Z"/>
    <path class="a7a58e4a-6c79-4dc4-877a-333957d4c605" d="M165.91,79.52a.52.52,0,0,1,.53-.53.53.53,0,0,1,.53.53v5.87a3.32,3.32,0,1,0,6.64,0V79.52a.54.54,0,0,1,.53-.53.53.53,0,0,1,.55.53v5.87a4.39,4.39,0,1,1-8.78,0Z"/>
    <path class="a7a58e4a-6c79-4dc4-877a-333957d4c605" d="M179.62,79.56a.53.53,0,0,1,.55-.53.51.51,0,0,1,.5.53v2.38a1.91,1.91,0,0,1,.16-.27A5.2,5.2,0,0,1,185.14,79a.52.52,0,0,1,.53.53.53.53,0,0,1-.53.53A3.86,3.86,0,0,0,182,81.85a9.5,9.5,0,0,0-1.3,2.51.28.28,0,0,0-.05.17v4.73a.51.51,0,0,1-.5.53.53.53,0,0,1-.55-.53Z"/>
    <path class="a7a58e4a-6c79-4dc4-877a-333957d4c605" d="M203.8,83.26a3.44,3.44,0,0,0-6.85,0v6.07a.64.64,0,0,1,0,.09.79.79,0,0,1,0,.09.51.51,0,0,1-.33.26l-.05,0h-.11a.61.61,0,0,1-.42-.17.71.71,0,0,1-.08-.18.38.38,0,0,1,0-.18V74.92a.54.54,0,0,1,1.08,0v5.67A4.49,4.49,0,0,1,200.36,79a4.3,4.3,0,0,1,4.51,4.25v6a.54.54,0,0,1-.55.53.53.53,0,0,1-.52-.53Z"/>
    <path class="a7a58e4a-6c79-4dc4-877a-333957d4c605" d="M214,79a5.4,5.4,0,1,1-5.11,5.39A5.27,5.27,0,0,1,214,79Zm0,9.72a4.36,4.36,0,1,0-4.05-4.33A4.22,4.22,0,0,0,214,88.73Z"/>
    <path class="a7a58e4a-6c79-4dc4-877a-333957d4c605" d="M238.53,83.41a3.33,3.33,0,1,0-6.66,0v5.94a.12.12,0,0,1,0,.05v0a.63.63,0,0,1-.27.29.65.65,0,0,1-.26.06h-.11l-.05,0a.28.28,0,0,1-.13-.07s0,0-.06,0l-.07-.07s0,0,0,0,0,0,0,0a.08.08,0,0,0,0-.05.07.07,0,0,0,0-.06v-6a3.33,3.33,0,1,0-6.65,0v5.88a.44.44,0,0,1-.24.41.21.21,0,0,1-.13.07s0,0-.09,0h-.13a.58.58,0,0,1-.44-.39V79.54a.51.51,0,0,1,.51-.51.5.5,0,0,1,.52.51v1A4.34,4.34,0,0,1,227.47,79a4.39,4.39,0,0,1,3.85,2.29A4.47,4.47,0,0,1,235.19,79a4.38,4.38,0,0,1,4.38,4.38v5.88a.52.52,0,0,1-1,0Z"/>
    <path class="a7a58e4a-6c79-4dc4-877a-333957d4c605" d="M243.26,84.42A5.22,5.22,0,0,1,253.69,84v.08a.5.5,0,0,1-.53.49h-8.84a4.24,4.24,0,0,0,4.18,4.13,4,4,0,0,0,3.47-2,.52.52,0,0,1,.71-.18.57.57,0,0,1,.18.75,5.17,5.17,0,0,1-4.36,2.44A5.31,5.31,0,0,1,243.26,84.42Zm1.12-.86h8.17a4.16,4.16,0,0,0-4.05-3.49A4.21,4.21,0,0,0,244.38,83.56Z"/>
    <path class="a7a58e4a-6c79-4dc4-877a-333957d4c605" d="M256.68,87.55a.53.53,0,0,1,.75-.07,5.79,5.79,0,0,0,3.3,1.25,3.24,3.24,0,0,0,2-.66,1.61,1.61,0,0,0,.81-1.32,1.71,1.71,0,0,0-.77-1.32,5.42,5.42,0,0,0-2.29-.79l0,0a6.15,6.15,0,0,1-2.44-.84,2.23,2.23,0,0,1-1.17-1.93,2.64,2.64,0,0,1,1.17-2.11,4.62,4.62,0,0,1,2.64-.73,5.8,5.8,0,0,1,3.21,1.17.54.54,0,0,1,.15.74.52.52,0,0,1-.72.16A4.74,4.74,0,0,0,260.69,80a3.21,3.21,0,0,0-2.05.62,1.61,1.61,0,0,0-.68,1.23,1.32,1.32,0,0,0,.61,1.08,5.41,5.41,0,0,0,2.2.74h.05a7.85,7.85,0,0,1,2.62.88,2.57,2.57,0,0,1,0,4.38,4.36,4.36,0,0,1-2.68.86,6.49,6.49,0,0,1-4-1.54A.5.5,0,0,1,256.68,87.55Z"/>
    <path class="a7a58e4a-6c79-4dc4-877a-333957d4c605" d="M84.24,104.41a3.34,3.34,0,1,0-6.67,0v5.94a.12.12,0,0,1,0,.05v0a.57.57,0,0,1-.26.29.66.66,0,0,1-.27.06h-.11a.07.07,0,0,1,0,0c-.05,0-.09,0-.13-.07a.1.1,0,0,1-.07,0l-.07-.07s0,0,0,0,0,0,0,0a.08.08,0,0,0,0-.05.06.06,0,0,0,0-.06v-6a3.32,3.32,0,1,0-6.64,0v5.88a.46.46,0,0,1-.24.41.23.23,0,0,1-.14.07s0,0-.08,0h-.14a.6.6,0,0,1-.44-.39v-9.86a.52.52,0,0,1,.51-.51.5.5,0,0,1,.53.51v1A4.32,4.32,0,0,1,73.17,100,4.39,4.39,0,0,1,77,102.32,4.47,4.47,0,0,1,80.89,100a4.38,4.38,0,0,1,4.38,4.38v5.88a.51.51,0,0,1-.53.5.51.51,0,0,1-.5-.5Z"/>
    <path class="a7a58e4a-6c79-4dc4-877a-333957d4c605" d="M89,105.42A5.22,5.22,0,0,1,99.4,105v.08a.51.51,0,0,1-.53.49H90a4.24,4.24,0,0,0,4.18,4.13,4.06,4.06,0,0,0,3.48-2,.51.51,0,0,1,.7-.18.56.56,0,0,1,.18.75,5.14,5.14,0,0,1-4.36,2.44A5.3,5.3,0,0,1,89,105.42Zm1.12-.86h8.16a4.16,4.16,0,0,0-4-3.49A4.2,4.2,0,0,0,90.09,104.56Z"/>
    <path class="a7a58e4a-6c79-4dc4-877a-333957d4c605" d="M102.36,105.42a5.22,5.22,0,0,1,10.43-.39v.08a.5.5,0,0,1-.52.49h-8.85a4.24,4.24,0,0,0,4.18,4.13,4.06,4.06,0,0,0,3.48-2,.51.51,0,0,1,.7-.18.57.57,0,0,1,.18.75,5.15,5.15,0,0,1-4.36,2.44A5.31,5.31,0,0,1,102.36,105.42Zm1.13-.86h8.16a4.16,4.16,0,0,0-4.05-3.49A4.2,4.2,0,0,0,103.49,104.56Z"/>
    <path class="a7a58e4a-6c79-4dc4-877a-333957d4c605" d="M119.41,100.54a.57.57,0,0,1-.52.53H117.5v7.85a.84.84,0,0,0,.79.79.61.61,0,0,1,.55.55.58.58,0,0,1-.55.53,1.83,1.83,0,0,1-1.89-1.87v-7.85h-1.34c-.53,0-.53-.27-.53-.53s0-.53.53-.53h1.34V96a.56.56,0,0,1,.53-.53.59.59,0,0,1,.57.53v4h1.39A.56.56,0,0,1,119.41,100.54Z"/>
    <path class="a7a58e4a-6c79-4dc4-877a-333957d4c605" d="M134.81,100.54a.57.57,0,0,1-.52.53H132.9v7.85a.84.84,0,0,0,.79.79.61.61,0,0,1,.55.55.58.58,0,0,1-.55.53,1.83,1.83,0,0,1-1.89-1.87v-7.85h-1.34c-.53,0-.53-.27-.53-.53s0-.53.53-.53h1.34V96a.56.56,0,0,1,.53-.53.59.59,0,0,1,.57.53v4h1.39A.56.56,0,0,1,134.81,100.54Z"/>
    <path class="a7a58e4a-6c79-4dc4-877a-333957d4c605" d="M147.33,104.26a3.43,3.43,0,0,0-6.84,0v6.07a.64.64,0,0,1,0,.09.26.26,0,0,1-.05.09.47.47,0,0,1-.33.26.07.07,0,0,1,0,0h-.11a.61.61,0,0,1-.42-.17,1.51,1.51,0,0,1-.09-.18.55.55,0,0,1,0-.18V95.92a.54.54,0,0,1,1.08,0v5.67A4.48,4.48,0,0,1,143.9,100a4.3,4.3,0,0,1,4.51,4.25v6a.54.54,0,0,1-1.08,0Z"/>
    <path class="a7a58e4a-6c79-4dc4-877a-333957d4c605" d="M152.13,105.42a5.22,5.22,0,0,1,10.43-.39v.08a.51.51,0,0,1-.53.49h-8.85a4.24,4.24,0,0,0,4.18,4.13,4,4,0,0,0,3.48-2,.52.52,0,0,1,.71-.18.56.56,0,0,1,.17.75,5.14,5.14,0,0,1-4.36,2.44A5.3,5.3,0,0,1,152.13,105.42Zm1.12-.86h8.16a4.16,4.16,0,0,0-4-3.49A4.21,4.21,0,0,0,153.25,104.56Z"/>
    <path class="a7a58e4a-6c79-4dc4-877a-333957d4c605" d="M172.65,107a1.15,1.15,0,0,1,1.61-.15,7.14,7.14,0,0,0,4.2,1.69,4.77,4.77,0,0,0,2.75-.81,2,2,0,0,0,.95-1.59,1.27,1.27,0,0,0-.2-.7,2.05,2.05,0,0,0-.66-.66,8.78,8.78,0,0,0-3-1h0a12.42,12.42,0,0,1-2.84-.86,4.76,4.76,0,0,1-2-1.72,3.37,3.37,0,0,1-.51-1.8,4.09,4.09,0,0,1,1.76-3.22A6.58,6.58,0,0,1,178.42,95a8.63,8.63,0,0,1,4.8,1.76,1.13,1.13,0,0,1,.3,1.56,1.11,1.11,0,0,1-1.56.33,6.36,6.36,0,0,0-3.54-1.41,4.24,4.24,0,0,0-2.47.75,1.76,1.76,0,0,0-.83,1.39,1,1,0,0,0,.15.61,2.08,2.08,0,0,0,.6.58,7.68,7.68,0,0,0,2.75,1h0a12.91,12.91,0,0,1,3,.93,5.19,5.19,0,0,1,2.2,1.82,3.58,3.58,0,0,1,.53,1.87,4.26,4.26,0,0,1-1.9,3.41,6.84,6.84,0,0,1-4.07,1.26,9.47,9.47,0,0,1-5.63-2.2A1.18,1.18,0,0,1,172.65,107Z"/>
    <path class="a7a58e4a-6c79-4dc4-877a-333957d4c605" d="M186.8,105.31a5.59,5.59,0,0,1,5.59-5.52,5.79,5.79,0,0,1,3.5,1.21,1.22,1.22,0,0,1,.24,1.63,1.18,1.18,0,0,1-1.65.22,3.51,3.51,0,0,0-2.09-.71,3.16,3.16,0,1,0,0,6.32,3.55,3.55,0,0,0,2.09-.71,1.2,1.2,0,0,1,1.65.25,1.23,1.23,0,0,1-.24,1.63,6.09,6.09,0,0,1-3.5,1.16A5.57,5.57,0,0,1,186.8,105.31Z"/>
    <path class="a7a58e4a-6c79-4dc4-877a-333957d4c605" d="M200.81,109.18a5.49,5.49,0,0,1-1.51-3.87,5.72,5.72,0,0,1,1.51-3.85,5.16,5.16,0,0,1,3.79-1.67,4.87,4.87,0,0,1,3.67,1.67,5.51,5.51,0,0,1,1.54,3.85,5.31,5.31,0,0,1-1.54,3.87,4.84,4.84,0,0,1-3.67,1.68A5.13,5.13,0,0,1,200.81,109.18Zm.88-3.87a3.56,3.56,0,0,0,.79,2.33,3,3,0,0,0,2.12.82,2.87,2.87,0,0,0,2-.82,3.53,3.53,0,0,0,0-4.62,3.11,3.11,0,0,0-2-.83,3.25,3.25,0,0,0-2.12.83A3.53,3.53,0,0,0,201.69,105.31Z"/>
    <path class="a7a58e4a-6c79-4dc4-877a-333957d4c605" d="M218.08,101a1.24,1.24,0,0,1-1.23,1.21h-.55v6.14a1.21,1.21,0,0,1,1.21,1.23,1.2,1.2,0,0,1-1.21,1.21,2.45,2.45,0,0,1-2.44-2.44v-6.14h-.64A1.21,1.21,0,0,1,212,101a1.2,1.2,0,0,1,1.21-1.21h.64V96.6a1.21,1.21,0,0,1,1.23-1.21,1.2,1.2,0,0,1,1.21,1.21v3.19h.55A1.22,1.22,0,0,1,218.08,101Z"/>
    <path class="a7a58e4a-6c79-4dc4-877a-333957d4c605" d="M225.5,101a1.24,1.24,0,0,1-1.23,1.21h-.55v6.14a1.21,1.21,0,0,1,1.21,1.23,1.2,1.2,0,0,1-1.21,1.21,2.45,2.45,0,0,1-2.45-2.44v-6.14h-.63a1.2,1.2,0,0,1-1.21-1.21,1.19,1.19,0,0,1,1.21-1.21h.63V96.6a1.21,1.21,0,0,1,1.24-1.21,1.2,1.2,0,0,1,1.21,1.21v3.19h.55A1.22,1.22,0,0,1,225.5,101Z"/>
    <path class="a7a58e4a-6c79-4dc4-877a-333957d4c605" d="M231.75,97a1.19,1.19,0,0,1-1.19,1.21A1.2,1.2,0,0,1,229.37,97v-.46a1.19,1.19,0,0,1,1.19-1.19,1.17,1.17,0,0,1,1.19,1.19Zm0,4v8.58a1.17,1.17,0,0,1-1.19,1.19,1.19,1.19,0,0,1-1.19-1.19V101a1.18,1.18,0,0,1,1.19-1.21A1.17,1.17,0,0,1,231.75,101Z"/>
    <path class="a7a58e4a-6c79-4dc4-877a-333957d4c605" d="M235,107.64a1.15,1.15,0,0,1,1.65-.17,4.07,4.07,0,0,0,2.42,1,2.93,2.93,0,0,0,1.5-.42.9.9,0,0,0,.39-.66.34.34,0,0,0-.06-.22c0-.07-.11-.16-.29-.27a5.07,5.07,0,0,0-1.76-.61h0a8.51,8.51,0,0,1-1.91-.57,3.68,3.68,0,0,1-1.52-1.28A2.61,2.61,0,0,1,235,103a3.11,3.11,0,0,1,1.3-2.42,4.81,4.81,0,0,1,2.71-.81,5.7,5.7,0,0,1,3.3,1.21,1.21,1.21,0,0,1,.35,1.63,1.17,1.17,0,0,1-1.63.31,3.71,3.71,0,0,0-2-.82,2.23,2.23,0,0,0-1.32.4c-.29.2-.35.39-.35.5a.27.27,0,0,0,0,.18.64.64,0,0,0,.24.22,4.44,4.44,0,0,0,1.61.53l0,0h0a7.78,7.78,0,0,1,2.05.64,3.37,3.37,0,0,1,1.56,1.3,2.87,2.87,0,0,1,.42,1.45,3.17,3.17,0,0,1-1.39,2.55,5,5,0,0,1-2.86.88,6.4,6.4,0,0,1-3.92-1.52A1.17,1.17,0,0,1,235,107.64Z"/>
    <path class="a7a58e4a-6c79-4dc4-877a-333957d4c605" d="M248.8,109.58a1.22,1.22,0,0,1-2.4.31,1.44,1.44,0,0,1-.05-.31v-13a1.21,1.21,0,0,1,1.21-1.21,1.22,1.22,0,0,1,1.24,1.21v3.83a4.91,4.91,0,0,1,2.35-.64,4.82,4.82,0,0,1,4.8,4.82v5a1.21,1.21,0,0,1-2.42,0v-5a2.37,2.37,0,1,0-4.73,0Z"/>
    <path class="a7a58e4a-6c79-4dc4-877a-333957d4c605" d="M27.38,130.58v-13a1.2,1.2,0,0,1,1.21-1.21,1.21,1.21,0,0,1,1.23,1.21v5.28h5.7V117.6a1.2,1.2,0,0,1,1.21-1.21A1.21,1.21,0,0,1,38,117.6v13a1.21,1.21,0,0,1-1.23,1.21,1.2,1.2,0,0,1-1.21-1.21V125.3h-5.7v5.28a1.21,1.21,0,0,1-1.23,1.21A1.2,1.2,0,0,1,27.38,130.58Z"/>
    <path class="a7a58e4a-6c79-4dc4-877a-333957d4c605" d="M43.75,130.18a5.46,5.46,0,0,1-1.52-3.87,5.68,5.68,0,0,1,1.52-3.85,5.14,5.14,0,0,1,3.78-1.67,4.91,4.91,0,0,1,3.68,1.67,5.51,5.51,0,0,1,1.54,3.85,5.31,5.31,0,0,1-1.54,3.87,4.88,4.88,0,0,1-3.68,1.68A5.11,5.11,0,0,1,43.75,130.18Zm.88-3.87a3.51,3.51,0,0,0,.79,2.33,3,3,0,0,0,2.11.82,2.89,2.89,0,0,0,2-.82,3.56,3.56,0,0,0,0-4.62,3.14,3.14,0,0,0-2-.83,3.22,3.22,0,0,0-2.11.83A3.48,3.48,0,0,0,44.63,126.31Z"/>
    <path class="a7a58e4a-6c79-4dc4-877a-333957d4c605" d="M60.49,131.79a4.61,4.61,0,0,1-4.58-4.58V122a1.19,1.19,0,0,1,1.17-1.17A1.17,1.17,0,0,1,58.24,122v5.25a2.23,2.23,0,0,0,2.25,2.25,2.28,2.28,0,0,0,2.31-2.25V122a1.15,1.15,0,0,1,1.14-1.17A1.22,1.22,0,0,1,65.13,122v5.25A4.64,4.64,0,0,1,60.49,131.79Z"/>
    <path class="a7a58e4a-6c79-4dc4-877a-333957d4c605" d="M69.09,128.64a1.15,1.15,0,0,1,1.65-.17,4.07,4.07,0,0,0,2.42,1,2.93,2.93,0,0,0,1.5-.42.9.9,0,0,0,.39-.66.34.34,0,0,0-.06-.22c0-.07-.11-.16-.29-.27a5.07,5.07,0,0,0-1.76-.61h0a8.76,8.76,0,0,1-1.92-.57,3.71,3.71,0,0,1-1.51-1.28,2.61,2.61,0,0,1-.38-1.39,3.08,3.08,0,0,1,1.3-2.42,4.78,4.78,0,0,1,2.71-.81,5.7,5.7,0,0,1,3.3,1.21,1.21,1.21,0,0,1,.35,1.63,1.17,1.17,0,0,1-1.63.31,3.71,3.71,0,0,0-2-.82,2.23,2.23,0,0,0-1.32.4c-.29.2-.36.39-.36.5a.23.23,0,0,0,0,.18.64.64,0,0,0,.24.22,4.44,4.44,0,0,0,1.61.53l0,0h0a7.78,7.78,0,0,1,2.05.64,3.37,3.37,0,0,1,1.56,1.3,2.87,2.87,0,0,1,.42,1.45A3.17,3.17,0,0,1,76,130.91a5,5,0,0,1-2.86.88,6.35,6.35,0,0,1-3.92-1.52A1.17,1.17,0,0,1,69.09,128.64Z"/>
    <path class="a7a58e4a-6c79-4dc4-877a-333957d4c605" d="M82.84,118a1.19,1.19,0,0,1-1.19,1.21A1.2,1.2,0,0,1,80.46,118v-.46a1.19,1.19,0,0,1,1.19-1.19,1.17,1.17,0,0,1,1.19,1.19Zm0,4v8.58a1.17,1.17,0,0,1-1.19,1.19,1.19,1.19,0,0,1-1.19-1.19V122a1.18,1.18,0,0,1,1.19-1.21A1.17,1.17,0,0,1,82.84,122Z"/>
    <path class="a7a58e4a-6c79-4dc4-877a-333957d4c605" d="M95.8,125.37v5.26a1.16,1.16,0,0,1-1.14,1.16,1.19,1.19,0,0,1-1.17-1.16v-5.26a2.26,2.26,0,0,0-2.29-2.23,2.2,2.2,0,0,0-2.2,2.23v5.26a.43.43,0,0,1,0,.21,1.21,1.21,0,0,1-1.17.95,1.16,1.16,0,0,1-1.17-1.16V122a1.17,1.17,0,0,1,1.17-1.17,1.19,1.19,0,0,1,1.08.68,4.36,4.36,0,0,1,2.33-.68A4.61,4.61,0,0,1,95.8,125.37Z"/>
    <path class="a7a58e4a-6c79-4dc4-877a-333957d4c605" d="M110,126.36v4.09a5.3,5.3,0,0,1-5.29,5.28,5.17,5.17,0,0,1-2.31-.55,1.16,1.16,0,0,1-.52-1.58,1.17,1.17,0,0,1,1.58-.55,2.71,2.71,0,0,0,1.25.3,3,3,0,0,0,2.89-2.35,5.09,5.09,0,0,1-6.63-.79,5.56,5.56,0,0,1-1.54-3.88,5.8,5.8,0,0,1,1.54-3.91,5.22,5.22,0,0,1,3.74-1.63,5,5,0,0,1,3,.92,1.2,1.2,0,0,1,1.17-.92A1.17,1.17,0,0,1,110,122v4.4Zm-2.36,0a3.38,3.38,0,0,0-.84-2.24,2.73,2.73,0,0,0-2.09-1,2.63,2.63,0,0,0-2,1,3.22,3.22,0,0,0-.88,2.24,3.17,3.17,0,0,0,.88,2.27,2.68,2.68,0,0,0,2,.9,2.78,2.78,0,0,0,2.09-.9A3.33,3.33,0,0,0,107.59,126.33Z"/>
    <path class="a7a58e4a-6c79-4dc4-877a-333957d4c605" d="M137,134a6.11,6.11,0,0,1-3.63,1.39h-.07a7.89,7.89,0,0,1-4-1.32,2.66,2.66,0,0,0-1.34-.33,3.7,3.7,0,0,0-1.56.37,1.16,1.16,0,0,1-1.28-.07s-.06,0-.13,0l0,0a1.62,1.62,0,0,1-.31-.51,1.25,1.25,0,0,1,.59-1.69l.07-.05a9.36,9.36,0,0,1-2.44-1.67,8.58,8.58,0,0,1-2.2-5.74,8.42,8.42,0,0,1,2.2-5.68,7.43,7.43,0,0,1,5.5-2.44,7.24,7.24,0,0,1,5.45,2.44,8.19,8.19,0,0,1,2.25,5.68,8.33,8.33,0,0,1-2.25,5.74,8.59,8.59,0,0,1-2.44,1.74l-.51.2a5.5,5.5,0,0,0,2.47.79,3.3,3.3,0,0,0,2.16-.84,1.26,1.26,0,0,1,1.78.22A1.29,1.29,0,0,1,137,134Zm-12.26-5.72a4.79,4.79,0,0,0,3.59,1.58,5,5,0,0,0,3.63-1.58,5.77,5.77,0,0,0,1.51-4,5.6,5.6,0,0,0-1.51-3.92,5,5,0,0,0-3.63-1.6,4.74,4.74,0,0,0-3.59,1.6,5.56,5.56,0,0,0-1.52,3.92A5.73,5.73,0,0,0,124.75,128.25Z"/>
    <path class="a7a58e4a-6c79-4dc4-877a-333957d4c605" d="M144.15,131.79a4.6,4.6,0,0,1-4.57-4.58V122a1.17,1.17,0,1,1,2.33,0v5.25a2.23,2.23,0,0,0,2.24,2.25,2.28,2.28,0,0,0,2.31-2.25V122a1.16,1.16,0,0,1,1.15-1.17A1.23,1.23,0,0,1,148.8,122v5.25A4.65,4.65,0,0,1,144.15,131.79Z"/>
    <path class="a7a58e4a-6c79-4dc4-877a-333957d4c605" d="M162.59,126.31v4.32a1.18,1.18,0,0,1-1.17,1.16,1.19,1.19,0,0,1-1.14-.95,5,5,0,0,1-2.93.95,5.13,5.13,0,0,1-3.74-1.61,5.64,5.64,0,0,1-1.49-3.87,5.57,5.57,0,0,1,1.49-3.87,5.09,5.09,0,0,1,3.74-1.65,5,5,0,0,1,2.93,1,1.16,1.16,0,0,1,2.31.22Zm-2.33,0a3.22,3.22,0,0,0-.86-2.26,2.72,2.72,0,0,0-2.05-.91,2.62,2.62,0,0,0-2,.91,3.21,3.21,0,0,0-.84,2.26,3.3,3.3,0,0,0,.84,2.27,2.75,2.75,0,0,0,2,.86,2.86,2.86,0,0,0,2.05-.86A3.32,3.32,0,0,0,160.26,126.31Z"/>
    <path class="a7a58e4a-6c79-4dc4-877a-333957d4c605" d="M168.57,116.39a1.23,1.23,0,0,1,1.24,1.21v13a1.23,1.23,0,0,1-2.45,0v-13A1.22,1.22,0,0,1,168.57,116.39Z"/>
    <path class="a7a58e4a-6c79-4dc4-877a-333957d4c605" d="M175.08,118a1.18,1.18,0,0,1-1.18,1.21,1.2,1.2,0,0,1-1.19-1.21v-.46a1.19,1.19,0,0,1,1.19-1.19,1.17,1.17,0,0,1,1.18,1.19Zm0,4v8.58a1.17,1.17,0,0,1-1.18,1.19,1.19,1.19,0,0,1-1.19-1.19V122a1.18,1.18,0,0,1,1.19-1.21A1.16,1.16,0,0,1,175.08,122Z"/>
    <path class="a7a58e4a-6c79-4dc4-877a-333957d4c605" d="M183.82,122a1.24,1.24,0,0,1-1.23,1.21H182v6.14a1.21,1.21,0,0,1,1.21,1.23,1.2,1.2,0,0,1-1.21,1.21,2.45,2.45,0,0,1-2.45-2.44v-6.14H179a1.2,1.2,0,0,1-1.21-1.21,1.19,1.19,0,0,1,1.21-1.21h.63V117.6a1.21,1.21,0,0,1,1.24-1.21A1.2,1.2,0,0,1,182,117.6v3.19h.55A1.22,1.22,0,0,1,183.82,122Z"/>
    <path class="a7a58e4a-6c79-4dc4-877a-333957d4c605" d="M196,122v8.31a5.19,5.19,0,0,1-7.52,4.71,1.14,1.14,0,0,1-.57-1.56,1.2,1.2,0,0,1,1.56-.48,3,3,0,0,0,1.27.3,2.91,2.91,0,0,0,2.76-2,4.34,4.34,0,0,1-2.1.53,4.62,4.62,0,0,1-4.59-4.62V122a1.17,1.17,0,0,1,1.14-1.17,1.14,1.14,0,0,1,1.17,1.17v5.19a2.28,2.28,0,0,0,4.55,0V122a1.14,1.14,0,0,1,1.15-1.17A1.18,1.18,0,0,1,196,122Z"/>
    <path class="a7a58e4a-6c79-4dc4-877a-333957d4c605" d="M207,128a1.15,1.15,0,0,1,1.61-.15,7.14,7.14,0,0,0,4.2,1.69,4.77,4.77,0,0,0,2.75-.81,2,2,0,0,0,.95-1.59,1.27,1.27,0,0,0-.2-.7,2.05,2.05,0,0,0-.66-.66,8.77,8.77,0,0,0-3-1h0a12.42,12.42,0,0,1-2.84-.86,4.76,4.76,0,0,1-2-1.72,3.37,3.37,0,0,1-.51-1.8,4.09,4.09,0,0,1,1.76-3.22,6.56,6.56,0,0,1,3.81-1.16,8.57,8.57,0,0,1,4.79,1.76,1.13,1.13,0,0,1,.31,1.56,1.11,1.11,0,0,1-1.56.33,6.36,6.36,0,0,0-3.54-1.41,4.24,4.24,0,0,0-2.47.75,1.76,1.76,0,0,0-.83,1.39,1,1,0,0,0,.15.61,2.16,2.16,0,0,0,.59.58,7.83,7.83,0,0,0,2.75,1H213a12.91,12.91,0,0,1,3,.93,5.19,5.19,0,0,1,2.2,1.82,3.57,3.57,0,0,1,.52,1.87,4.25,4.25,0,0,1-1.89,3.41,6.84,6.84,0,0,1-4.07,1.26,9.44,9.44,0,0,1-5.63-2.2A1.17,1.17,0,0,1,207,128Z"/>
    <path class="a7a58e4a-6c79-4dc4-877a-333957d4c605" d="M226.72,122a1.24,1.24,0,0,1-1.23,1.21h-.55v6.14a1.21,1.21,0,0,1,1.21,1.23,1.2,1.2,0,0,1-1.21,1.21,2.45,2.45,0,0,1-2.45-2.44v-6.14h-.63a1.2,1.2,0,0,1-1.21-1.21,1.19,1.19,0,0,1,1.21-1.21h.63V117.6a1.21,1.21,0,0,1,1.24-1.21,1.2,1.2,0,0,1,1.21,1.21v3.19h.55A1.22,1.22,0,0,1,226.72,122Z"/>
    <path class="a7a58e4a-6c79-4dc4-877a-333957d4c605" d="M239.22,126.31v4.32a1.18,1.18,0,0,1-1.17,1.16,1.21,1.21,0,0,1-1.15-.95,4.93,4.93,0,0,1-2.92.95,5.1,5.1,0,0,1-3.74-1.61,5.6,5.6,0,0,1-1.5-3.87,5.53,5.53,0,0,1,1.5-3.87,5.06,5.06,0,0,1,3.74-1.65,4.94,4.94,0,0,1,2.92,1,1.21,1.21,0,0,1,1.15-1,1.18,1.18,0,0,1,1.17,1.19Zm-2.34,0a3.22,3.22,0,0,0-.86-2.26,2.75,2.75,0,0,0-4.09,0,3.2,3.2,0,0,0-.83,2.26,3.3,3.3,0,0,0,.83,2.27,2.86,2.86,0,0,0,4.09,0A3.32,3.32,0,0,0,236.88,126.31Z"/>
    <path class="a7a58e4a-6c79-4dc4-877a-333957d4c605" d="M252.48,125.37v5.26a1.16,1.16,0,0,1-1.14,1.16,1.19,1.19,0,0,1-1.17-1.16v-5.26a2.26,2.26,0,0,0-2.29-2.23,2.2,2.2,0,0,0-2.2,2.23v5.26a.43.43,0,0,1,0,.21,1.21,1.21,0,0,1-1.17.95,1.15,1.15,0,0,1-1.16-1.16V122a1.16,1.16,0,0,1,1.16-1.17,1.19,1.19,0,0,1,1.08.68,4.36,4.36,0,0,1,2.33-.68A4.61,4.61,0,0,1,252.48,125.37Z"/>
    <path class="a7a58e4a-6c79-4dc4-877a-333957d4c605" d="M266.32,130.6a1.2,1.2,0,0,1-1.19,1.19,1.17,1.17,0,0,1-1.16-.95,5.34,5.34,0,0,1-3,.95,5.5,5.5,0,0,1,0-11,5.21,5.21,0,0,1,2.95.92v-4.13a1.2,1.2,0,0,1,2.4,0v13ZM261,123.19a2.86,2.86,0,0,0-2.07.9,3.19,3.19,0,0,0,0,4.4,2.86,2.86,0,0,0,2.07.9,2.81,2.81,0,0,0,2.07-.9,3.19,3.19,0,0,0,0-4.4A2.81,2.81,0,0,0,261,123.19Z"/>
    <path class="a7a58e4a-6c79-4dc4-877a-333957d4c605" d="M280.18,126.31v4.32a1.18,1.18,0,0,1-1.17,1.16,1.19,1.19,0,0,1-1.14-.95,5,5,0,0,1-2.93.95,5.13,5.13,0,0,1-3.74-1.61,5.64,5.64,0,0,1-1.49-3.87,5.57,5.57,0,0,1,1.49-3.87,5.09,5.09,0,0,1,3.74-1.65,5,5,0,0,1,2.93,1,1.16,1.16,0,0,1,2.31.22Zm-2.33,0a3.22,3.22,0,0,0-.86-2.26,2.72,2.72,0,0,0-2.05-.91,2.62,2.62,0,0,0-2,.91,3.21,3.21,0,0,0-.84,2.26,3.3,3.3,0,0,0,.84,2.27,2.75,2.75,0,0,0,2,.86,2.86,2.86,0,0,0,2.05-.86A3.32,3.32,0,0,0,277.85,126.31Z"/>
    <path class="a7a58e4a-6c79-4dc4-877a-333957d4c605" d="M291.27,122a1.18,1.18,0,0,1-1.17,1.16,2.06,2.06,0,0,0-1.32.42,3.2,3.2,0,0,0-1,1.06,6.42,6.42,0,0,0-.9,1.84v4.19a1.21,1.21,0,0,1-1.22,1.16,1.17,1.17,0,0,1-1.16-1.16V122a1.16,1.16,0,0,1,1.16-1.15,1.19,1.19,0,0,1,1.22,1.15v.15a2.73,2.73,0,0,1,.46-.44,4.85,4.85,0,0,1,2.77-.86A1.15,1.15,0,0,1,291.27,122Z"/>
    <path class="a7a58e4a-6c79-4dc4-877a-333957d4c605" d="M303.56,130.6a1.19,1.19,0,0,1-2.35.24,5.31,5.31,0,0,1-3,.95,5.5,5.5,0,0,1,0-11,5.24,5.24,0,0,1,2.95.92v-4.13a1.2,1.2,0,0,1,2.39,0v13Zm-5.34-7.41a2.86,2.86,0,0,0-2.07.9,3.19,3.19,0,0,0,0,4.4,2.86,2.86,0,0,0,2.07.9,2.83,2.83,0,0,0,2.07-.9,3.19,3.19,0,0,0,0-4.4A2.83,2.83,0,0,0,298.22,123.19Z"/>
  </g>
</svg>
