<svg class="story-screen__graphic" id="f491f842-411e-45cd-acc4-a811236ae698" data-name="Layer 1" xmlns="http://www.w3.org/2000/svg" xmlns:xlink="http://www.w3.org/1999/xlink" viewBox="0 0 464.99 729.84">
  <defs>
    <style>
      .a772a864-9e41-44b8-b2ae-4a31eadfd6d4, .abf39533-e2b0-4a8d-95c1-a6e5a49d0a2e, .ad7361c1-6c20-47a4-b1ea-353127e117dc, .b0e1c738-b011-44ca-adfc-df2f1e71b9a6, .b45e3899-f33a-4cdc-99a9-8fd7fe9185bb, .b55165f8-8dad-4c1c-b79f-929fedebff42, .e120e4cd-9235-40f7-8613-5c58d805255b, .e643870b-1b78-41d9-b0d8-045b88464a6b, .f65519f2-dc40-4243-b1f5-a76ad8ed3ede {
        fill: none;
      }

      .ac139dc0-f34e-49bc-b916-d862fd4f75ad, .bac2ac11-7b05-48e6-bca3-1a813c5123d3, .bdd2c629-6398-44d3-a5af-a9cd50b73ebe {
        fill: #ede8db;
      }

      .a6693091-0613-4ccd-b5c1-f01272c6534a {
        fill: #aeaaa1;
      }

      .a74f4721-adf8-44ad-8eaa-8a5599a8ab5c, .b6ba0846-7495-44d1-86e7-fed1ec4173a8, .e57ce4ba-2b93-4a00-958b-5a3c37bdaed6 {
        fill: #d4a455;
      }

      .ed3d7d68-0325-4ef1-ab1c-f371c3857e69, .fc926a31-9245-4c01-8511-1cf516e22a0e {
        fill: #ea5736;
      }

      .a772a864-9e41-44b8-b2ae-4a31eadfd6d4, .abf39533-e2b0-4a8d-95c1-a6e5a49d0a2e, .ad7361c1-6c20-47a4-b1ea-353127e117dc, .b55165f8-8dad-4c1c-b79f-929fedebff42, .e643870b-1b78-41d9-b0d8-045b88464a6b, .ed3d7d68-0325-4ef1-ab1c-f371c3857e69, .f65519f2-dc40-4243-b1f5-a76ad8ed3ede {
        stroke: #ea5736;
      }

      .ac139dc0-f34e-49bc-b916-d862fd4f75ad, .ace36029-e3c3-4ca6-bf83-ab632d7bfe35, .af50f5a8-e3fb-4e6e-9d7e-bc4de53d7acd, .b0e1c738-b011-44ca-adfc-df2f1e71b9a6, .b45e3899-f33a-4cdc-99a9-8fd7fe9185bb, .b55165f8-8dad-4c1c-b79f-929fedebff42, .ba6a4e5e-bd4a-40c5-9908-69223e435eb9, .bdd2c629-6398-44d3-a5af-a9cd50b73ebe, .e46beccf-ec66-4c4b-be94-bcb42a6a7cdb, .e643870b-1b78-41d9-b0d8-045b88464a6b, .ed3d7d68-0325-4ef1-ab1c-f371c3857e69, .f65519f2-dc40-4243-b1f5-a76ad8ed3ede, .f892e89d-6562-4da3-9c63-3f494fdf1e91 {
        stroke-linecap: round;
      }

      .ac139dc0-f34e-49bc-b916-d862fd4f75ad, .ace36029-e3c3-4ca6-bf83-ab632d7bfe35, .af50f5a8-e3fb-4e6e-9d7e-bc4de53d7acd, .ba6a4e5e-bd4a-40c5-9908-69223e435eb9, .bdd2c629-6398-44d3-a5af-a9cd50b73ebe, .e46beccf-ec66-4c4b-be94-bcb42a6a7cdb, .ed3d7d68-0325-4ef1-ab1c-f371c3857e69, .f892e89d-6562-4da3-9c63-3f494fdf1e91 {
        stroke-linejoin: round;
      }

      .ed3d7d68-0325-4ef1-ab1c-f371c3857e69 {
        stroke-width: 4.09px;
      }

      .af50f5a8-e3fb-4e6e-9d7e-bc4de53d7acd, .ba6a4e5e-bd4a-40c5-9908-69223e435eb9, .f892e89d-6562-4da3-9c63-3f494fdf1e91 {
        fill: #062837;
        stroke: #062837;
      }

      .f892e89d-6562-4da3-9c63-3f494fdf1e91 {
        stroke-width: 3.73px;
      }

      .ac139dc0-f34e-49bc-b916-d862fd4f75ad, .bdd2c629-6398-44d3-a5af-a9cd50b73ebe {
        stroke: #ede8db;
      }

      .ac139dc0-f34e-49bc-b916-d862fd4f75ad {
        stroke-width: 1.37px;
      }

      .bdd2c629-6398-44d3-a5af-a9cd50b73ebe {
        stroke-width: 1.66px;
      }

      .a74f4721-adf8-44ad-8eaa-8a5599a8ab5c, .a772a864-9e41-44b8-b2ae-4a31eadfd6d4, .abf39533-e2b0-4a8d-95c1-a6e5a49d0a2e, .ad7361c1-6c20-47a4-b1ea-353127e117dc, .b0e1c738-b011-44ca-adfc-df2f1e71b9a6, .b45e3899-f33a-4cdc-99a9-8fd7fe9185bb, .b55165f8-8dad-4c1c-b79f-929fedebff42, .e57ce4ba-2b93-4a00-958b-5a3c37bdaed6, .e643870b-1b78-41d9-b0d8-045b88464a6b, .f65519f2-dc40-4243-b1f5-a76ad8ed3ede {
        stroke-miterlimit: 10;
      }

      .abf39533-e2b0-4a8d-95c1-a6e5a49d0a2e {
        stroke-width: 8.58px;
      }

      .b55165f8-8dad-4c1c-b79f-929fedebff42 {
        stroke-width: 3.68px;
      }

      .a94be6e0-450f-4738-a90f-a9be556d37c8, .b8389a78-9f11-4be2-9968-e305ff492c84 {
        fill: #3c5743;
      }

      .af50f5a8-e3fb-4e6e-9d7e-bc4de53d7acd {
        stroke-width: 5.3px;
      }

      .e14624c7-5c46-46a8-be55-855fbf13ed32 {
        fill: #d5a555;
      }

      .ace36029-e3c3-4ca6-bf83-ab632d7bfe35, .bee8a8a8-58ef-40b2-8154-7d8e59333898 {
        fill: #002838;
      }

      .ace36029-e3c3-4ca6-bf83-ab632d7bfe35 {
        stroke: #002838;
        stroke-width: 2.63px;
      }

      .a94be6e0-450f-4738-a90f-a9be556d37c8 {
        fill-rule: evenodd;
      }

      .a772a864-9e41-44b8-b2ae-4a31eadfd6d4 {
        stroke-width: 4.46px;
      }

      .f65519f2-dc40-4243-b1f5-a76ad8ed3ede {
        stroke-width: 1.91px;
      }

      .f99191f3-48b2-45d5-9854-bb692a7dfe4f {
        fill: #a2a081;
      }

      .ad7361c1-6c20-47a4-b1ea-353127e117dc {
        stroke-width: 5.9px;
      }

      .e643870b-1b78-41d9-b0d8-045b88464a6b {
        stroke-width: 2.53px;
      }

      .aaf9ee03-ac92-4d4a-bc48-2a5006e4f683 {
        fill: #89563c;
      }

      .ba6a4e5e-bd4a-40c5-9908-69223e435eb9 {
        stroke-width: 6.87px;
      }

      .bfae24ca-ba40-4150-8f25-3ada6d1172f9 {
        fill: #77aaa2;
      }

      .a457ed12-c856-4a27-b384-e15137e46e34 {
        fill: #ece8dc;
      }

      .e46beccf-ec66-4c4b-be94-bcb42a6a7cdb {
        fill: #062838;
        stroke: #062838;
        stroke-width: 0.49px;
      }

      .aca033e5-853f-456b-bca1-a68ee9bf9240 {
        fill: #77a9a2;
      }

      .a84f63cb-1063-4a9e-9476-f08fa2e0774e {
        fill: #2e2d2c;
      }

      .a74f4721-adf8-44ad-8eaa-8a5599a8ab5c, .e57ce4ba-2b93-4a00-958b-5a3c37bdaed6 {
        stroke: #d4a455;
      }

      .e57ce4ba-2b93-4a00-958b-5a3c37bdaed6 {
        stroke-width: 2.69px;
      }

      .b1e7ce1a-424e-4098-86b5-99f5ed53c515 {
        clip-path: url(#babd76e8-3572-4544-82be-c903be8d97ab);
      }

      .f0f4b551-78d0-4a3c-baec-c4878d3a6fc7 {
        fill: #30383b;
      }

      .fbabb190-80ce-41d0-9fd9-fef7778be681 {
        fill: #fff;
      }

      .b45e3899-f33a-4cdc-99a9-8fd7fe9185bb {
        stroke: #d5a654;
        stroke-width: 15.38px;
      }

      .a74f4721-adf8-44ad-8eaa-8a5599a8ab5c {
        stroke-width: 1.96px;
      }

      .f53f4f20-06e5-4271-a3d8-57b866f7b40e {
        fill: #ccc7bc;
      }

      .b0e1c738-b011-44ca-adfc-df2f1e71b9a6 {
        stroke: #89573c;
        stroke-width: 7px;
      }
    </style>
    <clipPath id="babd76e8-3572-4544-82be-c903be8d97ab">
      <rect class="e120e4cd-9235-40f7-8613-5c58d805255b" x="105.46" y="282.91" width="11.63" height="6.27" rx="1.69"/>
    </clipPath>
  </defs>
  <rect class="bac2ac11-7b05-48e6-bca3-1a813c5123d3" x="-1.58" y="-1800.53" width="465.11" height="2577.43"/>
  <path class="e120e4cd-9235-40f7-8613-5c58d805255b" d="M121.8,517.85l.72,34.6"/>
  <path class="a6693091-0613-4ccd-b5c1-f01272c6534a" d="M.22,50.34a613.82,613.82,0,0,1,226.62,42.5c31.46,12.38,62.17,27.54,88.56,48.68,44.41,35.59,74.51,86.66,92.77,140.56S460.52,455.31,465.42,512l-1.9-181.07c-8.85-62.05-17.82-81.25-40.54-133.42S365.94,97,318.69,65.28c-28.07-18.85-58.62-31.62-90.13-43.88C165.8-3,75.33-21,0-21Z"/>
  <rect class="b6ba0846-7495-44d1-86e7-fed1ec4173a8" x="67.05" y="478.7" width="19.05" height="19.05" rx="2.83"/>
  <rect class="b6ba0846-7495-44d1-86e7-fed1ec4173a8" x="67.05" y="478.7" width="19.05" height="19.05" rx="2.83"/>
  <g>
    <rect class="ed3d7d68-0325-4ef1-ab1c-f371c3857e69" x="15.1" y="91.22" width="160.47" height="112.76"/>
    <polygon class="f892e89d-6562-4da3-9c63-3f494fdf1e91" points="168.53 39.32 156.66 39.32 156.66 12.95 135.56 12.95 135.56 39.32 95.34 39.32 22.14 39.32 3.02 88.12 95.34 88.12 187.66 88.12 168.53 39.32"/>
    <rect class="ac139dc0-f34e-49bc-b916-d862fd4f75ad" x="32.84" y="101.1" width="19.65" height="31.67"/>
    <rect class="ac139dc0-f34e-49bc-b916-d862fd4f75ad" x="85.51" y="101.1" width="19.65" height="31.67"/>
    <rect class="ac139dc0-f34e-49bc-b916-d862fd4f75ad" x="135.99" y="101.1" width="19.65" height="31.67"/>
    <rect class="ac139dc0-f34e-49bc-b916-d862fd4f75ad" x="32.84" y="157.33" width="19.65" height="31.67"/>
    <rect class="ac139dc0-f34e-49bc-b916-d862fd4f75ad" x="135.99" y="157.33" width="19.65" height="31.67"/>
    <rect class="bdd2c629-6398-44d3-a5af-a9cd50b73ebe" x="85.51" y="157.33" width="19.65" height="46.66"/>
  </g>
  <g>
    <rect class="ed3d7d68-0325-4ef1-ab1c-f371c3857e69" x="203.13" y="91.24" width="160.47" height="112.76"/>
    <polygon class="f892e89d-6562-4da3-9c63-3f494fdf1e91" points="356.56 39.34 344.69 39.34 344.69 12.96 323.59 12.96 323.59 39.34 283.36 39.34 210.17 39.34 191.04 88.14 283.36 88.14 375.68 88.14 356.56 39.34"/>
    <rect class="ac139dc0-f34e-49bc-b916-d862fd4f75ad" x="220.87" y="101.11" width="19.65" height="31.67"/>
    <rect class="ac139dc0-f34e-49bc-b916-d862fd4f75ad" x="273.54" y="101.11" width="19.65" height="31.67"/>
    <rect class="ac139dc0-f34e-49bc-b916-d862fd4f75ad" x="324.02" y="101.11" width="19.65" height="31.67"/>
    <rect class="ac139dc0-f34e-49bc-b916-d862fd4f75ad" x="220.87" y="157.34" width="19.65" height="31.67"/>
    <rect class="ac139dc0-f34e-49bc-b916-d862fd4f75ad" x="324.02" y="157.34" width="19.65" height="31.67"/>
    <rect class="bdd2c629-6398-44d3-a5af-a9cd50b73ebe" x="273.54" y="157.34" width="19.65" height="46.66"/>
  </g>
  <rect class="a6693091-0613-4ccd-b5c1-f01272c6534a" x="-1.94" y="236.98" width="408.7" height="34.05"/>
  <g>
    <line class="abf39533-e2b0-4a8d-95c1-a6e5a49d0a2e" x1="113.21" y1="228.64" x2="113.21" y2="165.12"/>
    <path class="b55165f8-8dad-4c1c-b79f-929fedebff42" d="M96.87,169.21s1.47,16.42,16.34,22.42"/>
    <path class="b55165f8-8dad-4c1c-b79f-929fedebff42" d="M129.29,162.88s-1.95,19.35-16.08,19.35"/>
    <circle class="b8389a78-9f11-4be2-9968-e305ff492c84" cx="131.92" cy="160.37" r="12.78"/>
    <circle class="b8389a78-9f11-4be2-9968-e305ff492c84" cx="140.87" cy="125.7" r="12.78"/>
    <circle class="b8389a78-9f11-4be2-9968-e305ff492c84" cx="87.94" cy="126.97" r="15.27"/>
    <circle class="b8389a78-9f11-4be2-9968-e305ff492c84" cx="111.97" cy="164.12" r="9.96"/>
    <circle class="b8389a78-9f11-4be2-9968-e305ff492c84" cx="144.7" cy="146.46" r="16.44"/>
    <circle class="b8389a78-9f11-4be2-9968-e305ff492c84" cx="79.78" cy="146.46" r="14.71"/>
    <circle class="b8389a78-9f11-4be2-9968-e305ff492c84" cx="106.66" cy="118.18" r="21.91"/>
    <circle class="b8389a78-9f11-4be2-9968-e305ff492c84" cx="123.02" cy="121.31" r="17.5"/>
    <circle class="b8389a78-9f11-4be2-9968-e305ff492c84" cx="110.19" cy="143.21" r="21.91"/>
    <circle class="b8389a78-9f11-4be2-9968-e305ff492c84" cx="94.26" cy="160.37" r="12.75"/>
  </g>
  <g>
    <line class="abf39533-e2b0-4a8d-95c1-a6e5a49d0a2e" x1="236.16" y1="227.94" x2="236.16" y2="164.42"/>
    <path class="b55165f8-8dad-4c1c-b79f-929fedebff42" d="M219.82,168.5s1.47,16.43,16.34,22.42"/>
    <path class="b55165f8-8dad-4c1c-b79f-929fedebff42" d="M252.24,162.17s-2,19.36-16.08,19.36"/>
    <circle class="b8389a78-9f11-4be2-9968-e305ff492c84" cx="254.87" cy="159.66" r="12.78"/>
    <circle class="b8389a78-9f11-4be2-9968-e305ff492c84" cx="263.83" cy="125" r="12.78"/>
    <circle class="b8389a78-9f11-4be2-9968-e305ff492c84" cx="210.89" cy="126.26" r="15.27"/>
    <circle class="b8389a78-9f11-4be2-9968-e305ff492c84" cx="234.92" cy="163.42" r="9.96"/>
    <circle class="b8389a78-9f11-4be2-9968-e305ff492c84" cx="267.65" cy="145.75" r="16.44"/>
    <circle class="b8389a78-9f11-4be2-9968-e305ff492c84" cx="202.74" cy="145.75" r="14.71"/>
    <circle class="b8389a78-9f11-4be2-9968-e305ff492c84" cx="229.61" cy="117.48" r="21.91"/>
    <circle class="b8389a78-9f11-4be2-9968-e305ff492c84" cx="245.97" cy="120.61" r="17.5"/>
    <circle class="b8389a78-9f11-4be2-9968-e305ff492c84" cx="233.14" cy="142.51" r="21.91"/>
    <circle class="b8389a78-9f11-4be2-9968-e305ff492c84" cx="217.21" cy="159.66" r="12.75"/>
  </g>
  <g>
    <line class="abf39533-e2b0-4a8d-95c1-a6e5a49d0a2e" x1="345.98" y1="227.94" x2="345.98" y2="164.42"/>
    <path class="b55165f8-8dad-4c1c-b79f-929fedebff42" d="M329.64,168.5s1.47,16.43,16.34,22.42"/>
    <path class="b55165f8-8dad-4c1c-b79f-929fedebff42" d="M362.06,162.17s-1.94,19.36-16.08,19.36"/>
    <circle class="b8389a78-9f11-4be2-9968-e305ff492c84" cx="364.69" cy="159.66" r="12.78"/>
    <circle class="b8389a78-9f11-4be2-9968-e305ff492c84" cx="373.65" cy="125" r="12.78"/>
    <circle class="b8389a78-9f11-4be2-9968-e305ff492c84" cx="320.72" cy="126.26" r="15.27"/>
    <circle class="b8389a78-9f11-4be2-9968-e305ff492c84" cx="344.75" cy="163.42" r="9.96"/>
    <circle class="b8389a78-9f11-4be2-9968-e305ff492c84" cx="377.47" cy="145.75" r="16.44"/>
    <circle class="b8389a78-9f11-4be2-9968-e305ff492c84" cx="312.56" cy="145.75" r="14.71"/>
    <circle class="b8389a78-9f11-4be2-9968-e305ff492c84" cx="339.43" cy="117.48" r="21.91"/>
    <circle class="b8389a78-9f11-4be2-9968-e305ff492c84" cx="355.79" cy="120.61" r="17.5"/>
    <circle class="b8389a78-9f11-4be2-9968-e305ff492c84" cx="342.97" cy="142.51" r="21.91"/>
    <circle class="b8389a78-9f11-4be2-9968-e305ff492c84" cx="327.03" cy="159.66" r="12.75"/>
  </g>
  <g>
    <polygon class="af50f5a8-e3fb-4e6e-9d7e-bc4de53d7acd" points="366.74 191.6 200.28 191.6 33.81 191.6 8.74 238.95 200.28 238.95 391.81 238.95 366.74 191.6"/>
    <rect class="e14624c7-5c46-46a8-be55-855fbf13ed32" x="225.91" y="332.29" width="91.48" height="52.66" rx="0.42"/>
    <rect class="e14624c7-5c46-46a8-be55-855fbf13ed32" x="9.39" y="241.44" width="378.57" height="135.91" rx="1.37"/>
    <rect class="bac2ac11-7b05-48e6-bca3-1a813c5123d3" x="103.27" y="261.24" width="49.95" height="27.01" rx="0.43"/>
    <rect class="bac2ac11-7b05-48e6-bca3-1a813c5123d3" x="31.66" y="261.24" width="49.95" height="27.01" rx="0.43"/>
    <rect class="bac2ac11-7b05-48e6-bca3-1a813c5123d3" x="103.27" y="322.14" width="49.95" height="27.01" rx="0.43"/>
    <rect class="bac2ac11-7b05-48e6-bca3-1a813c5123d3" x="31.66" y="322.14" width="49.95" height="27.01" rx="0.43"/>
    <rect class="bac2ac11-7b05-48e6-bca3-1a813c5123d3" x="174.87" y="261.24" width="49.95" height="27.01" rx="0.43"/>
    <rect class="bac2ac11-7b05-48e6-bca3-1a813c5123d3" x="345.66" y="322.14" width="22.79" height="27.01" rx="0.29"/>
    <rect class="bac2ac11-7b05-48e6-bca3-1a813c5123d3" x="174.87" y="322.14" width="22.79" height="27.01" rx="0.29"/>
    <rect class="bac2ac11-7b05-48e6-bca3-1a813c5123d3" x="261.18" y="261.24" width="22.79" height="27.01" rx="0.29"/>
    <rect class="bac2ac11-7b05-48e6-bca3-1a813c5123d3" x="247.18" y="261.24" width="48.54" height="27.01" rx="0.43"/>
    <rect class="bac2ac11-7b05-48e6-bca3-1a813c5123d3" x="318.78" y="261.24" width="48.54" height="27.01" rx="0.43"/>
    <rect class="bac2ac11-7b05-48e6-bca3-1a813c5123d3" x="253.83" y="342.63" width="35.3" height="42.32" rx="0.23"/>
    <rect class="bac2ac11-7b05-48e6-bca3-1a813c5123d3" x="295.5" y="342.63" width="18.94" height="35.33" rx="0.16"/>
    <rect class="bac2ac11-7b05-48e6-bca3-1a813c5123d3" x="228.46" y="342.63" width="18.94" height="35.33" rx="0.16"/>
    <polygon class="ace36029-e3c3-4ca6-bf83-ab632d7bfe35" points="225.46 332.29 317.24 332.29 292.76 309.39 253.3 309.39 225.46 332.29"/>
    <path class="a94be6e0-450f-4738-a90f-a9be556d37c8" d="M349.41,385H295.5a13.54,13.54,0,0,1,7.08-9.75,8.59,8.59,0,0,1-1.58-2.92,8.8,8.8,0,0,1,13.25-10,13.51,13.51,0,0,1,22.8,14.23A13.54,13.54,0,0,1,349.41,385Z"/>
    <path class="a94be6e0-450f-4738-a90f-a9be556d37c8" d="M193.49,385H247.4a13.59,13.59,0,0,0-7.08-9.75,9,9,0,0,0,1.58-2.92,8.8,8.8,0,0,0-13.25-10,13.52,13.52,0,0,0-22.81,14.23A13.53,13.53,0,0,0,193.49,385Z"/>
  </g>
  <g>
    <line class="a772a864-9e41-44b8-b2ae-4a31eadfd6d4" x1="382.53" y1="78.14" x2="382.53" y2="45.08"/>
    <path class="f65519f2-dc40-4243-b1f5-a76ad8ed3ede" d="M374,47.21s.77,8.55,8.51,11.67"/>
    <path class="f65519f2-dc40-4243-b1f5-a76ad8ed3ede" d="M390.9,43.92S389.88,54,382.53,54"/>
    <circle class="f99191f3-48b2-45d5-9854-bb692a7dfe4f" cx="392.27" cy="42.61" r="6.65"/>
    <circle class="f99191f3-48b2-45d5-9854-bb692a7dfe4f" cx="396.93" cy="24.57" r="6.65"/>
    <circle class="f99191f3-48b2-45d5-9854-bb692a7dfe4f" cx="369.38" cy="25.23" r="7.95"/>
    <circle class="f99191f3-48b2-45d5-9854-bb692a7dfe4f" cx="381.88" cy="44.56" r="5.18"/>
    <circle class="f99191f3-48b2-45d5-9854-bb692a7dfe4f" cx="398.91" cy="35.37" r="8.55"/>
    <circle class="f99191f3-48b2-45d5-9854-bb692a7dfe4f" cx="365.13" cy="35.37" r="7.65"/>
    <circle class="f99191f3-48b2-45d5-9854-bb692a7dfe4f" cx="379.12" cy="20.66" r="11.4"/>
    <circle class="f99191f3-48b2-45d5-9854-bb692a7dfe4f" cx="387.63" cy="22.28" r="9.11"/>
    <circle class="f99191f3-48b2-45d5-9854-bb692a7dfe4f" cx="380.96" cy="33.68" r="11.4"/>
    <circle class="f99191f3-48b2-45d5-9854-bb692a7dfe4f" cx="372.67" cy="42.61" r="6.63"/>
  </g>
  <g>
    <line class="ad7361c1-6c20-47a4-b1ea-353127e117dc" x1="429.82" y1="139.62" x2="429.82" y2="95.93"/>
    <path class="e643870b-1b78-41d9-b0d8-045b88464a6b" d="M418.58,98.74s1,11.3,11.24,15.42"/>
    <path class="e643870b-1b78-41d9-b0d8-045b88464a6b" d="M440.88,94.39s-1.34,13.31-11.06,13.31"/>
    <circle class="f99191f3-48b2-45d5-9854-bb692a7dfe4f" cx="442.69" cy="92.66" r="8.79"/>
    <circle class="f99191f3-48b2-45d5-9854-bb692a7dfe4f" cx="448.85" cy="68.82" r="8.79"/>
    <circle class="f99191f3-48b2-45d5-9854-bb692a7dfe4f" cx="412.44" cy="69.69" r="10.5"/>
    <circle class="f99191f3-48b2-45d5-9854-bb692a7dfe4f" cx="428.97" cy="95.24" r="6.85"/>
    <circle class="f99191f3-48b2-45d5-9854-bb692a7dfe4f" cx="451.47" cy="83.09" r="11.3"/>
    <circle class="f99191f3-48b2-45d5-9854-bb692a7dfe4f" cx="406.83" cy="83.09" r="10.11"/>
    <circle class="f99191f3-48b2-45d5-9854-bb692a7dfe4f" cx="425.32" cy="63.65" r="15.07"/>
    <circle class="f99191f3-48b2-45d5-9854-bb692a7dfe4f" cx="436.57" cy="65.8" r="12.04"/>
    <circle class="f99191f3-48b2-45d5-9854-bb692a7dfe4f" cx="427.75" cy="80.87" r="15.07"/>
    <circle class="f99191f3-48b2-45d5-9854-bb692a7dfe4f" cx="416.79" cy="92.66" r="8.77"/>
  </g>
  <rect class="a6693091-0613-4ccd-b5c1-f01272c6534a" x="-1.94" y="403.08" width="464.72" height="105.52"/>
  <path class="aaf9ee03-ac92-4d4a-bc48-2a5006e4f683" d="M180.78,193.58c89.69-73.86,177-116.74,284.55-126l.13-41.45C359.3,43.24,259.71,93.88,173,174.9Z"/>
  <g>
    <rect class="ba6a4e5e-bd4a-40c5-9908-69223e435eb9" x="24.63" y="330.76" width="398.31" height="332.73"/>
    <polyline class="aaf9ee03-ac92-4d4a-bc48-2a5006e4f683" points="320.25 265.14 225.72 265.14 53.69 265.14 8.74 333.3 225.72 333.3 442.69 333.3 397.74 265.14 369.85 265.14"/>
    <rect class="bfae24ca-ba40-4150-8f25-3ada6d1172f9" x="74.39" y="463.38" width="166.35" height="187.77"/>
    <rect class="fc926a31-9245-4c01-8511-1cf516e22a0e" x="270.5" y="466.41" width="68.79" height="199.63"/>
  </g>
  <g>
    <path class="a457ed12-c856-4a27-b384-e15137e46e34" d="M218.43,426.11V383.37a4,4,0,0,1,4-4H232.7a13.76,13.76,0,0,1,11,22,15.52,15.52,0,0,1-8.18,28.69H222.7c-.07,0-.07-.08-.07-.08s-.14.08-.22.08A4,4,0,0,1,218.43,426.11Zm8-27.09h6.23a5.81,5.81,0,0,0,5.72-5.87,5.69,5.69,0,0,0-5.72-5.73h-6.23Zm0,23h9.06a7.5,7.5,0,0,0,0-15h-9.06Z"/>
    <path class="a457ed12-c856-4a27-b384-e15137e46e34" d="M285.87,418.14h-17.6l-3.55,9.42A4.07,4.07,0,0,1,261,430.1a4.32,4.32,0,0,1-1.37-.22,4.12,4.12,0,0,1-2.4-5.22l16-42.67a4.06,4.06,0,0,1,3.84-2.54,4,4,0,0,1,3.84,2.54l16,42.67a4.12,4.12,0,0,1-2.39,5.22,4.08,4.08,0,0,1-1.38.22,3.92,3.92,0,0,1-3.7-2.54Zm-3-8L277,394.6l-5.87,15.57Z"/>
    <path class="a457ed12-c856-4a27-b384-e15137e46e34" d="M314.78,426.11a4,4,0,0,1-3.92,4,4,4,0,0,1-4-4V384a3.94,3.94,0,0,1,1.59-3.34,4,4,0,0,1,5.51.87l23.4,32.39V384a3.94,3.94,0,0,1,3.91-3.91,4,4,0,0,1,4,3.91v42.09a4,4,0,0,1-4,4,3.93,3.93,0,0,1-3-1.45,2,2,0,0,1-.36-.44l-23.18-32.16Z"/>
    <path class="a457ed12-c856-4a27-b384-e15137e46e34" d="M362.66,426.11V383.73a4,4,0,1,1,8,0v20.79L394.1,381a3.93,3.93,0,0,1,5.65,0,4.07,4.07,0,0,1,0,5.65l-15.94,15.86,16.09,21.09a3.86,3.86,0,0,1-.58,5.57,3.67,3.67,0,0,1-2.54,1,3.94,3.94,0,0,1-3-1.45l-15.65-20.51-7.53,7.68v10.29a4,4,0,1,1-8,0Z"/>
  </g>
  <path class="e46beccf-ec66-4c4b-be94-bcb42a6a7cdb" d="M188.11,209.42C281,143.35,356.86,109.24,464.67,109.22l-.15-42.6c-106.73,8-193.12,50-283.38,123.49Z"/>
  <path class="aca033e5-853f-456b-bca1-a68ee9bf9240" d="M194.7,226.38c95.6-58.23,162.6-83.68,270.21-74.74l.3-43.57c-106.89-.9-183.28,32.62-276.62,98.46Z"/>
  <path class="b6ba0846-7495-44d1-86e7-fed1ec4173a8" d="M200.92,247.69c97.45-52.15,157.18-71,264.38-55.28l.3-44.19c-106.74-7.62-174.68,19.37-270.11,79.26Z"/>
  <g>
    <g>
      <path class="b6ba0846-7495-44d1-86e7-fed1ec4173a8" d="M85.38,484.52,68,485.63c-7.71-96.86,33.61-108,35.38-108.39l4.17,20,.19-.05C107.41,397.28,79.19,406.72,85.38,484.52Z"/>
      <g>
        <path class="a84f63cb-1063-4a9e-9476-f08fa2e0774e" d="M175.23,259.33S190.29,308,182.4,367.66h-50V251.38Z"/>
        <path class="a84f63cb-1063-4a9e-9476-f08fa2e0774e" d="M183.21,368.59H131.43V250.26L176,258.52l.16.53c.15.49,15,49.57,7.21,108.73Zm-49.92-1.86h48.29c7.11-55.08-5.51-101.15-7.08-106.59l-41.21-7.64Z"/>
      </g>
      <g>
        <path class="a84f63cb-1063-4a9e-9476-f08fa2e0774e" d="M91.38,259.33S76.31,308,84.2,367.66h50V251.38Z"/>
        <path class="a84f63cb-1063-4a9e-9476-f08fa2e0774e" d="M135.17,368.59H83.39l-.11-.81c-7.82-59.16,7.06-108.24,7.21-108.73l.17-.53,44.51-8.26ZM85,366.73h48.29V252.5l-41.2,7.64C90.53,265.58,77.91,311.65,85,366.73Z"/>
      </g>
      <rect class="e57ce4ba-2b93-4a00-958b-5a3c37bdaed6" x="89.7" y="227.71" width="87.27" height="118.22" rx="43.63"/>
      <rect class="bac2ac11-7b05-48e6-bca3-1a813c5123d3" x="105.46" y="282.91" width="11.63" height="6.27" rx="1.69"/>
      <rect class="bac2ac11-7b05-48e6-bca3-1a813c5123d3" x="149.56" y="282.91" width="11.63" height="6.27" rx="1.69"/>
      <circle class="a84f63cb-1063-4a9e-9476-f08fa2e0774e" cx="155.38" cy="286.05" r="2.49"/>
      <path class="a84f63cb-1063-4a9e-9476-f08fa2e0774e" d="M115.14,275.4h-9.68a2.79,2.79,0,0,1,0-5.57h9.68a2.79,2.79,0,0,1,0,5.57Z"/>
      <path class="a84f63cb-1063-4a9e-9476-f08fa2e0774e" d="M160.87,275.4H151.2a2.79,2.79,0,0,1,0-5.57h9.67a2.79,2.79,0,1,1,0,5.57Z"/>
      <g class="b1e7ce1a-424e-4098-86b5-99f5ed53c515">
        <circle class="a84f63cb-1063-4a9e-9476-f08fa2e0774e" cx="111.28" cy="286.05" r="2.45"/>
      </g>
      <path class="f0f4b551-78d0-4a3c-baec-c4878d3a6fc7" d="M133.33,324.47c-3.05,0-10.19,0-18.23-7a1.86,1.86,0,0,1,2.44-2.8c7,6.1,13.16,6.1,15.79,6.1s8.8,0,15.79-6.1a1.86,1.86,0,1,1,2.44,2.8C143.52,324.47,136.38,324.47,133.33,324.47Z"/>
      <path class="f0f4b551-78d0-4a3c-baec-c4878d3a6fc7" d="M137.24,302.09h-3.56a4.15,4.15,0,0,1-4.29-4.26v-3.45a1.86,1.86,0,1,1,3.71,0v3.45c0,.55.3.55.58.55h3.56a1.86,1.86,0,1,1,0,3.71Z"/>
      <g>
        <path class="a84f63cb-1063-4a9e-9476-f08fa2e0774e" d="M133.63,224.75l.69,33.77H173.1l7.75,38.82V272.26A47.52,47.52,0,0,0,133.63,224.75Z"/>
        <path class="a84f63cb-1063-4a9e-9476-f08fa2e0774e" d="M179.86,297.54l-7.59-38H133.33l-.73-35.79h1a48.64,48.64,0,0,1,48.23,48.52v25.08Zm-44.55-40h38.62l5.91,29.61V272.26a46.62,46.62,0,0,0-45.18-46.48Z"/>
      </g>
      <g>
        <path class="a84f63cb-1063-4a9e-9476-f08fa2e0774e" d="M133,224.75l-.69,33.77H93.56l-7.75,38.82V272.26A47.52,47.52,0,0,1,133,224.75Z"/>
        <path class="a84f63cb-1063-4a9e-9476-f08fa2e0774e" d="M86.81,297.54l-2-.2V272.26A48.65,48.65,0,0,1,133,223.74h1l-.74,35.79H94.39ZM132,225.78a46.63,46.63,0,0,0-45.18,46.48v14.86l5.92-29.61h38.61Z"/>
      </g>
      <g>
        <path class="a84f63cb-1063-4a9e-9476-f08fa2e0774e" d="M97.9,259.74s-1.86,66.84,3,103.05c1.16,1.86-8.82,1.62-8.82,1.62l-7.65-56.63,10.21-52.45Z"/>
        <path class="a84f63cb-1063-4a9e-9476-f08fa2e0774e" d="M93.63,365.36l-1.56,0-.79,0L83.5,307.75l0-.15,10.62-54.53,4.69,6.37v.32c0,.67-1.8,67,3,102.75a1.34,1.34,0,0,1,0,1.23C101,365,97.21,365.36,93.63,365.36Zm-.72-1.86a25.87,25.87,0,0,0,7.08-.63c-4.65-34.6-3.16-97.77-3-102.84l-1.81-2.45-9.77,50.23Z"/>
      </g>
      <g>
        <path class="a84f63cb-1063-4a9e-9476-f08fa2e0774e" d="M168.71,259.74s1.85,66.84-3,103.05c-1.16,1.86,8.82,1.62,8.82,1.62l7.66-56.63L172,255.33Z"/>
        <path class="a84f63cb-1063-4a9e-9476-f08fa2e0774e" d="M173,365.36c-3.59,0-7.4-.32-8.14-1.62a1.37,1.37,0,0,1-.05-1.23c4.78-35.76,3-102.08,3-102.75v-.32l4.69-6.37,10.65,54.68,0,.16-7.77,57.41-.79,0Zm-6.37-2.49c1,.42,4.17.63,7.08.63l7.54-55.69-9.78-50.23L169.64,260C169.77,265.1,171.26,328.27,166.61,362.87Z"/>
      </g>
      <path class="e57ce4ba-2b93-4a00-958b-5a3c37bdaed6" d="M134.88,387.06a11.14,11.14,0,0,1-11.14-11.14V338.78a11.14,11.14,0,0,1,22.28,0v37.14A11.14,11.14,0,0,1,134.88,387.06Z"/>
      <path class="fbabb190-80ce-41d0-9fd9-fef7778be681" d="M152.2,370.68a2,2,0,0,0-2.17,1.65,16,16,0,0,1-31.6-.09,2,2,0,0,0-2-1.65h0A24.47,24.47,0,0,0,92,395.06v83.4a24.48,24.48,0,0,0,24.47,24.47h33.66a24.47,24.47,0,0,0,24.47-24.47v-83.4A24.46,24.46,0,0,0,152.2,370.68Z"/>
      <path class="b45e3899-f33a-4cdc-99a9-8fd7fe9185bb" d="M169.75,387.37c5.06,15.46,6.65,23.57,8.66,39.64.57,4.57,1.12,9.23.2,13.74a21.56,21.56,0,0,1-28.38,16"/>
      <path class="a74f4721-adf8-44ad-8eaa-8a5599a8ab5c" d="M134.66,388.34c8.58,0,15.56-7.22,16-16.28H118.69C119.1,381.12,126.08,388.34,134.66,388.34Z"/>
      <path class="fbabb190-80ce-41d0-9fd9-fef7778be681" d="M184.69,396.6c-3.58-4.38-4.83-12.66-10.77-16.78-4.79-3.32-15.81-9.52-20.92-9.06-2,.18,3.76,1.61,2.72,3.6a12,12,0,0,0-1,5.56c0,6.46.16,15.7,5.36,18C164.26,399.84,181.78,393,184.69,396.6Z"/>
      <path class="fbabb190-80ce-41d0-9fd9-fef7778be681" d="M81.59,396.6c3.58-4.38,4.82-12.66,10.76-16.78,4.8-3.32,15.82-9.52,20.92-9.06,2,.18-3.76,1.61-2.71,3.6a12.11,12.11,0,0,1,1,5.56c0,6.46-.16,15.7-5.36,18C102,399.84,84.5,393,81.59,396.6Z"/>
      <rect class="fc926a31-9245-4c01-8511-1cf516e22a0e" x="91.35" y="480.52" width="84.18" height="26.39"/>
      <rect class="fc926a31-9245-4c01-8511-1cf516e22a0e" x="91" y="499.61" width="84.18" height="30.26" rx="6.14"/>
      <path class="fc926a31-9245-4c01-8511-1cf516e22a0e" d="M106,690.35H84.43c0-89.26,8.73-170,9.36-173.34l37.91,6.81C131.55,524.62,106,604.67,106,690.35Z"/>
      <path class="fc926a31-9245-4c01-8511-1cf516e22a0e" d="M181.74,690.35H160.21c0-85.84-25.59-165.73-25.74-166.53L173.38,517C174,520.4,181.74,601.09,181.74,690.35Z"/>
      <rect class="b6ba0846-7495-44d1-86e7-fed1ec4173a8" x="138.15" y="447.6" width="19.05" height="19.05" rx="2.83" transform="translate(295.35 914.25) rotate(-180)"/>
    </g>
    <path class="f53f4f20-06e5-4271-a3d8-57b866f7b40e" d="M153,694.17a15.93,15.93,0,1,1,31.85,0"/>
    <path class="f53f4f20-06e5-4271-a3d8-57b866f7b40e" d="M76.8,694.5a15.93,15.93,0,1,1,31.85,0"/>
    <rect class="b8389a78-9f11-4be2-9968-e305ff492c84" x="76.8" y="694.5" width="31.85" height="4.99"/>
    <rect class="b8389a78-9f11-4be2-9968-e305ff492c84" x="153.02" y="691.6" width="31.85" height="4.99"/>
  </g>
  <g>
    <line class="b0e1c738-b011-44ca-adfc-df2f1e71b9a6" x1="147.51" y1="450.55" x2="193.58" y2="153.64"/>
    
    <g class="text-cta text-ct--15">
      <path class="fc926a31-9245-4c01-8511-1cf516e22a0e" d="M75.36,231.83c15.75,2.44,27.76,13,30.42,25.47l1.84.28c6.31-11,21-17.49,36.71-15s27.76,13,30.43,25.47l1.83.28c6.31-11,21-17.49,36.72-15s27.76,13,30.43,25.47l1.88.29c6.31-11,21-17.49,36.72-15.05s27.76,13,30.42,25.47l.62.1c8.85-57-45.57-112.79-121.55-124.58S47.09,189.8,38.24,246.82l.4.06C45,235.83,59.61,229.38,75.36,231.83Z"/>
    <path class="bac2ac11-7b05-48e6-bca3-1a813c5123d3" d="M119.11,197.18l-1.58,13.48a1.29,1.29,0,0,1-1.42,1.1,1.26,1.26,0,0,1-1.11-1.4l1.13-9.62-3.83,4.19a1.26,1.26,0,0,1-1.09.4h0a1.26,1.26,0,0,1-1-.64l-2.73-5-1.13,9.61a1.28,1.28,0,0,1-2.54-.3l1.59-13.47a1.27,1.27,0,0,1,1.4-1.11h.07a1.24,1.24,0,0,1,.94.64l3.8,6.84,5.29-5.77a1.24,1.24,0,0,1,1.09-.41h0A1.3,1.3,0,0,1,119.11,197.18Z"/>
    <path class="bac2ac11-7b05-48e6-bca3-1a813c5123d3" d="M123.91,211a5.76,5.76,0,0,1-1.1-4.21,5.92,5.92,0,0,1,2-3.81A5.37,5.37,0,0,1,129,201.7a5.06,5.06,0,0,1,3.61,2.18,5.7,5.7,0,0,1,1.13,4.18,5.55,5.55,0,0,1-2.07,3.84,5.07,5.07,0,0,1-4,1.28A5.36,5.36,0,0,1,123.91,211Zm1.39-3.91a3.67,3.67,0,0,0,.53,2.51,3.15,3.15,0,0,0,2.1,1.11,3,3,0,0,0,2.2-.6,3.56,3.56,0,0,0,1.17-2.32,3.44,3.44,0,0,0-.61-2.48,3.22,3.22,0,0,0-2-1.11,3.26,3.26,0,0,0-2.29.61A3.61,3.61,0,0,0,125.3,207.08Z"/>
    <path class="bac2ac11-7b05-48e6-bca3-1a813c5123d3" d="M147.25,208.65l-.64,5.46a1.22,1.22,0,0,1-1.33,1.08,1.25,1.25,0,0,1-1.07-1.36l.64-5.46a2.35,2.35,0,0,0-2.1-2.58,2.3,2.3,0,0,0-2.56,2l-.64,5.46a.55.55,0,0,1-.07.22,1.26,1.26,0,0,1-1.33.84,1.22,1.22,0,0,1-1.07-1.35l.65-5.46.41-3.54a1.22,1.22,0,0,1,1.35-1.07,1.26,1.26,0,0,1,1,.84,4.56,4.56,0,0,1,2.5-.42A4.81,4.81,0,0,1,147.25,208.65Z"/>
    <path class="bac2ac11-7b05-48e6-bca3-1a813c5123d3" d="M150.82,210.05a5.68,5.68,0,0,1,6.24-5.06,5.5,5.5,0,0,1,4.88,5.94s0,.07,0,.12a.73.73,0,0,1-.05.2,1.11,1.11,0,0,1-1.29.78l-7.27-.86a3.11,3.11,0,0,0,.6,1.6,3.54,3.54,0,0,0,2.07,1.29,3.86,3.86,0,0,0,2.45-.29,1.3,1.3,0,0,1,1.72.13,1,1,0,0,1-.18,1.48,5.79,5.79,0,0,1-4.26,1A5.7,5.7,0,0,1,150.82,210.05Zm2.62-.83,6.46.76a3.76,3.76,0,0,0-3.1-2.82A3.19,3.19,0,0,0,153.44,209.22Z"/>
    <path class="bac2ac11-7b05-48e6-bca3-1a813c5123d3" d="M175.37,208.37l-.63,5.39-.38,3.24a5.42,5.42,0,0,1-8.38,4,1.2,1.2,0,0,1-.41-1.69,1.27,1.27,0,0,1,1.68-.31,3.1,3.1,0,0,0,1.29.47,3,3,0,0,0,3.1-1.74,4.46,4.46,0,0,1-2.24.29,4.84,4.84,0,0,1-4.21-5.35l.64-5.39a1.21,1.21,0,0,1,1.33-1.07,1.18,1.18,0,0,1,1.06,1.35l-.63,5.39a2.36,2.36,0,0,0,2.1,2.61,2.34,2.34,0,0,0,2.63-2.06l.63-5.39a1.18,1.18,0,0,1,1.33-1.07A1.24,1.24,0,0,1,175.37,208.37Z"/>
    <path class="bac2ac11-7b05-48e6-bca3-1a813c5123d3" d="M194.7,217.16l-5.55-.65-1.47,2.84a1.29,1.29,0,0,1-1.28.66,1.43,1.43,0,0,1-.43-.12,1.31,1.31,0,0,1-.56-1.73L192,205.3a1.32,1.32,0,0,1,2.42.28l3.47,14a1.31,1.31,0,0,1-1,1.55,1.25,1.25,0,0,1-.44,0,1.23,1.23,0,0,1-1.07-.94Zm-.65-2.62-1.27-5.13-2.43,4.7Z"/>
    <path class="bac2ac11-7b05-48e6-bca3-1a813c5123d3" d="M210.53,221.59a1.26,1.26,0,0,1-1.38,1.09,1.24,1.24,0,0,1-1.1-1.13,5.5,5.5,0,0,1-3.22.62,5.75,5.75,0,0,1,1.34-11.42,5.48,5.48,0,0,1,3,1.32l.5-4.29a1.25,1.25,0,0,1,2.49.29l-1.06,9v0Zm-4.65-8.35a3,3,0,0,0-2.26.69,3.34,3.34,0,0,0-.54,4.56,3,3,0,0,0,2,1.19,2.92,2.92,0,0,0,2.26-.68,3.34,3.34,0,0,0,.54-4.57A3,3,0,0,0,205.88,213.24Z"/>
    <path class="bac2ac11-7b05-48e6-bca3-1a813c5123d3" d="M225.26,214.84l-4.79,8.43a.48.48,0,0,1-.11.15,0,0,0,0,1,0,0l-.16.14a0,0,0,0,1,0,0,1.33,1.33,0,0,1-.16.12,0,0,0,0,0,0,0,.45.45,0,0,1-.18.1h0v0a.54.54,0,0,0-.19,0h-.28a.8.8,0,0,1-.2-.05H219a.61.61,0,0,0-.17-.07v0h-.05c-.06,0-.1-.08-.19-.14a0,0,0,0,0,0,0,.74.74,0,0,1-.12-.16s0,0,0,0a.81.81,0,0,0-.1-.18s0,0,0,0a.27.27,0,0,1-.07-.17l-2.66-9.3a1.16,1.16,0,0,1,.84-1.47,1.18,1.18,0,0,1,1.45.84l1.9,6.52,3.38-5.9a1.19,1.19,0,1,1,2.09,1.14Z"/>
    <path class="bac2ac11-7b05-48e6-bca3-1a813c5123d3" d="M232.08,215.09,231,224a1.23,1.23,0,0,1-1.38,1.09,1.25,1.25,0,0,1-1.09-1.38l1.05-8.91a1.22,1.22,0,0,1,1.38-1.11A1.2,1.2,0,0,1,232.08,215.09Zm.49-4.13a1.24,1.24,0,0,1-1.38,1.11,1.26,1.26,0,0,1-1.09-1.4l.06-.48a1.23,1.23,0,0,1,1.38-1.09,1.21,1.21,0,0,1,1.08,1.38Z"/>
    <path class="bac2ac11-7b05-48e6-bca3-1a813c5123d3" d="M234.69,219.91a5.85,5.85,0,0,1,6.48-5,6,6,0,0,1,3.48,1.68,1.26,1.26,0,0,1,0,1.72,1.23,1.23,0,0,1-1.74,0,3.63,3.63,0,0,0-2.08-1,3.3,3.3,0,1,0-.77,6.56,3.76,3.76,0,0,0,2.26-.48,1.22,1.22,0,1,1,1.23,2.11,6.29,6.29,0,0,1-3.77.79A5.83,5.83,0,0,1,234.69,219.91Z"/>
    <path class="bac2ac11-7b05-48e6-bca3-1a813c5123d3" d="M247.4,221.38a5.7,5.7,0,0,1,6.24-5.06,5.5,5.5,0,0,1,4.88,6s0,.06,0,.11a.65.65,0,0,1-.05.2,1.11,1.11,0,0,1-1.29.78l-7.27-.85a3.11,3.11,0,0,0,.6,1.59,3.54,3.54,0,0,0,2.07,1.29,3.86,3.86,0,0,0,2.45-.29,1.3,1.3,0,0,1,1.72.13,1,1,0,0,1-.18,1.48,5.79,5.79,0,0,1-4.26,1A5.69,5.69,0,0,1,247.4,221.38Zm2.62-.83,6.46.76a3.76,3.76,0,0,0-3.1-2.82A3.22,3.22,0,0,0,250,220.55Z"/>
  </g>
  </g>
  <rect class="b6ba0846-7495-44d1-86e7-fed1ec4173a8" x="138.15" y="447.6" width="19.05" height="19.05" rx="2.83" transform="translate(295.35 914.25) rotate(-180)"/>
  
  <g>
    <g>
      <rect class="bee8a8a8-58ef-40b2-8154-7d8e59333898" x="65.45" y="491.93" width="51.09" height="67.9" rx="3.67" transform="translate(-193.54 74.36) rotate(-22.4)"/>
      <path class="bee8a8a8-58ef-40b2-8154-7d8e59333898" d="M123.82,549.65,84.46,565.88a4.81,4.81,0,0,1-6.26-2.6L55.57,508.37a4.79,4.79,0,0,1,2.6-6.25l39.37-16.23a4.79,4.79,0,0,1,6.25,2.6l22.63,54.91A4.79,4.79,0,0,1,123.82,549.65ZM58.58,503.1a3.73,3.73,0,0,0-2,4.86l22.64,54.91a3.72,3.72,0,0,0,4.86,2l39.36-16.22a3.74,3.74,0,0,0,2-4.87l-22.63-54.9a3.74,3.74,0,0,0-4.87-2Z"/>
    </g>
    <g>
      <rect class="f99191f3-48b2-45d5-9854-bb692a7dfe4f" x="59.82" y="499.54" width="44.35" height="8.99" transform="translate(-185.89 69.28) rotate(-22.4)"/>
      <path class="f99191f3-48b2-45d5-9854-bb692a7dfe4f" d="M104.41,500.23l-41,16.9a.53.53,0,0,1-.69-.29l-3.43-8.31a.53.53,0,0,1,.29-.69l41-16.9a.52.52,0,0,1,.69.29l3.43,8.31A.53.53,0,0,1,104.41,500.23ZM63.49,516l40-16.5-3-7.33-40,16.5Z"/>
    </g>
    <g>
      <rect class="bac2ac11-7b05-48e6-bca3-1a813c5123d3" x="66.19" y="518.72" width="8.63" height="8.63" transform="translate(-194 66.34) rotate(-22.4)"/>
      <path class="bac2ac11-7b05-48e6-bca3-1a813c5123d3" d="M76.35,525.88l-8,3.29a.54.54,0,0,1-.7-.29l-3.29-8a.55.55,0,0,1,.29-.7l8-3.29a.54.54,0,0,1,.7.29l3.29,8A.54.54,0,0,1,76.35,525.88Zm-7.9,2.1,7-2.88-2.88-7-7,2.89Z"/>
    </g>
    <g>
      <rect class="bac2ac11-7b05-48e6-bca3-1a813c5123d3" x="77.2" y="514.19" width="8.63" height="8.63" transform="translate(-191.44 70.19) rotate(-22.4)"/>
      <path class="bac2ac11-7b05-48e6-bca3-1a813c5123d3" d="M87.36,521.34l-8,3.29a.52.52,0,0,1-.69-.29l-3.29-8a.53.53,0,0,1,.29-.69l8-3.29a.51.51,0,0,1,.69.29l3.29,8A.52.52,0,0,1,87.36,521.34Zm-7.9,2.11,7-2.89-2.89-7-7,2.89Z"/>
    </g>
    <g>
      <rect class="bac2ac11-7b05-48e6-bca3-1a813c5123d3" x="88.21" y="509.65" width="8.63" height="8.63" transform="translate(-188.88 74.04) rotate(-22.4)"/>
      <path class="bac2ac11-7b05-48e6-bca3-1a813c5123d3" d="M98.36,516.81l-8,3.29a.53.53,0,0,1-.69-.29l-3.29-8a.52.52,0,0,1,.28-.69l8-3.29a.53.53,0,0,1,.69.29l3.29,8A.55.55,0,0,1,98.36,516.81Zm-7.89,2.1,7-2.89-2.88-7-7,2.88Z"/>
    </g>
    <g>
      <rect class="bac2ac11-7b05-48e6-bca3-1a813c5123d3" x="99.21" y="505.11" width="8.63" height="8.63" transform="translate(-186.32 77.89) rotate(-22.4)"/>
      <path class="bac2ac11-7b05-48e6-bca3-1a813c5123d3" d="M109.37,512.27l-8,3.29a.55.55,0,0,1-.7-.29l-3.29-8a.54.54,0,0,1,.29-.7l8-3.29a.54.54,0,0,1,.7.29l3.29,8A.54.54,0,0,1,109.37,512.27Zm-7.9,2.1,7-2.88-2.88-7-7,2.88Z"/>
    </g>
    <g>
      <rect class="bac2ac11-7b05-48e6-bca3-1a813c5123d3" x="70.59" y="529.39" width="8.63" height="8.63" transform="translate(-197.73 68.82) rotate(-22.4)"/>
      <path class="bac2ac11-7b05-48e6-bca3-1a813c5123d3" d="M80.74,536.54l-8,3.29a.53.53,0,0,1-.69-.29l-3.29-8a.53.53,0,0,1,.28-.7l8-3.29a.53.53,0,0,1,.69.29l3.29,8A.53.53,0,0,1,80.74,536.54Zm-7.89,2.1,7-2.88-2.88-7-7,2.89Z"/>
    </g>
    <g>
      <rect class="bac2ac11-7b05-48e6-bca3-1a813c5123d3" x="81.59" y="524.85" width="8.63" height="8.63" transform="translate(-195.17 72.67) rotate(-22.4)"/>
      <path class="bac2ac11-7b05-48e6-bca3-1a813c5123d3" d="M91.75,532l-8,3.29a.52.52,0,0,1-.7-.29l-3.29-8a.53.53,0,0,1,.29-.69l8-3.29a.54.54,0,0,1,.7.29l3.29,8A.53.53,0,0,1,91.75,532Zm-7.9,2.11,7-2.89-2.88-7-7,2.89Z"/>
    </g>
    <g>
      <rect class="bac2ac11-7b05-48e6-bca3-1a813c5123d3" x="92.6" y="520.31" width="8.63" height="8.63" transform="translate(-192.61 76.52) rotate(-22.4)"/>
      <path class="bac2ac11-7b05-48e6-bca3-1a813c5123d3" d="M102.76,527.47l-8,3.29a.53.53,0,0,1-.69-.29l-3.29-8a.54.54,0,0,1,.29-.7l8-3.29a.55.55,0,0,1,.7.29l3.29,8A.55.55,0,0,1,102.76,527.47Zm-7.9,2.1,7-2.88-2.89-7-7,2.88Z"/>
    </g>
    <g>
      <rect class="bac2ac11-7b05-48e6-bca3-1a813c5123d3" x="103.61" y="515.77" width="8.63" height="8.63" transform="translate(-190.05 80.37) rotate(-22.4)"/>
      <path class="bac2ac11-7b05-48e6-bca3-1a813c5123d3" d="M113.76,522.93l-8,3.29a.53.53,0,0,1-.69-.29l-3.29-8a.54.54,0,0,1,.29-.7l8-3.29a.53.53,0,0,1,.69.29l3.29,8A.52.52,0,0,1,113.76,522.93Zm-7.89,2.1,7-2.88-2.89-7L103,518Z"/>
    </g>
    <g>
      <rect class="bac2ac11-7b05-48e6-bca3-1a813c5123d3" x="75.07" y="540.25" width="8.63" height="8.63" transform="translate(-201.53 71.34) rotate(-22.4)"/>
      <path class="bac2ac11-7b05-48e6-bca3-1a813c5123d3" d="M85.22,547.41l-8,3.29a.55.55,0,0,1-.7-.29l-3.29-8a.54.54,0,0,1,.29-.7l8-3.29a.53.53,0,0,1,.69.29l3.29,8A.54.54,0,0,1,85.22,547.41Zm-7.89,2.1,7-2.88-2.88-7-7,2.88Z"/>
    </g>
    <g>
      <rect class="bac2ac11-7b05-48e6-bca3-1a813c5123d3" x="86.07" y="535.72" width="8.63" height="8.63" transform="translate(-198.97 75.2) rotate(-22.4)"/>
      <path class="bac2ac11-7b05-48e6-bca3-1a813c5123d3" d="M96.23,542.87l-8,3.29a.54.54,0,0,1-.7-.29l-3.29-8a.55.55,0,0,1,.29-.7l8-3.29a.54.54,0,0,1,.7.29l3.29,8A.53.53,0,0,1,96.23,542.87Zm-7.9,2.1,7-2.88-2.88-7-7,2.89Z"/>
    </g>
    <g>
      <rect class="bac2ac11-7b05-48e6-bca3-1a813c5123d3" x="97.08" y="531.18" width="8.63" height="8.63" transform="translate(-196.41 79.05) rotate(-22.4)"/>
      <path class="bac2ac11-7b05-48e6-bca3-1a813c5123d3" d="M107.24,538.33l-8,3.29a.51.51,0,0,1-.69-.29l-3.29-8a.53.53,0,0,1,.29-.69l8-3.29a.51.51,0,0,1,.69.29l3.3,8A.53.53,0,0,1,107.24,538.33Zm-7.9,2.11,7-2.89-2.89-7-7,2.89Z"/>
    </g>
    <g>
      <rect class="bac2ac11-7b05-48e6-bca3-1a813c5123d3" x="108.09" y="526.64" width="8.63" height="8.63" transform="translate(-193.86 82.9) rotate(-22.4)"/>
      <path class="bac2ac11-7b05-48e6-bca3-1a813c5123d3" d="M118.24,533.8l-8,3.29a.53.53,0,0,1-.69-.29l-3.29-8a.51.51,0,0,1,.29-.69l8-3.29a.53.53,0,0,1,.69.29l3.29,8A.55.55,0,0,1,118.24,533.8Zm-7.89,2.1,7-2.89-2.89-7-7,2.88Z"/>
    </g>
    <g>
      <rect class="bac2ac11-7b05-48e6-bca3-1a813c5123d3" x="79.51" y="551.04" width="8.63" height="8.63" transform="translate(-205.31 73.85) rotate(-22.4)"/>
      <path class="bac2ac11-7b05-48e6-bca3-1a813c5123d3" d="M89.67,558.19l-8,3.29a.53.53,0,0,1-.69-.29l-3.29-8a.53.53,0,0,1,.29-.69l8-3.29a.53.53,0,0,1,.7.28l3.29,8A.53.53,0,0,1,89.67,558.19Zm-7.9,2.1,7-2.88-2.89-7-7,2.89Z"/>
    </g>
    <g>
      <rect class="bac2ac11-7b05-48e6-bca3-1a813c5123d3" x="90.52" y="546.5" width="8.63" height="8.63" transform="translate(-202.75 77.7) rotate(-22.4)"/>
      <path class="bac2ac11-7b05-48e6-bca3-1a813c5123d3" d="M100.67,553.65l-8,3.29a.52.52,0,0,1-.69-.28l-3.29-8A.51.51,0,0,1,89,548l8-3.29a.53.53,0,0,1,.69.29l3.29,8A.52.52,0,0,1,100.67,553.65Zm-7.89,2.11,7-2.89-2.89-7-7,2.89Z"/>
    </g>
    <g>
      <rect class="bac2ac11-7b05-48e6-bca3-1a813c5123d3" x="101.53" y="541.96" width="8.63" height="8.63" transform="translate(-200.19 81.56) rotate(-22.4)"/>
      <path class="bac2ac11-7b05-48e6-bca3-1a813c5123d3" d="M111.68,549.12l-8,3.29a.55.55,0,0,1-.7-.29l-3.29-8a.54.54,0,0,1,.29-.7l8-3.29a.53.53,0,0,1,.69.29l3.29,8A.54.54,0,0,1,111.68,549.12Zm-7.89,2.1,7-2.88-2.88-7-7,2.88Z"/>
    </g>
    <g>
      <rect class="fc926a31-9245-4c01-8511-1cf516e22a0e" x="112.53" y="537.43" width="8.63" height="8.63" transform="translate(-197.63 85.41) rotate(-22.4)"/>
      <path class="fc926a31-9245-4c01-8511-1cf516e22a0e" d="M122.69,544.58l-8,3.29a.54.54,0,0,1-.7-.29l-3.29-8a.55.55,0,0,1,.29-.7l8-3.29a.54.54,0,0,1,.7.29l3.29,8A.53.53,0,0,1,122.69,544.58Zm-7.9,2.1,7-2.88-2.88-7-7,2.89Z"/>
    </g>
    <path class="bee8a8a8-58ef-40b2-8154-7d8e59333898" d="M71,520.72l0,3.87a.31.31,0,0,1-.21.3.25.25,0,0,1-.13,0,.35.35,0,0,1-.33-.34l0-3.35-1.44.59a.34.34,0,0,1-.44-.19.33.33,0,0,1,.18-.43l1.91-.79h.22s0,0,0,0h.06l0,0,0,0v0l0,0a.69.69,0,0,1,0,.13Z"/>
    <path class="bee8a8a8-58ef-40b2-8154-7d8e59333898" d="M82.6,518.45a1.44,1.44,0,1,1-2.53-.26,1,1,0,0,1-.41-.47A1,1,0,0,1,81.5,517a1,1,0,0,1,0,.63A1.44,1.44,0,0,1,82.6,518.45Zm-.61.25a.78.78,0,1,0-.42,1A.79.79,0,0,0,82,518.7Zm-1.72-1.23a.34.34,0,1,0,.62-.26.33.33,0,0,0-.43-.18A.33.33,0,0,0,80.27,517.47Z"/>
    <path class="bee8a8a8-58ef-40b2-8154-7d8e59333898" d="M90.61,513.71a1.46,1.46,0,0,1,2.64-1.25h0c0,.11.1.21.14.32a3.75,3.75,0,0,1,.28,1.22,2.18,2.18,0,0,1-.33,1.25,1.84,1.84,0,0,1-.73.61.34.34,0,0,1-.28-.61,1.11,1.11,0,0,0,.46-.38,1.16,1.16,0,0,0,.19-.53,1.1,1.1,0,0,0,0-.18,1.44,1.44,0,0,1-.49.34A1.47,1.47,0,0,1,90.61,513.71Zm.62-.25a.8.8,0,0,0,1,.43.79.79,0,0,0-.61-1.46A.78.78,0,0,0,91.23,513.46Z"/>
    <path class="bee8a8a8-58ef-40b2-8154-7d8e59333898" d="M102.2,510a.33.33,0,0,1-.41-.17.32.32,0,0,1,.17-.41l2.26-.93a.31.31,0,0,1,.41.17.32.32,0,0,1-.17.41Zm.91-2.09v0a.42.42,0,0,1-.77.32v0a.4.4,0,0,1,.23-.52A.41.41,0,0,1,103.11,507.88Zm1,2.32v0a.41.41,0,0,1-.23.53.42.42,0,0,1-.54-.21v0a.4.4,0,0,1,.23-.53A.42.42,0,0,1,104.07,510.2Z"/>
    <path class="bee8a8a8-58ef-40b2-8154-7d8e59333898" d="M76.71,533.83a.34.34,0,0,1-.19.44l-.06,0,.18.43A.33.33,0,1,1,76,535l-.18-.42-1.74.72h0a.26.26,0,0,1-.21,0,.32.32,0,0,1-.23-.41l1-3.41v0s0,0,0,0l0,0,0,0,0,0s0,0,0,0l0,0h0l0,0h.28l0,0,0,0h0l0,0,0,0,0,0,0,0v0l.93,2.25.06,0A.34.34,0,0,1,76.71,533.83ZM75,532.56l-.54,1.83,1.11-.46Z"/>
    <path class="bee8a8a8-58ef-40b2-8154-7d8e59333898" d="M86.13,528.4a1.41,1.41,0,0,1,.81.81,1.49,1.49,0,0,1-.81,1.95h0a1.46,1.46,0,0,1-1.14,0,.32.32,0,0,1-.18-.44.33.33,0,0,1,.44-.19.82.82,0,0,0,1.07-.44.83.83,0,0,0,0-.62.76.76,0,0,0-.44-.44.79.79,0,0,0-.62,0,.84.84,0,0,0-.45.44.34.34,0,0,1-.44.18l-.09,0h0l0,0,0,0h0a.42.42,0,0,1,0-.1l-.43-1.51a.39.39,0,0,1,0-.28l0,0v0a.38.38,0,0,1,.13-.09l1.65-.68A.35.35,0,0,1,86,527a.35.35,0,0,1-.19.44l-1.38.57.17.58a1.25,1.25,0,0,1,.35-.21A1.46,1.46,0,0,1,86.13,528.4Z"/>
    <path class="bee8a8a8-58ef-40b2-8154-7d8e59333898" d="M98.25,524.59a1.46,1.46,0,0,1-2.64,1.25h0c0-.1-.1-.21-.14-.31a3.4,3.4,0,0,1-.28-1.23,2.1,2.1,0,0,1,.33-1.25,1.68,1.68,0,0,1,.73-.6.32.32,0,0,1,.44.16.34.34,0,0,1-.17.45,1.14,1.14,0,0,0-.46.37,1.29,1.29,0,0,0-.19.53c0,.06,0,.12,0,.18a1.41,1.41,0,0,1,.49-.33A1.46,1.46,0,0,1,98.25,524.59Zm-.62.25a.79.79,0,1,0-1.46.61.78.78,0,0,0,1,.43A.79.79,0,0,0,97.63,524.84Z"/>
    <path class="bee8a8a8-58ef-40b2-8154-7d8e59333898" d="M108.42,519.29l-.29,1.19,1,.65a.31.31,0,0,1,0,.55.35.35,0,0,1-.3,0l-.87-.53-.24,1a.33.33,0,0,1-.18.22.34.34,0,0,1-.2,0,.3.3,0,0,1-.23-.37l.29-1.2-1.05-.64a.31.31,0,0,1-.1-.42.32.32,0,0,1,.43-.11l.87.52.25-1a.33.33,0,0,1,.4-.23A.32.32,0,0,1,108.42,519.29Z"/>
    <path class="bee8a8a8-58ef-40b2-8154-7d8e59333898" d="M79.14,542.31l1.36,3.29a.34.34,0,0,1-.19.44.33.33,0,0,1-.43-.18l-1.13-2.75-.17.22a.29.29,0,0,1-.14.11.33.33,0,0,1-.33-.05.32.32,0,0,1-.07-.46l.52-.69v0s0,0,0,0l0,0,0,0,0,0h0l0,0h.18l0,0H79s0,0,0,0l0,0,0,0v0l0,0Z"/>
    <path class="bee8a8a8-58ef-40b2-8154-7d8e59333898" d="M91.88,540.91a.33.33,0,0,1-.18.43l-2,.81h0a.32.32,0,0,1-.27,0,.33.33,0,0,1-.16-.44l1-2.17a.79.79,0,0,0,0-.64.8.8,0,0,0-1-.42.82.82,0,0,0-.41.39l-.1.22a.34.34,0,0,1-.61-.28l.11-.23a1.45,1.45,0,0,1,2.62,1.24l-.66,1.39,1.18-.49A.34.34,0,0,1,91.88,540.91Z"/>
    <path class="bee8a8a8-58ef-40b2-8154-7d8e59333898" d="M101.72,534.44a1.5,1.5,0,0,1,.81.81,1.52,1.52,0,0,1,0,1.15,1.55,1.55,0,0,1-.82.81,1.5,1.5,0,0,1-1.14,0,.34.34,0,0,1-.19-.44.35.35,0,0,1,.45-.19.79.79,0,0,0,.62,0,.88.88,0,0,0,.45-.44.83.83,0,0,0,0-.62.76.76,0,0,0-.44-.44.86.86,0,0,0-.63,0,.29.29,0,0,1-.27,0h0a.34.34,0,0,1-.2-.44l.33-.81-.9.37a.33.33,0,0,1-.44-.19.33.33,0,0,1,.18-.44l1.64-.68a.33.33,0,0,1,.47.35.3.3,0,0,1,0,.1l-.4,1A1.25,1.25,0,0,1,101.72,534.44Z"/>
    <path class="bee8a8a8-58ef-40b2-8154-7d8e59333898" d="M111.34,531.25a.36.36,0,0,1,.19-.47l1-.43a.36.36,0,0,1,.47.2.36.36,0,0,1-.2.46l-1,.43A.36.36,0,0,1,111.34,531.25Z"/>
    <path class="bee8a8a8-58ef-40b2-8154-7d8e59333898" d="M82.09,555.73a2.54,2.54,0,0,1-.17-1.49,1.27,1.27,0,0,1,2.07-.85,2.52,2.52,0,0,1,.92,1.18,2.59,2.59,0,0,1,.18,1.48,1.27,1.27,0,0,1-2.07.86A2.66,2.66,0,0,1,82.09,555.73Zm2.2-.91a2,2,0,0,0-.67-.88.72.72,0,0,0-.66-.13.73.73,0,0,0-.39.56,2,2,0,0,0,.14,1.11,2,2,0,0,0,.67.87.76.76,0,0,0,.68.13.7.7,0,0,0,.37-.56A1.93,1.93,0,0,0,84.29,554.82Z"/>
    <path class="bee8a8a8-58ef-40b2-8154-7d8e59333898" d="M95.15,551.7a.45.45,0,0,1,.34.84.45.45,0,0,1-.34-.84Z"/>
    <path class="bee8a8a8-58ef-40b2-8154-7d8e59333898" d="M105.44,546.45l-.79.33a.33.33,0,0,1-.43-.18.34.34,0,0,1,.18-.44l.79-.32-.32-.78a.35.35,0,0,1,.19-.45.35.35,0,0,1,.45.19l.32.78.79-.33a.33.33,0,1,1,.25.61l-.79.33.32.77a.35.35,0,0,1-.19.45.34.34,0,0,1-.45-.18Z"/>
    <path class="bee8a8a8-58ef-40b2-8154-7d8e59333898" d="M115.3,541.8a.32.32,0,0,1,.18-.42l1.59-.65a.31.31,0,0,1,.42.17.32.32,0,0,1-.18.42l-1.59.66A.32.32,0,0,1,115.3,541.8Zm.39,1a.33.33,0,0,1,.18-.43l1.59-.66a.33.33,0,0,1,.25.62l-1.59.65A.33.33,0,0,1,115.69,542.76Z"/>
  </g>
  <rect class="b6ba0846-7495-44d1-86e7-fed1ec4173a8" x="67.02" y="480.58" width="19.05" height="19.05" rx="5.48"/>
</svg>
