<svg class="story-screen__graphic" id="ffffed6f-26d2-4bc8-9520-b49545cb6e0a" data-name="Layer 1" xmlns="http://www.w3.org/2000/svg" xmlns:xlink="http://www.w3.org/1999/xlink" viewBox="0 0 464.03 679.08">
  <defs>
    <style>
      .a502c808-1aa9-4f64-90c9-67c9e584dd5f, .a6c110b8-52e3-45c2-8808-87b9b048a9e6, .aa99c381-cb09-4c2f-973f-e18749f654e9, .aabeeac1-197e-40ce-8950-bc70269b5cfa, .b16942f8-a7c2-4ab4-b506-b57a5f654b04, .b40ba5bb-0031-483a-be8d-39254b5b0be8 {
        fill: none;
      }

      .abb0449c-a666-4af3-828f-a64a4f9bf666, .f199f5a3-d766-40c4-a804-522f47f44ecc, .f659ba9f-a3a0-4944-aa27-17266dacd30f {
        fill: #ede8db;
      }

      .b03be96f-3cec-4f20-aa03-2c8f13843074 {
        fill: #aeaaa1;
      }

      .f2bfb4c1-8484-47cf-be73-4ec449bd799a {
        fill: #d5a555;
      }

      .a3b8d9d0-4579-4c1f-ba13-eee547435cfc, .bed3e6a5-73e5-4f06-b8d3-cd6b374d7823 {
        fill: #afaca3;
      }

      .a3b8d9d0-4579-4c1f-ba13-eee547435cfc {
        stroke: #afaca3;
        stroke-width: 1.45px;
      }

      .a2deda3e-a1ca-4dc5-9753-23728cf50784, .a3b8d9d0-4579-4c1f-ba13-eee547435cfc, .a833c206-738c-4c56-8e56-da7f1a1a1f05, .aa99c381-cb09-4c2f-973f-e18749f654e9, .aabeeac1-197e-40ce-8950-bc70269b5cfa, .abb0449c-a666-4af3-828f-a64a4f9bf666, .b40ba5bb-0031-483a-be8d-39254b5b0be8, .ba32ca5d-2a6a-4d83-a09f-6d3fc75da77a, .bb166826-b124-40cc-ad44-467efe8d6ac3, .bce15c6d-9c08-4b23-bee1-672c70e7355c, .bf4018e9-e9a0-4e7e-9e2c-2805235a4be1, .e09c2f01-cf01-4909-a734-cc3ebe3e3a4e, .e641ec4d-d96a-4104-9f12-b72a131bbf03, .eeee2756-16d9-4ea7-a4e8-81ae373f00f6, .f659ba9f-a3a0-4944-aa27-17266dacd30f {
        stroke-linecap: round;
      }

      .a2deda3e-a1ca-4dc5-9753-23728cf50784, .a3b8d9d0-4579-4c1f-ba13-eee547435cfc, .a833c206-738c-4c56-8e56-da7f1a1a1f05, .abb0449c-a666-4af3-828f-a64a4f9bf666, .ba32ca5d-2a6a-4d83-a09f-6d3fc75da77a, .bb166826-b124-40cc-ad44-467efe8d6ac3, .bce15c6d-9c08-4b23-bee1-672c70e7355c, .bf4018e9-e9a0-4e7e-9e2c-2805235a4be1, .e09c2f01-cf01-4909-a734-cc3ebe3e3a4e, .e641ec4d-d96a-4104-9f12-b72a131bbf03, .eeee2756-16d9-4ea7-a4e8-81ae373f00f6, .f659ba9f-a3a0-4944-aa27-17266dacd30f {
        stroke-linejoin: round;
      }

      .ffae5f24-0c3a-4bd4-8668-f91b3ea58e69 {
        fill: #77a9a2;
      }

      .a17072b6-038b-4762-92d7-06ec41794084, .bf4018e9-e9a0-4e7e-9e2c-2805235a4be1 {
        fill: #ea5736;
      }

      .b1300158-07ca-4724-9a8d-ebb15659d5ce, .b4a909ba-960b-43b4-ac38-56cb53ca5455 {
        fill: #3c5743;
      }

      .b1300158-07ca-4724-9a8d-ebb15659d5ce, .b1be504d-6d9e-4cbd-9c95-13b56d558eed {
        fill-rule: evenodd;
      }

      .aa99c381-cb09-4c2f-973f-e18749f654e9, .b16942f8-a7c2-4ab4-b506-b57a5f654b04, .bf4018e9-e9a0-4e7e-9e2c-2805235a4be1 {
        stroke: #ea5736;
      }

      .bf4018e9-e9a0-4e7e-9e2c-2805235a4be1 {
        stroke-width: 2.97px;
      }

      .bce15c6d-9c08-4b23-bee1-672c70e7355c {
        fill: #062837;
        stroke: #062837;
        stroke-width: 2.71px;
      }

      .abb0449c-a666-4af3-828f-a64a4f9bf666, .f659ba9f-a3a0-4944-aa27-17266dacd30f {
        stroke: #ede8db;
      }

      .abb0449c-a666-4af3-828f-a64a4f9bf666 {
        stroke-width: 1px;
      }

      .f659ba9f-a3a0-4944-aa27-17266dacd30f {
        stroke-width: 1.21px;
      }

      .a502c808-1aa9-4f64-90c9-67c9e584dd5f, .aa99c381-cb09-4c2f-973f-e18749f654e9, .aabeeac1-197e-40ce-8950-bc70269b5cfa, .b16942f8-a7c2-4ab4-b506-b57a5f654b04, .b40ba5bb-0031-483a-be8d-39254b5b0be8, .f797e363-07a1-4ac8-8ec9-836d1f1692a5, .fef204f0-148b-4dfb-a148-9d784e49577f {
        stroke-miterlimit: 10;
      }

      .b16942f8-a7c2-4ab4-b506-b57a5f654b04 {
        stroke-width: 11.14px;
      }

      .aa99c381-cb09-4c2f-973f-e18749f654e9 {
        stroke-width: 4.78px;
      }

      .eeee2756-16d9-4ea7-a4e8-81ae373f00f6 {
        fill: #aeaaa2;
        stroke: #aeaaa2;
      }

      .a2deda3e-a1ca-4dc5-9753-23728cf50784, .eeee2756-16d9-4ea7-a4e8-81ae373f00f6 {
        stroke-width: 2.52px;
      }

      .a833c206-738c-4c56-8e56-da7f1a1a1f05, .bb166826-b124-40cc-ad44-467efe8d6ac3, .e09c2f01-cf01-4909-a734-cc3ebe3e3a4e {
        fill: #ece8dc;
        stroke: #ece8dc;
      }

      .e09c2f01-cf01-4909-a734-cc3ebe3e3a4e {
        stroke-width: 2.07px;
      }

      .bb166826-b124-40cc-ad44-467efe8d6ac3 {
        stroke-width: 1.72px;
      }

      .a833c206-738c-4c56-8e56-da7f1a1a1f05 {
        stroke-width: 1.7px;
      }

      .ba32ca5d-2a6a-4d83-a09f-6d3fc75da77a, .e641ec4d-d96a-4104-9f12-b72a131bbf03 {
        fill: #062838;
        stroke: #062838;
      }

      .e641ec4d-d96a-4104-9f12-b72a131bbf03 {
        stroke-width: 2.73px;
      }

      .ba32ca5d-2a6a-4d83-a09f-6d3fc75da77a {
        stroke-width: 2.55px;
      }

      .a2deda3e-a1ca-4dc5-9753-23728cf50784 {
        fill: #868072;
        stroke: #868072;
      }

      .a1b780e5-7de2-4c4f-bab0-43e9ecfe952b {
        fill: #2e2d2c;
      }

      .f797e363-07a1-4ac8-8ec9-836d1f1692a5, .fd48dccb-c7d2-4b86-8a6d-a3415877810e, .fef204f0-148b-4dfb-a148-9d784e49577f {
        fill: #d4a455;
      }

      .f797e363-07a1-4ac8-8ec9-836d1f1692a5, .fef204f0-148b-4dfb-a148-9d784e49577f {
        stroke: #d4a455;
      }

      .fef204f0-148b-4dfb-a148-9d784e49577f {
        stroke-width: 2.84px;
      }

      .b19f29b6-3915-4947-9976-ea2a9c4efc15 {
        clip-path: url(#bfeb98f9-54b0-4829-8a02-d485b0b3630e);
      }

      .a6ba3954-1923-4de2-bf1a-711a93561d00 {
        fill: #30383b;
      }

      .b1be504d-6d9e-4cbd-9c95-13b56d558eed, .f99dd89c-7f71-4ee6-8b72-81b6d8fd0401 {
        fill: #fff;
      }

      .f797e363-07a1-4ac8-8ec9-836d1f1692a5 {
        stroke-width: 2.08px;
      }

      .bb71ccc9-6106-47c7-8d1e-341872b8f53e {
        fill: #002838;
      }

      .aabeeac1-197e-40ce-8950-bc70269b5cfa, .b40ba5bb-0031-483a-be8d-39254b5b0be8 {
        stroke: #d4a555;
      }

      .b40ba5bb-0031-483a-be8d-39254b5b0be8 {
        stroke-width: 15px;
      }

      .aabeeac1-197e-40ce-8950-bc70269b5cfa {
        stroke-width: 16.14px;
      }

      .a502c808-1aa9-4f64-90c9-67c9e584dd5f {
        stroke: #d5a655;
        stroke-width: 2.78px;
      }

      .b473d54b-5624-4e86-8d8c-209747c10597 {
        fill: #4d4d4c;
      }
    </style>
    <clipPath id="bfeb98f9-54b0-4829-8a02-d485b0b3630e">
      <rect class="a6c110b8-52e3-45c2-8808-87b9b048a9e6" x="101.24" y="221.84" width="12.33" height="6.64" rx="1.69"/>
    </clipPath>
  </defs>
  <rect class="f199f5a3-d766-40c4-a804-522f47f44ecc" x="-1.08" y="-99.39" width="465.11" height="2577.43"/>
  <rect class="b03be96f-3cec-4f20-aa03-2c8f13843074" x="-1" y="113.94" width="367.12" height="15.36"/>
  <g>
    <g>
      <rect class="f2bfb4c1-8484-47cf-be73-4ec449bd799a" x="201.32" y="47.1" width="129.79" height="45.35" rx="2.69" transform="translate(532.42 139.56) rotate(-180)"/>
      <polygon class="a3b8d9d0-4579-4c1f-ba13-eee547435cfc" points="333.39 48.4 198.48 48.4 234.46 14.74 292.46 14.74 333.39 48.4"/>
      <rect class="ffae5f24-0c3a-4bd4-8668-f91b3ea58e69" x="305.68" y="55.12" width="12.86" height="21.26" rx="1.14" transform="translate(624.22 131.51) rotate(-180)"/>
      <rect class="ffae5f24-0c3a-4bd4-8668-f91b3ea58e69" x="290.36" y="55.12" width="12.86" height="21.26" rx="1.14" transform="translate(593.57 131.51) rotate(-180)"/>
      <rect class="ffae5f24-0c3a-4bd4-8668-f91b3ea58e69" x="229.21" y="55.12" width="12.86" height="21.26" rx="1.14" transform="translate(471.28 131.51) rotate(-180)"/>
      <rect class="a17072b6-038b-4762-92d7-06ec41794084" x="256.11" y="55.12" width="18.71" height="37.33" rx="1.82" transform="translate(530.94 147.58) rotate(-180)"/>
      <rect class="bed3e6a5-73e5-4f06-b8d3-cd6b374d7823" x="250.77" y="88.19" width="29.27" height="4.26" rx="0.77" transform="translate(530.82 180.64) rotate(-180)"/>
      <rect class="ffae5f24-0c3a-4bd4-8668-f91b3ea58e69" x="213.88" y="55.12" width="12.86" height="21.26" rx="1.14" transform="translate(440.62 131.51) rotate(-180)"/>
    </g>
    <path class="b1300158-07ca-4724-9a8d-ebb15659d5ce" d="M220.7,92.14H190.2a7.67,7.67,0,0,1,4-5.52,4.78,4.78,0,0,1-.89-1.65,5,5,0,0,1,7.49-5.65,7.56,7.56,0,0,1,3.73-2.58,7.65,7.65,0,0,1,9.18,10.63A7.67,7.67,0,0,1,220.7,92.14Z"/>
  </g>
  <rect class="bf4018e9-e9a0-4e7e-9e2c-2805235a4be1" x="160.42" y="180.9" width="116.67" height="81.99"/>
  <polygon class="bce15c6d-9c08-4b23-bee1-672c70e7355c" points="271.97 139.94 263.34 139.94 263.34 120.76 248 120.76 248 139.94 218.75 139.94 165.53 139.94 151.63 175.42 218.75 175.42 285.88 175.42 271.97 139.94"/>
  <rect class="abb0449c-a666-4af3-828f-a64a4f9bf666" x="173.32" y="188.08" width="14.28" height="23.02"/>
  <rect class="abb0449c-a666-4af3-828f-a64a4f9bf666" x="211.61" y="188.08" width="14.28" height="23.02"/>
  <rect class="abb0449c-a666-4af3-828f-a64a4f9bf666" x="248.31" y="188.08" width="14.28" height="23.02"/>
  <rect class="abb0449c-a666-4af3-828f-a64a4f9bf666" x="173.32" y="228.97" width="14.28" height="23.02"/>
  <rect class="abb0449c-a666-4af3-828f-a64a4f9bf666" x="248.31" y="228.97" width="14.28" height="23.02"/>
  <rect class="f659ba9f-a3a0-4944-aa27-17266dacd30f" x="211.61" y="228.97" width="14.28" height="33.92"/>
  <g>
    <g>
      <rect class="f2bfb4c1-8484-47cf-be73-4ec449bd799a" x="44.85" y="47.04" width="129.79" height="45.35" rx="2.69" transform="translate(219.5 139.44) rotate(-180)"/>
      <polygon class="a3b8d9d0-4579-4c1f-ba13-eee547435cfc" points="176.92 48.34 42.02 48.34 77.99 14.69 136 14.69 176.92 48.34"/>
      <rect class="ffae5f24-0c3a-4bd4-8668-f91b3ea58e69" x="149.22" y="55.07" width="12.86" height="21.26" rx="1.14" transform="translate(311.3 131.39) rotate(-180)"/>
      <rect class="ffae5f24-0c3a-4bd4-8668-f91b3ea58e69" x="133.89" y="55.07" width="12.86" height="21.26" rx="1.14" transform="translate(280.64 131.39) rotate(-180)"/>
      <rect class="ffae5f24-0c3a-4bd4-8668-f91b3ea58e69" x="72.75" y="55.07" width="12.86" height="21.26" rx="1.14" transform="translate(158.35 131.39) rotate(-180)"/>
      <rect class="a17072b6-038b-4762-92d7-06ec41794084" x="99.65" y="55.07" width="18.71" height="37.33" rx="1.82" transform="translate(218.01 147.46) rotate(-180)"/>
      <rect class="bed3e6a5-73e5-4f06-b8d3-cd6b374d7823" x="94.31" y="88.13" width="29.27" height="4.26" rx="0.77" transform="translate(217.89 180.53) rotate(-180)"/>
      <rect class="ffae5f24-0c3a-4bd4-8668-f91b3ea58e69" x="57.42" y="55.07" width="12.86" height="21.26" rx="1.14" transform="translate(127.7 131.39) rotate(-180)"/>
    </g>
    <path class="b1300158-07ca-4724-9a8d-ebb15659d5ce" d="M64.23,92.08H33.73a7.71,7.71,0,0,1,4-5.52,5,5,0,0,1,6.6-7.3,7.65,7.65,0,0,1,13.32,2.42,7.58,7.58,0,0,1-.42,5.63A7.65,7.65,0,0,1,64.23,92.08Z"/>
  </g>
  <g>
    <line class="b16942f8-a7c2-4ab4-b506-b57a5f654b04" x1="62.95" y1="174.51" x2="62.95" y2="92"/>
    <path class="aa99c381-cb09-4c2f-973f-e18749f654e9" d="M41.72,97.3S43.63,118.64,63,126.42"/>
    <path class="ffae5f24-0c3a-4bd4-8668-f91b3ea58e69" d="M83.84,89.08S81.31,114.22,63,114.22"/>
    <circle class="ffae5f24-0c3a-4bd4-8668-f91b3ea58e69" cx="87.25" cy="85.82" r="16.59"/>
    <circle class="ffae5f24-0c3a-4bd4-8668-f91b3ea58e69" cx="98.88" cy="40.79" r="16.59"/>
    <circle class="ffae5f24-0c3a-4bd4-8668-f91b3ea58e69" cx="30.13" cy="42.43" r="19.83"/>
    <circle class="ffae5f24-0c3a-4bd4-8668-f91b3ea58e69" cx="61.34" cy="90.69" r="12.93"/>
    <circle class="ffae5f24-0c3a-4bd4-8668-f91b3ea58e69" cx="103.85" cy="67.75" r="21.35"/>
    <circle class="ffae5f24-0c3a-4bd4-8668-f91b3ea58e69" cx="19.53" cy="67.75" r="19.1"/>
    <circle class="ffae5f24-0c3a-4bd4-8668-f91b3ea58e69" cx="54.44" cy="31.03" r="28.46"/>
    <circle class="ffae5f24-0c3a-4bd4-8668-f91b3ea58e69" cx="75.69" cy="35.08" r="22.74"/>
    <circle class="ffae5f24-0c3a-4bd4-8668-f91b3ea58e69" cx="59.03" cy="63.54" r="28.46"/>
    <circle class="ffae5f24-0c3a-4bd4-8668-f91b3ea58e69" cx="38.34" cy="85.82" r="16.56"/>
  </g>
  <rect class="b03be96f-3cec-4f20-aa03-2c8f13843074" x="-1.38" y="314.84" width="367.12" height="26.74"/>
  <rect class="bf4018e9-e9a0-4e7e-9e2c-2805235a4be1" x="22.44" y="180.9" width="116.67" height="81.99"/>
  <polygon class="bce15c6d-9c08-4b23-bee1-672c70e7355c" points="133.99 139.94 125.36 139.94 125.36 120.76 110.02 120.76 110.02 139.94 80.77 139.94 27.55 139.94 13.65 175.42 80.77 175.42 147.9 175.42 133.99 139.94"/>
  <rect class="abb0449c-a666-4af3-828f-a64a4f9bf666" x="35.34" y="188.08" width="14.28" height="23.02"/>
  <rect class="abb0449c-a666-4af3-828f-a64a4f9bf666" x="73.63" y="188.08" width="14.28" height="23.02"/>
  <rect class="abb0449c-a666-4af3-828f-a64a4f9bf666" x="110.33" y="188.08" width="14.28" height="23.02"/>
  <rect class="abb0449c-a666-4af3-828f-a64a4f9bf666" x="35.34" y="228.97" width="14.28" height="23.02"/>
  <polygon class="b4a909ba-960b-43b4-ac38-56cb53ca5455" points="331.5 728.91 464.03 728.91 465.11 -3.17 416.3 75.68 331.5 428.02 314.2 704.21 331.5 728.91"/>
  <rect class="abb0449c-a666-4af3-828f-a64a4f9bf666" x="110.33" y="228.97" width="14.28" height="23.02"/>
  <rect class="f659ba9f-a3a0-4944-aa27-17266dacd30f" x="73.63" y="228.97" width="14.28" height="33.92"/>
  <path class="b03be96f-3cec-4f20-aa03-2c8f13843074" d="M331.5,728.91c53.83-71.32,55.07-153.11,57.92-242s-4.91-178.68,10-266.43S456.46,43.92,534.28-.84l-81.11.3C373.23,40.4,326.7,127,307.49,214s-15.9,176.94-23.16,265.62S257.26,660.07,200,728.71Z"/>
  <g>
    <rect class="eeee2756-16d9-4ea7-a4e8-81ae373f00f6" x="27.24" y="341.95" width="241.17" height="153.17"/>
    <rect class="e09c2f01-cf01-4909-a734-cc3ebe3e3a4e" x="54.07" y="364.79" width="29.72" height="29.72"/>
    <rect class="e09c2f01-cf01-4909-a734-cc3ebe3e3a4e" x="93.1" y="364.79" width="29.72" height="29.72"/>
    <rect class="e09c2f01-cf01-4909-a734-cc3ebe3e3a4e" x="172.82" y="364.79" width="29.72" height="29.72"/>
    <rect class="e09c2f01-cf01-4909-a734-cc3ebe3e3a4e" x="211.85" y="364.79" width="29.72" height="29.72"/>
    <rect class="a17072b6-038b-4762-92d7-06ec41794084" x="54.07" y="434.1" width="29.72" height="61.02"/>
    <rect class="bb166826-b124-40cc-ad44-467efe8d6ac3" x="99.9" y="434.1" width="20.59" height="29.72"/>
    <rect class="a833c206-738c-4c56-8e56-da7f1a1a1f05" x="175.16" y="434.1" width="19.98" height="29.72"/>
    <rect class="a17072b6-038b-4762-92d7-06ec41794084" x="211.85" y="434.1" width="29.72" height="61.02"/>
    <polygon class="e641ec4d-d96a-4104-9f12-b72a131bbf03" points="21.22 345.45 274.57 345.45 262.71 282.25 33.08 282.25 21.22 345.45"/>
    <polygon class="ba32ca5d-2a6a-4d83-a09f-6d3fc75da77a" points="89.62 438.44 47.57 438.44 52.24 406.31 86.11 406.31 89.62 438.44"/>
    <polygon class="ba32ca5d-2a6a-4d83-a09f-6d3fc75da77a" points="247.6 438.44 205.55 438.44 210.22 406.31 244.1 406.31 247.6 438.44"/>
    <rect class="a2deda3e-a1ca-4dc5-9753-23728cf50784" x="40.53" y="486.62" width="52.56" height="8.49"/>
    <rect class="a2deda3e-a1ca-4dc5-9753-23728cf50784" x="200.28" y="486.62" width="52.56" height="8.49"/>
  </g>
  <rect class="b03be96f-3cec-4f20-aa03-2c8f13843074" y="517.67" width="367.12" height="47.23"/>
  <g>
    <g>
      <path class="a1b780e5-7de2-4c4f-bab0-43e9ecfe952b" d="M175.15,196.85s16,51.58,7.6,114.77h-53V188.42Z"/>
      <path class="a1b780e5-7de2-4c4f-bab0-43e9ecfe952b" d="M183.61,312.61H128.76V187.24L175.92,196l.17.57c.16.51,15.93,52.51,7.64,115.19Zm-52.89-2h51.17c7.53-58.36-5.84-107.17-7.51-112.94l-43.66-8.09Z"/>
    </g>
    <g>
      <path class="a1b780e5-7de2-4c4f-bab0-43e9ecfe952b" d="M86.32,196.85s-16,51.58-7.6,114.77h53V188.42Z"/>
      <path class="a1b780e5-7de2-4c4f-bab0-43e9ecfe952b" d="M132.71,312.61H77.86l-.12-.86c-8.29-62.68,7.48-114.68,7.64-115.19l.18-.57,47.15-8.75Zm-53.13-2h51.17v-121L87.09,197.7C85.42,203.47,72.05,252.28,79.58,310.64Z"/>
    </g>
    <rect class="fef204f0-148b-4dfb-a148-9d784e49577f" x="84.54" y="163.35" width="92.46" height="125.25" rx="39.9"/>
    <rect class="f199f5a3-d766-40c4-a804-522f47f44ecc" x="101.24" y="221.84" width="12.33" height="6.64" rx="1.69"/>
    <rect class="f199f5a3-d766-40c4-a804-522f47f44ecc" x="147.97" y="221.84" width="12.33" height="6.64" rx="1.69"/>
    <circle class="a1b780e5-7de2-4c4f-bab0-43e9ecfe952b" cx="154.13" cy="225.16" r="2.64"/>
    <path class="a1b780e5-7de2-4c4f-bab0-43e9ecfe952b" d="M111.49,213.88H101.24a3,3,0,0,1,0-5.9h10.25a2.95,2.95,0,1,1,0,5.9Z"/>
    <path class="a1b780e5-7de2-4c4f-bab0-43e9ecfe952b" d="M160,213.88H149.7a2.95,2.95,0,1,1,0-5.9H160a2.95,2.95,0,1,1,0,5.9Z"/>
    <g class="b19f29b6-3915-4947-9976-ea2a9c4efc15">
      <circle class="a1b780e5-7de2-4c4f-bab0-43e9ecfe952b" cx="107.41" cy="225.16" r="2.59"/>
    </g>
    <path class="a6ba3954-1923-4de2-bf1a-711a93561d00" d="M130.77,265.86c-3.23,0-10.8,0-19.32-7.42a2,2,0,1,1,2.59-3c7.41,6.46,13.94,6.46,16.73,6.46s9.32,0,16.73-6.46a2,2,0,0,1,2.58,3C141.56,265.86,134,265.86,130.77,265.86Z"/>
    <path class="a6ba3954-1923-4de2-bf1a-711a93561d00" d="M134.91,242.16h-3.77a4.41,4.41,0,0,1-4.55-4.52V234a2,2,0,1,1,3.93,0v3.66c0,.58.32.58.62.58h3.77a2,2,0,0,1,0,3.94Z"/>
    <g>
      <path class="a1b780e5-7de2-4c4f-bab0-43e9ecfe952b" d="M131.08,160.22l.74,35.78H172.9l8.21,41.12V210.55A50.33,50.33,0,0,0,131.08,160.22Z"/>
      <path class="a1b780e5-7de2-4c4f-bab0-43e9ecfe952b" d="M180.06,237.33l-8-40.26H130.77L130,159.14h1.1a51.53,51.53,0,0,1,51.09,51.4v26.57Zm-47.19-42.41h40.91L180,226.29V210.55a49.38,49.38,0,0,0-47.86-49.24Z"/>
    </g>
    <g>
      <path class="a1b780e5-7de2-4c4f-bab0-43e9ecfe952b" d="M130.45,160.22,129.72,196H88.64l-8.22,41.12V210.55A50.34,50.34,0,0,1,130.45,160.22Z"/>
      <path class="a1b780e5-7de2-4c4f-bab0-43e9ecfe952b" d="M81.47,237.33l-2.12-.21V210.55a51.53,51.53,0,0,1,51.1-51.4h1.1l-.78,37.93H89.52Zm47.89-76A49.38,49.38,0,0,0,81.5,210.55v15.74l6.26-31.37h40.91Z"/>
    </g>
    <g>
      <path class="a1b780e5-7de2-4c4f-bab0-43e9ecfe952b" d="M93.23,197.28s-2,70.82,3.19,109.18c1.23,2-9.34,1.72-9.34,1.72l-8.12-60,10.82-55.57Z"/>
      <path class="a1b780e5-7de2-4c4f-bab0-43e9ecfe952b" d="M88.7,309.18c-.56,0-1.11,0-1.64,0h-.84l-8.25-61,0-.16,11.25-57.77,5,6.75v.34c0,.7-1.9,71,3.17,108.85a1.44,1.44,0,0,1-.06,1.31C96.53,308.84,92.5,309.18,88.7,309.18Zm-.76-2c3.37,0,6.53-.25,7.5-.67-4.92-36.65-3.34-103.58-3.21-109L90.32,195,80,248.21Z"/>
    </g>
    <g>
      <path class="a1b780e5-7de2-4c4f-bab0-43e9ecfe952b" d="M168.25,197.28s2,70.82-3.2,109.18c-1.23,2,9.34,1.72,9.34,1.72l8.12-60-10.82-55.57Z"/>
      <path class="a1b780e5-7de2-4c4f-bab0-43e9ecfe952b" d="M172.77,309.18c-3.8,0-7.83-.34-8.62-1.71a1.41,1.41,0,0,1-.05-1.31c5.06-37.88,3.18-108.15,3.16-108.85V197l5-6.75,11.28,57.93,0,.16-8.23,60.84h-.83C173.88,309.18,173.33,309.18,172.77,309.18ZM166,306.55c1,.44,4.41.66,7.5.66l8-59L171.15,195l-1.91,2.59C169.37,203,171,269.89,166,306.55Z"/>
    </g>
    <path class="fef204f0-148b-4dfb-a148-9d784e49577f" d="M132.41,332.17a11.81,11.81,0,0,1-11.81-11.8V281a11.81,11.81,0,0,1,23.61,0v39.35A11.8,11.8,0,0,1,132.41,332.17Z"/>
    <path class="f99dd89c-7f71-4ee6-8b72-81b6d8fd0401" d="M150.76,314.82a2.13,2.13,0,0,0-2.31,1.75,16.94,16.94,0,0,1-33.47-.1,2.11,2.11,0,0,0-2.09-1.75h0A25.92,25.92,0,0,0,87,340.65V429a25.91,25.91,0,0,0,25.92,25.92h35.67A25.91,25.91,0,0,0,174.48,429V340.65A25.91,25.91,0,0,0,150.76,314.82Z"/>
    <path class="f797e363-07a1-4ac8-8ec9-836d1f1692a5" d="M132.18,333.52c9.08,0,16.48-7.64,16.92-17.24H115.25C115.69,325.88,123.09,333.52,132.18,333.52Z"/>
    <rect class="bb71ccc9-6106-47c7-8d1e-341872b8f53e" x="86.29" y="417.47" width="89.18" height="41.69"/>
    <rect class="bb71ccc9-6106-47c7-8d1e-341872b8f53e" x="86.29" y="444.42" width="89.18" height="32.06" rx="15.16"/>
    <rect class="fd48dccb-c7d2-4b86-8a6d-a3415877810e" x="162.72" y="646.62" width="14.26" height="7.24"/>
    <rect class="fd48dccb-c7d2-4b86-8a6d-a3415877810e" x="84.72" y="646.62" width="14.26" height="7.24"/>
    <path class="bb71ccc9-6106-47c7-8d1e-341872b8f53e" d="M101.77,647.31H79c0-91.9,8.61-175,9.27-178.47l36.15,7C124.23,476.68,101.77,559.1,101.77,647.31Z"/>
    <path class="bb71ccc9-6106-47c7-8d1e-341872b8f53e" d="M182.05,647.31h-22.8c0-88.37-22.47-170.63-22.62-171.45l36.15-7C173.44,472.34,182.05,555.41,182.05,647.31Z"/>
    <rect class="fd48dccb-c7d2-4b86-8a6d-a3415877810e" x="201.57" y="197.89" width="20.18" height="20.18" rx="2.83" transform="translate(403.98 433.96) rotate(-174.89)"/>
    <path class="b40ba5bb-0031-483a-be8d-39254b5b0be8" d="M95.06,332.51c-5.37,28-7,42.68-9.18,71.81-.6,8.27-1.18,16.72-.22,24.89C87,440.14,91.14,450,96.82,455.46"/>
    <rect class="fd48dccb-c7d2-4b86-8a6d-a3415877810e" x="93.06" y="449.07" width="20.18" height="20.18" rx="2.83" transform="translate(260.8 15.75) rotate(32.23)"/>
    <path class="f99dd89c-7f71-4ee6-8b72-81b6d8fd0401" d="M82.37,339.88c0-6.88,3.31-13.1,8.66-17.61A32.51,32.51,0,0,1,112,315v24.9Z"/>
    <path class="bb71ccc9-6106-47c7-8d1e-341872b8f53e" d="M77.3,665.51a14.51,14.51,0,0,1,29,0"/>
    <path class="bb71ccc9-6106-47c7-8d1e-341872b8f53e" d="M155.3,665.51a14.51,14.51,0,0,1,29,0"/>
    <rect class="a17072b6-038b-4762-92d7-06ec41794084" x="77.3" y="665.51" width="29.02" height="6.04"/>
    <rect class="a17072b6-038b-4762-92d7-06ec41794084" x="155.3" y="665.51" width="29.02" height="6.04"/>
    <path class="aabeeac1-197e-40ce-8950-bc70269b5cfa" d="M209.29,188.73c-2.71,32.86-5.21,49.72-11.34,82.78-1.74,9.39-3.55,19-6.78,27.73-4.31,11.73-11.08,21.3-18.07,25.55"/>
    <rect class="f99dd89c-7f71-4ee6-8b72-81b6d8fd0401" x="161.05" y="336.53" width="13.44" height="44.95"/>
    <path class="f99dd89c-7f71-4ee6-8b72-81b6d8fd0401" d="M175.13,345c-.48,5.89-.19,11.86-1.14,17.69A116,116,0,0,0,158.38,346a107.91,107.91,0,0,1,14.33-14.66c1.16-1,3.54-3.14,5.24-2.85,2.78.46.79,2.71.06,4.26A35.34,35.34,0,0,0,175.13,345Z"/>
  </g>
  <g>
    <line class="a502c808-1aa9-4f64-90c9-67c9e584dd5f" x1="365.23" y1="78.75" x2="365.23" y2="46.43"/>
    <path class="a502c808-1aa9-4f64-90c9-67c9e584dd5f" d="M356.91,48.51s.75,8.36,8.32,11.41"/>
    <circle class="ffae5f24-0c3a-4bd4-8668-f91b3ea58e69" cx="374.75" cy="44.01" r="6.5"/>
    <circle class="ffae5f24-0c3a-4bd4-8668-f91b3ea58e69" cx="379.3" cy="26.38" r="6.5"/>
    <circle class="ffae5f24-0c3a-4bd4-8668-f91b3ea58e69" cx="352.37" cy="27.02" r="7.77"/>
    <circle class="ffae5f24-0c3a-4bd4-8668-f91b3ea58e69" cx="364.6" cy="45.92" r="5.07"/>
    <circle class="ffae5f24-0c3a-4bd4-8668-f91b3ea58e69" cx="381.25" cy="36.94" r="8.36"/>
    <circle class="ffae5f24-0c3a-4bd4-8668-f91b3ea58e69" cx="348.22" cy="36.94" r="7.48"/>
    <circle class="ffae5f24-0c3a-4bd4-8668-f91b3ea58e69" cx="361.89" cy="22.55" r="11.15"/>
    <circle class="ffae5f24-0c3a-4bd4-8668-f91b3ea58e69" cx="370.22" cy="24.14" r="8.91"/>
    <circle class="ffae5f24-0c3a-4bd4-8668-f91b3ea58e69" cx="363.69" cy="35.29" r="11.15"/>
    <circle class="ffae5f24-0c3a-4bd4-8668-f91b3ea58e69" cx="355.58" cy="44.01" r="6.49"/>
  </g>
  <g>
    
    <g id="click-me">
      <path class="f199f5a3-d766-40c4-a804-522f47f44ecc" d="M246.69,70.15l4.8,12.67,4-8.7a.57.57,0,0,1,.49-.29.59.59,0,0,1,.52.33l3.4,9,5.69-12.29a.51.51,0,0,1,.7-.23.5.5,0,0,1,.23.68l-6.19,13.35a.58.58,0,0,1-.44.32h-.1a.43.43,0,0,1-.25-.09s-.06,0-.08-.09a.74.74,0,0,1-.08-.13.07.07,0,0,0,0-.06l-3.42-9-4.07,8.74a.15.15,0,0,1,0,.1.45.45,0,0,1-.11.15.08.08,0,0,0-.05,0,.48.48,0,0,1-.29.07.57.57,0,0,1-.32-.12l0,0,0,0a.44.44,0,0,1-.11-.26l-5.19-13.67a.49.49,0,0,1,.28-.66A.5.5,0,0,1,246.69,70.15Z"/>
      <g>
      <path class="a17072b6-038b-4762-92d7-06ec41794084" d="M231.38,51.14l154.44,5.49a10.13,10.13,0,0,1,9.76,10.48L392.81,145l-164.56-5.85Z"/>
      <rect class="b473d54b-5624-4e86-8d8c-209747c10597" x="210.17" y="47.44" width="12.75" height="623.23" rx="2.41" transform="translate(12.9 -7.47) rotate(2.04)"/>
      <g>
        
        <path class="f199f5a3-d766-40c4-a804-522f47f44ecc" d="M267,80.08a5.09,5.09,0,0,1,5.18-5,5,5,0,0,1,4.78,5v.09a.48.48,0,0,1-.52.44l-8.43-.3a4,4,0,0,0,3.84,4.09,3.85,3.85,0,0,0,3.38-1.75.48.48,0,0,1,.68-.14.51.51,0,0,1,.14.71,4.89,4.89,0,0,1-4.23,2.19A5.07,5.07,0,0,1,267,80.08Zm1.1-.78,7.79.28a4,4,0,0,0-3.74-3.48A4,4,0,0,0,268.13,79.3Z"/>
        <path class="f199f5a3-d766-40c4-a804-522f47f44ecc" d="M281,71.5a.52.52,0,0,1,.52-.49.52.52,0,0,1,.51.53l-.49,13.68a.52.52,0,0,1-1,0Z"/>
        <path class="f199f5a3-d766-40c4-a804-522f47f44ecc" d="M285,80.68a5.17,5.17,0,0,1,5.47-4.93A5.32,5.32,0,0,1,293.75,77a.48.48,0,0,1,0,.7.52.52,0,0,1-.69.06,4.3,4.3,0,0,0-2.61-1,4.15,4.15,0,1,0-.3,8.29,4.32,4.32,0,0,0,2.68-.81.52.52,0,0,1,.69.11.5.5,0,0,1-.13.73,5.36,5.36,0,0,1-3.27,1A5.2,5.2,0,0,1,285,80.68Z"/>
        <path class="f199f5a3-d766-40c4-a804-522f47f44ecc" d="M302,76.15a5.16,5.16,0,1,1-5.05,5A5,5,0,0,1,302,76.15Zm-.33,9.28A4.16,4.16,0,1,0,298,81.16,4,4,0,0,0,301.68,85.43Z"/>
        <path class="f199f5a3-d766-40c4-a804-522f47f44ecc" d="M325.3,81.18A3.18,3.18,0,1,0,319,81l-.2,5.6v.06a.12.12,0,0,1,0,0v0a.55.55,0,0,1-.26.26.48.48,0,0,1-.26,0h-.1a.07.07,0,0,1,0,0s-.08,0-.13-.07,0,0-.06,0l-.06-.07s0,0,0,0,0,0,0,0a.08.08,0,0,0,0,0,.07.07,0,0,0,0-.06v-.11l.2-5.6a3.17,3.17,0,1,0-6.34-.22l-.2,5.6a.43.43,0,0,1-.24.39.31.31,0,0,1-.13.06s-.05,0-.09,0h-.12a.56.56,0,0,1-.41-.39v-.11l.19-5.6v-.17l.13-3.52a.49.49,0,0,1,1,0l0,1a4.1,4.1,0,0,1,3.22-1.36A4.18,4.18,0,0,1,318.49,79a4.24,4.24,0,0,1,3.77-2,4.17,4.17,0,0,1,4,4.32l-.2,5.6a.5.5,0,0,1-1,0Z"/>
        <path class="f199f5a3-d766-40c4-a804-522f47f44ecc" d="M329.78,82.31a5.08,5.08,0,0,1,5.18-5,5,5,0,0,1,4.78,5v.08a.48.48,0,0,1-.52.44l-8.43-.3a4,4,0,0,0,3.84,4.09A3.86,3.86,0,0,0,338,84.85a.48.48,0,0,1,.68-.14.53.53,0,0,1,.14.72,4.9,4.9,0,0,1-4.23,2.18A5.07,5.07,0,0,1,329.78,82.31Zm1.1-.78,7.79.28a3.94,3.94,0,0,0-7.79-.28Z"/>
        <path class="f199f5a3-d766-40c4-a804-522f47f44ecc" d="M249.08,93.79a.54.54,0,0,1-.52.48l-1.32,0-.27,7.49a.81.81,0,0,0,.73.78.59.59,0,0,1,.51.54.57.57,0,0,1-.54.49,1.75,1.75,0,0,1-1.74-1.85l.26-7.49-1.28,0c-.5,0-.49-.27-.48-.52s0-.5.52-.48l1.28,0,.13-3.82a.54.54,0,0,1,.53-.48.56.56,0,0,1,.52.52l-.13,3.82,1.32,0A.54.54,0,0,1,249.08,93.79Z"/>
        <path class="f199f5a3-d766-40c4-a804-522f47f44ecc" d="M258,93.6a5.15,5.15,0,1,1-5.05,5A5,5,0,0,1,258,93.6Zm-.33,9.27a4.15,4.15,0,1,0-3.71-4.27A4,4,0,0,0,257.65,102.87Z"/>
        <path class="f199f5a3-d766-40c4-a804-522f47f44ecc" d="M277.39,94.29a5.15,5.15,0,1,1-5.05,5A5,5,0,0,1,277.39,94.29Zm-.33,9.27a4.15,4.15,0,1,0-3.71-4.27A4,4,0,0,0,277.06,103.56Z"/>
        <path class="f199f5a3-d766-40c4-a804-522f47f44ecc" d="M285.56,95.06a.5.5,0,0,1,.52-.48.5.5,0,0,1,.49.52l-.2,5.6a3.17,3.17,0,1,0,6.33.23l.2-5.6a.51.51,0,0,1,.53-.49.5.5,0,0,1,.5.52l-.2,5.6a4.19,4.19,0,1,1-8.37-.29Z"/>
        <path class="f199f5a3-d766-40c4-a804-522f47f44ecc" d="M298.63,95.57a.5.5,0,0,1,.55-.48.49.49,0,0,1,.46.52l-.08,2.26a1.67,1.67,0,0,1,.16-.24,4.93,4.93,0,0,1,4.2-2.37.49.49,0,0,1,.48.52.51.51,0,0,1-.52.48,3.72,3.72,0,0,0-3,1.58,9.24,9.24,0,0,0-1.32,2.34.3.3,0,0,0,0,.17l-.16,4.51a.5.5,0,0,1-.5.49.51.51,0,0,1-.51-.53Z"/>
        <path class="f199f5a3-d766-40c4-a804-522f47f44ecc" d="M322.73,105a1.14,1.14,0,0,1-1.19,1.12l-7.43-.27h0a1.12,1.12,0,0,1-.85-.41,1.15,1.15,0,0,1,.12-1.63l6.41-5.41a2.62,2.62,0,0,0,1-2,2.76,2.76,0,0,0-.63-1.85,2.68,2.68,0,0,0-2-1,2.72,2.72,0,0,0-1.85.63l-.68.56a1.14,1.14,0,0,1-1.63-.14,1.17,1.17,0,0,1,.14-1.64l.67-.56a5,5,0,0,1,3.43-1.18,5,5,0,0,1,3.67,1.79A4.92,4.92,0,0,1,323,96.54a5,5,0,0,1-1.79,3.68l-4.09,3.45,4.47.16A1.14,1.14,0,0,1,322.73,105Z"/>
        <path class="f199f5a3-d766-40c4-a804-522f47f44ecc" d="M325.85,99a8.94,8.94,0,0,1,1.61-5,4.41,4.41,0,0,1,7.78.28,8.9,8.9,0,0,1,1.23,5.06,9.07,9.07,0,0,1-1.59,5,4.42,4.42,0,0,1-7.78-.28A9,9,0,0,1,325.85,99Zm8.29.29a7,7,0,0,0-.88-3.77,2.42,2.42,0,0,0-1.9-1.35,2.54,2.54,0,0,0-2,1.21,7.41,7.41,0,0,0-.27,7.45,2.57,2.57,0,0,0,1.95,1.37,2.48,2.48,0,0,0,2-1.23A6.86,6.86,0,0,0,334.14,99.25Z"/>
        <path class="f199f5a3-d766-40c4-a804-522f47f44ecc" d="M345.23,93.45l-.44,12.38a1.17,1.17,0,0,1-1.22,1.11,1.14,1.14,0,0,1-1.11-1.2l.37-10.32-.86.45a1,1,0,0,1-.59.15,1.17,1.17,0,0,1-.53-2.18l2.63-1.44s.07,0,.09,0,.06,0,.1-.06l.13,0a.09.09,0,0,1,.09,0,.34.34,0,0,1,.14,0h.23a.15.15,0,0,0,.09,0c.06,0,.08,0,.12,0a.16.16,0,0,1,.09,0c.06.05.08.07.12.07l.08.07.08.06s.06.07.08.09a.28.28,0,0,1,.06.08l.08.09,0,0s0,.05,0,.07,0,.06,0,.1,0,.09,0,.11,0,.09,0,.11a.14.14,0,0,0,0,.14Z"/>
        <path class="f199f5a3-d766-40c4-a804-522f47f44ecc" d="M347.78,97.47A5.09,5.09,0,0,1,358,97.3s0,0,0,0c0,.4,0,.79,0,1.19a12.18,12.18,0,0,1-.89,4.28,7.29,7.29,0,0,1-2.83,3.49,6,6,0,0,1-3.18.88,1.18,1.18,0,0,1-1.18-1.16,1.22,1.22,0,0,1,1.18-1.18,3.89,3.89,0,0,0,2-.51,4.28,4.28,0,0,0,1.37-1.43c.11-.16.2-.35.3-.53a5.09,5.09,0,0,1-7-4.91Zm2.33.08a2.76,2.76,0,1,0,5.52.2,2.76,2.76,0,0,0-5.52-.2Z"/>
        <path class="f199f5a3-d766-40c4-a804-522f47f44ecc" d="M253.44,113l-.33,9.27a.51.51,0,0,1-.52.48.5.5,0,0,1-.48-.52l0-1.53a4.77,4.77,0,0,1-3.93,1.9,5.15,5.15,0,0,1,.36-10.28,4.76,4.76,0,0,1,3.79,2.15l.06-1.51a.5.5,0,1,1,1,0Zm-1.17,4.6a3.87,3.87,0,1,0-4,4A4,4,0,0,0,252.27,117.56Z"/>
        <path class="f199f5a3-d766-40c4-a804-522f47f44ecc" d="M264.82,117.06a3.17,3.17,0,0,0-3.06-3.28,3.21,3.21,0,0,0-3.3,3l-.2,5.58v.09a.39.39,0,0,1-.11.22.45.45,0,0,1-.38.18h-.13a.5.5,0,0,1-.32-.28s0,0,0-.06a.08.08,0,0,0,0,0v-.12l.2-5.58v-.17l.12-3.51a.5.5,0,1,1,1,0l0,1a4.14,4.14,0,0,1,3.24-1.38,4.19,4.19,0,0,1,4,4.32l-.2,5.58a.5.5,0,1,1-1,0Z"/>
        <path class="f199f5a3-d766-40c4-a804-522f47f44ecc" d="M277.68,117.51a3.17,3.17,0,0,0-3.06-3.28,3.23,3.23,0,0,0-3.3,3.06l-.2,5.58V123a.45.45,0,0,1-.11.23.48.48,0,0,1-.39.18h-.12a.55.55,0,0,1-.33-.28.1.1,0,0,1,0-.07.07.07,0,0,0,0,0v-.13l.19-5.58v-.16l.12-3.51a.5.5,0,0,1,.53-.48.49.49,0,0,1,.46.52l0,1a4.18,4.18,0,0,1,7.27,3l-.2,5.58a.51.51,0,0,1-1,0Z"/>
        <path class="f199f5a3-d766-40c4-a804-522f47f44ecc" d="M283.12,114a.51.51,0,1,1,1,0l-.2,5.6a3.17,3.17,0,1,0,6.34.22l.2-5.6a.5.5,0,0,1,.52-.48.49.49,0,0,1,.5.52l-.2,5.6a4.19,4.19,0,1,1-8.37-.3Z"/>
        <path class="f199f5a3-d766-40c4-a804-522f47f44ecc" d="M304.82,114.78l-.33,9.28a.51.51,0,0,1-1,0l.06-1.53a4.85,4.85,0,0,1-3.94,1.9,5.15,5.15,0,0,1,.37-10.28,4.77,4.77,0,0,1,3.79,2.15l.05-1.51a.51.51,0,1,1,1,0Zm-1.17,4.6a3.88,3.88,0,1,0-4,4A4,4,0,0,0,303.65,119.38Z"/>
        <path class="f199f5a3-d766-40c4-a804-522f47f44ecc" d="M309.78,110.55a.52.52,0,0,1,1,0l-.49,13.68a.51.51,0,0,1-1,0Z"/>
        <path class="f199f5a3-d766-40c4-a804-522f47f44ecc" d="M321,115.38a.51.51,0,1,1,1,0l-.08,2.26a2.36,2.36,0,0,1,.15-.25,5,5,0,0,1,4.2-2.37.5.5,0,0,1,.49.52.51.51,0,0,1-.52.49,3.71,3.71,0,0,0-3,1.57,9.11,9.11,0,0,0-1.32,2.35.28.28,0,0,0-.05.17l-.16,4.51a.49.49,0,0,1-.5.48.5.5,0,0,1-.51-.52Z"/>
        <path class="f199f5a3-d766-40c4-a804-522f47f44ecc" d="M328.27,120.28a5,5,0,0,1,10,0v.08a.48.48,0,0,1-.52.44l-8.43-.3a4,4,0,0,0,3.84,4.09,3.85,3.85,0,0,0,3.38-1.75.48.48,0,0,1,.68-.14.53.53,0,0,1,.14.72,4.9,4.9,0,0,1-4.23,2.18A5.06,5.06,0,0,1,328.27,120.28Zm1.09-.78,7.79.28a4,4,0,0,0-3.74-3.48A4,4,0,0,0,329.36,119.5Z"/>
        <path class="f199f5a3-d766-40c4-a804-522f47f44ecc" d="M341.78,120.91v-.42l.16-4.39a.5.5,0,0,1,.52-.48.51.51,0,0,1,.5.52l-.05,1.49a4.88,4.88,0,0,1,4-1.85,5.11,5.11,0,0,1-.37,10.21,4.81,4.81,0,0,1-3.83-2.15l-.21,5.88a.52.52,0,0,1-1,0Zm1-.18a3.93,3.93,0,1,0,7.85.28,3.93,3.93,0,1,0-7.84-.44Z"/>
        <path class="f199f5a3-d766-40c4-a804-522f47f44ecc" d="M360.2,116.25a5.15,5.15,0,1,1-5.05,5A5,5,0,0,1,360.2,116.25Zm-.33,9.27a4.16,4.16,0,1,0-3.71-4.27A4,4,0,0,0,359.87,125.52Z"/>
        <path class="f199f5a3-d766-40c4-a804-522f47f44ecc" d="M368.49,117.07a.51.51,0,0,1,.55-.49.49.49,0,0,1,.46.52l-.08,2.27a2.56,2.56,0,0,1,.16-.25,5,5,0,0,1,4.2-2.37.5.5,0,0,1,.48.52.51.51,0,0,1-.52.49,3.71,3.71,0,0,0-3,1.57,9.43,9.43,0,0,0-1.32,2.35.26.26,0,0,0-.05.17l-.16,4.51a.49.49,0,0,1-.5.48.5.5,0,0,1-.51-.52Z"/>
        <path class="f199f5a3-d766-40c4-a804-522f47f44ecc" d="M381.29,117.5a.53.53,0,0,1-.52.49l-1.32,0-.26,7.49a.78.78,0,0,0,.72.78.6.6,0,0,1,.51.55.56.56,0,0,1-.54.48,1.74,1.74,0,0,1-1.74-1.84l.26-7.5-1.28,0c-.5,0-.49-.27-.48-.52s0-.51.52-.49l1.28.05.13-3.82a.55.55,0,0,1,.53-.49.56.56,0,0,1,.52.53l-.13,3.81,1.32,0A.54.54,0,0,1,381.29,117.5Z"/>
      </g>
    </g>
      <path class="bb71ccc9-6106-47c7-8d1e-341872b8f53e" d="M239.21,116l144.31,5.14a10.12,10.12,0,0,1,9.77,10.48L391.71,176a10.13,10.13,0,0,1-10.48,9.76l-154.44-5.49,1.93-54.43A10.13,10.13,0,0,1,239.21,116Z"/>
      <path class="f199f5a3-d766-40c4-a804-522f47f44ecc" d="M249.57,160a7.78,7.78,0,0,1,12.76-5.46,1.2,1.2,0,0,1-1.54,1.85,5.26,5.26,0,0,0-3.33-1.27,5.59,5.59,0,0,0-3.83,1.37,5.18,5.18,0,0,0-1.67,3.6,5.12,5.12,0,0,0,1.4,3.71,5.61,5.61,0,0,0,3.73,1.64,5.28,5.28,0,0,0,3.42-1,1.27,1.27,0,0,1,1.67.29,1.24,1.24,0,0,1-.27,1.67,7.84,7.84,0,0,1-4.91,1.46A7.68,7.68,0,0,1,249.57,160Z"/>
      <path class="f199f5a3-d766-40c4-a804-522f47f44ecc" d="M266.17,167l.45-12.38a1.14,1.14,0,0,1,1.19-1.11,1.17,1.17,0,0,1,1.14,1.19l-.41,11.21,5.69.2a1.17,1.17,0,0,1-.08,2.33l-6.8-.24h-.07A1.14,1.14,0,0,1,266.17,167Z"/>
      <path class="f199f5a3-d766-40c4-a804-522f47f44ecc" d="M278.68,155a1.17,1.17,0,0,1,2.33.08l-.44,12.38a1.17,1.17,0,0,1-1.22,1.12,1.15,1.15,0,0,1-1.11-1.2Z"/>
      <path class="f199f5a3-d766-40c4-a804-522f47f44ecc" d="M284.07,161.22a7.78,7.78,0,0,1,12.76-5.46,1.2,1.2,0,0,1-1.53,1.85,5.2,5.2,0,0,0-3.34-1.27,5.55,5.55,0,0,0-3.83,1.37,5.18,5.18,0,0,0-1.67,3.6,5.1,5.1,0,0,0,1.4,3.7,5.57,5.57,0,0,0,3.73,1.65,5.26,5.26,0,0,0,3.42-1,1.27,1.27,0,0,1,1.67.29,1.24,1.24,0,0,1-.27,1.67,7.84,7.84,0,0,1-4.91,1.46A7.68,7.68,0,0,1,284.07,161.22Z"/>
      <path class="f199f5a3-d766-40c4-a804-522f47f44ecc" d="M300.67,168.23l.44-12.28a1.16,1.16,0,0,1,2.31.08l-.21,6,7-6.58a1.15,1.15,0,0,1,1.64.06,1.2,1.2,0,0,1-.06,1.64l-4.78,4.43,4.44,6.27a1.12,1.12,0,0,1-.23,1.61,1.07,1.07,0,0,1-.75.24,1.1,1.1,0,0,1-.84-.45l-4.32-6.1-2.26,2.15-.11,3a1.16,1.16,0,0,1-2.31-.08Z"/>
      <path class="f199f5a3-d766-40c4-a804-522f47f44ecc" d="M322,169l.44-12.38a1.13,1.13,0,0,1,1.19-1.11,1.15,1.15,0,0,1,1.14,1.19l-.18,5,5.43.2.18-5a1.17,1.17,0,0,1,2.33.08l-.44,12.38a1.16,1.16,0,0,1-1.22,1.11,1.13,1.13,0,0,1-1.11-1.19l.18-5-5.44-.19-.18,5A1.16,1.16,0,1,1,322,169Z"/>
      <path class="f199f5a3-d766-40c4-a804-522f47f44ecc" d="M336.85,169.52l.45-12.38a1.13,1.13,0,0,1,1.19-1.11h.07l6.8.25a1.16,1.16,0,0,1,1.11,1.19,1.2,1.2,0,0,1-1.2,1.14l-5.69-.21-.13,3.84,4.89.18a1.17,1.17,0,0,1-.09,2.33l-4.89-.18-.13,3.86,5.68.21a1.17,1.17,0,0,1-.08,2.33l-6.8-.25s0,0,0,0l0,0A1.16,1.16,0,0,1,336.85,169.52Z"/>
      <path class="f199f5a3-d766-40c4-a804-522f47f44ecc" d="M359.45,169.75a1.16,1.16,0,0,1-.78,1.44,2.21,2.21,0,0,1-.47.05h0a1.65,1.65,0,0,1-.81-.26,2.17,2.17,0,0,1-.64-.76,5.71,5.71,0,0,1-.35-2.54,1.8,1.8,0,0,0-.22-.91,2,2,0,0,0-.61-.63,3.69,3.69,0,0,0-1.16-.54l-2.47-.09-.17,4.55a1.16,1.16,0,0,1-1.21,1.11,1.14,1.14,0,0,1-1.11-1.19l.44-12.38a1.14,1.14,0,0,1,1.2-1.12h0l3.73.14a4.48,4.48,0,0,1,4.33,4.67,4.42,4.42,0,0,1-1.76,3.38,3.08,3.08,0,0,1,.7.81,4,4,0,0,1,.62,2.29,4.66,4.66,0,0,0,0,1.24A1.1,1.1,0,0,1,359.45,169.75Zm-2.63-8.54a2.16,2.16,0,0,0-2.08-2.26l-2.58-.1-.16,4.33,2.58.09A2.16,2.16,0,0,0,356.82,161.21Z"/>
      <path class="f199f5a3-d766-40c4-a804-522f47f44ecc" d="M362.84,170.46l.44-12.38a1.14,1.14,0,0,1,1.19-1.12h.07l6.8.24a1.17,1.17,0,0,1-.09,2.33l-5.68-.2-.14,3.84,4.89.17a1.17,1.17,0,0,1-.09,2.33l-4.89-.18-.13,3.87,5.68.2a1.17,1.17,0,0,1-.08,2.33l-6.8-.24s0,0,0,0l0,0A1.14,1.14,0,0,1,362.84,170.46Z"/>
    </g>
  </g>
  <path class="b1be504d-6d9e-4cbd-9c95-13b56d558eed" d="M195.6,318.89c-8.1-6.56-15.35-11.35-19.94-20.17-6,12.53-9.78,17.28-21.24,26.55a2.4,2.4,0,0,0-1,1.31,1.89,1.89,0,0,0,.3,1.16c2.21,4.45,7.71,19.3,15.08,15.73,8.14-4,15.63-10.48,21.71-16.57C194.07,323.28,193.57,322.71,195.6,318.89Z"/>
</svg>
