<svg class="story-screen__graphic" id="bad2fb0f-d2c4-47d4-9026-0522f1dfd502" data-name="Layer 1" xmlns="http://www.w3.org/2000/svg" xmlns:xlink="http://www.w3.org/1999/xlink" viewBox="0 0 465.45 728.08">
  <defs>
    <style>
      .a6bf88a3-9531-488b-8dc5-52974f304304, .a75953fc-bf7a-4f76-abed-5fc43f8dc955, .a7bc7953-e59a-4f19-88b9-2fa58dabc9ea, .a8cc23d4-7786-4e7d-8e68-9e3ac8d2ff08, .acf2fd2f-a72b-4057-86d7-32dd07802846, .af7d2b66-37e6-4746-94cc-38d6aeaf2565, .af827874-286f-4bb8-9d84-358d6cf89578, .b6144ebb-7775-4334-b202-2917cbfd3bf4, .b84e99d7-2813-4d65-99b8-1fe3eb28646a, .b92e38ad-9eb1-4f37-b34b-8b93e05ca277, .e207fd2a-e4ba-4299-8854-5e3088178d66, .e21d9eeb-c299-4971-b246-f7871242e0f4, .eb369bec-c919-41b5-acff-eb083a537a1f, .f7a8e091-e6ee-49a5-b42c-9c03d69f8557, .fa696f17-6aa2-4a99-9515-e304d8cb3027, .fdf9c915-3b35-4fe4-adc4-568c652a68f6 {
        fill: none;
      }

      .ae60162c-50c6-44eb-a0cf-1dd4a2651f41 {
        fill: #ede8db;
      }

      .e6b4d94b-62f3-4a13-ad25-81f7d0838fef {
        fill: #3c5743;
      }

      .af0e2e64-7960-4299-b1ce-5bb59b7b4959 {
        fill: #aeaaa1;
      }

      .bf6bd79b-8aaf-4b17-931b-817334ffb73d {
        fill: #ea5736;
      }

      .f667cee2-37e9-4062-9ffc-ba36f8c683d8 {
        fill: #062837;
      }

      .e3336575-f4b9-4d0f-a7e3-5f71c151343d {
        fill: #77a9a2;
      }

      .a6bf88a3-9531-488b-8dc5-52974f304304, .b92e38ad-9eb1-4f37-b34b-8b93e05ca277 {
        stroke: #ede8db;
      }

      .a6bf88a3-9531-488b-8dc5-52974f304304, .a75953fc-bf7a-4f76-abed-5fc43f8dc955, .acf2fd2f-a72b-4057-86d7-32dd07802846, .af7d2b66-37e6-4746-94cc-38d6aeaf2565, .af827874-286f-4bb8-9d84-358d6cf89578, .b6144ebb-7775-4334-b202-2917cbfd3bf4, .b92e38ad-9eb1-4f37-b34b-8b93e05ca277, .eb369bec-c919-41b5-acff-eb083a537a1f, .f57bf376-3691-4e51-9869-a82250b2d1d0, .fa696f17-6aa2-4a99-9515-e304d8cb3027, .fdf9c915-3b35-4fe4-adc4-568c652a68f6 {
        stroke-linecap: round;
      }

      .acf2fd2f-a72b-4057-86d7-32dd07802846, .af827874-286f-4bb8-9d84-358d6cf89578, .b1260a84-6e5c-4a7e-b73a-a04cea7abb70, .b6144ebb-7775-4334-b202-2917cbfd3bf4, .b92e38ad-9eb1-4f37-b34b-8b93e05ca277, .eb369bec-c919-41b5-acff-eb083a537a1f, .f57bf376-3691-4e51-9869-a82250b2d1d0, .fa696f17-6aa2-4a99-9515-e304d8cb3027, .fdf9c915-3b35-4fe4-adc4-568c652a68f6 {
        stroke-linejoin: round;
      }

      .b92e38ad-9eb1-4f37-b34b-8b93e05ca277 {
        stroke-width: 9.19px;
      }

      .a3e3fa97-64f8-4f25-abe4-0f9e2b6b5d51, .a6bf88a3-9531-488b-8dc5-52974f304304, .a75953fc-bf7a-4f76-abed-5fc43f8dc955, .a8cc23d4-7786-4e7d-8e68-9e3ac8d2ff08, .af7d2b66-37e6-4746-94cc-38d6aeaf2565, .b14e89a5-31ff-4d60-bc3b-39448f9a3ff2, .b404d92f-d46c-422a-89fb-736e4a9a45e0, .e207fd2a-e4ba-4299-8854-5e3088178d66, .e21d9eeb-c299-4971-b246-f7871242e0f4, .f7a8e091-e6ee-49a5-b42c-9c03d69f8557 {
        stroke-miterlimit: 10;
      }

      .a6bf88a3-9531-488b-8dc5-52974f304304 {
        stroke-width: 6.9px;
      }

      .b6506d3d-5405-4d32-8243-653921e490ea {
        fill: #ddd;
      }

      .af704af9-7a4b-4980-87a2-c706edcaaf10 {
        fill: #5e5341;
        opacity: 0.27;
      }

      .a158d933-a562-4584-b3e5-449768e175a5 {
        fill: #d5a555;
      }

      .f7a8e091-e6ee-49a5-b42c-9c03d69f8557 {
        stroke: #6b3c2b;
      }

      .aeebf1c4-c80b-4034-acea-3f0ceadc489c {
        fill: #062838;
      }

      .e207fd2a-e4ba-4299-8854-5e3088178d66, .e21d9eeb-c299-4971-b246-f7871242e0f4 {
        stroke: #fff;
      }

      .e207fd2a-e4ba-4299-8854-5e3088178d66 {
        stroke-width: 9.64px;
      }

      .e21d9eeb-c299-4971-b246-f7871242e0f4 {
        stroke-width: 8px;
      }

      .a3e3fa97-64f8-4f25-abe4-0f9e2b6b5d51, .b1260a84-6e5c-4a7e-b73a-a04cea7abb70, .b404d92f-d46c-422a-89fb-736e4a9a45e0, .e15534f3-4d46-49ad-bfd0-10c084989788 {
        fill: #d4a455;
      }

      .a3e3fa97-64f8-4f25-abe4-0f9e2b6b5d51, .b1260a84-6e5c-4a7e-b73a-a04cea7abb70, .b404d92f-d46c-422a-89fb-736e4a9a45e0 {
        stroke: #d4a455;
      }

      .a3e3fa97-64f8-4f25-abe4-0f9e2b6b5d51 {
        stroke-width: 0.43px;
      }

      .b31e06c0-66d3-4cd1-9dc1-a91dd5549e4e {
        fill: #d4a555;
      }

      .a2956bf0-5841-4cf2-ac38-e3ac8680fc3e {
        fill: #2e2d2c;
      }

      .f57bf376-3691-4e51-9869-a82250b2d1d0 {
        fill: #afaca3;
        stroke: #d5a555;
        stroke-width: 3.14px;
      }

      .b3dee549-dade-43e8-bd55-e97e79b3e205 {
        clip-path: url(#ad11d635-9e84-43fd-9ce0-b89e138cce79);
      }

      .a75953fc-bf7a-4f76-abed-5fc43f8dc955, .fdf9c915-3b35-4fe4-adc4-568c652a68f6 {
        stroke: #30383b;
      }

      .fdf9c915-3b35-4fe4-adc4-568c652a68f6 {
        stroke-width: 2.09px;
      }

      .a8777ee1-283e-4e8d-82e1-11960f25631f, .be50279a-0af0-4625-841b-944dc3fcc907 {
        fill: #fff;
      }

      .a8777ee1-283e-4e8d-82e1-11960f25631f, .fea13cc3-4b76-47ff-8d49-9e0fbd24784c {
        fill-rule: evenodd;
      }

      .eb369bec-c919-41b5-acff-eb083a537a1f {
        stroke: #4f4e4d;
      }

      .acf2fd2f-a72b-4057-86d7-32dd07802846, .eb369bec-c919-41b5-acff-eb083a537a1f {
        stroke-width: 3.39px;
      }

      .acf2fd2f-a72b-4057-86d7-32dd07802846 {
        stroke: #ea5836;
      }

      .a4013a4d-3afd-4a26-99e7-2a87a2cf1bfc {
        fill: #89563c;
      }

      .a75953fc-bf7a-4f76-abed-5fc43f8dc955, .b6144ebb-7775-4334-b202-2917cbfd3bf4 {
        stroke-width: 1.58px;
      }

      .eb89d69a-835e-4b77-9745-30cedc08056e, .fea13cc3-4b76-47ff-8d49-9e0fbd24784c {
        fill: #ece8dc;
      }

      .f62e79e5-19fe-4764-9f31-cc9e15c2f9a3 {
        fill: #2d2e2c;
      }

      .fa696f17-6aa2-4a99-9515-e304d8cb3027 {
        stroke: #89563c;
        stroke-width: 2.84px;
      }

      .e25a584d-4213-4065-a8c4-cd7203cbd2c3 {
        clip-path: url(#e0a2afc1-ff5a-42bc-83a3-d42651a72277);
      }

      .af827874-286f-4bb8-9d84-358d6cf89578 {
        stroke: #31373a;
        stroke-width: 2.19px;
      }

      .b404d92f-d46c-422a-89fb-736e4a9a45e0 {
        stroke-width: 1.13px;
      }

      .b14e89a5-31ff-4d60-bc3b-39448f9a3ff2, .ed439d85-c659-4d79-94c0-56df87f78c4d {
        fill: #052837;
      }

      .b14e89a5-31ff-4d60-bc3b-39448f9a3ff2 {
        stroke: #062837;
        stroke-width: 1.92px;
      }

      .ea7122df-cc64-4fa9-895e-b83e39fdfc0a {
        fill: #d4a554;
      }

      .a7bc7953-e59a-4f19-88b9-2fa58dabc9ea {
        stroke: #77aaa2;
        stroke-linejoin: bevel;
        stroke-width: 3.16px;
      }

      .b6144ebb-7775-4334-b202-2917cbfd3bf4 {
        stroke: #afaca3;
      }

      .ed5a11d8-59f6-49e0-8fa0-2a5eb1957e25 {
        fill: #30383b;
      }

      .b1260a84-6e5c-4a7e-b73a-a04cea7abb70 {
        stroke-width: 14.08px;
      }

      .bdf01914-81ef-4438-b94c-049e80f5e185 {
        fill: #002838;
      }

      .a12a7b3e-ccc9-4e27-a59f-8d88d23c5d87 {
        fill: #867f72;
      }

      .a17d14d4-37d8-41b9-946c-a6f90ef287f3 {
        clip-path: url(#ace11e94-1a9e-4cd6-bca0-cb7cb510d614);
      }

      .ad6dc244-7cfd-42d9-89d0-b39bd733fd52 {
        clip-path: url(#fff7c3e4-1d49-4ab6-b3a6-928270160fb4);
      }

      .a8cc23d4-7786-4e7d-8e68-9e3ac8d2ff08, .af7d2b66-37e6-4746-94cc-38d6aeaf2565 {
        stroke: #ea5736;
      }

      .a8cc23d4-7786-4e7d-8e68-9e3ac8d2ff08 {
        stroke-width: 3.77px;
      }

      .af7d2b66-37e6-4746-94cc-38d6aeaf2565 {
        stroke-width: 1.62px;
      }
    </style>
    <clipPath id="ad11d635-9e84-43fd-9ce0-b89e138cce79">
      <rect class="b84e99d7-2813-4d65-99b8-1fe3eb28646a" x="94.22" y="430.46" width="6.55" height="3.53" rx="0.38"/>
    </clipPath>
    <clipPath id="e0a2afc1-ff5a-42bc-83a3-d42651a72277">
      <rect class="b84e99d7-2813-4d65-99b8-1fe3eb28646a" x="335.29" y="425.74" width="6.85" height="3.69" rx="1.3"/>
    </clipPath>
    <clipPath id="ace11e94-1a9e-4cd6-bca0-cb7cb510d614">
      <rect class="b84e99d7-2813-4d65-99b8-1fe3eb28646a" x="365.65" y="127.52" width="4.24" height="2.28" rx="1.14"/>
    </clipPath>
    <clipPath id="fff7c3e4-1d49-4ab6-b3a6-928270160fb4">
      <rect class="b84e99d7-2813-4d65-99b8-1fe3eb28646a" x="286.22" y="127.52" width="4.24" height="2.28" rx="1.14"/>
    </clipPath>
  </defs>
  <rect class="ae60162c-50c6-44eb-a0cf-1dd4a2651f41" x="-0.01" y="-1801.52" width="465.11" height="2577.43"/>
  <rect class="e6b4d94b-62f3-4a13-ad25-81f7d0838fef" x="0.99" y="40.51" width="449.84" height="687.57"/>
  <polygon class="e6b4d94b-62f3-4a13-ad25-81f7d0838fef" points="407.72 242.33 465.94 127.86 466.74 729.36 335.39 732.79 407.72 242.33"/>
  <path class="af0e2e64-7960-4299-b1ce-5bb59b7b4959" d="M433.2,742.38C542,511.58,499.94,254.06,517.53-2.1L408.62-.88C400.91,253.27,392.74,511.58,278.24,741Z"/>
  <rect class="bf6bd79b-8aaf-4b17-931b-817334ffb73d" x="0.99" y="120.34" width="264.21" height="577.44"/>
  <path class="f667cee2-37e9-4062-9ffc-ba36f8c683d8" d="M0,120.22l268.77.31c9.8,0,13.57-11.54,5.34-16.35L0-57.26"/>
  <g>
    <rect class="e3336575-f4b9-4d0f-a7e3-5f71c151343d" x="59.53" y="368.53" width="176.81" height="184.34"/>
    <rect class="b92e38ad-9eb1-4f37-b34b-8b93e05ca277" x="59.53" y="368.53" width="176.81" height="184.34"/>
    <line class="a6bf88a3-9531-488b-8dc5-52974f304304" x1="59.53" y1="460.7" x2="236.34" y2="460.7"/>
    <line class="a6bf88a3-9531-488b-8dc5-52974f304304" x1="147.93" y1="368.53" x2="147.93" y2="552.87"/>
  </g>
  <rect class="b6506d3d-5405-4d32-8243-653921e490ea" x="0.08" y="-98.36" width="465.09" height="98.36"/>
  <g>
    <rect class="e3336575-f4b9-4d0f-a7e3-5f71c151343d" x="58.94" y="145.54" width="176.81" height="184.34"/>
    <g>
      <circle class="b84e99d7-2813-4d65-99b8-1fe3eb28646a" cx="188.4" cy="192.48" r="2.37"/>
      <path class="b84e99d7-2813-4d65-99b8-1fe3eb28646a" d="M149.14,237.85a1.63,1.63,0,1,0,1.62,1.63A1.63,1.63,0,0,0,149.14,237.85Z"/>
      <path class="b84e99d7-2813-4d65-99b8-1fe3eb28646a" d="M91.67,162a1.63,1.63,0,1,0,1.63,1.63A1.63,1.63,0,0,0,91.67,162Z"/>
      <path class="b84e99d7-2813-4d65-99b8-1fe3eb28646a" d="M105.85,274.24a1.63,1.63,0,1,0,1.63,1.63A1.63,1.63,0,0,0,105.85,274.24Z"/>
      <circle class="b84e99d7-2813-4d65-99b8-1fe3eb28646a" cx="203.63" cy="295.6" r="1.63"/>
      <path class="af704af9-7a4b-4980-87a2-c706edcaaf10" d="M60.13,147.21V331.55h176.8V147.21Zm31.54,18a1.63,1.63,0,1,1,1.63-1.63A1.63,1.63,0,0,1,91.67,165.26ZM105.85,277.5a1.63,1.63,0,1,1,1.63-1.63A1.63,1.63,0,0,1,105.85,277.5Zm1.8-73.79L106,202.08l7.7-7.71,1.63,1.63Zm17.09,97.69-2-1.13,5-8.81,2,1.13Zm24.4-60.29a1.63,1.63,0,1,1,1.62-1.63A1.63,1.63,0,0,1,149.14,241.11Zm39.26-46.26a2.37,2.37,0,1,1,2.37-2.37A2.37,2.37,0,0,1,188.4,194.85Zm15.23,102.38a1.63,1.63,0,1,1,1.63-1.63A1.63,1.63,0,0,1,203.63,297.23Zm17.84-89.06-3.83-13,2.21-.65,3.83,13Z"/>
    </g>
    <rect class="b92e38ad-9eb1-4f37-b34b-8b93e05ca277" x="58.94" y="145.54" width="176.81" height="184.34"/>
    <line class="a6bf88a3-9531-488b-8dc5-52974f304304" x1="58.94" y1="237.71" x2="235.74" y2="237.71"/>
    <line class="a6bf88a3-9531-488b-8dc5-52974f304304" x1="147.34" y1="145.54" x2="147.34" y2="329.88"/>
  </g>
  <path class="b84e99d7-2813-4d65-99b8-1fe3eb28646a" d="M123.38,516.86l.71,34.6"/>
  <rect class="a158d933-a562-4584-b3e5-449768e175a5" x="44.62" y="135.55" width="203.78" height="203.78"/>
  <line class="f7a8e091-e6ee-49a5-b42c-9c03d69f8557" x1="113.24" y1="135.55" x2="113.9" y2="338.88"/>
  <line class="f7a8e091-e6ee-49a5-b42c-9c03d69f8557" x1="78.24" y1="135.55" x2="78.9" y2="338.88"/>
  <line class="f7a8e091-e6ee-49a5-b42c-9c03d69f8557" x1="147.24" y1="135.55" x2="147.9" y2="338.88"/>
  <line class="f7a8e091-e6ee-49a5-b42c-9c03d69f8557" x1="182.24" y1="135.55" x2="182.9" y2="338.88"/>
  <line class="f7a8e091-e6ee-49a5-b42c-9c03d69f8557" x1="217.24" y1="135.55" x2="217.9" y2="338.88"/>
  <path class="af704af9-7a4b-4980-87a2-c706edcaaf10" d="M60.37,368.53V552.87h176.8V368.53Zm31.54,18.05A1.63,1.63,0,1,1,93.54,385,1.63,1.63,0,0,1,91.91,386.58Zm14.18,112.24a1.63,1.63,0,1,1,1.63-1.62A1.62,1.62,0,0,1,106.09,498.82Zm1.8-73.79-1.62-1.62,7.7-7.71,1.63,1.62ZM125,522.73l-2-1.14,5-8.81,2,1.13Zm24.4-60.3A1.63,1.63,0,1,1,151,460.8,1.63,1.63,0,0,1,149.38,462.43Zm39.26-46.26a2.37,2.37,0,1,1,2.37-2.36A2.37,2.37,0,0,1,188.64,416.17Zm15.23,102.38a1.63,1.63,0,1,1,1.63-1.63A1.63,1.63,0,0,1,203.87,518.55Zm17.84-89.06-3.83-13,2.21-.65,3.83,13Z"/>
  <g>
    <path class="aeebf1c4-c80b-4034-acea-3f0ceadc489c" d="M76.88,452,79.66,417c0-15.09,11-27.32,24.58-27.32h10.33c13.57,0,24.57,12.23,24.57,27.32L142.48,452"/>
    <g>
      <g>
        <path class="e207fd2a-e4ba-4299-8854-5e3088178d66" d="M105.64,475c-4.58,0-7.85-.18-10.76,1.06s-5.47,3.93-8.61,9.71c-3.28,6-6.8,20.08-9.6,34.77s39.73,12.78,45.52,16.3"/>
        <path class="e21d9eeb-c299-4971-b246-f7871242e0f4" d="M116.41,474.13c18.06,0,25.78.73,38.19-10C167.51,453,182.41,422,183.89,406.29"/>
        <rect class="a3e3fa97-64f8-4f25-abe4-0f9e2b6b5d51" x="85.34" y="399.37" width="49.15" height="66.58" rx="24.57"/>
        <rect class="ae60162c-50c6-44eb-a0cf-1dd4a2651f41" x="94.22" y="430.46" width="6.55" height="3.53" rx="0.38"/>
        <rect class="b31e06c0-66d3-4cd1-9dc1-a91dd5549e4e" x="105.64" y="461.12" width="10.77" height="10.77"/>
        <rect class="ae60162c-50c6-44eb-a0cf-1dd4a2651f41" x="119.06" y="430.46" width="6.55" height="3.53" rx="0.38"/>
        <circle class="a2956bf0-5841-4cf2-ac38-e3ac8680fc3e" cx="122.34" cy="432.22" r="1.4"/>
        <line class="f57bf376-3691-4e51-9869-a82250b2d1d0" x1="94.22" y1="424.66" x2="99.67" y2="424.66"/>
        <line class="f57bf376-3691-4e51-9869-a82250b2d1d0" x1="119.98" y1="424.66" x2="125.43" y2="424.66"/>
        <g class="b3dee549-dade-43e8-bd55-e97e79b3e205">
          <circle class="a2956bf0-5841-4cf2-ac38-e3ac8680fc3e" cx="97.5" cy="432.22" r="1.38"/>
        </g>
        <path class="fdf9c915-3b35-4fe4-adc4-568c652a68f6" d="M100.34,449.13a14.31,14.31,0,0,0,19.16,0"/>
        <path class="fdf9c915-3b35-4fe4-adc4-568c652a68f6" d="M112.12,440.21h-2a1.33,1.33,0,0,1-1.38-1.35v-1.95"/>
        <rect class="be50279a-0af0-4625-841b-944dc3fcc907" x="86.77" y="471.89" width="47.41" height="59.68" rx="7.61"/>
        <polygon class="a8777ee1-283e-4e8d-82e1-11960f25631f" points="88.78 547.88 132.16 547.88 134.17 522.73 86.77 522.73 88.78 547.88"/>
      </g>
      <path class="b31e06c0-66d3-4cd1-9dc1-a91dd5549e4e" d="M119.06,471.48c0,2-3.59,3.56-8,3.56s-8-1.59-8-3.56"/>
    </g>
    <polygon class="aeebf1c4-c80b-4034-acea-3f0ceadc489c" points="85.34 415.54 134.17 415.54 123.74 400.19 107.73 393.48 91.99 398.72 85.34 415.54"/>
  </g>
  <line class="a6bf88a3-9531-488b-8dc5-52974f304304" x1="60.29" y1="460.81" x2="237.1" y2="460.81"/>
  <g>
    <line class="eb369bec-c919-41b5-acff-eb083a537a1f" x1="299.64" y1="4.8" x2="299.64" y2="72.35"/>
    <line class="eb369bec-c919-41b5-acff-eb083a537a1f" x1="314.18" y1="4.8" x2="314.18" y2="72.35"/>
    <line class="eb369bec-c919-41b5-acff-eb083a537a1f" x1="341.48" y1="4.8" x2="341.48" y2="72.35"/>
    <line class="eb369bec-c919-41b5-acff-eb083a537a1f" x1="356.01" y1="4.8" x2="356.01" y2="72.35"/>
    <polyline class="acf2fd2f-a72b-4057-86d7-32dd07802846" points="259.06 89.74 277.21 4.8 332.91 4.8"/>
    <polyline class="acf2fd2f-a72b-4057-86d7-32dd07802846" points="398.45 89.74 380.3 4.8 324.6 4.8"/>
    <line class="acf2fd2f-a72b-4057-86d7-32dd07802846" x1="296.62" y1="89.74" x2="278.47" y2="4.8"/>
    <line class="acf2fd2f-a72b-4057-86d7-32dd07802846" x1="361.28" y1="89.74" x2="379.42" y2="4.8"/>
    <rect class="aeebf1c4-c80b-4034-acea-3f0ceadc489c" x="298.79" y="68.99" width="16.24" height="5.46" rx="0.22"/>
    <rect class="aeebf1c4-c80b-4034-acea-3f0ceadc489c" x="340.75" y="68.99" width="16.24" height="5.46" rx="0.22"/>
  </g>
  <rect class="ae60162c-50c6-44eb-a0cf-1dd4a2651f41" x="143.48" y="368.17" width="8.52" height="188.52"/>
  <rect class="e15534f3-4d46-49ad-bfd0-10c084989788" x="176.54" y="397.16" width="14.7" height="14.7" rx="5.48" transform="translate(89.4 -29.67) rotate(12.17)"/>
  <rect class="e15534f3-4d46-49ad-bfd0-10c084989788" x="100.41" y="528.18" width="13.29" height="13.29" rx="2.65"/>
  <g class="text-cta text-cta--8">
    <rect class="a4013a4d-3afd-4a26-99e7-2a87a2cf1bfc" x="176.51" y="382.27" width="43.6" height="19.54" transform="translate(-102.54 71.86) rotate(-16.38)"/>
    <path class="ae60162c-50c6-44eb-a0cf-1dd4a2651f41" d="M195.42,397.41l.8-.51-.89-3-.55.16a.92.92,0,0,1-1.15-.63.93.93,0,0,1,.63-1.15l.55-.16-.47-1.58a4.38,4.38,0,0,1,.19-3.3,4.08,4.08,0,0,1,2.57-1.92,4.48,4.48,0,0,1,3.76.41,1.05,1.05,0,0,1,.55.66,1.07,1.07,0,0,1-.75,1.34,1,1,0,0,1-.85-.11,2.46,2.46,0,0,0-2.1-.35,1.81,1.81,0,0,0-1.13.86,2.41,2.41,0,0,0-.07,1.83l.45,1.53,3.46-1a1,1,0,0,1,1.16.63.93.93,0,0,1-.63,1.15l-3.47,1,.86,2.94,4.74-1.39a1,1,0,0,1,1.2.65.94.94,0,0,1-.66,1.18l-7.52,2.21a.77.77,0,0,1-1-.5A.79.79,0,0,1,195.42,397.41Z"/>
  </g>
  <g>
    <circle class="a4013a4d-3afd-4a26-99e7-2a87a2cf1bfc" cx="337.7" cy="455.49" r="3.67"/>
    <circle class="a4013a4d-3afd-4a26-99e7-2a87a2cf1bfc" cx="335.45" cy="459.88" r="3.67"/>
    <circle class="a4013a4d-3afd-4a26-99e7-2a87a2cf1bfc" cx="332.26" cy="463.55" r="3.67"/>
    <g>
      <rect class="e15534f3-4d46-49ad-bfd0-10c084989788" x="304.6" y="555.57" width="9.61" height="11.88" rx="2.68"/>
      <g>
        <rect class="e15534f3-4d46-49ad-bfd0-10c084989788" x="389.64" y="555.27" width="9.61" height="11.88" rx="2.68" transform="translate(788.9 1122.43) rotate(-180)"/>
        <line class="a75953fc-bf7a-4f76-abed-5fc43f8dc955" x1="352.7" y1="510.79" x2="352.7" y2="505.66"/>
        <path class="a4013a4d-3afd-4a26-99e7-2a87a2cf1bfc" d="M352.69,467.88,327,427.82a28.09,28.09,0,0,1,1-31.69c6-7.89,14.62-12.42,23.58-12.42,9.55,0,18.5,5,24.56,13.78a28,28,0,0,1,.71,29.87Zm-1-65.28a18.28,18.28,0,0,0-13.84,6.71,10.23,10.23,0,0,0-.36,12.53l14.9,21,13.92-21a10.12,10.12,0,0,0-.17-11.72A18.27,18.27,0,0,0,351.69,402.6Z"/>
        <rect class="e15534f3-4d46-49ad-bfd0-10c084989788" x="329.37" y="394.16" width="44.63" height="64.6" rx="22.32"/>
        <rect class="eb89d69a-835e-4b77-9745-30cedc08056e" x="335.29" y="425.74" width="6.85" height="3.69" rx="1.3"/>
        <rect class="eb89d69a-835e-4b77-9745-30cedc08056e" x="361.24" y="425.74" width="6.85" height="3.69" rx="1.3"/>
        <circle class="f62e79e5-19fe-4764-9f31-cc9e15c2f9a3" cx="364.67" cy="427.58" r="1.46"/>
        <line class="fa696f17-6aa2-4a99-9515-e304d8cb3027" x1="335.29" y1="419.68" x2="340.98" y2="419.68"/>
        <line class="fa696f17-6aa2-4a99-9515-e304d8cb3027" x1="362.21" y1="419.68" x2="367.9" y2="419.68"/>
        <g class="e25a584d-4213-4065-a8c4-cd7203cbd2c3">
          <circle class="f62e79e5-19fe-4764-9f31-cc9e15c2f9a3" cx="338.71" cy="427.58" r="1.44"/>
        </g>
        <path class="af827874-286f-4bb8-9d84-358d6cf89578" d="M354,435.93H351.9a1.39,1.39,0,0,1-1.44-1.41v-2"/>
        <circle class="b404d92f-d46c-422a-89fb-736e4a9a45e0" cx="329.78" cy="431.35" r="4.89"/>
        <circle class="b404d92f-d46c-422a-89fb-736e4a9a45e0" cx="374.08" cy="431.36" r="4.89"/>
        <path class="af827874-286f-4bb8-9d84-358d6cf89578" d="M359.51,447.18a11.74,11.74,0,0,1-14.88.16"/>
        <rect class="b14e89a5-31ff-4d60-bc3b-39448f9a3ff2" x="327.73" y="471.11" width="47.72" height="81.4" rx="20.58"/>
        <path class="ea7122df-cc64-4fa9-895e-b83e39fdfc0a" d="M389.54,558.52c-1.34-33-8.59-51.45-14.43-61.12-6.18-10.24-12.11-13-12.17-13l3.19-11.5c1.24.52,30.33,13.41,33.23,85Z"/>
        <path class="ed439d85-c659-4d79-94c0-56df87f78c4d" d="M374.83,497.07a49.36,49.36,0,0,0-4.5-6.35,35.49,35.49,0,0,0-3.88-4,22.75,22.75,0,0,0-2.73-2.08,7.68,7.68,0,0,0-1.06-.6l.8-2.88.8-2.87.79-2.88.8-2.87a23.5,23.5,0,0,1,5.31,3.43,51.27,51.27,0,0,1,10.68,12.42"/>
        <path class="ea7122df-cc64-4fa9-895e-b83e39fdfc0a" d="M314.42,558.46c1.34-33,8.59-51.45,14.43-61.12,6.18-10.24,12.11-13,12.17-13l-3.19-11.5c-1.24.52-30.33,13.41-33.23,85Z"/>
        <path class="ed439d85-c659-4d79-94c0-56df87f78c4d" d="M322.3,488A51.39,51.39,0,0,1,333,475.56a23.39,23.39,0,0,1,5.3-3.43l.8,2.87.8,2.88.8,2.87.79,2.87s-.39.19-1.05.61a23.56,23.56,0,0,0-2.73,2.07,34.83,34.83,0,0,0-3.88,4,49.36,49.36,0,0,0-4.5,6.35"/>
        <path class="e15534f3-4d46-49ad-bfd0-10c084989788" d="M331.53,657.52c-2.85,0-5.16-2.85-5.16-6.37,0-46.89,8.31-89.27,8.67-91.06.68-3.41,3.47-5.5,6.23-4.66s4.46,4.29,3.78,7.7c-.08.43-8.37,42.73-8.37,88C336.68,654.67,334.37,657.52,331.53,657.52Z"/>
        <path class="e15534f3-4d46-49ad-bfd0-10c084989788" d="M374.42,657.52c-2.85,0-5.16-2.85-5.16-6.37,0-45.36-8.29-87.59-8.37-88-.68-3.41,1-6.86,3.78-7.7s5.56,1.25,6.23,4.66c.36,1.79,8.67,44.17,8.67,91.06C379.57,654.67,377.26,657.52,374.42,657.52Z"/>
        <polygon class="fea13cc3-4b76-47ff-8d49-9e0fbd24784c" points="377.5 540.66 376.06 531.21 351.56 527.84 326.93 531.21 325.49 540.69 311.03 635.68 349.63 635.68 353.37 635.68 391.97 635.68 377.5 540.66"/>
        <path class="a7bc7953-e59a-4f19-88b9-2fa58dabc9ea" d="M360.44,473.76l-7.84,43.6-7.84-43.6c-1.74-6.59,2.24-4.41,7.84-4.41h0C358.21,469.35,362.18,467.17,360.44,473.76Z"/>
        <g>
          <path class="bf6bd79b-8aaf-4b17-931b-817334ffb73d" d="M360.07,545.91V522a2.55,2.55,0,0,0-2.24-2.77H347.37a2.55,2.55,0,0,0-2.24,2.77v23.93a2.55,2.55,0,0,0,2.24,2.76h10.46A2.55,2.55,0,0,0,360.07,545.91Z"/>
          <line class="b6144ebb-7775-4334-b202-2917cbfd3bf4" x1="350.15" y1="522.25" x2="354.87" y2="522.25"/>
          <rect class="ed5a11d8-59f6-49e0-8fa0-2a5eb1957e25" x="350.71" y="517.36" width="3.59" height="5.2" rx="0.74"/>
        </g>
        <line class="b1260a84-6e5c-4a7e-b73a-a04cea7abb70" x1="352.6" y1="457.32" x2="352.6" y2="471.83"/>
        <path class="bdf01914-81ef-4438-b94c-049e80f5e185" d="M355,531.08a3,3,0,0,0-.52,0,2.8,2.8,0,0,0-.8.16c-.21.09-.29.16-.29.4v2.51a.08.08,0,0,0,.07.09h.4a.08.08,0,0,0,.07-.09v-2.45a2.58,2.58,0,0,1,1.07-.08.07.07,0,0,0,.07-.07v-.37A.08.08,0,0,0,355,531.08Z"/>
        <path class="bdf01914-81ef-4438-b94c-049e80f5e185" d="M348.3,533.81a1.73,1.73,0,0,0,.6-.12c.07,0,.09,0,.1.06l0,.27c0,.06,0,.1-.05.12a1.85,1.85,0,0,1-.77.15c-.89,0-1.16-.53-1.16-1.61s.27-1.62,1.16-1.62a1.81,1.81,0,0,1,.77.16c.05,0,.06.06.05.12l0,.27s0,.08-.1.06a1.52,1.52,0,0,0-.6-.12c-.53,0-.69.28-.69,1.13S347.77,533.81,348.3,533.81Z"/>
        <path class="bdf01914-81ef-4438-b94c-049e80f5e185" d="M351.26,534.22a2.2,2.2,0,0,1-.65.09c-.47,0-1.12,0-1.12-1,0-.77.37-.84.79-.93l.86-.17V532c0-.18,0-.31-.15-.38a.9.9,0,0,0-.39-.06,2.77,2.77,0,0,0-.83.17h0a.06.06,0,0,1-.06-.05l-.06-.32a.09.09,0,0,1,.06-.1,2.77,2.77,0,0,1,1-.2,1.26,1.26,0,0,1,.71.16c.25.17.27.45.27.76v1.63C351.68,534,351.58,534.13,351.26,534.22Zm-.84-1.39c-.2,0-.38.08-.38.48s.33.54.59.54a1.32,1.32,0,0,0,.51-.1v-1.07Z"/>
        <path class="bdf01914-81ef-4438-b94c-049e80f5e185" d="M357.51,534.23h-.39a.08.08,0,0,1-.08-.09V532c0-.37-.11-.48-.39-.48a2.63,2.63,0,0,0-.7.12v2.47a.08.08,0,0,1-.07.09h-.4a.09.09,0,0,1-.08-.09v-2.5c0-.22.07-.31.32-.41a3.35,3.35,0,0,1,1-.17c.58,0,.88.2.88.88v2.2C357.58,534.19,357.56,534.23,357.51,534.23Z"/>
        <path class="bdf01914-81ef-4438-b94c-049e80f5e185" d="M352.67,530.69h-.29a.14.14,0,0,1-.12-.15v-.37c0-.08.05-.15.11-.15h.3a.14.14,0,0,1,.12.15v.37C352.79,530.63,352.74,530.69,352.67,530.69Z"/>
        <path class="bdf01914-81ef-4438-b94c-049e80f5e185" d="M352.26,531.32v2.33s0,0,0,0l.21-.24h0l.21.24s0,0,0,0v-2.33a.13.13,0,0,0-.12-.14h-.29A.13.13,0,0,0,352.26,531.32Z"/>
        <path class="ed439d85-c659-4d79-94c0-56df87f78c4d" d="M329.67,493.11a6.7,6.7,0,0,1,.26-2.09,12.3,12.3,0,0,1,1.18-2.24,21.31,21.31,0,0,1,1.18-2,8.6,8.6,0,0,1,2.59-2.25c1.8-1.1,4-1.81,6-1.09a2.42,2.42,0,0,1,1.14.76,2.31,2.31,0,0,1,.42,1,6.49,6.49,0,0,1,0,2.11,9.31,9.31,0,0,1-.62,2.6,13,13,0,0,1-1.82,2.79,7.37,7.37,0,0,1-5.3,3.38,10.2,10.2,0,0,1-4.2.52C329.53,496.33,329.67,494,329.67,493.11Z"/>
        <path class="ed439d85-c659-4d79-94c0-56df87f78c4d" d="M363.49,483.51a8.3,8.3,0,0,1,4.85.89,10.94,10.94,0,0,1,5,4.54,8,8,0,0,1,.55,6.63,3.15,3.15,0,0,1-.72,1.17,2.63,2.63,0,0,1-1.09.59,5.49,5.49,0,0,1-5.16-1.63,23,23,0,0,1-3.26-4.63,13.48,13.48,0,0,1-1.36-2.43,9.39,9.39,0,0,1-.48-3.69C361.87,484,362.59,483.66,363.49,483.51Z"/>
        <ellipse class="ea7122df-cc64-4fa9-895e-b83e39fdfc0a" cx="352.6" cy="471.79" rx="6.56" ry="0.38"/>
        <ellipse class="a4013a4d-3afd-4a26-99e7-2a87a2cf1bfc" cx="351.56" cy="406.44" rx="26.36" ry="3.84"/>
        <path class="a4013a4d-3afd-4a26-99e7-2a87a2cf1bfc" d="M337.17,395.83c3.81-2.63,7.7-5.63,12.32-6.1s10.41,1.55,14.88,3.14,8.49,5,9.95,9.47a1.94,1.94,0,0,1,0,1.65,2,2,0,0,1-1,.66c-4.31,1.54-9,1.74-13.55,1.81-9.51.14-23.17,1.63-32-1.84C330.54,401.69,333.74,398.2,337.17,395.83Z"/>
        <circle class="a4013a4d-3afd-4a26-99e7-2a87a2cf1bfc" cx="352.32" cy="385.38" r="6.58"/>
        <path class="a4013a4d-3afd-4a26-99e7-2a87a2cf1bfc" d="M351.26,410.12a43,43,0,0,1-12.68,5.08c-2.82.64-5.92,1.11-7.9,3.2a8.71,8.71,0,0,0-1.9,7.16,8.84,8.84,0,0,1-3.76-4.43,26.09,26.09,0,0,1-1.36-5.74c-.4-2.55-.74-5.4.77-7.49a8.9,8.9,0,0,1,3.59-2.59,45,45,0,0,1,9.07-3.18c3-.71,6.34-1.08,9,.42,2.06,1.14,3.43,3.2,4.58,5.26A5.68,5.68,0,0,1,351.26,410.12Z"/>
        <path class="bf6bd79b-8aaf-4b17-931b-817334ffb73d" d="M325,657.27c0-4,2.95-7.26,6.6-7.26s6.6,3.25,6.6,7.26"/>
        <rect class="a4013a4d-3afd-4a26-99e7-2a87a2cf1bfc" x="324.95" y="657.27" width="13.2" height="6.76"/>
        <path class="bf6bd79b-8aaf-4b17-931b-817334ffb73d" d="M368.46,657.27c0-4,3-7.26,6.6-7.26s6.6,3.25,6.6,7.26"/>
        <rect class="a4013a4d-3afd-4a26-99e7-2a87a2cf1bfc" x="368.46" y="657.27" width="13.2" height="6.76"/>
      </g>
    </g>
  </g>
  <g>
    <path class="bdf01914-81ef-4438-b94c-049e80f5e185" d="M364.24,244.22a5.07,5.07,0,0,1-5.07-5.07,228.69,228.69,0,0,1,5.73-48.7,5.07,5.07,0,0,1,9.85,2.42,222.22,222.22,0,0,0-5.44,46.28A5.07,5.07,0,0,1,364.24,244.22Z"/>
    <path class="bdf01914-81ef-4438-b94c-049e80f5e185" d="M387.62,244.22a5.07,5.07,0,0,1-5.07-5.07,222,222,0,0,0-5.43-46.28,5.07,5.07,0,1,1,9.84-2.42,228,228,0,0,1,5.73,48.7A5.07,5.07,0,0,1,387.62,244.22Z"/>
    <path class="a12a7b3e-ccc9-4e27-a59f-8d88d23c5d87" d="M364.86,238.77H354.28a4.28,4.28,0,0,0-4.28,4.28v1.47h19.14v-1.47A4.28,4.28,0,0,0,364.86,238.77Z"/>
    <polygon class="a12a7b3e-ccc9-4e27-a59f-8d88d23c5d87" points="369.37 238.77 369.49 244.52 362.86 244.52 360.63 238.77 369.37 238.77"/>
    <path class="a12a7b3e-ccc9-4e27-a59f-8d88d23c5d87" d="M387.07,238.77h10.57a4.28,4.28,0,0,1,4.28,4.28v1.47H382.79v-1.47A4.28,4.28,0,0,1,387.07,238.77Z"/>
    <polygon class="a12a7b3e-ccc9-4e27-a59f-8d88d23c5d87" points="382.55 238.77 382.43 244.52 389.06 244.52 391.29 238.77 382.55 238.77"/>
    <path class="bdf01914-81ef-4438-b94c-049e80f5e185" d="M284.82,244.22a5.07,5.07,0,0,1-5.07-5.07,228,228,0,0,1,5.73-48.7,5.07,5.07,0,0,1,9.85,2.42,221.44,221.44,0,0,0-5.44,46.28A5.07,5.07,0,0,1,284.82,244.22Z"/>
    <path class="bdf01914-81ef-4438-b94c-049e80f5e185" d="M308.2,244.22a5.07,5.07,0,0,1-5.07-5.07,220.8,220.8,0,0,0-5.44-46.28,5.07,5.07,0,0,1,9.85-2.42,228.69,228.69,0,0,1,5.73,48.7A5.07,5.07,0,0,1,308.2,244.22Z"/>
    <path class="a12a7b3e-ccc9-4e27-a59f-8d88d23c5d87" d="M285.43,238.77H274.86a4.28,4.28,0,0,0-4.28,4.28v1.47h19.13v-1.47A4.28,4.28,0,0,0,285.43,238.77Z"/>
    <polygon class="a12a7b3e-ccc9-4e27-a59f-8d88d23c5d87" points="289.95 238.77 290.07 244.52 283.44 244.52 281.21 238.77 289.95 238.77"/>
    <path class="a12a7b3e-ccc9-4e27-a59f-8d88d23c5d87" d="M307.65,238.77h10.57a4.28,4.28,0,0,1,4.28,4.28v1.47H303.37v-1.47A4.28,4.28,0,0,1,307.65,238.77Z"/>
    <polygon class="a12a7b3e-ccc9-4e27-a59f-8d88d23c5d87" points="303.13 238.77 303.01 244.52 309.64 244.52 311.87 238.77 303.13 238.77"/>
    <path class="a2956bf0-5841-4cf2-ac38-e3ac8680fc3e" d="M327.27,155.16a.34.34,0,0,1-.34-.34V110.68a.34.34,0,0,1,.68,0v44.14A.34.34,0,0,1,327.27,155.16Z"/>
    <path class="e3336575-f4b9-4d0f-a7e3-5f71c151343d" d="M343.39,88.15A16.11,16.11,0,0,0,335,74a16.18,16.18,0,0,0-15.44,0,16.11,16.11,0,0,0-8.39,14.15c0,7.26,4.77,13.06,6.24,14.87,3.67,4.49,6.33,7.86,9.87,7.86s6-3.23,9.58-7.52C338.45,101.48,343.39,95.69,343.39,88.15Z"/>
    <g>
      <polygon class="bdf01914-81ef-4438-b94c-049e80f5e185" points="327.97 110.68 327.28 110.68 326.59 110.68 325.54 113.97 327.28 113.97 329.02 113.97 327.97 110.68"/>
      <path class="bdf01914-81ef-4438-b94c-049e80f5e185" d="M329,114.65h-3.48a.7.7,0,0,1-.55-.28.68.68,0,0,1-.1-.6l1.06-3.29a.68.68,0,0,1,.64-.47H328a.68.68,0,0,1,.64.47l1.06,3.29a.68.68,0,0,1-.1.6A.7.7,0,0,1,329,114.65Zm-2.56-1.35h1.64l-.63-1.94h-.38Z"/>
    </g>
    <g>
      <circle class="a158d933-a562-4584-b3e5-449768e175a5" cx="280.24" cy="131.69" r="3.27"/>
      <path class="a158d933-a562-4584-b3e5-449768e175a5" d="M280.24,135.3a3.61,3.61,0,1,1,3.62-3.61A3.61,3.61,0,0,1,280.24,135.3Zm0-6.55a2.94,2.94,0,1,0,2.94,2.94A2.94,2.94,0,0,0,280.24,128.75Z"/>
    </g>
    <g>
      <circle class="a158d933-a562-4584-b3e5-449768e175a5" cx="312.48" cy="131.69" r="3.27"/>
      <path class="a158d933-a562-4584-b3e5-449768e175a5" d="M312.48,135.3a3.61,3.61,0,1,1,3.61-3.61A3.61,3.61,0,0,1,312.48,135.3Zm0-6.55a2.94,2.94,0,1,0,2.94,2.94A2.94,2.94,0,0,0,312.48,128.75Z"/>
    </g>
    <g>
      <path class="a2956bf0-5841-4cf2-ac38-e3ac8680fc3e" d="M391,118.93a101.93,101.93,0,0,1,2.61,39.44H375.44V116Z"/>
      <path class="a2956bf0-5841-4cf2-ac38-e3ac8680fc3e" d="M394,158.71H375.1V115.63l16.2,3,.07.2A103.52,103.52,0,0,1,394,158.41ZM375.78,158h17.58a103.5,103.5,0,0,0-2.58-38.81l-15-2.78Z"/>
    </g>
    <g>
      <path class="a2956bf0-5841-4cf2-ac38-e3ac8680fc3e" d="M360.52,118.93a101.93,101.93,0,0,0-2.61,39.44h18.21V116Z"/>
      <path class="a2956bf0-5841-4cf2-ac38-e3ac8680fc3e" d="M376.46,158.71H357.61l0-.3a103.52,103.52,0,0,1,2.62-39.58l.06-.2,16.21-3ZM358.2,158h17.58V116.44l-15,2.78A103.5,103.5,0,0,0,358.2,158Z"/>
    </g>
    <rect class="bf6bd79b-8aaf-4b17-931b-817334ffb73d" x="359.9" y="107.42" width="31.77" height="43.04" rx="15.89"/>
    <rect class="ae60162c-50c6-44eb-a0cf-1dd4a2651f41" x="365.65" y="127.52" width="4.24" height="2.28" rx="1.14"/>
    <rect class="ae60162c-50c6-44eb-a0cf-1dd4a2651f41" x="381.7" y="127.52" width="4.24" height="2.28" rx="1.14"/>
    <circle class="a2956bf0-5841-4cf2-ac38-e3ac8680fc3e" cx="383.82" cy="128.66" r="0.91"/>
    <path class="a2956bf0-5841-4cf2-ac38-e3ac8680fc3e" d="M369.17,124.78h-3.52a1,1,0,1,1,0-2h3.52a1,1,0,0,1,0,2Z"/>
    <path class="a2956bf0-5841-4cf2-ac38-e3ac8680fc3e" d="M385.82,124.78H382.3a1,1,0,1,1,0-2h3.52a1,1,0,0,1,0,2Z"/>
    <g class="a17d14d4-37d8-41b9-946c-a6f90ef287f3">
      <circle class="a2956bf0-5841-4cf2-ac38-e3ac8680fc3e" cx="367.76" cy="128.66" r="0.89"/>
    </g>
    <path class="ed5a11d8-59f6-49e0-8fa0-2a5eb1957e25" d="M375.79,142.65a9.37,9.37,0,0,1-6.64-2.56.67.67,0,0,1-.06-1,.68.68,0,0,1,1-.07,8.56,8.56,0,0,0,11.5,0,.68.68,0,0,1,.95.07.67.67,0,0,1-.06,1A9.37,9.37,0,0,1,375.79,142.65Z"/>
    <path class="ed5a11d8-59f6-49e0-8fa0-2a5eb1957e25" d="M377.21,134.5h-1.29a1.52,1.52,0,0,1-1.57-1.55v-1.26a.68.68,0,1,1,1.36,0V133c0,.2.1.2.21.2h1.29a.68.68,0,1,1,0,1.35Z"/>
    <g>
      <path class="a2956bf0-5841-4cf2-ac38-e3ac8680fc3e" d="M375.89,107.42l.23,11.29h13l2.6,13v-8.38A15.9,15.9,0,0,0,375.89,107.42Z"/>
      <path class="a2956bf0-5841-4cf2-ac38-e3ac8680fc3e" d="M391.34,131.76l-2.53-12.71h-13l-.25-12h.35A16.27,16.27,0,0,1,392,123.31v8.38Zm-14.89-13.39h12.91l2,9.9v-5a15.58,15.58,0,0,0-15.11-15.54Z"/>
    </g>
    <g>
      <path class="a2956bf0-5841-4cf2-ac38-e3ac8680fc3e" d="M375.69,107.42l-.23,11.29h-13l-2.6,13v-8.38A15.9,15.9,0,0,1,375.69,107.42Z"/>
      <path class="a2956bf0-5841-4cf2-ac38-e3ac8680fc3e" d="M360.24,131.76l-.67-.07v-8.38a16.27,16.27,0,0,1,16.12-16.23H376l-.25,12h-13Zm15.11-24a15.58,15.58,0,0,0-15.11,15.54v5l2-9.9h12.91Z"/>
    </g>
    <g>
      <path class="a2956bf0-5841-4cf2-ac38-e3ac8680fc3e" d="M362.89,119.08s-.68,24.33,1.1,37.52c.42.67-3.21.59-3.21.59L358,136.57l3.72-19.1Z"/>
      <path class="a2956bf0-5841-4cf2-ac38-e3ac8680fc3e" d="M361.34,157.53h-.86l-2.83-21v-.06l3.86-19.85,1.71,2.32v.12c0,.24-.65,24.39,1.09,37.4a.51.51,0,0,1,0,.45C364,157.41,362.64,157.53,361.34,157.53Zm-.27-.68a8.74,8.74,0,0,0,2.58-.23C362,144,362.5,121,362.55,119.18l-.66-.89-3.56,18.29Z"/>
    </g>
    <g>
      <path class="a2956bf0-5841-4cf2-ac38-e3ac8680fc3e" d="M388.67,119.08s.67,24.33-1.1,37.52c-.42.67,3.21.59,3.21.59l2.79-20.62-3.72-19.1Z"/>
      <path class="a2956bf0-5841-4cf2-ac38-e3ac8680fc3e" d="M390.22,157.53c-1.3,0-2.69-.12-3-.59a.51.51,0,0,1,0-.45c1.74-13,1.1-37.16,1.09-37.4V119l1.71-2.32,3.87,19.91v.05l-2.82,20.91h-.86Zm-2.31-.91a9.65,9.65,0,0,0,2.58.23l2.74-20.27-3.56-18.29-.66.89C389.06,121,389.6,144,387.91,156.62Z"/>
    </g>
    <path class="bf6bd79b-8aaf-4b17-931b-817334ffb73d" d="M376.35,164.57a4.05,4.05,0,0,1-4.05-4.06V147a4.06,4.06,0,1,1,8.11,0v13.52A4.06,4.06,0,0,1,376.35,164.57Z"/>
    <rect class="e3336575-f4b9-4d0f-a7e3-5f71c151343d" x="360.71" y="156" width="30.64" height="38.58" rx="9.8"/>
    <rect class="bdf01914-81ef-4438-b94c-049e80f5e185" x="360.71" y="181.53" width="30.64" height="14.32"/>
    <rect class="bdf01914-81ef-4438-b94c-049e80f5e185" x="360.71" y="190.34" width="30.64" height="11.02" rx="5.51"/>
    <g>
      <rect class="a158d933-a562-4584-b3e5-449768e175a5" x="280.48" y="107.42" width="31.77" height="43.04" rx="15.89"/>
      <path class="a158d933-a562-4584-b3e5-449768e175a5" d="M296.37,150.8a16.25,16.25,0,0,1-16.23-16.23V123.31a16.23,16.23,0,1,1,32.45,0v11.26A16.25,16.25,0,0,1,296.37,150.8Zm0-43a15.56,15.56,0,0,0-15.55,15.55v11.26a15.55,15.55,0,1,0,31.09,0V123.31A15.56,15.56,0,0,0,296.37,107.76Z"/>
    </g>
    <rect class="ae60162c-50c6-44eb-a0cf-1dd4a2651f41" x="286.22" y="127.52" width="4.24" height="2.28" rx="1.14"/>
    <rect class="ae60162c-50c6-44eb-a0cf-1dd4a2651f41" x="302.28" y="127.52" width="4.24" height="2.28" rx="1.14"/>
    <circle class="a2956bf0-5841-4cf2-ac38-e3ac8680fc3e" cx="304.39" cy="128.66" r="0.91"/>
    <path class="a2956bf0-5841-4cf2-ac38-e3ac8680fc3e" d="M289.74,124.78h-3.52a1,1,0,0,1,0-2h3.52a1,1,0,1,1,0,2Z"/>
    <path class="a2956bf0-5841-4cf2-ac38-e3ac8680fc3e" d="M306.39,124.78h-3.52a1,1,0,0,1,0-2h3.52a1,1,0,1,1,0,2Z"/>
    <g class="ad6dc244-7cfd-42d9-89d0-b39bd733fd52">
      <circle class="a2956bf0-5841-4cf2-ac38-e3ac8680fc3e" cx="288.34" cy="128.66" r="0.89"/>
    </g>
    <path class="ed5a11d8-59f6-49e0-8fa0-2a5eb1957e25" d="M296.37,142.65a9.37,9.37,0,0,1-6.64-2.56.68.68,0,0,1-.07-1,.69.69,0,0,1,1-.07,8.54,8.54,0,0,0,11.49,0,.69.69,0,0,1,1,.07.68.68,0,0,1-.07,1A9.34,9.34,0,0,1,296.37,142.65Z"/>
    <path class="ed5a11d8-59f6-49e0-8fa0-2a5eb1957e25" d="M297.79,134.5h-1.3a1.52,1.52,0,0,1-1.56-1.55v-1.26a.68.68,0,1,1,1.35,0V133c0,.2.11.2.21.2h1.3a.68.68,0,0,1,0,1.35Z"/>
    <g>
      <path class="bf6bd79b-8aaf-4b17-931b-817334ffb73d" d="M296.47,107.42l.23,11.29h13l2.59,13v-8.38A15.89,15.89,0,0,0,296.47,107.42Z"/>
      <path class="bf6bd79b-8aaf-4b17-931b-817334ffb73d" d="M311.92,131.76l-2.54-12.71h-13l-.25-12h.35a16.27,16.27,0,0,1,16.12,16.23v8.38ZM297,118.37h12.91l2,9.9v-5a15.57,15.57,0,0,0-15.1-15.54Z"/>
    </g>
    <g>
      <path class="bf6bd79b-8aaf-4b17-931b-817334ffb73d" d="M296.27,107.42,296,118.71h-13l-2.59,13v-8.38A15.9,15.9,0,0,1,296.27,107.42Z"/>
      <path class="bf6bd79b-8aaf-4b17-931b-817334ffb73d" d="M280.81,131.76l-.67-.07v-8.38a16.27,16.27,0,0,1,16.12-16.23h.35l-.24,12h-13Zm15.11-24a15.57,15.57,0,0,0-15.1,15.54v5l2-9.9H295.7Z"/>
    </g>
    <path class="a158d933-a562-4584-b3e5-449768e175a5" d="M296.93,164.57a4.06,4.06,0,0,1-4.06-4.06V147a4.06,4.06,0,0,1,8.12,0v13.52A4.06,4.06,0,0,1,296.93,164.57Z"/>
    <rect class="bf6bd79b-8aaf-4b17-931b-817334ffb73d" x="281.29" y="156" width="30.64" height="38.58" rx="13.43"/>
    <rect class="bdf01914-81ef-4438-b94c-049e80f5e185" x="281.29" y="181.53" width="30.64" height="14.32"/>
    <rect class="bdf01914-81ef-4438-b94c-049e80f5e185" x="281.29" y="190.34" width="30.64" height="11.02" rx="5.51"/>
    <path class="bf6bd79b-8aaf-4b17-931b-817334ffb73d" d="M320.45,171.05c-9.46,0-17.8-8.17-18.17-8.54l4.28-4.32c.08.08,7.85,7.66,15.14,6.7,3.3-.43,6.05-2.58,8.4-6.56,2.72-4.62,3.48-8.75,2.26-12.29-2-5.88-8.87-8.66-8.94-8.68l2.21-5.67c.39.15,9.51,3.77,12.47,12.32,1.84,5.31.91,11.16-2.76,17.4-3.32,5.64-7.66,8.84-12.88,9.52A17.07,17.07,0,0,1,320.45,171.05Z"/>
    <rect class="a158d933-a562-4584-b3e5-449768e175a5" x="322.07" y="131.55" width="6.92" height="6.92" rx="1.75" transform="translate(113.57 -146.54) rotate(30.5)"/>
    <path class="bf6bd79b-8aaf-4b17-931b-817334ffb73d" d="M273.86,200.76l-6.08-.3c1.79-35.77,19.05-42.65,19.79-42.93l2.14,5.7-1.07-2.85,1.1,2.83s-3.56,1.49-7.24,6.72C279,174.87,274.69,184.23,273.86,200.76Z"/>
    <rect class="a158d933-a562-4584-b3e5-449768e175a5" x="267.36" y="197.9" width="6.92" height="6.92" rx="1.75" transform="matrix(1, 0, 0, 1, 0.4, -0.53)"/>
    <path class="e3336575-f4b9-4d0f-a7e3-5f71c151343d" d="M399.87,169.75c-9.45,0-17.8-8.18-18.17-8.55l4.28-4.32c.08.08,7.85,7.66,15.15,6.7,3.3-.43,6-2.58,8.39-6.56,2.72-4.62,3.48-8.75,2.27-12.29-2-5.88-8.87-8.65-8.94-8.68l2.21-5.67c.38.15,9.5,3.77,12.46,12.32,1.85,5.31.92,11.17-2.76,17.41-3.32,5.63-7.65,8.84-12.87,9.51A15.33,15.33,0,0,1,399.87,169.75Z"/>
    <rect class="a158d933-a562-4584-b3e5-449768e175a5" x="401.5" y="130.24" width="6.92" height="6.92" rx="1.75" transform="matrix(0.86, 0.51, -0.51, 0.86, 123.9, -187.04)"/>
    <path class="e3336575-f4b9-4d0f-a7e3-5f71c151343d" d="M352.91,199.77l-6.07-.31c1.79-35.77,19.05-42.65,19.78-42.92l2.14,5.69-1.07-2.85,1.11,2.84s-3.56,1.49-7.25,6.71C358.07,173.88,353.74,183.24,352.91,199.77Z"/>
    <rect class="a158d933-a562-4584-b3e5-449768e175a5" x="346.27" y="197.92" width="6.92" height="6.92" rx="1.75" transform="matrix(1, 0, 0, 1, 0.4, -0.69)"/>
  </g>
  <g>
    <line class="a8cc23d4-7786-4e7d-8e68-9e3ac8d2ff08" x1="235.97" y1="61.26" x2="235.97" y2="33.32"/>
    <path class="af7d2b66-37e6-4746-94cc-38d6aeaf2565" d="M228.78,35.11s.65,7.23,7.19,9.86"/>
    <path class="af7d2b66-37e6-4746-94cc-38d6aeaf2565" d="M243,32.33s-.85,8.51-7.07,8.51"/>
    <circle class="e6b4d94b-62f3-4a13-ad25-81f7d0838fef" cx="244.2" cy="31.23" r="5.62"/>
    <circle class="e6b4d94b-62f3-4a13-ad25-81f7d0838fef" cx="248.14" cy="15.98" r="5.62"/>
    <circle class="e6b4d94b-62f3-4a13-ad25-81f7d0838fef" cx="224.86" cy="16.53" r="6.72"/>
    <circle class="e6b4d94b-62f3-4a13-ad25-81f7d0838fef" cx="235.42" cy="32.88" r="4.38"/>
    <circle class="e6b4d94b-62f3-4a13-ad25-81f7d0838fef" cx="249.82" cy="25.11" r="7.23"/>
    <circle class="e6b4d94b-62f3-4a13-ad25-81f7d0838fef" cx="221.27" cy="25.11" r="6.47"/>
    <circle class="e6b4d94b-62f3-4a13-ad25-81f7d0838fef" cx="233.09" cy="12.67" r="9.64"/>
    <circle class="e6b4d94b-62f3-4a13-ad25-81f7d0838fef" cx="240.28" cy="14.04" r="7.7"/>
    <circle class="e6b4d94b-62f3-4a13-ad25-81f7d0838fef" cx="234.64" cy="23.68" r="9.64"/>
    <circle class="e6b4d94b-62f3-4a13-ad25-81f7d0838fef" cx="227.63" cy="31.23" r="5.61"/>
  </g>
</svg>
