<svg class="story-screen__graphic" id="f2b73c28-4b58-4bc2-b7cf-64e1ee14c1bc" data-name="Layer 1" xmlns="http://www.w3.org/2000/svg" xmlns:xlink="http://www.w3.org/1999/xlink" viewBox="0 0 463.57 727.68">
  <defs>
    <style>
      .a05114c2-2be9-41b0-a235-b94a5ac25b63, .a1a46b55-4256-4dfc-90b4-a5444ffac8a4, .a573872d-833e-4d68-bda7-d13dc16d7ffd, .ac247d0e-1ed7-4cc5-8325-4dc09b6aebcb, .af559e44-63d8-4b16-b2e0-503876b8de13, .b1b0d54a-412d-436b-8937-4888888bb5ec, .b5d0c1e7-4f4c-42f4-a105-7239627c9cd2, .b735d450-812d-4ff4-99d3-1b2bdf4cb5fa, .b7384e66-03ce-4629-a18c-9f7533a91536, .b913b564-3667-4241-91d2-b93d9e53dbd7, .bcffd5cc-9674-49ae-8605-249502a59e42, .bd29a896-007e-48c4-8160-3927785d1370, .e0ad0c68-d4a4-41ea-8cb4-47ea486a67c0, .e1599874-8b24-4700-895a-38a2ff9a9c4d, .e3087774-dea0-4966-80ff-6c4a0a05d1d7, .fbc15399-66af-47f1-92af-1c8dfae02300 {
        fill: none;
      }

      .a7777e05-15a6-442c-9ed1-9aaec73925a8, .b17f370a-5143-46da-8302-6a8a0ff8f0db {
        fill: #ede8db;
      }

      .afd81a23-9b08-4bf8-a457-c4285226eecc, .bb493d1a-6446-450b-a14c-9b7255992596 {
        fill: #3c5743;
      }

      .a03d5964-5b37-40d9-91e3-fedee5b73518 {
        fill: #aeaaa1;
      }

      .a7086773-c19c-4194-955a-f95f50e7ba24 {
        fill: #fff;
      }

      .e73412d8-cd60-4993-b21e-db482453688c, .fe886365-9da8-4086-8a7e-201bf56e88e3 {
        fill: #77a9a2;
      }

      .a0281b54-337f-4632-8d6a-d1ba67bfc5d6, .a578d06c-1117-4fc0-9712-5b5c7eaa085a, .a7777e05-15a6-442c-9ed1-9aaec73925a8, .afd81a23-9b08-4bf8-a457-c4285226eecc, .b1b0d54a-412d-436b-8937-4888888bb5ec, .bcffd5cc-9674-49ae-8605-249502a59e42, .e73412d8-cd60-4993-b21e-db482453688c, .e8fd03a8-8f06-4f24-b3e1-72b6b07f4db1 {
        fill-rule: evenodd;
      }

      .a02e0681-0e6a-4b79-9c73-515ebe3a62ea, .a05114c2-2be9-41b0-a235-b94a5ac25b63, .b913b564-3667-4241-91d2-b93d9e53dbd7, .bcffd5cc-9674-49ae-8605-249502a59e42, .f4cbc9a1-e79c-4532-bc04-eb0e1056a37f {
        stroke: #ea5736;
      }

      .a02e0681-0e6a-4b79-9c73-515ebe3a62ea, .a05114c2-2be9-41b0-a235-b94a5ac25b63, .a1a46b55-4256-4dfc-90b4-a5444ffac8a4, .a47db93b-71dc-4e75-b3a1-f36884b51b31, .a573872d-833e-4d68-bda7-d13dc16d7ffd, .ae8ca2c3-0069-4a0f-9b9e-666f609ecb1c, .af559e44-63d8-4b16-b2e0-503876b8de13, .af583bec-03d7-4b44-ac0d-3b2f55a165a1, .b913b564-3667-4241-91d2-b93d9e53dbd7, .bca3c73e-1fda-485e-a285-06549fffa0b7, .bcffd5cc-9674-49ae-8605-249502a59e42, .e0ad0c68-d4a4-41ea-8cb4-47ea486a67c0, .f15a7cff-c59e-4478-b0e9-dc7c79742d96, .f4cbc9a1-e79c-4532-bc04-eb0e1056a37f, .fbc15399-66af-47f1-92af-1c8dfae02300, .ff6305ab-55de-497d-9046-948c1e943f15 {
        stroke-miterlimit: 10;
      }

      .a05114c2-2be9-41b0-a235-b94a5ac25b63 {
        stroke-width: 5.85px;
      }

      .a49bdf7e-d4cd-4b0b-9110-45aa4bc4aaea, .ac247d0e-1ed7-4cc5-8325-4dc09b6aebcb, .aed6e08a-5ea5-4a93-9b38-1278ab5fc6fa, .af559e44-63d8-4b16-b2e0-503876b8de13, .af583bec-03d7-4b44-ac0d-3b2f55a165a1, .b07ab3be-2393-44d5-81dc-dedcf760106c, .b1b0d54a-412d-436b-8937-4888888bb5ec, .b5d0c1e7-4f4c-42f4-a105-7239627c9cd2, .b735d450-812d-4ff4-99d3-1b2bdf4cb5fa, .b7384e66-03ce-4629-a18c-9f7533a91536, .b913b564-3667-4241-91d2-b93d9e53dbd7, .bcffd5cc-9674-49ae-8605-249502a59e42, .bd29a896-007e-48c4-8160-3927785d1370, .e3087774-dea0-4966-80ff-6c4a0a05d1d7, .ecc8dc2d-5e8d-45ea-baa4-20f5a0f7836a, .ecec7cf5-155d-4f53-8a68-f7370ce34f13, .efc82684-daca-42de-a93a-ebaa0c902d06, .fbc08c54-5d02-4e55-9ca3-792860604ac7 {
        stroke-linecap: round;
      }

      .b913b564-3667-4241-91d2-b93d9e53dbd7 {
        stroke-width: 2.51px;
      }

      .b939dd85-cf87-4051-a216-eab57887a1ac {
        fill: #a2a081;
      }

      .ecec7cf5-155d-4f53-8a68-f7370ce34f13 {
        fill: #062837;
        stroke-width: 4.24px;
      }

      .b5d0c1e7-4f4c-42f4-a105-7239627c9cd2, .ecec7cf5-155d-4f53-8a68-f7370ce34f13 {
        stroke: #062837;
      }

      .a49bdf7e-d4cd-4b0b-9110-45aa4bc4aaea, .ac247d0e-1ed7-4cc5-8325-4dc09b6aebcb, .aed6e08a-5ea5-4a93-9b38-1278ab5fc6fa, .b07ab3be-2393-44d5-81dc-dedcf760106c, .b1b0d54a-412d-436b-8937-4888888bb5ec, .b5d0c1e7-4f4c-42f4-a105-7239627c9cd2, .b735d450-812d-4ff4-99d3-1b2bdf4cb5fa, .b7384e66-03ce-4629-a18c-9f7533a91536, .bd29a896-007e-48c4-8160-3927785d1370, .e3087774-dea0-4966-80ff-6c4a0a05d1d7, .ecc8dc2d-5e8d-45ea-baa4-20f5a0f7836a, .ecec7cf5-155d-4f53-8a68-f7370ce34f13, .efc82684-daca-42de-a93a-ebaa0c902d06, .fbc08c54-5d02-4e55-9ca3-792860604ac7 {
        stroke-linejoin: round;
      }

      .e66aa7dd-e2ee-40e4-95d2-aef7fcf75e33 {
        fill: #d5a555;
      }

      .bf6af612-0cc4-49de-9f7b-b3f053858372, .fbc08c54-5d02-4e55-9ca3-792860604ac7 {
        fill: #002838;
      }

      .fbc08c54-5d02-4e55-9ca3-792860604ac7 {
        stroke: #002838;
        stroke-width: 2.11px;
      }

      .af48099e-3fd9-4610-9e75-290321277e38 {
        fill: #89563c;
      }

      .aa390313-a405-43a0-81be-44b018048e03, .b07ab3be-2393-44d5-81dc-dedcf760106c {
        fill: #ece8dc;
      }

      .b07ab3be-2393-44d5-81dc-dedcf760106c {
        stroke: #ece8dc;
        stroke-width: 5.08px;
      }

      .a49bdf7e-d4cd-4b0b-9110-45aa4bc4aaea, .ae8ca2c3-0069-4a0f-9b9e-666f609ecb1c, .f509e71a-1909-4795-a392-e7620e07d333 {
        fill: #8a533b;
      }

      .a0281b54-337f-4632-8d6a-d1ba67bfc5d6, .acf5e02d-9fee-4559-9567-1b29274c72b6 {
        fill: #ea5736;
      }

      .b9d78203-5b58-42cf-a212-64f48f59fac3 {
        fill: #1d1d1b;
      }

      .bcffd5cc-9674-49ae-8605-249502a59e42 {
        stroke-width: 0.45px;
      }

      .e8fd03a8-8f06-4f24-b3e1-72b6b07f4db1, .f6622975-08db-47e2-bfc6-0dc57baffc4d {
        fill: #062838;
      }

      .bddac0cc-adc5-4398-b779-5041b7b73bc5 {
        fill: #2e2d2c;
      }

      .e129a607-7147-4f24-ac50-f449381ad377 {
        fill: #afaca3;
      }

      .a573872d-833e-4d68-bda7-d13dc16d7ffd, .e3087774-dea0-4966-80ff-6c4a0a05d1d7 {
        stroke: #867f72;
      }

      .a573872d-833e-4d68-bda7-d13dc16d7ffd {
        stroke-width: 0.35px;
      }

      .a578d06c-1117-4fc0-9712-5b5c7eaa085a, .aa6422a7-4df0-461b-9e3a-2f0847c86fc4 {
        fill: #867f72;
      }

      .af583bec-03d7-4b44-ac0d-3b2f55a165a1, .f6e4f1e6-091a-4456-ad4c-9fac27d19b7f {
        fill: #4d4d4c;
      }

      .e0ad0c68-d4a4-41ea-8cb4-47ea486a67c0 {
        stroke: #afaca3;
        stroke-width: 0.33px;
      }

      .a1a46b55-4256-4dfc-90b4-a5444ffac8a4 {
        stroke: #ede8db;
        stroke-width: 0.4px;
      }

      .af559e44-63d8-4b16-b2e0-503876b8de13, .fbc15399-66af-47f1-92af-1c8dfae02300 {
        stroke: #9c9589;
        stroke-width: 3.32px;
      }

      .e3087774-dea0-4966-80ff-6c4a0a05d1d7 {
        stroke-width: 2.95px;
      }

      .af583bec-03d7-4b44-ac0d-3b2f55a165a1 {
        stroke: #4d4d4c;
        stroke-width: 1.11px;
      }

      .a108ffd6-615c-451d-9214-1a67bc58dd15 {
        fill: #ded9d1;
      }

      .a47db93b-71dc-4e75-b3a1-f36884b51b31, .bca3c73e-1fda-485e-a285-06549fffa0b7, .bd85fb35-96bd-4285-a3c8-8c36ea37bc41, .ecc8dc2d-5e8d-45ea-baa4-20f5a0f7836a, .efc82684-daca-42de-a93a-ebaa0c902d06, .f15a7cff-c59e-4478-b0e9-dc7c79742d96, .ff6305ab-55de-497d-9046-948c1e943f15 {
        fill: #d4a455;
      }

      .a47db93b-71dc-4e75-b3a1-f36884b51b31, .bca3c73e-1fda-485e-a285-06549fffa0b7, .ecc8dc2d-5e8d-45ea-baa4-20f5a0f7836a, .efc82684-daca-42de-a93a-ebaa0c902d06, .f15a7cff-c59e-4478-b0e9-dc7c79742d96, .ff6305ab-55de-497d-9046-948c1e943f15 {
        stroke: #d4a455;
      }

      .efc82684-daca-42de-a93a-ebaa0c902d06 {
        stroke-width: 18.13px;
      }

      .bca3c73e-1fda-485e-a285-06549fffa0b7 {
        stroke-width: 0.39px;
      }

      .f7bf90f5-80d2-47c5-81a3-a7f35bf67a40 {
        fill: #2d2e2c;
      }

      .a49bdf7e-d4cd-4b0b-9110-45aa4bc4aaea, .ae8ca2c3-0069-4a0f-9b9e-666f609ecb1c {
        stroke: #8a533b;
      }

      .a49bdf7e-d4cd-4b0b-9110-45aa4bc4aaea {
        stroke-width: 3.4px;
      }

      .e8697eda-029d-417a-9034-c724f30d15ae {
        clip-path: url(#e362ebbc-871d-43a3-8f75-23b5414c730d);
      }

      .b7384e66-03ce-4629-a18c-9f7533a91536 {
        stroke: #31373a;
        stroke-width: 1.76px;
      }

      .aed6e08a-5ea5-4a93-9b38-1278ab5fc6fa, .e3957c86-1b68-4fb8-92ea-5c2d7f6a67ec {
        fill: #868072;
      }

      .ff6305ab-55de-497d-9046-948c1e943f15 {
        stroke-width: 0.91px;
      }

      .ae8ca2c3-0069-4a0f-9b9e-666f609ecb1c {
        stroke-width: 2.01px;
      }

      .a02e0681-0e6a-4b79-9c73-515ebe3a62ea, .b34f524e-a3e6-46ea-aab8-8ff736548d9f, .f4cbc9a1-e79c-4532-bc04-eb0e1056a37f {
        fill: #ea5836;
      }

      .f4cbc9a1-e79c-4532-bc04-eb0e1056a37f {
        stroke-width: 0.63px;
      }

      .f65ff285-8162-4b72-afe6-f13f23476d01 {
        fill: #aeaaa2;
      }

      .fc73d2fe-4485-4991-8709-24ab10bad3c2 {
        fill: #79a9a2;
      }

      .a3b3488c-5460-4316-b0d1-81d7078709c5 {
        fill: #3d5843;
      }

      .ecc8dc2d-5e8d-45ea-baa4-20f5a0f7836a {
        stroke-width: 0.35px;
      }

      .aed6e08a-5ea5-4a93-9b38-1278ab5fc6fa {
        stroke: #868072;
        stroke-width: 0.23px;
      }

      .f3534d46-efe7-4e2a-87e2-0ba7e81b07f4 {
        fill: #9c9589;
      }

      .ac247d0e-1ed7-4cc5-8325-4dc09b6aebcb, .b1b0d54a-412d-436b-8937-4888888bb5ec, .bd29a896-007e-48c4-8160-3927785d1370 {
        stroke: #d4a555;
      }

      .b1b0d54a-412d-436b-8937-4888888bb5ec {
        stroke-width: 5.62px;
      }

      .bd29a896-007e-48c4-8160-3927785d1370 {
        stroke-width: 7.49px;
      }

      .a47db93b-71dc-4e75-b3a1-f36884b51b31 {
        stroke-width: 0.63px;
      }

      .ac247d0e-1ed7-4cc5-8325-4dc09b6aebcb {
        stroke-width: 4.72px;
      }

      .b735d450-812d-4ff4-99d3-1b2bdf4cb5fa {
        stroke: #30383b;
      }

      .b5d0c1e7-4f4c-42f4-a105-7239627c9cd2, .b735d450-812d-4ff4-99d3-1b2bdf4cb5fa {
        stroke-width: 1.57px;
      }

      .f15a7cff-c59e-4478-b0e9-dc7c79742d96 {
        stroke-width: 0.51px;
      }

      .a0c53ede-79df-4be4-8e80-3f9879942b7c {
        clip-path: url(#bb4a5053-62f5-41f1-86a6-c6c6bee05be0);
      }

      .a02e0681-0e6a-4b79-9c73-515ebe3a62ea {
        stroke-width: 0.35px;
      }

      .b0f1d2fe-a436-4e79-b45e-08b63833ee7c {
        fill: #d4a555;
      }
    </style>
    <clipPath id="e362ebbc-871d-43a3-8f75-23b5414c730d">
      <rect class="e1599874-8b24-4700-895a-38a2ff9a9c4d" x="45.82" y="503.01" width="5.52" height="2.98" rx="0.92"/>
    </clipPath>
    <clipPath id="bb4a5053-62f5-41f1-86a6-c6c6bee05be0">
      <rect class="e1599874-8b24-4700-895a-38a2ff9a9c4d" x="240.13" y="513.35" width="4.93" height="2.65" rx="1.15" transform="translate(-25.03 12.56) rotate(-2.82)"/>
    </clipPath>
  </defs>
  <rect class="b17f370a-5143-46da-8302-6a8a0ff8f0db" x="-3.25" y="-926.73" width="465.11" height="2577.43"/>
  <polygon class="bb493d1a-6446-450b-a14c-9b7255992596" points="433.49 0.69 462.85 0 462.97 729.5 382.49 428.39 382.49 29.23 433.49 0.69"/>
  <path class="a03d5964-5b37-40d9-91e3-fedee5b73518" d="M470.26,733.81a1686,1686,0,0,1-44.88-638.6c10.24-83.9,43.15-154.54,35.12-238.68L356.72-141.6c8,84.14-8.58,149.38-18.82,233.29a1685.88,1685.88,0,0,0,44.88,638.59Z"/>
  <rect class="a7086773-c19c-4194-955a-f95f50e7ba24" x="463.38" y="629.41" width="64.74" height="153.47"/>
  <rect class="a03d5964-5b37-40d9-91e3-fedee5b73518" x="128.23" y="110.75" width="228.47" height="35.97"/>
  <path class="e73412d8-cd60-4993-b21e-db482453688c" d="M236.22,140.29a6.45,6.45,0,0,0,0-.76,8.07,8.07,0,0,0-13.71-5.77,4.45,4.45,0,0,0-6.88,3.74,4.4,4.4,0,0,0,.17,1.2,6.57,6.57,0,0,0-4.63,6.27,6.7,6.7,0,0,0,.56,2.66h28a5.38,5.38,0,0,0-3.51-7.34Z"/>
  <path class="e73412d8-cd60-4993-b21e-db482453688c" d="M219.1,140.29c0-.25,0-.51,0-.76a8.08,8.08,0,0,0-13.72-5.77,4.44,4.44,0,0,0-6.87,3.74,4.82,4.82,0,0,0,.16,1.2,6.57,6.57,0,0,0-4.06,8.93h28a5.51,5.51,0,0,0,.44-2.15A5.37,5.37,0,0,0,219.1,140.29Z"/>
  <path class="e73412d8-cd60-4993-b21e-db482453688c" d="M192.58,140.29a6.45,6.45,0,0,0,0-.76,8.07,8.07,0,0,0-13.71-5.77A4.45,4.45,0,0,0,172,137.5a4.4,4.4,0,0,0,.17,1.2,6.57,6.57,0,0,0-4.06,8.93h28a5.38,5.38,0,0,0-3.51-7.34Z"/>
  <path class="e73412d8-cd60-4993-b21e-db482453688c" d="M165,140.29c0-.25,0-.51,0-.76a8.07,8.07,0,0,0-13.71-5.77,4.45,4.45,0,0,0-6.88,3.74,4.4,4.4,0,0,0,.17,1.2,6.57,6.57,0,0,0-4.06,8.93h27.95a5.38,5.38,0,0,0-3.5-7.34Z"/>
  <path class="e73412d8-cd60-4993-b21e-db482453688c" d="M328.22,140.29a6.45,6.45,0,0,0,0-.76,8.07,8.07,0,0,0-13.71-5.77,4.45,4.45,0,0,0-6.88,3.74,4.4,4.4,0,0,0,.17,1.2,6.57,6.57,0,0,0-4.63,6.27,6.7,6.7,0,0,0,.56,2.66h28a5.38,5.38,0,0,0-3.51-7.34Z"/>
  <path class="e73412d8-cd60-4993-b21e-db482453688c" d="M311.1,140.29c0-.25,0-.51,0-.76a8.08,8.08,0,0,0-13.72-5.77,4.44,4.44,0,0,0-6.87,3.74,4.82,4.82,0,0,0,.16,1.2,6.57,6.57,0,0,0-4.06,8.93h28a5.51,5.51,0,0,0,.45-2.15A5.38,5.38,0,0,0,311.1,140.29Z"/>
  <path class="e73412d8-cd60-4993-b21e-db482453688c" d="M284.58,140.29a6.45,6.45,0,0,0,0-.76,8.07,8.07,0,0,0-13.71-5.77A4.45,4.45,0,0,0,264,137.5a4.4,4.4,0,0,0,.17,1.2,6.57,6.57,0,0,0-4.06,8.93h27.95a5.38,5.38,0,0,0-3.51-7.34Z"/>
  <path class="e73412d8-cd60-4993-b21e-db482453688c" d="M257,140.29c0-.25,0-.51,0-.76a8.07,8.07,0,0,0-13.71-5.77,4.45,4.45,0,0,0-6.88,3.74,4.4,4.4,0,0,0,.17,1.2,6.57,6.57,0,0,0-4.06,8.93h28a5.38,5.38,0,0,0-3.5-7.34Z"/>
  <g>
    <line class="a05114c2-2be9-41b0-a235-b94a5ac25b63" x1="303.22" y1="154.64" x2="303.22" y2="111.34"/>
    <path class="b913b564-3667-4241-91d2-b93d9e53dbd7" d="M292.08,114.13s1,11.19,11.14,15.28"/>
    <path class="b913b564-3667-4241-91d2-b93d9e53dbd7" d="M314.18,109.82s-1.33,13.18-11,13.18"/>
    <circle class="b939dd85-cf87-4051-a216-eab57887a1ac" cx="315.97" cy="108.1" r="8.71"/>
    <circle class="b939dd85-cf87-4051-a216-eab57887a1ac" cx="322.07" cy="84.48" r="8.71"/>
    <circle class="b939dd85-cf87-4051-a216-eab57887a1ac" cx="286" cy="85.34" r="10.41"/>
    <circle class="b939dd85-cf87-4051-a216-eab57887a1ac" cx="302.38" cy="110.66" r="6.79"/>
    <circle class="b939dd85-cf87-4051-a216-eab57887a1ac" cx="324.68" cy="98.62" r="11.2"/>
    <circle class="b939dd85-cf87-4051-a216-eab57887a1ac" cx="280.44" cy="98.62" r="10.02"/>
    <circle class="b939dd85-cf87-4051-a216-eab57887a1ac" cx="298.75" cy="79.36" r="14.93"/>
    <circle class="b939dd85-cf87-4051-a216-eab57887a1ac" cx="309.9" cy="81.48" r="11.93"/>
    <circle class="b939dd85-cf87-4051-a216-eab57887a1ac" cx="301.16" cy="96.41" r="14.93"/>
    <circle class="b939dd85-cf87-4051-a216-eab57887a1ac" cx="290.31" cy="108.1" r="8.69"/>
  </g>
  <g>
    <line class="a05114c2-2be9-41b0-a235-b94a5ac25b63" x1="197.22" y1="154.64" x2="197.22" y2="111.34"/>
    <path class="b913b564-3667-4241-91d2-b93d9e53dbd7" d="M186.08,114.13s1,11.19,11.14,15.28"/>
    <path class="b913b564-3667-4241-91d2-b93d9e53dbd7" d="M208.18,109.82s-1.33,13.18-11,13.18"/>
    <circle class="b939dd85-cf87-4051-a216-eab57887a1ac" cx="209.97" cy="108.1" r="8.71"/>
    <circle class="b939dd85-cf87-4051-a216-eab57887a1ac" cx="216.07" cy="84.48" r="8.71"/>
    <circle class="b939dd85-cf87-4051-a216-eab57887a1ac" cx="180" cy="85.34" r="10.41"/>
    <circle class="b939dd85-cf87-4051-a216-eab57887a1ac" cx="196.38" cy="110.66" r="6.79"/>
    <circle class="b939dd85-cf87-4051-a216-eab57887a1ac" cx="218.68" cy="98.62" r="11.2"/>
    <circle class="b939dd85-cf87-4051-a216-eab57887a1ac" cx="174.44" cy="98.62" r="10.02"/>
    <circle class="b939dd85-cf87-4051-a216-eab57887a1ac" cx="192.75" cy="79.36" r="14.93"/>
    <circle class="b939dd85-cf87-4051-a216-eab57887a1ac" cx="203.9" cy="81.48" r="11.93"/>
    <circle class="b939dd85-cf87-4051-a216-eab57887a1ac" cx="195.16" cy="96.41" r="14.93"/>
    <circle class="b939dd85-cf87-4051-a216-eab57887a1ac" cx="184.3" cy="108.1" r="8.69"/>
  </g>
  <g>
    <line class="a05114c2-2be9-41b0-a235-b94a5ac25b63" x1="254.22" y1="154.64" x2="254.22" y2="111.34"/>
    <path class="b913b564-3667-4241-91d2-b93d9e53dbd7" d="M243.08,114.13s1,11.19,11.14,15.28"/>
    <path class="b913b564-3667-4241-91d2-b93d9e53dbd7" d="M265.18,109.82s-1.33,13.18-11,13.18"/>
    <circle class="bb493d1a-6446-450b-a14c-9b7255992596" cx="266.97" cy="108.1" r="8.71"/>
    <circle class="bb493d1a-6446-450b-a14c-9b7255992596" cx="273.07" cy="84.48" r="8.71"/>
    <circle class="bb493d1a-6446-450b-a14c-9b7255992596" cx="237" cy="85.34" r="10.41"/>
    <circle class="bb493d1a-6446-450b-a14c-9b7255992596" cx="253.38" cy="110.66" r="6.79"/>
    <circle class="bb493d1a-6446-450b-a14c-9b7255992596" cx="275.68" cy="98.62" r="11.2"/>
    <circle class="bb493d1a-6446-450b-a14c-9b7255992596" cx="231.44" cy="98.62" r="10.02"/>
    <circle class="bb493d1a-6446-450b-a14c-9b7255992596" cx="249.75" cy="79.36" r="14.93"/>
    <circle class="bb493d1a-6446-450b-a14c-9b7255992596" cx="260.9" cy="81.48" r="11.93"/>
    <circle class="bb493d1a-6446-450b-a14c-9b7255992596" cx="252.16" cy="96.41" r="14.93"/>
    <circle class="bb493d1a-6446-450b-a14c-9b7255992596" cx="241.3" cy="108.1" r="8.69"/>
  </g>
  <g>
    <polygon class="ecec7cf5-155d-4f53-8a68-f7370ce34f13" points="296.69 139.24 163.41 139.24 30.12 139.24 10.05 177.15 163.41 177.15 316.77 177.15 296.69 139.24"/>
    <rect class="e66aa7dd-e2ee-40e4-95d2-aef7fcf75e33" x="183.94" y="251.89" width="73.25" height="42.17" rx="0.42"/>
    <rect class="e66aa7dd-e2ee-40e4-95d2-aef7fcf75e33" x="10.57" y="179.14" width="303.11" height="108.82" rx="1.37"/>
    <rect class="b17f370a-5143-46da-8302-6a8a0ff8f0db" x="85.73" y="195" width="40" height="21.63" rx="0.43"/>
    <rect class="b17f370a-5143-46da-8302-6a8a0ff8f0db" x="28.4" y="195" width="40" height="21.63" rx="0.43"/>
    <rect class="b17f370a-5143-46da-8302-6a8a0ff8f0db" x="85.73" y="243.76" width="40" height="21.63" rx="0.43"/>
    <rect class="b17f370a-5143-46da-8302-6a8a0ff8f0db" x="28.4" y="243.76" width="40" height="21.63" rx="0.43"/>
    <rect class="b17f370a-5143-46da-8302-6a8a0ff8f0db" x="143.06" y="195" width="40" height="21.63" rx="0.43"/>
    <rect class="b17f370a-5143-46da-8302-6a8a0ff8f0db" x="279.81" y="243.76" width="18.24" height="21.63" rx="0.29"/>
    <rect class="b17f370a-5143-46da-8302-6a8a0ff8f0db" x="143.06" y="243.76" width="18.24" height="21.63" rx="0.29"/>
    <rect class="b17f370a-5143-46da-8302-6a8a0ff8f0db" x="212.18" y="195" width="18.24" height="21.63" rx="0.29"/>
    <rect class="b17f370a-5143-46da-8302-6a8a0ff8f0db" x="200.96" y="195" width="38.86" height="21.63" rx="0.43"/>
    <rect class="b17f370a-5143-46da-8302-6a8a0ff8f0db" x="258.29" y="195" width="38.86" height="21.63" rx="0.43"/>
    <rect class="b17f370a-5143-46da-8302-6a8a0ff8f0db" x="206.29" y="260.17" width="28.26" height="33.89" rx="0.23"/>
    <rect class="b17f370a-5143-46da-8302-6a8a0ff8f0db" x="239.65" y="260.17" width="15.17" height="28.28" rx="0.16"/>
    <rect class="b17f370a-5143-46da-8302-6a8a0ff8f0db" x="185.97" y="260.17" width="15.17" height="28.28" rx="0.16"/>
    <polygon class="fbc08c54-5d02-4e55-9ca3-792860604ac7" points="183.57 251.89 257.06 251.89 237.46 233.56 205.86 233.56 183.57 251.89"/>
    <path class="afd81a23-9b08-4bf8-a457-c4285226eecc" d="M289.82,294.05H246.65a10.84,10.84,0,0,1,5.67-7.8,7.16,7.16,0,0,1-1.27-2.34,7,7,0,0,1,10.61-8,10.83,10.83,0,0,1,18.85,3.42,10.76,10.76,0,0,1-.59,8A10.85,10.85,0,0,1,289.82,294.05Z"/>
    <path class="afd81a23-9b08-4bf8-a457-c4285226eecc" d="M158,294.05h43.17a10.87,10.87,0,0,0-5.67-7.8,7.16,7.16,0,0,0,1.27-2.34,7.06,7.06,0,0,0-10.62-8,10.82,10.82,0,0,0-18.26,11.39A10.84,10.84,0,0,0,158,294.05Z"/>
  </g>
  <g>
    <line class="a05114c2-2be9-41b0-a235-b94a5ac25b63" x1="143.22" y1="154.64" x2="143.22" y2="111.34"/>
    <path class="b913b564-3667-4241-91d2-b93d9e53dbd7" d="M132.08,114.13s1,11.19,11.14,15.28"/>
    <path class="b913b564-3667-4241-91d2-b93d9e53dbd7" d="M154.18,109.82s-1.33,13.18-11,13.18"/>
    <circle class="bb493d1a-6446-450b-a14c-9b7255992596" cx="155.97" cy="108.1" r="8.71"/>
    <circle class="bb493d1a-6446-450b-a14c-9b7255992596" cx="162.07" cy="84.48" r="8.71"/>
    <circle class="bb493d1a-6446-450b-a14c-9b7255992596" cx="126" cy="85.34" r="10.41"/>
    <circle class="bb493d1a-6446-450b-a14c-9b7255992596" cx="142.38" cy="110.66" r="6.79"/>
    <circle class="bb493d1a-6446-450b-a14c-9b7255992596" cx="164.68" cy="98.62" r="11.2"/>
    <circle class="bb493d1a-6446-450b-a14c-9b7255992596" cx="120.44" cy="98.62" r="10.02"/>
    <circle class="bb493d1a-6446-450b-a14c-9b7255992596" cx="138.75" cy="79.36" r="14.93"/>
    <circle class="bb493d1a-6446-450b-a14c-9b7255992596" cx="149.9" cy="81.48" r="11.93"/>
    <circle class="bb493d1a-6446-450b-a14c-9b7255992596" cx="141.16" cy="96.41" r="14.93"/>
    <circle class="bb493d1a-6446-450b-a14c-9b7255992596" cx="130.3" cy="108.1" r="8.69"/>
  </g>
  <rect class="af48099e-3fd9-4610-9e75-290321277e38" y="171.78" width="272.81" height="418.36"/>
  <rect class="b07ab3be-2393-44d5-81dc-dedcf760106c" x="136.08" y="221.27" width="72.84" height="72.84"/>
  <rect class="b07ab3be-2393-44d5-81dc-dedcf760106c" x="21.54" y="221.27" width="72.84" height="72.84"/>
  <rect class="b07ab3be-2393-44d5-81dc-dedcf760106c" x="19.57" y="331.43" width="72.84" height="72.84"/>
  <ellipse class="f509e71a-1909-4795-a392-e7620e07d333" cx="143.43" cy="154.51" rx="7.85" ry="2.56"/>
  <ellipse class="f509e71a-1909-4795-a392-e7620e07d333" cx="197.43" cy="154.51" rx="7.85" ry="2.56"/>
  <ellipse class="f509e71a-1909-4795-a392-e7620e07d333" cx="254.43" cy="154.51" rx="7.85" ry="2.56"/>
  <g>
    <path class="a7086773-c19c-4194-955a-f95f50e7ba24" d="M70.56,46.88A16.89,16.89,0,0,1,72,44a4.33,4.33,0,0,0,.56-3.1,4.23,4.23,0,0,0-1.65-2.09c-2.13-1.6-5.35-2.25-7.38-.51s-1.91,4.53-1.41,7,1.4,4.94.79,7.36-2.54,4.19-4,6.23a15.78,15.78,0,0,0-2.43,5.4A27.54,27.54,0,0,0,56,71c0,3.45.33,7.15,2.49,9.83,2.57,3.19,7.08,4.08,11.17,3.86a16.45,16.45,0,0,0,7.18-1.81,9,9,0,0,0,4.55-5.66,11.41,11.41,0,0,0,0-3.91,31.65,31.65,0,0,0-5.77-13.81c-1.58-2.24-3.38-4.36-4.45-6.88s-1.29-5.61.26-7.87"/>
    <path class="a0281b54-337f-4632-8d6a-d1ba67bfc5d6" d="M71.6,42.58c3.09-.22,6.73-.26,8.68,1.84l-9.09-.13,0-1.56"/>
    <circle class="b9d78203-5b58-42cf-a212-64f48f59fac3" cx="69.64" cy="41.17" r="0.85"/>
    <path class="bcffd5cc-9674-49ae-8605-249502a59e42" d="M65.56,83.41A122,122,0,0,0,66,100.18"/>
    <path class="bcffd5cc-9674-49ae-8605-249502a59e42" d="M71.91,83.41a122,122,0,0,1-.46,16.77"/>
    <path class="a0281b54-337f-4632-8d6a-d1ba67bfc5d6" d="M63.77,102.86A1.69,1.69,0,0,1,65,102.7a1.66,1.66,0,0,1,1,.71,1.21,1.21,0,0,1,.52-.72,1.28,1.28,0,0,1,.39-.07,4.79,4.79,0,0,1,1,0c-.16,0-.45-.42-.55-.54a5.26,5.26,0,0,1-.49-.65c-.3-.45-.52-1-.8-1.41A12.64,12.64,0,0,0,65,101.4Z"/>
    <path class="a0281b54-337f-4632-8d6a-d1ba67bfc5d6" d="M69.28,102.71a1.64,1.64,0,0,1,1.21-.17,1.69,1.69,0,0,1,1,.71,1.16,1.16,0,0,1,.52-.71,1,1,0,0,1,.38-.08,5.54,5.54,0,0,1,1,.05c-.16,0-.44-.42-.55-.54a6.42,6.42,0,0,1-.48-.65c-.3-.45-.52-.95-.81-1.41a13.92,13.92,0,0,0-1.08,1.33Z"/>
  </g>
  <path class="f6622975-08db-47e2-bfc6-0dc57baffc4d" d="M-1.66,30.36,286.19,159.62c6.3,2.93,4.16,12.16-2.82,12.16H-.46"/>
  <rect class="b07ab3be-2393-44d5-81dc-dedcf760106c" x="136.08" y="331.43" width="72.84" height="72.84"/>
  <rect class="a03d5964-5b37-40d9-91e3-fedee5b73518" x="-1.7" y="671.51" width="404.31" height="57.98"/>
  <rect class="acf5e02d-9fee-4559-9567-1b29274c72b6" x="23.54" y="426.96" width="88.93" height="163.17"/>
  <rect class="acf5e02d-9fee-4559-9567-1b29274c72b6" x="114.52" y="426.96" width="88.93" height="163.17"/>
  <g>
    <rect class="bddac0cc-adc5-4398-b779-5041b7b73bc5" x="150.62" y="529.57" width="18.87" height="4.02" rx="2.01"/>
    <rect class="bddac0cc-adc5-4398-b779-5041b7b73bc5" x="179.57" y="529.57" width="18.87" height="4.02" rx="2.01"/>
    <rect class="e129a607-7147-4f24-ac50-f449381ad377" x="143.1" y="530.79" width="62.86" height="78.73" rx="4.4"/>
    <rect class="bddac0cc-adc5-4398-b779-5041b7b73bc5" x="147.77" y="541.21" width="53.52" height="22.15"/>
    <rect class="bddac0cc-adc5-4398-b779-5041b7b73bc5" x="147.77" y="574.35" width="53.52" height="22.15"/>
    <path class="bddac0cc-adc5-4398-b779-5041b7b73bc5" d="M143.1,603.07V608a1.56,1.56,0,0,0,1.56,1.56H204.4A1.56,1.56,0,0,0,206,608v-4.89Z"/>
    <line class="a573872d-833e-4d68-bda7-d13dc16d7ffd" x1="143.1" y1="566.91" x2="205.96" y2="566.91"/>
    <line class="a573872d-833e-4d68-bda7-d13dc16d7ffd" x1="143.1" y1="534.89" x2="205.96" y2="534.89"/>
    <rect class="aa6422a7-4df0-461b-9e3a-2f0847c86fc4" x="162.36" y="569.66" width="24.34" height="2.51" rx="1.25"/>
    <rect class="aa6422a7-4df0-461b-9e3a-2f0847c86fc4" x="162.36" y="536.1" width="24.34" height="2.51" rx="1.25"/>
    <polygon class="f6e4f1e6-091a-4456-ad4c-9fac27d19b7f" points="155.04 563.36 172.92 563.36 195.08 541.21 177.2 541.21 155.04 563.36"/>
    <polygon class="f6e4f1e6-091a-4456-ad4c-9fac27d19b7f" points="155.04 596.57 172.92 596.57 195.08 574.41 177.2 574.41 155.04 596.57"/>
  </g>
  <g>
    <rect class="b17f370a-5143-46da-8302-6a8a0ff8f0db" x="82.53" y="539.79" width="59.88" height="73.07" rx="5.12"/>
    <path class="bddac0cc-adc5-4398-b779-5041b7b73bc5" d="M82.53,610.76v4.53A1.47,1.47,0,0,0,84,616.74h56.9a1.47,1.47,0,0,0,1.49-1.45v-4.53Z"/>
    <line class="e0ad0c68-d4a4-41ea-8cb4-47ea486a67c0" x1="82.53" y1="553.09" x2="142.41" y2="553.09"/>
    <circle class="e129a607-7147-4f24-ac50-f449381ad377" cx="112.47" cy="581.4" r="21.73"/>
    <circle class="bddac0cc-adc5-4398-b779-5041b7b73bc5" cx="112.47" cy="581.4" r="15.58"/>
    <path class="f6e4f1e6-091a-4456-ad4c-9fac27d19b7f" d="M118.86,567.19l-20.6,20.6A15.64,15.64,0,0,0,107,596l20.06-20.06A15.64,15.64,0,0,0,118.86,567.19Z"/>
    <circle class="e129a607-7147-4f24-ac50-f449381ad377" cx="96.1" cy="545.1" r="2.22"/>
    <circle class="e129a607-7147-4f24-ac50-f449381ad377" cx="136.06" cy="545.1" r="0.79"/>
    <circle class="e129a607-7147-4f24-ac50-f449381ad377" cx="132.69" cy="545.1" r="0.79"/>
    <circle class="e129a607-7147-4f24-ac50-f449381ad377" cx="129.32" cy="545.1" r="0.79"/>
    <circle class="e129a607-7147-4f24-ac50-f449381ad377" cx="125.94" cy="545.1" r="0.79"/>
    <circle class="e129a607-7147-4f24-ac50-f449381ad377" cx="88.81" cy="545.1" r="2.22"/>
    <rect class="bddac0cc-adc5-4398-b779-5041b7b73bc5" x="101.15" y="542.65" width="8.23" height="5.31" rx="1.83"/>
  </g>
  <g class="text-cta text-cta--9">
    <g>
      <rect class="bddac0cc-adc5-4398-b779-5041b7b73bc5" x="303.23" y="600.2" width="22.82" height="39.21" rx="7.15"/>
      <rect class="bddac0cc-adc5-4398-b779-5041b7b73bc5" x="383.42" y="600.2" width="22.82" height="39.21" rx="7.15"/>
      <line class="a1a46b55-4256-4dfc-90b4-a5444ffac8a4" x1="393.57" y1="607.79" x2="393.57" y2="633.69"/>
      <line class="a1a46b55-4256-4dfc-90b4-a5444ffac8a4" x1="396.78" y1="607.79" x2="396.78" y2="633.69"/>
      <line class="a1a46b55-4256-4dfc-90b4-a5444ffac8a4" x1="399.99" y1="606.99" x2="399.99" y2="632.89"/>
      <line class="a1a46b55-4256-4dfc-90b4-a5444ffac8a4" x1="390.36" y1="606.99" x2="390.36" y2="632.89"/>
      <line class="a1a46b55-4256-4dfc-90b4-a5444ffac8a4" x1="312.92" y1="608.4" x2="312.92" y2="634.3"/>
      <line class="a1a46b55-4256-4dfc-90b4-a5444ffac8a4" x1="316.12" y1="608.4" x2="316.12" y2="634.3"/>
      <line class="a1a46b55-4256-4dfc-90b4-a5444ffac8a4" x1="319.33" y1="607.6" x2="319.33" y2="633.5"/>
      <line class="a1a46b55-4256-4dfc-90b4-a5444ffac8a4" x1="309.71" y1="607.6" x2="309.71" y2="633.5"/>
      <rect class="bf6af612-0cc4-49de-9f7b-b3f053858372" x="280.73" y="448.61" width="147.74" height="171.64" rx="12"/>
      <rect class="bddac0cc-adc5-4398-b779-5041b7b73bc5" x="290.29" y="458.83" width="128.77" height="149.6" rx="12"/>
      <line class="fbc15399-66af-47f1-92af-1c8dfae02300" x1="403.05" y1="553.69" x2="403.05" y2="560.72"/>
      <path class="af559e44-63d8-4b16-b2e0-503876b8de13" d="M386.07,546.35a6.51,6.51,0,0,1,12.59,2.34v10.69"/>
      <line class="e3087774-dea0-4966-80ff-6c4a0a05d1d7" x1="402.86" y1="553.62" x2="406.36" y2="553.62"/>
      <path class="af583bec-03d7-4b44-ac0d-3b2f55a165a1" d="M391.3,596.33s.55,5,3.65,8.23a.78.78,0,0,1-.56,1.33h-1.1a3.47,3.47,0,0,1-2.45-1,14.51,14.51,0,0,1-4-8.56"/>
      <path class="af583bec-03d7-4b44-ac0d-3b2f55a165a1" d="M334.89,596.33s-.55,5-3.66,8.23a.79.79,0,0,0,.56,1.33h1.11a3.44,3.44,0,0,0,2.44-1,14.51,14.51,0,0,0,4-8.56"/>
      <path class="b17f370a-5143-46da-8302-6a8a0ff8f0db" d="M338.16,597.79H389.7a17.66,17.66,0,0,0,17.44-14.87l2.47-15.34-101.78-9.21L322.3,587.9A17.67,17.67,0,0,0,338.16,597.79Z"/>
      <path class="a108ffd6-615c-451d-9214-1a67bc58dd15" d="M374.63,568.28h38.82a4.43,4.43,0,1,0,0-8.85H374.63c-4.83,0-9.73-.22-14.55-.66L306.94,554a4.43,4.43,0,1,0-.8,8.82l53.14,4.81C364.37,568.05,369.53,568.28,374.63,568.28Z"/>
      <path class="bf6af612-0cc4-49de-9f7b-b3f053858372" d="M354.68,608.43H299.91a9.66,9.66,0,0,1-9.62-9.62V468.45a9.66,9.66,0,0,1,9.62-9.62h54.77"/>
      <g>
        <g>
          <path class="a7777e05-15a6-442c-9ed1-9aaec73925a8" d="M341.31,497.8v-1.38c0-1.63-.59-2.22-2.19-2.42a20.82,20.82,0,0,0-7.57.79c-.89.22-1,.2-1.15-.66-.42-2.06-.83-1.88,1.48-2.43a22.2,22.2,0,0,1,9.56-.46c1.7.34,3.14,1.09,3.6,2.95a7.34,7.34,0,0,1,.22,1.74c0,3.44,0,8.63,0,9.49s0,1.86-.08,2.24c-.15,1-.66,1.27-1.55,1.69a12.4,12.4,0,0,1-4.07.81,23.81,23.81,0,0,1-6-.23c-3.51-.6-4.73-3-4.42-6.36.26-2.93,1.7-4.13,5-4.57,1.21-.17,2.4-.39,3.6-.59Zm0,2.76c-2.2.39-4.33.73-6.44,1.18a2.3,2.3,0,0,0-1.32.93,3.12,3.12,0,0,0,1.91,4.67,11.87,11.87,0,0,0,5.85-.34Z"/>
          <path class="a7777e05-15a6-442c-9ed1-9aaec73925a8" d="M322.54,510a17.1,17.1,0,0,1-5.53-.06l-.23,0a6.08,6.08,0,0,1-5-5.05,19.54,19.54,0,0,1-.06-8.2c.66-3.21,2.4-5,5.61-5.5a16.91,16.91,0,0,1,7.8.54c.9.28,1,.45.77,1.38-.44,1.88-.13,1.57-2,1.24a22.57,22.57,0,0,0-4.49-.38,3.66,3.66,0,0,0-3.7,3.22,17.06,17.06,0,0,0-.11,6.25c.45,2.82,1.67,3.89,4.62,3.9a23.58,23.58,0,0,0,4.32-.57c.92-.17,1-.19,1.2.69.44,1.8.42,1.91-1.42,2.28C323.72,509.8,323.13,509.9,322.54,510Z"/>
          <path class="a7777e05-15a6-442c-9ed1-9aaec73925a8" d="M353.36,487.86c0,.6-.26.83-.74.85-.8,0-1.6,0-2.41,0a.75.75,0,0,1-.81-.83c0-1.24,0-1.25,0-2.49a.66.66,0,0,1,.72-.73c.85,0,1.7,0,2.55,0,.48,0,.68.13.68.76Z"/>
        </g>
        <path class="a7777e05-15a6-442c-9ed1-9aaec73925a8" d="M352.46,491.58h-2.15a.91.91,0,0,0-.91.91v14.3l2-1.87,2,1.87v-14.3A.91.91,0,0,0,352.46,491.58Z"/>
      </g>
      <g>
        <path class="b17f370a-5143-46da-8302-6a8a0ff8f0db" d="M317,524.71v-7a.66.66,0,0,1,1.32,0v2.84h3.07v-2.84a.64.64,0,0,1,.65-.65.65.65,0,0,1,.66.65v7a.66.66,0,0,1-.66.66.64.64,0,0,1-.65-.66v-2.84h-3.07v2.84a.66.66,0,0,1-1.32,0Z"/>
        <path class="b17f370a-5143-46da-8302-6a8a0ff8f0db" d="M328.9,523.41H326l-.58,1.54a.66.66,0,0,1-.61.42.93.93,0,0,1-.23,0,.68.68,0,0,1-.39-.85l2.62-7a.67.67,0,0,1,.63-.41.66.66,0,0,1,.63.41l2.61,7a.67.67,0,0,1-.39.85.72.72,0,0,1-.22,0,.66.66,0,0,1-.61-.42Zm-.48-1.3-1-2.55-1,2.55Z"/>
        <path class="b17f370a-5143-46da-8302-6a8a0ff8f0db" d="M333.63,524.71a.65.65,0,1,1-1.29,0v-6.89a.63.63,0,0,1,.26-.54.66.66,0,0,1,.9.14l3.83,5.29v-4.87a.64.64,0,0,1,.63-.64.66.66,0,0,1,.66.64v6.87a.67.67,0,0,1-.66.66.64.64,0,0,1-.48-.24l-.06-.07-3.79-5.26Z"/>
        <path class="b17f370a-5143-46da-8302-6a8a0ff8f0db" d="M340.87,524.71v-7a.64.64,0,0,1,.65-.65h1.4a4.15,4.15,0,0,1,0,8.29h-1.4A.66.66,0,0,1,340.87,524.71Zm1.32-.66h.73a2.83,2.83,0,0,0,0-5.66h-.73Z"/>
        <path class="b17f370a-5143-46da-8302-6a8a0ff8f0db" d="M354.39,518.19,352,521.52v3.19a.64.64,0,0,1-.65.66.66.66,0,0,1-.65-.66v-3.19l-2.41-3.33a.64.64,0,1,1,1-.76l2,2.77,2-2.77a.65.65,0,0,1,1.06.76Z"/>
      </g>
    </g>
    <rect class="aa390313-a405-43a0-81be-44b018048e03" x="290.29" y="607.6" width="128.77" height="8.15" rx="4.07"/>
    <rect class="bd85fb35-96bd-4285-a3c8-8c36ea37bc41" x="333.19" y="615.75" width="43.47" height="11.66"/>
    <g>
      <path class="bf6af612-0cc4-49de-9f7b-b3f053858372" d="M336.43,621.27a2.2,2.2,0,0,1,2.2-2.16,2.22,2.22,0,0,1,1.39.47.36.36,0,0,1,.06.48.35.35,0,0,1-.48.06,1.56,1.56,0,0,0-1-.33,1.61,1.61,0,0,0-1.08.43,1.5,1.5,0,0,0-.44,1,1.46,1.46,0,0,0,.44,1,1.61,1.61,0,0,0,1.08.43,1.5,1.5,0,0,0,1-.33.35.35,0,0,1,.42.55,2.28,2.28,0,0,1-1.39.47A2.2,2.2,0,0,1,336.43,621.27Z"/>
      <path class="bf6af612-0cc4-49de-9f7b-b3f053858372" d="M343.29,622.44h-1.45l-.3.78a.34.34,0,0,1-.31.21l-.11,0a.34.34,0,0,1-.2-.43l1.32-3.54a.36.36,0,0,1,.32-.21.34.34,0,0,1,.32.21l1.33,3.54a.35.35,0,0,1-.2.43l-.12,0a.32.32,0,0,1-.3-.21Zm-.24-.66-.49-1.29-.48,1.29Z"/>
      <path class="bf6af612-0cc4-49de-9f7b-b3f053858372" d="M345.07,619.56a.33.33,0,0,1,.33-.33.34.34,0,0,1,.34.33v3.54a.34.34,0,0,1-.34.33.33.33,0,0,1-.33-.33Z"/>
      <path class="bf6af612-0cc4-49de-9f7b-b3f053858372" d="M349.64,622.93a.34.34,0,0,1-.21.42l-.14,0h0a.53.53,0,0,1-.24-.07.77.77,0,0,1-.19-.21,1.67,1.67,0,0,1-.12-.72.5.5,0,0,0-.08-.26.5.5,0,0,0-.18-.17,1.22,1.22,0,0,0-.33-.15h-.71v1.31a.33.33,0,0,1-.33.33.33.33,0,0,1-.33-.33v-3.54a.32.32,0,0,1,.33-.33h1.07a1.28,1.28,0,0,1,.81,2.27.88.88,0,0,1,.21.22,1.16,1.16,0,0,1,.2.65,1.28,1.28,0,0,0,0,.35A.36.36,0,0,1,349.64,622.93Zm-.84-2.41a.63.63,0,0,0-.62-.63h-.74v1.24h.74A.62.62,0,0,0,348.8,620.52Z"/>
      <path class="bf6af612-0cc4-49de-9f7b-b3f053858372" d="M351.27,623.1a.33.33,0,0,1-.33.33.32.32,0,0,1-.32-.33v-3.49h0a.32.32,0,0,1,.13-.28.33.33,0,0,1,.45.07l1.94,2.68v-2.47a.32.32,0,0,1,.32-.32.33.33,0,0,1,.33.32v3.49a.32.32,0,0,1-.57.21l0,0-1.92-2.66Z"/>
      <path class="bf6af612-0cc4-49de-9f7b-b3f053858372" d="M358.4,623.37s0,0,0,0v0l0,0h0l0,0-1.47-3.5a.33.33,0,0,1,.18-.43.34.34,0,0,1,.43.17l1.16,2.78,1.17-2.78a.34.34,0,0,1,.62.26l-1.49,3.5,0,0h0l0,0v0l0,0h0l0,0h-.27l0,0Z"/>
      <path class="bf6af612-0cc4-49de-9f7b-b3f053858372" d="M362.87,622.44h-1.46l-.3.78a.33.33,0,0,1-.31.21l-.11,0a.35.35,0,0,1-.2-.43l1.33-3.54a.34.34,0,0,1,.31-.21.34.34,0,0,1,.32.21l1.33,3.54a.35.35,0,0,1-.2.43l-.11,0a.33.33,0,0,1-.31-.21Zm-.25-.66-.49-1.29-.48,1.29Z"/>
      <path class="bf6af612-0cc4-49de-9f7b-b3f053858372" d="M365.26,623.1a.33.33,0,0,1-.32.33.33.33,0,0,1-.33-.33v-3.49h0a.32.32,0,0,1,.13-.28.33.33,0,0,1,.45.07l1.94,2.68v-2.47a.33.33,0,0,1,.65,0v3.49a.32.32,0,0,1-.32.33.33.33,0,0,1-.25-.12l0,0-1.92-2.66Z"/>
      <path class="bf6af612-0cc4-49de-9f7b-b3f053858372" d="M369.1,622.38a.3.3,0,0,1,.43,0,1.92,1.92,0,0,0,1.15.46,1.31,1.31,0,0,0,.75-.22.54.54,0,0,0,.26-.43.31.31,0,0,0-.06-.19.51.51,0,0,0-.18-.18,2.16,2.16,0,0,0-.82-.28h0a3.56,3.56,0,0,1-.78-.24,1.32,1.32,0,0,1-.55-.47.91.91,0,0,1-.14-.49,1.08,1.08,0,0,1,.48-.87,1.74,1.74,0,0,1,1-.32,2.31,2.31,0,0,1,1.3.48.31.31,0,0,1,.09.42.3.3,0,0,1-.43.09,1.75,1.75,0,0,0-1-.38,1.19,1.19,0,0,0-.68.2.48.48,0,0,0-.22.38.31.31,0,0,0,0,.17.6.6,0,0,0,.16.16,2.31,2.31,0,0,0,.75.26h0a3.69,3.69,0,0,1,.83.25,1.41,1.41,0,0,1,.6.5,1,1,0,0,1,.14.51,1.17,1.17,0,0,1-.51.93,2,2,0,0,1-1.11.34,2.61,2.61,0,0,1-1.54-.6A.32.32,0,0,1,369.1,622.38Z"/>
    </g>
  </g>
  <g>
    <g>
      <line class="efc82684-daca-42de-a93a-ebaa0c902d06" x1="59.06" y1="524.19" x2="59.06" y2="541.82"/>
      <path class="f6622975-08db-47e2-bfc6-0dc57baffc4d" d="M75.29,536.64H72.08a14.81,14.81,0,0,0-3.66-.47H48.87a14.68,14.68,0,0,0-3.66.47H43.06A15.9,15.9,0,0,0,27.2,552.49v31.66A15.91,15.91,0,0,0,43.06,600H75.29a15.9,15.9,0,0,0,15.85-15.86V552.49A15.89,15.89,0,0,0,75.29,536.64Z"/>
      <circle class="bca3c73e-1fda-485e-a285-06549fffa0b7" cx="59.06" cy="508.14" r="25.46"/>
      <rect class="aa390313-a405-43a0-81be-44b018048e03" x="45.82" y="503.01" width="5.52" height="2.98" rx="0.92"/>
      <rect class="aa390313-a405-43a0-81be-44b018048e03" x="66.76" y="503.01" width="5.52" height="2.98" rx="0.92"/>
      <circle class="f7bf90f5-80d2-47c5-81a3-a7f35bf67a40" cx="69.53" cy="504.5" r="1.18"/>
      <line class="a49bdf7e-d4cd-4b0b-9110-45aa4bc4aaea" x1="45.82" y1="498.12" x2="53.41" y2="498.12"/>
      <g class="e8697eda-029d-417a-9034-c724f30d15ae">
        <circle class="f7bf90f5-80d2-47c5-81a3-a7f35bf67a40" cx="48.59" cy="504.5" r="1.16"/>
      </g>
      <path class="b7384e66-03ce-4629-a18c-9f7533a91536" d="M60.91,511.24H59.22a1.13,1.13,0,0,1-1.16-1.15v-1.64"/>
      <path class="f6622975-08db-47e2-bfc6-0dc57baffc4d" d="M49.15,653.21H28a302,302,0,0,1,7.59-64.46l20.53,5h0C56,594.3,49.15,622.8,49.15,653.21Z"/>
      <path class="f6622975-08db-47e2-bfc6-0dc57baffc4d" d="M90.34,653.21H69.2c0-30.53-6.91-59.14-7-59.42l20.54-5A302.34,302.34,0,0,1,90.34,653.21Z"/>
      <path class="e3957c86-1b68-4fb8-92ea-5c2d7f6a67ec" d="M49.23,651.39H26.06A6.57,6.57,0,0,0,19.49,658v2.26H49.42Z"/>
      <circle class="ff6305ab-55de-497d-9046-948c1e943f15" cx="34.48" cy="510.98" r="4.41"/>
      <circle class="ff6305ab-55de-497d-9046-948c1e943f15" cx="83.45" cy="510.98" r="4.41"/>
      <line class="a49bdf7e-d4cd-4b0b-9110-45aa4bc4aaea" x1="64.55" y1="498.12" x2="72.14" y2="498.12"/>
      <path class="e3957c86-1b68-4fb8-92ea-5c2d7f6a67ec" d="M69.21,651.39H92.38A6.57,6.57,0,0,1,99,658v2.26H69Z"/>
      <rect class="bd85fb35-96bd-4285-a3c8-8c36ea37bc41" x="6.93" y="589.17" width="11.05" height="11.05" rx="3.43"/>
      <path class="f6622975-08db-47e2-bfc6-0dc57baffc4d" d="M7.22,590.86a77.76,77.76,0,0,1,.42-16.17c1.61-12.4,5.92-22,12.83-28.65s16-9.88,27-9.72l-.25,14.31c-6.32-.09-11.16,1.59-14.87,5.12-9.26,8.85-9.66,27.43-9,33.84Z"/>
      <rect class="bd85fb35-96bd-4285-a3c8-8c36ea37bc41" x="100.13" y="589.17" width="11.05" height="11.05" rx="3.43" transform="translate(211.31 1189.38) rotate(-180)"/>
      <path class="f6622975-08db-47e2-bfc6-0dc57baffc4d" d="M110.33,590.86a77.76,77.76,0,0,0-.42-16.17c-1.61-12.4-5.93-22-12.84-28.65s-16-9.88-26.95-9.72l.25,14.31c6.32-.09,11.17,1.59,14.87,5.12,9.27,8.85,9.67,27.43,9,33.84Z"/>
      <rect class="f6622975-08db-47e2-bfc6-0dc57baffc4d" x="28.92" y="587.56" width="60.5" height="23.42" rx="7.27"/>
      <path class="b7384e66-03ce-4629-a18c-9f7533a91536" d="M55.61,523.45a9.26,9.26,0,0,0,6.92,0"/>
      <path class="f509e71a-1909-4795-a392-e7620e07d333" d="M81.55,505.15l-.17.16c-22.79,20.82-44.15.22-44.36,0l-.18-.17-3.11.36a1.09,1.09,0,0,0-1,1.1c.18,10.74,4,17.82,7.32,21.11,4.5,4.53,10.93,6.83,19.08,6.84s14.58-2.31,19.09-6.84c3.28-3.29,7.15-10.22,7.32-21a1.09,1.09,0,0,0-.92-1.09ZM63.21,525.31a11.5,11.5,0,0,1-4.06.73,10.77,10.77,0,0,1-4.31-.85,2,2,0,0,1,1.74-3.64,7.22,7.22,0,0,0,5.32,0,2,2,0,0,1,2.66,1.29A2.12,2.12,0,0,1,63.21,525.31Z"/>
      <path class="ae8ca2c3-0069-4a0f-9b9e-666f609ecb1c" d="M59.18,493.67H37.86l-3.38,16.92V499.66a20.72,20.72,0,0,1,20.59-20.72h8.31A20.72,20.72,0,0,1,84,499.66v10.93l-3.38-16.92H59.18"/>
      <path class="f4cbc9a1-e79c-4532-bc04-eb0e1056a37f" d="M28.92,596.2a104.3,104.3,0,0,0,30.25,5.67,104.18,104.18,0,0,0,30.25-5.67v0a10.1,10.1,0,0,0-.75-4,101.67,101.67,0,0,1-29.5,5.54,101.73,101.73,0,0,1-29.5-5.54,10.1,10.1,0,0,0-.75,4Z"/>
      <g>
        <rect class="e3957c86-1b68-4fb8-92ea-5c2d7f6a67ec" x="38.53" y="589.95" width="1.81" height="18.56" rx="0.22" transform="translate(104.13 2.2) rotate(9.95)"/>
        <path class="f65ff285-8162-4b72-afe6-f13f23476d01" d="M37.33,611.22a1.74,1.74,0,1,1,2-1.41A1.74,1.74,0,0,1,37.33,611.22Zm.44-2.53a.83.83,0,1,0,.68,1A.83.83,0,0,0,37.77,608.69Z"/>
        <g>
          <path class="f65ff285-8162-4b72-afe6-f13f23476d01" d="M41.4,587.49l.4,1.68a.43.43,0,0,1-.33.51l-.77.19a.43.43,0,0,1-.52-.33l-.4-1.71a2.11,2.11,0,0,0-.83,1.32,2.07,2.07,0,1,0,2.45-1.66Z"/>
          <path class="f65ff285-8162-4b72-afe6-f13f23476d01" d="M40.61,591.67a2.2,2.2,0,0,1-1.79-2.54,2.17,2.17,0,0,1,.88-1.4.13.13,0,0,1,.12,0,.14.14,0,0,1,.08.09l.4,1.71a.31.31,0,0,0,.37.23l.77-.18a.3.3,0,0,0,.23-.37l-.39-1.67a.12.12,0,0,1,0-.12.11.11,0,0,1,.12,0,2.19,2.19,0,0,1-.82,4.31Zm-.91-3.61a1.88,1.88,0,0,0-.62,1.11,1.93,1.93,0,1,0,2.5-1.51l.34,1.48a.56.56,0,0,1-.42.67l-.77.18a.56.56,0,0,1-.68-.42Z"/>
        </g>
      </g>
      <g>
        <rect class="e3957c86-1b68-4fb8-92ea-5c2d7f6a67ec" x="79.54" y="601.14" width="9.58" height="0.69" transform="translate(685.81 517.15) rotate(90)"/>
        <path class="e3957c86-1b68-4fb8-92ea-5c2d7f6a67ec" d="M84.83,608.42v-1.56l-.17-.91a.11.11,0,0,0-.1-.09H84.1a.11.11,0,0,0-.1.09l-.17.91v1.56a.09.09,0,0,0,.1.1h.8A.09.09,0,0,0,84.83,608.42Z"/>
        <path class="f65ff285-8162-4b72-afe6-f13f23476d01" d="M83.83,606.88v1.54a.09.09,0,0,0,.1.1h.8a.09.09,0,0,0,.1-.1v-1.56h-1Z"/>
        <rect class="fc73d2fe-4485-4991-8709-24ab10bad3c2" x="78.53" y="590.92" width="11.62" height="2.6" rx="0.81" transform="translate(676.55 507.88) rotate(90)"/>
        <rect class="a3b3488c-5460-4316-b0d1-81d7078709c5" x="80.31" y="592.03" width="9.67" height="0.34" rx="0.11" transform="translate(677.35 507.06) rotate(90)"/>
        <rect class="a3b3488c-5460-4316-b0d1-81d7078709c5" x="79.49" y="592.03" width="9.67" height="0.34" rx="0.11" transform="translate(676.54 507.88) rotate(90)"/>
        <rect class="a3b3488c-5460-4316-b0d1-81d7078709c5" x="78.68" y="592.03" width="9.67" height="0.34" rx="0.11" transform="translate(675.72 508.69) rotate(90)"/>
      </g>
      <g>
        <rect class="e3957c86-1b68-4fb8-92ea-5c2d7f6a67ec" x="34.99" y="587.19" width="2.49" height="19.48" rx="0.3"/>
        <path class="f65ff285-8162-4b72-afe6-f13f23476d01" d="M36.23,610.65a2.39,2.39,0,1,1,2.39-2.38A2.39,2.39,0,0,1,36.23,610.65Zm0-3.53a1.15,1.15,0,1,0,1.14,1.15A1.15,1.15,0,0,0,36.23,607.12Z"/>
        <g>
          <path class="f65ff285-8162-4b72-afe6-f13f23476d01" d="M36.1,583.58l.94,2.18a.61.61,0,0,1-.32.78l-1,.43a.59.59,0,0,1-.78-.31L34,584.44a2.84,2.84,0,1,0,2.11-.86Z"/>
          <path class="f65ff285-8162-4b72-afe6-f13f23476d01" d="M36,589.44a3,3,0,0,1-3-3,3,3,0,0,1,.86-2.1.17.17,0,0,1,.16-.06.18.18,0,0,1,.13.11l1,2.22a.42.42,0,0,0,.55.22l1-.43a.42.42,0,0,0,.22-.55l-.93-2.18a.17.17,0,0,1,0-.17.2.2,0,0,1,.15-.08,3,3,0,0,1-.09,6Zm-2.09-4.67a2.67,2.67,0,1,0,2.45-1l.82,1.91a.77.77,0,0,1-.41,1l-1,.43a.77.77,0,0,1-1-.4Z"/>
        </g>
      </g>
      <path class="f4cbc9a1-e79c-4532-bc04-eb0e1056a37f" d="M44.85,613.85H29.74a.82.82,0,0,1-.82-.81V596c0-.45.79-2.21,1.24-2.21l14.77,4c.45,0,.73-.11.73.34V613A.81.81,0,0,1,44.85,613.85Z"/>
      <rect class="ecc8dc2d-5e8d-45ea-baa4-20f5a0f7836a" x="73.35" y="595.19" width="1.94" height="21" rx="0.6"/>
      <rect class="aed6e08a-5ea5-4a93-9b38-1278ab5fc6fa" x="69.99" y="593.94" width="6.17" height="2.18" rx="0.68"/>
      <path class="f4cbc9a1-e79c-4532-bc04-eb0e1056a37f" d="M71.9,596.44a48.12,48.12,0,0,0,5.54-.14c.37-.19.26,2.49.26,2.49s-1.84,1.38-7.65.94S71.9,596.44,71.9,596.44Z"/>
      <rect class="aed6e08a-5ea5-4a93-9b38-1278ab5fc6fa" x="69.21" y="593.53" width="2.25" height="3.33" rx="0.7"/>
      <path class="aed6e08a-5ea5-4a93-9b38-1278ab5fc6fa" d="M75.13,593.94a5.53,5.53,0,0,1,5.19,3.52h-.68c-2.51-2.85-3.16-1.34-4.42-1.34S71.15,593.94,75.13,593.94Z"/>
      <g>
        <rect class="e3957c86-1b68-4fb8-92ea-5c2d7f6a67ec" x="77.02" y="588.74" width="9.58" height="0.69" transform="translate(-471.18 807.97) rotate(-103.69)"/>
        <path class="e3957c86-1b68-4fb8-92ea-5c2d7f6a67ec" d="M79.68,582.46l.37,1.5v0l.39.84a.09.09,0,0,0,.11.06l.45-.11a.1.1,0,0,0,.08-.1l0-.93v0l-.37-1.5a.09.09,0,0,0-.12-.07l-.78.19A.1.1,0,0,0,79.68,582.46Z"/>
        <path class="f65ff285-8162-4b72-afe6-f13f23476d01" d="M81,583.72l-.37-1.5a.09.09,0,0,0-.12-.07l-.78.19a.1.1,0,0,0-.08.12l.37,1.5v0l1-.24Z"/>
        <rect class="fc73d2fe-4485-4991-8709-24ab10bad3c2" x="78.19" y="596.79" width="11.62" height="2.6" rx="0.81" transform="translate(-477.23 821.23) rotate(-103.69)"/>
        <rect class="a3b3488c-5460-4316-b0d1-81d7078709c5" x="78.38" y="598.12" width="9.67" height="0.34" rx="0.11" transform="translate(-478.39 820.72) rotate(-103.69)"/>
        <rect class="a3b3488c-5460-4316-b0d1-81d7078709c5" x="79.17" y="597.92" width="9.67" height="0.34" rx="0.11" transform="translate(-477.22 821.25) rotate(-103.69)"/>
        <rect class="a3b3488c-5460-4316-b0d1-81d7078709c5" x="79.97" y="597.73" width="9.67" height="0.34" rx="0.11" transform="translate(-476.05 821.78) rotate(-103.69)"/>
      </g>
      <path class="b34f524e-a3e6-46ea-aab8-8ff736548d9f" d="M81.11,612.62h8.22c.25,0,.44-.37.44-.81v-17c0-.45-.43-2.2-.67-2.2L80.82,595c-.24,0-.4-.11-.4.34l.25,16.44C80.67,612.25,80.87,612.62,81.11,612.62Z"/>
      <path class="bca3c73e-1fda-485e-a285-06549fffa0b7" d="M68.09,535.83c0,1.18-4,2.13-9,2.13s-9-1-9-2.13"/>
    </g>
    <g>
      <g>
        <path class="a0281b54-337f-4632-8d6a-d1ba67bfc5d6" d="M56.24,557.72v-.52c0-.62-.23-.84-.83-.92a8.17,8.17,0,0,0-2.87.3c-.34.09-.37.08-.43-.25-.16-.78-.32-.71.56-.92a8.35,8.35,0,0,1,3.62-.17,1.53,1.53,0,0,1,1.36,1.12,2.83,2.83,0,0,1,.09.65v3.6a6.13,6.13,0,0,1,0,.85c-.05.38-.24.48-.58.64a4.62,4.62,0,0,1-1.54.31,9.22,9.22,0,0,1-2.29-.09,2,2,0,0,1-1.68-2.41c.11-1.11.65-1.57,1.9-1.73l1.37-.23Zm0,1c-.83.15-1.64.28-2.44.45a.86.86,0,0,0-.5.35,1.18,1.18,0,0,0,.72,1.77,4.53,4.53,0,0,0,2.22-.13Z"/>
        <path class="a0281b54-337f-4632-8d6a-d1ba67bfc5d6" d="M69.54,556.48v5.44c0,.33,0,.36-.37.36s-.49,0-.78,0-.37,0-.37-.36v-4.66c0-.3,0-.59,0-.89a.7.7,0,0,1,.51-.74,11,11,0,0,1,1.5-.37,8.75,8.75,0,0,1,2.45-.09,1.62,1.62,0,0,1,1.61,1.7c0,1.71,0,3.43,0,5.14,0,.19-.08.28-.29.28a8.61,8.61,0,0,0-.88,0c-.27,0-.35-.11-.35-.37v-4.83a.81.81,0,0,0-.87-.86A7.45,7.45,0,0,0,69.54,556.48Z"/>
        <path class="a0281b54-337f-4632-8d6a-d1ba67bfc5d6" d="M49.13,562.34a6.72,6.72,0,0,1-2.1,0l-.09,0a2.29,2.29,0,0,1-1.9-1.91,7.41,7.41,0,0,1,0-3.11,2.36,2.36,0,0,1,2.13-2.08,6.32,6.32,0,0,1,3,.2c.34.11.37.17.29.52-.17.72,0,.6-.76.47a8,8,0,0,0-1.7-.14,1.38,1.38,0,0,0-1.4,1.22,6.51,6.51,0,0,0,0,2.37c.17,1.07.63,1.47,1.75,1.48a9.35,9.35,0,0,0,1.64-.22c.35-.06.37-.07.45.26.17.68.16.72-.54.87Z"/>
        <path class="a0281b54-337f-4632-8d6a-d1ba67bfc5d6" d="M63.89,556.57v5.33c0,.35,0,.38-.37.38s-.56,0-.83,0-.32-.09-.32-.31c0-.45,0-.91,0-1.36v-4c0-.71.13-.87.81-1.09a12.61,12.61,0,0,1,3.5-.39c.24,0,.34,0,.35.35s0,.44,0,.6,0,.43-.47.39A17.76,17.76,0,0,0,63.89,556.57Z"/>
        <path class="a0281b54-337f-4632-8d6a-d1ba67bfc5d6" d="M60.81,554c0,.22-.1.31-.28.32h-.92a.27.27,0,0,1-.3-.31c0-.47,0-.48,0-1a.25.25,0,0,1,.27-.28h1c.18,0,.26,0,.26.29Z"/>
      </g>
      <path class="a0281b54-337f-4632-8d6a-d1ba67bfc5d6" d="M60.46,555.37h-.81a.35.35,0,0,0-.35.34v5.42l.76-.71.75.71v-5.42A.35.35,0,0,0,60.46,555.37Z"/>
    </g>
  </g>
  <g>
    <rect class="f3534d46-efe7-4e2a-87e2-0ba7e81b07f4" x="206.77" y="572.43" width="5.07" height="12.15" rx="1.15" transform="translate(418.6 1157.01) rotate(-180)"/>
    <path class="fe886365-9da8-4086-8a7e-201bf56e88e3" d="M239,582.25v9.24a8.26,8.26,0,0,1-8,8.42H187.61a8.26,8.26,0,0,1-8-8.42v-9.24Z"/>
    <path class="fe886365-9da8-4086-8a7e-201bf56e88e3" d="M197.68,650.76v-4.45c0-2.24,1.41-4.07,3.14-4.07h17c1.73,0,3.14,1.83,3.14,4.07v4.45Z"/>
    <rect class="fe886365-9da8-4086-8a7e-201bf56e88e3" x="202.35" y="597.54" width="13.91" height="47.12" transform="translate(418.6 1242.2) rotate(-180)"/>
    <rect class="aa6422a7-4df0-461b-9e3a-2f0847c86fc4" x="206.77" y="572.17" width="11.36" height="1.44" rx="0.59" transform="translate(424.89 1145.78) rotate(180)"/>
    <rect class="fe886365-9da8-4086-8a7e-201bf56e88e3" x="208.13" y="576.39" width="2.34" height="7.1" transform="translate(418.6 1159.88) rotate(-180)"/>
    <path class="a578d06c-1117-4fc0-9712-5b5c7eaa085a" d="M207.41,576.7v-.92a1.34,1.34,0,0,1,1.33-1.33h1.13a1.33,1.33,0,0,1,1.32,1.33v.92Z"/>
  </g>
  <g>
    <path class="b1b0d54a-412d-436b-8937-4888888bb5ec" d="M264.94,557.57s-.68,21.49-1.08,22c-.23.28-.41.21-.57.1s-27.93-1.51-27.93-1.51"/>
    <line class="bd29a896-007e-48c4-8160-3927785d1370" x1="253.64" y1="539.09" x2="255.59" y2="551.6"/>
    <rect class="f6622975-08db-47e2-bfc6-0dc57baffc4d" x="245.6" y="547.36" width="22.13" height="49.52" rx="9.59"/>
    <rect class="bf6af612-0cc4-49de-9f7b-b3f053858372" x="245.56" y="587.89" width="22.13" height="12.13"/>
    <rect class="bf6af612-0cc4-49de-9f7b-b3f053858372" x="245.56" y="596.05" width="22.13" height="7.95" rx="3.45"/>
    <rect class="a47db93b-71dc-4e75-b3a1-f36884b51b31" x="234.48" y="492.12" width="36.96" height="47.88" rx="16.02" transform="translate(-25.09 13.07) rotate(-2.82)"/>
    <line class="ac247d0e-1ed7-4cc5-8325-4dc09b6aebcb" x1="231.14" y1="522.52" x2="239.88" y2="522.09"/>
    <path class="b735d450-812d-4ff4-99d3-1b2bdf4cb5fa" d="M235.93,530.85a13.54,13.54,0,0,0,7.75-3.43"/>
    <rect class="b17f370a-5143-46da-8302-6a8a0ff8f0db" x="240.13" y="513.35" width="4.93" height="2.65" rx="1.15" transform="translate(-25.03 12.56) rotate(-2.82)"/>
    <path class="e8fd03a8-8f06-4f24-b3e1-72b6b07f4db1" d="M251.67,548.18l7.1-3.2s8.22.69,8.91,11.27"/>
    <path class="b1b0d54a-412d-436b-8937-4888888bb5ec" d="M262.68,555.49s5.12,20.88,4.87,21.45c-.15.33-.34.3-.52.25s-27.31,6-27.31,6"/>
    <rect class="f15a7cff-c59e-4478-b0e9-dc7c79742d96" x="255.3" y="654.58" width="6.42" height="3.27"/>
    <path class="aa6422a7-4df0-461b-9e3a-2f0847c86fc4" d="M258,657.85h-9.13a3.69,3.69,0,0,0-3.69,3.69v1.27h16.51v-1.27A3.69,3.69,0,0,0,258,657.85Z"/>
    <polygon class="aa6422a7-4df0-461b-9e3a-2f0847c86fc4" points="262.39 657.85 262.6 662.81 256.87 662.81 254.95 657.85 262.39 657.85"/>
    <g class="a0c53ede-79df-4be4-8e80-3f9879942b7c">
      <circle class="bddac0cc-adc5-4398-b779-5041b7b73bc5" cx="241.23" cy="515.04" r="1.33"/>
    </g>
    <line class="b5d0c1e7-4f4c-42f4-a105-7239627c9cd2" x1="240.2" y1="511.26" x2="243.93" y2="510.95"/>
    <polygon class="bf6af612-0cc4-49de-9f7b-b3f053858372" points="264.65 654.58 248.05 654.58 246.18 601.16 267.15 601.16 264.65 654.58"/>
    <path class="e8fd03a8-8f06-4f24-b3e1-72b6b07f4db1" d="M258.62,557.45a22.07,22.07,0,0,1,8.37-2.38c-.5-2.11-1.42-4.29-3.26-5.43S259,549,258.23,551a5.78,5.78,0,0,0-.14,2.52l.38,3.88"/>
    <g>
      <rect class="e3957c86-1b68-4fb8-92ea-5c2d7f6a67ec" x="250.46" y="604.7" width="9.68" height="0.69" transform="translate(860.35 349.75) rotate(90)"/>
      <path class="e3957c86-1b68-4fb8-92ea-5c2d7f6a67ec" d="M255.81,612.06v-1.58l-.18-.92a.1.1,0,0,0-.1-.08h-.46a.11.11,0,0,0-.11.08l-.17.92v1.58a.1.1,0,0,0,.1.1h.81A.1.1,0,0,0,255.81,612.06Z"/>
      <path class="f65ff285-8162-4b72-afe6-f13f23476d01" d="M254.79,610.5v1.56a.1.1,0,0,0,.1.1h.81a.1.1,0,0,0,.11-.1v-1.58h-1Z"/>
      <rect class="fc73d2fe-4485-4991-8709-24ab10bad3c2" x="249.44" y="594.37" width="11.74" height="2.62" rx="1.12" transform="translate(850.99 340.38) rotate(90)"/>
      <rect class="a3b3488c-5460-4316-b0d1-81d7078709c5" x="251.24" y="595.5" width="9.77" height="0.35" rx="0.15" transform="translate(851.8 339.55) rotate(90)"/>
      <rect class="a3b3488c-5460-4316-b0d1-81d7078709c5" x="250.41" y="595.5" width="9.77" height="0.35" rx="0.15" transform="translate(850.97 340.38) rotate(90)"/>
      <rect class="a3b3488c-5460-4316-b0d1-81d7078709c5" x="249.59" y="595.5" width="9.77" height="0.35" rx="0.15" transform="translate(850.15 341.2) rotate(90)"/>
    </g>
    <g>
      <rect class="e3957c86-1b68-4fb8-92ea-5c2d7f6a67ec" x="247.91" y="592.17" width="9.68" height="0.69" transform="translate(-263.12 978.31) rotate(-103.69)"/>
      <path class="e3957c86-1b68-4fb8-92ea-5c2d7f6a67ec" d="M250.6,585.83l.37,1.51v0l.38.86a.11.11,0,0,0,.12,0l.45-.11a.09.09,0,0,0,.08-.1l0-.94v0l-.37-1.51a.1.1,0,0,0-.12-.08l-.79.19A.11.11,0,0,0,250.6,585.83Z"/>
      <path class="f65ff285-8162-4b72-afe6-f13f23476d01" d="M252,587.1l-.37-1.51a.1.1,0,0,0-.12-.08l-.79.19a.11.11,0,0,0-.08.13l.37,1.51v0l1-.24Z"/>
      <rect class="fc73d2fe-4485-4991-8709-24ab10bad3c2" x="249.09" y="600.31" width="11.74" height="2.62" rx="1.12" transform="translate(-269.24 991.71) rotate(-103.69)"/>
      <rect class="a3b3488c-5460-4316-b0d1-81d7078709c5" x="249.29" y="601.65" width="9.77" height="0.35" rx="0.15" transform="translate(-270.41 991.19) rotate(-103.69)"/>
      <rect class="a3b3488c-5460-4316-b0d1-81d7078709c5" x="250.09" y="601.45" width="9.77" height="0.35" rx="0.15" transform="translate(-269.23 991.73) rotate(-103.69)"/>
      <rect class="a3b3488c-5460-4316-b0d1-81d7078709c5" x="250.89" y="601.26" width="9.77" height="0.35" rx="0.15" transform="translate(-268.05 992.26) rotate(-103.69)"/>
    </g>
    <path class="a02e0681-0e6a-4b79-9c73-515ebe3a62ea" d="M244.85,593.66c4.71,2.9,7.58,2.8,11.08,3,3.51-.19,7.66-.09,12.38-3v0a12.81,12.81,0,0,0-.31-3c-4.6,2.82-8.65,2.69-12.07,2.88-3.42-.19-6.18-.06-10.77-2.88a12.81,12.81,0,0,0-.31,3Z"/>
    <path class="b34f524e-a3e6-46ea-aab8-8ff736548d9f" d="M258.67,612.55h-8.26c-.24,0-.44-.33-.44-.73V596.54c0-.4.43-2,.67-2l8.32,2.2c.25,0,.4-.1.4.3l-.25,14.76C259.11,612.22,258.91,612.55,258.67,612.55Z"/>
    <g>
      <g>
        <path class="a0281b54-337f-4632-8d6a-d1ba67bfc5d6" d="M250.87,565.93v4.68c0,.28,0,.31-.17.31a2,2,0,0,0-.35,0c-.15,0-.16,0-.17-.31v-4c0-.25,0-.51,0-.76a.7.7,0,0,1,.23-.64,3.15,3.15,0,0,1,.67-.32,2.06,2.06,0,0,1,1.1-.07c.46.11.71.59.72,1.46,0,1.48,0,3,0,4.42,0,.17,0,.25-.13.24h-.4c-.12,0-.15-.09-.15-.31v-4.16c0-.48-.14-.72-.39-.75A1.86,1.86,0,0,0,250.87,565.93Z"/>
        <path class="a0281b54-337f-4632-8d6a-d1ba67bfc5d6" d="M248.33,566v4.59c0,.3,0,.33-.17.33h-.37c-.11,0-.14-.07-.14-.26V566c0-.61,0-.75.36-.93a3.17,3.17,0,0,1,1.57-.34c.11,0,.15,0,.16.3v.52c0,.27,0,.37-.22.34A4,4,0,0,0,248.33,566Z"/>
        <path class="a0281b54-337f-4632-8d6a-d1ba67bfc5d6" d="M246.94,563.75c0,.2,0,.27-.12.28h-.41c-.09,0-.14-.1-.14-.27v-.82c0-.15,0-.23.12-.24h.44c.08,0,.11,0,.11.24Z"/>
      </g>
      <path class="a0281b54-337f-4632-8d6a-d1ba67bfc5d6" d="M246.79,565h-.36c-.09,0-.16.14-.16.3v4.67l.34-.61.34.61v-4.67C247,565.1,246.88,565,246.79,565Z"/>
    </g>
    <rect class="b0f1d2fe-a436-4e79-b45e-08b63833ee7c" x="234.81" y="580.9" width="6.4" height="6.4" rx="2.13" transform="translate(624.85 85.93) rotate(60)"/>
    <path class="f6622975-08db-47e2-bfc6-0dc57baffc4d" d="M274,523.64l-.85-17.13A18.48,18.48,0,0,0,253.8,489l-3,.15a18.47,18.47,0,0,0-16.74,13h19l6.62,40.46A18.49,18.49,0,0,0,274,523.64Z"/>
    <rect class="b0f1d2fe-a436-4e79-b45e-08b63833ee7c" x="229.49" y="575.53" width="6.4" height="6.4" rx="2.13" transform="translate(757.18 241.11) rotate(79.13)"/>
  </g>
</svg>
