<svg id="f99e219b-ea07-4ce2-8ef9-1c2327c7e173" data-name="Layer 1" xmlns="http://www.w3.org/2000/svg" xmlns:xlink="http://www.w3.org/1999/xlink" viewBox="0 0 466.75 728.56">
  <defs>
    <style>
      .a247cc5a-170e-4ee7-ac40-b5eea400076a, .a2b45f0f-a719-4887-b310-19e642f1a9cf, .a36f2a56-8d18-4df1-97dc-b78d2c88c121, .a67d997e-d107-475d-8e3a-255a5af1b32e, .af14a297-0174-4891-b48c-5d0f9087dbc2, .b20cf7a8-0706-4933-ade3-5124052f14a3, .b213c96b-832f-423f-ab4d-fece70e5ec92, .b2c7c3ff-b319-4bef-8142-cd65507d2a65, .b44b4599-8213-4f92-ae9a-ce5d40f1334f, .bafd34d2-bc1b-47d8-a515-ffd41fcacd50, .bcbeab7f-966e-46c2-8e94-645b570e04c6, .eed12765-9265-40de-9f25-8a96bebb4482, .f471bc74-326e-4c15-bbf7-8d33ff5faecb, .f73bf893-81f8-4d32-8562-4db60f262992, .fcc936b0-d949-44f9-9192-854c1e36fd0c, .ff871b46-bf4f-4204-a305-812c940bd037 {
        fill: none;
      }

      .a91df6ac-412e-4d1a-ab6b-6a8b852b985d, .be8f3436-e3c0-4e41-a420-fb3c23a1dbd1 {
        fill: #ede8db;
      }

      .be27ef78-2b53-4bbd-a244-3e18f1b17fa1, .f7e32995-11a2-4adc-a9af-7de6fd1884c5 {
        fill: #3c5743;
      }

      .aa2428e7-6ac3-4e50-a50e-ef6f3e89b6c5 {
        fill: #aeaaa1;
      }

      .a42b68ee-bf65-4604-8713-0acab3426970, .b8be300c-9a5b-4890-833e-48e61e093b2a, .f1a685cc-9a70-4839-9436-42bb55c6c447 {
        fill: #d5a555;
      }

      .a5f53a61-8b38-4ee8-8ef8-a442f5c6a5a4 {
        fill: #062837;
      }

      .aa4d29d4-4fee-45a7-a023-530d96ad2733, .bb298a63-76c9-4d3b-8ed9-9760d27f6c8c, .bbd85d2c-7c77-4545-a0d7-0177220491d2 {
        fill: #77a9a2;
      }

      .b204c22b-2213-498b-b6a9-da362a9ccefc {
        fill: #5e5341;
        opacity: 0.27;
      }

      .a36f2a56-8d18-4df1-97dc-b78d2c88c121, .a67d997e-d107-475d-8e3a-255a5af1b32e, .bcbeab7f-966e-46c2-8e94-645b570e04c6, .be8f3436-e3c0-4e41-a420-fb3c23a1dbd1, .f471bc74-326e-4c15-bbf7-8d33ff5faecb, .ff871b46-bf4f-4204-a305-812c940bd037 {
        stroke: #ede8db;
      }

      .a247cc5a-170e-4ee7-ac40-b5eea400076a, .a2b45f0f-a719-4887-b310-19e642f1a9cf, .a36f2a56-8d18-4df1-97dc-b78d2c88c121, .a67d997e-d107-475d-8e3a-255a5af1b32e, .ab006a17-d5ee-4b4e-92ca-68f34fccb90d, .af14a297-0174-4891-b48c-5d0f9087dbc2, .b20cf7a8-0706-4933-ade3-5124052f14a3, .b213c96b-832f-423f-ab4d-fece70e5ec92, .b2c7c3ff-b319-4bef-8142-cd65507d2a65, .b8be300c-9a5b-4890-833e-48e61e093b2a, .bafd34d2-bc1b-47d8-a515-ffd41fcacd50, .bbd85d2c-7c77-4545-a0d7-0177220491d2, .bcbeab7f-966e-46c2-8e94-645b570e04c6, .be8f3436-e3c0-4e41-a420-fb3c23a1dbd1, .bfb69e07-68bf-4697-b6a1-0dd8c8b2dcf9, .eed12765-9265-40de-9f25-8a96bebb4482, .f1a685cc-9a70-4839-9436-42bb55c6c447, .f471bc74-326e-4c15-bbf7-8d33ff5faecb, .f73bf893-81f8-4d32-8562-4db60f262992, .ff72adf8-f1da-41dd-9194-08a8a9518e5f, .ff871b46-bf4f-4204-a305-812c940bd037 {
        stroke-linecap: round;
      }

      .a247cc5a-170e-4ee7-ac40-b5eea400076a, .a2b45f0f-a719-4887-b310-19e642f1a9cf, .a36f2a56-8d18-4df1-97dc-b78d2c88c121, .ab006a17-d5ee-4b4e-92ca-68f34fccb90d, .af14a297-0174-4891-b48c-5d0f9087dbc2, .b20cf7a8-0706-4933-ade3-5124052f14a3, .b213c96b-832f-423f-ab4d-fece70e5ec92, .b2c7c3ff-b319-4bef-8142-cd65507d2a65, .b8be300c-9a5b-4890-833e-48e61e093b2a, .bbd85d2c-7c77-4545-a0d7-0177220491d2, .bcbeab7f-966e-46c2-8e94-645b570e04c6, .be8f3436-e3c0-4e41-a420-fb3c23a1dbd1, .bfb69e07-68bf-4697-b6a1-0dd8c8b2dcf9, .eed12765-9265-40de-9f25-8a96bebb4482, .f1a685cc-9a70-4839-9436-42bb55c6c447, .fcc936b0-d949-44f9-9192-854c1e36fd0c, .ff72adf8-f1da-41dd-9194-08a8a9518e5f {
        stroke-linejoin: round;
      }

      .bcbeab7f-966e-46c2-8e94-645b570e04c6 {
        stroke-width: 5.17px;
      }

      .a67d997e-d107-475d-8e3a-255a5af1b32e, .bafd34d2-bc1b-47d8-a515-ffd41fcacd50, .f471bc74-326e-4c15-bbf7-8d33ff5faecb, .f73bf893-81f8-4d32-8562-4db60f262992, .ff871b46-bf4f-4204-a305-812c940bd037 {
        stroke-miterlimit: 10;
      }

      .f471bc74-326e-4c15-bbf7-8d33ff5faecb {
        stroke-width: 3.88px;
      }

      .ab006a17-d5ee-4b4e-92ca-68f34fccb90d, .ad93fb81-cbaf-472a-8614-feaeb72f049e, .be5314d4-a353-41fa-bd9e-6cf34a170609, .eb34a23d-3a1d-42ac-90d5-666eab3f50ad, .ff72adf8-f1da-41dd-9194-08a8a9518e5f {
        fill: #ea5736;
      }

      .bf3c1232-508f-4526-b96a-89dcaab2650a {
        fill: #ddd;
      }

      .ffa8504b-9868-45c8-850d-1ad9dc1f29e9 {
        fill: #6b3c2b;
      }

      .a67d997e-d107-475d-8e3a-255a5af1b32e {
        stroke-width: 8.23px;
      }

      .ff871b46-bf4f-4204-a305-812c940bd037 {
        stroke-width: 10.8px;
      }

      .b1d6af05-09f6-4b1e-9da9-8cbb36a253fb {
        fill: #ccc7bc;
      }

      .bc672955-7512-4811-97cb-5bedd26a44ba {
        fill: #062838;
      }

      .b035e48a-0756-481c-8c7b-f3f23dc95480 {
        fill: #fff;
      }

      .b2c7c3ff-b319-4bef-8142-cd65507d2a65 {
        stroke: #ccc7bc;
        stroke-width: 0.5px;
      }

      .aa4d29d4-4fee-45a7-a023-530d96ad2733, .ad93fb81-cbaf-472a-8614-feaeb72f049e, .ba99ac19-bc32-4d91-a8c9-fd7b21fa665d, .bafd34d2-bc1b-47d8-a515-ffd41fcacd50, .be27ef78-2b53-4bbd-a244-3e18f1b17fa1, .f73bf893-81f8-4d32-8562-4db60f262992 {
        fill-rule: evenodd;
      }

      .f9c8dd20-6bc2-48eb-8250-607bc5a2c1b3 {
        fill: #1d1d1b;
      }

      .a247cc5a-170e-4ee7-ac40-b5eea400076a, .a2b45f0f-a719-4887-b310-19e642f1a9cf, .ab006a17-d5ee-4b4e-92ca-68f34fccb90d, .af14a297-0174-4891-b48c-5d0f9087dbc2, .bafd34d2-bc1b-47d8-a515-ffd41fcacd50, .f73bf893-81f8-4d32-8562-4db60f262992, .ff72adf8-f1da-41dd-9194-08a8a9518e5f {
        stroke: #ea5736;
      }

      .f73bf893-81f8-4d32-8562-4db60f262992 {
        stroke-width: 0.45px;
      }

      .ba99ac19-bc32-4d91-a8c9-fd7b21fa665d, .f29af1b4-2fb8-4de1-bbd7-30b02af58f85 {
        fill: #002838;
      }

      .b213c96b-832f-423f-ab4d-fece70e5ec92 {
        stroke: #4d4d4c;
        stroke-width: 1.15px;
      }

      .a2b45f0f-a719-4887-b310-19e642f1a9cf {
        stroke-width: 4.03px;
      }

      .b8be300c-9a5b-4890-833e-48e61e093b2a, .f1a685cc-9a70-4839-9436-42bb55c6c447 {
        stroke: #d5a555;
      }

      .b8be300c-9a5b-4890-833e-48e61e093b2a {
        stroke-width: 2.96px;
      }

      .bfb69e07-68bf-4697-b6a1-0dd8c8b2dcf9, .f1a685cc-9a70-4839-9436-42bb55c6c447, .ff72adf8-f1da-41dd-9194-08a8a9518e5f {
        stroke-width: 1.48px;
      }

      .bfb69e07-68bf-4697-b6a1-0dd8c8b2dcf9 {
        fill: #867f72;
        stroke: #867f72;
      }

      .ab006a17-d5ee-4b4e-92ca-68f34fccb90d, .b20cf7a8-0706-4933-ade3-5124052f14a3, .bbd85d2c-7c77-4545-a0d7-0177220491d2, .be8f3436-e3c0-4e41-a420-fb3c23a1dbd1 {
        stroke-width: 0.99px;
      }

      .b20cf7a8-0706-4933-ade3-5124052f14a3, .bbd85d2c-7c77-4545-a0d7-0177220491d2 {
        stroke: #77a9a2;
      }

      .bafd34d2-bc1b-47d8-a515-ffd41fcacd50 {
        stroke-width: 0.41px;
      }

      .be1d723d-cee3-4d51-b637-c913979c3ee7 {
        opacity: 0.8;
      }

      .a204bd9d-196f-4ffa-9f1c-23be9a0dfb6c {
        fill: #feefe9;
      }

      .e8dfa97e-4f78-404d-9a51-109d3a21243f {
        fill: #fde7dc;
      }

      .f30f06b1-23dd-4bc2-8eab-8761f0945305 {
        fill: #fde5d9;
      }

      .b1e76910-07ed-483e-9828-c0639a41beb2 {
        fill: #fef1ea;
      }

      .a462d1ca-b010-4482-85f3-88982443fbf0 {
        fill: #fcdacb;
      }

      .a342dba6-2613-4386-9b5a-b986d9d2efb6 {
        fill: #fbd7c7;
      }

      .a6ed1206-8647-45ce-97b3-d2b3c711a082 {
        fill: #4e4d4c;
      }

      .be5314d4-a353-41fa-bd9e-6cf34a170609 {
        opacity: 0.51;
      }

      .af14a297-0174-4891-b48c-5d0f9087dbc2 {
        stroke-width: 9.85px;
      }

      .a247cc5a-170e-4ee7-ac40-b5eea400076a {
        stroke-width: 4.92px;
      }

      .eed12765-9265-40de-9f25-8a96bebb4482 {
        stroke: #30383b;
      }

      .a36f2a56-8d18-4df1-97dc-b78d2c88c121, .eed12765-9265-40de-9f25-8a96bebb4482 {
        stroke-width: 1.64px;
      }

      .f4cae898-7ec1-44d2-8b47-aa814920eef5 {
        clip-path: url(#b0be474d-4a2c-49b0-8115-6e1ae76329c1);
      }

      .fb41adfb-4eb2-4d3c-b3d4-646adc978bcc {
        fill: #2e2d2c;
      }

      .fcc936b0-d949-44f9-9192-854c1e36fd0c {
        stroke: #062837;
        stroke-width: 10.11px;
      }
    </style>
    <clipPath id="b0be474d-4a2c-49b0-8115-6e1ae76329c1">
      <rect class="b44b4599-8213-4f92-ae9a-ce5d40f1334f" x="213.7" y="356.89" width="5.14" height="2.77" rx="0.78" transform="translate(-13.87 8.75) rotate(-2.25)"/>
    </clipPath>
  </defs>
  <title>screen-6</title>
  <rect class="a91df6ac-412e-4d1a-ab6b-6a8b852b985d" y="-1801.23" width="465.11" height="2577.43"/>
  <rect class="f7e32995-11a2-4adc-a9af-7de6fd1884c5" x="91" y="40.8" width="359.84" height="303.05"/>
  <polygon class="f7e32995-11a2-4adc-a9af-7de6fd1884c5" points="407.73 242.62 465.96 128.15 466.75 729.65 211.38 729.65 407.73 242.62"/>
  <path class="aa2428e7-6ac3-4e50-a50e-ef6f3e89b6c5" d="M313.21,742.67C422,511.88,500,254.35,517.54-1.81L435.63-.59c-21.05,255.9-162.88,512.47-277.38,741.91Z"/>
  <rect class="a42b68ee-bf65-4604-8713-0acab3426970" y="120.64" width="196.54" height="454.03"/>
  <polygon class="a5f53a61-8b38-4ee8-8ef8-a442f5c6a5a4" points="0 120.5 207.31 120.87 0.73 -60.72 0 120.5"/>
  <g>
    <rect class="bb298a63-76c9-4d3b-8ed9-9760d27f6c8c" x="59.28" y="265.46" width="99.36" height="103.59"/>
    <g>
      <circle class="b44b4599-8213-4f92-ae9a-ce5d40f1334f" cx="132.04" cy="291.84" r="1.33"/>
      <path class="b44b4599-8213-4f92-ae9a-ce5d40f1334f" d="M110,317.34a.92.92,0,1,0,.92.91A.91.91,0,0,0,110,317.34Z"/>
      <path class="b44b4599-8213-4f92-ae9a-ce5d40f1334f" d="M77.68,274.71a.92.92,0,1,0,0,1.83.92.92,0,0,0,0-1.83Z"/>
      <path class="b44b4599-8213-4f92-ae9a-ce5d40f1334f" d="M85.65,337.79a.92.92,0,1,0,.91.91A.92.92,0,0,0,85.65,337.79Z"/>
      <circle class="b44b4599-8213-4f92-ae9a-ce5d40f1334f" cx="140.6" cy="349.79" r="0.91"/>
      <path class="b204c22b-2213-498b-b6a9-da362a9ccefc" d="M60,266.4V370h99.36V266.4Zm17.73,10.14a.92.92,0,1,1,.91-.91A.92.92,0,0,1,77.68,276.54Zm8,63.08a.92.92,0,1,1,.91-.92A.92.92,0,0,1,85.65,339.62Zm1-41.47-.91-.91,4.33-4.34.91.92Zm9.6,54.9-1.12-.64,2.8-5,1.12.64ZM110,319.17a.92.92,0,1,1,.92-.92A.92.92,0,0,1,110,319.17Zm22.07-26a1.33,1.33,0,1,1,1.33-1.33A1.33,1.33,0,0,1,132,293.17Zm8.56,57.53a.92.92,0,1,1,.91-.91A.92.92,0,0,1,140.6,350.7Zm10-50-2.15-7.31,1.24-.36,2.15,7.3Z"/>
    </g>
    <rect class="bcbeab7f-966e-46c2-8e94-645b570e04c6" x="59.28" y="265.46" width="99.36" height="103.59"/>
    <line class="f471bc74-326e-4c15-bbf7-8d33ff5faecb" x1="59.28" y1="317.26" x2="158.64" y2="317.26"/>
    <line class="f471bc74-326e-4c15-bbf7-8d33ff5faecb" x1="108.96" y1="265.46" x2="108.96" y2="369.06"/>
  </g>
  <rect class="eb34a23d-3a1d-42ac-90d5-666eab3f50ad" y="340.81" width="27.12" height="233.85"/>
  <rect class="bf3c1232-508f-4526-b96a-89dcaab2650a" y="-98.06" width="466.18" height="98.36"/>
  <g>
    <rect class="bb298a63-76c9-4d3b-8ed9-9760d27f6c8c" x="58.95" y="141.83" width="99.36" height="103.59"/>
    <g>
      <circle class="b44b4599-8213-4f92-ae9a-ce5d40f1334f" cx="131.7" cy="168.21" r="1.33"/>
      <path class="b44b4599-8213-4f92-ae9a-ce5d40f1334f" d="M109.64,193.71a.92.92,0,1,0,.91.91A.92.92,0,0,0,109.64,193.71Z"/>
      <path class="b44b4599-8213-4f92-ae9a-ce5d40f1334f" d="M77.35,151.08a.92.92,0,1,0,.91.92A.92.92,0,0,0,77.35,151.08Z"/>
      <path class="b44b4599-8213-4f92-ae9a-ce5d40f1334f" d="M85.31,214.16a.92.92,0,1,0,.92.91A.91.91,0,0,0,85.31,214.16Z"/>
      <circle class="b44b4599-8213-4f92-ae9a-ce5d40f1334f" cx="140.26" cy="226.16" r="0.91"/>
      <path class="b204c22b-2213-498b-b6a9-da362a9ccefc" d="M59.62,142.77V246.36H159V142.77Zm17.73,10.14a.92.92,0,1,1,.91-.91A.92.92,0,0,1,77.35,152.91Zm8,63.08a.92.92,0,1,1,.92-.92A.92.92,0,0,1,85.31,216Zm1-41.47-.91-.91,4.33-4.33.92.91Zm9.61,54.9-1.13-.63,2.8-5,1.13.64Zm13.71-33.88a.92.92,0,1,1,.91-.92A.92.92,0,0,1,109.64,195.54Zm22.06-26a1.33,1.33,0,1,1,1.33-1.33A1.33,1.33,0,0,1,131.7,169.54Zm8.56,57.54a.92.92,0,1,1,.92-.92A.92.92,0,0,1,140.26,227.08Zm10-50.05-2.15-7.31,1.23-.36,2.16,7.3Z"/>
    </g>
    <rect class="bcbeab7f-966e-46c2-8e94-645b570e04c6" x="58.95" y="141.83" width="99.36" height="103.59"/>
    <line class="f471bc74-326e-4c15-bbf7-8d33ff5faecb" x1="58.95" y1="193.63" x2="158.31" y2="193.63"/>
    <line class="f471bc74-326e-4c15-bbf7-8d33ff5faecb" x1="108.63" y1="141.83" x2="108.63" y2="245.43"/>
  </g>
  <g>
    <rect class="ffa8504b-9868-45c8-850d-1ad9dc1f29e9" x="403.15" y="680.85" width="13.08" height="5.86" rx="2.93"/>
    <rect class="ffa8504b-9868-45c8-850d-1ad9dc1f29e9" x="406.76" y="676.85" width="5.86" height="5.86" rx="2.93"/>
    <rect class="a91df6ac-412e-4d1a-ab6b-6a8b852b985d" x="346.5" y="675.15" width="12.34" height="8.57" rx="4.28"/>
    <rect class="a91df6ac-412e-4d1a-ab6b-6a8b852b985d" x="386.34" y="677.83" width="13.63" height="9.47" rx="4.28"/>
    <g>
      <g>
        <path class="b44b4599-8213-4f92-ae9a-ce5d40f1334f" d="M361.68,672.06l7.59,2.93"/>
        <path class="a91df6ac-412e-4d1a-ab6b-6a8b852b985d" d="M403,673.42a42.15,42.15,0,0,0-3.73-32.77,45.18,45.18,0,0,0-59.91-17.9,42.14,42.14,0,0,0-21.09,25.36l42.36,12.66Z"/>
        <path class="a91df6ac-412e-4d1a-ab6b-6a8b852b985d" d="M403,673.38c1.36-4.58-9.38-11.84-24-16.2s-39.5-6.35-37.81-2.26c1.27,3.06,18.24,14.48,32.86,18.85S401.67,678,403,673.38Z"/>
        <ellipse class="a91df6ac-412e-4d1a-ab6b-6a8b852b985d" cx="331.79" cy="639.98" rx="19.04" ry="15.89" transform="matrix(0.29, -0.96, 0.96, 0.29, -376.37, 774.76)"/>
        <line class="a67d997e-d107-475d-8e3a-255a5af1b32e" x1="354.66" y1="652.32" x2="354.66" y2="679.26"/>
        <line class="ff871b46-bf4f-4204-a305-812c940bd037" x1="394.5" y1="656.1" x2="394.5" y2="681.93"/>
        <ellipse class="b1d6af05-09f6-4b1e-9da9-8cbb36a253fb" cx="319.74" cy="630.73" rx="11.81" ry="5.13" transform="translate(-365.42 455.77) rotate(-48.79)"/>
        <ellipse class="b1d6af05-09f6-4b1e-9da9-8cbb36a253fb" cx="343.01" cy="632.43" rx="5.13" ry="11.81" transform="translate(-232.7 200.94) rotate(-24.67)"/>
        <ellipse class="bc672955-7512-4811-97cb-5bedd26a44ba" cx="329.42" cy="656.47" rx="6.75" ry="4.15"/>
        <rect class="b035e48a-0756-481c-8c7b-f3f23dc95480" x="318.02" y="638.24" width="9.3" height="3.42" rx="1.71"/>
        <rect class="b035e48a-0756-481c-8c7b-f3f23dc95480" x="330.37" y="638.24" width="9.3" height="3.42" rx="1.71"/>
        <circle class="bc672955-7512-4811-97cb-5bedd26a44ba" cx="322.67" cy="639.95" r="1.42"/>
        <circle class="bc672955-7512-4811-97cb-5bedd26a44ba" cx="335.02" cy="639.95" r="1.42"/>
        <path class="a67d997e-d107-475d-8e3a-255a5af1b32e" d="M401.32,664.39a37.5,37.5,0,0,0,18.94-4.75,59.9,59.9,0,0,0,15.34-12.3"/>
      </g>
      <path class="b2c7c3ff-b319-4bef-8142-cd65507d2a65" d="M315.43,652.45a13.84,13.84,0,0,1,10.79-.23"/>
      <path class="b2c7c3ff-b319-4bef-8142-cd65507d2a65" d="M344.46,652.93a13.89,13.89,0,0,0-10.79-.23"/>
      <path class="b2c7c3ff-b319-4bef-8142-cd65507d2a65" d="M324.38,653.1a13.85,13.85,0,0,0-10.49,2.57"/>
      <path class="b2c7c3ff-b319-4bef-8142-cd65507d2a65" d="M335.42,653.57a13.84,13.84,0,0,1,10.49,2.57"/>
      <path class="b2c7c3ff-b319-4bef-8142-cd65507d2a65" d="M323.32,653.93a13.89,13.89,0,0,0-9.86,4.41"/>
      <path class="b2c7c3ff-b319-4bef-8142-cd65507d2a65" d="M336.16,654.76a13.9,13.9,0,0,1,10,4.12"/>
    </g>
  </g>
  <g>
    <path class="b035e48a-0756-481c-8c7b-f3f23dc95480" d="M140.14,64a16.89,16.89,0,0,1,1.45-2.88,4.33,4.33,0,0,0,.56-3.1,4.23,4.23,0,0,0-1.65-2.09c-2.13-1.6-5.35-2.25-7.38-.51s-1.91,4.53-1.41,7,1.39,4.94.79,7.36S130,73.94,128.55,76a15.78,15.78,0,0,0-2.43,5.4,27.54,27.54,0,0,0-.54,6.73c0,3.45.33,7.14,2.49,9.83,2.57,3.19,7.08,4.08,11.17,3.86a16.45,16.45,0,0,0,7.18-1.81A9,9,0,0,0,151,94.33a11.16,11.16,0,0,0,.06-3.91,31.55,31.55,0,0,0-5.78-13.81c-1.57-2.24-3.37-4.36-4.44-6.88s-1.29-5.61.26-7.87"/>
    <path class="ad93fb81-cbaf-472a-8614-feaeb72f049e" d="M141.18,59.7c3.09-.22,6.73-.26,8.68,1.84l-9.09-.13,0-1.56"/>
    <circle class="f9c8dd20-6bc2-48eb-8250-607bc5a2c1b3" cx="139.22" cy="58.29" r="0.85"/>
    <path class="f73bf893-81f8-4d32-8562-4db60f262992" d="M135.14,100.53a122,122,0,0,0,.46,16.77"/>
    <path class="f73bf893-81f8-4d32-8562-4db60f262992" d="M141.49,100.53A122,122,0,0,1,141,117.3"/>
    <path class="ad93fb81-cbaf-472a-8614-feaeb72f049e" d="M133.35,120a1.64,1.64,0,0,1,1.21-.16,1.66,1.66,0,0,1,1,.71,1.21,1.21,0,0,1,.52-.72,1.28,1.28,0,0,1,.39-.07,5.58,5.58,0,0,1,1,0c-.16,0-.45-.41-.55-.53a6.14,6.14,0,0,1-.49-.65c-.3-.45-.52-1-.8-1.42a13.87,13.87,0,0,0-1.09,1.34Z"/>
    <path class="ad93fb81-cbaf-472a-8614-feaeb72f049e" d="M138.85,119.83a1.66,1.66,0,0,1,1.21-.17,1.69,1.69,0,0,1,1,.71,1.16,1.16,0,0,1,.52-.71,1,1,0,0,1,.38-.08,4.76,4.76,0,0,1,1,0c-.16,0-.45-.42-.55-.54a5.2,5.2,0,0,1-.48-.65c-.3-.45-.52-1-.81-1.41a13.92,13.92,0,0,0-1.08,1.33Z"/>
  </g>
  <path class="b44b4599-8213-4f92-ae9a-ce5d40f1334f" d="M123.39,517.15l.71,34.6"/>
  <path class="be27ef78-2b53-4bbd-a244-3e18f1b17fa1" d="M113.86,561.38c0-.45.07-.91.07-1.38A14.6,14.6,0,0,0,89.1,549.57a8,8,0,0,0-12.45,6.75A7.81,7.81,0,0,0,77,558.5a11.91,11.91,0,0,0-7.36,16.17h50.61a9.75,9.75,0,0,0-6.35-13.29Z"/>
  <path class="aa4d29d4-4fee-45a7-a023-530d96ad2733" d="M74.54,563.82c0-.45.07-.92.07-1.38A14.61,14.61,0,0,0,49.78,552a8.06,8.06,0,0,0-12.45,6.76,8.18,8.18,0,0,0,.31,2.17,11.91,11.91,0,0,0-7.36,16.17H80.89a9.74,9.74,0,0,0-6.35-13.28Z"/>
  <path class="aa4d29d4-4fee-45a7-a023-530d96ad2733" d="M160.23,561.38a12.5,12.5,0,0,0,.07-1.38,14.6,14.6,0,0,0-24.83-10.43A8,8,0,0,0,123,556.32a8.2,8.2,0,0,0,.31,2.18A11.91,11.91,0,0,0,116,574.67h50.61a9.75,9.75,0,0,0-6.35-13.29Z"/>
  <path class="be27ef78-2b53-4bbd-a244-3e18f1b17fa1" d="M193.09,563.82c0-.45.07-.92.07-1.38A14.61,14.61,0,0,0,168.33,552a8.06,8.06,0,0,0-12.45,6.76,7.8,7.8,0,0,0,.31,2.17,11.88,11.88,0,0,0-7.36,16.17h50.61a9.74,9.74,0,0,0-6.35-13.28Z"/>
  <rect class="f29af1b4-2fb8-4de1-bbd7-30b02af58f85" x="252.83" y="96.07" width="17.16" height="5.77" rx="2.88"/>
  <g>
    <line class="b213c96b-832f-423f-ab4d-fece70e5ec92" x1="316.68" y1="18.79" x2="316.68" y2="85.24"/>
    <line class="b213c96b-832f-423f-ab4d-fece70e5ec92" x1="330.98" y1="18.79" x2="330.98" y2="85.24"/>
    <line class="b213c96b-832f-423f-ab4d-fece70e5ec92" x1="357.84" y1="18.79" x2="357.84" y2="85.24"/>
    <line class="b213c96b-832f-423f-ab4d-fece70e5ec92" x1="372.14" y1="18.79" x2="372.14" y2="85.24"/>
    <polyline class="a2b45f0f-a719-4887-b310-19e642f1a9cf" points="276.76 102.35 294.61 18.79 349.41 18.79"/>
    <polyline class="a2b45f0f-a719-4887-b310-19e642f1a9cf" points="413.89 102.35 396.04 18.79 341.24 18.79"/>
    <line class="a2b45f0f-a719-4887-b310-19e642f1a9cf" x1="313.7" y1="102.35" x2="295.85" y2="18.79"/>
    <line class="a2b45f0f-a719-4887-b310-19e642f1a9cf" x1="377.32" y1="102.35" x2="395.17" y2="18.79"/>
    <rect class="f29af1b4-2fb8-4de1-bbd7-30b02af58f85" x="315.84" y="81.94" width="15.98" height="5.37" rx="2.69"/>
    <rect class="f29af1b4-2fb8-4de1-bbd7-30b02af58f85" x="357.13" y="81.94" width="15.98" height="5.37" rx="2.69"/>
  </g>
  <g>
    <line class="b8be300c-9a5b-4890-833e-48e61e093b2a" x1="254.88" y1="188.99" x2="254.88" y2="215.59"/>
    <line class="b8be300c-9a5b-4890-833e-48e61e093b2a" x1="232.07" y1="188.99" x2="232.07" y2="215.59"/>
    <line class="b8be300c-9a5b-4890-833e-48e61e093b2a" x1="229.13" y1="177.5" x2="230.88" y2="187.84"/>
    <rect class="f1a685cc-9a70-4839-9436-42bb55c6c447" x="229.46" y="187.84" width="28.19" height="3.02" transform="translate(487.11 378.7) rotate(-180)"/>
    <rect class="f1a685cc-9a70-4839-9436-42bb55c6c447" x="218.01" y="166.6" width="18.92" height="3.02" transform="translate(100.84 421.03) rotate(-99.87)"/>
  </g>
  <g>
    <line class="b8be300c-9a5b-4890-833e-48e61e093b2a" x1="296.7" y1="188.99" x2="296.7" y2="215.59"/>
    <line class="b8be300c-9a5b-4890-833e-48e61e093b2a" x1="319.51" y1="188.99" x2="319.51" y2="215.59"/>
    <line class="b8be300c-9a5b-4890-833e-48e61e093b2a" x1="322.45" y1="177.5" x2="320.69" y2="187.84"/>
    <rect class="f1a685cc-9a70-4839-9436-42bb55c6c447" x="293.92" y="187.84" width="28.19" height="3.02"/>
    <rect class="f1a685cc-9a70-4839-9436-42bb55c6c447" x="314.64" y="166.6" width="18.92" height="3.02" transform="translate(102.93 458.6) rotate(-80.13)"/>
  </g>
  <rect class="bfb69e07-68bf-4697-b6a1-0dd8c8b2dcf9" x="244.28" y="172.93" width="4.1" height="43.52"/>
  <rect class="bfb69e07-68bf-4697-b6a1-0dd8c8b2dcf9" x="302.82" y="172.93" width="4.1" height="43.52"/>
  <line class="b8be300c-9a5b-4890-833e-48e61e093b2a" x1="274.97" y1="103.66" x2="274.97" y2="216.46"/>
  <g>
    <path class="ff72adf8-f1da-41dd-9194-08a8a9518e5f" d="M227.72,126.28h94.5C317.19,107.44,298,93.4,275,93.4S232.76,107.44,227.72,126.28Z"/>
    <path class="a91df6ac-412e-4d1a-ab6b-6a8b852b985d" d="M275,92.74S265.7,113,265.7,127H275Z"/>
    <path class="a91df6ac-412e-4d1a-ab6b-6a8b852b985d" d="M275,92.74S284.24,113,284.24,127H275Z"/>
    <path class="a91df6ac-412e-4d1a-ab6b-6a8b852b985d" d="M275,92.74s-23,15-23,34.21H238.57S241.77,103.62,275,92.74Z"/>
    <path class="a91df6ac-412e-4d1a-ab6b-6a8b852b985d" d="M275,92.74s23,15,23,34.21h13.37S308.18,103.62,275,92.74Z"/>
  </g>
  <rect class="f1a685cc-9a70-4839-9436-42bb55c6c447" x="240.44" y="169.91" width="69.07" height="6.05"/>
  <rect class="be8f3436-e3c0-4e41-a420-fb3c23a1dbd1" x="297.35" y="158.28" width="5.9" height="10.66"/>
  <rect class="ab006a17-d5ee-4b4e-92ca-68f34fccb90d" x="298.14" y="160.14" width="4.32" height="7.66"/>
  <rect class="be8f3436-e3c0-4e41-a420-fb3c23a1dbd1" x="246.8" y="158.28" width="5.9" height="10.66"/>
  <rect class="ab006a17-d5ee-4b4e-92ca-68f34fccb90d" x="247.59" y="162.02" width="4.32" height="5.77"/>
  <rect class="bbd85d2c-7c77-4545-a0d7-0177220491d2" x="283.74" y="151.76" width="8.68" height="17.17"/>
  <polyline class="b20cf7a8-0706-4933-ade3-5124052f14a3" points="284.24 153.06 280.17 153.06 280.17 159.43 283.85 163.1"/>
  <polyline class="bbd85d2c-7c77-4545-a0d7-0177220491d2" points="291.8 151.76 295.26 151.76 292.2 154.82"/>
  <rect class="ab006a17-d5ee-4b4e-92ca-68f34fccb90d" x="284.64" y="161.75" width="6.88" height="6.05"/>
  <g>
    <path class="b035e48a-0756-481c-8c7b-f3f23dc95480" d="M179.8,68.81a16.58,16.58,0,0,0-1.32-2.63,3.86,3.86,0,0,1-.51-2.83,3.78,3.78,0,0,1,1.5-1.9c1.95-1.46,4.88-2.05,6.73-.47s1.75,4.14,1.29,6.36-1.27,4.51-.72,6.71,2.31,3.83,3.61,5.68a14.71,14.71,0,0,1,2.21,4.93,25.31,25.31,0,0,1,.49,6.14c0,3.15-.3,6.52-2.27,9-2.34,2.91-6.46,3.72-10.19,3.52a15.16,15.16,0,0,1-6.56-1.65,8.24,8.24,0,0,1-4.14-5.16,10.43,10.43,0,0,1,0-3.57,28.84,28.84,0,0,1,5.27-12.6A34.83,34.83,0,0,0,179.19,74c1-2.29,1.18-5.11-.23-7.17"/>
    <path class="ad93fb81-cbaf-472a-8614-feaeb72f049e" d="M178.85,64.89c-2.82-.21-6.14-.24-7.92,1.68l8.29-.12,0-1.43"/>
    <circle class="f9c8dd20-6bc2-48eb-8250-607bc5a2c1b3" cx="180.64" cy="63.6" r="0.78"/>
    <path class="bafd34d2-bc1b-47d8-a515-ffd41fcacd50" d="M184.36,102.13a111.68,111.68,0,0,1-.42,15.3"/>
    <path class="bafd34d2-bc1b-47d8-a515-ffd41fcacd50" d="M178.57,102.13a110.11,110.11,0,0,0,.41,15.3"/>
    <path class="ad93fb81-cbaf-472a-8614-feaeb72f049e" d="M186,119.88a1.51,1.51,0,0,0-1.1-.15,1.49,1.49,0,0,0-.9.65,1.17,1.17,0,0,0-.48-.66.83.83,0,0,0-.35-.06,4.59,4.59,0,0,0-.91,0c.14,0,.4-.38.5-.49a6,6,0,0,0,.44-.59c.27-.42.47-.87.73-1.29a11.71,11.71,0,0,1,1,1.22Z"/>
    <path class="ad93fb81-cbaf-472a-8614-feaeb72f049e" d="M181,119.74a1.51,1.51,0,0,0-1.1-.16,1.56,1.56,0,0,0-.91.66,1.11,1.11,0,0,0-.47-.66,1.1,1.1,0,0,0-.36-.07,4.63,4.63,0,0,0-.91,0c.15,0,.41-.39.5-.49a6.14,6.14,0,0,0,.45-.59c.27-.42.47-.88.73-1.3a12.86,12.86,0,0,1,1,1.22Z"/>
  </g>
  <g class="be1d723d-cee3-4d51-b637-c913979c3ee7">
    <g class="be1d723d-cee3-4d51-b637-c913979c3ee7">
      <path class="a204bd9d-196f-4ffa-9f1c-23be9a0dfb6c" d="M122.35,390.46a25.31,25.31,0,0,1,7.3,6.77,27.65,27.65,0,0,1,4.22,8.9,47.69,47.69,0,0,1,.89,18A35.44,35.44,0,0,1,134,428c.32-.59.55-1.22.82-1.82a32.31,32.31,0,0,0,.41-23.06,28.17,28.17,0,0,0-6.75-10.31,30.65,30.65,0,0,0-10.09-6.48,31.72,31.72,0,0,0-7-1.68,48.24,48.24,0,0,0-7.09-.34c-4.7.11-9.33.72-14.08,1.08A1.09,1.09,0,0,0,89,386.5a18.59,18.59,0,0,1,2.6,1.15,96.5,96.5,0,0,1,11.61-1.14,34.76,34.76,0,0,1,11.91,1.65C117.69,389.05,120.91,389.49,122.35,390.46Z"/>
      <path class="e8dfa97e-4f78-404d-9a51-109d3a21243f" d="M91.32,387.6l.15.08,1.16-.16Z"/>
      <path class="f30f06b1-23dd-4bc2-8eab-8761f0945305" d="M110.44,386.8a24.45,24.45,0,0,1,7.65,2.2,15.16,15.16,0,0,1,4.26,1.46,25.31,25.31,0,0,1,7.3,6.77,27.65,27.65,0,0,1,4.22,8.9,47.69,47.69,0,0,1,.89,18A34.69,34.69,0,0,1,134,428c.33-.64.59-1.31.88-2a32.31,32.31,0,0,0,2-15.82c-.08-.3-.15-.59-.24-.87-1-2.92-1.33-5.8-2.66-8.59a33.22,33.22,0,0,0-7.7-9.4,29,29,0,0,0-10.5-5.66,20.22,20.22,0,0,0-4.54-.71c-1.57-.12-3.18-.17-4.84-.35l-3.31-.27c-4.37.18-8.68.74-13.1,1.07a1.11,1.11,0,0,0-1.17,1.12c.52.19,1,.38,1.44.59,3.57-.21,7.16-.55,10.86-.51a42.18,42.18,0,0,1,9.75.48A2.44,2.44,0,0,0,110.44,386.8Z"/>
      <path class="e8dfa97e-4f78-404d-9a51-109d3a21243f" d="M110.55,387.88c.44.1,1.11-.27.36-.81a42.18,42.18,0,0,0-9.75-.48A33.75,33.75,0,0,1,110.55,387.88Z"/>
      <path class="b1e76910-07ed-483e-9828-c0639a41beb2" d="M109.62,390.15a43,43,0,0,1,8.11,2.61,16.53,16.53,0,0,1,6.16,4.51,13.74,13.74,0,0,1,3,6.28,16.42,16.42,0,0,1,1,2,26.26,26.26,0,0,1,2,13.79,25,25,0,0,1-1.79,6.8,23.92,23.92,0,0,1-3.74,6,72.56,72.56,0,0,1-5.25,5.49,50.44,50.44,0,0,1-5.69,4.83,19.62,19.62,0,0,1-3,1.81c-.52.25-1,.55-1.55.75l-1.61.6a22.93,22.93,0,0,1-6.72,1.09,36.56,36.56,0,0,1-6.78-.53,37.25,37.25,0,0,1-6.61-1.87A34.28,34.28,0,0,1,80.8,441c-1-.61-2-1.41-3-2.13s-1.92-1.62-2.8-2.54a21.21,21.21,0,0,1-4.27-7.18,21.53,21.53,0,0,1-1.23-7.79,38.05,38.05,0,0,1,1.91-9.88,98.61,98.61,0,0,1,3.63-9.77c1.41-3.11,3.12-6.05,5.85-8.12a21.73,21.73,0,0,1,10.3-3.77c4.22-.55,4.69-3.25,3.63-3.25a54.47,54.47,0,0,0-10.28,1.59,22.55,22.55,0,0,0-5,2.11,19,19,0,0,0-4.3,3.4,34.66,34.66,0,0,0-5.69,8.63,62.34,62.34,0,0,0-3.75,9.32,28.79,28.79,0,0,0-1.29,10.3A26.43,26.43,0,0,0,67.37,432a34.39,34.39,0,0,0,6.06,8.41,37.19,37.19,0,0,0,23.29,11.32,14.37,14.37,0,0,0,2,.1c.67,0,1.33,0,2,0a30.32,30.32,0,0,0,3.93-.46,29.72,29.72,0,0,0,3.83-.94c.62-.2,1.23-.46,1.84-.69l.92-.36.88-.44c4.77-2.28,8.56-5.76,12.18-9a63.91,63.91,0,0,0,5.34-5.33A30.28,30.28,0,0,0,134,428a35.44,35.44,0,0,0,.75-3.83,47.69,47.69,0,0,0-.89-18,27.65,27.65,0,0,0-4.22-8.9,25.31,25.31,0,0,0-7.3-6.77c-1.44-1-4.66-1.41-7.19-2.3a34.76,34.76,0,0,0-11.91-1.65,96.5,96.5,0,0,0-11.61,1.14,49.43,49.43,0,0,0,4.57,2.42C100.76,389.37,105.4,389,109.62,390.15Z"/>
      <path class="a462d1ca-b010-4482-85f3-88982443fbf0" d="M109.62,390.15c-4.22-1.12-8.86-.78-13.41-.08a11.28,11.28,0,0,0,2.61.72c5.53.56,11.05,1.08,16,3a23,23,0,0,1,12,9.75,13.74,13.74,0,0,0-3-6.28,16.53,16.53,0,0,0-6.16-4.51A43,43,0,0,0,109.62,390.15Z"/>
      <path class="f30f06b1-23dd-4bc2-8eab-8761f0945305" d="M109.62,390.15c-4-1.06-8.44-.82-12.79-.17,1.49.06,3,.1,4.46.14a41,41,0,0,1,10.93,1.47,22.26,22.26,0,0,1,9.08,5.17,26.06,26.06,0,0,0-9.93-4.87,40,40,0,0,0-11.6-1c5.37.53,10.7,1.09,15.5,3a22.94,22.94,0,0,1,11.6,9.57,13.83,13.83,0,0,0-3-6.26,16.53,16.53,0,0,0-6.16-4.51A43,43,0,0,0,109.62,390.15Z"/>
      <path class="a342dba6-2613-4386-9b5a-b986d9d2efb6" d="M120.81,394.2a28.07,28.07,0,0,0-12.44-5.05,48.71,48.71,0,0,0-14,.14c.42.22.84.44,1.29.63l1.17.06c4.35-.65,8.77-.89,12.79.17a43,43,0,0,1,8.11,2.61,16.53,16.53,0,0,1,6.16,4.51,13.83,13.83,0,0,1,3,6.26,15.93,15.93,0,0,1,.92,1.85,26,26,0,0,1,2.07,14.08,24.71,24.71,0,0,1-1.88,6.92,24.4,24.4,0,0,1-3.93,6.05,49.32,49.32,0,0,1-4.45,5.31,44,44,0,0,1-5.21,4.76,25.79,25.79,0,0,1-2.87,1.89,22.12,22.12,0,0,1-3.06,1.39,20.4,20.4,0,0,1-6.47,1.29,9.77,9.77,0,0,0,1.52-.22c.5-.1,1-.17,1.51-.29a22.47,22.47,0,0,0,2.9-1c.47-.2,1-.38,1.41-.6l1.34-.75a18.14,18.14,0,0,0,2.6-1.74,19.46,19.46,0,0,1-3,1.76c-.51.23-1,.54-1.52.72l-1.57.59a22.65,22.65,0,0,1-6.57,1.08A34.93,34.93,0,0,1,89.25,445a4.15,4.15,0,0,1-1.82.13,7,7,0,0,1-1.23-.22,12.46,12.46,0,0,1-1.43-.57c-3.24-1.52-6-3.75-8.93-6-.34-.38.08-.63-.56-1.4a14.4,14.4,0,0,0,5.69,4.2,34,34,0,0,1-3-2.14c-.48-.39-.94-.82-1.42-1.23s-1-.84-1.41-1.3a21.33,21.33,0,0,1-5.38-11.54c-.14-.42-.24-.85-.34-1.28a30,30,0,0,1-.78-6.76,22.28,22.28,0,0,0-.3,2.88,12.46,12.46,0,0,1,.38-5c0,.71-.08,1.41-.08,2.1a33.24,33.24,0,0,1,1.93-6.71,20.72,20.72,0,0,0-1.45,8.32,33.8,33.8,0,0,1,5.08-14.91c0,.14-.07.28-.1.41,1.43-3.56,3.05-7,5.82-9.57s6.81-4,11.13-4.6,4.7-3.25,3.63-3.24c-2.34.21-4.74.42-7.16.88a26.28,26.28,0,0,0-7.15,2.34,19.62,19.62,0,0,0-5.93,4.77,33.08,33.08,0,0,0-4,6c-1.11,2.1-2.06,4.18-3,6.34a45.73,45.73,0,0,0-2.22,6.73,28.19,28.19,0,0,0-.8,7.25,25.1,25.1,0,0,0,1.32,7.26,26.49,26.49,0,0,1-.22-6.65,10.81,10.81,0,0,1,.42-2.68,24.09,24.09,0,0,0-.42,2.68,26.94,26.94,0,0,0,1.39,8.06,3.7,3.7,0,0,0,1.45,2.45,21.44,21.44,0,0,0,3.07,5.15c1.24,1.66,2.68,3.12,3.86,4.6a4,4,0,0,1,.55.95c.46.39.91.79,1.38,1.17L78.69,445c1,.75,2,1.32,3,2a35.35,35.35,0,0,0,19.13,4.87,30.54,30.54,0,0,0,17.88-7.14,34.41,34.41,0,0,1-3.9,2.28,27.81,27.81,0,0,1-4,1.53c-1.84.36-4.43,1.43-7.58,1.95a29.37,29.37,0,0,1-10,.09,5.45,5.45,0,0,1-2-.65c-.59-.3-1.18-.57-1.92-.88,2.9.23,6,.79,9.24.93a23.91,23.91,0,0,0,9.64-1.34l1.49-.63.78-.31.76-.39,1.56-.79c.52-.3,1-.61,1.55-.93a47.88,47.88,0,0,0,6-4.63,66.22,66.22,0,0,0,5.54-5.44,22.39,22.39,0,0,0,4-6.13c1.45-3.49,2.88-6.71,3.89-9.76a11.92,11.92,0,0,1-.63,4.36,27.7,27.7,0,0,1-3,6.68,37.73,37.73,0,0,1-4.53,5.66c-1.66,1.74-3.35,3.39-5.09,5A55.27,55.27,0,0,1,115,446a40.67,40.67,0,0,0,6-4.5c1.85-1.65,3.62-3.31,5.35-5.1a38.9,38.9,0,0,0,4.74-5.93,33.3,33.3,0,0,0,3.33-7.09,25.45,25.45,0,0,1-3.84,8.33c-1.71,2.47-3.64,4.6-5.3,6.85.41-.24.83-.5,1.24-.79a46.44,46.44,0,0,0,4.11-4.47A29.06,29.06,0,0,0,134,428a34.69,34.69,0,0,0,.74-3.79,47.69,47.69,0,0,0-.89-18,27.65,27.65,0,0,0-4.22-8.9,25.31,25.31,0,0,0-7.3-6.77,15.16,15.16,0,0,0-4.26-1.46,30.2,30.2,0,0,1,9.75,7.49c-1-1.37-2-2.63-2.9-3.87a18.28,18.28,0,0,1,3.78,4.13c1,1.49,1.87,3.06,2.82,4.78a39.15,39.15,0,0,0-3.7-5,29.69,29.69,0,0,1,3.71,6.7c-1.29-2.14-2.36-4.25-3.81-6.2a14.29,14.29,0,0,0-5.54-4.77,18.08,18.08,0,0,1,2.47,2,30.67,30.67,0,0,0-2.53-2l.06,0a23,23,0,0,0-8.67-3.35,23.89,23.89,0,0,1,7,3.49,35.45,35.45,0,0,1,5.68,5.15c.6.62,1.15,1.29,1.69,2-.56-.67-1.11-1.34-1.69-2a31.6,31.6,0,0,0-15.4-8.85c-5.9-1.47-12.13-1.51-18.22-1.14l-1.16.16c.37.19.73.39,1.07.58a63.64,63.64,0,0,1,15.06.37A29.1,29.1,0,0,1,120.81,394.2Z"/>
    </g>
  </g>
  <g class="be1d723d-cee3-4d51-b637-c913979c3ee7">
    <g class="be1d723d-cee3-4d51-b637-c913979c3ee7">
      <path class="a204bd9d-196f-4ffa-9f1c-23be9a0dfb6c" d="M91.09,399.65c-1.06,0-2,.1-3.25,0s-2.15-.17-3.15-.24l-1.47-.09-1,0a4.25,4.25,0,0,0-1.56.25,1.39,1.39,0,0,0-1,1.27,2.91,2.91,0,0,0,.66,1.58,7.18,7.18,0,0,0,.57.69c.29.31.68.69,1,1,.74.68,1.52,1.33,2.33,1.94,1.63,1.24,3.29,2.3,5.06,3.41a41.3,41.3,0,0,0,5,2.81c1.09.55,2.2,1.07,3.33,1.57l-1.48-1.13c-1.67-1.3-3.35-2.62-5-4l-.62-.51-.71-.57-1.34-1c-.86-.67-1.7-1.33-2.52-2s-1.59-1.34-2.31-2c-.36-.34-.71-.68-1-1l-.11-.12h0v0a.07.07,0,0,1,.12-.06s0,0,0,0H83c1.23,0,2.59.13,4.19.22a23.57,23.57,0,0,0,2.51,0l2.22-.06,4.4-.17c4.54-.27,9.1-1,13.78-1.52s9.47-1,14.48-1.14a1.14,1.14,0,0,0,1.28-1.1,21.42,21.42,0,0,1-2.71-1.32L111,397.58c-2,.19-4.09.38-6.16.54s-4.14.31-6.24.33C95.79,398.43,92.76,399.66,91.09,399.65Z"/>
      <path class="e8dfa97e-4f78-404d-9a51-109d3a21243f" d="M123.49,396.45l-.16-.09-1.23.12Z"/>
      <path class="f30f06b1-23dd-4bc2-8eab-8761f0945305" d="M103.57,398.4a62.69,62.69,0,0,1-8.07.41,28.05,28.05,0,0,1-4.41.84c-1.06,0-2,.1-3.25,0s-2.15-.17-3.15-.24l-1.47-.09-1,0a4.25,4.25,0,0,0-1.56.25,1.39,1.39,0,0,0-1,1.27,2.91,2.91,0,0,0,.66,1.58,7.18,7.18,0,0,0,.57.69c.29.31.68.69,1,1,.74.68,1.52,1.33,2.33,1.94,1.63,1.24,3.29,2.3,5.06,3.41a41.3,41.3,0,0,0,5,2.81c1.08.54,2.18,1.05,3.29,1.56L96,412.65c-2-1.51-3.8-3-5.78-4.63l-3-2.36c-1-.76-1.9-1.52-2.78-2.29l-.64-.4a7.8,7.8,0,0,1-1.48-1.1l-.07-.07s0,0,0,0l0-.06a.27.27,0,0,1,0-.12c0-.17.18-.25.24-.28a.12.12,0,0,1,0-.13.18.18,0,0,1,.14-.09l.09,0h.9c.73,0,1.48.07,2.3.13s1.65.15,2.68.17h2.57l2.51,0c1.69,0,3.42-.11,5.22-.22,2.82-.12,5.77-1.17,9.12-1.22,1.14-.07,2.24-.09,3.31-.08,4.38-.5,8.85-.92,13.53-1A1.12,1.12,0,0,0,126,397.7c-.53-.22-1-.45-1.49-.68-3.78,0-7.56.23-11.42.35-3.34.32-6.7.64-10.09.88A2.45,2.45,0,0,0,103.57,398.4Z"/>
      <path class="e8dfa97e-4f78-404d-9a51-109d3a21243f" d="M103.21,397.34c-.48,0-1,.56-.17.91,3.39-.24,6.75-.56,10.09-.88C109.89,397.47,106.6,397.51,103.21,397.34Z"/>
      <path class="b1e76910-07ed-483e-9828-c0639a41beb2" d="M103.66,394.84c-3.3,0-6.52.15-9.6.34-1.54.08-3,.15-4.5.16a11.93,11.93,0,0,1-2-.1c-.68-.07-1.37-.19-2.06-.31l-1.85-.3-1-.13a5,5,0,0,0-.63-.05l-.69,0a11.11,11.11,0,0,0-5.32,1,8.48,8.48,0,0,0-1.73,1.27,6,6,0,0,0-1,4.16c.28,2.21,1.83,4.37,3.66,6.14a39.11,39.11,0,0,0,3.58,3c1.2.89,2.4,1.71,3.58,2.51l1.72,1.15,1.7,1.19c4.7,3.29,9.53,6.26,14.31,9.18L109,428.4l3.56,2.19.46.3.23.15.42.29a13.38,13.38,0,0,1,1.29,1l.1.09h-.84c-.36,0-.68,0-1-.05a4.14,4.14,0,0,0-.63,0l-.33.06-2,.17-7.93.73c-2.64.23-5.3.46-8,.63-1.35.1-2.71.16-4.08.23l-1,.05-.58.05-1.22.1a19,19,0,0,1-2.68-.19c-.38-.06-.72-.13-1-.2l-.21-.06-.1,0,.16-.11.65-.42a38.57,38.57,0,0,1,4.1-2.33,2.67,2.67,0,0,0,.49-.32l.62-.44,1.23-.9c.82-.6,1.62-1.21,2.4-1.82,1.57-1.23,3.08-2.49,4.55-3.77,3-2.57,5.73-5.22,8.47-7.95,5.48-5.44,10.81-11.13,17-16.84,3.31-3.08,2-5.65,1.09-5-10.45,9.42-21,18.11-31.54,26.76l-8.11,6.65-5.94,4.9-5.71,4.85c-.49.28.12.22.38.26l1,.08,1.91.15,3.8.29c2.52.19,5.08.35,7.65.46l1.77.06,1.31,0,2.64,0c1.75,0,3.52,0,5.28-.07,2.75-.09,5.47-.18,8.16-.33l4-.24,2-.14c.91-.06,1.82-.13,2.72-.21,3.64-.28,7.11-.67,10.66-1l2.69-.29,1.36-.15.34,0,.17,0h.07l-.06,0-.54-.34-4.3-2.76-2.15-1.4-2.27-1.44-4.64-2.95-2-1.29-1.61-1.06-3.19-2.13c-4.25-2.84-8.43-5.72-12.42-8.74-1.13-.5-2.24-1-3.33-1.57a41.3,41.3,0,0,1-5-2.81c-1.77-1.11-3.43-2.17-5.06-3.41-.81-.61-1.59-1.26-2.33-1.94-.36-.33-.75-.71-1-1a7.18,7.18,0,0,1-.57-.69,2.91,2.91,0,0,1-.66-1.58,1.39,1.39,0,0,1,1-1.27,4.25,4.25,0,0,1,1.56-.25l1,0,1.47.09c1,.07,2,.18,3.15.24s2.19,0,3.25,0c1.67,0,4.7-1.22,7.48-1.2,2.1,0,4.18-.17,6.24-.33s4.12-.35,6.16-.54l12.18-1.2a40.54,40.54,0,0,0-4.78-2.65A99.65,99.65,0,0,1,103.66,394.84Z"/>
      <path class="a462d1ca-b010-4482-85f3-88982443fbf0" d="M103.66,394.84a99.65,99.65,0,0,0,14.71-1.11,11.79,11.79,0,0,0-2.83-.77c-2.94-.25-5.94-.34-9-.31s-6.16.18-9.29.24l-9.17.38c-1.39,0-3.08-.13-4.85-.1l-.7,0c-.31,0-.71.05-1.06.07a9.2,9.2,0,0,0-1.07.13,7.2,7.2,0,0,0-1.05.19c-.33.09-.67.17-1,.27l-.93.36a13.47,13.47,0,0,0-1.65,1,8.08,8.08,0,0,0-1.45,1.53,8.48,8.48,0,0,1,1.73-1.27,11.11,11.11,0,0,1,5.32-1l.69,0a5,5,0,0,1,.63.05l1,.13,1.85.3c.69.12,1.38.24,2.06.31a11.93,11.93,0,0,0,2,.1c1.46,0,3-.08,4.5-.16C97.14,395,100.36,394.88,103.66,394.84Z"/>
      <path class="f30f06b1-23dd-4bc2-8eab-8761f0945305" d="M103.66,394.84a94.36,94.36,0,0,0,14-1c-1.61-.08-3.22-.11-4.85-.07l-12.45.39c-2.07,0-4.14,0-6.2-.08L91.1,394l-1.54-.08-.75-.05-.61-.08.65,0h.83l1.65,0,3.31,0,6.61-.11c4.41-.2,8.82-.43,13.24-.72-2.87-.2-5.8-.25-8.78-.21-1.48,0-3,.07-4.49.14l-4.54.13-4.55.18-2.28.12-1.1,0h-.93c-1.4,0-3-.14-4.76-.1l-.74,0-1,.08c-.35,0-.69.09-1,.13a6.45,6.45,0,0,0-1,.2c-.32.09-.65.16-1,.27l-.9.35a16,16,0,0,0-1.6.95,9.15,9.15,0,0,0-1.43,1.49,8.79,8.79,0,0,1,1.71-1.24,11.11,11.11,0,0,1,5.32-1l.69,0a5,5,0,0,1,.63.05l1,.13,1.85.3c.69.12,1.38.24,2.06.31a11.93,11.93,0,0,0,2,.1c1.46,0,3-.08,4.5-.16C97.14,395,100.36,394.88,103.66,394.84Z"/>
      <path class="a342dba6-2613-4386-9b5a-b986d9d2efb6" d="M90.25,395.56l7.47.13c1.25,0,2.5,0,3.75,0l3.75-.13c5-.19,10-.49,15.09-1-.44-.25-.89-.48-1.36-.69l-1.26-.08a94.36,94.36,0,0,1-14,1c-3.3,0-6.52.15-9.6.34-1.54.08-3,.15-4.5.16a11.93,11.93,0,0,1-2-.1c-.68-.07-1.37-.19-2.06-.31l-1.85-.3-1-.13a5,5,0,0,0-.63-.05l-.69,0a11.11,11.11,0,0,0-5.32,1,8.79,8.79,0,0,0-1.71,1.24,6.65,6.65,0,0,0-.87,1.87,6.58,6.58,0,0,0-.17,2c.17,2.28,1.72,4.48,3.57,6.31l.51.49.45.41.91.78c.61.5,1.22,1,1.83,1.43,1.22.91,2.45,1.75,3.66,2.56s2.24,1.51,3.49,2.4c4.8,3.35,9.73,6.37,14.61,9.35,2.24,1.12,4.48,2.29,6.72,3.55,1.12.62,2.24,1.27,3.36,1.93l1.17.68.69.42a22.69,22.69,0,0,1,2.3,1.6,4.8,4.8,0,0,1,.39.32s.11.06,0,.06h-.7c-.6,0-1.17,0-1.68,0,.35,0,.7-.06,1-.11l.49-.07-.48-.27c-.65-.37-1.32-.72-1.92-1a15.46,15.46,0,0,1,1.25,1l.1.09h-.82c-.35,0-.67,0-1-.05a5,5,0,0,0-.56,0l-.24,0-.13,0h0l-.22,0-.42,0-6.72.62a9,9,0,0,1-4.86,1.49c-2,.15-3.91.19-5.86.24l-3,.12-1.49.1-.73.06-.56.08c-.41,0-.17-.54-.81-.6a10.25,10.25,0,0,0,1.35,0l1,0,1-.07a24.61,24.61,0,0,0,3.58-.57c-1.36.09-2.73.16-4.12.23l-1,0h-.4l-.28,0-1.22.1a15.42,15.42,0,0,1-3.82-.42l-.16-.05-.08,0s.06-.05.09-.08l.51-.33,1-.63c.65-.39,1.24-.74,1.76-1l.41-.41c.17-.17.34-.36.52-.56l.27-.33.7-.69c.94-.94,1.86-1.91,2.78-2.89L88.94,429a30,30,0,0,1,4.18-3.77L91.53,427l6.11-4.85a79.84,79.84,0,0,0-7.06,6.5c4.7-3.95,8.89-7.72,13.84-11.19l-.29.36c6.15-6,12-12.32,18.81-18.67,3.31-3.08,2-5.64,1.1-4.95-7.31,6.58-14.64,12.8-22,18.9l-11,9.08-5.53,4.53-4,3.27c-1.38,1.14-2.79,2.29-4.1,3.41,3.09-2.1,5.92-3.91,8.24-5.38a18,18,0,0,1,2.41-1.44L85.64,428c-1.32.93-2.72,2-4.18,3.17s-2.94,2.3-4.69,3.56A9.87,9.87,0,0,0,75.11,436a3.3,3.3,0,0,0-.57.63.35.35,0,0,0-.06.22s.06,0,.13,0l.19,0,.4-.06a68.64,68.64,0,0,0,7.51.82l4.13.29,2,.16c.58.05,1,.12,1.5.18a4.14,4.14,0,0,1,1.05.38c2.44,0,4.89,0,7.34-.06q5.15-.15,10.18-.45l5.49-.37c2.27-.19,4.53-.38,6.72-.61l6.64-.71,1.7-.19.85-.09.42,0c.13,0,0-.05,0-.08l-.17-.11-2.69-1.72-5.45-3.51-5.8-3.68a75.28,75.28,0,0,1,8,6.32,13.2,13.2,0,0,0,2.46,1.9c.08,0,0,0-.08,0l-.15,0-.3,0-.61.06-1.21.14-2.49.33-5.44.75-3,.36-2.76.27c-1.7.23-2.73-.26-4.4-.24a31.51,31.51,0,0,1,4.66-.92l1.23-.14,1.18-.11c.78-.07,1.57-.13,2.38-.18,1.63-.11,3.38-.2,5.15-.34.89-.07,1.78-.15,2.62-.25l1.24-.14.29,0-.28-.17-.57-.33c-2-1.14-3.81-2.32-5.87-3.67l-6.65-4.39a138.22,138.22,0,0,0-13.66-8.08,30.31,30.31,0,0,1-8.66-6.77,22.14,22.14,0,0,1,3.82,2.37c4,2.88,8.24,5.59,12.47,8.25l6.4,3.95,7.11,4.27c-1.16-.82-2.41-1.67-3.72-2.54l-3.36-2.24L106,421.27a131.62,131.62,0,0,1-12.53-8.9c5,3.39,9.65,7.18,15,9.51-.34-.36-.7-.72-1.07-1.07-3.32-2.27-6.6-4.56-9.75-6.94-1.11-.51-2.21-1-3.29-1.56a41.3,41.3,0,0,1-5-2.81c-1.77-1.11-3.43-2.17-5.06-3.41-.81-.61-1.59-1.26-2.33-1.94-.36-.33-.75-.71-1-1a7.18,7.18,0,0,1-.57-.69,2.91,2.91,0,0,1-.66-1.58,1.39,1.39,0,0,1,1-1.27,4.25,4.25,0,0,1,1.56-.25l1,0,1.47.09c1,.07,2,.18,3.15.24s2.19,0,3.25,0a28.05,28.05,0,0,0,4.41-.84c-2.08,0-4.16,0-6.23-.07-2.24,0-4.25-.41-6.24-.4a25.75,25.75,0,0,1,4.64,1.06c-1.75-.06-3.18-.32-4.58-.46l-.84-.1c-.22,0-.46,0-.71,0a3.56,3.56,0,0,0-1.49.26,1.84,1.84,0,0,0-.9.73,2,2,0,0,1,.78-.84,3.86,3.86,0,0,1,1.43-.49,6.9,6.9,0,0,1,.78-.09c.25,0,.5,0,.89,0l-.5,0-.4,0a7.91,7.91,0,0,0-.85,0,5.06,5.06,0,0,0-1.76.35,2.18,2.18,0,0,0-1.55,2,1.92,1.92,0,0,1,1.25-2.25,5.91,5.91,0,0,1,2.44-.43c.42,0,.74,0,1.22.06s.93.09,1.4.13c.94.1,1.89.21,2.89.24a13.27,13.27,0,0,0,1.54,0c.52-.05,1-.13,1.52-.23a18.4,18.4,0,0,1-3.31-.15,32.06,32.06,0,0,0,3.38.14h-.07a93.18,93.18,0,0,0,9.69-.85c-2.88.06-5.62-.07-8.35-.21-1.36-.08-2.72-.09-4-.24s-2.73-.32-4.18-.34a15.42,15.42,0,0,0-3,.3,13,13,0,0,1,3-.3c12.89.37,25.85.18,38.76.06l1.23-.12-1.11-.65C111.53,396,100.68,396.18,90.25,395.56Z"/>
    </g>
  </g>
  <g>
    <rect class="a6ed1206-8647-45ce-97b3-d2b3c711a082" x="163.22" y="415.82" width="14.32" height="27.16" transform="matrix(0.99, 0.11, -0.11, 0.99, 47.44, -15.91)"/>
    <polygon class="eb34a23d-3a1d-42ac-90d5-666eab3f50ad" points="174.64 416.2 169.31 415.62 170.47 411.85 174.32 412.27 174.64 416.2"/>
    <polygon class="be5314d4-a353-41fa-bd9e-6cf34a170609" points="168.96 415.02 130.71 407 132.29 401.02 169.6 412.61 168.96 415.02"/>
    <g>
      <line class="af14a297-0174-4891-b48c-5d0f9087dbc2" x1="231.07" y1="382.19" x2="233.47" y2="398.66"/>
      <rect class="eb34a23d-3a1d-42ac-90d5-666eab3f50ad" x="207.84" y="334.84" width="38.57" height="52.25" rx="19.29" transform="translate(-13.97 9.18) rotate(-2.25)"/>
      <line class="a247cc5a-170e-4ee7-ac40-b5eea400076a" x1="204.24" y1="366.34" x2="213.36" y2="365.98"/>
      <path class="eed12765-9265-40de-9f25-8a96bebb4482" d="M209.15,375.08a14.11,14.11,0,0,0,8.13-3.5"/>
      <rect class="a91df6ac-412e-4d1a-ab6b-6a8b852b985d" x="213.7" y="356.89" width="5.14" height="2.77" rx="0.78" transform="translate(-13.87 8.75) rotate(-2.25)"/>
      <circle class="a42b68ee-bf65-4604-8713-0acab3426970" cx="212.39" cy="341.28" r="6.5"/>
      <circle class="a42b68ee-bf65-4604-8713-0acab3426970" cx="222.22" cy="335.32" r="6.5"/>
      <circle class="a42b68ee-bf65-4604-8713-0acab3426970" cx="232.88" cy="334.9" r="6.5"/>
      <circle class="a42b68ee-bf65-4604-8713-0acab3426970" cx="240.67" cy="339.73" r="6.5"/>
      <circle class="a91df6ac-412e-4d1a-ab6b-6a8b852b985d" cx="245.24" cy="348.17" r="6.5"/>
      <circle class="a42b68ee-bf65-4604-8713-0acab3426970" cx="246.13" cy="357.02" r="6.5"/>
      <circle class="a42b68ee-bf65-4604-8713-0acab3426970" cx="237.76" cy="357.24" r="6.5"/>
      <circle class="a42b68ee-bf65-4604-8713-0acab3426970" cx="229.21" cy="353.04" r="6.5"/>
      <circle class="a42b68ee-bf65-4604-8713-0acab3426970" cx="220.22" cy="346.41" r="6.5"/>
      <circle class="a42b68ee-bf65-4604-8713-0acab3426970" cx="230.64" cy="342.24" r="6.5"/>
      <circle class="a42b68ee-bf65-4604-8713-0acab3426970" cx="239.46" cy="348.02" r="6.5"/>
      <g class="f4cae898-7ec1-44d2-8b47-aa814920eef5">
        <circle class="fb41adfb-4eb2-4d3c-b3d4-646adc978bcc" cx="214.85" cy="358.64" r="1.38"/>
      </g>
      <line class="a36f2a56-8d18-4df1-97dc-b78d2c88c121" x1="213.82" y1="354.68" x2="217.71" y2="354.4"/>
      <circle class="a42b68ee-bf65-4604-8713-0acab3426970" cx="235.71" cy="362.73" r="6.5"/>
      <circle class="a42b68ee-bf65-4604-8713-0acab3426970" cx="242.2" cy="368.81" r="6.5"/>
      <circle class="a42b68ee-bf65-4604-8713-0acab3426970" cx="250.16" cy="368.81" r="6.5"/>
      <circle class="a42b68ee-bf65-4604-8713-0acab3426970" cx="253.03" cy="351.7" r="6.5"/>
      <circle class="a42b68ee-bf65-4604-8713-0acab3426970" cx="250.03" cy="341.81" r="6.5"/>
      <circle class="a42b68ee-bf65-4604-8713-0acab3426970" cx="245.13" cy="334.6" r="6.5"/>
      <circle class="a42b68ee-bf65-4604-8713-0acab3426970" cx="253.03" cy="360.96" r="6.5"/>
      <circle class="a42b68ee-bf65-4604-8713-0acab3426970" cx="243.95" cy="374.96" r="6.5"/>
      <circle class="a42b68ee-bf65-4604-8713-0acab3426970" cx="247.16" cy="378.04" r="6.5"/>
      <g>
        <path class="eb34a23d-3a1d-42ac-90d5-666eab3f50ad" d="M232.46,561.88a4.12,4.12,0,0,1,3.21-2.86c-6.42-40.74,1.82-84.37,1.88-84.8.47-3-3.18-5.84-6.19-6.3a5.51,5.51,0,0,0-6.3,4.59c-.29,1.87-7.05,46.14-.2,88.81A5.51,5.51,0,0,0,230.3,566a5.3,5.3,0,0,0,.88-.07,5.88,5.88,0,0,0,1-.27A5.2,5.2,0,0,1,232.46,561.88Z"/>
        <path class="eb34a23d-3a1d-42ac-90d5-666eab3f50ad" d="M246.26,561.88a4.14,4.14,0,0,1,3.21-2.86c-6.42-40.74,2.35-84.37,2.42-84.8.47-3-3.71-5.84-6.72-6.3a5.52,5.52,0,0,0-6.31,4.59c-.29,1.87-7.05,46.14-.2,88.81A5.52,5.52,0,0,0,244.1,566a5.22,5.22,0,0,0,.88-.07,5.88,5.88,0,0,0,1-.27A5.2,5.2,0,0,1,246.26,561.88Z"/>
        <rect class="f29af1b4-2fb8-4de1-bbd7-30b02af58f85" x="220.09" y="396.59" width="32.58" height="72.91" rx="16.29"/>
        <rect class="f29af1b4-2fb8-4de1-bbd7-30b02af58f85" x="220.09" y="451.87" width="32.58" height="22.02"/>
        <path class="ba99ac19-bc32-4d91-a8c9-fd7b21fa665d" d="M228.9,398.26l10.46-4.7s12.09,1,13.11,16.59"/>
        <path class="f29af1b4-2fb8-4de1-bbd7-30b02af58f85" d="M243.88,559H230.45a5.44,5.44,0,0,0-5.45,5.44v1.87h24.32v-1.87A5.43,5.43,0,0,0,243.88,559Z"/>
        <polygon class="f29af1b4-2fb8-4de1-bbd7-30b02af58f85" points="249.47 559.01 249.78 566.33 241.35 566.33 238.51 559.01 249.47 559.01"/>
        <path class="f29af1b4-2fb8-4de1-bbd7-30b02af58f85" d="M232.73,559H219.3a5.43,5.43,0,0,0-5.44,5.44v1.87h24.32v-1.87A5.44,5.44,0,0,0,232.73,559Z"/>
        <polygon class="f29af1b4-2fb8-4de1-bbd7-30b02af58f85" points="238.32 559.01 238.63 566.33 230.2 566.33 227.37 559.01 238.32 559.01"/>
      </g>
      <rect class="eb34a23d-3a1d-42ac-90d5-666eab3f50ad" x="174.25" y="428.34" width="9.42" height="9.42" rx="2.65"/>
      <path class="fcc936b0-d949-44f9-9192-854c1e36fd0c" d="M236,403.48a117.89,117.89,0,0,1-53.78,29.45"/>
      <circle class="a42b68ee-bf65-4604-8713-0acab3426970" cx="237.46" cy="330.87" r="6.5"/>
      <circle class="a42b68ee-bf65-4604-8713-0acab3426970" cx="245.13" cy="346.75" r="6.5"/>
      <circle class="a42b68ee-bf65-4604-8713-0acab3426970" cx="228.13" cy="330.92" r="6.5"/>
      <circle class="a42b68ee-bf65-4604-8713-0acab3426970" cx="218.28" cy="334.74" r="6.5"/>
    </g>
  </g>
</svg>
