<svg class="story-screen__graphic" id="b648f06a-c892-45b0-9832-77f68d8184e3" data-name="Layer 1" xmlns="http://www.w3.org/2000/svg" xmlns:xlink="http://www.w3.org/1999/xlink" viewBox="0 0 462.93 728.21">
  <defs>
    <style>
      .a14be2c5-1fdd-4d11-bd83-db39b483611b, .a6804db3-9042-48bf-9df4-a29a995e1c9e, .aad33b87-8013-4d93-a11d-c23bce878c04, .b1f8d7eb-fb31-4892-a49f-006f06745f68, .b352a70c-c705-40a1-9bd7-5060be6c8a42, .b9c62711-1b15-4f12-83a2-0a6902ac39a2, .eb5348d1-738a-4085-82ae-1cc0043d3922, .f00b44c6-ad4d-4fe5-b532-2a0ba174945f, .f5075852-f99b-4d5b-b86c-6afe024b4bd9, .fe11d217-c42d-4340-8a11-0fd3274b1eb9 {
        fill: none;
      }

      .a8fc022b-f05d-4bd7-a508-324fca9e8e72, .b7ca44dc-9dd2-4110-beac-25254f830b6a {
        fill: #ede8db;
      }

      .e92bd991-f7f4-450f-bfdc-16d6a209ca94 {
        fill: #aeaaa1;
      }

      .b26ba998-7876-4205-a81c-eb3adc4cb31e, .bfbc19ba-87ed-4332-8654-113df78934db, .f38848d0-6308-4070-9963-81077acb402d {
        fill: #fff;
      }

      .f38848d0-6308-4070-9963-81077acb402d {
        stroke: #efefef;
        stroke-width: 2.46px;
      }

      .a14be2c5-1fdd-4d11-bd83-db39b483611b, .a6804db3-9042-48bf-9df4-a29a995e1c9e, .a8fc022b-f05d-4bd7-a508-324fca9e8e72, .b26ba998-7876-4205-a81c-eb3adc4cb31e, .b352a70c-c705-40a1-9bd7-5060be6c8a42, .b9c62711-1b15-4f12-83a2-0a6902ac39a2, .e9870292-79b5-41a3-bdb7-e5f9456a31b2, .eb5348d1-738a-4085-82ae-1cc0043d3922, .f00b44c6-ad4d-4fe5-b532-2a0ba174945f, .f38848d0-6308-4070-9963-81077acb402d, .fe11d217-c42d-4340-8a11-0fd3274b1eb9 {
        stroke-miterlimit: 10;
      }

      .b26ba998-7876-4205-a81c-eb3adc4cb31e {
        stroke: #d8d8d8;
        stroke-width: 13px;
      }

      .e72ee76d-2a19-485e-8655-32006ba42f0d {
        fill: #89563c;
      }

      .b92c5ff8-660d-4d12-8a68-9b5e478b5be9 {
        fill: #d5a555;
      }

      .a6a76a88-cd9c-4575-b332-58b8625b0c5a {
        fill: #002838;
      }

      .b5c27e8d-569c-4110-bdbf-e1d856f09f0a {
        fill: #77a9a2;
      }

      .f5075852-f99b-4d5b-b86c-6afe024b4bd9 {
        stroke: #ede8db;
        stroke-width: 16.99px;
      }

      .aad33b87-8013-4d93-a11d-c23bce878c04, .b537c843-ece7-40e1-9373-bc9c367a0be4, .b9c62711-1b15-4f12-83a2-0a6902ac39a2, .f00b44c6-ad4d-4fe5-b532-2a0ba174945f, .f5075852-f99b-4d5b-b86c-6afe024b4bd9, .fe11d217-c42d-4340-8a11-0fd3274b1eb9 {
        stroke-linecap: round;
      }

      .aad33b87-8013-4d93-a11d-c23bce878c04, .b537c843-ece7-40e1-9373-bc9c367a0be4, .f5075852-f99b-4d5b-b86c-6afe024b4bd9 {
        stroke-linejoin: round;
      }

      .a6804db3-9042-48bf-9df4-a29a995e1c9e, .b352a70c-c705-40a1-9bd7-5060be6c8a42, .e9870292-79b5-41a3-bdb7-e5f9456a31b2, .eb5348d1-738a-4085-82ae-1cc0043d3922 {
        stroke: #062837;
      }

      .eb5348d1-738a-4085-82ae-1cc0043d3922 {
        stroke-width: 17.31px;
      }

      .ffe5a606-3aa2-4344-84ec-7ce34004b791 {
        fill: #2e2d2c;
      }

      .a0eabf7d-ef23-4fc5-9c19-35d5d0a813e4, .b537c843-ece7-40e1-9373-bc9c367a0be4 {
        fill: #afaca3;
      }

      .b537c843-ece7-40e1-9373-bc9c367a0be4 {
        stroke: #d5a555;
        stroke-width: 5.64px;
      }

      .a966bac3-5855-4210-9740-ad4d89aa0c77 {
        clip-path: url(#b6fa17ff-64f9-4afa-ae5a-ce94fa54f87a);
      }

      .a14be2c5-1fdd-4d11-bd83-db39b483611b, .b9c62711-1b15-4f12-83a2-0a6902ac39a2, .f00b44c6-ad4d-4fe5-b532-2a0ba174945f, .fe11d217-c42d-4340-8a11-0fd3274b1eb9 {
        stroke: #ea5736;
      }

      .b9c62711-1b15-4f12-83a2-0a6902ac39a2 {
        stroke-width: 4px;
      }

      .aad33b87-8013-4d93-a11d-c23bce878c04 {
        stroke: #30383b;
        stroke-width: 3.76px;
      }

      .a8fc022b-f05d-4bd7-a508-324fca9e8e72 {
        stroke: #bababa;
        stroke-width: 2px;
      }

      .a2c48f7d-2da8-412f-a37a-c80ffbc0cd48, .e385d839-fad8-426c-9360-11e9ee5905a0, .e9870292-79b5-41a3-bdb7-e5f9456a31b2 {
        fill: #062837;
      }

      .a2c48f7d-2da8-412f-a37a-c80ffbc0cd48, .bdf1d244-c5ea-421e-836d-7e7c6b5ccc7a, .fe11d217-c42d-4340-8a11-0fd3274b1eb9 {
        fill-rule: evenodd;
      }

      .bdf1d244-c5ea-421e-836d-7e7c6b5ccc7a, .bf550cd5-0980-4f7f-b2d4-a83a07a21a57 {
        fill: #ea5736;
      }

      .b352a70c-c705-40a1-9bd7-5060be6c8a42 {
        stroke-width: 5px;
      }

      .a6804db3-9042-48bf-9df4-a29a995e1c9e, .e9870292-79b5-41a3-bdb7-e5f9456a31b2 {
        stroke-width: 3px;
      }

      .fa627ca8-eacb-42d4-9fcd-cb2f11ccea90 {
        fill: #867f72;
      }

      .e52d7b0a-a299-4384-8334-7f6e86f9e7ec {
        fill: #ece8dc;
      }

      .a0d67b02-6879-472b-b33c-c95de69e36fb {
        opacity: 0.75;
      }

      .ac2e0fbd-8599-4da3-987e-10690c9148b7 {
        fill: #1d1d1b;
      }

      .fe11d217-c42d-4340-8a11-0fd3274b1eb9 {
        stroke-width: 0.89px;
      }

      .a7a2696f-3278-4664-ab35-999d8bbd3494 {
        opacity: 0.47;
      }

      .a14be2c5-1fdd-4d11-bd83-db39b483611b {
        stroke-width: 18.95px;
      }

      .f00b44c6-ad4d-4fe5-b532-2a0ba174945f {
        stroke-width: 8.12px;
      }

      .a58be562-aa9f-4b10-b77e-090fdf6a89f1 {
        fill: #a2a081;
      }

      .fcf70179-80a4-46bc-940b-960b6066e34e {
        opacity: 0.91;
      }
    </style>
    <clipPath id="b6fa17ff-64f9-4afa-ae5a-ce94fa54f87a">
      <rect class="b1f8d7eb-fb31-4892-a49f-006f06745f68" x="93.65" y="470.97" width="11.77" height="6.34" rx="1.69"/>
    </clipPath>
  </defs>
  <rect class="b7ca44dc-9dd2-4110-beac-25254f830b6a" x="-1.01" y="-927.58" width="465.11" height="2577.43"/>
  <path class="e92bd991-f7f4-450f-bfdc-16d6a209ca94" d="M423.19,730.29c7.23-129.38-1.72-259.11-13.49-388.16-4.15-45.49-8.65-91-15.47-136.15C378.87,104.31,351.72,1.61,368.14-99.89l96.95.68-.89,827.85Z"/>
  <rect class="e92bd991-f7f4-450f-bfdc-16d6a209ca94" x="0.53" y="670.66" width="404.31" height="57.98"/>
  <rect class="f38848d0-6308-4070-9963-81077acb402d" x="-1.01" y="-0.49" width="465.61" height="728.15"/>
  <rect class="b26ba998-7876-4205-a81c-eb3adc4cb31e" x="13.88" y="297.96" width="434.93" height="323.18"/>
  <rect class="e72ee76d-2a19-485e-8655-32006ba42f0d" x="21.23" y="674.58" width="11.97" height="53.63"/>
  <g>
    <rect class="e92bd991-f7f4-450f-bfdc-16d6a209ca94" x="130.46" y="357.11" width="58.1" height="73.35" transform="translate(-15.31 6.55) rotate(-2.25)"/>
    <rect class="b92c5ff8-660d-4d12-8a68-9b5e478b5be9" x="126.32" y="357.11" width="58.1" height="73.35"/>
    <path class="a6a76a88-cd9c-4575-b332-58b8625b0c5a" d="M176.29,377.77c-6.87-1.13-13.87.68-20.82.41-5.86-.23-11.65-2-17.54-1.64-1.54.09-6.51.13-4.65,2.89.93,1.37,3.47.39,4.8.38C151,379.67,163.51,381.09,176.29,377.77Z"/>
    <path class="a6a76a88-cd9c-4575-b332-58b8625b0c5a" d="M176.29,384.68c-6.87-1.13-13.87.69-20.82.42-5.86-.23-11.65-2-17.54-1.64-1.54.09-6.51.13-4.65,2.89.93,1.36,3.47.39,4.8.37C151,386.59,163.51,388,176.29,384.68Z"/>
    <path class="a6a76a88-cd9c-4575-b332-58b8625b0c5a" d="M176.29,391.6c-6.87-1.13-13.87.68-20.82.41-5.86-.23-11.65-2-17.54-1.64-1.54.09-6.51.13-4.65,2.89.93,1.37,3.47.39,4.8.38C151,393.51,163.51,394.92,176.29,391.6Z"/>
    <path class="a6a76a88-cd9c-4575-b332-58b8625b0c5a" d="M176.29,399.9c-6.87-1.13-13.87.68-20.82.41-5.86-.23-11.65-2-17.54-1.64-1.54.09-6.51.13-4.65,2.89.93,1.37,3.47.39,4.8.38C151,401.81,163.51,403.22,176.29,399.9Z"/>
    <path class="a6a76a88-cd9c-4575-b332-58b8625b0c5a" d="M176.29,407.5c-6.87-1.12-13.87.69-20.82.42-5.86-.23-11.65-2-17.54-1.64-1.54.09-6.51.13-4.65,2.89.93,1.36,3.47.39,4.8.38C151,409.41,163.51,410.83,176.29,407.5Z"/>
    <g>
      <path class="a6a76a88-cd9c-4575-b332-58b8625b0c5a" d="M137.63,368.78a4.32,4.32,0,0,1,4.32-4.24,4.38,4.38,0,0,1,2.72.92.7.7,0,0,1,.12.94.71.71,0,0,1-.95.13,2.93,2.93,0,0,0-1.89-.65,3.13,3.13,0,0,0-2.12.85,2.91,2.91,0,0,0-.86,2,2.83,2.83,0,0,0,.86,2,3.13,3.13,0,0,0,2.12.85,2.91,2.91,0,0,0,1.89-.65.73.73,0,0,1,.95.13.7.7,0,0,1-.12.94A4.38,4.38,0,0,1,142,373,4.3,4.3,0,0,1,137.63,368.78Z"/>
      <path class="a6a76a88-cd9c-4575-b332-58b8625b0c5a" d="M151.09,371.07h-2.86l-.58,1.53a.65.65,0,0,1-.61.41.78.78,0,0,1-.22,0,.66.66,0,0,1-.39-.85l2.6-6.93a.65.65,0,0,1,.62-.41.64.64,0,0,1,.62.41l2.6,6.93a.67.67,0,0,1-.38.85.75.75,0,0,1-.23,0,.63.63,0,0,1-.6-.41Zm-.49-1.29-.95-2.53-1,2.53Z"/>
      <path class="a6a76a88-cd9c-4575-b332-58b8625b0c5a" d="M154.56,365.42a.64.64,0,0,1,.65-.64.66.66,0,0,1,.66.64v6.94a.66.66,0,0,1-.66.65.64.64,0,0,1-.65-.65Z"/>
      <path class="a6a76a88-cd9c-4575-b332-58b8625b0c5a" d="M163.51,372a.65.65,0,0,1-.41.82,1,1,0,0,1-.26,0h0a.92.92,0,0,1-.46-.13,1.16,1.16,0,0,1-.37-.42,3.06,3.06,0,0,1-.25-1.41,1,1,0,0,0-.14-.5,1.17,1.17,0,0,0-.35-.35,2.71,2.71,0,0,0-.66-.28h-1.39v2.55a.66.66,0,0,1-.66.65.64.64,0,0,1-.65-.65v-6.94a.63.63,0,0,1,.65-.64h2.1a2.52,2.52,0,0,1,1.61,4.46,1.69,1.69,0,0,1,.41.43,2.27,2.27,0,0,1,.39,1.27,2.92,2.92,0,0,0,0,.7A.61.61,0,0,1,163.51,372Zm-1.64-4.73a1.21,1.21,0,0,0-1.22-1.23h-1.44v2.43h1.44A1.21,1.21,0,0,0,161.87,367.31Z"/>
      <path class="a6a76a88-cd9c-4575-b332-58b8625b0c5a" d="M166.71,372.36a.65.65,0,0,1-.64.65.64.64,0,0,1-.64-.65v-6.83h0a.61.61,0,0,1,.26-.54.65.65,0,0,1,.89.14l3.8,5.26v-4.85a.63.63,0,0,1,.63-.63.64.64,0,0,1,.65.63v6.83a.64.64,0,0,1-1.13.42l-.06-.07-3.76-5.23Z"/>
    </g>
  </g>
  <rect class="e72ee76d-2a19-485e-8655-32006ba42f0d" x="406.23" y="674.58" width="11.97" height="53.63"/>
  <g>
    <rect class="b5c27e8d-569c-4110-bdbf-e1d856f09f0a" x="13.88" y="13.65" width="434.93" height="255.96"/>
    <rect class="f5075852-f99b-4d5b-b86c-6afe024b4bd9" x="13.88" y="13.65" width="434.93" height="255.96"/>
  </g>
  <path class="e72ee76d-2a19-485e-8655-32006ba42f0d" d="M169.21,664.53H80c-10.73,0-19.53-10.26-19.92-23.22l-2.9-96.83c-.41-13.64,8.63-25,19.92-25h94.52c11.24,0,20.26,11.24,19.92,24.82l-2.41,96.83C188.81,654.18,180,664.53,169.21,664.53Z"/>
  <g>
    <g>
      <g>
        <path class="eb5348d1-738a-4085-82ae-1cc0043d3922" d="M114.15,551.05c-8.23,0-14.1-.33-19.33,1.91S85,560,79.35,570.39c-5.87,10.79-12.21,36.08-17.24,62.46s71.38,23,81.77,29.29"/>
        <path class="eb5348d1-738a-4085-82ae-1cc0043d3922" d="M132.61,551.05c8.23,0,14.1-.33,19.33,1.91s9.81,7,15.46,17.43c5.88,10.79,12.21,36.08,17.25,62.46s-71.39,23-81.78,29.29"/>
        <rect class="b92c5ff8-660d-4d12-8a68-9b5e478b5be9" x="77.7" y="415.13" width="88.29" height="119.6" rx="44.15"/>
        <rect class="b7ca44dc-9dd2-4110-beac-25254f830b6a" x="93.65" y="470.97" width="11.77" height="6.34" rx="1.69"/>
        <rect class="b92c5ff8-660d-4d12-8a68-9b5e478b5be9" x="114.15" y="526.06" width="19.35" height="19.35"/>
        <rect class="b7ca44dc-9dd2-4110-beac-25254f830b6a" x="138.26" y="470.97" width="11.77" height="6.34" rx="1.69"/>
        <circle class="ffe5a606-3aa2-4344-84ec-7ce34004b791" cx="144.15" cy="474.14" r="2.52"/>
        <line class="b537c843-ece7-40e1-9373-bc9c367a0be4" x1="93.65" y1="460.56" x2="103.43" y2="460.56"/>
        <line class="b537c843-ece7-40e1-9373-bc9c367a0be4" x1="139.92" y1="460.56" x2="149.7" y2="460.56"/>
        <g class="a966bac3-5855-4210-9740-ad4d89aa0c77">
          <circle class="ffe5a606-3aa2-4344-84ec-7ce34004b791" cx="99.53" cy="474.14" r="2.47"/>
        </g>
        <path class="b9c62711-1b15-4f12-83a2-0a6902ac39a2" d="M104.63,504.51c7.48,6.52,14.09,6.63,17.21,6.63s9.73-.11,17.21-6.63"/>
        <path class="aad33b87-8013-4d93-a11d-c23bce878c04" d="M125.79,488.5H122.2a2.4,2.4,0,0,1-2.47-2.44v-3.49"/>
        <path class="a8fc022b-f05d-4bd7-a508-324fca9e8e72" d="M122.12,415.13l.64,31.38h36L166,482.57v-23.3A44.14,44.14,0,0,0,122.12,415.13Z"/>
        <path class="a8fc022b-f05d-4bd7-a508-324fca9e8e72" d="M121.56,415.13l-.64,31.38h-36l-7.2,36.06v-23.3A44.14,44.14,0,0,1,121.56,415.13Z"/>
        <rect class="e385d839-fad8-426c-9360-11e9ee5905a0" x="80.26" y="545.41" width="85.16" height="107.21" rx="33.88"/>
        <polygon class="a2c48f7d-2da8-412f-a37a-c80ffbc0cd48" points="83.87 681.91 161.8 681.91 165.41 616.35 80.25 616.35 83.87 681.91"/>
      </g>
      <path class="b92c5ff8-660d-4d12-8a68-9b5e478b5be9" d="M138.26,544.67c0,3.53-6.44,6.4-14.38,6.4s-14.38-2.87-14.38-6.4"/>
    </g>
    <g>
      <g>
        <path class="bdf1d244-c5ea-421e-836d-7e7c6b5ccc7a" d="M115.49,597.48v-1c0-1.2-.44-1.64-1.62-1.79a15.59,15.59,0,0,0-5.6.59c-.66.16-.72.15-.85-.49-.31-1.52-.62-1.39,1.09-1.8a16.43,16.43,0,0,1,7.08-.34,3,3,0,0,1,2.67,2.19,6.06,6.06,0,0,1,.16,1.28c0,2.55,0,6.39,0,7s0,1.37-.06,1.65c-.11.75-.49,1-1.15,1.25a9,9,0,0,1-3,.61,18,18,0,0,1-4.47-.17c-2.59-.45-3.5-2.22-3.27-4.71.2-2.17,1.26-3.06,3.71-3.39.89-.12,1.77-.28,2.66-.43Zm0,2c-1.63.29-3.2.54-4.76.87a1.68,1.68,0,0,0-1,.69,2.31,2.31,0,0,0,1.41,3.46,8.62,8.62,0,0,0,4.33-.26Z"/>
        <path class="bdf1d244-c5ea-421e-836d-7e7c6b5ccc7a" d="M141.48,595.05v10.63c0,.63-.08.7-.73.7s-.95,0-1.52,0-.71-.06-.72-.71v-9.1c0-.58,0-1.16,0-1.74a1.35,1.35,0,0,1,1-1.43,21.17,21.17,0,0,1,2.92-.74,17.51,17.51,0,0,1,4.8-.17,3.15,3.15,0,0,1,3.13,3.33c.05,3.34,0,6.68,0,10,0,.39-.16.56-.56.55-.57,0-1.15,0-1.73,0s-.69-.21-.68-.71c0-2.89,0-5.78,0-8.67,0-.26,0-.51,0-.76a1.59,1.59,0,0,0-1.7-1.7A14.85,14.85,0,0,0,141.48,595.05Z"/>
        <path class="bdf1d244-c5ea-421e-836d-7e7c6b5ccc7a" d="M101.6,606.49a12.82,12.82,0,0,1-4.1,0l-.17,0a4.5,4.5,0,0,1-3.72-3.74,14.44,14.44,0,0,1,0-6.07,4.62,4.62,0,0,1,4.15-4.07,12.53,12.53,0,0,1,5.77.4c.67.21.74.33.57,1-.32,1.39-.09,1.16-1.47.92a16.86,16.86,0,0,0-3.32-.28A2.7,2.7,0,0,0,96.53,597a12.87,12.87,0,0,0-.09,4.63c.34,2.09,1.24,2.88,3.42,2.89a18.36,18.36,0,0,0,3.2-.43c.69-.12.73-.14.89.51.33,1.34.31,1.42-1,1.69C102.47,606.36,102,606.43,101.6,606.49Z"/>
        <path class="bdf1d244-c5ea-421e-836d-7e7c6b5ccc7a" d="M130.44,595.22v10.41c0,.69-.06.75-.73.75s-1.08,0-1.62,0-.62-.17-.62-.6c0-.89,0-1.77,0-2.66v-7.85c0-1.39.24-1.71,1.58-2.13a24.85,24.85,0,0,1,6.83-.76c.47,0,.66,0,.68.68s0,.86,0,1.18c0,.6-.11.83-.92.77A33,33,0,0,0,130.44,595.22Z"/>
        <path class="bdf1d244-c5ea-421e-836d-7e7c6b5ccc7a" d="M124.41,590.12c0,.44-.19.62-.54.63-.6,0-1.19,0-1.79,0a.55.55,0,0,1-.6-.61v-1.85a.5.5,0,0,1,.54-.54h1.89c.35,0,.5.1.5.57Z"/>
      </g>
      <path class="bdf1d244-c5ea-421e-836d-7e7c6b5ccc7a" d="M123.75,592.87h-1.59a.67.67,0,0,0-.68.68v10.58l1.47-1.38,1.47,1.38V593.55A.67.67,0,0,0,123.75,592.87Z"/>
    </g>
    <rect class="b92c5ff8-660d-4d12-8a68-9b5e478b5be9" x="103.7" y="642.88" width="17.46" height="17.46" rx="3.48" transform="translate(224.85 1303.21) rotate(-180)"/>
    <rect class="b92c5ff8-660d-4d12-8a68-9b5e478b5be9" x="127.7" y="642.88" width="17.46" height="17.46" rx="3.48" transform="translate(272.85 1303.21) rotate(-180)"/>
    <rect class="e72ee76d-2a19-485e-8655-32006ba42f0d" x="15.62" y="660.9" width="408.07" height="16.77"/>
    <polygon class="bf550cd5-0980-4f7f-b2d4-a83a07a21a57" points="179.04 729.09 68.49 729.09 79.58 677.67 167.94 677.67 179.04 729.09"/>
    <path class="b352a70c-c705-40a1-9bd7-5060be6c8a42" d="M72.23,467.82c0-24.68,22.21-52.69,49.61-52.69s49.61,28,49.61,52.69"/>
    <path class="e385d839-fad8-426c-9360-11e9ee5905a0" d="M167,493.42h0c9.8,0,17.81-5.24,17.81-11.65V477c0-6.4-8-11.64-17.81-11.64h0"/>
    <path class="e385d839-fad8-426c-9360-11e9ee5905a0" d="M76.77,493.42h0C67,493.42,59,488.18,59,481.77V477c0-6.4,8-11.64,17.81-11.64h0"/>
    <g>
      <path class="a6804db3-9042-48bf-9df4-a29a995e1c9e" d="M102.2,507.54c-14,0-25.43-9.67-25.43-21.61"/>
      <rect class="e9870292-79b5-41a3-bdb7-e5f9456a31b2" x="102.2" y="503.42" width="13.58" height="8.27" rx="4.14"/>
    </g>
    <g class="text-cta text-cta--11">
      <rect class="a0eabf7d-ef23-4fc5-9c19-35d5d0a813e4" x="221.09" y="549.83" width="166" height="104.69" rx="6"/>
      <rect class="fa627ca8-eacb-42d4-9fcd-cb2f11ccea90" x="210.64" y="649.16" width="186.9" height="12" rx="6"/>
      <rect class="ffe5a606-3aa2-4344-84ec-7ce34004b791" x="232.43" y="559.82" width="143.32" height="84.7"/>
      <circle class="ffe5a606-3aa2-4344-84ec-7ce34004b791" cx="304.09" cy="554.85" r="2.4"/>
      <g>
      <g>
        <path class="e52d7b0a-a299-4384-8334-7f6e86f9e7ec" d="M280.7,628.51,277.47,633a.32.32,0,0,1-.28.15h0a.35.35,0,0,1-.31-.15l-3.22-4.47v8.28a.36.36,0,0,1-.71,0v-9.33a.32.32,0,0,1,.15-.27s0,0,0,0a.37.37,0,0,1,.49.08l3.58,5,3.57-5a.37.37,0,0,1,.49-.08.5.5,0,0,1,.1.11.47.47,0,0,1,.06.19v9.33a.35.35,0,0,1-.35.35.34.34,0,0,1-.34-.35Z"/>
        <path class="e52d7b0a-a299-4384-8334-7f6e86f9e7ec" d="M287.84,632.31l-3.38-4.62a.37.37,0,0,1,.07-.49.34.34,0,0,1,.49,0l3.15,4.34,3.17-4.34a.36.36,0,0,1,.56.44l-3.37,4.59v4.52a.34.34,0,0,1-.34.35.35.35,0,0,1-.35-.35Z"/>
        <path class="bf550cd5-0980-4f7f-b2d4-a83a07a21a57" d="M293.33,632a5.27,5.27,0,0,1,5.28-5.18,5.43,5.43,0,0,1,3.33,1.12.85.85,0,0,1,.14,1.15.84.84,0,0,1-1.15.16,3.58,3.58,0,0,0-2.32-.79,3.79,3.79,0,0,0-2.59,1,3.51,3.51,0,0,0,0,5,3.84,3.84,0,0,0,2.59,1,3.63,3.63,0,0,0,2.32-.8.88.88,0,0,1,1.15.16.85.85,0,0,1-.14,1.15,5.38,5.38,0,0,1-3.33,1.13A5.26,5.26,0,0,1,293.33,632Z"/>
        <path class="bf550cd5-0980-4f7f-b2d4-a83a07a21a57" d="M309.8,634.77h-3.5l-.71,1.87a.8.8,0,0,1-.74.51.82.82,0,0,1-.28,0,.8.8,0,0,1-.47-1l3.18-8.48a.83.83,0,0,1,1.53,0l3.18,8.48a.81.81,0,0,1-.48,1,.72.72,0,0,1-.27,0,.78.78,0,0,1-.74-.51Zm-.59-1.58-1.17-3.1-1.16,3.1Z"/>
        <path class="bf550cd5-0980-4f7f-b2d4-a83a07a21a57" d="M314.06,627.86a.78.78,0,0,1,.79-.79.8.8,0,0,1,.81.79v8.5a.8.8,0,0,1-.81.79.79.79,0,0,1-.79-.79Z"/>
        <path class="bf550cd5-0980-4f7f-b2d4-a83a07a21a57" d="M325,636a.8.8,0,0,1-.5,1,1.69,1.69,0,0,1-.32,0h0a1.12,1.12,0,0,1-.56-.15,1.62,1.62,0,0,1-.46-.51,3.92,3.92,0,0,1-.3-1.73,1.3,1.3,0,0,0-.17-.62,1.34,1.34,0,0,0-.44-.41,2.55,2.55,0,0,0-.8-.35h-1.7v3.13a.8.8,0,0,1-.81.79.79.79,0,0,1-.79-.79v-8.5a.78.78,0,0,1,.79-.79h2.58a3.08,3.08,0,0,1,3.08,3.09,3,3,0,0,1-1.12,2.36,2.16,2.16,0,0,1,.5.54,2.72,2.72,0,0,1,.48,1.55,3.24,3.24,0,0,0,.06.85A.79.79,0,0,1,325,636Zm-2-5.79a1.48,1.48,0,0,0-1.48-1.49h-1.77v3h1.77A1.47,1.47,0,0,0,323,630.16Z"/>
        <path class="bf550cd5-0980-4f7f-b2d4-a83a07a21a57" d="M328.94,636.36a.8.8,0,0,1-.78.79.79.79,0,0,1-.79-.79V628a.78.78,0,0,1,.31-.66.81.81,0,0,1,1.1.17l4.65,6.44V628a.78.78,0,0,1,.78-.78.8.8,0,0,1,.79.78v8.37a.8.8,0,0,1-.79.79.79.79,0,0,1-.59-.29l-.08-.09-4.6-6.39Z"/>
      </g>
      <path class="bf550cd5-0980-4f7f-b2d4-a83a07a21a57" d="M310.16,618.17l21.51,1.89a3.06,3.06,0,0,0,3.33-3V572.9a3.06,3.06,0,0,0-3.33-3l-21.51,1.89a3.07,3.07,0,0,0-2.8,3v40.33A3.07,3.07,0,0,0,310.16,618.17Z"/>
      <path class="e52d7b0a-a299-4384-8334-7f6e86f9e7ec" d="M298,618.05H276.38a3.46,3.46,0,0,1-3.46-3.46V575.31a3.47,3.47,0,0,1,3.46-3.46H298a3.47,3.47,0,0,1,3.46,3.46v39.28A3.46,3.46,0,0,1,298,618.05Zm-21.64-45.46a2.72,2.72,0,0,0-2.72,2.72v39.28a2.73,2.73,0,0,0,2.72,2.73H298a2.73,2.73,0,0,0,2.73-2.73V575.31a2.72,2.72,0,0,0-2.73-2.72Z"/>
    </g>
    </g>
    
    
  </g>
  <g class="a0d67b02-6879-472b-b33c-c95de69e36fb">
    <path class="bfbc19ba-87ed-4332-8654-113df78934db" d="M173.87,148.67a33.54,33.54,0,0,1,2.89-5.74c1-1.91,1.71-4.12,1.11-6.18a8.41,8.41,0,0,0-3.28-4.16c-4.25-3.18-10.67-4.48-14.69-1-3.77,3.23-3.82,9-2.81,13.89s2.77,9.85,1.57,14.66-5.06,8.36-7.89,12.4A31.73,31.73,0,0,0,146,183.28a55.33,55.33,0,0,0-1.09,13.42c.08,6.87.67,14.23,5,19.59,5.11,6.35,14.11,8.11,22.25,7.69a33,33,0,0,0,14.31-3.62c4.34-2.41,8-6.43,9.05-11.27a22.34,22.34,0,0,0,.11-7.78c-1.31-10-5.73-19.31-11.51-27.52-3.13-4.46-6.72-8.69-8.85-13.71s-2.57-11.17.51-15.67"/>
    <path class="bdf1d244-c5ea-421e-836d-7e7c6b5ccc7a" d="M175.94,140.1c6.16-.45,13.41-.51,17.29,3.67l-18.09-.26.08-3.12"/>
    <circle class="ac2e0fbd-8599-4da3-987e-10690c9148b7" cx="172.05" cy="137.29" r="1.7"/>
    <path class="fe11d217-c42d-4340-8a11-0fd3274b1eb9" d="M163.92,221.43a242.14,242.14,0,0,0,.9,33.42"/>
    <path class="fe11d217-c42d-4340-8a11-0fd3274b1eb9" d="M176.56,221.43a240.58,240.58,0,0,1-.91,33.42"/>
    <path class="bdf1d244-c5ea-421e-836d-7e7c6b5ccc7a" d="M160.34,260.2a3.26,3.26,0,0,1,4.39,1.09,2.37,2.37,0,0,1,1-1.43,2,2,0,0,1,.77-.15,11.06,11.06,0,0,1,2,.09c-.32,0-.89-.83-1.1-1.07a12.42,12.42,0,0,1-1-1.29c-.59-.9-1-1.91-1.6-2.82a27.85,27.85,0,0,0-2.16,2.66Z"/>
    <path class="bdf1d244-c5ea-421e-836d-7e7c6b5ccc7a" d="M171.31,259.88A3.29,3.29,0,0,1,175.7,261a2.36,2.36,0,0,1,1-1.43,2,2,0,0,1,.77-.14,9.48,9.48,0,0,1,2,.09c-.32,0-.9-.83-1.1-1.07a13.58,13.58,0,0,1-1-1.29c-.6-.91-1-1.91-1.6-2.82a27.85,27.85,0,0,0-2.16,2.66Z"/>
  </g>
  <g class="a7a2696f-3278-4664-ab35-999d8bbd3494">
    <line class="a14be2c5-1fdd-4d11-bd83-db39b483611b" x1="313.81" y1="261.03" x2="313.81" y2="186.72"/>
    <path class="f00b44c6-ad4d-4fe5-b532-2a0ba174945f" d="M277.71,195.74S281,232,313.81,245.26"/>
    <path class="f00b44c6-ad4d-4fe5-b532-2a0ba174945f" d="M349.32,181.76s-4.3,42.75-35.51,42.75"/>
    <circle class="a58be562-aa9f-4b10-b77e-090fdf6a89f1" cx="355.13" cy="176.22" r="28.22"/>
    <circle class="a58be562-aa9f-4b10-b77e-090fdf6a89f1" cx="374.91" cy="99.65" r="28.22"/>
    <circle class="a58be562-aa9f-4b10-b77e-090fdf6a89f1" cx="257.99" cy="102.44" r="33.72"/>
    <circle class="a58be562-aa9f-4b10-b77e-090fdf6a89f1" cx="311.07" cy="184.51" r="21.99"/>
    <circle class="a58be562-aa9f-4b10-b77e-090fdf6a89f1" cx="383.35" cy="145.49" r="36.31"/>
    <circle class="a58be562-aa9f-4b10-b77e-090fdf6a89f1" cx="239.97" cy="145.49" r="32.48"/>
    <circle class="a58be562-aa9f-4b10-b77e-090fdf6a89f1" cx="299.33" cy="83.04" r="48.39"/>
    <circle class="a58be562-aa9f-4b10-b77e-090fdf6a89f1" cx="335.47" cy="89.94" r="38.66"/>
    <circle class="a58be562-aa9f-4b10-b77e-090fdf6a89f1" cx="307.14" cy="138.33" r="48.39"/>
    <circle class="a58be562-aa9f-4b10-b77e-090fdf6a89f1" cx="271.95" cy="176.22" r="28.16"/>
  </g>
  <g class="fcf70179-80a4-46bc-940b-960b6066e34e">
    <path class="e52d7b0a-a299-4384-8334-7f6e86f9e7ec" d="M166.52,67.71s13.74,6.12,13.74,21.85a2.35,2.35,0,0,1-.66,1.65,2.29,2.29,0,0,1-1.64.69H109.79a2.29,2.29,0,0,1-1.63-.69,2.31,2.31,0,0,1-.67-1.65,18,18,0,0,1,18-17.69,17.72,17.72,0,0,1,10.73,3.57,24.31,24.31,0,0,1,39.53,0"/>
  </g>
  <g>
    <rect class="e92bd991-f7f4-450f-bfdc-16d6a209ca94" x="307.8" y="324.49" width="58.1" height="73.35" transform="translate(-13.9 13.48) rotate(-2.25)"/>
    <rect class="b92c5ff8-660d-4d12-8a68-9b5e478b5be9" x="303.65" y="324.49" width="58.1" height="73.35"/>
    <path class="a6a76a88-cd9c-4575-b332-58b8625b0c5a" d="M353.62,345.14c-6.86-1.12-13.87.69-20.82.42-5.86-.23-11.64-2-17.53-1.64-1.55.09-6.52.13-4.65,2.89.92,1.36,3.47.39,4.79.37C328.38,347.05,340.85,348.46,353.62,345.14Z"/>
    <path class="a6a76a88-cd9c-4575-b332-58b8625b0c5a" d="M353.62,352.06c-6.86-1.13-13.87.68-20.82.41-5.86-.22-11.64-2-17.53-1.64-1.55.09-6.52.13-4.65,2.89.92,1.37,3.47.39,4.79.38C328.38,354,340.85,355.38,353.62,352.06Z"/>
    <path class="a6a76a88-cd9c-4575-b332-58b8625b0c5a" d="M353.62,359c-6.86-1.12-13.87.69-20.82.42-5.86-.23-11.64-2-17.53-1.64-1.55.09-6.52.13-4.65,2.89.92,1.36,3.47.39,4.79.38C328.38,360.88,340.85,362.3,353.62,359Z"/>
    <path class="a6a76a88-cd9c-4575-b332-58b8625b0c5a" d="M353.62,367.27c-6.86-1.12-13.87.69-20.82.42-5.86-.23-11.64-2-17.53-1.64-1.55.09-6.52.13-4.65,2.89.92,1.36,3.47.39,4.79.38C328.38,369.18,340.85,370.59,353.62,367.27Z"/>
    <path class="a6a76a88-cd9c-4575-b332-58b8625b0c5a" d="M353.62,374.88c-6.86-1.13-13.87.69-20.82.42-5.86-.23-11.64-2-17.53-1.64-1.55.09-6.52.12-4.65,2.88.92,1.37,3.47.4,4.79.38C328.38,376.79,340.85,378.2,353.62,374.88Z"/>
    <g>
      <path class="a6a76a88-cd9c-4575-b332-58b8625b0c5a" d="M315,336.15a4.31,4.31,0,0,1,4.32-4.23,4.37,4.37,0,0,1,2.71.92.67.67,0,0,1-.82,1.07,2.89,2.89,0,0,0-1.89-.65,3.09,3.09,0,0,0-2.12.85,2.86,2.86,0,0,0,0,4.09,3.09,3.09,0,0,0,2.12.85,3,3,0,0,0,1.89-.65.71.71,0,0,1,.94.13.69.69,0,0,1-.12.94,4.37,4.37,0,0,1-2.71.92A4.3,4.3,0,0,1,315,336.15Z"/>
      <path class="a6a76a88-cd9c-4575-b332-58b8625b0c5a" d="M328.42,338.45h-2.86L325,340a.69.69,0,0,1-.62.41.54.54,0,0,1-.22,0,.67.67,0,0,1-.39-.84l2.6-6.93a.68.68,0,0,1,.63-.42.66.66,0,0,1,.62.42l2.6,6.93a.66.66,0,0,1-.39.84.51.51,0,0,1-.22,0,.64.64,0,0,1-.6-.41Zm-.48-1.3-.95-2.53-1,2.53Z"/>
      <path class="a6a76a88-cd9c-4575-b332-58b8625b0c5a" d="M331.9,332.8a.64.64,0,0,1,.65-.65.66.66,0,0,1,.65.65v6.94a.65.65,0,0,1-.65.65.64.64,0,0,1-.65-.65Z"/>
      <path class="a6a76a88-cd9c-4575-b332-58b8625b0c5a" d="M340.85,339.41a.64.64,0,0,1-.41.82.74.74,0,0,1-.26,0h0a.81.81,0,0,1-.46-.13,1.15,1.15,0,0,1-.38-.41,3.23,3.23,0,0,1-.25-1.41,1,1,0,0,0-.14-.51,1,1,0,0,0-.35-.34,2.24,2.24,0,0,0-.66-.28h-1.39v2.55a.66.66,0,0,1-.66.65.65.65,0,0,1-.64-.65V332.8a.64.64,0,0,1,.64-.65H338a2.52,2.52,0,0,1,1.6,4.46,1.93,1.93,0,0,1,.41.44,2.18,2.18,0,0,1,.39,1.27,2.66,2.66,0,0,0,.05.69A.63.63,0,0,1,340.85,339.41Zm-1.65-4.73a1.21,1.21,0,0,0-1.21-1.22h-1.45v2.42H338A1.21,1.21,0,0,0,339.2,334.68Z"/>
      <path class="a6a76a88-cd9c-4575-b332-58b8625b0c5a" d="M344,339.74a.64.64,0,1,1-1.28,0v-6.85a.63.63,0,0,1,.26-.54.65.65,0,0,1,.89.14l3.8,5.26v-4.84a.64.64,0,0,1,.64-.64.65.65,0,0,1,.65.64v6.83a.66.66,0,0,1-.65.65.63.63,0,0,1-.48-.24.13.13,0,0,1-.06-.07L344,334.86Z"/>
    </g>
  </g>
  <g>
    <rect class="e92bd991-f7f4-450f-bfdc-16d6a209ca94" x="228.06" y="363.67" width="58.1" height="73.35" transform="translate(-15.49 10.38) rotate(-2.25)"/>
    <rect class="b92c5ff8-660d-4d12-8a68-9b5e478b5be9" x="223.91" y="363.67" width="58.1" height="73.35"/>
    <path class="a6a76a88-cd9c-4575-b332-58b8625b0c5a" d="M273.88,384.33c-6.86-1.13-13.86.69-20.81.42-5.87-.23-11.65-2-17.54-1.64-1.54.09-6.51.13-4.65,2.89.92,1.36,3.47.39,4.79.37C248.64,386.24,261.11,387.65,273.88,384.33Z"/>
    <path class="a6a76a88-cd9c-4575-b332-58b8625b0c5a" d="M273.88,391.25c-6.86-1.13-13.86.68-20.81.41-5.87-.23-11.65-2-17.54-1.64-1.54.09-6.51.13-4.65,2.89.92,1.37,3.47.39,4.79.38C248.64,393.16,261.11,394.57,273.88,391.25Z"/>
    <path class="a6a76a88-cd9c-4575-b332-58b8625b0c5a" d="M273.88,398.16c-6.86-1.12-13.86.69-20.81.42-5.87-.23-11.65-2-17.54-1.64-1.54.09-6.51.13-4.65,2.89.92,1.36,3.47.39,4.79.38C248.64,400.07,261.11,401.48,273.88,398.16Z"/>
    <path class="a6a76a88-cd9c-4575-b332-58b8625b0c5a" d="M273.88,406.46c-6.86-1.13-13.86.69-20.81.42-5.87-.23-11.65-2-17.54-1.64-1.54.09-6.51.13-4.65,2.89.92,1.36,3.47.39,4.79.37C248.64,408.37,261.11,409.78,273.88,406.46Z"/>
    <path class="a6a76a88-cd9c-4575-b332-58b8625b0c5a" d="M273.88,414.07c-6.86-1.13-13.86.69-20.81.41-5.87-.22-11.65-2-17.54-1.64-1.54.1-6.51.13-4.65,2.89.92,1.37,3.47.4,4.79.38C248.64,416,261.11,417.39,273.88,414.07Z"/>
    <g>
      <path class="a6a76a88-cd9c-4575-b332-58b8625b0c5a" d="M235.23,375.34a4.31,4.31,0,0,1,4.32-4.23,4.42,4.42,0,0,1,2.71.91.7.7,0,0,1,.12,1,.69.69,0,0,1-.94.13,2.89,2.89,0,0,0-1.89-.65,3.09,3.09,0,0,0-2.12.85,2.86,2.86,0,0,0,0,4.09,3.09,3.09,0,0,0,2.12.85,3,3,0,0,0,1.89-.65.71.71,0,0,1,.94.13.69.69,0,0,1-.12.94,4.37,4.37,0,0,1-2.71.92A4.3,4.3,0,0,1,235.23,375.34Z"/>
      <path class="a6a76a88-cd9c-4575-b332-58b8625b0c5a" d="M248.68,377.64h-2.86l-.57,1.53a.67.67,0,0,1-.61.41.56.56,0,0,1-.23,0,.68.68,0,0,1-.39-.85l2.6-6.92a.68.68,0,0,1,.63-.42.65.65,0,0,1,.62.42l2.6,6.92a.67.67,0,0,1-.39.85.51.51,0,0,1-.22,0,.64.64,0,0,1-.6-.41Zm-.48-1.3-.95-2.53-1,2.53Z"/>
      <path class="a6a76a88-cd9c-4575-b332-58b8625b0c5a" d="M252.16,372a.64.64,0,0,1,.65-.65.66.66,0,0,1,.66.65v6.94a.66.66,0,0,1-.66.65.64.64,0,0,1-.65-.65Z"/>
      <path class="a6a76a88-cd9c-4575-b332-58b8625b0c5a" d="M261.11,378.6a.64.64,0,0,1-.41.82.74.74,0,0,1-.26,0h0a.81.81,0,0,1-.46-.13,1.25,1.25,0,0,1-.38-.41,3.25,3.25,0,0,1-.24-1.41,1,1,0,0,0-.15-.51,1,1,0,0,0-.35-.34,2.14,2.14,0,0,0-.66-.28H256.8v2.55a.65.65,0,0,1-1.3,0V372a.64.64,0,0,1,.65-.65h2.1a2.52,2.52,0,0,1,2.52,2.53,2.47,2.47,0,0,1-.92,1.93,1.73,1.73,0,0,1,.41.44,2.18,2.18,0,0,1,.39,1.27,3.23,3.23,0,0,0,.05.69A.63.63,0,0,1,261.11,378.6Zm-1.65-4.73a1.21,1.21,0,0,0-1.21-1.22H256.8v2.42h1.45A1.21,1.21,0,0,0,259.46,373.87Z"/>
      <path class="a6a76a88-cd9c-4575-b332-58b8625b0c5a" d="M264.31,378.93a.65.65,0,1,1-1.29,0v-6.85a.64.64,0,0,1,1.16-.4l3.8,5.26V372.1a.64.64,0,0,1,.63-.64.65.65,0,0,1,.65.64v6.83a.66.66,0,0,1-.65.65.64.64,0,0,1-.48-.24s-.05,0-.06-.07l-3.76-5.22Z"/>
    </g>
  </g>
  <g>
    <rect class="e92bd991-f7f4-450f-bfdc-16d6a209ca94" x="334.07" y="454.77" width="58.1" height="73.35" transform="translate(-18.98 14.61) rotate(-2.25)"/>
    <rect class="b92c5ff8-660d-4d12-8a68-9b5e478b5be9" x="329.92" y="454.77" width="58.1" height="73.35"/>
    <path class="a6a76a88-cd9c-4575-b332-58b8625b0c5a" d="M379.89,475.42c-6.86-1.12-13.87.69-20.82.42-5.86-.23-11.65-2-17.54-1.64-1.54.09-6.51.13-4.64,2.89.92,1.36,3.46.39,4.79.38C354.64,477.33,367.11,478.74,379.89,475.42Z"/>
    <path class="a6a76a88-cd9c-4575-b332-58b8625b0c5a" d="M379.89,482.34c-6.86-1.13-13.87.69-20.82.41-5.86-.22-11.65-2-17.54-1.64-1.54.1-6.51.13-4.64,2.89.92,1.37,3.46.4,4.79.38C354.64,484.25,367.11,485.66,379.89,482.34Z"/>
    <path class="a6a76a88-cd9c-4575-b332-58b8625b0c5a" d="M379.89,489.26c-6.86-1.13-13.87.68-20.82.41-5.86-.23-11.65-2-17.54-1.64-1.54.09-6.51.13-4.64,2.89.92,1.36,3.46.39,4.79.38C354.64,491.16,367.11,492.58,379.89,489.26Z"/>
    <path class="a6a76a88-cd9c-4575-b332-58b8625b0c5a" d="M379.89,497.55c-6.86-1.12-13.87.69-20.82.42-5.86-.23-11.65-2-17.54-1.64-1.54.09-6.51.13-4.64,2.89.92,1.36,3.46.39,4.79.38C354.64,499.46,367.11,500.88,379.89,497.55Z"/>
    <path class="a6a76a88-cd9c-4575-b332-58b8625b0c5a" d="M379.89,505.16c-6.86-1.13-13.87.69-20.82.42-5.86-.23-11.65-2-17.54-1.64-1.54.09-6.51.13-4.64,2.89.92,1.36,3.46.39,4.79.37C354.64,507.07,367.11,508.48,379.89,505.16Z"/>
    <g>
      <path class="a6a76a88-cd9c-4575-b332-58b8625b0c5a" d="M341.23,466.43a4.33,4.33,0,0,1,4.32-4.23,4.38,4.38,0,0,1,2.72.92.67.67,0,0,1-.82,1.07,2.92,2.92,0,0,0-1.9-.65,3.13,3.13,0,0,0-2.12.85,2.89,2.89,0,0,0,0,4.09,3.13,3.13,0,0,0,2.12.85,2.94,2.94,0,0,0,1.9-.65.72.72,0,0,1,.94.13.7.7,0,0,1-.12.94,4.38,4.38,0,0,1-2.72.92A4.32,4.32,0,0,1,341.23,466.43Z"/>
      <path class="a6a76a88-cd9c-4575-b332-58b8625b0c5a" d="M354.69,468.73h-2.86l-.58,1.53a.65.65,0,0,1-.61.41.54.54,0,0,1-.22,0,.66.66,0,0,1-.39-.84l2.6-6.93a.63.63,0,0,1,.62-.41.65.65,0,0,1,.63.41l2.6,6.93a.67.67,0,0,1-.39.84.53.53,0,0,1-.23,0,.64.64,0,0,1-.6-.41Zm-.48-1.3-1-2.53-.95,2.53Z"/>
      <path class="a6a76a88-cd9c-4575-b332-58b8625b0c5a" d="M358.16,463.08a.65.65,0,0,1,.65-.65.66.66,0,0,1,.66.65V470a.66.66,0,0,1-.66.65.64.64,0,0,1-.65-.65Z"/>
      <path class="a6a76a88-cd9c-4575-b332-58b8625b0c5a" d="M367.12,469.69a.67.67,0,0,1-.42.83,1.14,1.14,0,0,1-.26,0h0a.83.83,0,0,1-.46-.13,1.05,1.05,0,0,1-.37-.41,3.06,3.06,0,0,1-.25-1.41,1,1,0,0,0-.14-.51,1.14,1.14,0,0,0-.35-.34,2.35,2.35,0,0,0-.66-.28h-1.39V470a.66.66,0,0,1-1.31,0v-6.94a.65.65,0,0,1,.65-.65h2.11a2.52,2.52,0,0,1,1.6,4.46,1.93,1.93,0,0,1,.41.44,2.27,2.27,0,0,1,.39,1.27,3.4,3.4,0,0,0,0,.69A.67.67,0,0,1,367.12,469.69ZM365.47,465a1.21,1.21,0,0,0-1.21-1.22h-1.45v2.42h1.45A1.21,1.21,0,0,0,365.47,465Z"/>
      <path class="a6a76a88-cd9c-4575-b332-58b8625b0c5a" d="M370.31,470a.64.64,0,1,1-1.28,0v-6.83h0a.65.65,0,0,1,.26-.55.64.64,0,0,1,.89.15L374,468v-4.84a.64.64,0,0,1,.64-.64.65.65,0,0,1,.64.64V470a.65.65,0,0,1-.64.65.63.63,0,0,1-.49-.24l-.06-.07-3.76-5.22Z"/>
    </g>
  </g>
</svg>
