<svg xmlns="http://www.w3.org/2000/svg" viewBox="0 0 242.42 111.89"><defs><style>.cls-1{fill:#e95636;}.cls-10,.cls-2{fill:#ece7db;}.cls-15,.cls-3{fill:#fff;}.cls-4{fill:#cec6b6;}.cls-5{fill:#3c5742;}.cls-6{fill:#2d2d2b;}.cls-7{fill:#858072;}.cls-8{fill:#78a9a2;}.cls-9{fill:#002838;}.cls-10,.cls-15{opacity:0.25;}.cls-11{fill:#30373a;}.cls-12{fill:#d4a455;}.cls-13{fill:#89523a;}.cls-14{fill:#aeaba2;}</style></defs><title>bus</title><g id="Layer_2" data-name="Layer 2"><g id="Street"><path class="cls-1" d="M228.21,3.84A28,28,0,0,0,214,0H28.2A28.24,28.24,0,0,0,0,27.58H.19c0,.24,0,.49,0,.74v60A9.63,9.63,0,0,0,9.81,98H34.22a2.59,2.59,0,0,0,2.55-2.17,14.37,14.37,0,0,1,28.34,0A2.59,2.59,0,0,0,67.66,98h99.1a2.6,2.6,0,0,0,2.56-2.17,14.36,14.36,0,0,1,28.33,0A2.6,2.6,0,0,0,200.21,98h32.57a9.64,9.64,0,0,0,9.64-9.63v-60A28.23,28.23,0,0,0,228.21,3.84ZM154.82,64.37a9.86,9.86,0,0,1-5.91,2.8,8.93,8.93,0,0,1-1.27.08H38.85A10.15,10.15,0,0,1,36.57,67a9.92,9.92,0,0,1,0-19.31,10.15,10.15,0,0,1,2.28-.26h49l0,0h60a10.14,10.14,0,0,1,2.35.28,9.91,9.91,0,0,1,4.61,16.7Zm29.29-36.79H7.2A21.05,21.05,0,0,1,23.44,7.74h210a28.15,28.15,0,0,1,8.81,19.84H184.11Zm58.25,39.67H213.62a8.56,8.56,0,0,1-4-1.1,10,10,0,0,1-5-8.82c0-5.4,4-9.79,9-9.91h28.74Z"/><path class="cls-2" d="M68,67.23,87.84,47.42h-.19L67.81,67.25H85v0Z"/><polygon class="cls-2" points="129.71 67.25 129.72 67.25 129.72 67.25 129.71 67.25"/><path class="cls-2" d="M125.31,67.23H92.84v0H129.7v0Z"/><path class="cls-2" d="M36.57,7.74H23.44A21.05,21.05,0,0,0,7.2,27.58H29.41L49.25,7.74Z"/><path class="cls-2" d="M209.61,66.15a8.56,8.56,0,0,0,4,1.1h28.74V47.42h-14Z"/><path class="cls-3" d="M135.24,67.23v0h12.4a8.93,8.93,0,0,0,1.27-.08,9.24,9.24,0,0,1-1,.06Z"/><path class="cls-4" d="M235,27.58h7.19a28.15,28.15,0,0,0-8.81-19.84H189.94L170.11,27.58H235Z"/><path class="cls-4" d="M213.82,47.42h-.2c-5,.12-9,4.51-9,9.91a10,10,0,0,0,5,8.82l18.73-18.73Z"/><path class="cls-4" d="M66.08,47.42H38.85a10.15,10.15,0,0,0-2.28.26,9.92,9.92,0,0,0,0,19.31,10.15,10.15,0,0,0,2.28.26h29L87.65,47.42Z"/><polygon class="cls-4" points="125.09 7.74 95.59 7.74 66.08 7.74 49.25 7.74 29.41 27.58 36.58 27.58 66.08 27.58 95.59 27.58 107.48 27.58 127.32 7.74 125.09 7.74"/><path class="cls-5" d="M85.22,67.23H85v0h7.85v0Z"/><path class="cls-6" d="M50.94,85a13.3,13.3,0,1,0,13.3,13.3A13.31,13.31,0,0,0,50.94,85Zm0,20.06a6.76,6.76,0,1,1,6.76-6.76A6.76,6.76,0,0,1,50.94,105Z"/><circle class="cls-7" cx="50.94" cy="98.25" r="6.76" transform="translate(-17.66 11.41) rotate(-10.9)"/><path class="cls-6" d="M183.47,85a13.3,13.3,0,1,0,13.3,13.3A13.3,13.3,0,0,0,183.47,85Zm0,20.06a6.76,6.76,0,1,1,6.76-6.76A6.76,6.76,0,0,1,183.47,105Z"/><circle class="cls-7" cx="183.47" cy="98.25" r="6.76" transform="translate(3.44 202.67) rotate(-58.28)"/><path class="cls-8" d="M130.65,67.23h-1v0h5.54v0Z"/><polygon class="cls-9" points="131.06 27.58 129.15 27.58 135.93 27.58 135.93 27.58 133.4 27.58 131.06 27.58"/><path class="cls-1" d="M125.1,47.42h22.54a9.63,9.63,0,0,1,2.35.28l.15,0,.07-.07a10.14,10.14,0,0,0-2.35-.28h-60l0,0H125.1Z"/><path class="cls-10" d="M125.1,47.42h22.54a9.63,9.63,0,0,1,2.35.28l.15,0,.07-.07a10.14,10.14,0,0,0-2.35-.28h-60l0,0H125.1Z"/><path class="cls-2" d="M85,67.23a3.31,3.31,0,0,1,2-2.8v-1a3.75,3.75,0,0,1-2.44-2.86l0,0a.27.27,0,0,1-.14-.19c0-.16,0-.31,0-.46V57.38a1.94,1.94,0,0,0-1.29.29,1.81,1.81,0,0,0-.59,1.5c0,2.6,0,4.35,0,4.37a.24.24,0,0,1-.23.24H79.85a.24.24,0,0,1-.24-.24V59.3s-.13-3.16,2.59-3.47a4.12,4.12,0,0,1,2.37.3,3.9,3.9,0,0,1,6.68-1.43.26.26,0,0,1,0,.24l0,0a3.73,3.73,0,0,1,.78,2.29V59h.11a.47.47,0,0,1,0,.94h-.11A3.94,3.94,0,0,1,91.89,61a.14.14,0,0,1,.09.14.16.16,0,0,1-.15.16h0a3.76,3.76,0,0,1-2.39,2.18v.84a3.41,3.41,0,0,1,1.4.76h0l1.41,1.21h0a1.84,1.84,0,0,1,.64,1H129.7a2.36,2.36,0,0,1,0-.47v0a1.33,1.33,0,0,1,.14-.6,2.38,2.38,0,0,1,2.08-1.38h0l.65-1.52a3.67,3.67,0,0,1-1-3.77l.2-.64a1.23,1.23,0,0,1-.79-1.54,1.2,1.2,0,0,1,.63-.74,1.21,1.21,0,0,1,0-.84,1.23,1.23,0,0,1,1.2-.87,1.21,1.21,0,0,1,0-.46,1.24,1.24,0,0,1,1.54-.82l.22.09a1.24,1.24,0,0,1,1.45-.6,1.26,1.26,0,0,1,.81.81,1.26,1.26,0,0,1,1.13-.21,1.24,1.24,0,0,1,.82,1.54v0a1.19,1.19,0,0,1,.7,0,1.23,1.23,0,0,1,.82,1.55,1.22,1.22,0,0,1-.83.82,2.73,2.73,0,0,1,0,.57L150,47.7a9.63,9.63,0,0,0-2.35-.28H87.84L68,67.23Z"/><path class="cls-10" d="M85,67.23a3.31,3.31,0,0,1,2-2.8v-1a3.75,3.75,0,0,1-2.44-2.86l0,0a.27.27,0,0,1-.14-.19c0-.16,0-.31,0-.46V57.38a1.94,1.94,0,0,0-1.29.29,1.81,1.81,0,0,0-.59,1.5c0,2.6,0,4.35,0,4.37a.24.24,0,0,1-.23.24H79.85a.24.24,0,0,1-.24-.24V59.3s-.13-3.16,2.59-3.47a4.12,4.12,0,0,1,2.37.3,3.9,3.9,0,0,1,6.68-1.43.26.26,0,0,1,0,.24l0,0a3.73,3.73,0,0,1,.78,2.29V59h.11a.47.47,0,0,1,0,.94h-.11A3.94,3.94,0,0,1,91.89,61a.14.14,0,0,1,.09.14.16.16,0,0,1-.15.16h0a3.76,3.76,0,0,1-2.39,2.18v.84a3.41,3.41,0,0,1,1.4.76h0l1.41,1.21h0a1.84,1.84,0,0,1,.64,1H129.7a2.36,2.36,0,0,1,0-.47v0a1.33,1.33,0,0,1,.14-.6,2.38,2.38,0,0,1,2.08-1.38h0l.65-1.52a3.67,3.67,0,0,1-1-3.77l.2-.64a1.23,1.23,0,0,1-.79-1.54,1.2,1.2,0,0,1,.63-.74,1.21,1.21,0,0,1,0-.84,1.23,1.23,0,0,1,1.2-.87,1.21,1.21,0,0,1,0-.46,1.24,1.24,0,0,1,1.54-.82l.22.09a1.24,1.24,0,0,1,1.45-.6,1.26,1.26,0,0,1,.81.81,1.26,1.26,0,0,1,1.13-.21,1.24,1.24,0,0,1,.82,1.54v0a1.19,1.19,0,0,1,.7,0,1.23,1.23,0,0,1,.82,1.55,1.22,1.22,0,0,1-.83.82,2.73,2.73,0,0,1,0,.57L150,47.7a9.63,9.63,0,0,0-2.35-.28H87.84L68,67.23Z"/><path class="cls-3" d="M139.53,58.15a1.27,1.27,0,0,1,0,.2l10.62-10.61-.15,0Z"/><path class="cls-10" d="M139.53,58.15a1.27,1.27,0,0,1,0,.2l10.62-10.61-.15,0Z"/><path class="cls-11" d="M91.81,61h-.08a2.63,2.63,0,0,1-1.37-.56.16.16,0,0,0-.21.23,2.76,2.76,0,0,0,1.47.63h.21a.16.16,0,0,0,.15-.16.14.14,0,0,0-.09-.14h-.08Z"/><path class="cls-10" d="M91.81,61h-.08a2.63,2.63,0,0,1-1.37-.56.16.16,0,0,0-.21.23,2.76,2.76,0,0,0,1.47.63h.21a.16.16,0,0,0,.15-.16.14.14,0,0,0-.09-.14h-.08Z"/><path class="cls-2" d="M90.31,58a.27.27,0,0,1,.26-.27h-.45a.27.27,0,0,0,0,.53h.45A.26.26,0,0,1,90.31,58Z"/><path class="cls-10" d="M90.31,58a.27.27,0,0,1,.26-.27h-.45a.27.27,0,0,0,0,.53h.45A.26.26,0,0,1,90.31,58Z"/><circle class="cls-6" cx="90.57" cy="57.98" r="0.26"/><circle class="cls-10" cx="90.57" cy="57.98" r="0.26"/><path class="cls-6" d="M84.78,60.6a1.89,1.89,0,0,0,.6.1,1.38,1.38,0,0,0,.6-.13,1.84,1.84,0,0,0,.84-.9,1,1,0,0,1-.21-.11.77.77,0,0,1-.18-.18.86.86,0,0,1-.2-.57.91.91,0,0,1,.91-.91.87.87,0,0,1,.4.09.79.79,0,0,1,.23.16.69.69,0,0,1,.18.24.23.23,0,0,0,0-.15,2.87,2.87,0,0,1,1.53-2.52,5.43,5.43,0,0,1,1.59-.63h0l.07,0,0-.06,0,0a.26.26,0,0,0,0-.24,3.9,3.9,0,0,0-6.68,1.43,4.12,4.12,0,0,0-2.37-.3c-2.72.31-2.59,3.46-2.59,3.47v4.24a.24.24,0,0,0,.24.24h2.44a.24.24,0,0,0,.23-.24s0-1.77,0-4.37a1.81,1.81,0,0,1,.59-1.5,1.94,1.94,0,0,1,1.29-.29v2.49c0,.15,0,.3,0,.46a.27.27,0,0,0,.14.19l0,0,.09,0Z"/><path class="cls-10" d="M84.78,60.6a1.89,1.89,0,0,0,.6.1,1.38,1.38,0,0,0,.6-.13,1.84,1.84,0,0,0,.84-.9,1,1,0,0,1-.21-.11.77.77,0,0,1-.18-.18.86.86,0,0,1-.2-.57.91.91,0,0,1,.91-.91.87.87,0,0,1,.4.09.79.79,0,0,1,.23.16.69.69,0,0,1,.18.24.23.23,0,0,0,0-.15,2.87,2.87,0,0,1,1.53-2.52,5.43,5.43,0,0,1,1.59-.63h0l.07,0,0-.06,0,0a.26.26,0,0,0,0-.24,3.9,3.9,0,0,0-6.68,1.43,4.12,4.12,0,0,0-2.37-.3c-2.72.31-2.59,3.46-2.59,3.47v4.24a.24.24,0,0,0,.24.24h2.44a.24.24,0,0,0,.23-.24s0-1.77,0-4.37a1.81,1.81,0,0,1,.59-1.5,1.94,1.94,0,0,1,1.29-.29v2.49c0,.15,0,.3,0,.46a.27.27,0,0,0,.14.19l0,0,.09,0Z"/><path class="cls-6" d="M90,57.42h.77a.23.23,0,0,0,.24-.23.24.24,0,0,0-.24-.24H90a.23.23,0,0,0-.23.24A.23.23,0,0,0,90,57.42Z"/><path class="cls-10" d="M90,57.42h.77a.23.23,0,0,0,.24-.23.24.24,0,0,0-.24-.24H90a.23.23,0,0,0-.23.24A.23.23,0,0,0,90,57.42Z"/><path class="cls-12" d="M88.57,64.2a3.18,3.18,0,0,1,.82.1v-.84a3.76,3.76,0,0,0,2.39-2.18h-.16a2.76,2.76,0,0,1-1.47-.63.16.16,0,0,1,.21-.23,2.63,2.63,0,0,0,1.37.56h.16a3.94,3.94,0,0,0,.16-1.09h.11a.47.47,0,0,0,0-.94h-.11V57.27A3.73,3.73,0,0,0,91.27,55l0,.06-.07,0h0a5.43,5.43,0,0,0-1.59.63A2.87,2.87,0,0,0,88,58.24a.23.23,0,0,1,0,.15.69.69,0,0,0-.18-.24.79.79,0,0,0-.23-.16.87.87,0,0,0-.4-.09.91.91,0,0,0-.91.91.86.86,0,0,0,.2.57.77.77,0,0,0,.18.18,1,1,0,0,0,.21.11,1.84,1.84,0,0,1-.84.9,1.38,1.38,0,0,1-.6.13,1.89,1.89,0,0,1-.6-.1l-.08,0-.09,0a3.75,3.75,0,0,0,2.44,2.86v1a3.31,3.31,0,0,1,1.22-.23Zm2-6h-.45a.27.27,0,0,1,0-.53h.45a.27.27,0,1,1,0,.53ZM90,57h.77a.24.24,0,0,1,.24.24.23.23,0,0,1-.24.23H90a.23.23,0,0,1-.23-.23A.23.23,0,0,1,90,57Z"/><path class="cls-10" d="M88.57,64.2a3.18,3.18,0,0,1,.82.1v-.84a3.76,3.76,0,0,0,2.39-2.18h-.16a2.76,2.76,0,0,1-1.47-.63.16.16,0,0,1,.21-.23,2.63,2.63,0,0,0,1.37.56h.16a3.94,3.94,0,0,0,.16-1.09h.11a.47.47,0,0,0,0-.94h-.11V57.27A3.73,3.73,0,0,0,91.27,55l0,.06-.07,0h0a5.43,5.43,0,0,0-1.59.63A2.87,2.87,0,0,0,88,58.24a.23.23,0,0,1,0,.15.69.69,0,0,0-.18-.24.79.79,0,0,0-.23-.16.87.87,0,0,0-.4-.09.91.91,0,0,0-.91.91.86.86,0,0,0,.2.57.77.77,0,0,0,.18.18,1,1,0,0,0,.21.11,1.84,1.84,0,0,1-.84.9,1.38,1.38,0,0,1-.6.13,1.89,1.89,0,0,1-.6-.1l-.08,0-.09,0a3.75,3.75,0,0,0,2.44,2.86v1a3.31,3.31,0,0,1,1.22-.23Zm2-6h-.45a.27.27,0,0,1,0-.53h.45a.27.27,0,1,1,0,.53ZM90,57h.77a.24.24,0,0,1,.24.24.23.23,0,0,1-.24.23H90a.23.23,0,0,1-.23-.23A.23.23,0,0,1,90,57Z"/><path class="cls-5" d="M92.2,66.28h0l-1.41-1.21h0a3.41,3.41,0,0,0-1.4-.76,3.18,3.18,0,0,0-.82-.1h-.3a3.26,3.26,0,0,0-3.27,3h7.84A1.84,1.84,0,0,0,92.2,66.28Z"/><path class="cls-10" d="M92.2,66.28h0l-1.41-1.21h0a3.41,3.41,0,0,0-1.4-.76,3.18,3.18,0,0,0-.82-.1h-.3a3.26,3.26,0,0,0-3.27,3h7.84A1.84,1.84,0,0,0,92.2,66.28Z"/><path class="cls-13" d="M139.5,57.58a1.23,1.23,0,0,1-.71,0,1,1,0,0,1-.21-.08,1.25,1.25,0,0,1-1.48.65,1.22,1.22,0,0,1-.39-.21,1,1,0,0,1,0,.17,1.24,1.24,0,0,1-1.54.82,1,1,0,0,1-.36-.18,1.24,1.24,0,0,1-1.42.53,1.2,1.2,0,0,1-.67-.5,1.21,1.21,0,0,1-.86.06h0l-.2.64a3.67,3.67,0,0,0,1,3.77L132,64.75l.88.27,6.67-6.67a1.27,1.27,0,0,0,0-.2A2.73,2.73,0,0,0,139.5,57.58Zm-1.91.82.69.24a.16.16,0,0,1,.12.15.16.16,0,0,1-.16.15h-.05l-.7-.23a.19.19,0,0,1-.11-.15A.16.16,0,0,1,137.59,58.4Zm-.12.61.44.13a.27.27,0,0,1,.17.19l0,.05,0,.09h0l0,.1a.18.18,0,0,1-.2.11l-.1,0h0l-.43-.14a.25.25,0,0,1-.17-.33A.26.26,0,0,1,137.47,59Z"/><path class="cls-10" d="M139.5,57.58a1.23,1.23,0,0,1-.71,0,1,1,0,0,1-.21-.08,1.25,1.25,0,0,1-1.48.65,1.22,1.22,0,0,1-.39-.21,1,1,0,0,1,0,.17,1.24,1.24,0,0,1-1.54.82,1,1,0,0,1-.36-.18,1.24,1.24,0,0,1-1.42.53,1.2,1.2,0,0,1-.67-.5,1.21,1.21,0,0,1-.86.06h0l-.2.64a3.67,3.67,0,0,0,1,3.77L132,64.75l.88.27,6.67-6.67a1.27,1.27,0,0,0,0-.2A2.73,2.73,0,0,0,139.5,57.58Zm-1.91.82.69.24a.16.16,0,0,1,.12.15.16.16,0,0,1-.16.15h-.05l-.7-.23a.19.19,0,0,1-.11-.15A.16.16,0,0,1,137.59,58.4Zm-.12.61.44.13a.27.27,0,0,1,.17.19l0,.05,0,.09h0l0,.1a.18.18,0,0,1-.2.11l-.1,0h0l-.43-.14a.25.25,0,0,1-.17-.33A.26.26,0,0,1,137.47,59Z"/><path class="cls-2" d="M137.32,59.51l.43.14h0l-.11,0a.28.28,0,0,1,0-.22.27.27,0,0,1,.33-.18.26.26,0,0,1,.15.12.27.27,0,0,0-.17-.19l-.44-.13a.26.26,0,0,0-.32.17A.25.25,0,0,0,137.32,59.51Z"/><path class="cls-10" d="M137.32,59.51l.43.14h0l-.11,0a.28.28,0,0,1,0-.22.27.27,0,0,1,.33-.18.26.26,0,0,1,.15.12.27.27,0,0,0-.17-.19l-.44-.13a.26.26,0,0,0-.32.17A.25.25,0,0,0,137.32,59.51Z"/><path class="cls-14" d="M132.68,58.77a1.2,1.2,0,0,0,.67.5,1.24,1.24,0,0,0,1.42-.53,1,1,0,0,0,.36.18,1.24,1.24,0,0,0,1.54-.82,1,1,0,0,0,0-.17,1.22,1.22,0,0,0,.39.21,1.25,1.25,0,0,0,1.48-.65,1,1,0,0,0,.21.08,1.23,1.23,0,1,0,.72-2.36,1.19,1.19,0,0,0-.7,0v0a1.24,1.24,0,0,0-.82-1.54,1.26,1.26,0,0,0-1.13.21,1.26,1.26,0,0,0-.81-.81,1.24,1.24,0,0,0-1.45.6l-.22-.09a1.24,1.24,0,0,0-1.54.82,1.21,1.21,0,0,0,0,.46,1.23,1.23,0,0,0-1.2.87,1.21,1.21,0,0,0,0,.84,1.2,1.2,0,0,0-.63.74,1.23,1.23,0,0,0,.79,1.54h0A1.21,1.21,0,0,0,132.68,58.77Z"/><path class="cls-10" d="M132.68,58.77a1.2,1.2,0,0,0,.67.5,1.24,1.24,0,0,0,1.42-.53,1,1,0,0,0,.36.18,1.24,1.24,0,0,0,1.54-.82,1,1,0,0,0,0-.17,1.22,1.22,0,0,0,.39.21,1.25,1.25,0,0,0,1.48-.65,1,1,0,0,0,.21.08,1.23,1.23,0,1,0,.72-2.36,1.19,1.19,0,0,0-.7,0v0a1.24,1.24,0,0,0-.82-1.54,1.26,1.26,0,0,0-1.13.21,1.26,1.26,0,0,0-.81-.81,1.24,1.24,0,0,0-1.45.6l-.22-.09a1.24,1.24,0,0,0-1.54.82,1.21,1.21,0,0,0,0,.46,1.23,1.23,0,0,0-1.2.87,1.21,1.21,0,0,0,0,.84,1.2,1.2,0,0,0-.63.74,1.23,1.23,0,0,0,.79,1.54h0A1.21,1.21,0,0,0,132.68,58.77Z"/><path class="cls-8" d="M132.85,65l-.88-.27h0a2.38,2.38,0,0,0-2.08,1.38,1.33,1.33,0,0,0-.14.6v0a2.36,2.36,0,0,0,0,.47h1Z"/><path class="cls-10" d="M132.85,65l-.88-.27h0a2.38,2.38,0,0,0-2.08,1.38,1.33,1.33,0,0,0-.14.6v0a2.36,2.36,0,0,0,0,.47h1Z"/><path class="cls-6" d="M137.93,59.21a.27.27,0,0,0-.33.18.28.28,0,0,0,0,.22l.11,0,.1,0a.18.18,0,0,0,.2-.11l0-.1h0l0-.09,0-.05A.26.26,0,0,0,137.93,59.21Z"/><path class="cls-10" d="M137.93,59.21a.27.27,0,0,0-.33.18.28.28,0,0,0,0,.22l.11,0,.1,0a.18.18,0,0,0,.2-.11l0-.1h0l0-.09,0-.05A.26.26,0,0,0,137.93,59.21Z"/><path class="cls-7" d="M137.49,58.7l.7.23h.05a.16.16,0,0,0,.16-.15.16.16,0,0,0-.12-.15l-.69-.24a.16.16,0,0,0-.21.15A.19.19,0,0,0,137.49,58.7Z"/><path class="cls-10" d="M137.49,58.7l.7.23h.05a.16.16,0,0,0,.16-.15.16.16,0,0,0-.12-.15l-.69-.24a.16.16,0,0,0-.21.15A.19.19,0,0,0,137.49,58.7Z"/><path class="cls-2" d="M92.54,111.89s0,0,0,0a.22.22,0,0,0,0-.23Z"/><path class="cls-1" d="M150.21,47.67l-.07.07a9.92,9.92,0,0,1-1.23,19.43,9.92,9.92,0,0,0,1.3-19.5Z"/><path class="cls-15" d="M150.21,47.67l-.07.07a9.92,9.92,0,0,1-1.23,19.43,9.92,9.92,0,0,0,1.3-19.5Z"/><path class="cls-3" d="M157.56,57.33a9.92,9.92,0,0,0-7.42-9.59L139.52,58.35a3.58,3.58,0,0,1-.15.78l-.49,1.61.67.2a.5.5,0,0,1,.35.52.47.47,0,0,1-.47.4.36.36,0,0,1-.14,0l-.69-.21a3.55,3.55,0,0,1-.47,1h0a.16.16,0,0,1,.1.2.15.15,0,0,1-.15.11h0l-.12,0a3.68,3.68,0,0,1-3.66,1.24l-.51,1.2.41.13a1.29,1.29,0,0,1,.28.08h0a1.31,1.31,0,0,1,.78,1.2v.51h12.62a9.24,9.24,0,0,0,1-.06,9.92,9.92,0,0,0,8.65-9.84Z"/><path class="cls-4" d="M157.56,57.33a9.92,9.92,0,0,0-7.42-9.59L139.52,58.35a3.58,3.58,0,0,1-.15.78l-.49,1.61.67.2a.5.5,0,0,1,.35.52.47.47,0,0,1-.47.4.36.36,0,0,1-.14,0l-.69-.21a3.55,3.55,0,0,1-.47,1h0a.16.16,0,0,1,.1.2.15.15,0,0,1-.15.11h0l-.12,0a3.68,3.68,0,0,1-3.66,1.24l-.51,1.2.41.13a1.29,1.29,0,0,1,.28.08h0a1.31,1.31,0,0,1,.78,1.2v.51h12.62a9.24,9.24,0,0,0,1-.06,9.92,9.92,0,0,0,8.65-9.84Z"/><path class="cls-13" d="M132.85,65l.92.29.51-1.2a3.68,3.68,0,0,0,3.66-1.24,2.81,2.81,0,0,1-1.28-1,.16.16,0,0,1,0-.23.16.16,0,0,1,.21,0,2.56,2.56,0,0,0,1.22,1,3.55,3.55,0,0,0,.47-1l.69.21a.36.36,0,0,0,.14,0,.47.47,0,0,0,.47-.4.5.5,0,0,0-.35-.52l-.67-.2.49-1.61a3.58,3.58,0,0,0,.15-.78Z"/><path class="cls-15" d="M132.85,65l.92.29.51-1.2a3.68,3.68,0,0,0,3.66-1.24,2.81,2.81,0,0,1-1.28-1,.16.16,0,0,1,0-.23.16.16,0,0,1,.21,0,2.56,2.56,0,0,0,1.22,1,3.55,3.55,0,0,0,.47-1l.69.21a.36.36,0,0,0,.14,0,.47.47,0,0,0,.47-.4.5.5,0,0,0-.35-.52l-.67-.2.49-1.61a3.58,3.58,0,0,0,.15-.78Z"/><path class="cls-11" d="M136.91,61.64a.16.16,0,0,0-.21,0,.16.16,0,0,0,0,.23,2.81,2.81,0,0,0,1.28,1l.12,0h0a.15.15,0,0,0,.15-.11.16.16,0,0,0-.1-.2h0A2.56,2.56,0,0,1,136.91,61.64Z"/><path class="cls-15" d="M136.91,61.64a.16.16,0,0,0-.21,0,.16.16,0,0,0,0,.23,2.81,2.81,0,0,0,1.28,1l.12,0h0a.15.15,0,0,0,.15-.11.16.16,0,0,0-.1-.2h0A2.56,2.56,0,0,1,136.91,61.64Z"/><path class="cls-8" d="M130.65,67.23h4.59v-.51a1.31,1.31,0,0,0-.78-1.2h0a1.29,1.29,0,0,0-.28-.08l-.41-.13-.92-.29Z"/><path class="cls-15" d="M130.65,67.23h4.59v-.51a1.31,1.31,0,0,0-.78-1.2h0a1.29,1.29,0,0,0-.28-.08l-.41-.13-.92-.29Z"/><path class="cls-2" d="M184.11,7.74H127.32L107.48,27.58h21.67a3.75,3.75,0,0,1,1.91-1.25V24.9A3.83,3.83,0,0,1,128.55,22l-.06,0a.25.25,0,0,1-.14-.19,3.67,3.67,0,0,1,0-.46v-2.6a3.91,3.91,0,0,1,6.86-2.56.24.24,0,0,1,0,.23.08.08,0,0,1,0,0,3.73,3.73,0,0,1,.78,2.29v1.68h.49a.47.47,0,0,1,0,.94H136a3.65,3.65,0,0,1-.44,1.74.13.13,0,0,1,.07.13.15.15,0,0,1-.15.15h-.08a3.76,3.76,0,0,1-2,1.52v1.29a4,4,0,0,1,2.53,1.39h34.18L189.94,7.74Z"/><path class="cls-10" d="M184.11,7.74H127.32L107.48,27.58h21.67a3.75,3.75,0,0,1,1.91-1.25V24.9A3.83,3.83,0,0,1,128.55,22l-.06,0a.25.25,0,0,1-.14-.19,3.67,3.67,0,0,1,0-.46v-2.6a3.91,3.91,0,0,1,6.86-2.56.24.24,0,0,1,0,.23.08.08,0,0,1,0,0,3.73,3.73,0,0,1,.78,2.29v1.68h.49a.47.47,0,0,1,0,.94H136a3.65,3.65,0,0,1-.44,1.74.13.13,0,0,1,.07.13.15.15,0,0,1-.15.15h-.08a3.76,3.76,0,0,1-2,1.52v1.29a4,4,0,0,1,2.53,1.39h34.18L189.94,7.74Z"/><path class="cls-2" d="M134.76,19.45a.26.26,0,0,0-.26-.27h-.45a.27.27,0,0,0,0,.53h.45A.26.26,0,0,0,134.76,19.45Zm-.46,0a.21.21,0,0,1,.42,0,.21.21,0,1,1-.42,0Z"/><path class="cls-10" d="M134.76,19.45a.26.26,0,0,0-.26-.27h-.45a.27.27,0,0,0,0,.53h.45A.26.26,0,0,0,134.76,19.45Zm-.46,0a.21.21,0,0,1,.42,0,.21.21,0,1,1-.42,0Z"/><path class="cls-6" d="M134.72,19.45a.21.21,0,0,0-.42,0,.21.21,0,1,0,.42,0Z"/><path class="cls-10" d="M134.72,19.45a.21.21,0,0,0-.42,0,.21.21,0,1,0,.42,0Z"/><path class="cls-1" d="M129.3,22.17a1.39,1.39,0,0,0,.61-.13,1.89,1.89,0,0,0,.84-.9.91.91,0,1,1,1.13-1.28.23.23,0,0,0,.05-.15,2.87,2.87,0,0,1,1.53-2.52,5.43,5.43,0,0,1,1.59-.63.21.21,0,0,0,.15-.11.08.08,0,0,0,0,0,.24.24,0,0,0,0-.23,3.91,3.91,0,0,0-6.86,2.56v2.6a3.67,3.67,0,0,0,0,.46.25.25,0,0,0,.14.19l.06,0A2,2,0,0,0,129.3,22.17Z"/><path class="cls-10" d="M129.3,22.17a1.39,1.39,0,0,0,.61-.13,1.89,1.89,0,0,0,.84-.9.91.91,0,1,1,1.13-1.28.23.23,0,0,0,.05-.15,2.87,2.87,0,0,1,1.53-2.52,5.43,5.43,0,0,1,1.59-.63.21.21,0,0,0,.15-.11.08.08,0,0,0,0,0,.24.24,0,0,0,0-.23,3.91,3.91,0,0,0-6.86,2.56v2.6a3.67,3.67,0,0,0,0,.46.25.25,0,0,0,.14.19l.06,0A2,2,0,0,0,129.3,22.17Z"/><path class="cls-1" d="M133.86,18.85h.81a.23.23,0,1,0,0-.46h-.81a.23.23,0,1,0,0,.46Z"/><path class="cls-10" d="M133.86,18.85h.81a.23.23,0,1,0,0-.46h-.81a.23.23,0,1,0,0,.46Z"/><path class="cls-11" d="M135.46,23.07A2.55,2.55,0,0,1,134,22.5a.16.16,0,0,0-.21.24,2.86,2.86,0,0,0,1.6.64h.08a.15.15,0,0,0,.15-.15.13.13,0,0,0-.07-.13A.11.11,0,0,0,135.46,23.07Z"/><path class="cls-10" d="M135.46,23.07A2.55,2.55,0,0,1,134,22.5a.16.16,0,0,0-.21.24,2.86,2.86,0,0,0,1.6.64h.08a.15.15,0,0,0,.15-.15.13.13,0,0,0-.07-.13A.11.11,0,0,0,135.46,23.07Z"/><path class="cls-12" d="M132.71,26.14a3.87,3.87,0,0,1,.69.05V24.9a3.76,3.76,0,0,0,2-1.52,2.86,2.86,0,0,1-1.6-.64.16.16,0,0,1,.21-.24,2.55,2.55,0,0,0,1.47.57.11.11,0,0,1,.08,0,3.65,3.65,0,0,0,.44-1.74h.49a.47.47,0,0,0,0-.94H136V18.74a3.73,3.73,0,0,0-.78-2.29.21.21,0,0,1-.15.11,5.43,5.43,0,0,0-1.59.63,2.87,2.87,0,0,0-1.53,2.52.23.23,0,0,1-.05.15.91.91,0,1,0-1.13,1.28,1.89,1.89,0,0,1-.84.9,1.39,1.39,0,0,1-.61.13,2,2,0,0,1-.75-.16,3.83,3.83,0,0,0,2.51,2.89v1.43a4.26,4.26,0,0,1,1.3-.19Zm1.08-6.69a.26.26,0,0,1,.26-.27h.45a.27.27,0,0,1,0,.53h-.45A.26.26,0,0,1,133.79,19.45Zm.07-1.06h.81a.23.23,0,1,1,0,.46h-.81a.23.23,0,1,1,0-.46Z"/><path class="cls-10" d="M132.71,26.14a3.87,3.87,0,0,1,.69.05V24.9a3.76,3.76,0,0,0,2-1.52,2.86,2.86,0,0,1-1.6-.64.16.16,0,0,1,.21-.24,2.55,2.55,0,0,0,1.47.57.11.11,0,0,1,.08,0,3.65,3.65,0,0,0,.44-1.74h.49a.47.47,0,0,0,0-.94H136V18.74a3.73,3.73,0,0,0-.78-2.29.21.21,0,0,1-.15.11,5.43,5.43,0,0,0-1.59.63,2.87,2.87,0,0,0-1.53,2.52.23.23,0,0,1-.05.15.91.91,0,1,0-1.13,1.28,1.89,1.89,0,0,1-.84.9,1.39,1.39,0,0,1-.61.13,2,2,0,0,1-.75-.16,3.83,3.83,0,0,0,2.51,2.89v1.43a4.26,4.26,0,0,1,1.3-.19Zm1.08-6.69a.26.26,0,0,1,.26-.27h.45a.27.27,0,0,1,0,.53h-.45A.26.26,0,0,1,133.79,19.45Zm.07-1.06h.81a.23.23,0,1,1,0,.46h-.81a.23.23,0,1,1,0-.46Z"/><path class="cls-9" d="M133.4,26.19a3.87,3.87,0,0,0-.69-.05h-.35a4.26,4.26,0,0,0-1.3.19,3.75,3.75,0,0,0-1.91,1.25h6.78A4,4,0,0,0,133.4,26.19Z"/><path class="cls-10" d="M133.4,26.19a3.87,3.87,0,0,0-.69-.05h-.35a4.26,4.26,0,0,0-1.3.19,3.75,3.75,0,0,0-1.91,1.25h6.78A4,4,0,0,0,133.4,26.19Z"/></g></g></svg>