<svg xmlns="http://www.w3.org/2000/svg" viewBox="0 0 382.75 75.79"><defs><style>.cls-1{fill:#062837;stroke:#062837;stroke-linecap:round;stroke-linejoin:round;stroke-width:1.54px;}</style></defs><title>four-stars</title><g id="Layer_2" data-name="Layer 2"><g id="Winter"><g id="Recognised_for_Excellence_by_Quality_Scotland" data-name="Recognised for Excellence by Quality Scotland"><path class="cls-1" d="M41.09,1.61,52.31,24.35,77.39,28a1.51,1.51,0,0,1,.84,2.58L60.08,48.27l4.28,25a1.51,1.51,0,0,1-2.19,1.6L39.73,63.05,17.29,74.85a1.51,1.51,0,0,1-2.19-1.6l4.28-25L1.23,30.57A1.51,1.51,0,0,1,2.06,28l25.09-3.64L38.37,1.61A1.52,1.52,0,0,1,41.09,1.61Z"/><path class="cls-1" d="M142.18,1.61,153.4,24.35,178.49,28a1.51,1.51,0,0,1,.84,2.58l-18.15,17.7,4.28,25a1.51,1.51,0,0,1-2.19,1.6l-22.44-11.8-22.44,11.8a1.52,1.52,0,0,1-2.2-1.6l4.29-25-18.16-17.7a1.52,1.52,0,0,1,.84-2.58l25.09-3.64L139.47,1.61A1.51,1.51,0,0,1,142.18,1.61Z"/><path class="cls-1" d="M243.28,1.61,254.5,24.35,279.59,28a1.52,1.52,0,0,1,.84,2.58l-18.16,17.7,4.29,25a1.52,1.52,0,0,1-2.2,1.6l-22.44-11.8-22.44,11.8a1.51,1.51,0,0,1-2.19-1.6l4.29-25-18.16-17.7a1.51,1.51,0,0,1,.84-2.58l25.09-3.64L240.57,1.61A1.51,1.51,0,0,1,243.28,1.61Z"/><path class="cls-1" d="M344.38,1.61,355.6,24.35,380.69,28a1.51,1.51,0,0,1,.83,2.58l-18.15,17.7,4.29,25a1.52,1.52,0,0,1-2.2,1.6L343,63.05l-22.44,11.8a1.51,1.51,0,0,1-2.19-1.6l4.28-25-18.15-17.7a1.51,1.51,0,0,1,.84-2.58l25.09-3.64L341.67,1.61A1.51,1.51,0,0,1,344.38,1.61Z"/></g></g></g></svg>