<svg xmlns="http://www.w3.org/2000/svg" viewBox="0 0 33.87 33.87"><defs><style>.cls-1{fill:#e95736;stroke:#e95736;stroke-linejoin:round;stroke-width:3.7px;}.cls-1,.cls-2{stroke-linecap:round;}.cls-2{fill:none;stroke:#2d2d2b;stroke-miterlimit:10;stroke-width:0.89px;}</style></defs><title>leaf-1</title><g id="Layer_2" data-name="Layer 2"><g id="Sky"><path class="cls-1" d="M8.05,6.14,22.14,2a2.83,2.83,0,0,1,2.8.71h0a2.82,2.82,0,0,1-1.19,4.7L19.48,8.63a2.82,2.82,0,0,0-1.19,4.7l.47.47a2.82,2.82,0,0,0,2.79.71l6.32-1.88a2.85,2.85,0,0,1,2.8.71l.53.53a2.83,2.83,0,0,1-1.15,4.69l-.54.16a2.83,2.83,0,0,0-1.15,4.69l1.29,1.29a2.79,2.79,0,0,1,0,4l-1,1a2.79,2.79,0,0,1-4,0l-1.29-1.29a2.83,2.83,0,0,0-4.69,1.15l-.16.54a2.83,2.83,0,0,1-4.69,1.15l-.53-.53a2.85,2.85,0,0,1-.71-2.8l1.88-6.32a2.82,2.82,0,0,0-.71-2.79l-.47-.47a2.82,2.82,0,0,0-4.7,1.19L7.37,23.75a2.82,2.82,0,0,1-4.7,1.19h0A2.83,2.83,0,0,1,2,22.14L6.14,8.05A2.86,2.86,0,0,1,8.05,6.14Z"/><line class="cls-2" x1="22.99" y1="22.99" x2="2.88" y2="2.88"/></g></g></svg>