<svg xmlns="http://www.w3.org/2000/svg" viewBox="0 0 320 75.79"><defs><style>.cls-1{fill:#062837;stroke:#062837;stroke-linecap:round;stroke-linejoin:round;stroke-width:1.54px;}</style></defs><title>star</title>

<g id="Layer_2" data-name="Layer 2">
<g id="Winter">
	<g id="Recognised_for_Excellence_by_Quality_Scotland" data-name="Recognised for Excellence by Quality Scotland">
<path class="cls-1" d="M41.09,1.61,52.31,24.35,77.39,28a1.51,1.51,0,0,1,.84,2.58L60.08,48.27l4.28,25a1.51,1.51,0,0,1-2.19,1.6L39.73,63.05,17.29,74.85a1.51,1.51,0,0,1-2.19-1.6l4.28-25L1.23,30.57A1.51,1.51,0,0,1,2.06,28l25.09-3.64L38.37,1.61A1.52,1.52,0,0,1,41.09,1.61Z"/>
<path class="cls-1" d="M41.09,1.61,52.31,24.35,77.39,28a1.51,1.51,0,0,1,.84,2.58L60.08,48.27l4.28,25a1.51,1.51,0,0,1-2.19,1.6L39.73,63.05,17.29,74.85a1.51,1.51,0,0,1-2.19-1.6l4.28-25L1.23,30.57A1.51,1.51,0,0,1,2.06,28l25.09-3.64L38.37,1.61A1.52,1.52,0,0,1,41.09,1.61Z"/>
<path class="cls-1" d="M41.09,1.61,52.31,24.35,77.39,28a1.51,1.51,0,0,1,.84,2.58L60.08,48.27l4.28,25a1.51,1.51,0,0,1-2.19,1.6L39.73,63.05,17.29,74.85a1.51,1.51,0,0,1-2.19-1.6l4.28-25L1.23,30.57A1.51,1.51,0,0,1,2.06,28l25.09-3.64L38.37,1.61A1.52,1.52,0,0,1,41.09,1.61Z"/>
<path class="cls-1" d="M41.09,1.61,52.31,24.35,77.39,28a1.51,1.51,0,0,1,.84,2.58L60.08,48.27l4.28,25a1.51,1.51,0,0,1-2.19,1.6L39.73,63.05,17.29,74.85a1.51,1.51,0,0,1-2.19-1.6l4.28-25L1.23,30.57A1.51,1.51,0,0,1,2.06,28l25.09-3.64L38.37,1.61A1.52,1.52,0,0,1,41.09,1.61Z"/>

</g></g></g></svg>