<svg  xmlns="http://www.w3.org/2000/svg" viewBox="0 0 119.42 64.12"><defs><style>.cls-1{fill:#062837;}.cls-2{fill:#eeeeef;}.cls-3{fill:#2d2d2b;}.cls-4{fill:#848072;}.cls-5{fill:#ebe7da;}</style></defs><title>van</title><g id="Layer_2" data-name="Layer 2"><g id="Street"><path class="cls-1" d="M119.3,32.26c0-4.93-3.94-8.4-5.57-9.63h-30a3.12,3.12,0,0,1-3.09-3.14V8.73a3.12,3.12,0,0,1,3.07-3.14l9-.07L89.06,2.57A7.65,7.65,0,0,0,83.38,0H7.69A7.77,7.77,0,0,0,0,7.82V46a7.77,7.77,0,0,0,7.69,7.82h4.16a2.35,2.35,0,0,0,2.31-2,11.47,11.47,0,0,1,11.19-9.74,11.47,11.47,0,0,1,11.2,9.74,2.35,2.35,0,0,0,2.31,2H80.67a2.35,2.35,0,0,0,2.31-2,11.3,11.3,0,0,1,22.39,0,2.35,2.35,0,0,0,2.31,2h1.88a10.21,10.21,0,0,0,6.13-2,8,8,0,0,0,3.3-5.22C119.55,43.35,119.46,37,119.3,32.26Z"/><path class="cls-2" d="M80.62,8.73V19.49a3.12,3.12,0,0,0,3.09,3.14h30c-.36-.27-.61-.43-.69-.48L92.68,5.52l-9,.07A3.12,3.12,0,0,0,80.62,8.73Z"/><ellipse class="cls-3" cx="25.35" cy="53.58" rx="10.37" ry="10.54"/><ellipse class="cls-4" cx="25.35" cy="53.58" rx="5.27" ry="5.36"/><ellipse class="cls-3" cx="94.18" cy="53.58" rx="10.37" ry="10.54"/><ellipse class="cls-4" cx="94.18" cy="53.58" rx="5.27" ry="5.36"/><path class="cls-5" d="M53.54,11.23a13,13,0,0,0-1.65,0,10.35,10.35,0,0,0-2.57.42c-.65.22-.92.42-.92,1v6.58a.22.22,0,0,0,.23.23H49.9a.22.22,0,0,0,.23-.23V12.83a10.85,10.85,0,0,1,3.42-.21.18.18,0,0,0,.2-.18v-1A.23.23,0,0,0,53.54,11.23Z"/><path class="cls-5" d="M32.25,18.39a6.36,6.36,0,0,0,1.9-.31c.21-.06.27,0,.3.15l.16.71a.26.26,0,0,1-.17.33,7.25,7.25,0,0,1-2.46.4c-2.82,0-3.7-1.39-3.7-4.25s.88-4.23,3.7-4.23a7.25,7.25,0,0,1,2.46.4.26.26,0,0,1,.17.33l-.16.71c0,.12-.09.21-.3.15a6.36,6.36,0,0,0-1.9-.31c-1.7,0-2.21.74-2.21,3S30.55,18.39,32.25,18.39Z"/><path class="cls-5" d="M41.66,19.48a8.47,8.47,0,0,1-2,.22c-1.51,0-3.59-.13-3.59-2.6,0-2,1.18-2.19,2.52-2.42l2.76-.46v-.57c0-.47,0-.81-.47-1a3.38,3.38,0,0,0-1.25-.16,10.56,10.56,0,0,0-2.65.44h-.11a.18.18,0,0,1-.18-.14L36.46,12a.22.22,0,0,1,.16-.26,11.51,11.51,0,0,1,3.27-.51,4.72,4.72,0,0,1,2.26.42,2,2,0,0,1,.87,2v4.28C43,19,42.71,19.23,41.66,19.48ZM39,15.82c-.62.11-1.21.2-1.21,1.25,0,1.33,1.06,1.42,1.88,1.42a5.26,5.26,0,0,0,1.64-.24V15.44Z"/><path class="cls-5" d="M61.62,19.5H60.36a.23.23,0,0,1-.25-.23V13.72c0-1-.35-1.26-1.24-1.26a9.76,9.76,0,0,0-2.25.32v6.49a.22.22,0,0,1-.23.23H55.13a.23.23,0,0,1-.24-.23V12.71c0-.59.2-.82,1-1.09A12.9,12.9,0,0,1,59,11.19c1.85,0,2.82.53,2.82,2.3v5.78A.22.22,0,0,1,61.62,19.5Z"/><path class="cls-5" d="M46.18,10.22h-.93a.4.4,0,0,1-.4-.4v-1a.39.39,0,0,1,.38-.39h.94a.4.4,0,0,1,.39.41v1A.38.38,0,0,1,46.18,10.22Z"/><path class="cls-5" d="M44.85,11.88V18A.08.08,0,0,0,45,18l.68-.64a.08.08,0,0,1,.11,0l.66.64a.08.08,0,0,0,.13-.06v-6.1a.38.38,0,0,0-.38-.39h-1A.38.38,0,0,0,44.85,11.88Z"/></g></g></svg>